<svg xmlns="http://www.w3.org/2000/svg" id="cn-nths-expy-5" width="114" height="69" viewBox="0 0 38 23"><g><path d="M0,0 H38 V23 H0 Z" fill="none"/><path d="M3,1 H35 C35,1 37,1 37,3 V17 C37,17 37,19 35,19 H3 C3,19 1,19 1,17 V3 C1,3 1,1 3,1" fill="none" stroke="hsl(0, 8%, 100%)" stroke-linejoin="round" stroke-miterlimit="4px" stroke-width="2"/><path d="M3,1 H35 C35,1 37,1 37,3 V17 C37,17 37,19 35,19 H3 C3,19 1,19 1,17 V3 C1,3 1,1 3,1" fill="hsl(140, 76%, 42%)"/><path d="M35,1H3A2,2,0,0,0,1,3V4H37V3A2,2,0,0,0,35,1Z" fill="hsl(0, 88%, 62%)"/><path d="M0,8.5 H38 V14.5 H0 Z" fill="none" id="mapbox-text-placeholder"/></g></svg>