<svg id="Layer_2" data-name="Layer 2" xmlns="http://www.w3.org/2000/svg" viewBox="0 0 296.24 32.22"><title>качество воздуха мониторинг обозаначения</title><path d="M16.11,0A16.11,16.11,0,1,0,32.22,16.11,16.11,16.11,0,0,0,16.11,0Z" style="fill:#30c900"/><path d="M11.37,8.42a7.84,7.84,0,0,1,5.18,2.35,5.68,5.68,0,0,0,3.78,1.78c1.66,0,3-1.09,4.24-2.32a.77.77,0,0,1,1.1,1.07A8.85,8.85,0,0,1,21.45,14a5.27,5.27,0,0,1-1.12.12,7.22,7.22,0,0,1-4.81-2.2A6.37,6.37,0,0,0,11.37,10h-.31a5.06,5.06,0,0,0-3.51,2.16.77.77,0,0,1-1.21-1,6.52,6.52,0,0,1,4.59-2.74l.43,0" style="fill:#fff"/><path d="M11.37,13.2a7.84,7.84,0,0,1,5.18,2.35,5.68,5.68,0,0,0,3.78,1.78c1.66,0,3-1.09,4.24-2.32a.77.77,0,0,1,1.1,1.07,8.85,8.85,0,0,1-4.22,2.67,5.27,5.27,0,0,1-1.12.12,7.22,7.22,0,0,1-4.81-2.2,6.37,6.37,0,0,0-4.15-1.94h-.31a5.06,5.06,0,0,0-3.51,2.16.77.77,0,0,1-1.21-1,6.52,6.52,0,0,1,4.59-2.74l.43,0" style="fill:#fff"/><path d="M11.37,18a7.84,7.84,0,0,1,5.18,2.35,5.68,5.68,0,0,0,3.78,1.78c1.66,0,3-1.09,4.24-2.32a.77.77,0,0,1,1.1,1.07,8.85,8.85,0,0,1-4.22,2.67,5.27,5.27,0,0,1-1.12.12,7.22,7.22,0,0,1-4.81-2.2,6.37,6.37,0,0,0-4.15-1.94h-.31a5.06,5.06,0,0,0-3.51,2.16.77.77,0,0,1-1.21-1A6.52,6.52,0,0,1,10.93,18l.43,0" style="fill:#fff"/><path d="M40.18,14.58h21v1.07h-21Z" style="fill:#383838"/><path d="M74,14.07H70.67v6.74H69.16V6.11h1.51v6.59H74l5-6.59h1.68l-5.46,7.14L81,20.81H79.21Z" style="fill:#383838"/><path d="M92.63,16.89H84.44l-1.76,3.93H81.06l6.72-14.7h1.53L96,20.81H94.4Zm-.57-1.26-3.53-7.9L85,15.63Z" style="fill:#383838"/><path d="M108.28,6.11v14.7h-1.51V14.72a11.72,11.72,0,0,1-4.64,1,5.9,5.9,0,0,1-4-1.26A4.44,4.44,0,0,1,96.66,11V6.11H98.2V10.8a3.34,3.34,0,0,0,1.07,2.65,4.39,4.39,0,0,0,3,.95,10.72,10.72,0,0,0,4.49-1V6.11Z" style="fill:#383838"/><path d="M123.65,19.47v1.34h-10.4V6.11h10.08V7.46h-8.53v5.23h7.6V14h-7.6v5.46Z" style="fill:#383838"/><path d="M129.5,20a7.06,7.06,0,0,1-2.75-2.68,7.47,7.47,0,0,1-1-3.83,7.47,7.47,0,0,1,1-3.83A7.05,7.05,0,0,1,129.51,7a8.09,8.09,0,0,1,3.95-1,8.2,8.2,0,0,1,3,.55,6.27,6.27,0,0,1,2.35,1.6l-1,1a5.86,5.86,0,0,0-4.35-1.74,6.39,6.39,0,0,0-3.17.8,5.83,5.83,0,0,0-2.24,2.18,6.05,6.05,0,0,0-.81,3.11,6.05,6.05,0,0,0,.81,3.11,5.83,5.83,0,0,0,2.24,2.18,6.39,6.39,0,0,0,3.17.8,5.78,5.78,0,0,0,4.35-1.76l1,1a6.35,6.35,0,0,1-2.36,1.61,8.12,8.12,0,0,1-3,.56A8,8,0,0,1,129.5,20Z" style="fill:#383838"/><path d="M151.47,7.46h-5.17V20.81h-1.53V7.46h-5.17V6.11h11.86Z" style="fill:#383838"/><path d="M165.25,14.46a3.5,3.5,0,0,1,.8,2.38,3.47,3.47,0,0,1-1.35,2.94,6.5,6.5,0,0,1-4,1H154.2V6.11h6.11a6.13,6.13,0,0,1,3.67,1,3.24,3.24,0,0,1,1.32,2.79,3.41,3.41,0,0,1-.63,2.09,3.74,3.74,0,0,1-1.76,1.27A4.07,4.07,0,0,1,165.25,14.46Zm-9.51-1.69h4.49a4.26,4.26,0,0,0,2.61-.69,2.37,2.37,0,0,0,.91-2,2.37,2.37,0,0,0-.91-2,4.25,4.25,0,0,0-2.61-.69h-4.49Zm8.78,4q0-2.77-3.8-2.77h-5v5.61h5Q164.52,19.57,164.52,16.74Z" style="fill:#383838"/><path d="M172.42,20a7.13,7.13,0,0,1-2.77-2.68,7.41,7.41,0,0,1-1-3.82,7.41,7.41,0,0,1,1-3.82A7.13,7.13,0,0,1,172.42,7a8.51,8.51,0,0,1,7.9,0,7.16,7.16,0,0,1,2.76,2.68,7.41,7.41,0,0,1,1,3.83,7.41,7.41,0,0,1-1,3.83A7.14,7.14,0,0,1,180.32,20a8.51,8.51,0,0,1-7.9,0Zm7.11-1.2a5.7,5.7,0,0,0,2.21-2.18,6.18,6.18,0,0,0,.8-3.12,6.18,6.18,0,0,0-.8-3.12,5.7,5.7,0,0,0-2.21-2.18,6.71,6.71,0,0,0-6.31,0A5.75,5.75,0,0,0,171,10.34a6.11,6.11,0,0,0-.81,3.12,6.11,6.11,0,0,0,.81,3.12,5.74,5.74,0,0,0,2.23,2.18,6.71,6.71,0,0,0,6.31,0Z" style="fill:#383838"/><path d="M204.35,14.46a3.5,3.5,0,0,1,.8,2.38,3.47,3.47,0,0,1-1.35,2.94,6.5,6.5,0,0,1-4,1h-6.51V6.11h6.11a6.13,6.13,0,0,1,3.67,1,3.24,3.24,0,0,1,1.32,2.79,3.41,3.41,0,0,1-.63,2.09A3.74,3.74,0,0,1,202,13.23,4.07,4.07,0,0,1,204.35,14.46Zm-9.51-1.69h4.49a4.26,4.26,0,0,0,2.61-.69,2.37,2.37,0,0,0,.91-2,2.37,2.37,0,0,0-.91-2,4.25,4.25,0,0,0-2.61-.69h-4.49Zm8.78,4q0-2.77-3.8-2.77h-5v5.61h5Q203.62,19.57,203.62,16.74Z" style="fill:#383838"/><path d="M211.52,20a7.13,7.13,0,0,1-2.77-2.68,7.41,7.41,0,0,1-1-3.82,7.41,7.41,0,0,1,1-3.82A7.13,7.13,0,0,1,211.52,7a8.51,8.51,0,0,1,7.9,0,7.16,7.16,0,0,1,2.76,2.68,7.41,7.41,0,0,1,1,3.83,7.41,7.41,0,0,1-1,3.83A7.14,7.14,0,0,1,219.42,20a8.51,8.51,0,0,1-7.9,0Zm7.11-1.2a5.7,5.7,0,0,0,2.21-2.18,6.18,6.18,0,0,0,.8-3.12,6.18,6.18,0,0,0-.8-3.12,5.7,5.7,0,0,0-2.21-2.18,6.71,6.71,0,0,0-6.31,0,5.75,5.75,0,0,0-2.23,2.18,6.11,6.11,0,0,0-.81,3.12,6.11,6.11,0,0,0,.81,3.12,5.74,5.74,0,0,0,2.23,2.18,6.71,6.71,0,0,0,6.31,0Z" style="fill:#383838"/><path d="M235.15,14.43A3.32,3.32,0,0,1,236,16.7a3.42,3.42,0,0,1-.8,2.25,5.06,5.06,0,0,1-2.12,1.48,7.85,7.85,0,0,1-2.88.51,9.07,9.07,0,0,1-2.89-.47A7.8,7.8,0,0,1,224.74,19l.57-1.11a6.83,6.83,0,0,0,2.21,1.25,7.57,7.57,0,0,0,2.5.43,6.23,6.23,0,0,0,2.21-.38,3.81,3.81,0,0,0,1.61-1.08,2.49,2.49,0,0,0,.6-1.67,2.25,2.25,0,0,0-1-2,5,5,0,0,0-2.83-.69h-3.15V12.56h3.07a3.94,3.94,0,0,0,2.42-.66,2.18,2.18,0,0,0,.87-1.84,2.34,2.34,0,0,0-1.11-2,4.92,4.92,0,0,0-2.79-.75,7.72,7.72,0,0,0-2.12.3,7.84,7.84,0,0,0-2,.91l-.52-1.28a9.07,9.07,0,0,1,4.72-1.3,7.45,7.45,0,0,1,2.73.48,4.59,4.59,0,0,1,2,1.39,3.29,3.29,0,0,1,.72,2.12,3.24,3.24,0,0,1-.65,2,3.51,3.51,0,0,1-1.83,1.21A4.3,4.3,0,0,1,235.15,14.43Z" style="fill:#383838"/><path d="M253.35,19.47v4.64H251.9v-3.3H239.06l0,3.3H237.6l0-4.64h.74q1.45-.08,2-2.3a30.63,30.63,0,0,0,.69-6.29l.17-4.77h9.91V19.47Zm-11.41-2.91a4.65,4.65,0,0,1-1.37,2.91h9.05v-12h-7L242.45,11A37,37,0,0,1,241.93,16.56Z" style="fill:#383838"/><path d="M268.07,6.11l-6.68,12.37a5.36,5.36,0,0,1-1.67,2,3.68,3.68,0,0,1-2.09.64,4.76,4.76,0,0,1-1.81-.4l.44-1.26a3.86,3.86,0,0,0,1.39.29A2.72,2.72,0,0,0,260,18.15l.42-.71-6-11.32h1.66l5.12,10,5.25-10Z" style="fill:#383838"/><path d="M270.48,6.11l4.18,5.82,4.16-5.82h1.83l-5,7.06L281,20.81h-1.83l-4.56-6.32-4.56,6.32h-1.79l5.4-7.58-5-7.12Z" style="fill:#383838"/><path d="M292.72,16.89h-8.19l-1.76,3.93h-1.62l6.72-14.7h1.53l6.72,14.7h-1.64Zm-.57-1.26-3.53-7.9-3.53,7.9Z" style="fill:#383838"/></svg>