<svg id="Layer_2" data-name="Layer 2" xmlns="http://www.w3.org/2000/svg" viewBox="0 0 33.58 33.58"><title>Знак качество воздуха</title><path d="M16.75.82A16.11,16.11,0,1,0,32.86,16.93,16.11,16.11,0,0,0,16.75.82Z" style="fill:#30c900"/><path d="M12,9.24a7.84,7.84,0,0,1,5.18,2.35A5.68,5.68,0,0,0,21,13.37c1.66,0,3-1.09,4.24-2.32a.77.77,0,0,1,1.1,1.07,8.85,8.85,0,0,1-4.22,2.67,5.27,5.27,0,0,1-1.12.12,7.22,7.22,0,0,1-4.81-2.2A6.37,6.37,0,0,0,12,10.78H11.7A5.06,5.06,0,0,0,8.19,13,.77.77,0,0,1,7,12a6.52,6.52,0,0,1,4.59-2.74l.43,0" style="fill:#fff"/><path d="M12,14a7.84,7.84,0,0,1,5.18,2.35A5.68,5.68,0,0,0,21,18.15c1.66,0,3-1.09,4.24-2.32a.77.77,0,0,1,1.1,1.07,8.85,8.85,0,0,1-4.22,2.67A5.27,5.27,0,0,1,21,19.7a7.22,7.22,0,0,1-4.81-2.2A6.37,6.37,0,0,0,12,15.56H11.7a5.06,5.06,0,0,0-3.51,2.16.77.77,0,0,1-1.21-1A6.52,6.52,0,0,1,11.57,14L12,14" style="fill:#fff"/><path d="M12,18.79a7.84,7.84,0,0,1,5.18,2.35A5.68,5.68,0,0,0,21,22.92c1.66,0,3-1.09,4.24-2.32a.77.77,0,0,1,1.1,1.07,8.85,8.85,0,0,1-4.22,2.67,5.27,5.27,0,0,1-1.12.12,7.22,7.22,0,0,1-4.81-2.2A6.37,6.37,0,0,0,12,20.33H11.7A5.06,5.06,0,0,0,8.19,22.5a.77.77,0,0,1-1.21-1,6.52,6.52,0,0,1,4.59-2.74l.43,0" style="fill:#fff"/></svg>