<svg id="дрон_2" data-name="дрон 2" xmlns="http://www.w3.org/2000/svg" viewBox="0 0 43.83 34.17"><title>дрон 2</title><path d="M9.53,1.73a1.22,1.22,0,0,1,1.2,1.2v1.5H8.33V2.93a1.16,1.16,0,0,1,1.2-1.2Z" style="fill:none;stroke:#383838;stroke-miterlimit:10;stroke-width:0.5px"/><path d="M33.83,1.73A1.22,1.22,0,0,1,35,2.93v1.5h-2.4V2.93a1.29,1.29,0,0,1,1.2-1.2Z" style="fill:none;stroke:#383838;stroke-miterlimit:10;stroke-width:0.5px"/><path d="M41.13,5.53a1.22,1.22,0,0,1,1.2,1.2,1.16,1.16,0,0,1-1.2,1.2H26.63a1.2,1.2,0,1,1,0-2.4Z" style="fill:none;stroke:#383838;stroke-miterlimit:10;stroke-width:0.5px"/><path d="M16.73,5.53a1.22,1.22,0,0,1,1.2,1.2,1.16,1.16,0,0,1-1.2,1.2H2.23a1.2,1.2,0,0,1,0-2.4Z" style="fill:none;stroke:#383838;stroke-miterlimit:10;stroke-width:0.5px"/><path d="M35,9.13V15a1.2,1.2,0,0,1-2.4,0v-.9H27.36c-3,5.82-2.24,7.3-5.13,7.3s-2.16-.75-5.17-7.3H10.63V15a1.16,1.16,0,0,1-1.2,1.2A1.22,1.22,0,0,1,8.23,15V9.13h2.4v2.7H17c.68-2,2.8-2.2,5.26-2.2s4.61.2,5.27,2.2h5.13V9.13Z" style="fill:none;stroke:#383838;stroke-miterlimit:10;stroke-width:0.5px"/><path d="M14.53,26.43a1.09,1.09,0,0,1,.9.4,9,9,0,0,0,13.6,0,1.09,1.09,0,0,1,.9-.4,1.14,1.14,0,0,1,.8.3,1.24,1.24,0,0,1,.1,1.7,11.43,11.43,0,0,1-17.2,0,1.24,1.24,0,0,1,.1-1.7,1.33,1.33,0,0,1,.8-.3Z" style="fill:none;stroke:#383838;stroke-miterlimit:10;stroke-width:0.5px"/><path d="M26.23,23.13a1.14,1.14,0,0,1,.8.3,1.24,1.24,0,0,1,.1,1.7,6.39,6.39,0,0,1-4.8,2.2,6.23,6.23,0,0,1-4.8-2.2,1.24,1.24,0,0,1,.1-1.7,1.14,1.14,0,0,1,.8-.3,1.09,1.09,0,0,1,.9.4,4.13,4.13,0,0,0,6.2,0c0-.3.4-.4.7-.4Z" style="fill:none;stroke:#383838;stroke-miterlimit:10;stroke-width:0.5px"/></svg>