<svg id="дрон_1" data-name="дрон 1" xmlns="http://www.w3.org/2000/svg" viewBox="0 0 43.83 34.17"><title>дрон 1</title><path d="M9.53,1.73a1.22,1.22,0,0,1,1.2,1.2v1.5H8.33V2.93a1.16,1.16,0,0,1,1.2-1.2" style="fill:#383838"/><path d="M35,9.13V15a1.2,1.2,0,1,1-2.4,0v-.9h-22V15a1.16,1.16,0,0,1-1.2,1.2A1.22,1.22,0,0,1,8.23,15V9.13h2.4v2.7h22V9.13H35" style="fill:#383838"/><path d="M33.83,1.73A1.22,1.22,0,0,1,35,2.93v1.5h-2.4V2.93a1.29,1.29,0,0,1,1.2-1.2" style="fill:#383838"/><path d="M41.13,5.53a1.22,1.22,0,0,1,1.2,1.2,1.16,1.16,0,0,1-1.2,1.2H26.63a1.2,1.2,0,1,1,0-2.4h14.5" style="fill:#383838"/><path d="M16.73,5.53a1.22,1.22,0,0,1,1.2,1.2,1.16,1.16,0,0,1-1.2,1.2H2.23a1.2,1.2,0,0,1,0-2.4h14.5" style="fill:#383838"/><path d="M22.23,9.63c3.1,0,5.5.3,5.5,3.8-3.4,6.4-2.5,8-5.5,8s-2.1-.8-5.5-8c0-3.5,2.5-3.8,5.5-3.8" style="fill:#383838"/><path d="M14.53,26.43a1.09,1.09,0,0,1,.9.4,9,9,0,0,0,13.6,0,1.09,1.09,0,0,1,.9-.4,1.14,1.14,0,0,1,.8.3,1.24,1.24,0,0,1,.1,1.7,11.43,11.43,0,0,1-17.2,0,1.24,1.24,0,0,1,.1-1.7,1.33,1.33,0,0,1,.8-.3" style="fill:#383838"/><path d="M26.23,23.13a1.14,1.14,0,0,1,.8.3,1.24,1.24,0,0,1,.1,1.7,6.39,6.39,0,0,1-4.8,2.2,6.23,6.23,0,0,1-4.8-2.2,1.24,1.24,0,0,1,.1-1.7,1.14,1.14,0,0,1,.8-.3,1.09,1.09,0,0,1,.9.4,4.13,4.13,0,0,0,6.2,0c0-.3.4-.4.7-.4" style="fill:#383838"/></svg>