<svg id="Layer_2" data-name="Layer 2" xmlns="http://www.w3.org/2000/svg" viewBox="0 0 233.05 30.6"><title>качество воздуха мониторинг обозаначения</title><path d="M42.78,15.16h21v1.07h-21Z" style="fill:#383838"/><path d="M87,6.7V21.4H85.54V9.64l-5.77,9.89H79L73.25,9.7V21.4H71.76V6.7H73l6.38,10.9L85.75,6.7Z" style="fill:#383838"/><path d="M94.47,20.55a7.13,7.13,0,0,1-2.77-2.68,7.41,7.41,0,0,1-1-3.82,7.41,7.41,0,0,1,1-3.82,7.14,7.14,0,0,1,2.77-2.68,8.51,8.51,0,0,1,7.9,0,7.16,7.16,0,0,1,2.76,2.68,7.41,7.41,0,0,1,1,3.83,7.41,7.41,0,0,1-1,3.83,7.14,7.14,0,0,1-2.76,2.68,8.51,8.51,0,0,1-7.9,0Zm7.11-1.2a5.69,5.69,0,0,0,2.2-2.18,6.17,6.17,0,0,0,.8-3.12,6.17,6.17,0,0,0-.8-3.12,5.7,5.7,0,0,0-2.2-2.18,6.71,6.71,0,0,0-6.31,0A5.75,5.75,0,0,0,93,10.93a6.11,6.11,0,0,0-.81,3.12A6.11,6.11,0,0,0,93,17.17a5.74,5.74,0,0,0,2.23,2.18,6.71,6.71,0,0,0,6.31,0Z" style="fill:#383838"/><path d="M122.14,6.7V21.4h-1.53V14.62h-9.2V21.4h-1.55V6.7h1.55v6.55h9.2V6.7Z" style="fill:#383838"/><path d="M127.1,6.7h1.53V18.88L138,6.7h1.41V21.4h-1.53V9.24L128.5,21.4H127.1Z" style="fill:#383838"/><path d="M154,8h-5.17V21.4h-1.53V8h-5.17V6.7H154Z" style="fill:#383838"/><path d="M159,20.55a7.13,7.13,0,0,1-2.77-2.68,7.41,7.41,0,0,1-1-3.82,7.41,7.41,0,0,1,1-3.82A7.13,7.13,0,0,1,159,7.55a8.51,8.51,0,0,1,7.9,0,7.16,7.16,0,0,1,2.76,2.68,7.41,7.41,0,0,1,1,3.83,7.41,7.41,0,0,1-1,3.83,7.14,7.14,0,0,1-2.76,2.68,8.51,8.51,0,0,1-7.9,0Zm7.11-1.2a5.7,5.7,0,0,0,2.21-2.18,6.18,6.18,0,0,0,.8-3.12,6.18,6.18,0,0,0-.8-3.12,5.7,5.7,0,0,0-2.21-2.18,6.71,6.71,0,0,0-6.31,0,5.75,5.75,0,0,0-2.23,2.18,6.11,6.11,0,0,0-.81,3.12,6.11,6.11,0,0,0,.81,3.12,5.74,5.74,0,0,0,2.23,2.18,6.71,6.71,0,0,0,6.31,0Z" style="fill:#383838"/><path d="M184.32,8a4.57,4.57,0,0,1,1.6,3.7,4.54,4.54,0,0,1-1.6,3.69,6.67,6.67,0,0,1-4.41,1.33H176V21.4h-1.55V6.7h5.5A6.64,6.64,0,0,1,184.32,8Zm-1.11,6.39a3.31,3.31,0,0,0,1.15-2.7A3.36,3.36,0,0,0,183.21,9a5.12,5.12,0,0,0-3.34-1H176v7.35h3.91A5.12,5.12,0,0,0,183.21,14.44Z" style="fill:#383838"/><path d="M189.11,6.7h1.53V18.88L200,6.7h1.41V21.4h-1.53V9.24L190.52,21.4h-1.41Z" style="fill:#383838"/><path d="M218.7,6.7V21.4h-1.53V14.62H208V21.4h-1.55V6.7H208v6.55h9.2V6.7Z" style="fill:#383838"/><path d="M233,8h-7.83l0,13.36h-1.53V6.7H233Z" style="fill:#383838"/><path d="M8.5,0A1.22,1.22,0,0,1,9.7,1.2V2.7H7.3V1.2A1.16,1.16,0,0,1,8.5,0" style="fill:#383838"/><path d="M34,7.4v5.9a1.2,1.2,0,1,1-2.4,0v-.9H9.6v.9a1.16,1.16,0,0,1-1.2,1.2,1.22,1.22,0,0,1-1.2-1.2V7.4H9.6v2.7h22V7.4H34" style="fill:#383838"/><path d="M32.8,0A1.22,1.22,0,0,1,34,1.2V2.7H31.6V1.2A1.29,1.29,0,0,1,32.8,0" style="fill:#383838"/><path d="M40.1,3.8A1.22,1.22,0,0,1,41.3,5a1.16,1.16,0,0,1-1.2,1.2H25.6a1.2,1.2,0,1,1,0-2.4H40.1" style="fill:#383838"/><path d="M15.7,3.8A1.22,1.22,0,0,1,16.9,5a1.16,1.16,0,0,1-1.2,1.2H1.2a1.2,1.2,0,0,1,0-2.4H15.7" style="fill:#383838"/><path d="M21.2,7.9c3.1,0,5.5.3,5.5,3.8-3.4,6.4-2.5,8-5.5,8s-2.1-.8-5.5-8c0-3.5,2.5-3.8,5.5-3.8" style="fill:#383838"/><path d="M13.5,24.7a1.09,1.09,0,0,1,.9.4,9,9,0,0,0,13.6,0,1.09,1.09,0,0,1,.9-.4,1.14,1.14,0,0,1,.8.3,1.24,1.24,0,0,1,.1,1.7,11.43,11.43,0,0,1-17.2,0,1.24,1.24,0,0,1,.1-1.7,1.33,1.33,0,0,1,.8-.3" style="fill:#383838"/><path d="M25.2,21.4a1.14,1.14,0,0,1,.8.3,1.24,1.24,0,0,1,.1,1.7,6.39,6.39,0,0,1-4.8,2.2,6.23,6.23,0,0,1-4.8-2.2,1.24,1.24,0,0,1,.1-1.7,1.14,1.14,0,0,1,.8-.3,1.09,1.09,0,0,1,.9.4,4.13,4.13,0,0,0,6.2,0c0-.3.4-.4.7-.4" style="fill:#383838"/></svg>