<svg xmlns="http://www.w3.org/2000/svg" viewBox="0 0 399.48 32.22"><title>качество воздуха мониторинг обозаначения</title><g id="Layer_4" data-name="Layer 4"><path d="M40.18,16h21v1.07h-21Z" style="fill:#383838"/><path d="M81.52,7.58v14.7H80V8.93h-9.3V22.28H69.16V7.58Z" style="fill:#383838"/><path d="M96.39,8.93a4.57,4.57,0,0,1,1.6,3.7,4.54,4.54,0,0,1-1.6,3.69A6.67,6.67,0,0,1,92,17.64H88v4.64H86.48V7.58H92A6.64,6.64,0,0,1,96.39,8.93Zm-1.11,6.39a3.31,3.31,0,0,0,1.15-2.7,3.36,3.36,0,0,0-1.15-2.74,5.12,5.12,0,0,0-3.34-1H88v7.35h3.91A5.12,5.12,0,0,0,95.28,15.32Z" style="fill:#383838"/><path d="M101.18,7.58h1.53V19.77l9.41-12.18h1.41v14.7H112V10.13l-9.41,12.16h-1.41Z" style="fill:#383838"/><path d="M131.76,20.94v4.64h-1.45v-3.3H117.48l0,3.3H116l0-4.64h.74q1.45-.08,2-2.3a30.63,30.63,0,0,0,.69-6.29l.17-4.77h9.91V20.94ZM120.34,18A4.65,4.65,0,0,1,119,20.94H128v-12h-7l-.13,3.57A37,37,0,0,1,120.34,18Z" style="fill:#383838"/><path d="M137.42,21.43a7.13,7.13,0,0,1-2.77-2.68,7.41,7.41,0,0,1-1-3.82,7.41,7.41,0,0,1,1-3.82,7.13,7.13,0,0,1,2.77-2.68,8.51,8.51,0,0,1,7.9,0,7.16,7.16,0,0,1,2.76,2.68,7.41,7.41,0,0,1,1,3.83,7.41,7.41,0,0,1-1,3.83,7.14,7.14,0,0,1-2.76,2.68,8.51,8.51,0,0,1-7.9,0Zm7.11-1.2a5.7,5.7,0,0,0,2.21-2.18,6.18,6.18,0,0,0,.8-3.12,6.18,6.18,0,0,0-.8-3.12,5.7,5.7,0,0,0-2.21-2.18,6.71,6.71,0,0,0-6.31,0A5.75,5.75,0,0,0,136,11.82a6.11,6.11,0,0,0-.81,3.12,6.11,6.11,0,0,0,.81,3.12,5.74,5.74,0,0,0,2.23,2.18,6.71,6.71,0,0,0,6.31,0Z" style="fill:#383838"/><path d="M168.06,7.58v14.7h-1.49V10.52l-5.78,9.89h-.73l-5.78-9.83v11.7H152.8V7.58h1.28l6.38,10.9,6.32-10.9Z" style="fill:#383838"/><path d="M175.51,21.43a7.13,7.13,0,0,1-2.77-2.68,7.41,7.41,0,0,1-1-3.82,7.41,7.41,0,0,1,1-3.82,7.13,7.13,0,0,1,2.77-2.68,8.51,8.51,0,0,1,7.9,0,7.16,7.16,0,0,1,2.76,2.68,7.41,7.41,0,0,1,1,3.83,7.41,7.41,0,0,1-1,3.83,7.14,7.14,0,0,1-2.76,2.68,8.51,8.51,0,0,1-7.9,0Zm7.11-1.2a5.7,5.7,0,0,0,2.21-2.18,6.18,6.18,0,0,0,.8-3.12,6.18,6.18,0,0,0-.8-3.12,5.7,5.7,0,0,0-2.21-2.18,6.71,6.71,0,0,0-6.31,0,5.75,5.75,0,0,0-2.23,2.18,6.11,6.11,0,0,0-.81,3.12,6.11,6.11,0,0,0,.81,3.12,5.74,5.74,0,0,0,2.23,2.18,6.71,6.71,0,0,0,6.31,0Z" style="fill:#383838"/><path d="M201.94,15.93a3.5,3.5,0,0,1,.8,2.38,3.47,3.47,0,0,1-1.35,2.94,6.5,6.5,0,0,1-4,1h-6.51V7.58H197a6.13,6.13,0,0,1,3.67,1A3.24,3.24,0,0,1,202,11.34a3.41,3.41,0,0,1-.63,2.09,3.74,3.74,0,0,1-1.76,1.27A4.07,4.07,0,0,1,201.94,15.93Zm-9.51-1.69h4.49a4.26,4.26,0,0,0,2.61-.69,2.37,2.37,0,0,0,.91-2,2.37,2.37,0,0,0-.91-2,4.25,4.25,0,0,0-2.61-.69h-4.49Zm8.78,4q0-2.77-3.8-2.77h-5V21h5Q201.2,21,201.2,18.21Z" style="fill:#383838"/><path d="M216.75,14a4.28,4.28,0,0,1,1.38,3.44,4.44,4.44,0,0,1-1.46,3.6,6.37,6.37,0,0,1-4.21,1.23h-5.84V7.58h1.53v5.25h4.62A6,6,0,0,1,216.75,14Zm-1.24,6.13a3.31,3.31,0,0,0,1.06-2.67q0-3.38-4.16-3.38h-4.26v7h4.26A4.66,4.66,0,0,0,215.51,20.14Zm5.16-12.56h1.53v14.7h-1.53Z" style="fill:#383838"/><path d="M237.55,20.94v1.34h-10.4V7.58h10.08V8.93h-8.53v5.23h7.6v1.32h-7.6v5.46Z" style="fill:#383838"/><path d="M258.87,7.58v14.7h-1.53V8.93H248V22.28H246.5V7.58Z" style="fill:#383838"/><path d="M273.23,18.36H265l-1.76,3.93h-1.62l6.72-14.7h1.53l6.72,14.7H275Zm-.57-1.26-3.53-7.9-3.53,7.9Z" style="fill:#383838"/><path d="M289.36,8.93a4.57,4.57,0,0,1,1.6,3.7,4.54,4.54,0,0,1-1.6,3.69A6.67,6.67,0,0,1,285,17.64H281v4.64h-1.55V7.58H285A6.64,6.64,0,0,1,289.36,8.93Zm-1.11,6.39a3.31,3.31,0,0,0,1.15-2.7,3.36,3.36,0,0,0-1.15-2.74,5.12,5.12,0,0,0-3.34-1H281v7.35h3.91A5.12,5.12,0,0,0,288.25,15.32Z" style="fill:#383838"/><path d="M299,15.54h-3.36v6.74h-1.51V7.58h1.51v6.59H299l5-6.59h1.68l-5.46,7.14L306,22.28h-1.79Z" style="fill:#383838"/><path d="M310.85,21.43a7.13,7.13,0,0,1-2.77-2.68,7.41,7.41,0,0,1-1-3.82,7.41,7.41,0,0,1,1-3.82,7.13,7.13,0,0,1,2.77-2.68,8.51,8.51,0,0,1,7.9,0,7.16,7.16,0,0,1,2.76,2.68,7.41,7.41,0,0,1,1,3.83,7.41,7.41,0,0,1-1,3.83,7.14,7.14,0,0,1-2.76,2.68,8.51,8.51,0,0,1-7.9,0Zm7.11-1.2a5.7,5.7,0,0,0,2.21-2.18,6.18,6.18,0,0,0,.8-3.12,6.18,6.18,0,0,0-.8-3.12A5.7,5.7,0,0,0,318,9.63a6.71,6.71,0,0,0-6.31,0,5.75,5.75,0,0,0-2.23,2.18,6.11,6.11,0,0,0-.81,3.12,6.11,6.11,0,0,0,.81,3.12,5.74,5.74,0,0,0,2.23,2.18,6.71,6.71,0,0,0,6.31,0Z" style="fill:#383838"/><path d="M341.5,7.58v14.7H340V10.52l-5.78,9.89h-.73l-5.78-9.83v11.7h-1.49V7.58h1.28l6.38,10.9,6.32-10.9Z" style="fill:#383838"/><path d="M356.85,20.94v1.34h-10.4V7.58h10.08V8.93H348v5.23h7.6v1.32H348v5.46Z" style="fill:#383838"/><path d="M362.7,21.44A7.06,7.06,0,0,1,360,18.77a7.47,7.47,0,0,1-1-3.83,7.47,7.47,0,0,1,1-3.83,7.05,7.05,0,0,1,2.76-2.68,8.09,8.09,0,0,1,3.95-1,8.2,8.2,0,0,1,3,.55A6.27,6.27,0,0,1,372,9.6l-1,1a5.86,5.86,0,0,0-4.35-1.74,6.39,6.39,0,0,0-3.17.8,5.83,5.83,0,0,0-2.24,2.18,6.05,6.05,0,0,0-.81,3.11A6.05,6.05,0,0,0,361.3,18a5.83,5.83,0,0,0,2.24,2.18,6.39,6.39,0,0,0,3.17.8,5.78,5.78,0,0,0,4.35-1.76l1,1a6.35,6.35,0,0,1-2.36,1.61,8.12,8.12,0,0,1-3,.56A8,8,0,0,1,362.7,21.44Z" style="fill:#383838"/><path d="M384.68,8.93h-5.17V22.28H378V8.93h-5.17V7.58h11.86Z" style="fill:#383838"/><path d="M396.08,18.36h-8.19l-1.76,3.93h-1.62l6.72-14.7h1.53l6.72,14.7h-1.64Zm-.57-1.26L392,9.2l-3.53,7.9Z" style="fill:#383838"/><circle cx="16.11" cy="16.11" r="16.11" style="fill:#e30613"/><path d="M12.69,18.31v6.35h-3V7.56h6.54A8,8,0,0,1,18.91,8a5.62,5.62,0,0,1,2,1.13,4.83,4.83,0,0,1,1.22,1.73A5.58,5.58,0,0,1,22.5,13a5.68,5.68,0,0,1-.42,2.23,4.42,4.42,0,0,1-1.22,1.67,5.53,5.53,0,0,1-2,1,8.81,8.81,0,0,1-2.65.36Zm0-2.38h3.57a4.56,4.56,0,0,0,1.47-.21,2.69,2.69,0,0,0,1-.6,2.3,2.3,0,0,0,.58-.92A3.6,3.6,0,0,0,19.52,13a3.65,3.65,0,0,0-.18-1.15,2.64,2.64,0,0,0-.58-1,2.83,2.83,0,0,0-1-.68A3.88,3.88,0,0,0,16.26,10H12.69Z" style="fill:#fff"/></g></svg>