<svg id="Layer_1" data-name="Layer 1" xmlns="http://www.w3.org/2000/svg" viewBox="0 0 300 79.67"><title>обозначения точек</title><circle cx="11.98" cy="11.97" r="10" style="fill:#3d85c6;stroke:#fff;stroke-miterlimit:1;stroke-width:3px"/><circle cx="156.27" cy="11.97" r="10" style="fill:gold;stroke:#fff;stroke-miterlimit:1;stroke-width:3px"/><circle cx="11.98" cy="39.7" r="10" style="fill:#30c900;stroke:#fff;stroke-miterlimit:1;stroke-width:3px"/><circle cx="11.98" cy="67.43" r="10" style="fill:#383838;stroke:#fff;stroke-miterlimit:1;stroke-width:3px"/><path d="M29.33,12.38h3.14v.74H29.33Z" style="fill:#383838"/><path d="M43.68,7.6V16h-.86V12.52a6.7,6.7,0,0,1-2.65.59,3.37,3.37,0,0,1-2.3-.72,2.54,2.54,0,0,1-.82-2V7.6h.88v2.68a1.91,1.91,0,0,0,.61,1.51,2.51,2.51,0,0,0,1.72.54,6.13,6.13,0,0,0,2.57-.6V7.6Z" style="fill:#383838"/><path d="M52.47,15.23V16H46.53V7.6h5.76v.77H47.41v3h4.34v.76H47.41v3.12Z" style="fill:#383838"/><path d="M61,7.6V16h-.88V8.37H56.09L56,11.18a17.11,17.11,0,0,1-.28,2.8A3.48,3.48,0,0,1,55,15.56a1.53,1.53,0,0,1-1.21.52,2.88,2.88,0,0,1-.67-.08l.07-.79a1.71,1.71,0,0,0,.4,0,1,1,0,0,0,.86-.42,3.06,3.06,0,0,0,.5-1.3,16.71,16.71,0,0,0,.23-2.33l.12-3.6Z" style="fill:#383838"/><path d="M65.28,15.51A4.08,4.08,0,0,1,63.69,14a4.24,4.24,0,0,1-.57-2.18,4.24,4.24,0,0,1,.57-2.18,4.07,4.07,0,0,1,1.58-1.53,4.86,4.86,0,0,1,4.51,0,4.09,4.09,0,0,1,1.58,1.53,4.45,4.45,0,0,1,0,4.38,4.09,4.09,0,0,1-1.58,1.53,4.87,4.87,0,0,1-4.51,0Zm4.06-.68a3.26,3.26,0,0,0,1.26-1.25,3.71,3.71,0,0,0,0-3.56,3.26,3.26,0,0,0-1.26-1.25,3.84,3.84,0,0,0-3.61,0A3.29,3.29,0,0,0,64.46,10a3.67,3.67,0,0,0,0,3.56,3.29,3.29,0,0,0,1.27,1.25,3.84,3.84,0,0,0,3.61,0Z" style="fill:#383838"/><path d="M80.38,12.37a2,2,0,0,1,.46,1.36,2,2,0,0,1-.77,1.68,3.72,3.72,0,0,1-2.27.59H74.07V7.6h3.49a3.51,3.51,0,0,1,2.1.55,1.85,1.85,0,0,1,.76,1.6,2,2,0,0,1-.36,1.19,2.13,2.13,0,0,1-1,.73A2.33,2.33,0,0,1,80.38,12.37Zm-5.44-1h2.57A2.43,2.43,0,0,0,79,11a1.36,1.36,0,0,0,.52-1.15A1.36,1.36,0,0,0,79,8.7a2.43,2.43,0,0,0-1.49-.4H74.94Zm5,2.27q0-1.58-2.17-1.58H74.94v3.2h2.84Q80,15.29,80,13.67Z" style="fill:#383838"/><path d="M89,15.23V16H83.05V7.6h5.76v.77H83.94v3h4.34v.76H83.94v3.12Z" style="fill:#383838"/><path d="M93.75,12.15H91.83V16H91V7.6h.86v3.77h1.92L96.59,7.6h1l-3.12,4.08L97.73,16h-1Z" style="fill:#383838"/><path d="M173.32,12.38h3.14v.74h-3.14Z" style="fill:#383838"/><path d="M189.46,15.23v2.65h-.83V16H181.3v1.88h-.83V15.23h.42q.83,0,1.15-1.31a17.51,17.51,0,0,0,.4-3.59l.1-2.72h5.66v7.63Zm-6.52-1.66a2.66,2.66,0,0,1-.79,1.66h5.17V8.37h-4l-.07,2A21.13,21.13,0,0,1,182.94,13.57Z" style="fill:#383838"/><path d="M196.93,8.37a2.61,2.61,0,0,1,.91,2.11,2.59,2.59,0,0,1-.91,2.11,3.81,3.81,0,0,1-2.52.76h-2.26V16h-.89V7.6h3.14A3.79,3.79,0,0,1,196.93,8.37ZM196.3,12a1.89,1.89,0,0,0,.66-1.54,1.92,1.92,0,0,0-.66-1.57,2.93,2.93,0,0,0-1.91-.55h-2.23v4.2h2.23A2.92,2.92,0,0,0,196.3,12Z" style="fill:#383838"/><path d="M201.21,15.51A4.08,4.08,0,0,1,199.63,14a4.24,4.24,0,0,1-.57-2.18,4.24,4.24,0,0,1,.57-2.18,4.07,4.07,0,0,1,1.58-1.53,4.86,4.86,0,0,1,4.51,0,4.09,4.09,0,0,1,1.58,1.53,4.45,4.45,0,0,1,0,4.38,4.08,4.08,0,0,1-1.58,1.53,4.86,4.86,0,0,1-4.51,0Zm4.06-.68a3.26,3.26,0,0,0,1.26-1.25,3.71,3.71,0,0,0,0-3.56,3.26,3.26,0,0,0-1.26-1.25,3.83,3.83,0,0,0-3.61,0A3.29,3.29,0,0,0,200.4,10a3.67,3.67,0,0,0,0,3.56,3.29,3.29,0,0,0,1.27,1.25,3.84,3.84,0,0,0,3.61,0Z" style="fill:#383838"/><path d="M217,7.6V16h-.88V12.12h-5.26V16H210V7.6h.89v3.74h5.26V7.6Z" style="fill:#383838"/><circle cx="156.27" cy="39.7" r="10" style="fill:#8c8c8c;stroke:#fff;stroke-miterlimit:1;stroke-width:3px"/><circle cx="156.27" cy="67.43" r="10" style="fill:none;stroke:#3d85c6;stroke-miterlimit:1;stroke-width:3px"/><path d="M173.32,39.15h3.14v.74h-3.14Z" style="fill:#383838"/><path d="M188.76,34.37v8.4h-.88V38.89h-5.26v3.88h-.89v-8.4h.89v3.74h5.26V34.37Z" style="fill:#383838"/><path d="M197.53,42v.77h-5.94v-8.4h5.76v.77h-4.87v3h4.34v.76h-4.34V42Z" style="fill:#383838"/><path d="M204.07,42.28a4.08,4.08,0,0,1-1.58-1.53,4.47,4.47,0,0,1,0-4.37,4.07,4.07,0,0,1,1.58-1.53,4.86,4.86,0,0,1,4.51,0,4.09,4.09,0,0,1,1.58,1.53,4.46,4.46,0,0,1,0,4.38,4.09,4.09,0,0,1-1.58,1.53,4.87,4.87,0,0,1-4.51,0Zm4.06-.68a3.25,3.25,0,0,0,1.26-1.25,3.71,3.71,0,0,0,0-3.56,3.25,3.25,0,0,0-1.26-1.25,3.62,3.62,0,0,0-1.8-.45,3.66,3.66,0,0,0-1.81.45,3.28,3.28,0,0,0-1.27,1.25,3.67,3.67,0,0,0,0,3.56,3.28,3.28,0,0,0,1.27,1.25,3.66,3.66,0,0,0,1.81.45A3.62,3.62,0,0,0,208.13,41.6Z" style="fill:#383838"/><path d="M219.93,34.37v8.4h-.88V35.14h-5.32v7.63h-.88v-8.4Z" style="fill:#383838"/><path d="M228.42,35.14a2.89,2.89,0,0,1,0,4.22,3.81,3.81,0,0,1-2.52.76h-2.26v2.65h-.89v-8.4h3.14A3.79,3.79,0,0,1,228.42,35.14Zm-.64,3.65a1.89,1.89,0,0,0,.66-1.54,1.92,1.92,0,0,0-.66-1.57,2.92,2.92,0,0,0-1.91-.55h-2.23v4.2h2.23A2.92,2.92,0,0,0,227.79,38.79Z" style="fill:#383838"/><path d="M237.1,42v.77h-5.94v-8.4h5.76v.77H232v3h4.35v.76H232V42Z" style="fill:#383838"/><path d="M246.78,42v2.65H246V42.77h-7.33v1.88h-.83V42h.42q.83,0,1.15-1.31a17.5,17.5,0,0,0,.4-3.59l.1-2.72h5.66V42Zm-6.52-1.66a2.66,2.66,0,0,1-.79,1.66h5.17V35.14h-4l-.07,2A21.26,21.26,0,0,1,240.26,40.34Z" style="fill:#383838"/><path d="M254.53,42v.77h-5.94v-8.4h5.76v.77h-4.87v3h4.34v.76h-4.34V42Z" style="fill:#383838"/><path d="M263.09,34.37v8.4h-.88V35.14h-4.06l-.1,2.81a17.18,17.18,0,0,1-.28,2.8,3.48,3.48,0,0,1-.68,1.58,1.53,1.53,0,0,1-1.21.52,2.88,2.88,0,0,1-.67-.08l.07-.79a1.71,1.71,0,0,0,.4,0,1,1,0,0,0,.86-.42,3.06,3.06,0,0,0,.5-1.3,16.64,16.64,0,0,0,.23-2.33l.12-3.6Z" style="fill:#383838"/><path d="M271.86,42v.77h-5.94v-8.4h5.76v.77h-4.87v3h4.34v.76h-4.34V42Z" style="fill:#383838"/><path d="M280.85,34.37v8.4H280V38.89h-5.26v3.88h-.89v-8.4h.89v3.74H280V34.37Z" style="fill:#383838"/><path d="M285.1,42.28a4.08,4.08,0,0,1-1.58-1.53,4.47,4.47,0,0,1,0-4.37,4.07,4.07,0,0,1,1.58-1.53,4.86,4.86,0,0,1,4.51,0,4.09,4.09,0,0,1,1.58,1.53,4.45,4.45,0,0,1,0,4.38,4.08,4.08,0,0,1-1.58,1.53,4.86,4.86,0,0,1-4.51,0Zm4.06-.68a3.27,3.27,0,0,0,1.26-1.25,3.71,3.71,0,0,0,0-3.56,3.26,3.26,0,0,0-1.26-1.25,3.84,3.84,0,0,0-3.61,0,3.28,3.28,0,0,0-1.27,1.25,3.66,3.66,0,0,0,0,3.56,3.28,3.28,0,0,0,1.27,1.25,3.84,3.84,0,0,0,3.61,0Z" style="fill:#383838"/><path d="M173.32,69h3.14v.74h-3.14Z" style="fill:#383838"/><path d="M187.63,71.9v.77h-5.94v-8.4h5.76V65h-4.87v3h4.34v.76h-4.34V71.9Z" style="fill:#383838"/><path d="M198.45,64.27v8.4h-.85V65.95l-3.3,5.65h-.42L190.57,66v6.68h-.85v-8.4h.73l3.65,6.23,3.61-6.23Z" style="fill:#383838"/><path d="M201.18,64.27h.89v8.4h-.89Z" style="fill:#383838"/><path d="M204.81,64.27h.89v8.4h-.89Z" style="fill:#383838"/><path d="M213.7,70.42H209l-1,2.24h-.92l3.84-8.4h.88l3.84,8.4h-.94Zm-.32-.72-2-4.51-2,4.51Z" style="fill:#383838"/><path d="M216.9,72.53a.65.65,0,0,1-.19-.47.63.63,0,0,1,.19-.46.61.61,0,0,1,.45-.19.63.63,0,0,1,.46.19.62.62,0,0,1,.19.46.64.64,0,0,1-.19.47.62.62,0,0,1-.46.19A.6.6,0,0,1,216.9,72.53Z" style="fill:#383838"/><path d="M225.66,70.42H221l-1,2.24H219l3.84-8.4h.88l3.84,8.4h-.94Zm-.32-.72-2-4.51-2,4.51Z" style="fill:#383838"/><path d="M229,64.27h.89v8.4H229Z" style="fill:#383838"/><path d="M244.49,64.27v8.4h-.85V65.95l-3.3,5.65h-.42L236.62,66v6.68h-.85v-8.4h.73l3.65,6.23,3.61-6.23Z" style="fill:#383838"/><path d="M253,72.67,251,70a6,6,0,0,1-.67,0h-2.26v2.66h-.89v-8.4h3.14a3.79,3.79,0,0,1,2.52.77,2.61,2.61,0,0,1,.91,2.11,2.73,2.73,0,0,1-.5,1.66,2.76,2.76,0,0,1-1.42,1l2.05,2.88Zm-.71-4a2.17,2.17,0,0,0,0-3.11,2.93,2.93,0,0,0-1.91-.55h-2.23v4.21h2.23A2.9,2.9,0,0,0,252.25,68.69Z" style="fill:#383838"/><path d="M262.88,64.27l-3.72,8.4h-.88l-3.72-8.4h1l3.22,7.3,3.24-7.3Z" style="fill:#383838"/><path d="M29.33,39.15h3.14v.74H29.33Z" style="fill:#383838"/><path d="M44.58,38.92H42.84v3.85H42V38.92H40.23l-2.57,3.85h-1l2.88-4.33-2.66-4.07h1l2.41,3.77H42V34.37h.86v3.77h1.74L47,34.37h1L45.3,38.44l2.88,4.33h-1Z" style="fill:#383838"/><path d="M49.6,34.37h.88v7l5.38-7h.8v8.4h-.88V35.82L50.4,42.77h-.8Z" style="fill:#383838"/><path d="M65.8,39.14a2.23,2.23,0,0,1-.32,3,3.72,3.72,0,0,1-2.27.59H59.49v-8.4H63a3.51,3.51,0,0,1,2.1.55,1.85,1.85,0,0,1,.76,1.6,2,2,0,0,1-.36,1.19,2.13,2.13,0,0,1-1,.73A2.33,2.33,0,0,1,65.8,39.14Zm-5.44-1h2.57a2.43,2.43,0,0,0,1.49-.4,1.53,1.53,0,0,0,0-2.3,2.43,2.43,0,0,0-1.49-.4H60.36Zm5,2.27q0-1.58-2.17-1.58H60.36v3.2h2.84Q65.38,42.06,65.38,40.44Z" style="fill:#383838"/><path d="M69.9,42.28a4.08,4.08,0,0,1-1.58-1.53,4.47,4.47,0,0,1,0-4.37,4.07,4.07,0,0,1,1.58-1.53,4.86,4.86,0,0,1,4.51,0A4.09,4.09,0,0,1,76,36.38a4.45,4.45,0,0,1,0,4.38,4.09,4.09,0,0,1-1.58,1.53,4.87,4.87,0,0,1-4.51,0ZM74,41.6a3.26,3.26,0,0,0,1.26-1.25,3.71,3.71,0,0,0,0-3.56A3.26,3.26,0,0,0,74,35.54a3.84,3.84,0,0,0-3.61,0,3.29,3.29,0,0,0-1.27,1.25,3.67,3.67,0,0,0,0,3.56,3.29,3.29,0,0,0,1.27,1.25,3.84,3.84,0,0,0,3.61,0Z" style="fill:#383838"/><path d="M84.06,35.14h-3v7.63h-.88V35.14h-3v-.77h6.78Z" style="fill:#383838"/><path d="M92.64,34.37v8.4h-.87V38.89H86.51v3.88h-.89v-8.4h.89v3.74h5.26V34.37Z" style="fill:#383838"/><path d="M96.9,42.28a4.08,4.08,0,0,1-1.58-1.53,4.47,4.47,0,0,1,0-4.37,4.07,4.07,0,0,1,1.58-1.53,4.86,4.86,0,0,1,4.51,0A4.09,4.09,0,0,1,103,36.38a4.45,4.45,0,0,1,0,4.38,4.08,4.08,0,0,1-1.58,1.53,4.86,4.86,0,0,1-4.51,0ZM101,41.6a3.27,3.27,0,0,0,1.26-1.25,3.71,3.71,0,0,0,0-3.56A3.26,3.26,0,0,0,101,35.54a3.84,3.84,0,0,0-3.61,0,3.28,3.28,0,0,0-1.27,1.25,3.66,3.66,0,0,0,0,3.56,3.28,3.28,0,0,0,1.27,1.25,3.84,3.84,0,0,0,3.61,0Z" style="fill:#383838"/><path d="M111.63,42v.77h-5.94v-8.4h5.76v.77h-4.87v3h4.34v.76h-4.34V42Z" style="fill:#383838"/><path d="M29.33,69h3.14v.74H29.33Z" style="fill:#383838"/><path d="M43.42,65a2.89,2.89,0,0,1,0,4.22A3.81,3.81,0,0,1,40.9,70H38.64v2.65h-.89v-8.4H40.9A3.79,3.79,0,0,1,43.42,65Zm-.64,3.65a1.89,1.89,0,0,0,.66-1.54,1.92,1.92,0,0,0-.66-1.57A2.92,2.92,0,0,0,40.87,65H38.64v4.2h2.23A2.92,2.92,0,0,0,42.78,68.69Z" style="fill:#383838"/><path d="M47.7,72.18a4.08,4.08,0,0,1-1.58-1.53,4.47,4.47,0,0,1,0-4.37,4.07,4.07,0,0,1,1.58-1.53,4.86,4.86,0,0,1,4.51,0,4.09,4.09,0,0,1,1.58,1.53,4.45,4.45,0,0,1,0,4.38,4.09,4.09,0,0,1-1.58,1.53,4.87,4.87,0,0,1-4.51,0Zm4.06-.68A3.26,3.26,0,0,0,53,70.25a3.71,3.71,0,0,0,0-3.56,3.26,3.26,0,0,0-1.26-1.25,3.84,3.84,0,0,0-3.61,0,3.29,3.29,0,0,0-1.27,1.25,3.67,3.67,0,0,0,0,3.56,3.29,3.29,0,0,0,1.27,1.25,3.84,3.84,0,0,0,3.61,0Z" style="fill:#383838"/><path d="M56.49,64.27h6.14V65H57.36v2.75h2.75a3.59,3.59,0,0,1,2.26.61,2.13,2.13,0,0,1,.77,1.78A2.22,2.22,0,0,1,62.31,72a3.83,3.83,0,0,1-2.39.65H56.49ZM59.91,72a2.92,2.92,0,0,0,1.76-.44,1.54,1.54,0,0,0,.59-1.32,1.49,1.49,0,0,0-.58-1.29,3,3,0,0,0-1.77-.43H57.36V72Z" style="fill:#383838"/><path d="M66.63,72.18A4.08,4.08,0,0,1,65,70.65a4.47,4.47,0,0,1,0-4.37,4.07,4.07,0,0,1,1.58-1.53,4.86,4.86,0,0,1,4.51,0,4.09,4.09,0,0,1,1.58,1.53,4.45,4.45,0,0,1,0,4.38,4.09,4.09,0,0,1-1.58,1.53,4.87,4.87,0,0,1-4.51,0Zm4.06-.68A3.26,3.26,0,0,0,72,70.25a3.71,3.71,0,0,0,0-3.56,3.26,3.26,0,0,0-1.26-1.25,3.84,3.84,0,0,0-3.61,0,3.29,3.29,0,0,0-1.27,1.25,3.67,3.67,0,0,0,0,3.56,3.29,3.29,0,0,0,1.27,1.25,3.84,3.84,0,0,0,3.61,0Z" style="fill:#383838"/><path d="M80.8,65h-3v7.63H77V65H74v-.77H80.8Z" style="fill:#383838"/></svg>