<svg xmlns="http://www.w3.org/2000/svg" viewBox="0 0 300 79.67"><title>обозначения точек</title><g id="Layer_1" data-name="Layer 1"><circle cx="11.98" cy="11.97" r="10" style="fill:#3d85c6"/><path d="M12,23.47A11.5,11.5,0,1,1,23.48,12,11.51,11.51,0,0,1,12,23.47Zm0-20a8.5,8.5,0,1,0,8.5,8.5A8.51,8.51,0,0,0,12,3.47Z" style="fill:#fff"/><circle cx="156.27" cy="11.97" r="10" style="fill:gold"/><path d="M156.27,23.47A11.5,11.5,0,1,1,167.77,12,11.51,11.51,0,0,1,156.27,23.47Zm0-20a8.5,8.5,0,1,0,8.5,8.5A8.51,8.51,0,0,0,156.27,3.47Z" style="fill:#fff"/><circle cx="11.98" cy="39.7" r="10" style="fill:#30c900"/><path d="M12,51.2a11.5,11.5,0,1,1,11.5-11.5A11.51,11.51,0,0,1,12,51.2Zm0-20a8.5,8.5,0,1,0,8.5,8.5A8.51,8.51,0,0,0,12,31.2Z" style="fill:#fff"/><circle cx="11.98" cy="67.43" r="10" style="fill:#383838"/><path d="M12,78.93a11.5,11.5,0,1,1,11.5-11.5A11.51,11.51,0,0,1,12,78.93Zm0-20a8.5,8.5,0,1,0,8.5,8.5A8.51,8.51,0,0,0,12,58.93Z" style="fill:#fff"/><path d="M25.61,12.44h12V13h-12Z" style="fill:#383838"/><path d="M48.1,7.6V16h-.86V12.52a6.7,6.7,0,0,1-2.65.59,3.37,3.37,0,0,1-2.3-.72,2.54,2.54,0,0,1-.82-2V7.6h.88v2.68A1.91,1.91,0,0,0,43,11.79a2.51,2.51,0,0,0,1.72.54,6.13,6.13,0,0,0,2.57-.6V7.6Z" style="fill:#383838"/><path d="M56.88,15.23V16H50.94V7.6H56.7v.77H51.83v3h4.34v.76H51.83v3.12Z" style="fill:#383838"/><path d="M65.44,7.6V16h-.88V8.37H60.51l-.1,2.81a17.11,17.11,0,0,1-.28,2.8,3.48,3.48,0,0,1-.68,1.58,1.53,1.53,0,0,1-1.21.52,2.88,2.88,0,0,1-.67-.08l.07-.79a1.71,1.71,0,0,0,.4,0,1,1,0,0,0,.86-.42,3.06,3.06,0,0,0,.5-1.3,16.71,16.71,0,0,0,.23-2.33l.12-3.6Z" style="fill:#383838"/><path d="M69.69,15.51A4.08,4.08,0,0,1,68.11,14a4.24,4.24,0,0,1-.57-2.18,4.24,4.24,0,0,1,.57-2.18,4.07,4.07,0,0,1,1.58-1.53,4.86,4.86,0,0,1,4.51,0,4.09,4.09,0,0,1,1.58,1.53,4.45,4.45,0,0,1,0,4.38,4.09,4.09,0,0,1-1.58,1.53,4.87,4.87,0,0,1-4.51,0Zm4.06-.68A3.26,3.26,0,0,0,75,13.58,3.71,3.71,0,0,0,75,10a3.26,3.26,0,0,0-1.26-1.25,3.84,3.84,0,0,0-3.61,0A3.29,3.29,0,0,0,68.88,10a3.67,3.67,0,0,0,0,3.56,3.29,3.29,0,0,0,1.27,1.25,3.84,3.84,0,0,0,3.61,0Z" style="fill:#383838"/><path d="M84.79,12.37a2,2,0,0,1,.46,1.36,2,2,0,0,1-.77,1.68A3.72,3.72,0,0,1,82.2,16H78.48V7.6H82a3.51,3.51,0,0,1,2.1.55,1.85,1.85,0,0,1,.76,1.6,2,2,0,0,1-.36,1.19,2.14,2.14,0,0,1-1,.73A2.33,2.33,0,0,1,84.79,12.37Zm-5.44-1h2.57a2.43,2.43,0,0,0,1.49-.4,1.36,1.36,0,0,0,.52-1.15,1.36,1.36,0,0,0-.52-1.15,2.43,2.43,0,0,0-1.49-.4H79.36Zm5,2.27q0-1.58-2.17-1.58H79.36v3.2H82.2Q84.37,15.29,84.37,13.67Z" style="fill:#383838"/><path d="M93.41,15.23V16H87.47V7.6h5.76v.77H88.36v3H92.7v.76H88.36v3.12Z" style="fill:#383838"/><path d="M98.16,12.15H96.24V16h-.86V7.6h.86v3.77h1.92L101,7.6h1l-3.12,4.08,3.3,4.32h-1Z" style="fill:#383838"/><path d="M169.6,12.44h12V13h-12Z" style="fill:#383838"/><path d="M193.87,15.23v2.65H193V16h-7.33v1.88h-.83V15.23h.42q.83,0,1.15-1.31a17.51,17.51,0,0,0,.4-3.59L187,7.6h5.66v7.63Zm-6.52-1.66a2.66,2.66,0,0,1-.79,1.66h5.17V8.37h-4l-.07,2A21.13,21.13,0,0,1,187.35,13.57Z" style="fill:#383838"/><path d="M201.35,8.37a2.61,2.61,0,0,1,.91,2.11,2.59,2.59,0,0,1-.91,2.11,3.81,3.81,0,0,1-2.52.76h-2.26V16h-.89V7.6h3.14A3.79,3.79,0,0,1,201.35,8.37ZM200.71,12a1.89,1.89,0,0,0,.66-1.54,1.92,1.92,0,0,0-.66-1.57,2.93,2.93,0,0,0-1.91-.55h-2.23v4.2h2.23A2.92,2.92,0,0,0,200.71,12Z" style="fill:#383838"/><path d="M205.63,15.51A4.08,4.08,0,0,1,204,14a4.24,4.24,0,0,1-.57-2.18A4.24,4.24,0,0,1,204,9.62a4.07,4.07,0,0,1,1.58-1.53,4.86,4.86,0,0,1,4.51,0,4.09,4.09,0,0,1,1.58,1.53,4.45,4.45,0,0,1,0,4.38,4.08,4.08,0,0,1-1.58,1.53,4.86,4.86,0,0,1-4.51,0Zm4.06-.68A3.26,3.26,0,0,0,211,13.58,3.71,3.71,0,0,0,211,10a3.26,3.26,0,0,0-1.26-1.25,3.83,3.83,0,0,0-3.61,0A3.29,3.29,0,0,0,204.81,10a3.67,3.67,0,0,0,0,3.56,3.29,3.29,0,0,0,1.27,1.25,3.84,3.84,0,0,0,3.61,0Z" style="fill:#383838"/><path d="M221.44,7.6V16h-.88V12.12h-5.26V16h-.89V7.6h.89v3.74h5.26V7.6Z" style="fill:#383838"/><circle cx="156.27" cy="39.7" r="10" style="fill:#8c8c8c"/><path d="M156.27,51.2a11.5,11.5,0,1,1,11.5-11.5A11.51,11.51,0,0,1,156.27,51.2Zm0-20a8.5,8.5,0,1,0,8.5,8.5A8.51,8.51,0,0,0,156.27,31.2Z" style="fill:#fff"/><path d="M156.27,61a6.5,6.5,0,1,1-6.5,6.5,6.51,6.51,0,0,1,6.5-6.5m0-2a8.5,8.5,0,1,0,8.5,8.5,8.5,8.5,0,0,0-8.5-8.5Z" style="fill:#3d85c6"/><path d="M169.6,39.21h12v.61h-12Z" style="fill:#383838"/><path d="M193.18,34.37v8.4h-.88V38.89H187v3.88h-.89v-8.4H187v3.74h5.26V34.37Z" style="fill:#383838"/><path d="M202,42v.77H196v-8.4h5.76v.77H196.9v3h4.34v.76H196.9V42Z" style="fill:#383838"/><path d="M208.48,42.28a4.08,4.08,0,0,1-1.58-1.53,4.47,4.47,0,0,1,0-4.37,4.07,4.07,0,0,1,1.58-1.53,4.86,4.86,0,0,1,4.51,0,4.09,4.09,0,0,1,1.58,1.53,4.46,4.46,0,0,1,0,4.38A4.09,4.09,0,0,1,213,42.29a4.87,4.87,0,0,1-4.51,0Zm4.06-.68a3.25,3.25,0,0,0,1.26-1.25,3.71,3.71,0,0,0,0-3.56,3.25,3.25,0,0,0-1.26-1.25,3.62,3.62,0,0,0-1.8-.45,3.66,3.66,0,0,0-1.81.45,3.28,3.28,0,0,0-1.27,1.25,3.67,3.67,0,0,0,0,3.56,3.28,3.28,0,0,0,1.27,1.25,3.66,3.66,0,0,0,1.81.45A3.62,3.62,0,0,0,212.55,41.6Z" style="fill:#383838"/><path d="M224.34,34.37v8.4h-.88V35.14h-5.32v7.63h-.88v-8.4Z" style="fill:#383838"/><path d="M232.84,35.14a2.89,2.89,0,0,1,0,4.22,3.81,3.81,0,0,1-2.52.76h-2.26v2.65h-.89v-8.4h3.14A3.79,3.79,0,0,1,232.84,35.14Zm-.64,3.65a1.89,1.89,0,0,0,.66-1.54,1.92,1.92,0,0,0-.66-1.57,2.93,2.93,0,0,0-1.91-.55h-2.23v4.2h2.23A2.92,2.92,0,0,0,232.2,38.79Z" style="fill:#383838"/><path d="M241.51,42v.77h-5.94v-8.4h5.76v.77h-4.87v3h4.34v.76h-4.34V42Z" style="fill:#383838"/><path d="M251.2,42v2.65h-.83V42.77H243v1.88h-.83V42h.42q.83,0,1.15-1.31a17.5,17.5,0,0,0,.4-3.59l.1-2.72h5.66V42Zm-6.52-1.66a2.66,2.66,0,0,1-.79,1.66h5.17V35.14h-4l-.07,2A21.26,21.26,0,0,1,244.68,40.34Z" style="fill:#383838"/><path d="M259,42v.77H253v-8.4h5.76v.77H253.9v3h4.34v.76H253.9V42Z" style="fill:#383838"/><path d="M267.51,34.37v8.4h-.88V35.14h-4.06l-.1,2.81a17.18,17.18,0,0,1-.28,2.8,3.48,3.48,0,0,1-.68,1.58,1.53,1.53,0,0,1-1.21.52,2.88,2.88,0,0,1-.67-.08l.07-.79a1.71,1.71,0,0,0,.4,0,1,1,0,0,0,.86-.42,3.06,3.06,0,0,0,.5-1.3,16.64,16.64,0,0,0,.23-2.33l.12-3.6Z" style="fill:#383838"/><path d="M276.28,42v.77h-5.94v-8.4h5.76v.77h-4.87v3h4.34v.76h-4.34V42Z" style="fill:#383838"/><path d="M285.27,34.37v8.4h-.88V38.89h-5.26v3.88h-.89v-8.4h.89v3.74h5.26V34.37Z" style="fill:#383838"/><path d="M289.52,42.28a4.08,4.08,0,0,1-1.58-1.53,4.47,4.47,0,0,1,0-4.37,4.07,4.07,0,0,1,1.58-1.53,4.86,4.86,0,0,1,4.51,0,4.09,4.09,0,0,1,1.58,1.53,4.45,4.45,0,0,1,0,4.38A4.08,4.08,0,0,1,294,42.29a4.86,4.86,0,0,1-4.51,0Zm4.06-.68a3.27,3.27,0,0,0,1.26-1.25,3.71,3.71,0,0,0,0-3.56,3.26,3.26,0,0,0-1.26-1.25,3.84,3.84,0,0,0-3.61,0,3.28,3.28,0,0,0-1.27,1.25,3.66,3.66,0,0,0,0,3.56A3.28,3.28,0,0,0,290,41.6a3.84,3.84,0,0,0,3.61,0Z" style="fill:#383838"/><path d="M169.6,69.1h12v.61h-12Z" style="fill:#383838"/><path d="M192.05,71.9v.77h-5.94v-8.4h5.76V65H187v3h4.34v.76H187V71.9Z" style="fill:#383838"/><path d="M202.86,64.27v8.4H202V65.95l-3.3,5.65h-.42L195,66v6.68h-.85v-8.4h.73l3.65,6.23,3.61-6.23Z" style="fill:#383838"/><path d="M205.6,64.27h.89v8.4h-.89Z" style="fill:#383838"/><path d="M209.22,64.27h.89v8.4h-.89Z" style="fill:#383838"/><path d="M218.11,70.42h-4.68l-1,2.24h-.92l3.84-8.4h.88l3.84,8.4h-.94Zm-.32-.72-2-4.51-2,4.51Z" style="fill:#383838"/><path d="M221.31,72.53a.65.65,0,0,1-.19-.47.63.63,0,0,1,.19-.46.61.61,0,0,1,.45-.19.63.63,0,0,1,.46.19.62.62,0,0,1,.19.46.64.64,0,0,1-.19.47.62.62,0,0,1-.46.19A.6.6,0,0,1,221.31,72.53Z" style="fill:#383838"/><path d="M230.08,70.42H225.4l-1,2.24h-.92l3.84-8.4h.88l3.84,8.4h-.94Zm-.32-.72-2-4.51-2,4.51Z" style="fill:#383838"/><path d="M233.41,64.27h.89v8.4h-.89Z" style="fill:#383838"/><path d="M248.9,64.27v8.4h-.85V65.95l-3.3,5.65h-.42L241,66v6.68h-.85v-8.4h.73l3.65,6.23,3.61-6.23Z" style="fill:#383838"/><path d="M257.38,72.67,255.46,70a6,6,0,0,1-.67,0h-2.26v2.66h-.89v-8.4h3.14a3.79,3.79,0,0,1,2.52.77,2.61,2.61,0,0,1,.91,2.11,2.73,2.73,0,0,1-.5,1.66,2.76,2.76,0,0,1-1.42,1l2.05,2.88Zm-.71-4a2.17,2.17,0,0,0,0-3.11,2.93,2.93,0,0,0-1.91-.55h-2.23v4.21h2.23A2.9,2.9,0,0,0,256.67,68.69Z" style="fill:#383838"/><path d="M267.3,64.27l-3.72,8.4h-.88L259,64.27h1l3.22,7.3,3.24-7.3Z" style="fill:#383838"/><path d="M25.61,39.21h12v.61h-12Z" style="fill:#383838"/><path d="M49,38.92H47.26v3.85h-.86V38.92H44.64l-2.57,3.85H41l2.88-4.33-2.66-4.07h1l2.41,3.77h1.76V34.37h.86v3.77H49l2.42-3.77h1l-2.66,4.07,2.88,4.33h-1Z" style="fill:#383838"/><path d="M54,34.37h.88v7l5.38-7h.8v8.4h-.88V35.82l-5.38,6.95H54Z" style="fill:#383838"/><path d="M70.21,39.14a2.23,2.23,0,0,1-.32,3,3.72,3.72,0,0,1-2.27.59H63.9v-8.4h3.49a3.51,3.51,0,0,1,2.1.55,1.85,1.85,0,0,1,.76,1.6,2,2,0,0,1-.36,1.19,2.13,2.13,0,0,1-1,.73A2.33,2.33,0,0,1,70.21,39.14Zm-5.44-1h2.57a2.43,2.43,0,0,0,1.49-.4,1.53,1.53,0,0,0,0-2.3,2.43,2.43,0,0,0-1.49-.4H64.78Zm5,2.27q0-1.58-2.17-1.58H64.78v3.2h2.84Q69.79,42.06,69.79,40.44Z" style="fill:#383838"/><path d="M74.31,42.28a4.08,4.08,0,0,1-1.58-1.53,4.47,4.47,0,0,1,0-4.37,4.07,4.07,0,0,1,1.58-1.53,4.86,4.86,0,0,1,4.51,0,4.09,4.09,0,0,1,1.58,1.53,4.45,4.45,0,0,1,0,4.38,4.09,4.09,0,0,1-1.58,1.53,4.87,4.87,0,0,1-4.51,0Zm4.06-.68a3.26,3.26,0,0,0,1.26-1.25,3.71,3.71,0,0,0,0-3.56,3.26,3.26,0,0,0-1.26-1.25,3.84,3.84,0,0,0-3.61,0,3.29,3.29,0,0,0-1.27,1.25,3.67,3.67,0,0,0,0,3.56,3.29,3.29,0,0,0,1.27,1.25,3.84,3.84,0,0,0,3.61,0Z" style="fill:#383838"/><path d="M88.48,35.14h-3v7.63h-.88V35.14h-3v-.77h6.78Z" style="fill:#383838"/><path d="M97.06,34.37v8.4h-.88V38.89H90.92v3.88H90v-8.4h.89v3.74h5.26V34.37Z" style="fill:#383838"/><path d="M101.31,42.28a4.08,4.08,0,0,1-1.58-1.53,4.47,4.47,0,0,1,0-4.37,4.07,4.07,0,0,1,1.58-1.53,4.86,4.86,0,0,1,4.51,0,4.09,4.09,0,0,1,1.58,1.53,4.45,4.45,0,0,1,0,4.38,4.08,4.08,0,0,1-1.58,1.53,4.86,4.86,0,0,1-4.51,0Zm4.06-.68a3.27,3.27,0,0,0,1.26-1.25,3.71,3.71,0,0,0,0-3.56,3.26,3.26,0,0,0-1.26-1.25,3.84,3.84,0,0,0-3.61,0,3.28,3.28,0,0,0-1.27,1.25,3.66,3.66,0,0,0,0,3.56,3.28,3.28,0,0,0,1.27,1.25,3.84,3.84,0,0,0,3.61,0Z" style="fill:#383838"/><path d="M116,42v.77H110.1v-8.4h5.76v.77H111v3h4.34v.76H111V42Z" style="fill:#383838"/><path d="M25.61,69.1h12v.61h-12Z" style="fill:#383838"/><path d="M47.83,65a2.89,2.89,0,0,1,0,4.22,3.81,3.81,0,0,1-2.52.76H43.06v2.65h-.89v-8.4h3.14A3.79,3.79,0,0,1,47.83,65Zm-.64,3.65a1.89,1.89,0,0,0,.66-1.54,1.92,1.92,0,0,0-.66-1.57A2.92,2.92,0,0,0,45.29,65H43.06v4.2h2.23A2.92,2.92,0,0,0,47.2,68.69Z" style="fill:#383838"/><path d="M52.11,72.18a4.08,4.08,0,0,1-1.58-1.53,4.47,4.47,0,0,1,0-4.37,4.07,4.07,0,0,1,1.58-1.53,4.86,4.86,0,0,1,4.51,0,4.09,4.09,0,0,1,1.58,1.53,4.45,4.45,0,0,1,0,4.38,4.09,4.09,0,0,1-1.58,1.53,4.87,4.87,0,0,1-4.51,0Zm4.06-.68a3.26,3.26,0,0,0,1.26-1.25,3.71,3.71,0,0,0,0-3.56,3.26,3.26,0,0,0-1.26-1.25,3.84,3.84,0,0,0-3.61,0,3.29,3.29,0,0,0-1.27,1.25,3.67,3.67,0,0,0,0,3.56,3.29,3.29,0,0,0,1.27,1.25,3.84,3.84,0,0,0,3.61,0Z" style="fill:#383838"/><path d="M60.9,64.27H67V65H61.78v2.75h2.75a3.59,3.59,0,0,1,2.26.61,2.13,2.13,0,0,1,.77,1.78A2.22,2.22,0,0,1,66.73,72a3.83,3.83,0,0,1-2.39.65H60.9ZM64.32,72a2.92,2.92,0,0,0,1.76-.44,1.54,1.54,0,0,0,.59-1.32,1.49,1.49,0,0,0-.58-1.29,3,3,0,0,0-1.77-.43H61.78V72Z" style="fill:#383838"/><path d="M71,72.18a4.08,4.08,0,0,1-1.58-1.53,4.47,4.47,0,0,1,0-4.37A4.07,4.07,0,0,1,71,64.75a4.86,4.86,0,0,1,4.51,0,4.09,4.09,0,0,1,1.58,1.53,4.45,4.45,0,0,1,0,4.38,4.09,4.09,0,0,1-1.58,1.53,4.87,4.87,0,0,1-4.51,0Zm4.06-.68a3.26,3.26,0,0,0,1.26-1.25,3.71,3.71,0,0,0,0-3.56,3.26,3.26,0,0,0-1.26-1.25,3.84,3.84,0,0,0-3.61,0,3.29,3.29,0,0,0-1.27,1.25,3.67,3.67,0,0,0,0,3.56A3.29,3.29,0,0,0,71.5,71.5a3.84,3.84,0,0,0,3.61,0Z" style="fill:#383838"/><path d="M85.21,65h-3v7.63h-.88V65h-3v-.77h6.78Z" style="fill:#383838"/></g></svg>