<svg id="Layer_1" data-name="Layer 1" xmlns="http://www.w3.org/2000/svg" viewBox="0 0 238.85 14.97"><title>temperature</title><path d="M51,8.46H72V9.53H51Z" style="fill:#383838"/><path d="M89.58,1.34H84.42V14.7H82.89V1.34H77.72V0H89.58Z" style="fill:#383838"/><path d="M102.71,13.36V14.7H92.31V0h10.08V1.34H93.87V6.57h7.6V7.9h-7.6v5.46Z" style="fill:#383838"/><path d="M121.42,0V14.7h-1.49V2.94l-5.78,9.89h-.73L107.64,3V14.7h-1.49V0h1.28l6.38,10.9L120.14,0Z" style="fill:#383838"/><path d="M138.74,0V14.7h-1.53V1.34h-9.3V14.7h-1.53V0Z" style="fill:#383838"/><path d="M154.1,13.36V14.7H143.7V0h10.08V1.34h-8.53V6.57h7.6V7.9h-7.6v5.46Z" style="fill:#383838"/><path d="M167.45,1.34A4.57,4.57,0,0,1,169,5a4.54,4.54,0,0,1-1.6,3.69A6.67,6.67,0,0,1,163,10.06h-3.95V14.7h-1.55V0H163A6.64,6.64,0,0,1,167.45,1.34Zm-1.11,6.39A3.31,3.31,0,0,0,167.49,5a3.36,3.36,0,0,0-1.15-2.74,5.12,5.12,0,0,0-3.34-1h-3.91V8.69H163A5.12,5.12,0,0,0,166.34,7.74Z" style="fill:#383838"/><path d="M180.91,10.77h-8.19L171,14.7h-1.62L176.06,0h1.53l6.72,14.7h-1.64Zm-.57-1.26-3.53-7.9-3.53,7.9Z" style="fill:#383838"/><path d="M196,1.34h-5.17V14.7h-1.53V1.34h-5.17V0H196Z" style="fill:#383838"/><path d="M209.66,0,203,12.37a5.36,5.36,0,0,1-1.67,2,3.68,3.68,0,0,1-2.09.64,4.76,4.76,0,0,1-1.81-.4l.44-1.26a3.86,3.86,0,0,0,1.39.29A2.72,2.72,0,0,0,201.62,12l.42-.71L196.07,0h1.66l5.12,10,5.25-10Z" style="fill:#383838"/><path d="M222,1.34a4.57,4.57,0,0,1,1.6,3.7A4.54,4.54,0,0,1,222,8.73a6.67,6.67,0,0,1-4.41,1.33h-3.95V14.7h-1.55V0h5.5A6.64,6.64,0,0,1,222,1.34Zm-1.11,6.39A3.31,3.31,0,0,0,222,5a3.36,3.36,0,0,0-1.15-2.74,5.12,5.12,0,0,0-3.34-1h-3.91V8.69h3.91A5.12,5.12,0,0,0,220.88,7.74Z" style="fill:#383838"/><path d="M235.45,10.77h-8.19l-1.76,3.93h-1.62L230.6,0h1.53l6.72,14.7h-1.64Zm-.57-1.26-3.53-7.9-3.53,7.9Z" style="fill:#383838"/><path d="M5.17.27V15H3.65V1.62H.19V.27Z" style="fill:#3d85c6"/><path d="M17.72,2.07A8.43,8.43,0,0,1,19.28,7.5a9.32,9.32,0,0,1-.84,4.16,5.88,5.88,0,0,1-2.35,2.57,6.94,6.94,0,0,1-3.53.87,6.62,6.62,0,0,1-3.49-.8l.61-1.22a5.13,5.13,0,0,0,2.86.69,4.88,4.88,0,0,0,3.82-1.54,6.5,6.5,0,0,0,1.39-4.48q0-.55-.06-1.2a4,4,0,0,1-1.74,1.86,5.59,5.59,0,0,1-2.75.66,5.81,5.81,0,0,1-2.57-.55A4.18,4.18,0,0,1,8.86,7a4.25,4.25,0,0,1-.63-2.32,4.34,4.34,0,0,1,.65-2.37A4.3,4.3,0,0,1,10.68.7,5.8,5.8,0,0,1,13.25.15,5.42,5.42,0,0,1,17.72,2.07Zm-2.34,5.3a3.31,3.31,0,0,0,1.33-1.16,2.92,2.92,0,0,0,.48-1.64A2.86,2.86,0,0,0,16.75,3a3.25,3.25,0,0,0-1.33-1.15,4.64,4.64,0,0,0-2.1-.44,3.8,3.8,0,0,0-2.59.87,2.93,2.93,0,0,0-1,2.32,2.9,2.9,0,0,0,1,2.31,4,4,0,0,0,2.7.86A4.39,4.39,0,0,0,15.38,7.37Z" style="fill:#3d85c6"/><path d="M23.15,6.38a3.22,3.22,0,0,1-1.21-1.21,3.32,3.32,0,0,1-.44-1.69,3.28,3.28,0,0,1,.44-1.67A3.23,3.23,0,0,1,23.15.61,3.33,3.33,0,0,1,24.84.17a3.39,3.39,0,0,1,1.7.44,3.21,3.21,0,0,1,1.22,1.21,3.29,3.29,0,0,1,.44,1.67,3.33,3.33,0,0,1-.44,1.69,3.2,3.2,0,0,1-1.22,1.21,3.39,3.39,0,0,1-1.7.44A3.33,3.33,0,0,1,23.15,6.38Zm3.42-1.14a2.38,2.38,0,0,0,.7-1.75,2.4,2.4,0,0,0-2.44-2.44,2.32,2.32,0,0,0-1.72.7,2.37,2.37,0,0,0-.69,1.73,2.4,2.4,0,0,0,.69,1.75,2.32,2.32,0,0,0,1.72.7A2.36,2.36,0,0,0,26.58,5.24Z" style="fill:#3d85c6"/><path d="M34.43,14.13a7.07,7.07,0,0,1-2.75-2.68,7.47,7.47,0,0,1-1-3.83,7.47,7.47,0,0,1,1-3.83,7.06,7.06,0,0,1,2.76-2.68,8.09,8.09,0,0,1,3.95-1,8.2,8.2,0,0,1,3,.55,6.27,6.27,0,0,1,2.35,1.6l-1,1a5.86,5.86,0,0,0-4.35-1.74,6.39,6.39,0,0,0-3.17.8A5.83,5.83,0,0,0,33,4.52a6.05,6.05,0,0,0-.81,3.11A6.05,6.05,0,0,0,33,10.73a5.83,5.83,0,0,0,2.24,2.18,6.39,6.39,0,0,0,3.17.8,5.77,5.77,0,0,0,4.35-1.76l1,1a6.35,6.35,0,0,1-2.36,1.61,8.12,8.12,0,0,1-3,.56A8,8,0,0,1,34.43,14.13Z" style="fill:#3d85c6"/></svg>