<svg id="Layer_1" data-name="Layer 1" xmlns="http://www.w3.org/2000/svg" viewBox="0 0 226.69 19.25"><title>temperature</title><path d="M38.82,10.46h21v1.07h-21Z" style="fill:#383838"/><path d="M77.42,3.34H72.25V16.7H70.72V3.34H65.55V2H77.42Z" style="fill:#383838"/><path d="M90.54,15.36V16.7H80.15V2H90.23V3.34H81.7V8.57h7.6V9.9H81.7v5.46Z" style="fill:#383838"/><path d="M109.26,2V16.7h-1.49V4.94L102,14.83h-.73L95.48,5V16.7H94V2h1.28l6.38,10.9L108,2Z" style="fill:#383838"/><path d="M126.58,2V16.7H125V3.34h-9.3V16.7h-1.53V2Z" style="fill:#383838"/><path d="M141.93,15.36V16.7h-10.4V2h10.08V3.34h-8.53V8.57h7.6V9.9h-7.6v5.46Z" style="fill:#383838"/><path d="M155.29,3.34a4.57,4.57,0,0,1,1.6,3.7,4.54,4.54,0,0,1-1.6,3.69,6.67,6.67,0,0,1-4.41,1.33h-3.95V16.7h-1.55V2h5.5A6.64,6.64,0,0,1,155.29,3.34Zm-1.11,6.39A3.31,3.31,0,0,0,155.33,7a3.36,3.36,0,0,0-1.15-2.74,5.12,5.12,0,0,0-3.34-1h-3.91V10.7h3.91A5.12,5.12,0,0,0,154.17,9.74Z" style="fill:#383838"/><path d="M168.75,12.77h-8.19l-1.76,3.93h-1.62L163.9,2h1.53l6.72,14.7h-1.64Zm-.57-1.26-3.53-7.9-3.53,7.9Z" style="fill:#383838"/><path d="M183.85,3.34h-5.17V16.7h-1.53V3.34H172V2h11.86Z" style="fill:#383838"/><path d="M197.5,2l-6.68,12.37a5.36,5.36,0,0,1-1.67,2,3.68,3.68,0,0,1-2.09.64,4.76,4.76,0,0,1-1.81-.4l.44-1.26a3.86,3.86,0,0,0,1.39.29A2.72,2.72,0,0,0,189.45,14l.42-.71L183.91,2h1.66l5.12,10,5.25-10Z" style="fill:#383838"/><path d="M209.82,3.34a4.57,4.57,0,0,1,1.6,3.7,4.54,4.54,0,0,1-1.6,3.69,6.67,6.67,0,0,1-4.41,1.33h-3.95V16.7h-1.55V2h5.5A6.64,6.64,0,0,1,209.82,3.34Zm-1.11,6.39A3.31,3.31,0,0,0,209.87,7a3.36,3.36,0,0,0-1.15-2.74,5.12,5.12,0,0,0-3.34-1h-3.91V10.7h3.91A5.12,5.12,0,0,0,208.71,9.74Z" style="fill:#383838"/><path d="M223.28,12.77h-8.19l-1.76,3.93h-1.62L218.43,2H220l6.72,14.7H225Zm-.57-1.26-3.53-7.9-3.53,7.9Z" style="fill:#383838"/><path d="M6.41.16V19.09H4.46V1.89H0V.16Z" style="fill:#3d85c6"/><path d="M22.57,2.47q2,2.47,2,7a12,12,0,0,1-1.08,5.35,7.57,7.57,0,0,1-3,3.31,8.93,8.93,0,0,1-4.54,1.12,8.52,8.52,0,0,1-4.49-1l.78-1.57a6.61,6.61,0,0,0,3.68.89,6.28,6.28,0,0,0,4.92-2A8.37,8.37,0,0,0,22.6,9.79q0-.7-.08-1.54a5.11,5.11,0,0,1-2.24,2.39,7.19,7.19,0,0,1-3.54.85,7.48,7.48,0,0,1-3.31-.7,5.38,5.38,0,0,1-2.26-2,5.48,5.48,0,0,1-.81-3,5.59,5.59,0,0,1,.84-3.06,5.53,5.53,0,0,1,2.31-2A7.47,7.47,0,0,1,16.82,0,7,7,0,0,1,22.57,2.47Zm-3,6.83a4.26,4.26,0,0,0,1.72-1.49,3.76,3.76,0,0,0,.62-2.11,3.68,3.68,0,0,0-.58-2A4.18,4.18,0,0,0,19.6,2.22a6,6,0,0,0-2.7-.57,4.89,4.89,0,0,0-3.34,1.12,3.77,3.77,0,0,0-1.28,3,3.73,3.73,0,0,0,1.28,3A5.13,5.13,0,0,0,17,9.84,5.65,5.65,0,0,0,19.56,9.3Z" style="fill:#3d85c6"/><path d="M29.56,8A4.14,4.14,0,0,1,28,6.47a4.28,4.28,0,0,1-.57-2.18A4.23,4.23,0,0,1,28,2.15,4.15,4.15,0,0,1,29.56.59,4.28,4.28,0,0,1,31.74,0a4.36,4.36,0,0,1,2.19.57A4.13,4.13,0,0,1,35.5,2.15a4.23,4.23,0,0,1,.57,2.15,4.29,4.29,0,0,1-.57,2.18A4.12,4.12,0,0,1,33.93,8a4.36,4.36,0,0,1-2.19.57A4.28,4.28,0,0,1,29.56,8ZM34,6.56a3.07,3.07,0,0,0,.91-2.26,3.09,3.09,0,0,0-3.14-3.14,3,3,0,0,0-2.22.91,3.06,3.06,0,0,0-.89,2.23,3.09,3.09,0,0,0,.89,2.26,3,3,0,0,0,2.22.91A3,3,0,0,0,34,6.56Z" style="fill:#3d85c6"/></svg>