<svg id="Layer_1" data-name="Layer 1" xmlns="http://www.w3.org/2000/svg" viewBox="0 0 30 30" height="10.66795mm" width="5.65009mm"><title>НАВИГАЦИЯ</title>



<path d="M21.5,10.25H2.9A2.9,2.9,0,0,1,0,7.35V2.9A2.9,2.9,0,0,1,2.9,0H21.5a2.9,2.9,0,0,1,2.9,2.9V7.35A2.9,2.9,0,0,1,21.5,10.25ZM2.9.25A2.65,2.65,0,0,0,.25,2.9V7.35A2.65,2.65,0,0,0,2.9,10H21.5a2.65,2.65,0,0,0,2.65-2.65V2.9A2.65,2.65,0,0,0,21.5.25Z" style="fill:#383838"/><path d="M4.44,3.94V6H4.23V5H2.94V6H2.73V3.94h.22v.91H4.23V3.94Z" style="fill:#383838"/><path d="M6.44,5.44H5.3L5.05,6H4.83l.94-2.05H6L6.92,6H6.69Zm-.08-.18-.49-1.1-.49,1.1Z" style="fill:#383838"/><path d="M8.85,5.1a.54.54,0,0,1-.08.74A.91.91,0,0,1,8.22,6H7.31V3.94h.85a.86.86,0,0,1,.51.13.45.45,0,0,1,.18.39.48.48,0,0,1-.09.29.52.52,0,0,1-.25.18A.57.57,0,0,1,8.85,5.1ZM7.52,4.86h.63a.59.59,0,0,0,.36-.1.37.37,0,0,0,0-.56.59.59,0,0,0-.36-.1H7.52Zm1.22.55Q8.75,5,8.22,5H7.52v.78h.69Q8.75,5.81,8.75,5.42Z" style="fill:#383838"/><path d="M9.5,3.94h.21v1.7L11,3.94h.2V6H11V4.29L9.7,6H9.5Z" style="fill:#383838"/><path d="M13.22,4.12H12.13V6h-.21V3.94h1.3Z" style="fill:#383838"/><path d="M14.52,5.44H13.38L13.13,6h-.23l.94-2.05h.21L15,6h-.23Zm-.08-.18-.49-1.1-.49,1.1Z" style="fill:#383838"/><path d="M17.38,5.8v.67h-.2V6H15.39V3.94h.21V5.8h1.24V3.94h.21V5.8Z" style="fill:#383838"/><path d="M17.81,3.94H18v1.7l1.31-1.7h.2V6h-.21V4.29L18,6h-.2Z" style="fill:#383838"/><path d="M21.68,3.94V6h-.21V5.36h-.73L20.3,6h-.23l.47-.67a.62.62,0,0,1-.35-.24.71.71,0,0,1-.12-.42.67.67,0,0,1,.22-.54.87.87,0,0,1,.59-.19ZM20.44,5a.62.62,0,0,0,.43.14h.59V4.12h-.57a.66.66,0,0,0-.44.14.5.5,0,0,0-.16.4A.5.5,0,0,0,20.44,5Z" style="fill:#383838"/></svg>

