<?xml version="1.0" encoding="UTF-8" standalone="no"?>
<svg
   xmlns:dc="http://purl.org/dc/elements/1.1/"
   xmlns:cc="http://creativecommons.org/ns#"
   xmlns:rdf="http://www.w3.org/1999/02/22-rdf-syntax-ns#"
   xmlns:svg="http://www.w3.org/2000/svg"
   xmlns="http://www.w3.org/2000/svg"
   xmlns:sodipodi="http://sodipodi.sourceforge.net/DTD/sodipodi-0.dtd"
   xmlns:inkscape="http://www.inkscape.org/namespaces/inkscape"
   sodipodi:docname="tral.svg"
   inkscape:version="1.0 (4035a4fb49, 2020-05-01)"
   id="svg8"
   version="1.1"
   viewBox="0 0 12.65009 3.66795"
   height="3.66795mm"
   width="12.65009mm">
  <defs
     id="defs2" />
  <sodipodi:namedview
     inkscape:window-maximized="0"
     inkscape:window-y="0"
     inkscape:window-x="0"
     inkscape:window-height="1050"
     inkscape:window-width="1920"
     fit-margin-bottom="0"
     fit-margin-right="0"
     fit-margin-left="0"
     fit-margin-top="0"
     showgrid="false"
     inkscape:document-rotation="0"
     inkscape:current-layer="layer1"
     inkscape:document-units="mm"
     inkscape:cy="32.096901"
     inkscape:cx="585.05084"
     inkscape:zoom="0.98994949"
     inkscape:pageshadow="2"
     inkscape:pageopacity="0.0"
     borderopacity="1.0"
     bordercolor="#666666"
     pagecolor="#ffffff"
     id="base" />
  <metadata
     id="metadata5">
    <rdf:RDF>
      <cc:Work
         rdf:about="">
        <dc:format>image/svg+xml</dc:format>
        <dc:type
           rdf:resource="http://purl.org/dc/dcmitype/StillImage" />
        <dc:title></dc:title>
      </cc:Work>
    </rdf:RDF>
  </metadata>
  <g
     transform="translate(-18.061857,-81.56186)"
     id="layer1"
     inkscape:groupmode="layer"
     inkscape:label="Слой 1">
    <rect
       ry="4.1519575"
       rx="3.6069441"
       y="81.64286"
       x="18.142857"
       height="3.505951"
       width="12.48809"
       id="rect865"
       style="opacity:0.522782;fill:#767676;fill-opacity:0.722527;stroke:#282525;stroke-width:0.162;stroke-linecap:round;stroke-linejoin:bevel;stroke-opacity:1;paint-order:markers fill stroke" />
    <g
       transform="translate(-1.0583333,-1.0583333)"
       style="font-size:25.4px;line-height:1.25;font-family:Montserrat;-inkscape-font-specification:Montserrat;stroke-width:0.264583"
       id="text869"
       aria-label="В путь">
      <path
         id="path871"
         style="stroke-width:0.264583"
         d="m 55.23225,98.005672 q 1.8542,0.381 2.8194,1.4986 0.9652,1.092198 0.9652,2.870198 0,2.3114 -1.651,3.556 -1.6256,1.2446 -4.8006,1.2446 h -7.874 V 89.395072 h 7.3914 q 2.8448,0 4.445,1.1684 1.6002,1.1684 1.6002,3.3782 0,1.4986 -0.762,2.54 -0.762,1.016 -2.1336,1.524 z m -8.6868,-0.5588 h 5.4356 q 2.0574,0 3.1496,-0.8382 1.1176,-0.8382 1.1176,-2.4384 0,-1.6002 -1.1176,-2.4384 -1.0922,-0.8382 -3.1496,-0.8382 h -5.4356 z m 6.0198,8.229598 q 4.5974,0 4.5974,-3.429 0,-3.352798 -4.5974,-3.352798 h -6.0198 v 6.781798 z" />
      <path
         id="path873"
         style="stroke-width:0.264583"
         d="m 81.896296,93.814672 v 13.360398 h -1.8034 V 95.414872 h -8.382 v 11.760198 h -1.8034 V 93.814672 Z" />
      <path
         id="path875"
         style="stroke-width:0.264583"
         d="m 98.376532,93.814672 -6.680199,14.960598 q -0.8128,1.8796 -1.8796,2.667 -1.0668,0.7874 -2.5654,0.7874 -0.9652,0 -1.8034,-0.3048 -0.8382,-0.3048 -1.4478,-0.9144 l 0.8382,-1.3462 q 1.016,1.016 2.4384,1.016 0.9144,0 1.5494,-0.508 0.6604,-0.508 1.2192,-1.7272 l 0.5842,-1.2954 -5.969,-13.334998 h 1.8796 l 5.0292,11.353798 5.029199,-11.353798 z" />
      <path
         id="path877"
         style="stroke-width:0.264583"
         d="m 110.65862,95.414872 h -5.0546 v 11.760198 h -1.8034 V 95.414872 h -5.054599 v -1.6002 h 11.912599 z" />
      <path
         id="path879"
         style="stroke-width:0.264583"
         d="m 119.00649,98.539072 q 2.5146,0.0254 3.81,1.1176 1.3208,1.092198 1.3208,3.149598 0,2.1336 -1.4224,3.2766 -1.397,1.143 -4.064,1.1176 l -5.3848,-0.0254 V 93.814672 h 1.8034 v 4.6736 z m -0.4572,7.289798 q 1.8542,0.0254 2.794,-0.7366 0.9652,-0.7874 0.9652,-2.286 0,-1.4732 -0.9398,-2.1844 -0.9398,-0.711198 -2.8194,-0.736598 l -3.4798,-0.0508 v 5.943598 z" />
    </g>
  </g>
</svg>
