<svg width="340" height="200" viewBox="0 0 340 200" xmlns="http://www.w3.org/2000/svg"
    xmlns:xlink="http://www.w3.org/1999/xlink">
 
 
 
 
 
  <path d="m 52.552843,110.55812 c 0.893222,-12.641154 -0.04682,-39.267842 0.73193,-64.05209 0.0538,-1.712078 5.284512,-10.380647 15.581924,-10.793116 23.297383,-0.933192 66.370123,-0.199393 90.579933,-0.447552 26.93243,-0.276067 18.86871,-11.743364 19.03385,-16.686462 0.43863,-13.1295395 -4.04792,-30.884656 8.50012,-30.922572 52.21247,-0.157771 41.89539,1.002772 86.13952,0.194252 -5.41491,22.819557 16.65296,77.279659 -30.49392,92.304136 -22.59979,7.20196 -63.81039,4.91455 -96.14096,5.277453 -17.22554,0.193353 -32.60907,0.453543 -48.971768,2.094033 -20.541798,2.059474 5.854048,24.107048 -44.960629,23.031918" 
      stroke="black" stroke-width="1.4" fill="none" id="motionPath3"/> 
      
  <path d="M11.839 3.287c-.185.124-1.018.489-1.335.643-.432.225-.902.605-1.319.783-.015.1 0 .07-.139.178-.2.147-.07.085-.262.108-.093.132.03-.007-.093.124l-.324.272c-.2.216-.192.247-.455.371l-.555.543c-.108.255-.147.263-.363.464-.177.17-.17.287-.393.396-.039.178-.193.426-.363.51-.108.295-.57.961-.756 1.31l-.694 1.371c0 .24-.262.922-.355 1.224-.116.542-.231.96-.316 1.542-.046.317-.085 1.433-.178 1.58l.047.829.108 1.356.532 2.587.432 1.364c.062.092 1.041 2.494 1.041 2.533.016.015.031.03.039.046l.57 1.092.024.093c.231.163.764 1.193.88 1.488.146.077.293.348.316.503l.277.349c.07.124.155.225.209.364l1.79 2.51c.13.093 0-.031.161.132.078.077.031.03.093.108.077.116.093.163.162.294.131.047.093.062.2.194.093.1.109.109.186.21.162.193.277.294.308.44.1.07.039.032.124.102l.555.697c.162.023.008-.07.162.093.046.046.077.1.116.147.108.147.146.178.278.333l.67.782a.059.059 0 0 0 .032.016l.47.442.764.782c.193.108.455.333.532.58.224.117.363.272.563.442.224.186.363.225.602.38h.51c.246-.163.323-.132.57-.349.2-.178.316-.27.532-.472.077-.147.124-.17.263-.302.054-.054.115-.124.17-.163.177-.14.015-.039.146-.077.139-.28.54-.651.787-.821.077-.117.139-.186.247-.28a.959.959 0 0 1 .254-.178l.664-.805a1.46 1.46 0 0 0 .277-.31c.124-.155.116-.225.278-.24.116-.194.2-.295.332-.457l.3-.31c0-.023.024-.023.04-.031.038-.147.547-.79.701-.845a1.98 1.98 0 0 1 .193-.333c.116-.14.123-.124.224-.193.038-.155-.023-.008.1-.202l1.666-2.324c.131-.217.263-.472.463-.604.023-.178.046-.186.154-.356.062-.101.093-.186.209-.248.193-.465.509-.93.763-1.395.24-.426.486-.93.702-1.309l.587-1.301.208-.434c.008-.023.023-.031.039-.039-.008-.255.162-.682.293-.875l.393-1.27.278-1.124c.139-.953.324-1.782.362-2.82l.047-1.053c-.1-.178-.155-1.201-.2-1.519a10.17 10.17 0 0 0-.294-1.332l-.355-1.263-.316-.635c-.108-.225-.232-.41-.262-.65-.17-.148-.834-1.263-.942-1.48-.092-.04-.115-.101-.223-.24a2.067 2.067 0 0 1-.185-.248c-.155-.21-.132-.202-.348-.396-.154-.139-.2-.209-.293-.402l-.563-.55-.864-.752c-.185-.03-.062.031-.262-.116-.139-.1-.124-.07-.139-.178-.432-.194-.88-.55-1.32-.775-.423-.217-.971-.441-1.35-.658L19.77 2.86c-.432-.07-.771-.186-1.234-.255l-1.219-.194h-1.643c-.27.109-1.574.21-2.044.325-.625.163-1.204.396-1.79.55z" fill="none" stroke="#3d85c6" stroke-width="1">
  
    <animateMotion dur="20s" repeatCount="indefinite"
        keyPoints="0;0.0;1" keyTimes="0;0.3;1" calcMode="linear">
      <mpath xlink:href="#motionPath3"/>
    </animateMotion>
  </path>
 
 






 
 
 
  
  <path d="m 211.80363,67.96442 c 12.64441,0.685018 39.26726,-0.218233 64.0542,0.316149 1.71227,0.03692 10.40061,4.346826 10.85217,12.907542 1.02164,19.368199 0.45139,55.187789 0.79147,75.317819 0.37833,22.39384 11.81489,15.63626 16.75856,15.75101 13.13107,0.30478 30.86897,-3.50699 30.95453,6.9269 0.35601,43.41547 -0.84369,34.84182 0.13281,71.62841 -22.83988,-4.39845 -77.21562,14.2003 -92.41895,-24.9351 -7.2877,-18.7595 -5.15679,-53.03777 -5.64244,-79.91993 -0.25876,-14.32265 -0.57736,-27.11332 -2.27996,-40.71189 -2.13745,-17.071697 -24.08457,4.97789 -23.20239,-37.28091"  
      stroke="lightgrey" stroke-width="1" fill="none" id="motionPath1"/>


  <circle r="5" fill="red">
    <animateMotion dur="15s" repeatCount="indefinite"
        keyPoints="0;0.0;1" keyTimes="0;0.3;1" calcMode="linear">
      <mpath xlink:href="#motionPath1"/>
    </animateMotion>
  </circle>
  
  
  
    <path d="m -9.0344007,248.25906 c 0.9191088,-12.66605 0.197938,-39.35798 1.0840779,-64.19544 0.061271,-1.71576 5.0406865,-10.38045 14.7408731,-10.74716 21.9461787,-0.82966 62.5056247,0.10118 85.3068707,-0.0378 25.365449,-0.15456 17.842079,-11.68468 18.028059,-16.63835 0.49401,-13.15761 -3.6218,-30.97374 8.19562,-30.95482 49.17233,0.0787 39.44901,1.19508 81.12112,0.58539 -5.24015,22.84725 15.20672,77.53214 -29.28669,92.37718 -21.32785,7.11595 -60.12404,4.63639 -90.57377,4.85348 -16.22342,0.11568 -30.712547,0.30669 -46.1323,1.87672 -19.358036,1.97103 5.364497,24.1888 -42.4838607,22.88073"   
      stroke="lightgrey" stroke-width="1" fill="none" id="motionPath2"/>


  <circle r="5" fill="red">
    <animateMotion dur="18s" repeatCount="indefinite"
        keyPoints="0;0.0;1" keyTimes="0;0.3;1" calcMode="linear">
      <mpath xlink:href="#motionPath2"/>
    </animateMotion>
  </circle>
  
  
</svg>
