<svg xmlns="http://www.w3.org/2000/svg" xmlns:xlink="http://www.w3.org/1999/xlink" height="200" width="352">

<path id="a" fill="none" stroke-width="1.162" stroke="#000" d="M29.64 141.583c.707-10.975-.038-34.092.58-55.61.042-1.486 4.19-9.012 12.354-9.37 18.472-.81 52.623-.173 71.818-.389 21.354-.24 14.96-10.195 15.091-14.487.348-11.399-3.21-26.814 6.74-26.847 41.397-.137 33.217.87 68.297.169-4.293 19.812 13.204 67.094-24.178 80.138-17.918 6.253-50.593 4.267-76.227 4.582-13.657.168-25.855.394-38.828 1.818-16.287 1.788 4.641 20.93-35.648 19.996"/>

<path stroke="#3d85c6" fill="none" d="M11.839 3.287c-.185.124-1.018.489-1.335.643-.432.225-.902.605-1.319.783-.015.1 0 .07-.139.178-.2.147-.07.085-.262.108-.093.132.03-.007-.093.124l-.324.272c-.2.216-.192.247-.455.371l-.555.543c-.108.255-.147.263-.363.464-.177.17-.17.287-.393.396-.039.178-.193.426-.363.51-.108.295-.57.961-.756 1.31l-.694 1.371c0 .24-.262.922-.355 1.224-.116.542-.231.96-.316 1.542-.046.317-.085 1.433-.178 1.58l.047.829.108 1.356.532 2.587.432 1.364c.062.092 1.041 2.494 1.041 2.533a.18.18 0 0 1 .039.046l.57 1.092.024.093c.231.163.764 1.193.88 1.488.146.077.293.348.316.503l.277.349c.07.124.155.225.209.364l1.79 2.51c.13.093 0-.031.161.132.078.077.031.03.093.108.077.116.093.163.162.294.131.047.093.062.2.194.093.1.109.109.186.21.162.193.277.294.308.44.1.07.039.032.124.102l.555.697c.162.023.008-.07.162.093.046.046.077.1.116.147.108.147.146.178.278.333l.67.782a.059.059 0 0 0 .032.016l.47.442.764.782c.193.108.455.333.532.58.224.117.363.272.563.442.224.186.363.225.602.38h.51c.246-.163.323-.132.57-.349.2-.178.316-.27.532-.472.077-.147.124-.17.263-.302.054-.054.115-.124.17-.163.177-.14.015-.039.146-.077.139-.28.54-.651.787-.821.077-.117.139-.186.247-.28a.959.959 0 0 1 .254-.178l.664-.805a1.46 1.46 0 0 0 .277-.31c.124-.155.116-.225.278-.24.116-.194.2-.295.332-.457l.3-.31c0-.023.024-.023.04-.031.038-.147.547-.79.701-.845a1.98 1.98 0 0 1 .193-.333c.116-.14.123-.124.224-.193.038-.155-.023-.008.1-.202l1.666-2.324c.131-.217.263-.472.463-.604.023-.178.046-.186.154-.356.062-.101.093-.186.209-.248.193-.465.509-.93.763-1.395.24-.426.486-.93.702-1.309l.587-1.301.208-.434c.008-.023.023-.031.039-.039-.008-.255.162-.682.293-.875l.393-1.27.278-1.124c.139-.953.324-1.782.362-2.82l.047-1.053c-.1-.178-.155-1.201-.2-1.519a10.17 10.17 0 0 0-.294-1.332l-.355-1.263-.316-.635c-.108-.225-.232-.41-.262-.65-.17-.148-.834-1.263-.942-1.48-.092-.04-.115-.101-.223-.24a2.067 2.067 0 0 1-.185-.248c-.155-.21-.132-.202-.348-.396a1.032 1.032 0 0 1-.293-.402l-.563-.55-.864-.752c-.185-.03-.062.031-.262-.116-.139-.1-.124-.07-.139-.178-.432-.194-.88-.55-1.32-.775-.423-.217-.971-.441-1.35-.658l-1.248-.42c-.432-.07-.771-.186-1.234-.255l-1.219-.194h-1.643c-.27.109-1.574.21-2.044.325-.625.163-1.204.396-1.79.55z"><animateMotion calcMode="linear" keyTimes="0;0.3;1" keyPoints="0;0.0;1" repeatCount="indefinite" dur="20s">



<mpath xlink:href="#a"/>
</animateMotion></path>
<path id="b" fill="none" stroke-width=".864" stroke="#d3d3d3" d="M216.967 22.482c11.487.563 35.673-.18 58.191.26 1.556.03 9.449 3.572 9.86 10.608.927 15.917.41 45.355.718 61.9.344 18.403 10.733 12.85 15.225 12.944 11.929.25 28.043-2.882 28.12 5.693.324 35.68-.766 28.634.121 58.867-20.749-3.615-70.147 11.67-83.959-20.493-6.62-15.417-4.685-43.588-5.126-65.681-.235-11.771-.524-22.283-2.071-33.459-1.942-14.03-21.88 4.091-21.079-30.639"/>

<circle fill="red" r="5">
<animateMotion calcMode="linear" keyTimes="0;0.3;1" keyPoints="0;0.0;1" repeatCount="indefinite" dur="15s">





<mpath xlink:href="#b"/>
</animateMotion>

</circle>
<path id="c" fill="none" stroke-width="1" stroke="#d3d3d3" d="M256.484 52.809c-1.075 12.654-.682 39.352-1.874 64.177-.082 1.715-5.168 10.318-14.872 10.565-21.955.56-62.5-.87-85.3-1.012-25.366-.158-17.985 11.464-18.232 16.415-.656 13.15 3.24 31.016-8.576 30.852-49.168-.684-39.432-1.68-81.108-1.584 5.52-22.781-14.251-77.713 30.421-92.01 21.414-6.853 60.177-3.896 90.627-3.738 16.224.084 30.714.071 46.152-1.309 19.38-1.733-5.067-24.253 42.762-22.356"/>

<circle fill="red" r="5">
<animateMotion calcMode="linear" keyTimes="0;0.3;1" keyPoints="0;0.0;1" repeatCount="indefinite" dur="18s"><mpath xlink:href="#c"/></animateMotion></circle></svg>
