<svg width="340" height="200" viewBox="0 0 340 200" xmlns="http://www.w3.org/2000/svg"
    xmlns:xlink="http://www.w3.org/1999/xlink">
    
    
  <path d="m 52.552843,110.55812 c 0.893222,-12.641154 -0.04682,-39.267842 0.73193,-64.05209 0.0538,-1.712078 5.284512,-10.380647 15.581924,-10.793116 23.297383,-0.933192 66.370123,-0.199393 90.579933,-0.447552 26.93243,-0.276067 18.86871,-11.743364 19.03385,-16.686462 0.43863,-13.1295395 -4.04792,-30.884656 8.50012,-30.922572 52.21247,-0.157771 41.89539,1.002772 86.13952,0.194252 -5.41491,22.819557 16.65296,77.279659 -30.49392,92.304136 -22.59979,7.20196 -63.81039,4.91455 -96.14096,5.277453 -17.22554,0.193353 -32.60907,0.453543 -48.971768,2.094033 -20.541798,2.059474 5.854048,24.107048 -44.960629,23.031918" 
      stroke="lightgrey" stroke-width="0" fill="none" id="motionPath"/>


  <circle r="5" fill="red">
    <animateMotion dur="20s" repeatCount="indefinite"
        keyPoints="0;0.0;1" keyTimes="0;0.3;1" calcMode="linear">
      <mpath xlink:href="#motionPath"/>
    </animateMotion>
  </circle>
  
  
  
  <path d="m 211.80363,67.96442 c 12.64441,0.685018 39.26726,-0.218233 64.0542,0.316149 1.71227,0.03692 10.40061,4.346826 10.85217,12.907542 1.02164,19.368199 0.45139,55.187789 0.79147,75.317819 0.37833,22.39384 11.81489,15.63626 16.75856,15.75101 13.13107,0.30478 30.86897,-3.50699 30.95453,6.9269 0.35601,43.41547 -0.84369,34.84182 0.13281,71.62841 -22.83988,-4.39845 -77.21562,14.2003 -92.41895,-24.9351 -7.2877,-18.7595 -5.15679,-53.03777 -5.64244,-79.91993 -0.25876,-14.32265 -0.57736,-27.11332 -2.27996,-40.71189 -2.13745,-17.071697 -24.08457,4.97789 -23.20239,-37.28091"  
      stroke="lightgrey" stroke-width="0" fill="none" id="motionPath1"/>


  <circle r="5" fill="red">
    <animateMotion dur="15s" repeatCount="indefinite"
        keyPoints="0;0.0;1" keyTimes="0;0.3;1" calcMode="linear">
      <mpath xlink:href="#motionPath1"/>
    </animateMotion>
  </circle>
  
  
  
    <path d="m -9.0344007,248.25906 c 0.9191088,-12.66605 0.197938,-39.35798 1.0840779,-64.19544 0.061271,-1.71576 5.0406865,-10.38045 14.7408731,-10.74716 21.9461787,-0.82966 62.5056247,0.10118 85.3068707,-0.0378 25.365449,-0.15456 17.842079,-11.68468 18.028059,-16.63835 0.49401,-13.15761 -3.6218,-30.97374 8.19562,-30.95482 49.17233,0.0787 39.44901,1.19508 81.12112,0.58539 -5.24015,22.84725 15.20672,77.53214 -29.28669,92.37718 -21.32785,7.11595 -60.12404,4.63639 -90.57377,4.85348 -16.22342,0.11568 -30.712547,0.30669 -46.1323,1.87672 -19.358036,1.97103 5.364497,24.1888 -42.4838607,22.88073"   
      stroke="lightgrey" stroke-width="0" fill="none" id="motionPath2"/>


  <circle r="5" fill="red">
    <animateMotion dur="18s" repeatCount="indefinite"
        keyPoints="0;0.0;1" keyTimes="0;0.3;1" calcMode="linear">
      <mpath xlink:href="#motionPath2"/>
    </animateMotion>
  </circle>
  
  
</svg>
