<svg xmlns="http://www.w3.org/2000/svg" xmlns:xlink="http://www.w3.org/1999/xlink" height="220" width="340">


  <path id="a" fill="none" stroke="none" 
    d="M29.64 141.583c.707-10.975-.038-34.092.58-55.61.042-1.486 4.19-9.012 12.354-9.37 18.472-.81 52.623-.173 71.818-.389 21.354-.24 14.96-10.195 15.091-14.487.348-11.399-3.21-26.814 6.74-26.847 41.397-.137 33.217.87 68.297.169-4.293 19.812 13.204 67.094-24.178 80.138-17.918 6.253-50.593 4.267-76.227 4.582-13.657.168-25.855.394-38.828 1.818-16.287 1.788 4.641 20.93-35.648 19.996 z" />

  <path id="a" d="M31.954 15.923c-.152.101-.836.4-1.095.527-.355.185-.74.496-1.083.642-.012.083 0 .058-.114.147-.164.12-.057.07-.215.089-.076.108.025-.007-.076.101l-.266.223c-.164.178-.158.203-.373.305l-.456.445c-.089.21-.12.216-.298.381-.145.14-.139.235-.322.324-.032.147-.159.35-.298.42-.088.242-.468.788-.62 1.074l-.57 1.125c0 .197-.215.757-.291 1.005-.095.445-.19.788-.26 1.265-.038.26-.07 1.176-.145 1.297l.038.68.088 1.112.437 2.123.355 1.12c.05.075.854 2.046.854 2.078a.164.164 0 0 1 .032.038l.468.896.02.077c.189.133.626.978.72 1.22.121.064.241.286.26.413l.228.286c.057.102.127.185.171.299l1.469 2.06c.107.076 0-.026.133.108.063.063.025.025.076.089.063.095.076.133.133.241.107.038.075.051.164.16.076.082.089.088.152.17.133.16.228.242.253.363.083.057.032.025.102.083l.455.572c.133.019.006-.057.133.076.038.038.064.083.095.12.089.122.12.147.228.274l.55.642a.048.048 0 0 0 .026.013l.386.362.627.642c.158.09.373.274.437.477.183.095.297.222.462.362.183.153.297.185.494.312h.417c.203-.134.266-.108.469-.286.164-.146.26-.223.437-.388.063-.12.1-.14.215-.248.044-.044.095-.102.14-.133.145-.115.012-.032.12-.064.113-.229.442-.534.645-.674a.992.992 0 0 1 .203-.229.787.787 0 0 1 .208-.146l.545-.661c.12-.108.145-.14.228-.254.101-.127.095-.185.228-.197.095-.16.164-.242.272-.375l.247-.255c0-.019.019-.019.031-.025.032-.12.45-.648.576-.693.051-.102.095-.19.159-.273.095-.115.101-.102.183-.16.032-.126-.019-.005.083-.164l1.367-1.908c.107-.177.215-.387.38-.495.019-.147.038-.153.126-.293.05-.082.076-.152.171-.203.158-.382.418-.763.627-1.144.196-.35.399-.763.576-1.075l.481-1.068.17-.356c.007-.018.02-.025.033-.031-.007-.21.132-.56.24-.719l.323-1.042.228-.922c.114-.782.266-1.462.297-2.314l.038-.864c-.082-.146-.126-.986-.164-1.246a8.347 8.347 0 0 0-.24-1.094l-.292-1.036-.26-.52c-.088-.185-.19-.338-.215-.535-.139-.12-.683-1.036-.772-1.214-.076-.032-.095-.083-.184-.197a1.694 1.694 0 0 1-.152-.204c-.126-.171-.107-.165-.284-.324a.842.842 0 0 1-.24-.33l-.463-.452-.709-.616c-.152-.026-.05.025-.215-.096-.114-.082-.102-.057-.114-.146-.355-.159-.722-.451-1.083-.635-.348-.178-.797-.363-1.107-.54l-1.026-.344c-.354-.057-.633-.153-1.013-.21l-1-.159H35.1c-.222.09-1.291.172-1.678.267-.512.134-.987.325-1.468.452zm2.169 4.855c-.171.096-.361.147-.539.248-.196.108-.322.204-.531.299-.013.019 0 .006-.07.07-.013.006-.044.038-.057.044-.133.109-.019.026-.133.09-.12.101-.266.254-.38.368-.114.108-.26.254-.367.369-.057.108-.019.05-.114.171-.05.064-.07.077-.095.096-.095.21-.19.33-.29.54-.096.19-.165.35-.241.534-.4 1.252-.387 1.952-.051 3.223l.456 1.017.373.54c.177.096.469.388.557.572.184.083.298.172.424.293.31.146.513.324.887.464.36.146.683.248 1.088.299l.171.031 1.222-.018c.405-.09.684-.147 1.05-.293.387-.152.608-.337.931-.483.114-.114.24-.216.418-.286.12-.242.405-.458.595-.655.082-.165.253-.438.405-.546l.386-.916.228-1.068-.019-1.106-.253-1.055a4.671 4.671 0 0 0-.247-.547c-.088-.19-.228-.35-.26-.515-.062-.05-.037-.025-.1-.089-.007-.012-.045-.05-.051-.063-.089-.115-.032-.038-.082-.14-.114-.114-.26-.254-.374-.369-.114-.114-.253-.273-.386-.368-.14-.083-.266-.16-.354-.305-.178-.013-.076.006-.26-.102-.05-.026-.146-.083-.24-.134-.171-.089-.298-.127-.475-.21-.235-.057-.43-.133-.684-.184-.203-.038-.544-.032-.684-.12l-.76.05z" fill="none" stroke="#3d85c6" stroke-width="1.54058382">
    <animateMotion calcMode="linear"  id="a" dur="20s" repeatCount="indefinite" keyTimes="0;0.1;1" keyPoints="0;0.0;1" 
      path="M29.64 141.583c.707-10.975-.038-34.092.58-55.61.042-1.486 4.19-9.012 12.354-9.37 18.472-.81 52.623-.173 71.818-.389 21.354-.24 14.96-10.195 15.091-14.487.348-11.399-3.21-26.814 6.74-26.847 41.397-.137 33.217.87 68.297.169-4.293 19.812 13.204 67.094-24.178 80.138-17.918 6.253-50.593 4.267-76.227 4.582-13.657.168-25.855.394-38.828 1.818-16.287 1.788 4.641 20.93-35.648 19.996 z" />
  </path>
  
  
  
  
  
  <path id="b" fill="none" stroke="none"
    d="M216.967 22.482c11.487.563 35.673-.18 58.191.26 1.556.03 9.449 3.572 9.86 10.608.927 15.917.41 45.355.718 61.9.344 18.403 10.733 12.85 15.225 12.944 11.929.25 28.043-2.882 28.12 5.693.324 35.68-.766 28.634.121 58.867-20.749-3.615-70.147 11.67-83.959-20.493-6.62-15.417-4.685-43.588-5.126-65.681-.235-11.771-.524-22.283-2.071-33.459-1.942-14.03-21.88 4.091-21.079-30.639 z"/>

  <path id="b" d="M31.954 15.923c-.152.101-.836.4-1.095.527-.355.185-.74.496-1.083.642-.012.083 0 .058-.114.147-.164.12-.057.07-.215.089-.076.108.025-.007-.076.101l-.266.223c-.164.178-.158.203-.373.305l-.456.445c-.089.21-.12.216-.298.381-.145.14-.139.235-.322.324-.032.147-.159.35-.298.42-.088.242-.468.788-.62 1.074l-.57 1.125c0 .197-.215.757-.291 1.005-.095.445-.19.788-.26 1.265-.038.26-.07 1.176-.145 1.297l.038.68.088 1.112.437 2.123.355 1.12c.05.075.854 2.046.854 2.078a.164.164 0 0 1 .032.038l.468.896.02.077c.189.133.626.978.72 1.22.121.064.241.286.26.413l.228.286c.057.102.127.185.171.299l1.469 2.06c.107.076 0-.026.133.108.063.063.025.025.076.089.063.095.076.133.133.241.107.038.075.051.164.16.076.082.089.088.152.17.133.16.228.242.253.363.083.057.032.025.102.083l.455.572c.133.019.006-.057.133.076.038.038.064.083.095.12.089.122.12.147.228.274l.55.642a.048.048 0 0 0 .026.013l.386.362.627.642c.158.09.373.274.437.477.183.095.297.222.462.362.183.153.297.185.494.312h.417c.203-.134.266-.108.469-.286.164-.146.26-.223.437-.388.063-.12.1-.14.215-.248.044-.044.095-.102.14-.133.145-.115.012-.032.12-.064.113-.229.442-.534.645-.674a.992.992 0 0 1 .203-.229.787.787 0 0 1 .208-.146l.545-.661c.12-.108.145-.14.228-.254.101-.127.095-.185.228-.197.095-.16.164-.242.272-.375l.247-.255c0-.019.019-.019.031-.025.032-.12.45-.648.576-.693.051-.102.095-.19.159-.273.095-.115.101-.102.183-.16.032-.126-.019-.005.083-.164l1.367-1.908c.107-.177.215-.387.38-.495.019-.147.038-.153.126-.293.05-.082.076-.152.171-.203.158-.382.418-.763.627-1.144.196-.35.399-.763.576-1.075l.481-1.068.17-.356c.007-.018.02-.025.033-.031-.007-.21.132-.56.24-.719l.323-1.042.228-.922c.114-.782.266-1.462.297-2.314l.038-.864c-.082-.146-.126-.986-.164-1.246a8.347 8.347 0 0 0-.24-1.094l-.292-1.036-.26-.52c-.088-.185-.19-.338-.215-.535-.139-.12-.683-1.036-.772-1.214-.076-.032-.095-.083-.184-.197a1.694 1.694 0 0 1-.152-.204c-.126-.171-.107-.165-.284-.324a.842.842 0 0 1-.24-.33l-.463-.452-.709-.616c-.152-.026-.05.025-.215-.096-.114-.082-.102-.057-.114-.146-.355-.159-.722-.451-1.083-.635-.348-.178-.797-.363-1.107-.54l-1.026-.344c-.354-.057-.633-.153-1.013-.21l-1-.159H35.1c-.222.09-1.291.172-1.678.267-.512.134-.987.325-1.468.452zm2.169 4.855c-.171.096-.361.147-.539.248-.196.108-.322.204-.531.299-.013.019 0 .006-.07.07-.013.006-.044.038-.057.044-.133.109-.019.026-.133.09-.12.101-.266.254-.38.368-.114.108-.26.254-.367.369-.057.108-.019.05-.114.171-.05.064-.07.077-.095.096-.095.21-.19.33-.29.54-.096.19-.165.35-.241.534-.4 1.252-.387 1.952-.051 3.223l.456 1.017.373.54c.177.096.469.388.557.572.184.083.298.172.424.293.31.146.513.324.887.464.36.146.683.248 1.088.299l.171.031 1.222-.018c.405-.09.684-.147 1.05-.293.387-.152.608-.337.931-.483.114-.114.24-.216.418-.286.12-.242.405-.458.595-.655.082-.165.253-.438.405-.546l.386-.916.228-1.068-.019-1.106-.253-1.055a4.671 4.671 0 0 0-.247-.547c-.088-.19-.228-.35-.26-.515-.062-.05-.037-.025-.1-.089-.007-.012-.045-.05-.051-.063-.089-.115-.032-.038-.082-.14-.114-.114-.26-.254-.374-.369-.114-.114-.253-.273-.386-.368-.14-.083-.266-.16-.354-.305-.178-.013-.076.006-.26-.102-.05-.026-.146-.083-.24-.134-.171-.089-.298-.127-.475-.21-.235-.057-.43-.133-.684-.184-.203-.038-.544-.032-.684-.12l-.76.05z" fill="none" stroke="#3d85c6" stroke-width="1.54058382">
  
    <animateMotion calcMode="linear"  id="b" dur="19s" repeatCount="indefinite" keyTimes="0;0.4;1" keyPoints="0;0.0;1" 
      path="M216.967 22.482c11.487.563 35.673-.18 58.191.26 1.556.03 9.449 3.572 9.86 10.608.927 15.917.41 45.355.718 61.9.344 18.403 10.733 12.85 15.225 12.944 11.929.25 28.043-2.882 28.12 5.693.324 35.68-.766 28.634.121 58.867-20.749-3.615-70.147 11.67-83.959-20.493-6.62-15.417-4.685-43.588-5.126-65.681-.235-11.771-.524-22.283-2.071-33.459-1.942-14.03-21.88 4.091-21.079-30.639 z" />
  </path>
  
  
  

  
  
  
  <path id="c" fill="none" stroke="none"
    d="M20,50 C20,-50 180,150 180,50 C180-50 20,150 20,50 z" />

  <path id="c" d="M31.954 15.923c-.152.101-.836.4-1.095.527-.355.185-.74.496-1.083.642-.012.083 0 .058-.114.147-.164.12-.057.07-.215.089-.076.108.025-.007-.076.101l-.266.223c-.164.178-.158.203-.373.305l-.456.445c-.089.21-.12.216-.298.381-.145.14-.139.235-.322.324-.032.147-.159.35-.298.42-.088.242-.468.788-.62 1.074l-.57 1.125c0 .197-.215.757-.291 1.005-.095.445-.19.788-.26 1.265-.038.26-.07 1.176-.145 1.297l.038.68.088 1.112.437 2.123.355 1.12c.05.075.854 2.046.854 2.078a.164.164 0 0 1 .032.038l.468.896.02.077c.189.133.626.978.72 1.22.121.064.241.286.26.413l.228.286c.057.102.127.185.171.299l1.469 2.06c.107.076 0-.026.133.108.063.063.025.025.076.089.063.095.076.133.133.241.107.038.075.051.164.16.076.082.089.088.152.17.133.16.228.242.253.363.083.057.032.025.102.083l.455.572c.133.019.006-.057.133.076.038.038.064.083.095.12.089.122.12.147.228.274l.55.642a.048.048 0 0 0 .026.013l.386.362.627.642c.158.09.373.274.437.477.183.095.297.222.462.362.183.153.297.185.494.312h.417c.203-.134.266-.108.469-.286.164-.146.26-.223.437-.388.063-.12.1-.14.215-.248.044-.044.095-.102.14-.133.145-.115.012-.032.12-.064.113-.229.442-.534.645-.674a.992.992 0 0 1 .203-.229.787.787 0 0 1 .208-.146l.545-.661c.12-.108.145-.14.228-.254.101-.127.095-.185.228-.197.095-.16.164-.242.272-.375l.247-.255c0-.019.019-.019.031-.025.032-.12.45-.648.576-.693.051-.102.095-.19.159-.273.095-.115.101-.102.183-.16.032-.126-.019-.005.083-.164l1.367-1.908c.107-.177.215-.387.38-.495.019-.147.038-.153.126-.293.05-.082.076-.152.171-.203.158-.382.418-.763.627-1.144.196-.35.399-.763.576-1.075l.481-1.068.17-.356c.007-.018.02-.025.033-.031-.007-.21.132-.56.24-.719l.323-1.042.228-.922c.114-.782.266-1.462.297-2.314l.038-.864c-.082-.146-.126-.986-.164-1.246a8.347 8.347 0 0 0-.24-1.094l-.292-1.036-.26-.52c-.088-.185-.19-.338-.215-.535-.139-.12-.683-1.036-.772-1.214-.076-.032-.095-.083-.184-.197a1.694 1.694 0 0 1-.152-.204c-.126-.171-.107-.165-.284-.324a.842.842 0 0 1-.24-.33l-.463-.452-.709-.616c-.152-.026-.05.025-.215-.096-.114-.082-.102-.057-.114-.146-.355-.159-.722-.451-1.083-.635-.348-.178-.797-.363-1.107-.54l-1.026-.344c-.354-.057-.633-.153-1.013-.21l-1-.159H35.1c-.222.09-1.291.172-1.678.267-.512.134-.987.325-1.468.452zm2.169 4.855c-.171.096-.361.147-.539.248-.196.108-.322.204-.531.299-.013.019 0 .006-.07.07-.013.006-.044.038-.057.044-.133.109-.019.026-.133.09-.12.101-.266.254-.38.368-.114.108-.26.254-.367.369-.057.108-.019.05-.114.171-.05.064-.07.077-.095.096-.095.21-.19.33-.29.54-.096.19-.165.35-.241.534-.4 1.252-.387 1.952-.051 3.223l.456 1.017.373.54c.177.096.469.388.557.572.184.083.298.172.424.293.31.146.513.324.887.464.36.146.683.248 1.088.299l.171.031 1.222-.018c.405-.09.684-.147 1.05-.293.387-.152.608-.337.931-.483.114-.114.24-.216.418-.286.12-.242.405-.458.595-.655.082-.165.253-.438.405-.546l.386-.916.228-1.068-.019-1.106-.253-1.055a4.671 4.671 0 0 0-.247-.547c-.088-.19-.228-.35-.26-.515-.062-.05-.037-.025-.1-.089-.007-.012-.045-.05-.051-.063-.089-.115-.032-.038-.082-.14-.114-.114-.26-.254-.374-.369-.114-.114-.253-.273-.386-.368-.14-.083-.266-.16-.354-.305-.178-.013-.076.006-.26-.102-.05-.026-.146-.083-.24-.134-.171-.089-.298-.127-.475-.21-.235-.057-.43-.133-.684-.184-.203-.038-.544-.032-.684-.12l-.76.05z" fill="none" stroke="#3d85c6" stroke-width="1.54058382">
  
    <animateMotion id="c" dur="15s" repeatCount="indefinite"
      path="M20,50 C20,-50 180,150 180,50 C180-50 20,150 20,50 z" />
  </path>
  
  
  
  
</svg>
