<svg xmlns="http://www.w3.org/2000/svg" width="30.0" height="45.0">
<style type="text/css"></style>






<path d="m 14.952283,9.4656868 c 2.927023,0 5.285156,2.3581322 5.285156,5.2851552 0,2.927024 -2.358133,5.283204 -5.285156,5.283204 -2.927024,0 -5.2832033,-2.35618 -5.2832033,-5.283204 0,-2.927023 2.3561793,-5.2851562 5.2832033,-5.2851552 z m 13.815486,5.3709692 c 0,3.894323 -1.601285,7.417146 -4.182554,9.947175 l -0.02242,0.02369 -9.726198,9.532761 -9.7338844,-9.541727 -0.00831,-0.0084 c -2.5876788,-2.529997 -4.18896263,-6.05282 -4.18896263,-9.953547 0,-7.6989715 6.23219653,-13.93116803 13.93116803,-13.93116803 7.692568,0 13.931169,6.23219653 13.931169,13.93116803 z"


      style="color:#000000;font-style:normal;font-variant:normal;font-weight:normal;font-stretch:normal;font-size:medium;line-height:normal;font-family:sans-serif;font-variant-ligatures:normal;font-variant-position:normal;font-variant-caps:normal;font-variant-numeric:normal;font-variant-alternates:normal;font-variant-east-asian:normal;font-feature-settings:normal;font-variation-settings:normal;text-indent:0;text-align:start;text-decoration:none;text-decoration-line:none;text-decoration-style:solid;text-decoration-color:#000000;letter-spacing:normal;word-spacing:normal;text-transform:none;writing-mode:lr-tb;direction:ltr;text-orientation:mixed;dominant-baseline:auto;baseline-shift:baseline;text-anchor:start;white-space:normal;shape-padding:0;shape-margin:0;inline-size:0;clip-rule:nonzero;display:inline;overflow:visible;visibility:visible;opacity:1;isolation:auto;mix-blend-mode:normal;color-interpolation:sRGB;color-interpolation-filters:linearRGB;solid-color:#000000;solid-opacity:1;vector-effect:none;fill:none;fill-opacity:1;fill-rule:nonzero;stroke:#3d85c6;stroke-width:1.811;stroke-linecap:round;stroke-linejoin:round;stroke-miterlimit:10;stroke-dasharray:none;stroke-dashoffset:0;stroke-opacity:1;paint-order:markers fill stroke;color-rendering:auto;image-rendering:auto;shape-rendering:auto;text-rendering:auto;enable-background:accumulate;stop-color:#000000;stop-opacity:1">

</path>


  
  
  
  
  
</svg>
