<?xml version="1.0" encoding="UTF-8" standalone="no"?>
<svg
   xmlns:dc="http://purl.org/dc/elements/1.1/"
   xmlns:cc="http://creativecommons.org/ns#"
   xmlns:rdf="http://www.w3.org/1999/02/22-rdf-syntax-ns#"
   xmlns:svg="http://www.w3.org/2000/svg"
   xmlns="http://www.w3.org/2000/svg"
   xmlns:sodipodi="http://sodipodi.sourceforge.net/DTD/sodipodi-0.dtd"
   xmlns:inkscape="http://www.inkscape.org/namespaces/inkscape"
   width="32.616001"
   height="51.639"
   version="1.1"
   id="svg1513"
   sodipodi:docname="emiia158.svg"
   inkscape:version="0.92.2 (5c3e80d, 2017-08-06)">
  <metadata
     id="metadata1519">
    <rdf:RDF>
      <cc:Work
         rdf:about="">
        <dc:format>image/svg+xml</dc:format>
        <dc:type
           rdf:resource="http://purl.org/dc/dcmitype/StillImage" />
        <dc:title></dc:title>
      </cc:Work>
    </rdf:RDF>
  </metadata>
  <defs
     id="defs1517">
    <pattern
       y="0"
       x="0"
       height="6"
       width="6"
       patternUnits="userSpaceOnUse"
       id="EMFhbasepattern" />
  </defs>
  <sodipodi:namedview
     pagecolor="#ffffff"
     bordercolor="#666666"
     borderopacity="1"
     objecttolerance="10"
     gridtolerance="10"
     guidetolerance="10"
     inkscape:pageopacity="0"
     inkscape:pageshadow="2"
     inkscape:window-width="1366"
     inkscape:window-height="745"
     id="namedview1515"
     showgrid="false"
     inkscape:zoom="1.1425473"
     inkscape:cx="62.755522"
     inkscape:cy="20.58611"
     inkscape:window-x="-8"
     inkscape:window-y="-8"
     inkscape:window-maximized="1"
     inkscape:current-layer="svg1513" />
  <path
     id="path2174"
     d="m 14.481828,9.204841 c -0.208285,0.116199 -0.439713,0.178174 -0.655714,0.30212 -0.23914,0.131695 -0.393426,0.247896 -0.647997,0.364096 -0.01544,0.02324 0,0.0077 -0.08486,0.08521 -0.01544,0.0077 -0.054,0.04648 -0.06943,0.05423 -0.161999,0.131694 -0.02315,0.03099 -0.161999,0.108451 -0.146571,0.123947 -0.323999,0.309868 -0.462856,0.449308 -0.138857,0.131694 -0.316284,0.309869 -0.447426,0.44931 -0.06943,0.131694 -0.02315,0.06198 -0.138857,0.20916 -0.06172,0.07746 -0.08486,0.09296 -0.115717,0.116198 -0.115717,0.255641 -0.231428,0.402827 -0.354855,0.65847 -0.115716,0.232402 -0.20057,0.426068 -0.293141,0.650723 -0.485999,1.526102 -0.470571,2.378241 -0.06172,3.927583 l 0.555427,1.239472 0.455142,0.658472 c 0.215998,0.116198 0.570854,0.472548 0.678854,0.697202 0.223713,0.100704 0.36257,0.209161 0.516855,0.35635 0.377999,0.178175 0.624856,0.395082 1.079998,0.56551 0.439712,0.178173 0.833138,0.30212 1.326851,0.364095 l 0.208286,0.03874 1.488852,-0.02324 c 0.493712,-0.108451 0.833141,-0.178177 1.280568,-0.356351 0.470568,-0.18592 0.740569,-0.410574 1.133997,-0.588749 0.138856,-0.139441 0.29314,-0.263388 0.509141,-0.348603 0.146569,-0.294375 0.493712,-0.557763 0.72514,-0.797909 0.100281,-0.201417 0.30857,-0.534524 0.493713,-0.666218 l 0.47057,-1.115526 0.277712,-1.301449 -0.02315,-1.347926 -0.308571,-1.285954 c -0.09257,-0.247893 -0.177427,-0.42607 -0.300857,-0.666217 -0.107993,-0.232401 -0.277712,-0.426069 -0.316283,-0.627483 -0.07715,-0.06198 -0.04629,-0.03099 -0.123428,-0.108451 -0.0077,-0.01549 -0.054,-0.06198 -0.06171,-0.07746 -0.108005,-0.139442 -0.03857,-0.04648 -0.100281,-0.170429 -0.138857,-0.13944 -0.316284,-0.309868 -0.455141,-0.44931 -0.138856,-0.139439 -0.308572,-0.333108 -0.470571,-0.449307 -0.169713,-0.100704 -0.324,-0.193668 -0.432,-0.371843 -0.215998,-0.0155 -0.09257,0.0077 -0.316284,-0.123947 C 19.218376,9.592179 19.102659,9.522466 18.986945,9.460488 18.778659,9.352037 18.624375,9.305554 18.408376,9.204847 18.122948,9.135117 17.883805,9.042165 17.575235,8.980191 17.328378,8.933711 16.91181,8.941451 16.742094,8.833005 l -0.92571,0.06197 z"
     style="fill:none;fill-opacity:1;fill-rule:evenodd;stroke:#000000;stroke-width:1.87814105;stroke-miterlimit:4;stroke-dasharray:none;stroke-opacity:1"
     inkscape:connector-curvature="0"
     sodipodi:nodetypes="ccccccccccccccccccccccccccccccccccccccccccccc" />
  <path
     id="path2172"
     d="m 11.838896,3.2874743 c -0.185142,0.1239468 -1.018283,0.488042 -1.334568,0.6429781 -0.431998,0.2246538 -0.9025687,0.6042414 -1.3191387,0.7824182 -0.01544,0.1007036 0,0.069714 -0.138857,0.1781734 -0.200569,0.1471864 -0.06942,0.085209 -0.262285,0.1084509 -0.09257,0.1316941 0.03086,-0.00775 -0.09257,0.1239468 l -0.323998,0.2711354 c -0.200569,0.216906 -0.192855,0.247893 -0.455141,0.37184 l -0.555426,0.54227 c -0.108005,0.255642 -0.146571,0.26339 -0.362569,0.464803 -0.17743,0.170427 -0.169716,0.286629 -0.393429,0.395081 -0.03857,0.178175 -0.192857,0.426069 -0.362571,0.511283 -0.107993,0.294375 -0.570854,0.9605909 -0.755996,1.3091939 l -0.694284,1.371168 c 0,0.240146 -0.262285,0.921858 -0.354856,1.22398 -0.115717,0.542269 -0.231428,0.960592 -0.316285,1.541595 -0.04629,0.317615 -0.08486,1.433141 -0.177428,1.580327 l 0.04628,0.8289 0.107993,1.355674 0.532286,2.587401 0.431998,1.363421 c 0.06172,0.09296 1.041424,2.494439 1.041424,2.533173 0.01544,0.0155 0.03086,0.03099 0.03857,0.04648 l 0.570856,1.092286 0.02315,0.09296 c 0.231428,0.162681 0.763712,1.192993 0.879427,1.487368 0.146571,0.07746 0.29314,0.348603 0.316284,0.503537 l 0.277714,0.3486 c 0.06942,0.123949 0.154283,0.224657 0.208283,0.364096 l 1.7897097,2.509933 c 0.131143,0.09297 0,-0.03099 0.161999,0.131694 0.07714,0.07746 0.03086,0.03099 0.09257,0.108451 0.07715,0.116198 0.09257,0.162682 0.162001,0.294376 0.131142,0.04648 0.09257,0.06198 0.20057,0.193668 0.09257,0.100704 0.108005,0.108451 0.185142,0.209162 0.162,0.193666 0.277714,0.294374 0.308569,0.441563 0.100281,0.06973 0.03857,0.03099 0.123431,0.100703 l 0.555425,0.697202 c 0.162,0.02324 0.0077,-0.06971 0.162,0.09296 0.04628,0.04648 0.07714,0.100703 0.115717,0.147186 0.108005,0.147188 0.146571,0.178175 0.277713,0.333108 l 0.671142,0.782417 c 0.0077,0.0077 0.02315,0.0155 0.03086,0.0155 l 0.470568,0.441563 0.763714,0.782417 c 0.192855,0.108451 0.455142,0.333108 0.532283,0.581004 0.223713,0.116198 0.36257,0.271133 0.563142,0.441563 0.223713,0.18592 0.36257,0.224652 0.601711,0.379587 h 0.509142 c 0.246857,-0.162682 0.323998,-0.131694 0.570856,-0.3486 0.200569,-0.178176 0.316285,-0.271136 0.532283,-0.47255 0.07714,-0.147189 0.123428,-0.170428 0.262285,-0.302122 0.054,-0.05423 0.115717,-0.123947 0.169713,-0.162683 0.177428,-0.139439 0.01544,-0.03874 0.146572,-0.07746 0.138857,-0.278882 0.539998,-0.650724 0.786855,-0.82115 0.07715,-0.116199 0.138857,-0.185921 0.246855,-0.278883 0.12343,-0.108451 0.162001,-0.131692 0.254572,-0.178175 l 0.663425,-0.805657 c 0.146572,-0.131694 0.177428,-0.170427 0.277714,-0.309868 0.123428,-0.154934 0.115717,-0.224654 0.277714,-0.240149 0.115717,-0.193665 0.200571,-0.294375 0.331714,-0.457054 l 0.300855,-0.30987 c 0,-0.02324 0.02315,-0.02324 0.03857,-0.03099 0.03857,-0.147189 0.547711,-0.790165 0.701998,-0.844392 0.06171,-0.123947 0.115717,-0.232401 0.192855,-0.333108 0.115717,-0.139442 0.12343,-0.123949 0.223716,-0.193669 0.03857,-0.154934 -0.02315,-0.0077 0.100281,-0.201413 l 1.666282,-2.324013 c 0.131141,-0.216909 0.262283,-0.47255 0.462854,-0.604244 0.02315,-0.178173 0.04628,-0.185921 0.154285,-0.35635 0.06172,-0.100704 0.09257,-0.185919 0.208285,-0.247894 0.192857,-0.464802 0.509142,-0.929606 0.763713,-1.394408 0.23914,-0.426068 0.485998,-0.929605 0.701996,-1.309194 l 0.586284,-1.301447 0.208286,-0.433815 c 0.0077,-0.02324 0.02315,-0.03099 0.03857,-0.03874 -0.0077,-0.25564 0.161999,-0.68171 0.293141,-0.875376 l 0.393428,-1.270462 0.277714,-1.123273 c 0.138857,-0.952844 0.323999,-1.781744 0.36257,-2.819802 l 0.04629,-1.053553 C 28.833418,14.295533 28.779413,13.272968 28.733127,12.955352 28.655987,12.44407 28.571128,12.095467 28.439986,11.622918 L 28.085135,10.3602 27.76885,9.724969 C 27.660857,9.500315 27.537422,9.314395 27.506565,9.074246 27.336853,8.927057 26.673424,7.8115321 26.565427,7.5946231 c -0.09257,-0.03874 -0.115717,-0.100703 -0.223714,-0.240146 -0.06172,-0.06973 -0.131142,-0.162681 -0.185142,-0.247896 -0.154286,-0.209161 -0.131143,-0.201414 -0.347143,-0.395082 -0.154285,-0.139439 -0.20057,-0.209161 -0.293142,-0.402828 L 24.953146,5.7586551 24.089148,5.0072235 C 23.904006,4.9762341 24.027439,5.0382128 23.826865,4.8910252 23.688008,4.7903217 23.703437,4.8212992 23.688008,4.7128519 23.256009,4.5191827 22.808581,4.1628348 22.368868,3.9381786 21.944583,3.7212732 21.396873,3.4966171 21.018874,3.2797082 L 19.769162,2.8613864 C 19.337165,2.7916604 18.997737,2.6754668 18.534882,2.6057455 L 17.316027,2.4120787 h -1.643136 c -0.270001,0.1084509 -1.57371,0.2091615 -2.044279,0.3253609 -0.624856,0.1626811 -1.203426,0.3950822 -1.789709,0.5500159 z"
     style="fill:none;fill-opacity:1;fill-rule:evenodd;stroke:#000000;stroke-width:1.87814105;stroke-miterlimit:4;stroke-dasharray:none;stroke-opacity:1"
     inkscape:connector-curvature="0"
     sodipodi:nodetypes="cccccccccccccccccccccccccccccccccccccccccccccccccccccccccccccccccccccccccccccccccccccccccccccccccccccccc" />
</svg>
