<?xml version="1.0" encoding="UTF-8" standalone="no"?>
<svg
   xmlns:dc="http://purl.org/dc/elements/1.1/"
   xmlns:cc="http://creativecommons.org/ns#"
   xmlns:rdf="http://www.w3.org/1999/02/22-rdf-syntax-ns#"
   xmlns:svg="http://www.w3.org/2000/svg"
   xmlns="http://www.w3.org/2000/svg"
   xmlns:sodipodi="http://sodipodi.sourceforge.net/DTD/sodipodi-0.dtd"
   xmlns:inkscape="http://www.inkscape.org/namespaces/inkscape"
   sodipodi:docname="fasie.svg"
   inkscape:version="1.0 (4035a4fb49, 2020-05-01)"
   id="svg8"
   version="1.1"
   viewBox="0 0 176.68564 82.468176"
   height="311.69073"
   width="667.78827">
  <defs
     id="defs2">
    <inkscape:perspective
       id="perspective893"
       inkscape:persp3d-origin="105 : -115.53183 : 1"
       inkscape:vp_z="209.99999 : -66.031835 : 1"
       inkscape:vp_y="0 : 1000 : 0"
       inkscape:vp_x="0 : -66.031835 : 1"
       sodipodi:type="inkscape:persp3d" />
  </defs>
  <sodipodi:namedview
     inkscape:window-maximized="0"
     inkscape:window-y="0"
     inkscape:window-x="0"
     inkscape:window-height="1024"
     inkscape:window-width="1898"
     fit-margin-bottom="0"
     fit-margin-right="0"
     fit-margin-left="0"
     fit-margin-top="0"
     units="px"
     showgrid="false"
     inkscape:document-rotation="0"
     inkscape:current-layer="layer1"
     inkscape:document-units="mm"
     inkscape:cy="-88.395466"
     inkscape:cx="874.80017"
     inkscape:zoom="0.7"
     inkscape:pageshadow="2"
     inkscape:pageopacity="0.0"
     borderopacity="1.0"
     bordercolor="#666666"
     pagecolor="#ffffff"
     id="base" />
  <metadata
     id="metadata5">
    <rdf:RDF>
      <cc:Work
         rdf:about="">
        <dc:format>image/svg+xml</dc:format>
        <dc:type
           rdf:resource="http://purl.org/dc/dcmitype/StillImage" />
        <dc:title />
      </cc:Work>
    </rdf:RDF>
  </metadata>
  <g
     transform="translate(254.2707,-134.11173)"
     id="layer1"
     inkscape:groupmode="layer"
     inkscape:label="Слой 1">
    <path
       d="m -210.33924,159.62448 3.60581,-0.35057 q 0.32552,1.81543 1.31462,2.6668 1.00161,0.85137 2.69183,0.85137 1.79039,0 2.69184,-0.75121 0.91397,-0.76374 0.91397,-1.77786 0,-0.65106 -0.38813,-1.10178 -0.3756,-0.46325 -1.32713,-0.80129 -0.65105,-0.22537 -2.96728,-0.80129 -2.9798,-0.73869 -4.18174,-1.81543 -1.69022,-1.51493 -1.69022,-3.69344 0,-1.40226 0.78877,-2.61672 0.80129,-1.22698 2.29119,-1.86551 1.50242,-0.63852 3.61833,-0.63852 3.45557,0 5.19587,1.51493 1.75282,1.51495 1.84046,4.04402 l -3.70597,0.16276 q -0.23788,-1.41477 -1.02665,-2.02826 -0.77625,-0.62601 -2.34127,-0.62601 -1.6151,0 -2.52908,0.66357 -0.58844,0.42568 -0.58844,1.13933 0,0.65105 0.55088,1.1143 0.70113,0.58844 3.40549,1.22697 2.70436,0.63854 3.99393,1.32714 1.3021,0.67609 2.02827,1.86551 0.73869,1.17689 0.73869,2.9172 0,1.57753 -0.87641,2.95476 -0.87641,1.37721 -2.47899,2.0533 -1.60259,0.66357 -3.99394,0.66357 -3.4806,0 -5.34611,-1.60258 -1.8655,-1.6151 -2.22859,-4.69506 z"
       style="font-style:normal;font-variant:normal;font-weight:bold;font-stretch:normal;font-size:28.5913px;line-height:0.75;font-family:Arial;-inkscape-font-specification:'Arial Bold';letter-spacing:-5.38231px;word-spacing:0px;fill:#d2d2d2;fill-opacity:1;stroke:none;stroke-width:0.160258;stroke-opacity:1"
       id="path952" />
    <path
       d="m -197.24985,165.5966 v -18.35457 h 3.51816 v 9.74069 l 4.11914,-4.68254 h 4.33198 l -4.54482,4.85782 4.87034,8.4386 h -3.79361 l -3.34288,-5.97212 -1.64015,1.71526 v 4.25686 z"
       style="font-style:normal;font-variant:normal;font-weight:bold;font-stretch:normal;font-size:28.5913px;line-height:0.75;font-family:Arial;-inkscape-font-specification:'Arial Bold';letter-spacing:-5.38231px;word-spacing:0px;fill:#d2d2d2;fill-opacity:1;stroke:none;stroke-width:0.160258;stroke-opacity:1"
       id="path954" />
    <path
       inkscape:transform-center-y="7.4311073e-06"
       inkscape:transform-center-x="-0.00010622905"
       sodipodi:nodetypes="ccccc"
       d="m -149.36762,161.26454 -6.94479,4.86982 -0.0366,-19.76719 7.00537,4.94484 z"
       style="fill:#d2d2d2;fill-opacity:1;stroke:none;stroke-width:0.11693;stroke-linejoin:round;stroke-opacity:1"
       id="path909" />
    <path
       inkscape:transform-center-x="9.8521336e-05"
       id="path909-3"
       style="fill:#d2d2d2;fill-opacity:1;stroke:none;stroke-width:0.119166;stroke-linejoin:round;stroke-opacity:1"
       inkscape:transform-center-y="1.2027196e-05"
       d="m -133.09316,151.02715 7.07764,-4.96296 0.0373,20.14516 -7.13936,-5.03936 z"
       sodipodi:nodetypes="ccccc" />
    <path
       id="path1187"
       d="m -238.02403,175.02631 c -6.33103,-0.36476 -11.80534,-3.42427 -15.54207,-8.68623 -0.30277,-0.42635 -0.4973,-0.74666 -0.48937,-0.80575 0.0119,-0.0888 0.32646,-0.0996 3.34526,-0.1138 l 3.33209,-0.0156 0.0663,0.14516 c 0.18767,0.41111 1.34154,1.62525 2.22429,2.34047 5.36792,4.34923 13.38466,4.60491 19.78997,0.63117 1.19293,-0.74008 3.03531,-2.16929 3.25171,-2.52246 0.0922,-0.15045 0.53051,-0.53245 0.61097,-0.53245 0.17702,0 -0.20259,0.68265 -1.05454,1.8964 -2.10695,3.00171 -4.90183,5.20699 -8.21226,6.47985 -2.32245,0.89299 -4.9608,1.31933 -7.32233,1.18326 z"
       style="fill:#d2d2d2;fill-opacity:1;stroke:none;stroke-width:0.0510419;stroke-opacity:1" />
    <path
       style="fill:#d2d2d2;fill-opacity:1;stroke:none;stroke-width:0.0403992;stroke-opacity:1"
       d="m -235.61423,172.3883 c -5.40942,-0.26743 -10.08683,-2.5106 -13.2796,-6.36856 -0.2587,-0.31261 -0.42491,-0.54744 -0.41814,-0.59078 0.0101,-0.0651 0.27894,-0.073 2.85829,-0.0835 l 2.84705,-0.011 0.0566,0.10636 c 0.16036,0.30142 1.14626,1.19159 1.90051,1.71599 4.58651,3.18878 11.43626,3.37623 16.90914,0.46276 1.01927,-0.5426 2.59347,-1.59047 2.77836,-1.84941 0.0788,-0.11036 0.45329,-0.39038 0.52203,-0.39038 0.15125,0 -0.1731,0.5005 -0.90103,1.39039 -1.80024,2.20081 -4.18827,3.81767 -7.0168,4.75091 -1.98438,0.65472 -4.23866,0.9673 -6.25642,0.86754 z"
       id="path1187-5" />
    <g
       aria-label="FASIE"
       id="text880"
       style="font-size:11.8072px;line-height:1.25;font-family:sans-serif;fill:#d2d2d2;fill-opacity:1;stroke-width:0.177109">
      <path
         d="m -253.57973,157.04266 v -8.45183 h 5.70181 v 0.99739 h -4.58336 v 2.61741 h 3.96648 v 0.99739 h -3.96648 v 3.83964 z"
         style="font-style:normal;font-variant:normal;font-weight:normal;font-stretch:normal;font-family:Arial;-inkscape-font-specification:Arial;fill:#d2d2d2;fill-opacity:1;stroke-width:0.177109"
         id="path852" />
      <path
         d="m -247.99322,157.04266 3.24582,-8.45183 h 1.20494 l 3.45914,8.45183 h -1.27412 l -0.98585,-2.55976 h -3.53409 l -0.9282,2.55976 z m 2.43869,-3.47067 h 2.86532 l -0.88208,-2.34068 q -0.40356,-1.06657 -0.59958,-1.75263 -0.16143,0.81289 -0.45546,1.61426 z"
         style="font-style:normal;font-variant:normal;font-weight:normal;font-stretch:normal;font-family:Arial;-inkscape-font-specification:Arial;fill:#d2d2d2;fill-opacity:1;stroke-width:0.177109"
         id="path854" />
      <path
         d="m -239.55868,154.32724 1.05503,-0.0922 q 0.075,0.63418 0.34592,1.04351 0.27673,0.40357 0.85325,0.65724 0.57653,0.2479 1.29718,0.2479 0.63994,0 1.12999,-0.19025 0.49004,-0.19025 0.72642,-0.51887 0.24213,-0.33438 0.24213,-0.72642 0,-0.3978 -0.2306,-0.69183 -0.23061,-0.29979 -0.76102,-0.50157 -0.34014,-0.1326 -1.50472,-0.40934 -1.16458,-0.28249 -1.63156,-0.5304 -0.60535,-0.31708 -0.90514,-0.78407 -0.29403,-0.47275 -0.29403,-1.05504 0,-0.63994 0.36321,-1.1934 0.36321,-0.55923 1.0608,-0.84749 0.69759,-0.28826 1.55085,-0.28826 0.93973,0 1.65462,0.30556 0.72066,0.29979 1.10693,0.88784 0.38627,0.58806 0.41509,1.33177 l -1.07233,0.0807 q -0.0865,-0.80136 -0.58805,-1.21069 -0.49581,-0.40934 -1.47014,-0.40934 -1.01468,0 -1.48166,0.37474 -0.46122,0.36898 -0.46122,0.89362 0,0.45545 0.32862,0.74948 0.32285,0.29402 1.68344,0.60535 1.36636,0.30555 1.87371,0.53616 0.73795,0.34015 1.08962,0.86479 0.35168,0.51887 0.35168,1.19917 0,0.67453 -0.38627,1.27411 -0.38627,0.59382 -1.11269,0.92821 -0.72065,0.32861 -1.62579,0.32861 -1.14729,0 -1.92559,-0.33438 -0.77254,-0.33438 -1.21647,-1.00315 -0.43815,-0.67453 -0.46121,-1.52202 z"
         style="font-style:normal;font-variant:normal;font-weight:normal;font-stretch:normal;font-family:Arial;-inkscape-font-specification:Arial;fill:#d2d2d2;fill-opacity:1;stroke-width:0.177109"
         id="path856" />
      <path
         d="m -231.10109,157.04266 v -8.45183 h 1.11846 v 8.45183 z"
         style="font-style:normal;font-variant:normal;font-weight:normal;font-stretch:normal;font-family:Arial;-inkscape-font-specification:Arial;fill:#d2d2d2;fill-opacity:1;stroke-width:0.177109"
         id="path858" />
      <path
         d="m -227.99362,157.04266 v -8.45183 h 6.11115 v 0.99739 h -4.9927 v 2.58859 h 4.67561 v 0.99162 h -4.67561 v 2.87685 h 5.18871 v 0.99738 z"
         style="font-style:normal;font-variant:normal;font-weight:normal;font-stretch:normal;font-family:Arial;-inkscape-font-specification:Arial;fill:#d2d2d2;fill-opacity:1;stroke-width:0.177109"
         id="path860" />
    </g>
    <g
       transform="translate(-5.8208336)"
       aria-label="Skolkovo"
       id="text884"
       style="font-size:11.7004px;line-height:1.25;font-family:sans-serif;fill:#d2d2d2;fill-opacity:1;stroke-width:0.175506">
      <path
         d="m -204.15242,173.02162 1.04549,-0.0914 q 0.0743,0.62844 0.34279,1.03406 0.27423,0.39992 0.84554,0.6513 0.5713,0.24566 1.28544,0.24566 0.63415,0 1.11977,-0.18853 0.48561,-0.18853 0.71984,-0.51418 0.23995,-0.33136 0.23995,-0.71985 0,-0.3942 -0.22852,-0.68557 -0.22852,-0.29708 -0.75413,-0.49704 -0.33707,-0.1314 -1.49111,-0.40563 -1.15405,-0.27994 -1.61681,-0.5256 -0.59987,-0.31422 -0.89695,-0.77698 -0.29137,-0.46847 -0.29137,-1.0455 0,-0.63415 0.35993,-1.1826 0.35992,-0.55417 1.0512,-0.83983 0.69129,-0.28565 1.53682,-0.28565 0.93124,0 1.63966,0.30279 0.71414,0.29708 1.09691,0.87982 0.38278,0.58273 0.41135,1.31972 l -1.06264,0.08 q -0.0857,-0.79412 -0.58273,-1.19975 -0.49133,-0.40563 -1.45684,-0.40563 -1.0055,0 -1.46826,0.37136 -0.45705,0.36563 -0.45705,0.88552 0,0.45134 0.32565,0.74271 0.31993,0.29136 1.66822,0.59987 1.354,0.30279 1.85675,0.53132 0.73127,0.33707 1.07977,0.85696 0.3485,0.51418 0.3485,1.18832 0,0.66843 -0.38278,1.26259 -0.38277,0.58845 -1.10262,0.91981 -0.71414,0.32565 -1.61109,0.32565 -1.13691,0 -1.90817,-0.33136 -0.76556,-0.33136 -1.20546,-0.99408 -0.4342,-0.66843 -0.45705,-1.50825 z"
         style="font-style:normal;font-variant:normal;font-weight:normal;font-stretch:normal;font-family:Arial;-inkscape-font-specification:Arial;fill:#d2d2d2;fill-opacity:1;stroke-width:0.175506"
         id="path863" />
      <path
         d="m -196.08554,175.71248 v -8.37539 h 1.02835 v 4.77614 l 2.43378,-2.46805 h 1.33115 l -2.31952,2.25096 2.55375,3.81634 h -1.2683 l -2.0053,-3.10221 -0.72556,0.697 v 2.40521 z"
         style="font-style:normal;font-variant:normal;font-weight:normal;font-stretch:normal;font-family:Arial;-inkscape-font-specification:Arial;fill:#d2d2d2;fill-opacity:1;stroke-width:0.175506"
         id="path865" />
      <path
         d="m -190.62383,172.67883 q 0,-1.68536 0.93694,-2.49662 0.7827,-0.67414 1.90817,-0.67414 1.25117,0 2.04529,0.82268 0.79412,0.81697 0.79412,2.26238 0,1.17119 -0.35421,1.84533 -0.3485,0.66843 -1.02265,1.03978 -0.66843,0.37135 -1.46255,0.37135 -1.27401,0 -2.06242,-0.81697 -0.78269,-0.81697 -0.78269,-2.35379 z m 1.05692,0 q 0,1.16547 0.50846,1.7482 0.50847,0.57703 1.27973,0.57703 0.76556,0 1.27402,-0.58274 0.50847,-0.58273 0.50847,-1.77677 0,-1.12548 -0.51418,-1.7025 -0.50847,-0.58273 -1.26831,-0.58273 -0.77126,0 -1.27973,0.57702 -0.50846,0.57702 -0.50846,1.74249 z"
         style="font-style:normal;font-variant:normal;font-weight:normal;font-stretch:normal;font-family:Arial;-inkscape-font-specification:Arial;fill:#d2d2d2;fill-opacity:1;stroke-width:0.175506"
         id="path867" />
      <path
         d="m -183.75099,175.71248 v -8.37539 h 1.02835 v 8.37539 z"
         style="font-style:normal;font-variant:normal;font-weight:normal;font-stretch:normal;font-family:Arial;-inkscape-font-specification:Arial;fill:#d2d2d2;fill-opacity:1;stroke-width:0.175506"
         id="path869" />
      <path
         d="m -181.11726,175.71248 v -8.37539 h 1.02836 v 4.77614 l 2.43377,-2.46805 h 1.33115 l -2.31951,2.25096 2.55375,3.81634 h -1.26831 l -2.00529,-3.10221 -0.72556,0.697 v 2.40521 z"
         style="font-style:normal;font-variant:normal;font-weight:normal;font-stretch:normal;font-family:Arial;-inkscape-font-specification:Arial;fill:#d2d2d2;fill-opacity:1;stroke-width:0.175506"
         id="path871" />
      <path
         d="m -175.65555,172.67883 q 0,-1.68536 0.93695,-2.49662 0.78269,-0.67414 1.90817,-0.67414 1.25117,0 2.04528,0.82268 0.79412,0.81697 0.79412,2.26238 0,1.17119 -0.35421,1.84533 -0.3485,0.66843 -1.02264,1.03978 -0.66843,0.37135 -1.46255,0.37135 -1.27402,0 -2.06242,-0.81697 -0.7827,-0.81697 -0.7827,-2.35379 z m 1.05692,0 q 0,1.16547 0.50847,1.7482 0.50846,0.57703 1.27973,0.57703 0.76555,0 1.27402,-0.58274 0.50846,-0.58273 0.50846,-1.77677 0,-1.12548 -0.51418,-1.7025 -0.50846,-0.58273 -1.2683,-0.58273 -0.77127,0 -1.27973,0.57702 -0.50847,0.57702 -0.50847,1.74249 z"
         style="font-style:normal;font-variant:normal;font-weight:normal;font-stretch:normal;font-family:Arial;-inkscape-font-specification:Arial;fill:#d2d2d2;fill-opacity:1;stroke-width:0.175506"
         id="path873" />
      <path
         d="m -167.07449,175.71248 -2.30809,-6.0673 h 1.08549 l 1.30258,3.63352 q 0.21138,0.58845 0.38849,1.2226 0.13711,-0.47989 0.38278,-1.15404 l 1.34828,-3.70208 h 1.05693 l -2.29666,6.0673 z"
         style="font-style:normal;font-variant:normal;font-weight:normal;font-stretch:normal;font-family:Arial;-inkscape-font-specification:Arial;fill:#d2d2d2;fill-opacity:1;stroke-width:0.175506"
         id="path875" />
      <path
         d="m -163.29243,172.67883 q 0,-1.68536 0.93695,-2.49662 0.78269,-0.67414 1.90817,-0.67414 1.25116,0 2.04528,0.82268 0.79412,0.81697 0.79412,2.26238 0,1.17119 -0.35421,1.84533 -0.3485,0.66843 -1.02264,1.03978 -0.66843,0.37135 -1.46255,0.37135 -1.27402,0 -2.06243,-0.81697 -0.78269,-0.81697 -0.78269,-2.35379 z m 1.05692,0 q 0,1.16547 0.50847,1.7482 0.50846,0.57703 1.27973,0.57703 0.76555,0 1.27402,-0.58274 0.50846,-0.58273 0.50846,-1.77677 0,-1.12548 -0.51418,-1.7025 -0.50846,-0.58273 -1.2683,-0.58273 -0.77127,0 -1.27973,0.57702 -0.50847,0.57702 -0.50847,1.74249 z"
         style="font-style:normal;font-variant:normal;font-weight:normal;font-stretch:normal;font-family:Arial;-inkscape-font-specification:Arial;fill:#d2d2d2;fill-opacity:1;stroke-width:0.175506"
         id="path877" />
    </g>
    <g
       transform="translate(-3.1750001)"
       aria-label="ASI"
       id="text72"
       style="font-size:10.5655px;line-height:1.25;font-family:sans-serif;fill:#d2d2d2;fill-opacity:1;stroke-width:0.158482">
      <path
         d="m -147.1025,175.45316 2.90448,-7.563 h 1.07822 l 3.09536,7.563 h -1.14012 l -0.88218,-2.29057 h -3.16243 l -0.83059,2.29057 z m 2.18223,-3.10568 h 2.56399 l -0.78931,-2.09453 q -0.36113,-0.9544 -0.53653,-1.56832 -0.14445,0.72741 -0.40756,1.4445 z"
         style="font-style:normal;font-variant:normal;font-weight:normal;font-stretch:normal;font-family:Arial;-inkscape-font-specification:Arial;fill:#d2d2d2;fill-opacity:1;stroke-width:0.158482"
         id="path880" />
      <path
         d="m -139.55497,173.0233 0.94408,-0.0825 q 0.0671,0.56749 0.30954,0.93377 0.24763,0.36113 0.76352,0.58812 0.51589,0.22183 1.16076,0.22183 0.57264,0 1.01115,-0.17024 0.43851,-0.17025 0.65003,-0.4643 0.21667,-0.29922 0.21667,-0.65003 0,-0.35597 -0.20636,-0.61907 -0.20635,-0.26827 -0.68097,-0.44883 -0.30438,-0.11866 -1.34649,-0.36628 -1.0421,-0.25279 -1.45998,-0.47463 -0.54168,-0.28374 -0.80995,-0.70161 -0.2631,-0.42304 -0.2631,-0.94409 0,-0.57264 0.32501,-1.0679 0.32501,-0.50041 0.94924,-0.75836 0.62423,-0.25795 1.38776,-0.25795 0.8409,0 1.48061,0.27343 0.64487,0.26826 0.99052,0.79447 0.34565,0.52621 0.37144,1.19172 l -0.95956,0.0722 q -0.0774,-0.71709 -0.52621,-1.08338 -0.44367,-0.36628 -1.31553,-0.36628 -0.90797,0 -1.32585,0.33533 -0.41271,0.33017 -0.41271,0.79964 0,0.40755 0.29406,0.67066 0.2889,0.2631 1.50641,0.54169 1.22266,0.27342 1.67665,0.47978 0.66034,0.30437 0.97504,0.77384 0.31469,0.4643 0.31469,1.07306 0,0.60359 -0.34565,1.14012 -0.34564,0.53137 -0.99567,0.83059 -0.64487,0.29406 -1.45482,0.29406 -1.02663,0 -1.72308,-0.29922 -0.6913,-0.29922 -1.08854,-0.89765 -0.39208,-0.6036 -0.41271,-1.36196 z"
         style="font-style:normal;font-variant:normal;font-weight:normal;font-stretch:normal;font-family:Arial;-inkscape-font-specification:Arial;fill:#d2d2d2;fill-opacity:1;stroke-width:0.158482"
         id="path882" />
      <path
         d="m -131.98682,175.45316 v -7.563 h 1.00084 v 7.563 z"
         style="font-style:normal;font-variant:normal;font-weight:normal;font-stretch:normal;font-family:Arial;-inkscape-font-specification:Arial;fill:#d2d2d2;fill-opacity:1;stroke-width:0.158482"
         id="path884" />
    </g>
    <path
       sodipodi:nodetypes="ccccsccccsccccccsccsccccccccccccccccccccccccc"
       style="fill:#d2d2d2;fill-opacity:1;stroke:none;stroke-width:0.195299;stroke-opacity:1"
       id="path2-5"
       fill-rule="evenodd"
       d="m -103.35091,151.63086 v -1.75632 c 0.17252,-0.0122 0.34527,-0.021 0.51814,-0.0264 4.803634,-0.15097 7.955194,4.12743 7.955194,4.12743 0,0 -3.40369,4.72741 -7.053284,4.72741 -0.52575,0 -0.99603,-0.0847 -1.42005,-0.22696 v -5.32578 c 1.87002,0.22576 2.24598,1.05188 3.370524,2.92597 l 2.50044,-2.10825 c 0,0 -1.82509,-2.39396 -4.902064,-2.39396 -0.33495,0 -0.65485,0.0235 -0.9689,0.057 z m 0,-5.80175 v 2.62346 c 0.17227,-0.0135 0.34491,-0.0247 0.51814,-0.031 6.680284,-0.22497 11.032354,5.47851 11.032354,5.47851 0,0 -4.99911,6.07847 -10.206804,6.07847 -0.47713,0 -0.92379,-0.0438 -1.34369,-0.11834 v 1.62156 c 0.35898,0.0457 0.73084,0.0726 1.11908,0.0726 4.846394,0 8.351074,-2.47482 11.745004,-5.40412 0.56227,0.45058 2.86604,1.54657 3.33964,2.02683 -3.22695,2.70135 -10.747,4.87854 -15.010234,4.87854 -0.3986,-0.001 -0.79689,-0.0222 -1.19349,-0.0621 v 2.27913 h 18.420004 v -19.44387 h -18.419804 z m 0,12.64676 v 1.38466 c -4.48256,-0.79935 -5.72664,-5.45857 -5.72664,-5.45857 0,0 2.15224,-2.3846 5.72664,-2.7711 v 1.51922 c -0.002,0 -0.004,-6.1e-4 -0.007,-6.1e-4 -1.87568,-0.22537 -3.34121,1.52722 -3.34121,1.52722 0,0 0.82105,2.95018 3.34825,3.79934 z m -7.96127,-4.27606 c 0,0 2.65649,-3.92021 7.96127,-4.32547 v -1.42177 c -5.87545,0.47146 -10.96346,5.44747 -10.96346,5.44747 0,0 2.88149,8.33102 10.96366,9.09367 v -1.5116 c -5.93091,-0.74642 -7.96147,-7.2823 -7.96147,-7.2823 z" />
    <g
       aria-label="nVIDIA"
       id="text918"
       style="font-size:10.8986px;line-height:1.25;font-family:sans-serif;stroke-width:0.163479;fill:#d2d2d2;fill-opacity:1">
      <path
         d="m -117.81906,175.87808 v -7.23399 h 1.10349 v 1.02856 q 0.79696,-1.19204 2.30234,-1.19204 0.65392,0 1.19885,0.23841 0.55175,0.23159 0.82422,0.61305 0.27246,0.38145 0.38145,0.90595 0.0681,0.34058 0.0681,1.19204 v 4.44802 h -1.2261 v -4.40034 q 0,-0.74928 -0.14305,-1.11711 -0.14304,-0.37464 -0.51087,-0.59262 -0.36102,-0.22478 -0.85146,-0.22478 -0.78334,0 -1.35553,0.49725 -0.56536,0.49725 -0.56536,1.88683 v 3.95077 z"
         style="font-style:normal;font-variant:normal;font-weight:normal;font-stretch:normal;font-size:13.9503px;font-family:Arial;-inkscape-font-specification:Arial;stroke-width:0.163479;fill:#d2d2d2;fill-opacity:1"
         id="path887" />
      <path
         d="m -107.85489,175.87808 -3.0333,-7.94512 h 1.12285 l 2.51711,6.68923 2.52243,-6.68923 h 1.11753 l -3.02798,7.94512 z"
         style="stroke-width:0.163479;fill:#d2d2d2;fill-opacity:1"
         id="path889" />
      <path
         d="m -102.45348,167.93296 h 1.07496 v 7.94512 h -1.07496 z"
         style="stroke-width:0.163479;fill:#d2d2d2;fill-opacity:1"
         id="path891" />
      <path
         d="m -98.164288,168.81634 v 6.17836 h 1.298466 q 1.644369,0 2.405355,-0.74502 0.766308,-0.74502 0.766308,-2.35214 0,-1.59648 -0.766308,-2.33618 -0.760986,-0.74502 -2.405355,-0.74502 z m -1.07496,-0.88338 h 2.208457 q 2.309566,0 3.389847,0.96321 1.080282,0.95788 1.080282,3.00137 0,2.05413 -1.085603,3.01734 -1.085603,0.9632 -3.384526,0.9632 h -2.208457 z"
         style="stroke-width:0.163479;fill:#d2d2d2;fill-opacity:1"
         id="path893" />
      <path
         d="m -90.852435,167.93296 h 1.074959 v 7.94512 h -1.074959 z"
         style="stroke-width:0.163479;fill:#d2d2d2;fill-opacity:1"
         id="path895" />
      <path
         d="m -84.982731,168.99196 -1.458113,3.95393 h 2.921548 z m -0.60666,-1.059 h 1.218642 l 3.02798,7.94512 h -1.117532 l -0.723735,-2.03816 h -3.581425 l -0.723735,2.03816 h -1.133497 z"
         style="stroke-width:0.163479;fill:#d2d2d2;fill-opacity:1"
         id="path897" />
    </g>
    <path
       id="path900"
       style="font-style:normal;font-variant:normal;font-weight:normal;font-stretch:normal;font-size:13.2086px;line-height:1.25;font-family:Arial;-inkscape-font-specification:Arial;fill:#d2d2d2;fill-opacity:1;stroke-width:0.184817"
       d="m -253.22952,199.63674 v -8.81976 h 1.19722 l 4.63248,6.92466 v -6.92466 h 1.11901 v 8.81976 h -1.19722 l -4.63248,-6.93067 v 6.93067 z" />
    <path
       id="path902"
       style="font-style:normal;font-variant:normal;font-weight:normal;font-stretch:normal;font-size:13.2086px;line-height:1.25;font-family:Arial;-inkscape-font-specification:Arial;fill:#d2d2d2;fill-opacity:1;stroke-width:0.184817"
       d="m -242.06946,199.63674 v -7.77895 h -2.90583 v -1.04081 h 6.99082 v 1.04081 h -2.91785 v 7.77895 z" />
    <path
       id="path904"
       style="font-style:normal;font-variant:normal;font-weight:normal;font-stretch:normal;font-size:13.2086px;line-height:1.25;font-family:Arial;-inkscape-font-specification:Arial;fill:#d2d2d2;fill-opacity:1;stroke-width:0.184817"
       d="m -236.58269,199.63674 v -8.81976 h 1.16715 v 8.81976 z" />
    <path
       id="path906"
       style="font-style:normal;font-variant:normal;font-weight:normal;font-stretch:normal;font-size:13.2086px;line-height:1.25;font-family:Arial;-inkscape-font-specification:Arial;fill:#d2d2d2;fill-opacity:1;stroke-width:0.184817"
       d="m -224.69467,198.59594 v 1.0408 h -5.8297 q -0.012,-0.39105 0.12634,-0.75202 0.2226,-0.59561 0.70991,-1.17317 0.49333,-0.57755 1.41983,-1.33559 1.43787,-1.17918 1.94323,-1.86503 0.50536,-0.69186 0.50536,-1.30551 0,-0.64374 -0.46324,-1.08291 -0.45724,-0.44521 -1.19724,-0.44521 -0.7821,0 -1.25137,0.46927 -0.46926,0.46926 -0.47528,1.2995 l -1.11299,-0.11431 q 0.1143,-1.24535 0.86031,-1.89511 0.74601,-0.65576 2.0034,-0.65576 1.26942,0 2.00942,0.7039 0.73999,0.70389 0.73999,1.7447 0,0.52942 -0.21658,1.04079 -0.21659,0.51138 -0.72196,1.07691 -0.49934,0.56552 -1.66648,1.55218 -0.97462,0.8182 -1.25137,1.113 -0.27675,0.28878 -0.45723,0.58357 z" />
    <path
       id="path908"
       style="font-style:normal;font-variant:normal;font-weight:normal;font-stretch:normal;font-size:13.2086px;line-height:1.25;font-family:Arial;-inkscape-font-specification:Arial;fill:#d2d2d2;fill-opacity:1;stroke-width:0.184817"
       d="m -223.52753,195.28703 q 0,-1.56421 0.31886,-2.51478 0.32488,-0.95658 0.95658,-1.47397 0.63772,-0.51739 1.60031,-0.51739 0.70991,0 1.24535,0.28878 0.53544,0.28276 0.88439,0.82422 0.34893,0.53544 0.54747,1.31153 0.19854,0.77008 0.19854,2.08161 0,1.55217 -0.31887,2.50876 -0.31885,0.95055 -0.95657,1.47396 -0.6317,0.51739 -1.60031,0.51739 -1.27544,0 -2.0034,-0.91446 -0.87235,-1.10096 -0.87235,-3.58565 z m 1.113,0 q 0,2.17184 0.50536,2.89379 0.51138,0.71593 1.25739,0.71593 0.74601,0 1.25137,-0.72194 0.51138,-0.72196 0.51138,-2.88778 0,-2.17787 -0.51138,-2.89379 -0.50536,-0.71594 -1.26341,-0.71594 -0.746,0 -1.1912,0.6317 -0.55951,0.80618 -0.55951,2.97803 z" />
    <path
       id="path910"
       style="font-style:normal;font-variant:normal;font-weight:normal;font-stretch:normal;font-size:13.2086px;line-height:1.25;font-family:Arial;-inkscape-font-specification:Arial;fill:#d2d2d2;fill-opacity:1;stroke-width:0.184817"
       d="m -216.06142,199.63674 v -1.23332 h 1.23333 v 1.23332 z" />
    <path
       id="path912"
       style="font-style:normal;font-variant:normal;font-weight:normal;font-stretch:normal;font-size:13.2086px;line-height:1.25;font-family:Arial;-inkscape-font-specification:Arial;fill:#d2d2d2;fill-opacity:1;stroke-width:0.184817"
       d="m -213.24583,197.30847 1.08291,-0.14439 q 0.18651,0.92048 0.6317,1.32958 0.45121,0.40309 1.09495,0.40309 0.76406,0 1.28747,-0.52943 0.52942,-0.52943 0.52942,-1.31153 0,-0.74601 -0.48731,-1.2273 -0.48731,-0.48731 -1.23934,-0.48731 -0.30682,0 -0.76405,0.12032 l 0.12032,-0.95057 q 0.10829,0.012 0.17447,0.012 0.69187,0 1.24535,-0.36098 0.5535,-0.36097 0.5535,-1.11299 0,-0.59561 -0.40309,-0.98666 -0.40309,-0.39106 -1.04081,-0.39106 -0.6317,0 -1.05283,0.39708 -0.42114,0.39707 -0.54146,1.1912 l -1.08291,-0.19251 q 0.19853,-1.08893 0.90243,-1.68454 0.70389,-0.60162 1.75071,-0.60162 0.72195,0 1.32958,0.31284 0.60764,0.30683 0.9265,0.84227 0.32487,0.53544 0.32487,1.13706 0,0.57154 -0.30682,1.04081 -0.30684,0.46926 -0.90845,0.746 0.78211,0.18049 1.21527,0.75203 0.43317,0.56553 0.43317,1.41983 0,1.1551 -0.84227,1.96128 -0.84227,0.80015 -2.12974,0.80015 -1.16112,0 -1.93119,-0.69186 -0.76406,-0.69186 -0.87235,-1.79283 z" />
    <path
       id="path914"
       style="font-style:normal;font-variant:normal;font-weight:normal;font-stretch:normal;font-size:13.2086px;line-height:1.25;font-family:Arial;-inkscape-font-specification:Arial;fill:#d2d2d2;fill-opacity:1;stroke-width:0.184817"
       d="m -206.39338,197.32651 1.13706,-0.0963 q 0.12634,0.83024 0.58357,1.25137 0.46326,0.41512 1.113,0.41512 0.78211,0 1.32357,-0.58959 0.54145,-0.58959 0.54145,-1.56422 0,-0.92649 -0.52341,-1.46193 -0.51739,-0.53545 -1.35966,-0.53545 -0.5234,0 -0.94454,0.24065 -0.42114,0.23464 -0.66179,0.61365 l -1.01673,-0.13234 0.8543,-4.53021 h 4.38581 v 1.03479 h -3.51948 l -0.47527,2.37038 q 0.79413,-0.55349 1.66648,-0.55349 1.15511,0 1.94925,0.80016 0.79414,0.80015 0.79414,2.05754 0,1.19722 -0.69789,2.06957 -0.84828,1.07088 -2.31623,1.07088 -1.20324,0 -1.9673,-0.67381 -0.75804,-0.67382 -0.86633,-1.78682 z" />
    <path
       id="path916"
       style="font-style:normal;font-variant:normal;font-weight:normal;font-stretch:normal;font-size:13.2086px;line-height:1.25;font-family:Arial;-inkscape-font-specification:Arial;fill:#d2d2d2;fill-opacity:1;stroke-width:0.184817"
       d="m -176.0081,196.17743 v -1.03479 l 3.73606,-0.006 v 3.27282 q -0.86032,0.68584 -1.77478,1.03478 -0.91446,0.34292 -1.87706,0.34292 -1.2995,0 -2.36436,-0.55349 -1.05886,-0.5595 -1.60031,-1.61234 -0.54146,-1.05283 -0.54146,-2.35233 0,-1.28747 0.53544,-2.40046 0.54146,-1.11902 1.55218,-1.66048 1.01072,-0.54145 2.32827,-0.54145 0.95657,0 1.72665,0.31283 0.77609,0.30683 1.21527,0.86032 0.43919,0.5535 0.6678,1.44389 l -1.05284,0.28878 q -0.19853,-0.67382 -0.49333,-1.05885 -0.29478,-0.38504 -0.84226,-0.61365 -0.54747,-0.23464 -1.21527,-0.23464 -0.80015,0 -1.38373,0.24666 -0.58357,0.24065 -0.94454,0.63772 -0.35496,0.39707 -0.55349,0.87235 -0.33691,0.81821 -0.33691,1.77478 0,1.17918 0.40308,1.97332 0.40911,0.79413 1.18519,1.17917 0.7761,0.38504 1.64845,0.38504 0.75804,0 1.47998,-0.28878 0.72195,-0.29479 1.09495,-0.62569 v -1.64241 z" />
    <path
       id="path918"
       style="font-style:normal;font-variant:normal;font-weight:normal;font-stretch:normal;font-size:13.2086px;line-height:1.25;font-family:Arial;-inkscape-font-specification:Arial;fill:#d2d2d2;fill-opacity:1;stroke-width:0.184817"
       d="m -171.09888,196.44214 q 0,-1.77478 0.98665,-2.62908 0.82423,-0.70991 2.00942,-0.70991 1.31754,0 2.1538,0.86633 0.83625,0.86032 0.83625,2.38241 0,1.23332 -0.373,1.94324 -0.36699,0.70389 -1.0769,1.09495 -0.7039,0.39105 -1.54015,0.39105 -1.34161,0 -2.17185,-0.86031 -0.82422,-0.86032 -0.82422,-2.47868 z m 1.11299,0 q 0,1.2273 0.53545,1.84096 0.53544,0.60763 1.34763,0.60763 0.80617,0 1.34161,-0.61365 0.53545,-0.61365 0.53545,-1.87104 0,-1.18519 -0.54147,-1.79283 -0.53543,-0.61366 -1.33559,-0.61366 -0.81219,0 -1.34763,0.60765 -0.53545,0.60763 -0.53545,1.83494 z" />
    <path
       id="path920"
       style="font-style:normal;font-variant:normal;font-weight:normal;font-stretch:normal;font-size:13.2086px;line-height:1.25;font-family:Arial;-inkscape-font-specification:Arial;fill:#d2d2d2;fill-opacity:1;stroke-width:0.184817"
       d="m -164.24041,196.44214 q 0,-1.77478 0.98666,-2.62908 0.82423,-0.70991 2.00942,-0.70991 1.31754,0 2.15379,0.86633 0.83626,0.86032 0.83626,2.38241 0,1.23332 -0.373,1.94324 -0.36699,0.70389 -1.07691,1.09495 -0.70389,0.39105 -1.54014,0.39105 -1.34162,0 -2.17185,-0.86031 -0.82423,-0.86032 -0.82423,-2.47868 z m 1.113,0 q 0,1.2273 0.53545,1.84096 0.53543,0.60763 1.34763,0.60763 0.80616,0 1.34161,-0.61365 0.53544,-0.61365 0.53544,-1.87104 0,-1.18519 -0.54146,-1.79283 -0.53544,-0.61366 -1.33559,-0.61366 -0.8122,0 -1.34763,0.60765 -0.53545,0.60763 -0.53545,1.83494 z" />
    <path
       id="path922"
       style="font-style:normal;font-variant:normal;font-weight:normal;font-stretch:normal;font-size:13.2086px;line-height:1.25;font-family:Arial;-inkscape-font-specification:Arial;fill:#d2d2d2;fill-opacity:1;stroke-width:0.184817"
       d="m -157.17738,200.16616 1.05283,0.15643 q 0.0661,0.48731 0.36699,0.70991 0.40309,0.30081 1.10096,0.30081 0.75203,0 1.16113,-0.30081 0.4091,-0.30081 0.55349,-0.84227 0.0842,-0.33089 0.0783,-1.38974 -0.70992,0.83625 -1.76876,0.83625 -1.31755,0 -2.0395,-0.95056 -0.72194,-0.95056 -0.72194,-2.28014 0,-0.91447 0.33089,-1.68453 0.33089,-0.7761 0.95658,-1.19723 0.6317,-0.42113 1.47998,-0.42113 1.13105,0 1.86503,0.91445 v -0.77006 h 0.99869 v 5.52287 q 0,1.49202 -0.30683,2.11169 -0.30081,0.62568 -0.96259,0.98666 -0.65577,0.36097 -1.61836,0.36097 -1.14308,0 -1.84698,-0.5174 -0.70389,-0.51138 -0.67982,-1.54617 z m 0.89641,-3.83833 q 0,1.25738 0.49934,1.83494 0.49935,0.57756 1.25137,0.57756 0.74601,0 1.25138,-0.57154 0.50536,-0.57756 0.50536,-1.80487 0,-1.17315 -0.52341,-1.76875 -0.5174,-0.59562 -1.25138,-0.59562 -0.72194,0 -1.2273,0.5896 -0.50536,0.58357 -0.50536,1.73868 z" />
    <path
       id="path924"
       style="font-style:normal;font-variant:normal;font-weight:normal;font-stretch:normal;font-size:13.2086px;line-height:1.25;font-family:Arial;-inkscape-font-specification:Arial;fill:#d2d2d2;fill-opacity:1;stroke-width:0.184817"
       d="m -150.14444,199.63674 v -8.81976 h 1.08292 v 8.81976 z" />
    <path
       id="path926"
       style="font-style:normal;font-variant:normal;font-weight:normal;font-stretch:normal;font-size:13.2086px;line-height:1.25;font-family:Arial;-inkscape-font-specification:Arial;fill:#d2d2d2;fill-opacity:1;stroke-width:0.184817"
       d="m -143.00322,197.5792 1.11902,0.13837 q -0.26472,0.98064 -0.98064,1.5221 -0.71593,0.54146 -1.82893,0.54146 -1.40178,0 -2.22599,-0.86031 -0.8182,-0.86634 -0.8182,-2.42454 0,-1.61234 0.83023,-2.50273 0.83023,-0.8904 2.15381,-0.8904 1.28144,0 2.09364,0.87235 0.81218,0.87235 0.81218,2.45461 0,0.0962 -0.006,0.28877 h -4.76483 q 0.0602,1.05284 0.5956,1.61234 0.53544,0.55951 1.3356,0.55951 0.5956,0 1.01674,-0.31284 0.42113,-0.31284 0.66779,-0.99869 z m -3.55557,-1.75071 h 3.56761 q -0.0722,-0.80618 -0.4091,-1.20927 -0.51739,-0.62567 -1.34162,-0.62567 -0.74601,0 -1.25738,0.49933 -0.50536,0.49935 -0.55951,1.33561 z" />
    <path
       id="path928"
       style="font-style:normal;font-variant:normal;font-weight:normal;font-stretch:normal;font-size:13.2086px;line-height:1.25;font-family:Arial;-inkscape-font-specification:Arial;fill:#d2d2d2;fill-opacity:1;stroke-width:0.184817"
       d="m -117.56401,199.63674 v -3.73606 l -3.39915,-5.0837 h 1.41982 l 1.73868,2.65917 q 0.4813,0.74601 0.89642,1.49202 0.39707,-0.69187 0.96259,-1.5582 l 1.7086,-2.59299 h 1.35966 l -3.51948,5.0837 v 3.73606 z" />
    <path
       id="path930"
       style="font-style:normal;font-variant:normal;font-weight:normal;font-stretch:normal;font-size:13.2086px;line-height:1.25;font-family:Arial;-inkscape-font-specification:Arial;fill:#d2d2d2;fill-opacity:1;stroke-width:0.184817"
       d="m -108.70215,198.84862 q -0.60162,0.51138 -1.16112,0.72194 -0.55349,0.21057 -1.1912,0.21057 -1.05285,0 -1.61836,-0.51138 -0.56553,-0.51739 -0.56553,-1.31755 0,-0.46926 0.21057,-0.8543 0.21658,-0.39106 0.5595,-0.62569 0.34894,-0.23463 0.78211,-0.35495 0.31886,-0.0842 0.96259,-0.16243 1.31153,-0.15643 1.9312,-0.37301 0.006,-0.2226 0.006,-0.28276 0,-0.66179 -0.30682,-0.93252 -0.41512,-0.36699 -1.23332,-0.36699 -0.76406,0 -1.13105,0.27073 -0.36097,0.26472 -0.53545,0.94455 l -1.05885,-0.14439 q 0.14439,-0.67983 0.47528,-1.09494 0.33089,-0.42114 0.95658,-0.64374 0.62568,-0.22861 1.4499,-0.22861 0.81821,0 1.32959,0.19251 0.51137,0.19252 0.75202,0.48731 0.24065,0.28878 0.33691,0.73398 0.0541,0.27675 0.0541,0.99869 v 1.44389 q 0,1.51007 0.0662,1.91315 0.0722,0.39707 0.27675,0.76406 h -1.13105 q -0.16845,-0.33691 -0.21659,-0.78812 z m -0.0902,-2.41851 q -0.58959,0.24064 -1.76876,0.40909 -0.6678,0.0963 -0.94455,0.21659 -0.27675,0.12033 -0.42714,0.35496 -0.15041,0.22861 -0.15041,0.51138 0,0.43316 0.32487,0.72194 0.3309,0.28877 0.96259,0.28877 0.62569,0 1.113,-0.27072 0.48731,-0.27675 0.71593,-0.75203 0.17447,-0.36699 0.17447,-1.08291 z" />
    <path
       id="path932"
       style="font-style:normal;font-variant:normal;font-weight:normal;font-stretch:normal;font-size:13.2086px;line-height:1.25;font-family:Arial;-inkscape-font-specification:Arial;fill:#d2d2d2;fill-opacity:1;stroke-width:0.184817"
       d="m -106.01291,199.63674 v -6.3892 h 0.97463 v 0.90844 q 0.70389,-1.05283 2.03347,-1.05283 0.57755,0 1.05886,0.21056 0.48731,0.20455 0.72796,0.54146 0.24064,0.33691 0.3369,0.80015 0.0602,0.30082 0.0602,1.05284 v 3.92858 h -1.08292 v -3.88647 q 0,-0.66178 -0.12634,-0.98666 -0.12634,-0.33088 -0.45121,-0.5234 -0.31886,-0.19854 -0.75203,-0.19854 -0.69186,0 -1.19722,0.43919 -0.49934,0.43918 -0.49934,1.66648 v 3.4894 z" />
    <path
       id="path934"
       style="font-style:normal;font-variant:normal;font-weight:normal;font-stretch:normal;font-size:13.2086px;line-height:1.25;font-family:Arial;-inkscape-font-specification:Arial;fill:#d2d2d2;fill-opacity:1;stroke-width:0.184817"
       d="m -95.0093,199.63674 v -0.80617 q -0.607637,0.95056 -1.786801,0.95056 -0.764054,0 -1.407791,-0.42113 -0.637707,-0.42114 -0.992664,-1.17317 -0.348937,-0.75803 -0.348937,-1.73867 0,-0.95659 0.318857,-1.73267 0.318857,-0.78211 0.956574,-1.19723 0.637707,-0.41511 1.425834,-0.41511 0.577544,0 1.028764,0.24666 0.451207,0.24065 0.733964,0.6317 v -3.16453 h 1.076894 v 8.81976 z m -3.423199,-3.18858 q 0,1.2273 0.517387,1.83494 0.517397,0.60763 1.221281,0.60763 0.709907,0 1.203234,-0.57756 0.499347,-0.58357 0.499347,-1.77477 0,-1.31153 -0.505357,-1.92519 -0.505367,-0.61366 -1.245354,-0.61366 -0.721934,0 -1.209251,0.5896 -0.481287,0.58958 -0.481287,1.85901 z" />
    <path
       id="path936"
       style="font-style:normal;font-variant:normal;font-weight:normal;font-stretch:normal;font-size:13.2086px;line-height:1.25;font-family:Arial;-inkscape-font-specification:Arial;fill:#d2d2d2;fill-opacity:1;stroke-width:0.184817"
       d="m -87.922231,197.5792 1.119013,0.13837 q -0.264713,0.98064 -0.980641,1.5221 -0.715929,0.54146 -1.828925,0.54146 -1.401777,0 -2.225994,-0.86031 -0.818194,-0.86634 -0.818194,-2.42454 0,-1.61234 0.830224,-2.50273 0.830237,-0.8904 2.153802,-0.8904 1.281451,0 2.093638,0.87235 0.812188,0.87235 0.812188,2.45461 0,0.0962 -0.0061,0.28877 h -4.764838 q 0.0602,1.05284 0.59561,1.61234 0.535442,0.55951 1.335597,0.55951 0.595604,0 1.016738,-0.31284 0.421135,-0.31284 0.667799,-0.99869 z m -3.55558,-1.75071 h 3.567612 q -0.07219,-0.80618 -0.409102,-1.20927 -0.517393,-0.62567 -1.341613,-0.62567 -0.74601,0 -1.257386,0.49933 -0.505361,0.49935 -0.559511,1.33561 z" />
    <path
       id="path938"
       style="font-style:normal;font-variant:normal;font-weight:normal;font-stretch:normal;font-size:13.2086px;line-height:1.25;font-family:Arial;-inkscape-font-specification:Arial;fill:#d2d2d2;fill-opacity:1;stroke-width:0.184817"
       d="m -86.15948,199.63674 2.334286,-3.32094 -2.159817,-3.06826 h 1.353647 l 0.98064,1.49802 q 0.276746,0.42716 0.445199,0.71594 0.264713,-0.39707 0.487312,-0.7039 l 1.076901,-1.51006 h 1.293484 l -2.207947,3.00809 2.3764,3.38111 h -1.329581 l -1.311531,-1.98534 -0.34894,-0.53545 -1.678521,2.52079 z" />
  </g>
</svg>
