<?xml version="1.0" encoding="UTF-8" standalone="no"?>
<svg
   xmlns:dc="http://purl.org/dc/elements/1.1/"
   xmlns:cc="http://creativecommons.org/ns#"
   xmlns:rdf="http://www.w3.org/1999/02/22-rdf-syntax-ns#"
   xmlns:svg="http://www.w3.org/2000/svg"
   xmlns="http://www.w3.org/2000/svg"
   xmlns:sodipodi="http://sodipodi.sourceforge.net/DTD/sodipodi-0.dtd"
   xmlns:inkscape="http://www.inkscape.org/namespaces/inkscape"
   inkscape:export-ydpi="879"
   inkscape:export-xdpi="879"
   inkscape:export-filename="C:\Users\vstar\Desktop\E24\Photo\fasie.png"
   width="772.78827"
   height="212.69073"
   viewBox="0 0 204.46654 56.274461"
   version="1.1"
   id="svg8"
   inkscape:version="1.0 (4035a4fb49, 2020-05-01)"
   sodipodi:docname="fasie.svg">
  <defs
     id="defs2">
    <inkscape:perspective
       sodipodi:type="inkscape:persp3d"
       inkscape:vp_x="0 : -92.225653 : 1"
       inkscape:vp_y="0 : 1000.0011 : 0"
       inkscape:vp_z="209.99947 : -92.225653 : 1"
       inkscape:persp3d-origin="104.99969 : -141.72525 : 1"
       id="perspective893" />
  </defs>
  <sodipodi:namedview
     id="base"
     pagecolor="#ffffff"
     bordercolor="#666666"
     borderopacity="1.0"
     inkscape:pageopacity="0.0"
     inkscape:pageshadow="2"
     inkscape:zoom="1.979899"
     inkscape:cx="411.46225"
     inkscape:cy="179.34374"
     inkscape:document-units="mm"
     inkscape:current-layer="layer1"
     inkscape:document-rotation="0"
     showgrid="false"
     units="px"
     fit-margin-top="0"
     fit-margin-left="0"
     fit-margin-right="0"
     fit-margin-bottom="0"
     inkscape:window-width="1898"
     inkscape:window-height="1024"
     inkscape:window-x="0"
     inkscape:window-y="0"
     inkscape:window-maximized="0" />
  <metadata
     id="metadata5">
    <rdf:RDF>
      <cc:Work
         rdf:about="">
        <dc:format>image/svg+xml</dc:format>
        <dc:type
           rdf:resource="http://purl.org/dc/dcmitype/StillImage" />
        <dc:title></dc:title>
      </cc:Work>
    </rdf:RDF>
  </metadata>
  <g
     inkscape:label="Слой 1"
     inkscape:groupmode="layer"
     id="layer1"
     transform="translate(254.2707,-134.11173)">
    <path
       id="path952"
       style="font-style:normal;font-variant:normal;font-weight:bold;font-stretch:normal;font-size:28.5913px;line-height:0.75;font-family:Arial;-inkscape-font-specification:'Arial Bold';letter-spacing:-5.38231px;word-spacing:0px;fill:#d2d2d2;fill-opacity:1;stroke:none;stroke-width:0.116368;stroke-opacity:1"
       d="m -219.64996,152.69806 2.61829,-0.25456 q 0.23636,1.31823 0.95457,1.93644 0.7273,0.61821 1.95463,0.61821 1.30005,0 1.95462,-0.54548 0.66366,-0.55458 0.66366,-1.29096 0,-0.47275 -0.28184,-0.80003 -0.27273,-0.33638 -0.96366,-0.58185 -0.47275,-0.16364 -2.15463,-0.58183 -2.16372,-0.53639 -3.03649,-1.31824 -1.22731,-1.10003 -1.22731,-2.68191 0,-1.01822 0.57275,-1.90008 0.58183,-0.89094 1.6637,-1.3546 1.09095,-0.46364 2.62738,-0.46364 2.50918,0 3.77286,1.10003 1.27277,1.10005 1.33642,2.93648 l -2.69101,0.11818 q -0.17274,-1.02731 -0.74549,-1.47278 -0.56366,-0.45457 -1.70006,-0.45457 -1.17277,0 -1.83644,0.48184 -0.42729,0.30911 -0.42729,0.82731 0,0.47274 0.40001,0.80912 0.50912,0.42729 2.47283,0.89094 1.96371,0.46366 2.90011,0.96368 0.94549,0.49093 1.47278,1.3546 0.53639,0.85457 0.53639,2.11826 0,1.14549 -0.63639,2.14553 -0.63638,1.00003 -1.80007,1.49097 -1.16368,0.48183 -2.90011,0.48183 -2.52736,0 -3.88196,-1.16368 -1.3546,-1.17276 -1.61825,-3.40921 z" />
    <path
       id="path954"
       style="font-style:normal;font-variant:normal;font-weight:bold;font-stretch:normal;font-size:28.5913px;line-height:0.75;font-family:Arial;-inkscape-font-specification:'Arial Bold';letter-spacing:-5.38231px;word-spacing:0px;fill:#d2d2d2;fill-opacity:1;stroke:none;stroke-width:0.116368;stroke-opacity:1"
       d="M -210.14538,157.03459 V 143.7068 h 2.55464 v 7.07299 l 2.99103,-3.40012 h 3.14557 l -3.30012,3.5274 3.5365,6.12752 h -2.75466 l -2.42735,-4.33653 -1.19097,1.24549 v 3.09104 z" />
    <path
       id="path909"
       style="fill:#d2d2d2;fill-opacity:1;stroke:none;stroke-width:0.0849062;stroke-linejoin:round;stroke-opacity:1"
       d="m -175.37671,153.88894 -5.04282,3.53613 -0.0266,-14.35353 5.08681,3.59059 z"
       sodipodi:nodetypes="ccccc"
       inkscape:transform-center-x="-4.9727082e-05"
       inkscape:transform-center-y="6.0843961e-06" />
    <path
       sodipodi:nodetypes="ccccc"
       d="m -163.55935,146.45528 5.13927,-3.60375 0.0271,14.62799 -5.18409,-3.65922 z"
       inkscape:transform-center-y="4.4735855e-06"
       style="fill:#d2d2d2;fill-opacity:1;stroke:none;stroke-width:0.0865296;stroke-linejoin:round;stroke-opacity:1"
       id="path909-3"
       inkscape:transform-center-x="5.6188285e-05" />
    <path
       style="fill:#d2d2d2;fill-opacity:1;stroke:none;stroke-width:0.037063;stroke-opacity:1"
       d="m -239.75268,163.88177 c -4.59715,-0.26486 -8.5722,-2.48646 -11.28555,-6.30733 -0.21985,-0.30958 -0.3611,-0.54216 -0.35534,-0.58507 0.009,-0.0645 0.23705,-0.0723 2.42909,-0.0826 l 2.41952,-0.0113 0.0482,0.1054 c 0.13628,0.29852 0.97412,1.18015 1.61512,1.69949 3.89779,3.1581 9.71899,3.34376 14.37006,0.4583 0.86623,-0.53739 2.20403,-1.57517 2.36117,-1.83162 0.067,-0.10925 0.38521,-0.38663 0.44364,-0.38663 0.12854,0 -0.14711,0.49569 -0.76573,1.37703 -1.52992,2.17963 -3.55937,3.78095 -5.96316,4.70521 -1.6864,0.64842 -3.60218,0.95799 -5.31695,0.8592 z"
       id="path1187" />
    <path
       id="path1187-5"
       d="m -238.00286,161.96623 c -3.92793,-0.19419 -7.32433,-1.82301 -9.6427,-4.62439 -0.18784,-0.227 -0.30853,-0.39751 -0.30362,-0.42898 0.007,-0.0472 0.20255,-0.053 2.07549,-0.0606 l 2.06733,-0.008 0.0411,0.0773 c 0.11644,0.21887 0.83233,0.86525 1.38001,1.24603 3.33041,2.31546 8.3042,2.45157 12.27822,0.33603 0.74012,-0.39401 1.88319,-1.15489 2.01744,-1.34292 0.0573,-0.0801 0.32916,-0.28346 0.37907,-0.28346 0.10982,0 -0.1257,0.36343 -0.65427,1.0096 -1.3072,1.59807 -3.04122,2.77212 -5.0951,3.44977 -1.44092,0.47541 -3.07781,0.70239 -4.54296,0.62995 z"
       style="fill:#d2d2d2;fill-opacity:1;stroke:none;stroke-width:0.029335;stroke-opacity:1" />
    <g
       style="font-size:11.8072px;line-height:1.25;font-family:sans-serif;fill:#d2d2d2;fill-opacity:1;stroke-width:0.177109"
       id="text880"
       aria-label="FASIE"
       transform="matrix(0.72612881,0,0,0.72612881,-66.916585,36.790154)">
      <path
         id="path852"
         style="font-style:normal;font-variant:normal;font-weight:normal;font-stretch:normal;font-family:Arial;-inkscape-font-specification:Arial;fill:#d2d2d2;fill-opacity:1;stroke-width:0.177109"
         d="m -253.57973,157.04266 v -8.45183 h 5.70181 v 0.99739 h -4.58336 v 2.61741 h 3.96648 v 0.99739 h -3.96648 v 3.83964 z" />
      <path
         id="path854"
         style="font-style:normal;font-variant:normal;font-weight:normal;font-stretch:normal;font-family:Arial;-inkscape-font-specification:Arial;fill:#d2d2d2;fill-opacity:1;stroke-width:0.177109"
         d="m -247.99322,157.04266 3.24582,-8.45183 h 1.20494 l 3.45914,8.45183 h -1.27412 l -0.98585,-2.55976 h -3.53409 l -0.9282,2.55976 z m 2.43869,-3.47067 h 2.86532 l -0.88208,-2.34068 q -0.40356,-1.06657 -0.59958,-1.75263 -0.16143,0.81289 -0.45546,1.61426 z" />
      <path
         id="path856"
         style="font-style:normal;font-variant:normal;font-weight:normal;font-stretch:normal;font-family:Arial;-inkscape-font-specification:Arial;fill:#d2d2d2;fill-opacity:1;stroke-width:0.177109"
         d="m -239.55868,154.32724 1.05503,-0.0922 q 0.075,0.63418 0.34592,1.04351 0.27673,0.40357 0.85325,0.65724 0.57653,0.2479 1.29718,0.2479 0.63994,0 1.12999,-0.19025 0.49004,-0.19025 0.72642,-0.51887 0.24213,-0.33438 0.24213,-0.72642 0,-0.3978 -0.2306,-0.69183 -0.23061,-0.29979 -0.76102,-0.50157 -0.34014,-0.1326 -1.50472,-0.40934 -1.16458,-0.28249 -1.63156,-0.5304 -0.60535,-0.31708 -0.90514,-0.78407 -0.29403,-0.47275 -0.29403,-1.05504 0,-0.63994 0.36321,-1.1934 0.36321,-0.55923 1.0608,-0.84749 0.69759,-0.28826 1.55085,-0.28826 0.93973,0 1.65462,0.30556 0.72066,0.29979 1.10693,0.88784 0.38627,0.58806 0.41509,1.33177 l -1.07233,0.0807 q -0.0865,-0.80136 -0.58805,-1.21069 -0.49581,-0.40934 -1.47014,-0.40934 -1.01468,0 -1.48166,0.37474 -0.46122,0.36898 -0.46122,0.89362 0,0.45545 0.32862,0.74948 0.32285,0.29402 1.68344,0.60535 1.36636,0.30555 1.87371,0.53616 0.73795,0.34015 1.08962,0.86479 0.35168,0.51887 0.35168,1.19917 0,0.67453 -0.38627,1.27411 -0.38627,0.59382 -1.11269,0.92821 -0.72065,0.32861 -1.62579,0.32861 -1.14729,0 -1.92559,-0.33438 -0.77254,-0.33438 -1.21647,-1.00315 -0.43815,-0.67453 -0.46121,-1.52202 z" />
      <path
         id="path858"
         style="font-style:normal;font-variant:normal;font-weight:normal;font-stretch:normal;font-family:Arial;-inkscape-font-specification:Arial;fill:#d2d2d2;fill-opacity:1;stroke-width:0.177109"
         d="m -231.10109,157.04266 v -8.45183 h 1.11846 v 8.45183 z" />
      <path
         id="path860"
         style="font-style:normal;font-variant:normal;font-weight:normal;font-stretch:normal;font-family:Arial;-inkscape-font-specification:Arial;fill:#d2d2d2;fill-opacity:1;stroke-width:0.177109"
         d="m -227.99362,157.04266 v -8.45183 h 6.11115 v 0.99739 h -4.9927 v 2.58859 h 4.67561 v 0.99162 h -4.67561 v 2.87685 h 5.18871 v 0.99738 z" />
    </g>
    <g
       style="font-size:11.7004px;line-height:1.25;font-family:sans-serif;fill:#d2d2d2;fill-opacity:1;stroke-width:0.175506"
       id="text884"
       aria-label="Skolkovo"
       transform="matrix(0.72612881,0,0,0.72612881,-71.14326,36.790154)">
      <path
         id="path863"
         style="font-style:normal;font-variant:normal;font-weight:normal;font-stretch:normal;font-family:Arial;-inkscape-font-specification:Arial;fill:#d2d2d2;fill-opacity:1;stroke-width:0.175506"
         d="m -204.15242,173.02162 1.04549,-0.0914 q 0.0743,0.62844 0.34279,1.03406 0.27423,0.39992 0.84554,0.6513 0.5713,0.24566 1.28544,0.24566 0.63415,0 1.11977,-0.18853 0.48561,-0.18853 0.71984,-0.51418 0.23995,-0.33136 0.23995,-0.71985 0,-0.3942 -0.22852,-0.68557 -0.22852,-0.29708 -0.75413,-0.49704 -0.33707,-0.1314 -1.49111,-0.40563 -1.15405,-0.27994 -1.61681,-0.5256 -0.59987,-0.31422 -0.89695,-0.77698 -0.29137,-0.46847 -0.29137,-1.0455 0,-0.63415 0.35993,-1.1826 0.35992,-0.55417 1.0512,-0.83983 0.69129,-0.28565 1.53682,-0.28565 0.93124,0 1.63966,0.30279 0.71414,0.29708 1.09691,0.87982 0.38278,0.58273 0.41135,1.31972 l -1.06264,0.08 q -0.0857,-0.79412 -0.58273,-1.19975 -0.49133,-0.40563 -1.45684,-0.40563 -1.0055,0 -1.46826,0.37136 -0.45705,0.36563 -0.45705,0.88552 0,0.45134 0.32565,0.74271 0.31993,0.29136 1.66822,0.59987 1.354,0.30279 1.85675,0.53132 0.73127,0.33707 1.07977,0.85696 0.3485,0.51418 0.3485,1.18832 0,0.66843 -0.38278,1.26259 -0.38277,0.58845 -1.10262,0.91981 -0.71414,0.32565 -1.61109,0.32565 -1.13691,0 -1.90817,-0.33136 -0.76556,-0.33136 -1.20546,-0.99408 -0.4342,-0.66843 -0.45705,-1.50825 z" />
      <path
         id="path865"
         style="font-style:normal;font-variant:normal;font-weight:normal;font-stretch:normal;font-family:Arial;-inkscape-font-specification:Arial;fill:#d2d2d2;fill-opacity:1;stroke-width:0.175506"
         d="m -196.08554,175.71248 v -8.37539 h 1.02835 v 4.77614 l 2.43378,-2.46805 h 1.33115 l -2.31952,2.25096 2.55375,3.81634 h -1.2683 l -2.0053,-3.10221 -0.72556,0.697 v 2.40521 z" />
      <path
         id="path867"
         style="font-style:normal;font-variant:normal;font-weight:normal;font-stretch:normal;font-family:Arial;-inkscape-font-specification:Arial;fill:#d2d2d2;fill-opacity:1;stroke-width:0.175506"
         d="m -190.62383,172.67883 q 0,-1.68536 0.93694,-2.49662 0.7827,-0.67414 1.90817,-0.67414 1.25117,0 2.04529,0.82268 0.79412,0.81697 0.79412,2.26238 0,1.17119 -0.35421,1.84533 -0.3485,0.66843 -1.02265,1.03978 -0.66843,0.37135 -1.46255,0.37135 -1.27401,0 -2.06242,-0.81697 -0.78269,-0.81697 -0.78269,-2.35379 z m 1.05692,0 q 0,1.16547 0.50846,1.7482 0.50847,0.57703 1.27973,0.57703 0.76556,0 1.27402,-0.58274 0.50847,-0.58273 0.50847,-1.77677 0,-1.12548 -0.51418,-1.7025 -0.50847,-0.58273 -1.26831,-0.58273 -0.77126,0 -1.27973,0.57702 -0.50846,0.57702 -0.50846,1.74249 z" />
      <path
         id="path869"
         style="font-style:normal;font-variant:normal;font-weight:normal;font-stretch:normal;font-family:Arial;-inkscape-font-specification:Arial;fill:#d2d2d2;fill-opacity:1;stroke-width:0.175506"
         d="m -183.75099,175.71248 v -8.37539 h 1.02835 v 8.37539 z" />
      <path
         id="path871"
         style="font-style:normal;font-variant:normal;font-weight:normal;font-stretch:normal;font-family:Arial;-inkscape-font-specification:Arial;fill:#d2d2d2;fill-opacity:1;stroke-width:0.175506"
         d="m -181.11726,175.71248 v -8.37539 h 1.02836 v 4.77614 l 2.43377,-2.46805 h 1.33115 l -2.31951,2.25096 2.55375,3.81634 h -1.26831 l -2.00529,-3.10221 -0.72556,0.697 v 2.40521 z" />
      <path
         id="path873"
         style="font-style:normal;font-variant:normal;font-weight:normal;font-stretch:normal;font-family:Arial;-inkscape-font-specification:Arial;fill:#d2d2d2;fill-opacity:1;stroke-width:0.175506"
         d="m -175.65555,172.67883 q 0,-1.68536 0.93695,-2.49662 0.78269,-0.67414 1.90817,-0.67414 1.25117,0 2.04528,0.82268 0.79412,0.81697 0.79412,2.26238 0,1.17119 -0.35421,1.84533 -0.3485,0.66843 -1.02264,1.03978 -0.66843,0.37135 -1.46255,0.37135 -1.27402,0 -2.06242,-0.81697 -0.7827,-0.81697 -0.7827,-2.35379 z m 1.05692,0 q 0,1.16547 0.50847,1.7482 0.50846,0.57703 1.27973,0.57703 0.76555,0 1.27402,-0.58274 0.50846,-0.58273 0.50846,-1.77677 0,-1.12548 -0.51418,-1.7025 -0.50846,-0.58273 -1.2683,-0.58273 -0.77127,0 -1.27973,0.57702 -0.50847,0.57702 -0.50847,1.74249 z" />
      <path
         id="path875"
         style="font-style:normal;font-variant:normal;font-weight:normal;font-stretch:normal;font-family:Arial;-inkscape-font-specification:Arial;fill:#d2d2d2;fill-opacity:1;stroke-width:0.175506"
         d="m -167.07449,175.71248 -2.30809,-6.0673 h 1.08549 l 1.30258,3.63352 q 0.21138,0.58845 0.38849,1.2226 0.13711,-0.47989 0.38278,-1.15404 l 1.34828,-3.70208 h 1.05693 l -2.29666,6.0673 z" />
      <path
         id="path877"
         style="font-style:normal;font-variant:normal;font-weight:normal;font-stretch:normal;font-family:Arial;-inkscape-font-specification:Arial;fill:#d2d2d2;fill-opacity:1;stroke-width:0.175506"
         d="m -163.29243,172.67883 q 0,-1.68536 0.93695,-2.49662 0.78269,-0.67414 1.90817,-0.67414 1.25116,0 2.04528,0.82268 0.79412,0.81697 0.79412,2.26238 0,1.17119 -0.35421,1.84533 -0.3485,0.66843 -1.02264,1.03978 -0.66843,0.37135 -1.46255,0.37135 -1.27402,0 -2.06243,-0.81697 -0.78269,-0.81697 -0.78269,-2.35379 z m 1.05692,0 q 0,1.16547 0.50847,1.7482 0.50846,0.57703 1.27973,0.57703 0.76555,0 1.27402,-0.58274 0.50846,-0.58273 0.50846,-1.77677 0,-1.12548 -0.51418,-1.7025 -0.50846,-0.58273 -1.2683,-0.58273 -0.77127,0 -1.27973,0.57702 -0.50847,0.57702 -0.50847,1.74249 z" />
    </g>
    <g
       style="font-size:10.5655px;line-height:1.25;font-family:sans-serif;fill:#d2d2d2;fill-opacity:1;stroke-width:0.158482"
       id="text72"
       aria-label="ASI"
       transform="matrix(0.72612881,0,0,0.72612881,-69.222044,36.790154)">
      <path
         id="path880"
         style="font-style:normal;font-variant:normal;font-weight:normal;font-stretch:normal;font-family:Arial;-inkscape-font-specification:Arial;fill:#d2d2d2;fill-opacity:1;stroke-width:0.158482"
         d="m -147.1025,175.45316 2.90448,-7.563 h 1.07822 l 3.09536,7.563 h -1.14012 l -0.88218,-2.29057 h -3.16243 l -0.83059,2.29057 z m 2.18223,-3.10568 h 2.56399 l -0.78931,-2.09453 q -0.36113,-0.9544 -0.53653,-1.56832 -0.14445,0.72741 -0.40756,1.4445 z" />
      <path
         id="path882"
         style="font-style:normal;font-variant:normal;font-weight:normal;font-stretch:normal;font-family:Arial;-inkscape-font-specification:Arial;fill:#d2d2d2;fill-opacity:1;stroke-width:0.158482"
         d="m -139.55497,173.0233 0.94408,-0.0825 q 0.0671,0.56749 0.30954,0.93377 0.24763,0.36113 0.76352,0.58812 0.51589,0.22183 1.16076,0.22183 0.57264,0 1.01115,-0.17024 0.43851,-0.17025 0.65003,-0.4643 0.21667,-0.29922 0.21667,-0.65003 0,-0.35597 -0.20636,-0.61907 -0.20635,-0.26827 -0.68097,-0.44883 -0.30438,-0.11866 -1.34649,-0.36628 -1.0421,-0.25279 -1.45998,-0.47463 -0.54168,-0.28374 -0.80995,-0.70161 -0.2631,-0.42304 -0.2631,-0.94409 0,-0.57264 0.32501,-1.0679 0.32501,-0.50041 0.94924,-0.75836 0.62423,-0.25795 1.38776,-0.25795 0.8409,0 1.48061,0.27343 0.64487,0.26826 0.99052,0.79447 0.34565,0.52621 0.37144,1.19172 l -0.95956,0.0722 q -0.0774,-0.71709 -0.52621,-1.08338 -0.44367,-0.36628 -1.31553,-0.36628 -0.90797,0 -1.32585,0.33533 -0.41271,0.33017 -0.41271,0.79964 0,0.40755 0.29406,0.67066 0.2889,0.2631 1.50641,0.54169 1.22266,0.27342 1.67665,0.47978 0.66034,0.30437 0.97504,0.77384 0.31469,0.4643 0.31469,1.07306 0,0.60359 -0.34565,1.14012 -0.34564,0.53137 -0.99567,0.83059 -0.64487,0.29406 -1.45482,0.29406 -1.02663,0 -1.72308,-0.29922 -0.6913,-0.29922 -1.08854,-0.89765 -0.39208,-0.6036 -0.41271,-1.36196 z" />
      <path
         id="path884"
         style="font-style:normal;font-variant:normal;font-weight:normal;font-stretch:normal;font-family:Arial;-inkscape-font-specification:Arial;fill:#d2d2d2;fill-opacity:1;stroke-width:0.158482"
         d="m -131.98682,175.45316 v -7.563 h 1.00084 v 7.563 z" />
    </g>
    <path
       d="m -139.31681,146.89366 v -1.27531 c 0.12527,-0.009 0.25071,-0.0152 0.37624,-0.0192 3.48805,-0.10962 5.77649,2.99705 5.77649,2.99705 0,0 -2.47152,3.43271 -5.12159,3.43271 -0.38176,0 -0.72324,-0.0615 -1.03114,-0.1648 v -3.86721 c 1.35788,0.16393 1.63087,0.7638 2.44744,2.12463 l 1.81564,-1.53086 c 0,0 -1.32525,-1.73832 -3.55953,-1.73832 -0.24322,0 -0.47551,0.017 -0.70355,0.0414 z m 0,-4.21282 v 1.90497 c 0.12509,-0.01 0.25045,-0.0179 0.37624,-0.0226 4.85074,-0.16335 8.01091,3.97812 8.01091,3.97812 0,0 -3.63,4.41375 -7.41145,4.41375 -0.34646,0 -0.67079,-0.0318 -0.9757,-0.0859 v 1.17747 c 0.26067,0.0332 0.53069,0.0527 0.8126,0.0527 3.51911,0 6.06396,-1.79703 8.52838,-3.92408 0.40829,0.32718 2.08112,1.12301 2.42501,1.47174 -2.34318,1.96153 -7.80371,3.54245 -10.89936,3.54245 -0.28944,-6.3e-4 -0.57865,-0.0161 -0.86663,-0.0451 v 1.65494 h 13.3753 v -14.11876 h -13.37515 z m 0,9.18317 v 1.00545 c -3.25491,-0.58043 -4.15828,-3.96363 -4.15828,-3.96363 0,0 1.56281,-1.73152 4.15828,-2.01217 v 1.10315 c -0.002,0 -0.003,-4.5e-4 -0.005,-4.5e-4 -1.36198,-0.16364 -2.42614,1.10896 -2.42614,1.10896 0,0 0.59618,2.14221 2.43125,2.75881 z m -5.7809,-3.10496 c 0,0 1.92895,-2.84658 5.7809,-3.14085 v -1.03239 c -4.26633,0.34234 -7.96088,3.95556 -7.96088,3.95556 0,0 2.09233,6.0494 7.96103,6.60318 v -1.09762 c -4.3066,-0.542 -5.78105,-5.28788 -5.78105,-5.28788 z"
       fill-rule="evenodd"
       id="path2-5"
       style="fill:#d2d2d2;fill-opacity:1;stroke:none;stroke-width:0.141812;stroke-opacity:1"
       sodipodi:nodetypes="ccccsccccsccccccsccsccccccccccccccccccccccccc" />
    <g
       style="font-size:10.8986px;line-height:1.25;font-family:sans-serif;fill:#d2d2d2;fill-opacity:1;stroke-width:0.163479"
       id="text918"
       aria-label="nVIDIA"
       transform="matrix(0.72612881,0,0,0.72612881,-64.27075,36.790154)">
      <path
         id="path887"
         style="font-style:normal;font-variant:normal;font-weight:normal;font-stretch:normal;font-size:13.9503px;font-family:Arial;-inkscape-font-specification:Arial;fill:#d2d2d2;fill-opacity:1;stroke-width:0.163479"
         d="m -117.81906,175.87808 v -7.23399 h 1.10349 v 1.02856 q 0.79696,-1.19204 2.30234,-1.19204 0.65392,0 1.19885,0.23841 0.55175,0.23159 0.82422,0.61305 0.27246,0.38145 0.38145,0.90595 0.0681,0.34058 0.0681,1.19204 v 4.44802 h -1.2261 v -4.40034 q 0,-0.74928 -0.14305,-1.11711 -0.14304,-0.37464 -0.51087,-0.59262 -0.36102,-0.22478 -0.85146,-0.22478 -0.78334,0 -1.35553,0.49725 -0.56536,0.49725 -0.56536,1.88683 v 3.95077 z" />
      <path
         id="path889"
         style="fill:#d2d2d2;fill-opacity:1;stroke-width:0.163479"
         d="m -107.85489,175.87808 -3.0333,-7.94512 h 1.12285 l 2.51711,6.68923 2.52243,-6.68923 h 1.11753 l -3.02798,7.94512 z" />
      <path
         id="path891"
         style="fill:#d2d2d2;fill-opacity:1;stroke-width:0.163479"
         d="m -102.45348,167.93296 h 1.07496 v 7.94512 h -1.07496 z" />
      <path
         id="path893"
         style="fill:#d2d2d2;fill-opacity:1;stroke-width:0.163479"
         d="m -98.164288,168.81634 v 6.17836 h 1.298466 q 1.644369,0 2.405355,-0.74502 0.766308,-0.74502 0.766308,-2.35214 0,-1.59648 -0.766308,-2.33618 -0.760986,-0.74502 -2.405355,-0.74502 z m -1.07496,-0.88338 h 2.208457 q 2.309566,0 3.389847,0.96321 1.080282,0.95788 1.080282,3.00137 0,2.05413 -1.085603,3.01734 -1.085603,0.9632 -3.384526,0.9632 h -2.208457 z" />
      <path
         id="path895"
         style="fill:#d2d2d2;fill-opacity:1;stroke-width:0.163479"
         d="m -90.852435,167.93296 h 1.074959 v 7.94512 h -1.074959 z" />
      <path
         id="path897"
         style="fill:#d2d2d2;fill-opacity:1;stroke-width:0.163479"
         d="m -84.982731,168.99196 -1.458113,3.95393 h 2.921548 z m -0.60666,-1.059 h 1.218642 l 3.02798,7.94512 h -1.117532 l -0.723735,-2.03816 h -3.581425 l -0.723735,2.03816 h -1.133497 z" />
    </g>
    <path
       d="m -251.51756,188.12118 v -7.62127 h 1.03454 l 4.00298,5.98369 v -5.98369 h 0.96696 v 7.62127 h -1.03454 l -4.00299,-5.98888 v 5.98888 z"
       style="font-style:normal;font-variant:normal;font-weight:normal;font-stretch:normal;font-size:13.2086px;line-height:1.25;font-family:Arial;-inkscape-font-specification:Arial;fill:#d2d2d2;fill-opacity:1;stroke-width:0.159702"
       id="path900" />
    <path
       d="m -241.874,188.12118 v -6.7219 h -2.51096 v -0.89937 h 6.04085 v 0.89937 h -2.52135 v 6.7219 z"
       style="font-style:normal;font-variant:normal;font-weight:normal;font-stretch:normal;font-size:13.2086px;line-height:1.25;font-family:Arial;-inkscape-font-specification:Arial;fill:#d2d2d2;fill-opacity:1;stroke-width:0.159702"
       id="path902" />
    <path
       d="m -237.13281,188.12118 v -7.62127 h 1.00855 v 7.62127 z"
       style="font-style:normal;font-variant:normal;font-weight:normal;font-stretch:normal;font-size:13.2086px;line-height:1.25;font-family:Arial;-inkscape-font-specification:Arial;fill:#d2d2d2;fill-opacity:1;stroke-width:0.159702"
       id="path904" />
    <path
       d="m -226.86021,187.22181 v 0.89937 h -5.03752 q -0.0104,-0.33791 0.10917,-0.64983 0.19235,-0.51467 0.61344,-1.01376 0.42629,-0.49906 1.2269,-1.1541 1.24248,-1.01894 1.67916,-1.61159 0.43669,-0.59784 0.43669,-1.12811 0,-0.55626 -0.40029,-0.93576 -0.39511,-0.3847 -1.03455,-0.3847 -0.67582,0 -1.08133,0.4055 -0.40548,0.40549 -0.41069,1.12291 l -0.96175,-0.0988 q 0.0988,-1.07612 0.74341,-1.63759 0.64463,-0.56665 1.73116,-0.56665 1.09693,0 1.73637,0.60825 0.63943,0.60824 0.63943,1.50762 0,0.45748 -0.18714,0.89936 -0.18716,0.44189 -0.62386,0.93057 -0.43149,0.48868 -1.44003,1.34126 -0.84218,0.70702 -1.08133,0.96176 -0.23914,0.24954 -0.3951,0.50427 z"
       style="font-style:normal;font-variant:normal;font-weight:normal;font-stretch:normal;font-size:13.2086px;line-height:1.25;font-family:Arial;-inkscape-font-specification:Arial;fill:#d2d2d2;fill-opacity:1;stroke-width:0.159702"
       id="path906" />
    <path
       d="m -225.85167,184.36254 q 0,-1.35166 0.27553,-2.17305 0.28073,-0.8266 0.82659,-1.27368 0.55106,-0.44709 1.38286,-0.44709 0.61344,0 1.07611,0.24954 0.46269,0.24434 0.76422,0.71222 0.30152,0.46268 0.47308,1.13331 0.17155,0.66544 0.17155,1.79875 0,1.34125 -0.27553,2.16785 -0.27552,0.82138 -0.82659,1.27367 -0.54586,0.44709 -1.38284,0.44709 -1.10213,0 -1.73117,-0.79021 -0.75381,-0.95135 -0.75381,-3.0984 z m 0.96176,0 q 0,1.87671 0.43669,2.50056 0.44189,0.61864 1.08653,0.61864 0.64463,0 1.08132,-0.62383 0.44189,-0.62386 0.44189,-2.49537 0,-1.88193 -0.44189,-2.50057 -0.43669,-0.61864 -1.09173,-0.61864 -0.64463,0 -1.02933,0.54585 -0.48348,0.69663 -0.48348,2.57336 z"
       style="font-style:normal;font-variant:normal;font-weight:normal;font-stretch:normal;font-size:13.2086px;line-height:1.25;font-family:Arial;-inkscape-font-specification:Arial;fill:#d2d2d2;fill-opacity:1;stroke-width:0.159702"
       id="path908" />
    <path
       d="m -219.40011,188.12118 v -1.06572 h 1.06574 v 1.06572 z"
       style="font-style:normal;font-variant:normal;font-weight:normal;font-stretch:normal;font-size:13.2086px;line-height:1.25;font-family:Arial;-inkscape-font-specification:Arial;fill:#d2d2d2;fill-opacity:1;stroke-width:0.159702"
       id="path910" />
    <path
       d="m -216.96711,186.10929 0.93575,-0.12477 q 0.16117,0.7954 0.54586,1.14891 0.3899,0.34831 0.94616,0.34831 0.66024,0 1.11252,-0.45748 0.45748,-0.45749 0.45748,-1.13331 0,-0.64464 -0.42109,-1.06053 -0.42109,-0.42109 -1.07093,-0.42109 -0.26513,0 -0.66023,0.10397 l 0.10398,-0.8214 q 0.0936,0.0104 0.15076,0.0104 0.59785,0 1.07612,-0.31193 0.47828,-0.31192 0.47828,-0.96175 0,-0.51467 -0.34831,-0.85258 -0.34832,-0.33792 -0.89938,-0.33792 -0.54586,0 -0.90976,0.34312 -0.36392,0.34311 -0.46788,1.02933 l -0.93576,-0.16635 q 0.17155,-0.94096 0.7798,-1.45563 0.60824,-0.51987 1.51281,-0.51987 0.62385,0 1.14891,0.27033 0.52507,0.26513 0.8006,0.72782 0.28072,0.46268 0.28072,0.98254 0,0.49388 -0.26512,0.89938 -0.26515,0.4055 -0.785,0.64463 0.67582,0.15596 1.05012,0.64984 0.37431,0.48868 0.37431,1.22689 0,0.99814 -0.72781,1.69477 -0.72782,0.69142 -1.84034,0.69142 -1.00334,0 -1.66877,-0.59784 -0.66023,-0.59785 -0.7538,-1.54921 z"
       style="font-style:normal;font-variant:normal;font-weight:normal;font-stretch:normal;font-size:13.2086px;line-height:1.25;font-family:Arial;-inkscape-font-specification:Arial;fill:#d2d2d2;fill-opacity:1;stroke-width:0.159702"
       id="path912" />
    <path
       d="m -211.04582,186.12488 0.98254,-0.0832 q 0.10918,0.71742 0.50428,1.08132 0.4003,0.35871 0.96175,0.35871 0.67583,0 1.14372,-0.50947 0.46787,-0.50948 0.46787,-1.35166 0,-0.8006 -0.45228,-1.26328 -0.44708,-0.46269 -1.1749,-0.46269 -0.45228,0 -0.81619,0.20795 -0.36391,0.20276 -0.57186,0.53027 l -0.87857,-0.11436 0.73821,-3.91461 h 3.78984 v 0.89417 h -3.04123 l -0.41069,2.04828 q 0.68621,-0.47828 1.44002,-0.47828 0.99815,0 1.68438,0.69142 0.68622,0.69143 0.68622,1.77796 0,1.03453 -0.60305,1.78833 -0.73301,0.92537 -2.00149,0.92537 -1.03974,0 -1.69996,-0.58225 -0.65504,-0.58226 -0.74861,-1.54402 z"
       style="font-style:normal;font-variant:normal;font-weight:normal;font-stretch:normal;font-size:13.2086px;line-height:1.25;font-family:Arial;-inkscape-font-specification:Arial;fill:#d2d2d2;fill-opacity:1;stroke-width:0.159702"
       id="path914" />
    <path
       d="m -126.29638,185.13195 v -0.89418 l 3.22837,-0.005 v 2.8281 q -0.7434,0.59264 -1.53361,0.89416 -0.79019,0.29632 -1.62198,0.29632 -1.12292,0 -2.04308,-0.47828 -0.91498,-0.48347 -1.38285,-1.39324 -0.46789,-0.90976 -0.46789,-2.03268 0,-1.11252 0.46269,-2.07427 0.46788,-0.96696 1.34126,-1.43484 0.87337,-0.46787 2.01188,-0.46787 0.82659,0 1.49202,0.27031 0.67064,0.26514 1.05014,0.74342 0.37951,0.47829 0.57705,1.24768 l -0.90977,0.24954 q -0.17155,-0.58226 -0.4263,-0.91497 -0.25472,-0.33271 -0.7278,-0.53026 -0.47307,-0.20275 -1.05013,-0.20275 -0.69142,0 -1.1957,0.21314 -0.50427,0.20794 -0.81619,0.55106 -0.30673,0.34311 -0.47828,0.75381 -0.29113,0.70703 -0.29113,1.53361 0,1.01895 0.3483,1.70517 0.35352,0.68622 1.02415,1.01894 0.67064,0.33272 1.42445,0.33272 0.65503,0 1.27886,-0.24954 0.62385,-0.25473 0.94616,-0.54067 v -1.41923 z"
       style="font-style:normal;font-variant:normal;font-weight:normal;font-stretch:normal;font-size:13.2086px;line-height:1.25;font-family:Arial;-inkscape-font-specification:Arial;fill:#d2d2d2;fill-opacity:1;stroke-width:0.159702"
       id="path916" />
    <path
       d="m -122.05426,185.36068 q 0,-1.53361 0.85257,-2.27182 0.71223,-0.61344 1.73637,-0.61344 1.13851,0 1.86113,0.74861 0.72261,0.74341 0.72261,2.05867 0,1.06572 -0.32231,1.67917 -0.31712,0.60825 -0.93057,0.94616 -0.60824,0.33792 -1.33086,0.33792 -1.1593,0 -1.87672,-0.7434 -0.71222,-0.74342 -0.71222,-2.14187 z m 0.96175,0 q 0,1.06053 0.46269,1.5908 0.46268,0.52506 1.1645,0.52506 0.69663,0 1.15931,-0.53026 0.46268,-0.53026 0.46268,-1.61679 0,-1.02414 -0.46788,-1.54921 -0.46268,-0.53027 -1.15411,-0.53027 -0.70182,0 -1.1645,0.52508 -0.46269,0.52506 -0.46269,1.58559 z"
       style="font-style:normal;font-variant:normal;font-weight:normal;font-stretch:normal;font-size:13.2086px;line-height:1.25;font-family:Arial;-inkscape-font-specification:Arial;fill:#d2d2d2;fill-opacity:1;stroke-width:0.159702"
       id="path918" />
    <path
       d="m -116.12777,185.36068 q 0,-1.53361 0.85259,-2.27182 0.71223,-0.61344 1.73637,-0.61344 1.1385,0 1.86112,0.74861 0.72262,0.74341 0.72262,2.05867 0,1.06572 -0.32232,1.67917 -0.31712,0.60825 -0.93057,0.94616 -0.60824,0.33792 -1.33085,0.33792 -1.15931,0 -1.87673,-0.7434 -0.71223,-0.74342 -0.71223,-2.14187 z m 0.96176,0 q 0,1.06053 0.46269,1.5908 0.46268,0.52506 1.16451,0.52506 0.69661,0 1.1593,-0.53026 0.46268,-0.53026 0.46268,-1.61679 0,-1.02414 -0.46788,-1.54921 -0.46268,-0.53027 -1.1541,-0.53027 -0.70183,0 -1.16451,0.52508 -0.46269,0.52506 -0.46269,1.58559 z"
       style="font-style:normal;font-variant:normal;font-weight:normal;font-stretch:normal;font-size:13.2086px;line-height:1.25;font-family:Arial;-inkscape-font-specification:Arial;fill:#d2d2d2;fill-opacity:1;stroke-width:0.159702"
       id="path920" />
    <path
       d="m -110.02451,188.57866 0.90977,0.13518 q 0.0571,0.42108 0.31712,0.61344 0.34831,0.25993 0.95135,0.25993 0.64984,0 1.00335,-0.25993 0.35351,-0.25994 0.47828,-0.72782 0.0728,-0.28593 0.0677,-1.20089 -0.61345,0.72261 -1.5284,0.72261 -1.13851,0 -1.76236,-0.82139 -0.62384,-0.82139 -0.62384,-1.9703 0,-0.79021 0.28593,-1.45563 0.28592,-0.67063 0.82659,-1.03454 0.54586,-0.3639 1.27887,-0.3639 0.97735,0 1.6116,0.79018 v -0.66542 h 0.86298 v 4.77239 q 0,1.28927 -0.26514,1.82474 -0.25993,0.54066 -0.83178,0.85259 -0.56667,0.31191 -1.39845,0.31191 -0.98775,0 -1.596,-0.44709 -0.60824,-0.44189 -0.58744,-1.33606 z m 0.7746,-3.31676 q 0,1.08652 0.43149,1.5856 0.43149,0.49908 1.08132,0.49908 0.64464,0 1.08134,-0.49388 0.43668,-0.49907 0.43668,-1.55961 0,-1.01373 -0.45228,-1.5284 -0.44709,-0.51468 -1.08133,-0.51468 -0.62384,0 -1.06053,0.50948 -0.43669,0.50427 -0.43669,1.50241 z"
       style="font-style:normal;font-variant:normal;font-weight:normal;font-stretch:normal;font-size:13.2086px;line-height:1.25;font-family:Arial;-inkscape-font-specification:Arial;fill:#d2d2d2;fill-opacity:1;stroke-width:0.159702"
       id="path922" />
    <path
       d="m -103.94725,188.12118 v -7.62127 h 0.93576 v 7.62127 z"
       style="font-style:normal;font-variant:normal;font-weight:normal;font-stretch:normal;font-size:13.2086px;line-height:1.25;font-family:Arial;-inkscape-font-specification:Arial;fill:#d2d2d2;fill-opacity:1;stroke-width:0.159702"
       id="path924" />
    <path
       d="m -97.776445,186.34323 0.966954,0.11957 q -0.228747,0.84738 -0.847374,1.31527 -0.618647,0.46788 -1.580401,0.46788 -1.211284,0 -1.923494,-0.7434 -0.70702,-0.74862 -0.70702,-2.09508 0,-1.39325 0.71742,-2.16265 0.71741,-0.7694 1.861124,-0.7694 1.107304,0 1.809131,0.75381 0.701814,0.75381 0.701814,2.12106 0,0.0831 -0.005,0.24953 h -4.117339 q 0.0521,0.90977 0.51467,1.39324 0.462677,0.48348 1.154104,0.48348 0.514657,0 0.878574,-0.27032 0.3639,-0.27034 0.577047,-0.86299 z m -3.072395,-1.51281 h 3.082805 q -0.0624,-0.69663 -0.353507,-1.04495 -0.447087,-0.54065 -1.159314,-0.54065 -0.644627,0 -1.086504,0.43148 -0.43669,0.4315 -0.48348,1.15412 z"
       style="font-style:normal;font-variant:normal;font-weight:normal;font-stretch:normal;font-size:13.2086px;line-height:1.25;font-family:Arial;-inkscape-font-specification:Arial;fill:#d2d2d2;fill-opacity:1;stroke-width:0.159702"
       id="path926" />
    <path
       d="m -85.603634,188.12118 v -3.22838 l -2.937232,-4.39289 h 1.226884 l 1.502401,2.29782 q 0.415897,0.64464 0.774604,1.28928 0.34312,-0.59786 0.831787,-1.34647 l 1.476411,-2.24063 h 1.174894 l -3.041215,4.39289 v 3.22838 z"
       style="font-style:normal;font-variant:normal;font-weight:normal;font-stretch:normal;font-size:13.2086px;line-height:1.25;font-family:Arial;-inkscape-font-specification:Arial;fill:#d2d2d2;fill-opacity:1;stroke-width:0.159702"
       id="path928" />
    <path
       d="m -77.946026,187.44016 q -0.519857,0.44188 -1.003334,0.62383 -0.478267,0.18196 -1.029324,0.18196 -0.909777,0 -1.398434,-0.44189 -0.488687,-0.44708 -0.488687,-1.13852 0,-0.40548 0.18196,-0.73821 0.18715,-0.33791 0.483467,-0.54066 0.301527,-0.20275 0.675827,-0.30672 0.275527,-0.0728 0.831784,-0.14036 1.133304,-0.13517 1.668771,-0.32232 0.005,-0.19235 0.005,-0.24434 0,-0.57186 -0.26513,-0.8058 -0.358707,-0.31712 -1.065724,-0.31712 -0.660224,0 -0.977344,0.23394 -0.311917,0.22875 -0.462687,0.8162 l -0.914964,-0.12477 q 0.12477,-0.58745 0.410697,-0.94615 0.28592,-0.36392 0.826587,-0.55627 0.540657,-0.19754 1.252871,-0.19754 0.707017,0 1.148904,0.16635 0.441887,0.16636 0.649837,0.42109 0.207937,0.24954 0.291117,0.63425 0.0468,0.23913 0.0468,0.86298 v 1.24768 q 0,1.30487 0.0572,1.65317 0.0624,0.34312 0.23915,0.66024 h -0.977357 q -0.145557,-0.29113 -0.187157,-0.68102 z m -0.0779,-2.08987 q -0.509467,0.20794 -1.528401,0.3535 -0.577047,0.0832 -0.816197,0.18716 -0.239137,0.10398 -0.369087,0.30672 -0.12997,0.19755 -0.12997,0.4419 0,0.3743 0.28072,0.62383 0.285927,0.24953 0.831784,0.24953 0.540657,0 0.961744,-0.23393 0.4211,-0.23914 0.618647,-0.64984 0.15076,-0.31712 0.15076,-0.93576 z"
       style="font-style:normal;font-variant:normal;font-weight:normal;font-stretch:normal;font-size:13.2086px;line-height:1.25;font-family:Arial;-inkscape-font-specification:Arial;fill:#d2d2d2;fill-opacity:1;stroke-width:0.159702"
       id="path930" />
    <path
       d="m -75.622231,188.12118 v -5.521 h 0.842187 v 0.785 q 0.608237,-0.90976 1.757141,-0.90976 0.499067,0 0.914974,0.18194 0.421087,0.17676 0.629037,0.46789 0.207937,0.29113 0.291117,0.69142 0.052,0.25994 0.052,0.90977 v 3.39474 h -0.935764 v -3.35835 q 0,-0.57185 -0.10917,-0.85259 -0.10917,-0.28591 -0.389897,-0.45227 -0.27553,-0.17156 -0.649837,-0.17156 -0.597837,0 -1.034524,0.37951 -0.431487,0.3795 -0.431487,1.44002 v 3.01524 z"
       style="font-style:normal;font-variant:normal;font-weight:normal;font-stretch:normal;font-size:13.2086px;line-height:1.25;font-family:Arial;-inkscape-font-specification:Arial;fill:#d2d2d2;fill-opacity:1;stroke-width:0.159702"
       id="path932" />
    <path
       d="m -66.113915,188.12118 v -0.69662 q -0.525067,0.82139 -1.543991,0.82139 -0.660224,0 -1.216481,-0.36391 -0.551047,-0.36391 -0.857777,-1.01375 -0.301517,-0.65502 -0.301517,-1.5024 0,-0.82661 0.275527,-1.49723 0.27553,-0.67583 0.826587,-1.03454 0.551047,-0.3587 1.232071,-0.3587 0.49907,0 0.888967,0.21314 0.389887,0.20795 0.634227,0.54586 v -2.73451 h 0.930554 v 7.62127 z m -2.958012,-2.75529 q 0,1.06052 0.447077,1.58559 0.447087,0.52506 1.055314,0.52506 0.613437,0 1.039724,-0.49907 0.431487,-0.50428 0.431487,-1.53361 0,-1.1333 -0.436677,-1.66358 -0.436687,-0.53027 -1.076124,-0.53027 -0.623827,0 -1.044924,0.50948 -0.415877,0.50946 -0.415877,1.6064 z"
       style="font-style:normal;font-variant:normal;font-weight:normal;font-stretch:normal;font-size:13.2086px;line-height:1.25;font-family:Arial;-inkscape-font-specification:Arial;fill:#d2d2d2;fill-opacity:1;stroke-width:0.159702"
       id="path934" />
    <path
       d="m -59.989918,186.34323 0.966944,0.11957 q -0.22874,0.84738 -0.847374,1.31527 -0.618647,0.46788 -1.580391,0.46788 -1.211284,0 -1.923501,-0.7434 -0.707004,-0.74862 -0.707004,-2.09508 0,-1.39325 0.717394,-2.16265 0.717417,-0.7694 1.861121,-0.7694 1.107314,0 1.809128,0.75381 0.701827,0.75381 0.701827,2.12106 0,0.0831 -0.005,0.24953 h -4.117336 q 0.052,0.90977 0.514667,1.39324 0.462687,0.48348 1.154104,0.48348 0.514667,0 0.878574,-0.27032 0.363907,-0.27034 0.577047,-0.86299 z m -3.072412,-1.51281 h 3.082812 q -0.0624,-0.69663 -0.353507,-1.04495 -0.44709,-0.54065 -1.159304,-0.54065 -0.644637,0 -1.086514,0.43148 -0.436687,0.4315 -0.483487,1.15412 z"
       style="font-style:normal;font-variant:normal;font-weight:normal;font-stretch:normal;font-size:13.2086px;line-height:1.25;font-family:Arial;-inkscape-font-specification:Arial;fill:#d2d2d2;fill-opacity:1;stroke-width:0.159702"
       id="path936" />
    <path
       d="m -58.466707,188.12118 2.017068,-2.86967 -1.866308,-2.65133 h 1.169694 l 0.847384,1.29446 q 0.239127,0.36912 0.384697,0.61866 0.22874,-0.34311 0.421087,-0.60825 l 0.930557,-1.30487 h 1.117714 l -1.907901,2.59934 2.053458,2.92166 h -1.148894 l -1.133311,-1.71556 -0.30152,-0.46269 -1.450421,2.17825 z"
       style="font-style:normal;font-variant:normal;font-weight:normal;font-stretch:normal;font-size:13.2086px;line-height:1.25;font-family:Arial;-inkscape-font-specification:Arial;fill:#d2d2d2;fill-opacity:1;stroke-width:0.159702"
       id="path938" />
    <g
       transform="matrix(0.75098614,0,0,0.75098614,-21.883413,35.310524)"
       style="font-size:13.7583px;line-height:1.25;font-family:sans-serif;fill:#d2d2d2;fill-opacity:1;stroke-width:0.264583"
       id="text63"
       aria-label="Sber">
      <path
         id="path921"
         style="font-size:13.7583px;fill:#d2d2d2;fill-opacity:1;stroke-width:0.264583"
         d="m -179.62501,193.55506 v 1.32343 q -0.77256,-0.36948 -1.45779,-0.55087 -0.68523,-0.18138 -1.32343,-0.18138 -1.10846,0 -1.71307,0.42994 -0.5979,0.42995 -0.5979,1.22267 0,0.66507 0.39636,1.00768 0.40308,0.3359 1.51825,0.54416 l 0.81959,0.16794 q 1.51825,0.28887 2.23706,1.02113 0.72554,0.72553 0.72554,1.94819 0,1.45779 -0.98082,2.2102 -0.9741,0.75241 -2.86183,0.75241 -0.7121,0 -1.51825,-0.16123 -0.79943,-0.16123 -1.65933,-0.47698 v -1.39732 q 0.82631,0.46353 1.61902,0.69866 0.79272,0.23513 1.55856,0.23513 1.1622,0 1.79368,-0.45682 0.63149,-0.45682 0.63149,-1.30328 0,-0.73897 -0.45682,-1.15548 -0.4501,-0.41651 -1.48466,-0.62477 l -0.82631,-0.16123 q -1.51825,-0.3023 -2.19675,-0.94722 -0.67851,-0.64492 -0.67851,-1.79369 0,-1.33015 0.93379,-2.09599 0.9405,-0.76584 2.5864,-0.76584 0.70538,0 1.43763,0.12764 0.73225,0.12764 1.4981,0.38292 z" />
      <path
         id="path923"
         style="font-size:13.7583px;fill:#d2d2d2;fill-opacity:1;stroke-width:0.264583"
         d="m -171.55679,199.50042 q 0,-1.36374 -0.56431,-2.1363 -0.55759,-0.77928 -1.5384,-0.77928 -0.98082,0 -1.54512,0.77928 -0.55759,0.77256 -0.55759,2.1363 0,1.36374 0.55759,2.14302 0.5643,0.77256 1.54512,0.77256 0.98081,0 1.5384,-0.77256 0.56431,-0.77928 0.56431,-2.14302 z m -4.20542,-2.62671 q 0.38964,-0.67179 0.98082,-0.99425 0.59789,-0.32918 1.42419,-0.32918 1.37046,0 2.22364,1.08831 0.85989,1.0883 0.85989,2.86183 0,1.77353 -0.85989,2.86183 -0.85318,1.08831 -2.22364,1.08831 -0.8263,0 -1.42419,-0.32246 -0.59118,-0.32918 -0.98082,-1.00097 v 1.12861 h -1.24282 v -10.45309 h 1.24282 z" />
      <path
         id="path925"
         style="font-size:13.7583px;fill:#d2d2d2;fill-opacity:1;stroke-width:0.264583"
         d="m -161.78894,199.18468 v 0.60461 h -5.68336 q 0.0806,1.27641 0.76585,1.9482 0.69194,0.66507 1.92132,0.66507 0.7121,0 1.37717,-0.17466 0.6718,-0.17467 1.33015,-0.524 v 1.16892 q -0.66507,0.28215 -1.36374,0.42994 -0.69866,0.1478 -1.41748,0.1478 -1.8004,0 -2.85511,-1.048 -1.048,-1.04799 -1.048,-2.83496 0,-1.84743 0.99425,-2.92901 1.00097,-1.08831 2.69389,-1.08831 1.51825,0 2.3983,0.98082 0.88676,0.9741 0.88676,2.65358 z m -1.23609,-0.36277 q -0.0134,-1.01441 -0.57103,-1.61902 -0.55087,-0.60461 -1.4645,-0.60461 -1.03456,0 -1.65933,0.58446 -0.61805,0.58446 -0.7121,1.64589 z" />
      <path
         id="path927"
         style="font-size:13.7583px;fill:#d2d2d2;fill-opacity:1;stroke-width:0.264583"
         d="m -155.4002,196.88715 q -0.20825,-0.12092 -0.45681,-0.17467 -0.24185,-0.0605 -0.53744,-0.0605 -1.04799,0 -1.6123,0.68523 -0.55759,0.67851 -0.55759,1.95491 v 3.96358 h -1.24281 v -7.52407 h 1.24281 v 1.16892 q 0.38964,-0.68523 1.01441,-1.01441 0.62477,-0.3359 1.51825,-0.3359 0.12764,0 0.28215,0.0202 0.15451,0.0134 0.34262,0.047 z" />
    </g>
    <path
       id="path12356"
       d="m -105.67035,143.17525 c -0.16257,-0.0335 -0.17328,-0.0679 -0.16792,-0.5395 0.005,-0.2229 0.01,-0.42787 0.0173,-0.45549 0.007,-0.0276 0.007,-0.0598 0,-0.0714 -0.008,-0.0121 -0.14472,0.0111 -0.31909,0.0539 -0.42167,0.10345 -0.68996,0.14433 -1.17828,0.17951 -0.23006,0.0166 -0.42436,0.0362 -0.43171,0.0435 -0.008,0.008 0.0367,0.045 0.0977,0.0836 0.12852,0.0811 0.40697,0.17561 0.58406,0.19806 0.0673,0.009 0.13532,0.0222 0.15098,0.0306 0.0445,0.0234 -0.0241,0.10516 -0.1498,0.17904 -0.0977,0.0575 -0.12575,0.0628 -0.30237,0.0579 -0.10705,-0.003 -0.23071,-0.0138 -0.27483,-0.0241 l -0.0801,-0.0187 0.0973,-0.0648 c 0.0535,-0.0357 0.0973,-0.0729 0.0973,-0.0829 0,-0.01 -0.14958,-0.10903 -0.33239,-0.22025 -0.3268,-0.19883 -0.33211,-0.20336 -0.31818,-0.27091 0.008,-0.0378 0.0209,-0.0754 0.0291,-0.0835 0.009,-0.009 0.10232,-0.007 0.2094,0.004 0.72438,0.0713 1.1057,-0.007 2.01534,-0.40969 0.37565,-0.16661 0.46557,-0.19806 0.5663,-0.19806 0.0983,0 0.13034,0.0106 0.17909,0.0594 0.089,0.089 0.10287,0.19556 0.0773,0.59332 -0.0399,0.61778 -0.10196,0.89617 -0.20891,0.9359 -0.0869,0.0323 -0.25253,0.0417 -0.35649,0.0203 z"
       style="fill:#d2d2d2;fill-opacity:1;stroke-width:0.0229015" />
    <path
       id="path12328"
       d="m -105.77871,145.37709 c -0.20891,-0.12098 -0.34401,-0.38613 -0.41292,-0.81059 -0.11321,-0.69705 0.0818,-1.00131 0.64193,-1.00131 0.0951,0 0.22276,0.0177 0.3003,0.0416 l 0.13483,0.0416 -0.2061,0.0152 c -0.281,0.0206 -0.43938,0.084 -0.56826,0.22743 -0.0603,0.0671 -0.11236,0.15352 -0.1297,0.21552 -0.0427,0.15185 -0.02,0.49624 0.0432,0.65928 0.0883,0.22835 0.31913,0.43946 0.55732,0.50979 l 0.0953,0.0281 -0.0653,0.0428 c -0.0777,0.0509 -0.32235,0.0701 -0.39048,0.0306 z"
       style="fill:#d2d2d2;fill-opacity:1;stroke-width:0.0229015" />
    <path
       id="path12326"
       d="m -106.64177,145.47005 c -0.0893,-0.052 -0.57557,-0.2367 -0.81213,-0.30853 -0.19066,-0.0579 -0.92733,-0.19425 -1.0494,-0.19425 -0.007,0 -0.0123,-0.0341 -0.0123,-0.0758 v -0.0758 l 0.52105,0.0747 c 0.28654,0.0411 0.61947,0.0818 0.73991,0.0904 l 0.21889,0.0156 0.0822,-0.0721 c 0.10642,-0.0934 0.14095,-0.18435 0.21119,-0.55589 0.0491,-0.25975 0.15053,-0.88143 0.15053,-0.9226 0,-0.007 0.0363,-0.0129 0.0802,-0.0129 0.044,0 0.0802,0.009 0.0802,0.0186 0,0.0102 -0.0272,0.19831 -0.0606,0.41796 -0.0836,0.5513 -0.0844,0.90788 -0.005,1.23527 0.0332,0.13226 0.0663,0.25634 0.0737,0.27573 0.01,0.0253 -0.0109,0.0447 -0.0728,0.0686 -0.0476,0.0183 -0.0917,0.0357 -0.0979,0.0385 -0.007,0.003 -0.0286,-0.005 -0.0501,-0.0174 z"
       style="fill:#d2d2d2;fill-opacity:1;stroke-width:0.0229015" />
    <path
       id="path12324"
       d="m -106.62606,146.60197 c -0.0254,-0.007 -0.1248,-0.0313 -0.22135,-0.0555 -0.25685,-0.0644 -0.53244,-0.19232 -0.95407,-0.44255 -0.66301,-0.3935 -1.10143,-0.58773 -1.40795,-0.62375 -0.0717,-0.009 -0.13046,-0.0241 -0.13046,-0.0348 0,-0.0324 0.17064,-0.12963 0.32454,-0.18494 0.12651,-0.0455 0.18866,-0.0521 0.48844,-0.052 0.33416,1e-4 0.34983,0.002 0.57339,0.0808 0.12648,0.0444 0.45859,0.20223 0.73809,0.35071 0.7453,0.39595 1.03892,0.48805 1.64281,0.51529 l 0.32063,0.0145 -0.0868,0.0801 c -0.12746,0.11762 -0.34981,0.24661 -0.51977,0.30151 -0.11136,0.036 -0.22185,0.05 -0.43548,0.0551 -0.15744,0.004 -0.30687,0.002 -0.33207,-0.005 z"
       style="fill:#d2d2d2;fill-opacity:1;stroke-width:0.0229015" />
    <path
       id="path12320"
       d="m -106.44284,148.24028 c -0.17047,-0.0336 -0.44651,-0.12875 -0.54298,-0.18714 l -0.0849,-0.0514 h 0.35971 c 0.40952,0 0.59368,-0.041 0.79764,-0.17726 0.21268,-0.14212 0.37974,-0.47534 0.45083,-0.89911 0.0345,-0.20465 0.0566,-0.19833 0.10477,0.0297 0.1394,0.65989 -0.23723,1.26967 -0.80231,1.29901 -0.0926,0.005 -0.21981,-9.6e-4 -0.28278,-0.0138 z"
       style="fill:#d2d2d2;fill-opacity:1;stroke-width:0.0229015" />
    <path
       id="path12318"
       d="m -100.65933,148.77239 c -0.0436,-0.0711 -0.19652,-0.24257 -0.33979,-0.3812 -0.28785,-0.27848 -0.44007,-0.47358 -0.49154,-0.62994 -0.0813,-0.24686 -0.0659,-0.62828 0.0359,-0.89068 l 0.0499,-0.12844 0.0131,0.22902 c 0.0168,0.29026 0.0659,0.43748 0.19425,0.5802 0.15602,0.17357 0.27105,0.21256 0.68593,0.2325 0.47174,0.0226 0.548826,0.0547 0.984894,0.40908 0.125973,0.10236 0.290894,0.21973 0.366432,0.26082 0.126245,0.0687 0.154208,0.0747 0.343552,0.0747 0.175953,0 0.225343,-0.009 0.337788,-0.0618 0.07245,-0.034 0.131691,-0.0566 0.131691,-0.0504 0,0.0365 -0.08552,0.17033 -0.157113,0.24573 -0.107904,0.11366 -0.231925,0.17646 -0.378462,0.19158 -0.162061,0.0167 -0.222119,-0.0132 -0.609796,-0.30452 -0.380777,-0.28608 -0.508476,-0.36026 -0.707936,-0.41137 -0.22417,-0.0574 -0.45174,-0.003 -0.50299,0.12114 -0.0295,0.0714 -0.0336,0.0542 0.10414,0.42786 0.0181,0.0493 0.03,0.11777 0.0263,0.15219 -0.006,0.0585 -0.0123,0.0542 -0.0862,-0.0666 z"
       style="fill:#d2d2d2;fill-opacity:1;stroke-width:0.0229015" />
    <path
       id="path12290"
       d="m -104.56161,152.39554 c -0.0332,-0.01 -0.0128,-0.0302 0.0916,-0.0929 0.32008,-0.19204 0.61524,-0.48681 0.75964,-0.75855 0.21904,-0.41224 0.18,-0.91809 -0.10776,-1.3969 -0.10323,-0.17178 -0.34818,-0.49058 -0.36444,-0.47433 -0.005,0.004 0.0163,0.0525 0.0455,0.10725 0.0454,0.0851 0.0531,0.13288 0.0531,0.32905 0,0.21201 -0.006,0.24087 -0.0735,0.37868 -0.0838,0.17033 -0.14259,0.23318 -0.26606,0.28479 l -0.087,0.0363 0.0902,-0.12113 c 0.11154,-0.14976 0.14699,-0.25654 0.14594,-0.43976 0,-0.27851 -0.14372,-0.53619 -0.32298,-0.5857 -0.15703,-0.0434 -0.25812,0.0989 -0.29285,0.41194 l -0.0191,0.17176 -0.0838,-0.25192 c -0.14608,-0.43875 -0.20169,-0.80039 -0.20169,-1.3114 0,-1.45089 0.51433,-2.54641 1.50004,-3.19528 0.41065,-0.2703 0.8173,-0.44351 1.28805,-0.54863 0.19239,-0.043 0.29517,-0.0501 0.73877,-0.0508 0.57874,-9.1e-4 0.70553,0.0177 1.15486,0.16982 0.20573,0.0697 0.787792,0.27662 0.808447,0.28742 0.0045,9.5e-4 0.02134,0.12061 0.04131,0.26469 0.08884,0.6424 0.235875,1.07426 0.467436,1.37267 0.102775,0.13249 0.106634,0.14574 0.03086,0.10654 -0.03677,-0.0191 -0.09647,-0.0771 -0.132464,-0.12905 -0.112398,-0.16222 -0.232151,-0.24005 -0.544563,-0.35401 -0.06006,-0.0219 -0.124474,-0.055 -0.143086,-0.0737 -0.04086,-0.041 -0.02224,-0.0838 0.104364,-0.23683 0.13378,-0.1619 0.144721,-0.19327 0.09996,-0.28757 -0.04312,-0.0912 -0.152756,-0.17325 -0.387174,-0.29018 -0.32676,-0.16295 -0.62115,-0.23132 -0.99621,-0.23132 -0.85788,0 -1.56627,0.44238 -1.95904,1.22338 -0.22929,0.45603 -0.35735,0.96013 -0.35717,1.40636 0,0.45208 0.0739,0.71918 0.39045,1.41371 0.28186,0.61852 0.37469,0.95132 0.37537,1.34592 0,0.35251 -0.0915,0.62435 -0.29847,0.88116 -0.20786,0.25781 -0.53794,0.475 -0.88789,0.58418 -0.15743,0.0491 -0.56445,0.0826 -0.66082,0.0544 z"
       style="fill:#d2d2d2;fill-opacity:1;stroke-width:0.0229015" />
    <path
       id="path12288"
       d="m -116.08701,155.81722 c -0.0464,-0.0408 -0.0983,-0.10739 -0.1153,-0.14812 -0.0386,-0.0922 -0.0399,-0.30311 -0.005,-0.42783 0.0354,-0.11883 0.18744,-0.27345 0.38423,-0.39051 0.0819,-0.0487 0.18331,-0.12047 0.22534,-0.15952 0.13996,-0.12987 0.25562,-0.42868 0.25562,-0.66035 v -0.11029 l 0.0721,0.0373 c 0.1104,0.0571 0.27837,0.23705 0.34037,0.36463 0.0811,0.16709 0.0896,0.38269 0.0204,0.52942 -0.0515,0.10968 -0.0526,0.11051 -0.0603,0.0432 -0.01,-0.0855 -0.0736,-0.26336 -0.0946,-0.26336 -0.009,0 -0.0282,0.052 -0.0432,0.11543 -0.0506,0.21261 -0.19393,0.34848 -0.46022,0.43601 -0.31818,0.10458 -0.44614,0.24961 -0.43288,0.49057 0.005,0.0756 0.0159,0.15545 0.0259,0.17749 0.0291,0.0631 -0.0214,0.0481 -0.11513,-0.034 z"
       style="fill:#d2d2d2;fill-opacity:1;stroke-width:0.0229015" />
    <path
       id="path12286"
       d="m -108.42958,156.5078 c -0.0552,-0.0321 -0.10877,-0.14247 -0.10877,-0.22399 0,-0.0373 0.0204,-0.13314 0.0455,-0.21298 0.0539,-0.17201 0.0589,-0.3664 0.0127,-0.4971 -0.0181,-0.0519 -0.0948,-0.20517 -0.16981,-0.34067 -0.1411,-0.25462 -0.20915,-0.44013 -0.20915,-0.57026 0,-0.0926 0.0826,-0.34674 0.19403,-0.59787 0.13455,-0.30285 0.21821,-0.67344 0.21821,-0.96638 0,-0.40609 -0.12247,-0.76988 -0.31891,-0.94733 l -0.0935,-0.0846 -0.40638,0.003 c -0.35462,0.003 -0.42535,-0.003 -0.55527,-0.045 -0.22266,-0.0716 -0.39702,-0.18806 -0.65201,-0.43545 -0.36095,-0.35023 -0.66254,-0.54131 -0.94786,-0.60055 -0.29406,-0.0611 -0.67403,-0.003 -0.99561,0.15213 -0.13677,0.066 -0.13905,0.0646 -0.2356,-0.14139 -0.12075,-0.25756 -0.11839,-0.51524 0.007,-0.74527 0.0718,-0.13201 0.31041,-0.36434 0.44418,-0.4326 0.23184,-0.11826 0.23583,-0.1916 0.0322,-0.5892 -0.27623,-0.53922 -0.22303,-0.73294 0.26388,-0.96143 0.85942,-0.40325 1.10587,-0.53535 1.24243,-0.66585 0.14045,-0.13426 0.11085,-0.24141 -0.0958,-0.34683 -0.12574,-0.0642 -0.24327,-0.18673 -0.277,-0.28892 -0.0604,-0.18329 0.0599,-0.43808 0.25385,-0.53699 0.0486,-0.0248 0.0926,-0.0451 0.0975,-0.0451 0.005,0 -0.005,0.0541 -0.0222,0.12023 -0.0363,0.13879 -0.0222,0.23682 0.0386,0.26929 0.0231,0.0125 0.15388,0.0229 0.29011,0.0232 0.26893,4.6e-4 0.41474,0.0426 0.4634,0.13346 0.0136,0.0258 0.0249,0.17105 0.0254,0.32829 0,0.44915 0.0791,0.55375 0.51341,0.68528 0.3022,0.0915 0.49613,0.16752 0.61479,0.24092 0.10215,0.0632 0.26824,0.21236 0.26824,0.24091 0,0.01 -0.046,-0.004 -0.10231,-0.0283 -0.2421,-0.10708 -0.43998,-0.14066 -0.89829,-0.15239 -1.01123,-0.0259 -2.07688,0.17202 -2.27372,0.42227 -0.0514,0.0654 -0.0787,0.20941 -0.0578,0.30475 0.0191,0.0863 0.1169,0.20617 0.1681,0.20574 0.0209,-2e-4 0.10404,-0.0565 0.18476,-0.12505 0.21377,-0.18175 0.27555,-0.20686 0.50593,-0.20576 0.18253,9.1e-4 0.20937,0.008 0.42935,0.10867 0.30052,0.138 0.51523,0.19741 0.77299,0.21389 0.26334,0.0169 0.46735,-0.0253 0.72351,-0.14951 0.22857,-0.11083 0.37992,-0.14389 0.52967,-0.11577 0.11835,0.0222 0.26861,0.0913 0.31178,0.14334 0.0236,0.0286 0.0127,0.0302 -0.0816,0.0119 -0.12316,-0.024 -0.29892,-0.008 -0.4067,0.0369 -0.13319,0.0556 -0.23755,0.17131 -0.32974,0.36543 -0.1401,0.29482 -0.35028,0.44667 -0.76251,0.55088 -0.11113,0.0281 -0.20719,0.0562 -0.21345,0.0625 -0.0123,0.0124 0.62336,0.14024 0.90359,0.18181 0.24773,0.0367 0.58352,0.0175 0.71108,-0.0408 0.20069,-0.0917 0.35113,-0.29693 0.38708,-0.5282 l 0.0168,-0.10922 0.0268,0.0916 c 0.044,0.15023 0.034,0.42654 -0.0209,0.57321 -0.0696,0.18616 -0.27146,0.39348 -0.49748,0.51108 -0.34528,0.17963 -0.82361,0.27179 -1.10139,0.21223 -0.0678,-0.0145 -0.12942,-0.02 -0.13704,-0.0124 -0.0264,0.0269 0.24068,0.2518 0.33125,0.27883 0.0588,0.0175 0.1739,0.0222 0.33189,0.0131 0.16714,-0.01 0.26892,-0.005 0.32933,0.0152 0.1041,0.0343 0.24423,0.15561 0.31401,0.27175 0.0277,0.046 0.053,0.0874 0.0564,0.0919 0.005,0.005 0.16387,-0.0694 0.35672,-0.16433 0.35204,-0.17326 0.91281,-0.4142 1.2314,-0.52907 l 0.17082,-0.0616 0.11544,0.13024 c 0.44115,0.49786 0.77598,1.09444 0.86927,1.54883 0.0445,0.21662 0.0465,0.58423 0.005,0.74323 -0.0409,0.15377 -0.13283,0.35317 -0.20841,0.4523 -0.0579,0.076 -0.16723,0.16309 -0.18376,0.14653 -0.005,-0.005 0.0314,-0.0865 0.0796,-0.18246 0.15584,-0.31009 0.17041,-0.63728 0.045,-1.00731 -0.12052,-0.35531 -0.45104,-0.91144 -0.73499,-1.23667 l -0.10713,-0.12271 -0.67213,0.33724 c -0.36966,0.18549 -0.69046,0.35067 -0.71284,0.36706 -0.0377,0.0274 -0.0264,0.0504 0.14658,0.29254 0.28427,0.39855 0.3273,0.52153 0.26171,0.74747 -0.0213,0.0735 -0.0947,0.22596 -0.16302,0.33882 -0.24309,0.40149 -0.3165,0.7752 -0.29938,1.52386 0.0136,0.59974 0.0555,0.85851 0.15765,0.97478 0.0872,0.0993 0.24577,0.15718 0.59342,0.2165 0.30591,0.0522 0.44205,0.0976 0.42734,0.14241 -0.006,0.0159 -0.0758,0.0536 -0.15661,0.0838 -0.12556,0.0468 -0.19238,0.0554 -0.45627,0.0587 -0.24731,0.003 -0.34059,0.0139 -0.46616,0.0539 -0.16742,0.0534 -0.32145,0.0635 -0.38696,0.0254 z"
       style="fill:#d2d2d2;fill-opacity:1;stroke-width:0.0229015" />
    <path
       id="path12262"
       d="m -95.850325,159.12615 c -0.17736,-0.10348 -0.502345,-0.41667 -0.57003,-0.54935 -0.06087,-0.11928 -0.06119,-0.19062 0,-0.42255 0.05661,-0.22173 0.06151,-0.46083 0.01181,-0.57971 -0.01998,-0.0475 -0.08752,-0.15573 -0.15044,-0.24058 -0.186485,-0.25154 -0.210862,-0.32619 -0.192749,-0.58975 l 0.01543,-0.22357 -0.165376,-0.4807 c -0.244045,-0.70949 -0.407378,-1.02901 -0.579699,-1.13407 -0.114533,-0.0698 -0.188027,-0.057 -0.380595,0.0664 -0.796053,0.50998 -1.630557,0.61502 -2.475686,0.31161 -0.45618,-0.16377 -0.87023,-0.4717 -0.87023,-0.64716 0,-0.0805 0.18458,-0.21464 0.57044,-0.41482 0.20387,-0.10576 0.41655,-0.22729 0.47261,-0.27008 0.185625,-0.14175 0.201831,-0.22948 0.12402,-0.67125 -0.0579,-0.32894 -0.0607,-0.63774 -0.0104,-1.12218 0.0675,-0.64716 0.0295,-1.32501 -0.1045,-1.86443 -0.0245,-0.0996 -0.0413,-0.18489 -0.0368,-0.18942 0.0154,-0.0155 0.497082,0.47877 0.681342,0.69951 0.338695,0.40573 0.623279,0.8631 0.777396,1.24949 0.03995,0.0998 0.107542,0.32135 0.150486,0.49238 0.12225,0.48643 0.234104,0.66595 0.41505,0.66595 0.133508,0 0.24963,-0.0895 0.618739,-0.47694 0.408332,-0.42861 0.480964,-0.47371 0.655646,-0.40701 0.21935,0.0837 0.449051,0.40534 0.85475,1.19655 0.628817,1.22634 1.173743,2.66667 1.147551,3.03312 -0.01226,0.17347 -0.104592,0.15003 -0.506069,-0.1287 -0.302606,-0.21009 -0.394259,-0.29316 -0.449596,-0.40743 -0.05742,-0.11864 -0.05996,-0.23353 -0.0109,-0.49476 0.06996,-0.3727 0.01679,-0.66997 -0.169233,-0.94864 -0.15775,-0.23617 -0.745666,-0.97996 -0.835049,-1.05649 -0.203417,-0.1741 -0.351814,-0.11392 -0.767273,0.31112 -0.26125,0.26723 -0.265245,0.27389 -0.234285,0.38878 0.02406,0.0901 0.0286,0.0938 0.09833,0.081 0.03995,-0.008 0.188528,-0.0202 0.329844,-0.0287 0.216355,-0.0129 0.273825,-0.009 0.363481,0.0254 0.09728,0.0371 0.11249,0.0539 0.175271,0.19231 0.09411,0.20758 0.189889,0.50641 0.429713,1.3407 0.264792,0.92126 0.264656,0.92098 0.444921,1.36445 0.384816,0.94681 0.577429,1.71129 0.486184,1.9297 -0.04735,0.11335 -0.117711,0.1133 -0.31232,-2.1e-4 z"
       style="fill:#d2d2d2;fill-opacity:1;stroke-width:0.0229015" />
    <path
       id="path12260"
       d="m -99.921565,159.36199 c -0.05348,-0.0306 -0.189025,-0.13669 -0.301195,-0.23579 -0.24228,-0.21409 -0.37974,-0.29092 -0.74631,-0.41709 -0.15094,-0.052 -0.31863,-0.12037 -0.37265,-0.15202 -0.20832,-0.12209 -0.28417,-0.35493 -0.18821,-0.57794 0.0839,-0.195 0.0377,-0.3821 -0.21703,-0.88081 -0.14908,-0.29184 -0.5492,-0.85292 -5.2503,-7.36283 -2.7989,-3.87582 -5.12024,-7.08951 -5.15855,-7.14155 l -0.0696,-0.0947 0.0785,-0.0598 0.0784,-0.0598 0.52455,0.72695 c 2.28914,3.17255 11.681686,16.17823 11.726174,16.23701 0.06886,0.0909 0.03405,0.0971 -0.103592,0.0183 z"
       style="fill:#d2d2d2;fill-opacity:1;stroke-width:0.0229015" />
    <path
       id="path12258"
       d="m -101.18152,160.29984 c -0.0141,-0.0503 -0.0413,-0.1862 -0.061,-0.30183 -0.064,-0.3788 -0.16833,-0.56727 -0.34647,-0.62606 -0.0682,-0.0225 -0.11784,-0.0149 -0.38022,0.0586 -0.61811,0.17316 -0.81812,0.15127 -1.33486,-0.14609 -0.22352,-0.12864 -0.33062,-0.16024 -0.41409,-0.12219 -0.11041,0.0503 -0.13225,0.12064 -0.13837,0.44629 -0.005,0.16606 -0.0159,0.32769 -0.0281,0.35918 -0.0599,0.15312 -0.19006,0.18416 -0.53221,0.12694 -0.25312,-0.0423 -0.91477,-0.2145 -1.31533,-0.34228 -0.13814,-0.0441 -0.25376,-0.0775 -0.25694,-0.0743 -0.005,0.003 0.0195,0.079 0.0508,0.16857 0.0613,0.17626 0.0561,0.23577 -0.0204,0.23534 -0.0943,-4.6e-4 -0.4402,-0.23666 -0.69796,-0.47643 -0.22625,-0.21042 -0.12388,-0.29225 0.3397,-0.27156 0.28893,0.0128 0.4425,0.0507 0.75578,0.1864 0.54002,0.23382 1.05091,0.28179 1.07193,0.10062 0.005,-0.0332 -0.009,-0.12234 -0.0286,-0.19796 -0.0697,-0.26895 -0.0413,-0.38107 0.14513,-0.57026 0.16633,-0.16887 0.15729,-0.26632 -0.051,-0.54926 l -0.10274,-0.13953 0.0586,-0.0267 c 0.10209,-0.0465 0.33343,-0.0925 0.46662,-0.0929 0.313,-9.1e-4 0.58987,0.10956 0.87791,0.35001 0.21571,0.18008 0.38218,0.27284 0.58518,0.3261 0.12729,0.0334 0.21627,0.0369 0.61371,0.0243 0.42603,-0.0136 0.47302,-0.0112 0.56317,0.0287 0.16883,0.0747 0.24827,0.23248 0.29008,0.57604 0.0259,0.21282 0,0.59573 -0.0559,0.89313 l -0.029,0.14887 z"
       style="fill:#d2d2d2;fill-opacity:1;stroke-width:0.0229015" />
    <path
       id="path12256"
       d="m -108.64148,161.36463 c -0.10269,-0.14813 -0.37819,-0.39462 -0.53254,-0.47641 -0.15606,-0.0827 -0.17967,-0.13009 -0.0763,-0.15282 0.084,-0.0184 0.15108,-0.007 0.63173,0.10845 0.60185,0.14448 0.83786,0.12757 0.91866,-0.0658 0.0432,-0.10304 0.0231,-0.20827 -0.0644,-0.34038 -0.0924,-0.1394 -0.26615,-0.27249 -0.62737,-0.48043 -0.3519,-0.20255 -0.41745,-0.2503 -0.44569,-0.32454 -0.0309,-0.0809 0.005,-0.14627 0.21318,-0.40881 0.213,-0.26657 0.31687,-0.42987 0.39639,-0.62328 0.0602,-0.1464 0.0747,-0.32754 0.0264,-0.32754 -0.0464,0 -0.22089,0.19333 -0.44641,0.4947 -0.20964,0.2801 -0.29867,0.36667 -0.48597,0.47248 -0.25512,0.14413 -0.54601,0.1751 -0.9504,0.1012 -0.23914,-0.0437 -0.75006,-0.0505 -0.93209,-0.0125 -0.30814,0.0644 -0.57344,0.29021 -0.81794,0.69601 l -0.0966,0.16031 0.0154,-0.17177 c 0.0547,-0.59994 0.34091,-1.09108 0.75215,-1.29043 0.29244,-0.14178 0.49046,-0.16217 1.16103,-0.11959 0.28509,0.0181 0.32458,0.0156 0.47138,-0.029 0.18227,-0.0553 0.33916,-0.17676 0.43103,-0.33356 0.0309,-0.0529 0.10887,-0.25024 0.17305,-0.43854 0.13301,-0.39015 0.19906,-0.52297 0.33589,-0.67516 0.16945,-0.1885 0.60398,-0.36768 0.80572,-0.33226 0.0454,0.008 0.30923,0.091 0.58632,0.18456 0.8908,0.30068 1.23666,0.34486 2.53067,0.32324 0.48491,-0.008 1.06978,-0.0215 1.29962,-0.0297 0.41636,-0.015 0.41796,-0.0148 0.41796,0.034 0,0.0319 -0.0178,0.0531 -0.0515,0.061 -2.11397,0.49424 -3.39635,0.96309 -3.83537,1.40229 -0.10486,0.10493 -0.41623,0.48763 -0.61683,0.75813 -0.17323,0.23363 -0.17636,0.37283 -0.0141,0.61759 0.13151,0.19816 0.52759,0.59703 0.70453,0.70951 0.2065,0.1313 0.28626,0.20715 0.28626,0.2723 0,0.11326 -0.2582,0.17153 -0.99946,0.22555 -0.27533,0.02 -0.6029,0.0514 -0.72792,0.0696 -0.34709,0.0506 -0.36266,0.0485 -0.43689,-0.0586 z"
       style="fill:#d2d2d2;fill-opacity:1;stroke-width:0.0229015" />
    <path
       id="path12254"
       d="m -110.2616,162.93313 c -0.22234,-0.0816 -0.38314,-0.29757 -0.38345,-0.51489 -9e-5,-0.0746 0.0163,-0.15846 0.0399,-0.20566 0.057,-0.11338 0.26642,-0.24826 0.22298,-0.14358 -0.0766,0.18483 -0.0665,0.33515 0.0299,0.44327 0.12824,0.14349 0.37429,0.1054 0.56431,-0.0874 l 0.1031,-0.10454 0.0264,0.0661 c 0.12311,0.30874 -0.0617,0.58391 -0.3894,0.57978 -0.0705,-9.1e-4 -0.16669,-0.0158 -0.21386,-0.0331 z"
       style="fill:#d2d2d2;fill-opacity:1;stroke-width:0.0229015" />
    <path
       id="path12252"
       d="m -100.27252,163.11977 c -0.11176,-0.0301 -0.29353,-0.12793 -0.33851,-0.18217 -0.0232,-0.028 0.005,-0.0354 0.17359,-0.0496 0.691327,-0.0574 1.017584,-0.32497 0.986035,-0.80879 -0.0073,-0.1131 -0.03859,-0.22553 -0.119391,-0.42818 -0.06019,-0.15115 -0.14531,-0.37788 -0.189252,-0.50383 -0.109857,-0.31517 -0.210953,-0.49915 -0.458632,-0.83469 -0.26443,-0.35822 -0.29947,-0.44036 -0.26266,-0.61576 0.0518,-0.24731 0.16683,-0.27246 0.30819,-0.0674 0.11858,0.17203 0.269561,0.31283 0.422634,0.39413 0.11131,0.0591 0.142451,0.0902 0.196154,0.19621 0.05479,0.10804 0.06174,0.14282 0.04912,0.24445 -0.01045,0.0836 -0.0045,0.15272 0.02405,0.235 0.05284,0.15909 0.337606,0.78018 0.4185,0.9128 0.258482,0.42371 0.195836,0.85167 -0.176043,1.20248 -0.298837,0.28191 -0.691008,0.39775 -1.033695,0.30535 z"
       style="fill:#d2d2d2;fill-opacity:1;stroke-width:0.0229015" />
    <path
       id="path12228"
       d="m -113.01397,163.5376 c -0.061,-0.048 -0.0631,-0.0563 -0.0507,-0.20111 0.0413,-0.48036 0.0422,-0.5293 0.0146,-0.64695 -0.0382,-0.16158 -0.12375,-0.34953 -0.28304,-0.62019 -0.25077,-0.4261 -0.35491,-0.68311 -0.43616,-1.07643 -0.049,-0.23723 -0.0482,-0.67503 0,-0.85429 0.0209,-0.0751 0.0372,-0.15711 0.0363,-0.18231 -0.0173,-0.51681 0.008,-0.70553 0.13187,-1.00424 0.0951,-0.2285 0.20174,-0.38803 0.45114,-0.67515 0.24233,-0.27895 0.33257,-0.42087 0.41256,-0.6489 0.077,-0.21945 0.0811,-0.54841 0.01,-0.77318 -0.0458,-0.14433 -0.046,-0.18489 0,-0.18489 0.0363,0 0.13102,0.22588 0.17214,0.41028 0.0272,0.1231 0.0341,0.22705 0.0249,0.37788 -0.0218,0.34409 -0.12147,0.56931 -0.44188,0.99698 -0.20795,0.27761 -0.27818,0.39954 -0.33705,0.58516 -0.0489,0.1542 -0.0941,0.39888 -0.0768,0.41613 0.008,0.008 0.0788,-0.0467 0.15821,-0.12093 0.0793,-0.0741 0.32435,-0.27839 0.54452,-0.4538 0.22017,-0.1754 0.51895,-0.4382 0.66404,-0.58399 0.33484,-0.33654 0.38405,-0.42977 0.41673,-0.78942 0.0381,-0.41746 0,-0.75662 -0.18884,-1.61694 -0.0634,-0.2915 -0.0738,-0.38891 -0.0845,-0.79729 l -0.0123,-0.46522 -0.0757,0.15604 c -0.20587,0.42446 -0.68289,0.81534 -1.45284,1.19062 -0.22044,0.10743 -0.51646,0.25185 -0.65778,0.32093 -0.42299,0.20673 -0.67571,0.47766 -0.81752,0.87639 -0.065,0.18294 -0.0695,0.21653 -0.069,0.5163 0,0.3304 0.0336,0.51433 0.14739,0.82188 l 0.0432,0.11708 -0.14944,-0.16031 c -0.5127,-0.55012 -0.79474,-1.2684 -0.71965,-1.83274 0.0509,-0.38277 0.18021,-0.69062 0.40973,-0.97575 0.14091,-0.17503 0.33262,-0.34513 0.72696,-0.64487 0.6788,-0.516 0.8977,-0.84978 1.01741,-1.55149 0.079,-0.46318 0.19629,-0.72228 0.42218,-0.93309 0.24817,-0.23157 0.51505,-0.32471 0.93206,-0.32529 0.38467,-4.5e-4 0.86927,0.11439 1.16479,0.27622 0.13891,0.0761 0.14708,0.0766 -0.2519,-0.0162 -0.29883,-0.0695 -0.69805,-0.0943 -0.89719,-0.0555 -0.32703,0.0636 -0.62773,0.27868 -0.74943,0.53601 -0.0372,0.0783 -0.10405,0.30716 -0.15071,0.51459 -0.1006,0.44687 -0.14327,0.57629 -0.26389,0.79991 -0.18285,0.33895 -0.46539,0.64915 -0.85956,0.94355 -0.12547,0.0938 -0.30274,0.22612 -0.39389,0.29415 -0.21695,0.16195 -0.48778,0.4518 -0.60046,0.64259 -0.0495,0.0838 -0.11843,0.23482 -0.15315,0.33559 -0.0559,0.16227 -0.0631,0.21593 -0.0627,0.46948 0,0.19665 0.0113,0.31853 0.0359,0.38932 0.0399,0.11686 0.0413,0.11439 0.0823,-0.16112 0.045,-0.30161 0.20273,-0.60142 0.45845,-0.87173 0.22062,-0.23319 0.42008,-0.3674 0.87554,-0.58909 0.73014,-0.35541 0.93605,-0.59007 1.20937,-1.37815 0.1489,-0.4293 0.1888,-0.52033 0.30928,-0.70558 0.25785,-0.3965 0.67967,-0.65825 1.21057,-0.75118 0.27759,-0.0486 0.801,-0.0313 1.12925,0.0374 0.27146,0.0568 0.65987,0.18272 0.76936,0.24947 l 0.078,0.0476 h -0.1745 c -0.51606,2.2e-4 -1.06961,0.20904 -1.32968,0.50153 -0.11589,0.13031 -0.25389,0.41236 -0.32053,0.65508 -0.0445,0.16146 -0.0505,0.24169 -0.0515,0.6756 0,0.46281 0.005,0.52677 0.0883,1.06493 0.0773,0.49444 0.0897,0.62563 0.0906,0.96185 0,0.43746 -0.0254,0.58401 -0.15996,0.87806 -0.2022,0.44184 -0.54185,0.77301 -1.18873,1.15902 -0.16374,0.0977 -0.3668,0.22873 -0.45119,0.29113 -0.19129,0.14144 -0.46344,0.43009 -0.56381,0.59803 l -0.0761,0.12719 0.061,0.12893 c 0.0777,0.16436 0.2775,0.38057 0.4347,0.47051 0.31614,0.18087 0.6719,0.19924 1.29381,0.0669 0.32659,-0.0695 0.38882,-0.0757 0.77868,-0.0767 0.3874,-9.1e-4 0.44464,0.004 0.66899,0.0609 0.31753,0.0804 0.49004,0.15377 0.72047,0.3064 0.5136,0.34024 0.78542,0.8779 0.71724,1.4189 -0.0345,0.27415 -0.12206,0.48136 -0.29116,0.68946 -0.10831,0.13326 -0.3175,0.29087 -0.36294,0.27342 -0.0291,-0.0111 -0.0113,-0.0418 0.0855,-0.14935 0.24055,-0.26651 0.38382,-0.58013 0.38491,-0.8425 0,-0.18405 -0.0866,-0.46143 -0.2011,-0.6385 -0.19969,-0.30871 -0.61116,-0.5816 -1.05785,-0.70158 -0.16906,-0.0454 -0.2475,-0.0521 -0.59545,-0.0509 -0.38142,9.6e-4 -0.4185,0.006 -0.76718,0.088 -0.45627,0.10782 -0.72483,0.12727 -0.99675,0.0721 -0.33347,-0.0675 -0.62478,-0.22576 -0.87327,-0.47429 l -0.13391,-0.13379 v 0.11572 c 0,0.29196 0.15815,0.70911 0.37736,0.99529 0.0677,0.0883 0.20061,0.23036 0.2954,0.31552 0.20899,0.18777 0.40674,0.43054 0.68433,0.84014 0.23043,0.34004 0.28032,0.44858 0.24672,0.53694 -0.0417,0.10996 -0.0927,0.12143 -0.60929,0.13731 -0.47289,0.0145 -0.48392,0.0138 -0.54629,-0.0352 z"
       style="fill:#d2d2d2;fill-opacity:1;stroke-width:0.0229015" />
    <path
       id="path12226"
       d="m -98.997861,164.07444 c 0.449007,-0.43691 0.736814,-0.97358 0.8237,-1.53594 0.04694,-0.3036 0.06705,-1.05608 0.03677,-1.371 -0.06074,-0.62964 -0.179403,-0.8333 -0.48555,-0.8333 -0.120479,0 -0.137366,-0.007 -0.198604,-0.0763 -0.03677,-0.0419 -0.101459,-0.163 -0.143723,-0.26909 -0.10509,-0.2637 -0.387313,-0.88773 -0.535892,-1.1848 -0.172003,-0.34401 -0.171549,-0.34172 -0.07363,-0.38264 0.102775,-0.043 0.181853,-0.043 0.264882,0 0.07509,0.0389 0.123703,0.1517 0.162424,0.37729 0.05456,0.31743 0.169552,0.53754 0.32998,0.63156 0.08144,0.0478 0.125926,0.0566 0.284583,0.0566 0.280998,0 0.370699,0.0625 0.482054,0.33616 0.08766,0.21539 0.556412,1.63569 0.543928,1.64814 -0.0055,0.006 -0.06296,0.0183 -0.127833,0.0286 -0.06483,0.0103 -0.123385,0.0242 -0.130149,0.0309 -0.0068,0.007 0.02452,0.10718 0.06918,0.2232 0.04494,0.11601 0.08149,0.21886 0.08149,0.22857 0,0.01 -0.05946,0.0244 -0.132147,0.0326 l -0.132146,0.015 v 0.3258 c 0,0.3693 -0.03132,0.52087 -0.16079,0.78385 -0.201828,0.4105 -0.722241,0.94378 -1.051766,1.07778 -0.0877,0.0357 -0.08371,0.0296 0.09365,-0.14298 z"
       style="fill:#d2d2d2;fill-opacity:1;stroke-width:0.0229015" />
    <path
       id="path12222"
       d="m -91.309469,165.11652 -0.119072,-0.0469 0.06373,-0.17487 c 0.03496,-0.0962 2.082424,-5.7176 4.5498,-12.49202 4.47417,-12.28425 4.48629,-12.3171 4.544034,-12.30545 0.03178,0.007 0.100097,0.0305 0.151711,0.0533 l 0.09379,0.0417 -4.548119,12.48681 c -3.33747,9.1629 -4.55729,12.48649 -4.582485,12.48557 -0.01907,-4.5e-4 -0.08793,-0.0223 -0.153391,-0.0481 z"
       style="fill:#d2d2d2;fill-opacity:1;stroke-width:0.0229015" />
    <g
       transform="translate(0.52379432,-5.019025)"
       style="font-style:normal;font-variant:normal;font-weight:normal;font-stretch:normal;font-size:3.9352px;line-height:1.25;font-family:Arial;-inkscape-font-specification:Arial;fill:#d2d2d2;fill-opacity:1;stroke-width:0.0983801"
       id="text12360"
       aria-label="MOSCOW
AGENCY OF
INNOVATIONS">
      <path
         id="path12567"
         style="font-style:normal;font-variant:normal;font-weight:normal;font-stretch:normal;font-family:Arial;-inkscape-font-specification:Arial;fill:#d2d2d2;fill-opacity:1;stroke-width:0.0983801"
         d="m -79.363551,155.72681 v -2.8169 h 0.561073 l 0.666755,1.9945 q 0.09223,0.27862 0.134504,0.41696 0.04804,-0.15372 0.149876,-0.45155 l 0.674441,-1.95991 h 0.501507 v 2.8169 h -0.359317 v -2.35766 l -0.818552,2.35766 h -0.33626 l -0.81471,-2.39802 v 2.39802 z" />
      <path
         id="path12569"
         style="font-style:normal;font-variant:normal;font-weight:normal;font-stretch:normal;font-family:Arial;-inkscape-font-specification:Arial;fill:#d2d2d2;fill-opacity:1;stroke-width:0.0983801"
         d="m -76.183494,154.35487 q 0,-0.70134 0.376611,-1.09717 0.37661,-0.39775 0.972271,-0.39775 0.390061,0 0.703263,0.18639 0.313202,0.18638 0.476528,0.52072 0.165248,0.33242 0.165248,0.75514 0,0.42849 -0.172934,0.76667 -0.172934,0.33819 -0.489978,0.51304 -0.317045,0.17293 -0.684049,0.17293 -0.397747,0 -0.710949,-0.19214 -0.313202,-0.19215 -0.474607,-0.52457 -0.161404,-0.33242 -0.161404,-0.70326 z m 0.384296,0.006 q 0,0.50919 0.272851,0.80318 0.274773,0.29207 0.687892,0.29207 0.420805,0 0.691734,-0.29591 0.272851,-0.29591 0.272851,-0.83969 0,-0.34395 -0.117211,-0.5995 -0.115289,-0.25748 -0.340102,-0.39775 -0.222893,-0.14219 -0.501508,-0.14219 -0.395826,0 -0.682127,0.27285 -0.28438,0.27093 -0.28438,0.90694 z" />
      <path
         id="path12571"
         style="font-style:normal;font-variant:normal;font-weight:normal;font-stretch:normal;font-family:Arial;-inkscape-font-specification:Arial;fill:#d2d2d2;fill-opacity:1;stroke-width:0.0983801"
         d="m -73.137942,154.82179 0.351632,-0.0307 q 0.02498,0.21137 0.115289,0.34779 0.09223,0.13451 0.28438,0.21905 0.192148,0.0826 0.432334,0.0826 0.213284,0 0.376611,-0.0634 0.163326,-0.0634 0.242107,-0.17294 0.0807,-0.11144 0.0807,-0.2421 0,-0.13259 -0.07686,-0.23058 -0.07686,-0.0999 -0.253636,-0.16717 -0.113368,-0.0442 -0.501508,-0.13643 -0.38814,-0.0941 -0.54378,-0.17677 -0.201756,-0.10568 -0.301673,-0.26133 -0.098,-0.15756 -0.098,-0.35163 0,-0.21328 0.121054,-0.39774 0.121053,-0.18639 0.353553,-0.28246 0.2325,-0.0961 0.516879,-0.0961 0.313202,0 0.551466,0.10184 0.240186,0.0999 0.368925,0.29591 0.12874,0.19599 0.138347,0.44386 l -0.357396,0.0269 q -0.02882,-0.26708 -0.195991,-0.40351 -0.165248,-0.13642 -0.489979,-0.13642 -0.338181,0 -0.493821,0.12489 -0.153719,0.12298 -0.153719,0.29783 0,0.1518 0.109525,0.2498 0.107603,0.098 0.561073,0.20175 0.455392,0.10184 0.624482,0.1787 0.24595,0.11337 0.363161,0.28822 0.117211,0.17294 0.117211,0.39967 0,0.22482 -0.12874,0.42465 -0.128739,0.19791 -0.370846,0.30936 -0.240186,0.10952 -0.541859,0.10952 -0.382375,0 -0.641776,-0.11144 -0.257479,-0.11145 -0.405433,-0.33434 -0.146033,-0.22481 -0.153719,-0.50727 z" />
      <path
         id="path12573"
         style="font-style:normal;font-variant:normal;font-weight:normal;font-stretch:normal;font-family:Arial;-inkscape-font-specification:Arial;fill:#d2d2d2;fill-opacity:1;stroke-width:0.0983801"
         d="m -68.37266,154.73916 0.372767,0.0942 q -0.11721,0.45923 -0.422726,0.70134 -0.303595,0.24018 -0.743615,0.24018 -0.455391,0 -0.741692,-0.18446 -0.28438,-0.18638 -0.434256,-0.53801 -0.147954,-0.35164 -0.147954,-0.75515 0,-0.44002 0.167169,-0.76667 0.169091,-0.32857 0.478449,-0.49766 0.311281,-0.17102 0.684049,-0.17102 0.422726,0 0.710949,0.21521 0.288223,0.21521 0.40159,0.60527 l -0.367003,0.0865 q -0.098,-0.30743 -0.28438,-0.4477 -0.186384,-0.14027 -0.468842,-0.14027 -0.324731,0 -0.54378,0.15564 -0.217128,0.15564 -0.305516,0.41888 -0.08839,0.26133 -0.08839,0.53994 0,0.35932 0.10376,0.62833 0.105681,0.26708 0.326652,0.39966 0.220971,0.13259 0.47845,0.13259 0.313202,0 0.530329,-0.18062 0.217128,-0.18062 0.293988,-0.5361 z" />
      <path
         id="path12575"
         style="font-style:normal;font-variant:normal;font-weight:normal;font-stretch:normal;font-family:Arial;-inkscape-font-specification:Arial;fill:#d2d2d2;fill-opacity:1;stroke-width:0.0983801"
         d="m -67.652104,154.35487 q 0,-0.70134 0.376611,-1.09717 0.376611,-0.39775 0.972271,-0.39775 0.390061,0 0.703263,0.18639 0.313202,0.18638 0.476528,0.52072 0.165248,0.33242 0.165248,0.75514 0,0.42849 -0.172933,0.76667 -0.172934,0.33819 -0.489979,0.51304 -0.317045,0.17293 -0.684048,0.17293 -0.397748,0 -0.71095,-0.19214 -0.313202,-0.19215 -0.474606,-0.52457 -0.161405,-0.33242 -0.161405,-0.70326 z m 0.384297,0.006 q 0,0.50919 0.272851,0.80318 0.274772,0.29207 0.687891,0.29207 0.420805,0 0.691734,-0.29591 0.272851,-0.29591 0.272851,-0.83969 0,-0.34395 -0.11721,-0.5995 -0.115289,-0.25748 -0.340103,-0.39775 -0.222892,-0.14219 -0.501507,-0.14219 -0.395826,0 -0.682127,0.27285 -0.28438,0.27093 -0.28438,0.90694 z" />
      <path
         id="path12577"
         style="font-style:normal;font-variant:normal;font-weight:normal;font-stretch:normal;font-family:Arial;-inkscape-font-specification:Arial;fill:#d2d2d2;fill-opacity:1;stroke-width:0.0983801"
         d="m -63.987833,155.72681 -0.747457,-2.8169 h 0.382375 l 0.428491,1.84655 q 0.06917,0.29014 0.119132,0.57644 0.107604,-0.45155 0.126818,-0.52072 l 0.536095,-1.90227 h 0.449627 l 0.403512,1.42574 q 0.151797,0.53033 0.219049,0.99725 0.0538,-0.26708 0.140268,-0.61295 l 0.441942,-1.81004 h 0.374689 l -0.772437,2.8169 h -0.359317 l -0.593739,-2.1463 q -0.07494,-0.26901 -0.08839,-0.3305 -0.04419,0.19407 -0.08262,0.3305 l -0.597582,2.1463 z" />
      <path
         id="path12579"
         style="font-style:normal;font-variant:normal;font-weight:normal;font-stretch:normal;font-family:Arial;-inkscape-font-specification:Arial;fill:#d2d2d2;fill-opacity:1;stroke-width:0.0983801"
         d="m -79.661381,160.64581 1.081795,-2.8169 h 0.401591 l 1.15289,2.8169 h -0.424648 l -0.328574,-0.85314 h -1.177869 l -0.309359,0.85314 z m 0.812788,-1.15674 h 0.954977 l -0.293987,-0.78012 q -0.134504,-0.35547 -0.199834,-0.58413 -0.0538,0.27093 -0.151797,0.53801 z" />
      <path
         id="path12581"
         style="font-style:normal;font-variant:normal;font-weight:normal;font-stretch:normal;font-family:Arial;-inkscape-font-specification:Arial;fill:#d2d2d2;fill-opacity:1;stroke-width:0.0983801"
         d="m -75.405293,159.54095 v -0.33049 l 1.193241,-0.002 v 1.04528 q -0.274772,0.21905 -0.566837,0.3305 -0.292066,0.10952 -0.599504,0.10952 -0.41504,0 -0.755143,-0.17677 -0.338181,-0.1787 -0.511115,-0.51496 -0.172933,-0.33626 -0.172933,-0.7513 0,-0.4112 0.171012,-0.76667 0.172933,-0.3574 0.495743,-0.53033 0.322809,-0.17294 0.743614,-0.17294 0.305516,0 0.551466,0.0999 0.247872,0.098 0.38814,0.27477 0.140268,0.17678 0.213285,0.46116 l -0.33626,0.0922 q -0.06341,-0.21521 -0.157562,-0.33818 -0.09415,-0.12298 -0.269008,-0.19599 -0.174855,-0.0749 -0.388139,-0.0749 -0.255558,0 -0.441942,0.0788 -0.186384,0.0769 -0.301673,0.20368 -0.113367,0.12682 -0.176776,0.27861 -0.107604,0.26133 -0.107604,0.56684 0,0.37661 0.12874,0.63025 0.130661,0.25363 0.378532,0.37661 0.247872,0.12297 0.526487,0.12297 0.242107,0 0.472685,-0.0922 0.230578,-0.0942 0.34971,-0.19983 v -0.52457 z" />
      <path
         id="path12583"
         style="font-style:normal;font-variant:normal;font-weight:normal;font-stretch:normal;font-family:Arial;-inkscape-font-specification:Arial;fill:#d2d2d2;fill-opacity:1;stroke-width:0.0983801"
         d="m -73.656743,160.64581 v -2.8169 h 2.036774 v 0.33242 h -1.664006 v 0.86274 h 1.558324 v 0.3305 h -1.558324 v 0.95882 h 1.729336 v 0.33242 z" />
      <path
         id="path12585"
         style="font-style:normal;font-variant:normal;font-weight:normal;font-stretch:normal;font-family:Arial;-inkscape-font-specification:Arial;fill:#d2d2d2;fill-opacity:1;stroke-width:0.0983801"
         d="m -71.039681,160.64581 v -2.8169 h 0.382375 l 1.479543,2.21163 v -2.21163 h 0.357396 v 2.8169 h -0.382375 l -1.479543,-2.21355 v 2.21355 z" />
      <path
         id="path12587"
         style="font-style:normal;font-variant:normal;font-weight:normal;font-stretch:normal;font-family:Arial;-inkscape-font-specification:Arial;fill:#d2d2d2;fill-opacity:1;stroke-width:0.0983801"
         d="m -66.182169,159.65816 0.372768,0.0942 q -0.11721,0.45923 -0.422726,0.70134 -0.303595,0.24018 -0.743615,0.24018 -0.455392,0 -0.741693,-0.18446 -0.28438,-0.18638 -0.434255,-0.53801 -0.147955,-0.35164 -0.147955,-0.75515 0,-0.44002 0.16717,-0.76667 0.16909,-0.32857 0.478449,-0.49766 0.311281,-0.17102 0.684049,-0.17102 0.422726,0 0.710949,0.21521 0.288222,0.21521 0.40159,0.60527 l -0.367003,0.0865 q -0.098,-0.30743 -0.28438,-0.4477 -0.186384,-0.14027 -0.468842,-0.14027 -0.324731,0 -0.54378,0.15564 -0.217128,0.15564 -0.305516,0.41888 -0.08839,0.26133 -0.08839,0.53994 0,0.35932 0.10376,0.62833 0.105682,0.26708 0.326653,0.39966 0.22097,0.13259 0.478449,0.13259 0.313202,0 0.53033,-0.18062 0.217128,-0.18062 0.293987,-0.5361 z" />
      <path
         id="path12589"
         style="font-style:normal;font-variant:normal;font-weight:normal;font-stretch:normal;font-family:Arial;-inkscape-font-specification:Arial;fill:#d2d2d2;fill-opacity:1;stroke-width:0.0983801"
         d="m -64.554671,160.64581 v -1.19325 l -1.085638,-1.62365 h 0.45347 l 0.555309,0.8493 q 0.153719,0.23826 0.286301,0.47652 0.126818,-0.22097 0.307438,-0.49766 l 0.545701,-0.82816 h 0.434256 l -1.124069,1.62365 v 1.19325 z" />
      <path
         id="path12591"
         style="font-style:normal;font-variant:normal;font-weight:normal;font-stretch:normal;font-family:Arial;-inkscape-font-specification:Arial;fill:#d2d2d2;fill-opacity:1;stroke-width:0.0983801"
         d="m -61.810792,159.27387 q 0,-0.70135 0.376611,-1.09717 0.376611,-0.39775 0.972271,-0.39775 0.390062,0 0.703264,0.18639 0.313202,0.18638 0.476528,0.52072 0.165248,0.33241 0.165248,0.75514 0,0.42849 -0.172934,0.76667 -0.172934,0.33819 -0.489979,0.51304 -0.317045,0.17293 -0.684048,0.17293 -0.397747,0 -0.710949,-0.19214 -0.313202,-0.19215 -0.474607,-0.52457 -0.161405,-0.33242 -0.161405,-0.70326 z m 0.384297,0.006 q 0,0.50919 0.272851,0.80318 0.274772,0.29207 0.687891,0.29207 0.420806,0 0.691735,-0.29591 0.272851,-0.29591 0.272851,-0.83969 0,-0.34395 -0.117211,-0.5995 -0.115289,-0.25748 -0.340103,-0.39775 -0.222892,-0.14219 -0.501507,-0.14219 -0.395826,0 -0.682127,0.27285 -0.28438,0.27093 -0.28438,0.90694 z" />
      <path
         id="path12593"
         style="font-style:normal;font-variant:normal;font-weight:normal;font-stretch:normal;font-family:Arial;-inkscape-font-specification:Arial;fill:#d2d2d2;fill-opacity:1;stroke-width:0.0983801"
         d="m -58.619205,160.64581 v -2.8169 h 1.900348 v 0.33242 h -1.52758 v 0.87235 h 1.321981 v 0.33242 h -1.321981 v 1.27971 z" />
      <path
         id="path12595"
         style="font-style:normal;font-variant:normal;font-weight:normal;font-stretch:normal;font-family:Arial;-inkscape-font-specification:Arial;fill:#d2d2d2;fill-opacity:1;stroke-width:0.0983801"
         d="m -79.288613,165.56481 v -2.8169 h 0.372768 v 2.8169 z" />
      <path
         id="path12597"
         style="font-style:normal;font-variant:normal;font-weight:normal;font-stretch:normal;font-family:Arial;-inkscape-font-specification:Arial;fill:#d2d2d2;fill-opacity:1;stroke-width:0.0983801"
         d="m -78.264462,165.56481 v -2.8169 h 0.382375 l 1.479543,2.21163 v -2.21163 h 0.357396 v 2.8169 h -0.382375 l -1.479543,-2.21355 v 2.21355 z" />
      <path
         id="path12599"
         style="font-style:normal;font-variant:normal;font-weight:normal;font-stretch:normal;font-family:Arial;-inkscape-font-specification:Arial;fill:#d2d2d2;fill-opacity:1;stroke-width:0.0983801"
         d="m -75.420665,165.56481 v -2.8169 h 0.382375 l 1.479543,2.21163 v -2.21163 h 0.357396 v 2.8169 h -0.382375 l -1.479543,-2.21355 v 2.21355 z" />
      <path
         id="path12601"
         style="font-style:normal;font-variant:normal;font-weight:normal;font-stretch:normal;font-family:Arial;-inkscape-font-specification:Arial;fill:#d2d2d2;fill-opacity:1;stroke-width:0.0983801"
         d="m -72.686393,164.19287 q 0,-0.70135 0.376611,-1.09717 0.376611,-0.39775 0.972271,-0.39775 0.390061,0 0.703263,0.18639 0.313202,0.18638 0.476529,0.52072 0.165247,0.33241 0.165247,0.75514 0,0.42849 -0.172933,0.76667 -0.172934,0.33819 -0.489979,0.51304 -0.317045,0.17293 -0.684048,0.17293 -0.397748,0 -0.71095,-0.19214 -0.313201,-0.19215 -0.474606,-0.52457 -0.161405,-0.33242 -0.161405,-0.70326 z m 0.384297,0.006 q 0,0.50919 0.272851,0.80318 0.274772,0.29207 0.687891,0.29207 0.420805,0 0.691735,-0.29591 0.27285,-0.29591 0.27285,-0.83969 0,-0.34395 -0.11721,-0.5995 -0.115289,-0.25748 -0.340103,-0.39775 -0.222892,-0.14219 -0.501507,-0.14219 -0.395826,0 -0.682127,0.27285 -0.28438,0.27093 -0.28438,0.90694 z" />
      <path
         id="path12603"
         style="font-style:normal;font-variant:normal;font-weight:normal;font-stretch:normal;font-family:Arial;-inkscape-font-specification:Arial;fill:#d2d2d2;fill-opacity:1;stroke-width:0.0983801"
         d="m -68.70892,165.56481 -1.091403,-2.8169 h 0.403512 l 0.732085,2.04638 q 0.08839,0.24595 0.147954,0.46116 0.06533,-0.23058 0.151798,-0.46116 l 0.760908,-2.04638 h 0.380453 l -1.102932,2.8169 z" />
      <path
         id="path12605"
         style="font-style:normal;font-variant:normal;font-weight:normal;font-stretch:normal;font-family:Arial;-inkscape-font-specification:Arial;fill:#d2d2d2;fill-opacity:1;stroke-width:0.0983801"
         d="m -67.486856,165.56481 1.081796,-2.8169 h 0.40159 l 1.152891,2.8169 h -0.424648 l -0.328574,-0.85314 h -1.17787 l -0.309359,0.85314 z m 0.812788,-1.15674 h 0.954978 l -0.293987,-0.78012 q -0.134504,-0.35547 -0.199835,-0.58413 -0.0538,0.27093 -0.151797,0.53801 z" />
      <path
         id="path12607"
         style="font-style:normal;font-variant:normal;font-weight:normal;font-stretch:normal;font-family:Arial;-inkscape-font-specification:Arial;fill:#d2d2d2;fill-opacity:1;stroke-width:0.0983801"
         d="m -64.124258,165.56481 v -2.48448 h -0.928077 v -0.33242 h 2.232765 v 0.33242 h -0.93192 v 2.48448 z" />
      <path
         id="path12609"
         style="font-style:normal;font-variant:normal;font-weight:normal;font-stretch:normal;font-family:Arial;-inkscape-font-specification:Arial;fill:#d2d2d2;fill-opacity:1;stroke-width:0.0983801"
         d="m -62.371865,165.56481 v -2.8169 h 0.372768 v 2.8169 z" />
      <path
         id="path12611"
         style="font-style:normal;font-variant:normal;font-weight:normal;font-stretch:normal;font-family:Arial;-inkscape-font-specification:Arial;fill:#d2d2d2;fill-opacity:1;stroke-width:0.0983801"
         d="m -61.457238,164.19287 q 0,-0.70135 0.376611,-1.09717 0.376611,-0.39775 0.972271,-0.39775 0.390062,0 0.703263,0.18639 0.313202,0.18638 0.476529,0.52072 0.165247,0.33241 0.165247,0.75514 0,0.42849 -0.172933,0.76667 -0.172934,0.33819 -0.489979,0.51304 -0.317045,0.17293 -0.684048,0.17293 -0.397748,0 -0.710949,-0.19214 -0.313202,-0.19215 -0.474607,-0.52457 -0.161405,-0.33242 -0.161405,-0.70326 z m 0.384297,0.006 q 0,0.50919 0.272851,0.80318 0.274772,0.29207 0.687891,0.29207 0.420805,0 0.691735,-0.29591 0.27285,-0.29591 0.27285,-0.83969 0,-0.34395 -0.11721,-0.5995 -0.115289,-0.25748 -0.340103,-0.39775 -0.222892,-0.14219 -0.501507,-0.14219 -0.395826,0 -0.682127,0.27285 -0.28438,0.27093 -0.28438,0.90694 z" />
      <path
         id="path12613"
         style="font-style:normal;font-variant:normal;font-weight:normal;font-stretch:normal;font-family:Arial;-inkscape-font-specification:Arial;fill:#d2d2d2;fill-opacity:1;stroke-width:0.0983801"
         d="m -58.288711,165.56481 v -2.8169 h 0.382375 l 1.479543,2.21163 v -2.21163 h 0.357396 v 2.8169 h -0.382375 l -1.479543,-2.21355 v 2.21355 z" />
      <path
         id="path12615"
         style="font-style:normal;font-variant:normal;font-weight:normal;font-stretch:normal;font-family:Arial;-inkscape-font-specification:Arial;fill:#d2d2d2;fill-opacity:1;stroke-width:0.0983801"
         d="m -55.567889,164.65979 0.351632,-0.0307 q 0.02498,0.21137 0.115289,0.34779 0.09223,0.13451 0.28438,0.21905 0.192148,0.0826 0.432334,0.0826 0.213285,0 0.376611,-0.0634 0.163326,-0.0634 0.242107,-0.17294 0.0807,-0.11144 0.0807,-0.2421 0,-0.13259 -0.07686,-0.23058 -0.07686,-0.0999 -0.253636,-0.16717 -0.113368,-0.0442 -0.501508,-0.13643 -0.388139,-0.0942 -0.54378,-0.17677 -0.201756,-0.10569 -0.301673,-0.26133 -0.09799,-0.15756 -0.09799,-0.35163 0,-0.21328 0.121053,-0.39774 0.121054,-0.18639 0.353553,-0.28246 0.2325,-0.0961 0.516879,-0.0961 0.313202,0 0.551466,0.10184 0.240186,0.0999 0.368925,0.29591 0.12874,0.19599 0.138347,0.44386 l -0.357396,0.0269 q -0.02882,-0.26708 -0.195991,-0.40351 -0.165248,-0.13642 -0.489979,-0.13642 -0.338181,0 -0.493821,0.12489 -0.153719,0.12298 -0.153719,0.29783 0,0.1518 0.109525,0.2498 0.107603,0.098 0.561073,0.20175 0.455392,0.10184 0.624483,0.1787 0.24595,0.11337 0.36316,0.28822 0.117211,0.17294 0.117211,0.39967 0,0.22482 -0.12874,0.42465 -0.128739,0.19791 -0.370846,0.30936 -0.240186,0.10952 -0.541859,0.10952 -0.382375,0 -0.641776,-0.11144 -0.257479,-0.11145 -0.405433,-0.33434 -0.146033,-0.22481 -0.153719,-0.50727 z" />
    </g>
    <g
       transform="translate(2.6458335,-12.700002)"
       style="font-size:10.5833px;line-height:1.25;font-family:sans-serif;fill:#d2d2d2;fill-opacity:1;stroke-width:0.264583"
       id="text12620"
       aria-label="MIET">
      <path
         id="path12622"
         style="fill:#d2d2d2;fill-opacity:1;stroke-width:0.264583"
         d="m -197.37285,193.48111 h 1.55545 l 1.96887,5.25031 1.9792,-5.25031 h 1.55546 v 7.71527 h -1.01803 v -6.77476 l -1.98953,5.29165 h -1.04903 l -1.98954,-5.29165 v 6.77476 h -1.01285 z" />
      <path
         id="path12624"
         style="fill:#d2d2d2;fill-opacity:1;stroke-width:0.264583"
         d="m -188.23649,193.48111 h 1.04386 v 7.71527 h -1.04386 z" />
      <path
         id="path12626"
         style="fill:#d2d2d2;fill-opacity:1;stroke-width:0.264583"
         d="m -185.11524,193.48111 h 4.87824 v 0.8785 h -3.83438 v 2.28409 h 3.67418 v 0.8785 h -3.67418 v 2.79568 h 3.9274 v 0.8785 h -4.97126 z" />
      <path
         id="path12628"
         style="fill:#d2d2d2;fill-opacity:1;stroke-width:0.264583"
         d="m -179.4877,193.48111 h 6.52672 v 0.8785 h -2.73885 v 6.83677 h -1.04902 v -6.83677 h -2.73885 z" />
    </g>
  </g>
</svg>
