<?xml version="1.0" encoding="UTF-8" standalone="no"?>
<svg
   xmlns:dc="http://purl.org/dc/elements/1.1/"
   xmlns:cc="http://creativecommons.org/ns#"
   xmlns:rdf="http://www.w3.org/1999/02/22-rdf-syntax-ns#"
   xmlns:svg="http://www.w3.org/2000/svg"
   xmlns="http://www.w3.org/2000/svg"
   xmlns:sodipodi="http://sodipodi.sourceforge.net/DTD/sodipodi-0.dtd"
   xmlns:inkscape="http://www.inkscape.org/namespaces/inkscape"
   height="72.669998"
   width="260.67001"
   inkscape:version="1.0 (4035a4fb49, 2020-05-01)"
   sodipodi:docname="fasiesk.svg"
   version="1.1"
   viewBox="0 0 260.67002 72.67"
   data-name="Layer 1"
   id="Layer_1">
  <metadata
     id="metadata27">
    <rdf:RDF>
      <cc:Work
         rdf:about="">
        <dc:format>image/svg+xml</dc:format>
        <dc:type
           rdf:resource="http://purl.org/dc/dcmitype/StillImage" />
        <dc:title>2</dc:title>
      </cc:Work>
    </rdf:RDF>
  </metadata>
  <defs
     id="defs25" />
  <sodipodi:namedview
     inkscape:current-layer="Layer_1"
     inkscape:window-maximized="1"
     inkscape:window-y="-11"
     inkscape:window-x="-11"
     inkscape:cy="105.57811"
     inkscape:cx="121.68018"
     inkscape:zoom="1.5781176"
     showgrid="false"
     id="namedview23"
     inkscape:window-height="1046"
     inkscape:window-width="1920"
     inkscape:pageshadow="2"
     inkscape:pageopacity="0"
     guidetolerance="10"
     gridtolerance="10"
     objecttolerance="10"
     borderopacity="1"
     bordercolor="#666666"
     pagecolor="#ffffff" />
  <title
     id="title2">2</title>
  <path
     id="path4"
     style="fill:#d2d2d2;stroke-width:0.33045"
     d="m 192.5187,48.74408 c 2.09174,0 7.24343,-0.3668 11.09648,-3.17892 v 2.13139 h 7.76886 v -9.37814 l 3.25161,-3.37058 7.06169,12.73881 h 9.32197 L 220.32268,29.49873 230.74504,18.02884 h -9.54336 l -9.80774,11.2551 V 7.66266 h -7.77876 v 3.42015 c -2.36602,-2.54116 -6.20583,-4.46437 -12.19027,-4.46437 -12.9569,0 -15.39232,7.88451 -15.39232,12.296 0,6.06375 3.26153,9.43432 8.92213,10.80899 l 8.04974,1.9827 c 4.24627,1.04752 7.26988,1.82077 7.26988,4.95673 0,4.1934 -4.41481,5.18475 -8.3868,5.18475 -7.26988,0 -8.49254,-4.24296 -8.49254,-6.50324 h -7.97043 c 0,4.95673 2.53454,13.3964 17.09413,13.3964 m 5.28718,-23.87494 -9.74494,-2.36932 c -1.65224,-0.38661 -4.25288,-1.05082 -4.25288,-4.19009 0,-3.58537 3.80678,-4.79812 7.00221,-4.79812 7.26989,0 7.93079,4.24958 8.15879,6.06705 h 4.64612 v 7.46153 c -1.70182,-0.99134 -3.71425,-1.65224 -5.79939,-2.16775" />
  <g
     transform="matrix(0.33044901,0,0,0.33044901,172.6488,4.54653)"
     style="font-size:48.8847px;line-height:1.25;font-family:Orbitron;-inkscape-font-specification:Orbitron;fill:#d2d2d2;fill-opacity:1;stroke:#d2d2d2;stroke-width:0.009;stroke-miterlimit:4;stroke-dasharray:none;stroke-opacity:1"
     id="text854"
     aria-label="Participant">
    <path
       id="path856"
       style="font-style:normal;font-variant:normal;font-weight:normal;font-stretch:normal;font-family:Arial;-inkscape-font-specification:Arial;fill:#d2d2d2;fill-opacity:1;stroke:#d2d2d2;stroke-width:0.009;stroke-miterlimit:4;stroke-dasharray:none;stroke-opacity:1"
       d="M 14.376576,177.91847 V 142.92581 H 27.5764 q 3.484945,0 5.322895,0.33417 2.577904,0.42965 4.320376,1.647 1.742472,1.19347 2.79273,3.36559 1.074126,2.17213 1.074126,4.7739 0,4.46359 -2.840468,7.56663 -2.840468,3.07916 -10.263878,3.07916 h -8.974925 v 14.22621 z m 4.63068,-18.35563 h 9.046534 q 4.487463,0 6.373152,-1.67086 1.885689,-1.67087 1.885689,-4.70229 0,-2.19599 -1.121866,-3.74751 -1.097996,-1.57539 -2.912077,-2.07665 -1.169604,-0.3103 -4.320376,-0.3103 h -8.951056 z" />
    <path
       id="path858"
       style="font-style:normal;font-variant:normal;font-weight:normal;font-stretch:normal;font-family:Arial;-inkscape-font-specification:Arial;fill:#d2d2d2;fill-opacity:1;stroke:#d2d2d2;stroke-width:0.009;stroke-miterlimit:4;stroke-dasharray:none;stroke-opacity:1"
       d="m 63.022583,174.79157 q -2.386948,2.02891 -4.60681,2.86434 -2.195992,0.83543 -4.726157,0.83543 -4.17716,0 -6.420891,-2.02891 -2.243732,-2.05277 -2.243732,-5.22741 0,-1.86182 0.835432,-3.38947 0.859302,-1.55152 2.219862,-2.48243 1.38443,-0.93091 3.103033,-1.4083 1.265083,-0.33417 3.819117,-0.64447 5.203548,-0.62061 7.662104,-1.47991 0.02387,-0.88317 0.02387,-1.12186 0,-2.62565 -1.217344,-3.69977 -1.646994,-1.45604 -4.893244,-1.45604 -3.031424,0 -4.487463,1.07412 -1.432169,1.05026 -2.124384,3.74751 l -4.201029,-0.57287 q 0.572868,-2.69725 1.88569,-4.34424 1.312821,-1.67086 3.795247,-2.55404 2.482427,-0.90704 5.752546,-0.90704 3.246249,0 5.275155,0.76383 2.028906,0.76382 2.983686,1.93343 0.954779,1.14573 1.336691,2.91207 0.214825,1.098 0.214825,3.96234 v 5.72867 q 0,5.99124 0.262564,7.5905 0.286434,1.57538 1.097997,3.03142 h -4.487463 q -0.668346,-1.33669 -0.859302,-3.1269 z m -0.358042,-9.59553 q -2.339209,0.95478 -7.017628,1.62312 -2.649512,0.38191 -3.747508,0.8593 -1.097997,0.47739 -1.694734,1.4083 -0.596737,0.90704 -0.596737,2.02891 0,1.7186 1.288952,2.86434 1.312822,1.14573 3.819117,1.14573 2.482427,0 4.415855,-1.07412 1.933428,-1.098 2.840468,-2.98369 0.692215,-1.45604 0.692215,-4.29651 z" />
    <path
       id="path860"
       style="font-style:normal;font-variant:normal;font-weight:normal;font-stretch:normal;font-family:Arial;-inkscape-font-specification:Arial;fill:#d2d2d2;fill-opacity:1;stroke:#d2d2d2;stroke-width:0.009;stroke-miterlimit:4;stroke-dasharray:none;stroke-opacity:1"
       d="m 73.644501,177.91847 v -25.34939 h 3.866857 v 3.84299 q 1.479907,-2.69725 2.721121,-3.55655 1.265082,-0.85931 2.76886,-0.85931 2.172122,0 4.415854,1.38443 l -1.479908,3.98621 q -1.575386,-0.93091 -3.150772,-0.93091 -1.408299,0 -2.530165,0.8593 -1.121866,0.83543 -1.599255,2.33921 -0.716085,2.29147 -0.716085,5.01259 v 13.27143 z" />
    <path
       id="path862"
       style="font-style:normal;font-variant:normal;font-weight:normal;font-stretch:normal;font-family:Arial;-inkscape-font-specification:Arial;fill:#d2d2d2;fill-opacity:1;stroke:#d2d2d2;stroke-width:0.009;stroke-miterlimit:4;stroke-dasharray:none;stroke-opacity:1"
       d="m 99.399676,174.07549 0.620604,3.79524 q -1.814078,0.38192 -3.246247,0.38192 -2.33921,0 -3.628162,-0.73996 -1.288952,-0.73995 -1.81408,-1.93343 -0.525129,-1.21734 -0.525129,-5.0842 V 155.91081 H 87.65589 v -3.34173 h 3.150772 v -6.27767 l 4.272637,-2.57791 v 8.85558 h 4.320377 v 3.34173 h -4.320377 v 14.82295 q 0,1.83795 0.214826,2.36308 0.238695,0.52513 0.739954,0.83543 0.525128,0.3103 1.479908,0.3103 0.716084,0 1.885689,-0.16708 z" />
    <path
       id="path864"
       style="font-style:normal;font-variant:normal;font-weight:normal;font-stretch:normal;font-family:Arial;-inkscape-font-specification:Arial;fill:#d2d2d2;fill-opacity:1;stroke:#d2d2d2;stroke-width:0.009;stroke-miterlimit:4;stroke-dasharray:none;stroke-opacity:1"
       d="m 103.60071,147.86679 v -4.94098 h 4.2965 v 4.94098 z m 0,30.05168 v -25.34939 h 4.2965 v 25.34939 z" />
    <path
       id="path866"
       style="font-style:normal;font-variant:normal;font-weight:normal;font-stretch:normal;font-family:Arial;-inkscape-font-specification:Arial;fill:#d2d2d2;fill-opacity:1;stroke:#d2d2d2;stroke-width:0.009;stroke-miterlimit:4;stroke-dasharray:none;stroke-opacity:1"
       d="m 131.00287,168.63324 4.2249,0.549 q -0.69221,4.36812 -3.55655,6.85054 -2.84047,2.45856 -6.99376,2.45856 -5.20355,0 -8.37819,-3.38947 -3.15077,-3.41333 -3.15077,-9.76262 0,-4.10555 1.36056,-7.18471 1.36056,-3.07916 4.12942,-4.60681 2.79273,-1.55152 6.06285,-1.55152 4.12942,0 6.75506,2.10052 2.62565,2.07664 3.3656,5.91963 l -4.17716,0.64448 q -0.59674,-2.55404 -2.12438,-3.84299 -1.50378,-1.28895 -3.65203,-1.28895 -3.24625,0 -5.27516,2.33921 -2.02891,2.31534 -2.02891,7.3518 0,5.10807 1.9573,7.42341 1.9573,2.31534 5.10807,2.31534 2.53017,0 4.2249,-1.55152 1.69473,-1.55152 2.14825,-4.7739 z" />
    <path
       id="path868"
       style="font-style:normal;font-variant:normal;font-weight:normal;font-stretch:normal;font-family:Arial;-inkscape-font-specification:Arial;fill:#d2d2d2;fill-opacity:1;stroke:#d2d2d2;stroke-width:0.009;stroke-miterlimit:4;stroke-dasharray:none;stroke-opacity:1"
       d="m 138.92754,147.86679 v -4.94098 h 4.29651 v 4.94098 z m 0,30.05168 v -25.34939 h 4.29651 v 25.34939 z" />
    <path
       id="path870"
       style="font-style:normal;font-variant:normal;font-weight:normal;font-stretch:normal;font-family:Arial;-inkscape-font-specification:Arial;fill:#d2d2d2;fill-opacity:1;stroke:#d2d2d2;stroke-width:0.009;stroke-miterlimit:4;stroke-dasharray:none;stroke-opacity:1"
       d="m 149.78815,187.63335 v -35.06427 h 3.91459 v 3.29399 q 1.38443,-1.93343 3.12691,-2.88821 1.74247,-0.97865 4.2249,-0.97865 3.24624,0 5.72867,1.67087 2.48243,1.67086 3.74751,4.72616 1.26508,3.03142 1.26508,6.65958 0,3.89073 -1.4083,7.01763 -1.38443,3.10303 -4.05781,4.7739 -2.64951,1.64699 -5.58546,1.64699 -2.14825,0 -3.86685,-0.90704 -1.69474,-0.90704 -2.79273,-2.29147 v 12.34052 z m 3.89073,-22.24636 q 0,4.89325 1.98116,7.23246 1.98117,2.33921 4.79777,2.33921 2.86434,0 4.89324,-2.41082 2.05278,-2.43469 2.05278,-7.51889 0,-4.8455 -2.00504,-7.25632 -1.98117,-2.41082 -4.75003,-2.41082 -2.74499,0 -4.86937,2.57791 -2.10051,2.55403 -2.10051,7.44727 z" />
    <path
       id="path872"
       style="font-style:normal;font-variant:normal;font-weight:normal;font-stretch:normal;font-family:Arial;-inkscape-font-specification:Arial;fill:#d2d2d2;fill-opacity:1;stroke:#d2d2d2;stroke-width:0.009;stroke-miterlimit:4;stroke-dasharray:none;stroke-opacity:1"
       d="m 193.54091,174.79157 q -2.38695,2.02891 -4.60681,2.86434 -2.19599,0.83543 -4.72615,0.83543 -4.17716,0 -6.4209,-2.02891 -2.24373,-2.05277 -2.24373,-5.22741 0,-1.86182 0.83543,-3.38947 0.85931,-1.55152 2.21987,-2.48243 1.38443,-0.93091 3.10303,-1.4083 1.26508,-0.33417 3.81912,-0.64447 5.20354,-0.62061 7.6621,-1.47991 0.0239,-0.88317 0.0239,-1.12186 0,-2.62565 -1.21734,-3.69977 -1.647,-1.45604 -4.89325,-1.45604 -3.03142,0 -4.48746,1.07412 -1.43217,1.05026 -2.12438,3.74751 l -4.20103,-0.57287 q 0.57286,-2.69725 1.88569,-4.34424 1.31282,-1.67086 3.79524,-2.55404 2.48243,-0.90704 5.75255,-0.90704 3.24625,0 5.27516,0.76383 2.0289,0.76382 2.98368,1.93343 0.95478,1.14573 1.33669,2.91207 0.21483,1.098 0.21483,3.96234 v 5.72867 q 0,5.99124 0.26256,7.5905 0.28643,1.57538 1.098,3.03142 h -4.48747 q -0.66834,-1.33669 -0.8593,-3.1269 z m -0.35804,-9.59553 q -2.33921,0.95478 -7.01763,1.62312 -2.64951,0.38191 -3.74751,0.8593 -1.09799,0.47739 -1.69473,1.4083 -0.59674,0.90704 -0.59674,2.02891 0,1.7186 1.28896,2.86434 1.31282,1.14573 3.81911,1.14573 2.48243,0 4.41586,-1.07412 1.93343,-1.098 2.84047,-2.98369 0.69221,-1.45604 0.69221,-4.29651 z" />
    <path
       id="path874"
       style="font-style:normal;font-variant:normal;font-weight:normal;font-stretch:normal;font-family:Arial;-inkscape-font-specification:Arial;fill:#d2d2d2;fill-opacity:1;stroke:#d2d2d2;stroke-width:0.009;stroke-miterlimit:4;stroke-dasharray:none;stroke-opacity:1"
       d="m 204.21057,177.91847 v -25.34939 h 3.86686 v 3.60429 q 2.79273,-4.17716 8.06789,-4.17716 2.29147,0 4.20102,0.83544 1.93343,0.81156 2.88821,2.14825 0.95478,1.33669 1.33669,3.17464 0.2387,1.19347 0.2387,4.17716 v 15.58677 h -4.29651 v -15.41968 q 0,-2.62565 -0.50126,-3.9146 -0.50126,-1.31282 -1.79021,-2.07664 -1.26508,-0.7877 -2.98369,-0.7877 -2.74499,0 -4.75002,1.74248 -1.98117,1.74247 -1.98117,6.61184 v 13.8443 z" />
    <path
       id="path876"
       style="font-style:normal;font-variant:normal;font-weight:normal;font-stretch:normal;font-family:Arial;-inkscape-font-specification:Arial;fill:#d2d2d2;fill-opacity:1;stroke:#d2d2d2;stroke-width:0.009;stroke-miterlimit:4;stroke-dasharray:none;stroke-opacity:1"
       d="m 240.80249,174.07549 0.62061,3.79524 q -1.81408,0.38192 -3.24625,0.38192 -2.33921,0 -3.62816,-0.73996 -1.28895,-0.73995 -1.81408,-1.93343 -0.52513,-1.21734 -0.52513,-5.0842 v -14.58425 h -3.15077 v -3.34173 h 3.15077 v -6.27767 l 4.27264,-2.57791 v 8.85558 h 4.32037 v 3.34173 h -4.32037 v 14.82295 q 0,1.83795 0.21482,2.36308 0.2387,0.52513 0.73996,0.83543 0.52512,0.3103 1.4799,0.3103 0.71609,0 1.88569,-0.16708 z" />
  </g>
  <path
     d="M 8.292205,32.6415 V 8.16515 h 13.35014 v 4.75186 h -7.600326 v 4.45114 h 7.045175 v 4.927 H 14.04863 V 32.6415 Z"
     style="fill:#d2d2d2;stroke-width:0.33045"
     id="path4-6" />
  <path
     d="M 41.922001,32.6415 47.262054,8.16515 h 6.80395 l 5.287179,24.47635 h -5.733289 l -0.713767,-4.68906 h -4.497415 l -0.713768,4.68906 z m 7.071607,-9.10717 h 3.304493 L 50.645854,12.85421 Z"
     style="fill:#d2d2d2;stroke-width:0.33045"
     id="path6" />
  <path
     d="m 79.193345,24.34393 h 5.244227 v 0.71377 q 0,2.01905 0.475842,2.84516 a 1.7018124,1.7018124 0 0 0 1.605983,0.82613 1.7645977,1.7645977 0 0 0 1.430847,-0.62785 2.5808067,2.5808067 0 0 0 0.515497,-1.70513 q 0,-1.78111 -2.557675,-3.41683 -0.41306,-0.2875 -0.634459,-0.42958 L 85.002638,22.37446 Q 81.55275,20.06131 80.706799,18.87831 a 6.9162976,6.9162976 0 0 1 -0.921953,-2.00253 8.8130747,8.8130747 0 0 1 -0.330447,-2.4321 q 0,-3.20866 1.860426,-5.03935 1.860432,-1.83069 5.141788,-1.82738 3.545717,0 5.412752,1.79434 1.867045,1.79434 1.883558,5.20126 c 0,0.0958 0,0.22802 0,0.39654 0,0.16853 0,0.30071 0,0.39655 h -5.181434 v -0.30071 q 0,-1.60599 -0.498978,-2.43211 a 1.6026777,1.6026777 0 0 0 -1.453976,-0.82612 1.6258091,1.6258091 0 0 0 -1.301969,0.58159 2.2900116,2.2900116 0 0 0 -0.485765,1.52998 q 0,1.55641 2.798904,3.30449 l 0.779863,0.50888 q 0.221399,0.12889 0.621246,0.39655 3.003778,1.90668 3.846423,3.21196 a 6.8502076,6.8502076 0 0 1 0.802992,1.9166 9.2525724,9.2525724 0 0 1 0.277578,2.31315 q 0,3.67129 -1.90669,5.65728 -1.906696,1.986 -5.452412,1.98269 -3.717553,0 -5.587894,-1.90007 -1.87034,-1.90008 -1.867035,-5.65068 c 0,-0.15862 0,-0.33046 0,-0.49898 0,-0.16854 0.01986,-0.43289 0.04957,-0.81621 z"
     style="fill:#d2d2d2;stroke-width:0.33045"
     id="path8" />
  <path
     d="M 115.0702,32.6415 V 8.16515 h 5.72007 V 32.6415 Z"
     style="fill:#d2d2d2;stroke-width:0.33045"
     id="path10" />
  <path
     d="M 142.41815,32.6415 V 8.16515 h 13.3171 v 4.75186 h -7.63007 v 4.49741 h 7.04187 v 4.91377 h -7.04187 v 5.34005 h 7.63007 v 4.97326 z"
     style="fill:#d2d2d2;stroke-width:0.33045"
     id="path12" />
  <path
     d="m 153.11148,42.33027 a 74.165973,74.165973 0 0 1 -18.21434,13.36997 c -14.9363,7.93077 -32.08991,11.31457 -47.495444,11.56571 h -1.744768 c -1.754684,0 -3.615116,0 -5.485456,-0.12558 C 56.379144,66.09616 28.129056,58.15547 8.292205,37.2744 h 14.476974 l 0.247833,0.29079 c 12.72229,14.20931 37.139162,23.56762 63.727089,24.45323 1.407718,0.043 2.80882,0.0694 4.209921,0.0694 24.321048,-0.01 46.418178,-7.06169 62.157458,-19.75755 z"
     style="fill:#d2d2d2;stroke-width:0.33045"
     id="path14" />
  <path
     d="M 154.79678,39.76268 C 138.27432,54.27601 113.72196,62.01842 86.773847,61.13281 60.608895,60.25052 36.585246,51.12682 23.958789,37.26118 h 14.050694 l 0.330453,0.33045 c 11.80033,11.21544 31.124989,18.10861 53.023847,18.90498 1.427535,0.0529 2.845165,0.0793 4.262789,0.0793 21.356928,-0.01 42.158688,-5.90843 59.170208,-16.81325 z"
     style="fill:#d2d2d2;stroke-width:0.33045"
     id="path16" />
  <path
     d="M 155.73525,38.084 C 137.5209,50.2313 114.66044,56.45035 91.386913,55.5978 69.907724,54.81793 50.943257,48.13956 39.285018,37.25787 h 14.982555 c 8.522285,8.1687 24.390446,13.65415 44.574267,13.65415 h 0.81622 c 14.70828,-0.11565 31.505,-3.15247 49.35586,-10.03903 2.18427,-0.90213 4.44454,-1.81417 6.72133,-2.78899 z"
     style="fill:#d2d2d2;stroke-width:0.33045"
     id="path18" />
</svg>
