<?xml version="1.0" encoding="UTF-8" standalone="no"?>
<svg
   xmlns:dc="http://purl.org/dc/elements/1.1/"
   xmlns:cc="http://creativecommons.org/ns#"
   xmlns:rdf="http://www.w3.org/1999/02/22-rdf-syntax-ns#"
   xmlns:svg="http://www.w3.org/2000/svg"
   xmlns="http://www.w3.org/2000/svg"
   xmlns:sodipodi="http://sodipodi.sourceforge.net/DTD/sodipodi-0.dtd"
   xmlns:inkscape="http://www.inkscape.org/namespaces/inkscape"
   sodipodi:docname="fasie.svg"
   inkscape:version="1.0 (4035a4fb49, 2020-05-01)"
   id="svg8"
   version="1.1"
   viewBox="0 0 204.46654 82.468176"
   height="311.69073"
   width="772.78827">
  <defs
     id="defs2">
    <inkscape:perspective
       id="perspective893"
       inkscape:persp3d-origin="104.99969 : -115.53183 : 1"
       inkscape:vp_z="209.99947 : -66.031835 : 1"
       inkscape:vp_y="0 : 1000 : 0"
       inkscape:vp_x="0 : -66.031835 : 1"
       sodipodi:type="inkscape:persp3d" />
  </defs>
  <sodipodi:namedview
     inkscape:window-maximized="0"
     inkscape:window-y="0"
     inkscape:window-x="0"
     inkscape:window-height="1024"
     inkscape:window-width="1898"
     fit-margin-bottom="0"
     fit-margin-right="0"
     fit-margin-left="0"
     fit-margin-top="0"
     units="px"
     showgrid="false"
     inkscape:document-rotation="0"
     inkscape:current-layer="layer1"
     inkscape:document-units="mm"
     inkscape:cy="-242.37566"
     inkscape:cx="345.23504"
     inkscape:zoom="0.49497475"
     inkscape:pageshadow="2"
     inkscape:pageopacity="0.0"
     borderopacity="1.0"
     bordercolor="#666666"
     pagecolor="#ffffff"
     id="base" />
  <metadata
     id="metadata5">
    <rdf:RDF>
      <cc:Work
         rdf:about="">
        <dc:format>image/svg+xml</dc:format>
        <dc:type
           rdf:resource="http://purl.org/dc/dcmitype/StillImage" />
        <dc:title></dc:title>
      </cc:Work>
    </rdf:RDF>
  </metadata>
  <g
     transform="translate(254.2707,-134.11173)"
     id="layer1"
     inkscape:groupmode="layer"
     inkscape:label="Слой 1">
    <path
       d="m -202.16636,161.70264 4.14898,-0.40338 q 0.37456,2.0889 1.51265,3.06852 1.15249,0.97962 3.09733,0.97962 2.06009,0 3.09733,-0.86437 1.05165,-0.87879 1.05165,-2.04567 0,-0.74914 -0.4466,-1.26775 -0.43218,-0.53304 -1.52705,-0.922 -0.74912,-0.25932 -3.41426,-0.92199 -3.42867,-0.84997 -4.81167,-2.08891 -1.94483,-1.74313 -1.94483,-4.24981 0,-1.61349 0.90759,-3.0109 0.92199,-1.41181 2.63633,-2.14652 1.72874,-0.73471 4.16339,-0.73471 3.97611,0 5.97856,1.74314 2.01686,1.74316 2.11771,4.6532 l -4.26423,0.18728 q -0.27372,-1.62789 -1.18131,-2.3338 -0.89318,-0.72031 -2.69395,-0.72031 -1.8584,0 -2.91006,0.76353 -0.67708,0.48981 -0.67708,1.31096 0,0.74912 0.63386,1.28215 0.80675,0.67709 3.91849,1.4118 3.11174,0.73473 4.59557,1.52706 1.49825,0.77794 2.3338,2.14653 0.84997,1.35417 0.84997,3.35664 0,1.81517 -1.00843,3.39986 -1.00843,1.58467 -2.85242,2.36261 -1.844,0.76352 -4.59558,0.76352 -4.00491,0 -6.15144,-1.84399 -2.14652,-1.85839 -2.5643,-5.40231 z"
       style="font-style:normal;font-variant:normal;font-weight:bold;font-stretch:normal;font-size:28.5913px;line-height:0.75;font-family:Arial;-inkscape-font-specification:'Arial Bold';letter-spacing:-5.38231px;word-spacing:0px;fill:#d2d2d2;fill-opacity:1;stroke:none;stroke-width:0.184399;stroke-opacity:1"
       id="path952" />
    <path
       d="m -187.10521,168.57439 v -21.11947 h 4.04813 v 11.20801 l 4.73964,-5.38791 h 4.98454 l -5.22944,5.58959 5.604,9.70978 h -4.36508 l -3.84644,-6.87175 -1.88722,1.97364 v 4.89811 z"
       style="font-style:normal;font-variant:normal;font-weight:bold;font-stretch:normal;font-size:28.5913px;line-height:0.75;font-family:Arial;-inkscape-font-specification:'Arial Bold';letter-spacing:-5.38231px;word-spacing:0px;fill:#d2d2d2;fill-opacity:1;stroke:none;stroke-width:0.184399;stroke-opacity:1"
       id="path954" />
    <path
       inkscape:transform-center-y="9.6630067e-06"
       inkscape:transform-center-x="-0.00013528901"
       sodipodi:nodetypes="ccccc"
       d="m -132.01009,163.58975 -7.99094,5.60341 -0.0421,-22.74489 8.06065,5.68972 z"
       style="fill:#d2d2d2;fill-opacity:1;stroke:none;stroke-width:0.134544;stroke-linejoin:round;stroke-opacity:1"
       id="path909" />
    <path
       inkscape:transform-center-x="0.00013272199"
       id="path909-3"
       style="fill:#d2d2d2;fill-opacity:1;stroke:none;stroke-width:0.137117;stroke-linejoin:round;stroke-opacity:1"
       inkscape:transform-center-y="1.1951155e-05"
       d="m -113.28407,151.81022 8.1438,-5.71057 0.0429,23.17979 -8.21482,-5.79848 z"
       sodipodi:nodetypes="ccccc" />
    <path
       id="path1187"
       d="m -234.02154,179.42457 c -7.28472,-0.4197 -13.58367,-3.94009 -17.8833,-9.99471 -0.34838,-0.49057 -0.57221,-0.85913 -0.56308,-0.92712 0.0137,-0.10218 0.37563,-0.11461 3.84918,-0.13094 l 3.83403,-0.018 0.0763,0.16702 c 0.21594,0.47304 1.54362,1.87008 2.55935,2.69304 6.17653,5.00439 15.4009,5.29858 22.77109,0.72624 1.37264,-0.85156 3.49255,-2.49606 3.74155,-2.90243 0.10609,-0.17312 0.61042,-0.61266 0.703,-0.61266 0.20369,0 -0.23311,0.78548 -1.21339,2.18207 -2.42434,3.45388 -5.64024,5.99136 -9.44934,7.45596 -2.6723,1.02751 -5.70809,1.51807 -8.42535,1.36151 z"
       style="fill:#d2d2d2;fill-opacity:1;stroke:none;stroke-width:0.0587308;stroke-opacity:1" />
    <path
       style="fill:#d2d2d2;fill-opacity:1;stroke:none;stroke-width:0.0464849;stroke-opacity:1"
       d="m -231.24873,176.38918 c -6.22429,-0.30772 -11.60629,-2.88879 -15.28001,-7.32791 -0.29767,-0.3597 -0.48892,-0.62991 -0.48113,-0.67977 0.0116,-0.0749 0.32096,-0.084 3.28886,-0.0961 l 3.27592,-0.0127 0.0651,0.12238 c 0.18451,0.34683 1.31893,1.37109 2.18679,1.97449 5.27742,3.66913 13.159,3.88481 19.45631,0.53247 1.17281,-0.62434 2.98414,-1.83006 3.19688,-2.12801 0.0907,-0.12698 0.52158,-0.44918 0.60067,-0.44918 0.17404,0 -0.19917,0.57589 -1.03676,1.59983 -2.07142,2.53234 -4.81918,4.39276 -8.0738,5.46658 -2.2833,0.75335 -4.87716,1.11301 -7.19887,0.99823 z"
       id="path1187-5" />
    <g
       transform="matrix(1.1506382,0,0,1.1506382,39.857991,-21.967383)"
       aria-label="FASIE"
       id="text880"
       style="font-size:11.8072px;line-height:1.25;font-family:sans-serif;fill:#d2d2d2;fill-opacity:1;stroke-width:0.177109">
      <path
         d="m -253.57973,157.04266 v -8.45183 h 5.70181 v 0.99739 h -4.58336 v 2.61741 h 3.96648 v 0.99739 h -3.96648 v 3.83964 z"
         style="font-style:normal;font-variant:normal;font-weight:normal;font-stretch:normal;font-family:Arial;-inkscape-font-specification:Arial;fill:#d2d2d2;fill-opacity:1;stroke-width:0.177109"
         id="path852" />
      <path
         d="m -247.99322,157.04266 3.24582,-8.45183 h 1.20494 l 3.45914,8.45183 h -1.27412 l -0.98585,-2.55976 h -3.53409 l -0.9282,2.55976 z m 2.43869,-3.47067 h 2.86532 l -0.88208,-2.34068 q -0.40356,-1.06657 -0.59958,-1.75263 -0.16143,0.81289 -0.45546,1.61426 z"
         style="font-style:normal;font-variant:normal;font-weight:normal;font-stretch:normal;font-family:Arial;-inkscape-font-specification:Arial;fill:#d2d2d2;fill-opacity:1;stroke-width:0.177109"
         id="path854" />
      <path
         d="m -239.55868,154.32724 1.05503,-0.0922 q 0.075,0.63418 0.34592,1.04351 0.27673,0.40357 0.85325,0.65724 0.57653,0.2479 1.29718,0.2479 0.63994,0 1.12999,-0.19025 0.49004,-0.19025 0.72642,-0.51887 0.24213,-0.33438 0.24213,-0.72642 0,-0.3978 -0.2306,-0.69183 -0.23061,-0.29979 -0.76102,-0.50157 -0.34014,-0.1326 -1.50472,-0.40934 -1.16458,-0.28249 -1.63156,-0.5304 -0.60535,-0.31708 -0.90514,-0.78407 -0.29403,-0.47275 -0.29403,-1.05504 0,-0.63994 0.36321,-1.1934 0.36321,-0.55923 1.0608,-0.84749 0.69759,-0.28826 1.55085,-0.28826 0.93973,0 1.65462,0.30556 0.72066,0.29979 1.10693,0.88784 0.38627,0.58806 0.41509,1.33177 l -1.07233,0.0807 q -0.0865,-0.80136 -0.58805,-1.21069 -0.49581,-0.40934 -1.47014,-0.40934 -1.01468,0 -1.48166,0.37474 -0.46122,0.36898 -0.46122,0.89362 0,0.45545 0.32862,0.74948 0.32285,0.29402 1.68344,0.60535 1.36636,0.30555 1.87371,0.53616 0.73795,0.34015 1.08962,0.86479 0.35168,0.51887 0.35168,1.19917 0,0.67453 -0.38627,1.27411 -0.38627,0.59382 -1.11269,0.92821 -0.72065,0.32861 -1.62579,0.32861 -1.14729,0 -1.92559,-0.33438 -0.77254,-0.33438 -1.21647,-1.00315 -0.43815,-0.67453 -0.46121,-1.52202 z"
         style="font-style:normal;font-variant:normal;font-weight:normal;font-stretch:normal;font-family:Arial;-inkscape-font-specification:Arial;fill:#d2d2d2;fill-opacity:1;stroke-width:0.177109"
         id="path856" />
      <path
         d="m -231.10109,157.04266 v -8.45183 h 1.11846 v 8.45183 z"
         style="font-style:normal;font-variant:normal;font-weight:normal;font-stretch:normal;font-family:Arial;-inkscape-font-specification:Arial;fill:#d2d2d2;fill-opacity:1;stroke-width:0.177109"
         id="path858" />
      <path
         d="m -227.99362,157.04266 v -8.45183 h 6.11115 v 0.99739 h -4.9927 v 2.58859 h 4.67561 v 0.99162 h -4.67561 v 2.87685 h 5.18871 v 0.99738 z"
         style="font-style:normal;font-variant:normal;font-weight:normal;font-stretch:normal;font-family:Arial;-inkscape-font-specification:Arial;fill:#d2d2d2;fill-opacity:1;stroke-width:0.177109"
         id="path860" />
    </g>
    <g
       transform="matrix(1.1506382,0,0,1.1506382,33.160317,-21.967383)"
       aria-label="Skolkovo"
       id="text884"
       style="font-size:11.7004px;line-height:1.25;font-family:sans-serif;fill:#d2d2d2;fill-opacity:1;stroke-width:0.175506">
      <path
         d="m -204.15242,173.02162 1.04549,-0.0914 q 0.0743,0.62844 0.34279,1.03406 0.27423,0.39992 0.84554,0.6513 0.5713,0.24566 1.28544,0.24566 0.63415,0 1.11977,-0.18853 0.48561,-0.18853 0.71984,-0.51418 0.23995,-0.33136 0.23995,-0.71985 0,-0.3942 -0.22852,-0.68557 -0.22852,-0.29708 -0.75413,-0.49704 -0.33707,-0.1314 -1.49111,-0.40563 -1.15405,-0.27994 -1.61681,-0.5256 -0.59987,-0.31422 -0.89695,-0.77698 -0.29137,-0.46847 -0.29137,-1.0455 0,-0.63415 0.35993,-1.1826 0.35992,-0.55417 1.0512,-0.83983 0.69129,-0.28565 1.53682,-0.28565 0.93124,0 1.63966,0.30279 0.71414,0.29708 1.09691,0.87982 0.38278,0.58273 0.41135,1.31972 l -1.06264,0.08 q -0.0857,-0.79412 -0.58273,-1.19975 -0.49133,-0.40563 -1.45684,-0.40563 -1.0055,0 -1.46826,0.37136 -0.45705,0.36563 -0.45705,0.88552 0,0.45134 0.32565,0.74271 0.31993,0.29136 1.66822,0.59987 1.354,0.30279 1.85675,0.53132 0.73127,0.33707 1.07977,0.85696 0.3485,0.51418 0.3485,1.18832 0,0.66843 -0.38278,1.26259 -0.38277,0.58845 -1.10262,0.91981 -0.71414,0.32565 -1.61109,0.32565 -1.13691,0 -1.90817,-0.33136 -0.76556,-0.33136 -1.20546,-0.99408 -0.4342,-0.66843 -0.45705,-1.50825 z"
         style="font-style:normal;font-variant:normal;font-weight:normal;font-stretch:normal;font-family:Arial;-inkscape-font-specification:Arial;fill:#d2d2d2;fill-opacity:1;stroke-width:0.175506"
         id="path863" />
      <path
         d="m -196.08554,175.71248 v -8.37539 h 1.02835 v 4.77614 l 2.43378,-2.46805 h 1.33115 l -2.31952,2.25096 2.55375,3.81634 h -1.2683 l -2.0053,-3.10221 -0.72556,0.697 v 2.40521 z"
         style="font-style:normal;font-variant:normal;font-weight:normal;font-stretch:normal;font-family:Arial;-inkscape-font-specification:Arial;fill:#d2d2d2;fill-opacity:1;stroke-width:0.175506"
         id="path865" />
      <path
         d="m -190.62383,172.67883 q 0,-1.68536 0.93694,-2.49662 0.7827,-0.67414 1.90817,-0.67414 1.25117,0 2.04529,0.82268 0.79412,0.81697 0.79412,2.26238 0,1.17119 -0.35421,1.84533 -0.3485,0.66843 -1.02265,1.03978 -0.66843,0.37135 -1.46255,0.37135 -1.27401,0 -2.06242,-0.81697 -0.78269,-0.81697 -0.78269,-2.35379 z m 1.05692,0 q 0,1.16547 0.50846,1.7482 0.50847,0.57703 1.27973,0.57703 0.76556,0 1.27402,-0.58274 0.50847,-0.58273 0.50847,-1.77677 0,-1.12548 -0.51418,-1.7025 -0.50847,-0.58273 -1.26831,-0.58273 -0.77126,0 -1.27973,0.57702 -0.50846,0.57702 -0.50846,1.74249 z"
         style="font-style:normal;font-variant:normal;font-weight:normal;font-stretch:normal;font-family:Arial;-inkscape-font-specification:Arial;fill:#d2d2d2;fill-opacity:1;stroke-width:0.175506"
         id="path867" />
      <path
         d="m -183.75099,175.71248 v -8.37539 h 1.02835 v 8.37539 z"
         style="font-style:normal;font-variant:normal;font-weight:normal;font-stretch:normal;font-family:Arial;-inkscape-font-specification:Arial;fill:#d2d2d2;fill-opacity:1;stroke-width:0.175506"
         id="path869" />
      <path
         d="m -181.11726,175.71248 v -8.37539 h 1.02836 v 4.77614 l 2.43377,-2.46805 h 1.33115 l -2.31951,2.25096 2.55375,3.81634 h -1.26831 l -2.00529,-3.10221 -0.72556,0.697 v 2.40521 z"
         style="font-style:normal;font-variant:normal;font-weight:normal;font-stretch:normal;font-family:Arial;-inkscape-font-specification:Arial;fill:#d2d2d2;fill-opacity:1;stroke-width:0.175506"
         id="path871" />
      <path
         d="m -175.65555,172.67883 q 0,-1.68536 0.93695,-2.49662 0.78269,-0.67414 1.90817,-0.67414 1.25117,0 2.04528,0.82268 0.79412,0.81697 0.79412,2.26238 0,1.17119 -0.35421,1.84533 -0.3485,0.66843 -1.02264,1.03978 -0.66843,0.37135 -1.46255,0.37135 -1.27402,0 -2.06242,-0.81697 -0.7827,-0.81697 -0.7827,-2.35379 z m 1.05692,0 q 0,1.16547 0.50847,1.7482 0.50846,0.57703 1.27973,0.57703 0.76555,0 1.27402,-0.58274 0.50846,-0.58273 0.50846,-1.77677 0,-1.12548 -0.51418,-1.7025 -0.50846,-0.58273 -1.2683,-0.58273 -0.77127,0 -1.27973,0.57702 -0.50847,0.57702 -0.50847,1.74249 z"
         style="font-style:normal;font-variant:normal;font-weight:normal;font-stretch:normal;font-family:Arial;-inkscape-font-specification:Arial;fill:#d2d2d2;fill-opacity:1;stroke-width:0.175506"
         id="path873" />
      <path
         d="m -167.07449,175.71248 -2.30809,-6.0673 h 1.08549 l 1.30258,3.63352 q 0.21138,0.58845 0.38849,1.2226 0.13711,-0.47989 0.38278,-1.15404 l 1.34828,-3.70208 h 1.05693 l -2.29666,6.0673 z"
         style="font-style:normal;font-variant:normal;font-weight:normal;font-stretch:normal;font-family:Arial;-inkscape-font-specification:Arial;fill:#d2d2d2;fill-opacity:1;stroke-width:0.175506"
         id="path875" />
      <path
         d="m -163.29243,172.67883 q 0,-1.68536 0.93695,-2.49662 0.78269,-0.67414 1.90817,-0.67414 1.25116,0 2.04528,0.82268 0.79412,0.81697 0.79412,2.26238 0,1.17119 -0.35421,1.84533 -0.3485,0.66843 -1.02264,1.03978 -0.66843,0.37135 -1.46255,0.37135 -1.27402,0 -2.06243,-0.81697 -0.78269,-0.81697 -0.78269,-2.35379 z m 1.05692,0 q 0,1.16547 0.50847,1.7482 0.50846,0.57703 1.27973,0.57703 0.76555,0 1.27402,-0.58274 0.50846,-0.58273 0.50846,-1.77677 0,-1.12548 -0.51418,-1.7025 -0.50846,-0.58273 -1.2683,-0.58273 -0.77127,0 -1.27973,0.57702 -0.50847,0.57702 -0.50847,1.74249 z"
         style="font-style:normal;font-variant:normal;font-weight:normal;font-stretch:normal;font-family:Arial;-inkscape-font-specification:Arial;fill:#d2d2d2;fill-opacity:1;stroke-width:0.175506"
         id="path877" />
    </g>
    <g
       transform="matrix(1.1506382,0,0,1.1506382,36.204714,-21.967383)"
       aria-label="ASI"
       id="text72"
       style="font-size:10.5655px;line-height:1.25;font-family:sans-serif;fill:#d2d2d2;fill-opacity:1;stroke-width:0.158482">
      <path
         d="m -147.1025,175.45316 2.90448,-7.563 h 1.07822 l 3.09536,7.563 h -1.14012 l -0.88218,-2.29057 h -3.16243 l -0.83059,2.29057 z m 2.18223,-3.10568 h 2.56399 l -0.78931,-2.09453 q -0.36113,-0.9544 -0.53653,-1.56832 -0.14445,0.72741 -0.40756,1.4445 z"
         style="font-style:normal;font-variant:normal;font-weight:normal;font-stretch:normal;font-family:Arial;-inkscape-font-specification:Arial;fill:#d2d2d2;fill-opacity:1;stroke-width:0.158482"
         id="path880" />
      <path
         d="m -139.55497,173.0233 0.94408,-0.0825 q 0.0671,0.56749 0.30954,0.93377 0.24763,0.36113 0.76352,0.58812 0.51589,0.22183 1.16076,0.22183 0.57264,0 1.01115,-0.17024 0.43851,-0.17025 0.65003,-0.4643 0.21667,-0.29922 0.21667,-0.65003 0,-0.35597 -0.20636,-0.61907 -0.20635,-0.26827 -0.68097,-0.44883 -0.30438,-0.11866 -1.34649,-0.36628 -1.0421,-0.25279 -1.45998,-0.47463 -0.54168,-0.28374 -0.80995,-0.70161 -0.2631,-0.42304 -0.2631,-0.94409 0,-0.57264 0.32501,-1.0679 0.32501,-0.50041 0.94924,-0.75836 0.62423,-0.25795 1.38776,-0.25795 0.8409,0 1.48061,0.27343 0.64487,0.26826 0.99052,0.79447 0.34565,0.52621 0.37144,1.19172 l -0.95956,0.0722 q -0.0774,-0.71709 -0.52621,-1.08338 -0.44367,-0.36628 -1.31553,-0.36628 -0.90797,0 -1.32585,0.33533 -0.41271,0.33017 -0.41271,0.79964 0,0.40755 0.29406,0.67066 0.2889,0.2631 1.50641,0.54169 1.22266,0.27342 1.67665,0.47978 0.66034,0.30437 0.97504,0.77384 0.31469,0.4643 0.31469,1.07306 0,0.60359 -0.34565,1.14012 -0.34564,0.53137 -0.99567,0.83059 -0.64487,0.29406 -1.45482,0.29406 -1.02663,0 -1.72308,-0.29922 -0.6913,-0.29922 -1.08854,-0.89765 -0.39208,-0.6036 -0.41271,-1.36196 z"
         style="font-style:normal;font-variant:normal;font-weight:normal;font-stretch:normal;font-family:Arial;-inkscape-font-specification:Arial;fill:#d2d2d2;fill-opacity:1;stroke-width:0.158482"
         id="path882" />
      <path
         d="m -131.98682,175.45316 v -7.563 h 1.00084 v 7.563 z"
         style="font-style:normal;font-variant:normal;font-weight:normal;font-stretch:normal;font-family:Arial;-inkscape-font-specification:Arial;fill:#d2d2d2;fill-opacity:1;stroke-width:0.158482"
         id="path884" />
    </g>
    <path
       sodipodi:nodetypes="ccccsccccsccccccsccsccccccccccccccccccccccccc"
       style="fill:#d2d2d2;fill-opacity:1;stroke:none;stroke-width:0.224718;stroke-opacity:1"
       id="path2-5"
       fill-rule="evenodd"
       d="m -79.061513,152.50487 v -2.02088 c 0.198508,-0.014 0.397281,-0.0242 0.596192,-0.0304 5.527245,-0.17371 9.15355,4.74918 9.15355,4.74918 0,0 -3.916416,5.43954 -8.115778,5.43954 -0.604948,0 -1.14607,-0.0975 -1.633964,-0.26115 v -6.12805 c 2.151717,0.25977 2.584311,1.21033 3.878254,3.36673 l 2.877102,-2.42583 c 0,0 -2.100019,-2.75458 -5.640502,-2.75458 -0.385407,0 -0.753496,0.027 -1.114854,0.0656 z m 0,-6.67571 v 3.01865 c 0.198221,-0.0155 0.396867,-0.0284 0.596192,-0.0357 7.68659,-0.25886 12.694248,6.30379 12.694248,6.30379 0,0 -5.752167,6.99412 -11.744339,6.99412 -0.549004,0 -1.062948,-0.0504 -1.546101,-0.13617 v 1.86583 c 0.413056,0.0526 0.840933,0.0835 1.287657,0.0835 5.576446,0 9.609064,-2.84762 13.51425,-6.21818 0.646969,0.51845 3.297775,1.77954 3.842717,2.33215 -3.713052,3.10827 -12.365909,5.61343 -17.271348,5.61343 -0.458645,-0.001 -0.916933,-0.0255 -1.373276,-0.0714 v 2.62245 h 21.19476 v -22.37286 h -21.19453 z m 0,14.55184 v 1.59325 c -5.157804,-0.91977 -6.58929,-6.28084 -6.58929,-6.28084 0,0 2.476449,-2.74381 6.58929,-3.18854 v 1.74808 c -0.0023,0 -0.0046,-7e-4 -0.0081,-7e-4 -2.158229,-0.25932 -3.844524,1.75727 -3.844524,1.75727 0,0 0.944732,3.39459 3.852624,4.37167 z m -9.160541,-4.92019 c 0,0 3.056659,-4.51075 9.160541,-4.97705 v -1.63595 c -6.760517,0.54248 -12.614975,6.26807 -12.614975,6.26807 0,0 3.315552,9.58599 12.615205,10.46352 v -1.7393 c -6.824331,-0.85886 -9.160771,-8.37929 -9.160771,-8.37929 z" />
    <g
       transform="matrix(1.1506382,0,0,1.1506382,39.857991,-21.967383)"
       aria-label="nVIDIA"
       id="text918"
       style="font-size:10.8986px;line-height:1.25;font-family:sans-serif;fill:#d2d2d2;fill-opacity:1;stroke-width:0.163479">
      <path
         d="m -117.81906,175.87808 v -7.23399 h 1.10349 v 1.02856 q 0.79696,-1.19204 2.30234,-1.19204 0.65392,0 1.19885,0.23841 0.55175,0.23159 0.82422,0.61305 0.27246,0.38145 0.38145,0.90595 0.0681,0.34058 0.0681,1.19204 v 4.44802 h -1.2261 v -4.40034 q 0,-0.74928 -0.14305,-1.11711 -0.14304,-0.37464 -0.51087,-0.59262 -0.36102,-0.22478 -0.85146,-0.22478 -0.78334,0 -1.35553,0.49725 -0.56536,0.49725 -0.56536,1.88683 v 3.95077 z"
         style="font-style:normal;font-variant:normal;font-weight:normal;font-stretch:normal;font-size:13.9503px;font-family:Arial;-inkscape-font-specification:Arial;fill:#d2d2d2;fill-opacity:1;stroke-width:0.163479"
         id="path887" />
      <path
         d="m -107.85489,175.87808 -3.0333,-7.94512 h 1.12285 l 2.51711,6.68923 2.52243,-6.68923 h 1.11753 l -3.02798,7.94512 z"
         style="fill:#d2d2d2;fill-opacity:1;stroke-width:0.163479"
         id="path889" />
      <path
         d="m -102.45348,167.93296 h 1.07496 v 7.94512 h -1.07496 z"
         style="fill:#d2d2d2;fill-opacity:1;stroke-width:0.163479"
         id="path891" />
      <path
         d="m -98.164288,168.81634 v 6.17836 h 1.298466 q 1.644369,0 2.405355,-0.74502 0.766308,-0.74502 0.766308,-2.35214 0,-1.59648 -0.766308,-2.33618 -0.760986,-0.74502 -2.405355,-0.74502 z m -1.07496,-0.88338 h 2.208457 q 2.309566,0 3.389847,0.96321 1.080282,0.95788 1.080282,3.00137 0,2.05413 -1.085603,3.01734 -1.085603,0.9632 -3.384526,0.9632 h -2.208457 z"
         style="fill:#d2d2d2;fill-opacity:1;stroke-width:0.163479"
         id="path893" />
      <path
         d="m -90.852435,167.93296 h 1.074959 v 7.94512 h -1.074959 z"
         style="fill:#d2d2d2;fill-opacity:1;stroke-width:0.163479"
         id="path895" />
      <path
         d="m -84.982731,168.99196 -1.458113,3.95393 h 2.921548 z m -0.60666,-1.059 h 1.218642 l 3.02798,7.94512 h -1.117532 l -0.723735,-2.03816 h -3.581425 l -0.723735,2.03816 h -1.133497 z"
         style="fill:#d2d2d2;fill-opacity:1;stroke-width:0.163479"
         id="path897" />
    </g>
    <path
       id="path900"
       style="font-style:normal;font-variant:normal;font-weight:normal;font-stretch:normal;font-size:13.2086px;line-height:1.25;font-family:Arial;-inkscape-font-specification:Arial;fill:#d2d2d2;fill-opacity:1;stroke-width:0.212657"
       d="m -251.51756,203.48009 v -10.14835 h 1.37757 l 5.33031,7.96778 v -7.96778 h 1.28758 v 10.14835 h -1.37757 l -5.33031,-7.97469 v 7.97469 z" />
    <path
       id="path902"
       style="font-style:normal;font-variant:normal;font-weight:normal;font-stretch:normal;font-size:13.2086px;line-height:1.25;font-family:Arial;-inkscape-font-specification:Arial;fill:#d2d2d2;fill-opacity:1;stroke-width:0.212657"
       d="m -238.67636,203.48009 v -8.95076 h -3.34356 v -1.19759 h 8.0439 v 1.19759 h -3.35739 v 8.95076 z" />
    <path
       id="path904"
       style="font-style:normal;font-variant:normal;font-weight:normal;font-stretch:normal;font-size:13.2086px;line-height:1.25;font-family:Arial;-inkscape-font-specification:Arial;fill:#d2d2d2;fill-opacity:1;stroke-width:0.212657"
       d="m -232.36308,203.48009 v -10.14835 h 1.34297 v 10.14835 z" />
    <path
       id="path906"
       style="font-style:normal;font-variant:normal;font-weight:normal;font-stretch:normal;font-size:13.2086px;line-height:1.25;font-family:Arial;-inkscape-font-specification:Arial;fill:#d2d2d2;fill-opacity:1;stroke-width:0.212657"
       d="m -218.68427,202.28251 v 1.19758 h -6.70787 q -0.0138,-0.44996 0.14537,-0.8653 0.25613,-0.68533 0.81685,-1.3499 0.56764,-0.66455 1.63371,-1.53678 1.65447,-1.35681 2.23595,-2.14597 0.58149,-0.79608 0.58149,-1.50217 0,-0.74071 -0.53302,-1.24604 -0.52612,-0.51227 -1.37759,-0.51227 -0.89992,0 -1.43988,0.53996 -0.53994,0.53994 -0.54687,1.49525 l -1.28065,-0.13153 q 0.13152,-1.43295 0.98991,-2.18059 0.85838,-0.75454 2.30518,-0.75454 1.46065,0 2.31212,0.80994 0.85146,0.80992 0.85146,2.00751 0,0.60918 -0.2492,1.19758 -0.24922,0.58841 -0.83072,1.23913 -0.57456,0.65071 -1.91751,1.786 -1.12144,0.94145 -1.43988,1.28066 -0.31844,0.33228 -0.52611,0.67148 z" />
    <path
       id="path908"
       style="font-style:normal;font-variant:normal;font-weight:normal;font-stretch:normal;font-size:13.2086px;line-height:1.25;font-family:Arial;-inkscape-font-specification:Arial;fill:#d2d2d2;fill-opacity:1;stroke-width:0.212657"
       d="m -217.34131,198.47515 q 0,-1.79984 0.36689,-2.8936 0.37382,-1.10068 1.10068,-1.69601 0.73378,-0.59533 1.84138,-0.59533 0.81685,0 1.43294,0.33228 0.6161,0.32536 1.01762,0.94838 0.40149,0.6161 0.62994,1.5091 0.22844,0.88608 0.22844,2.39518 0,1.78598 -0.3669,2.88667 -0.36688,1.09374 -1.10067,1.696 -0.72685,0.59533 -1.84137,0.59533 -1.46757,0 -2.30519,-1.05222 -1.00376,-1.2668 -1.00376,-4.12578 z m 1.28066,0 q 0,2.499 0.58149,3.3297 0.58841,0.82378 1.4468,0.82378 0.85838,0 1.43987,-0.83069 0.58841,-0.83072 0.58841,-3.32279 0,-2.50594 -0.58841,-3.32971 -0.58149,-0.82378 -1.45373,-0.82378 -0.85837,0 -1.37064,0.72685 -0.64379,0.92762 -0.64379,3.42664 z" />
    <path
       id="path910"
       style="font-style:normal;font-variant:normal;font-weight:normal;font-stretch:normal;font-size:13.2086px;line-height:1.25;font-family:Arial;-inkscape-font-specification:Arial;fill:#d2d2d2;fill-opacity:1;stroke-width:0.212657"
       d="m -208.75052,203.48009 v -1.4191 h 1.41912 v 1.4191 z" />
    <path
       id="path912"
       style="font-style:normal;font-variant:normal;font-weight:normal;font-stretch:normal;font-size:13.2086px;line-height:1.25;font-family:Arial;-inkscape-font-specification:Arial;fill:#d2d2d2;fill-opacity:1;stroke-width:0.212657"
       d="m -205.51079,200.80109 1.24603,-0.16614 q 0.21461,1.05914 0.72686,1.52987 0.51918,0.46381 1.25989,0.46381 0.87916,0 1.48141,-0.60918 0.60918,-0.60918 0.60918,-1.5091 0,-0.85839 -0.56072,-1.41218 -0.56072,-0.56071 -1.42603,-0.56071 -0.35304,0 -0.87915,0.13844 l 0.13845,-1.09376 q 0.1246,0.0138 0.20075,0.0138 0.79609,0 1.43294,-0.41536 0.63688,-0.41535 0.63688,-1.28065 0,-0.68533 -0.46381,-1.13529 -0.46381,-0.44997 -1.19759,-0.44997 -0.72686,0 -1.21143,0.4569 -0.48458,0.45688 -0.62302,1.37064 l -1.24604,-0.22151 q 0.22843,-1.25297 1.03837,-1.9383 0.80992,-0.69224 2.01443,-0.69224 0.83071,0 1.52987,0.35996 0.69917,0.35305 1.06606,0.96915 0.37381,0.6161 0.37381,1.30834 0,0.65764 -0.35304,1.1976 -0.35306,0.53995 -1.04529,0.85838 0.89992,0.20767 1.39833,0.86531 0.49842,0.65072 0.49842,1.63371 0,1.3291 -0.96914,2.25672 -0.96915,0.92069 -2.45056,0.92069 -1.33603,0 -2.22211,-0.79608 -0.87915,-0.79608 -1.00375,-2.0629 z" />
    <path
       id="path914"
       style="font-style:normal;font-variant:normal;font-weight:normal;font-stretch:normal;font-size:13.2086px;line-height:1.25;font-family:Arial;-inkscape-font-specification:Arial;fill:#d2d2d2;fill-opacity:1;stroke-width:0.212657"
       d="m -197.6261,200.82185 1.30834,-0.1108 q 0.14537,0.9553 0.67148,1.43987 0.53304,0.47765 1.28066,0.47765 0.89992,0 1.52295,-0.6784 0.62301,-0.67841 0.62301,-1.79985 0,-1.06606 -0.60225,-1.68216 -0.59533,-0.61611 -1.56448,-0.61611 -0.60224,0 -1.08682,0.27691 -0.48458,0.26998 -0.76148,0.70609 l -1.16989,-0.15228 0.98299,-5.21263 h 5.04648 v 1.19067 h -4.04965 l -0.54686,2.72745 q 0.91375,-0.63687 1.91751,-0.63687 1.32911,0 2.24288,0.92069 0.91377,0.92069 0.91377,2.36749 0,1.37756 -0.80302,2.38132 -0.97606,1.2322 -2.66514,1.2322 -1.3845,0 -2.26365,-0.77531 -0.87223,-0.77533 -0.99683,-2.05599 z" />
    <path
       id="path916"
       style="font-style:normal;font-variant:normal;font-weight:normal;font-stretch:normal;font-size:13.2086px;line-height:1.25;font-family:Arial;-inkscape-font-specification:Arial;fill:#d2d2d2;fill-opacity:1;stroke-width:0.212657"
       d="m -162.66364,199.49968 v -1.19067 l 4.29885,-0.007 v 3.76584 q -0.98991,0.78915 -2.04213,1.19065 -1.05221,0.39458 -2.15981,0.39458 -1.49526,0 -2.72053,-0.63687 -1.21836,-0.64378 -1.84137,-1.85522 -0.62303,-1.21142 -0.62303,-2.70668 0,-1.48141 0.6161,-2.76206 0.62302,-1.28759 1.786,-1.91061 1.16297,-0.62301 2.67899,-0.62301 1.10067,0 1.98675,0.35995 0.893,0.35305 1.39834,0.98992 0.50535,0.63688 0.76839,1.66139 l -1.21143,0.33228 q -0.22844,-0.77532 -0.56765,-1.21835 -0.33918,-0.44304 -0.96913,-0.70609 -0.62994,-0.26998 -1.39834,-0.26998 -0.92068,0 -1.59217,0.28381 -0.67148,0.2769 -1.08683,0.73379 -0.40843,0.45688 -0.63686,1.00376 -0.38767,0.94146 -0.38767,2.04213 0,1.35681 0.4638,2.27057 0.47074,0.91376 1.36373,1.3568 0.89301,0.44304 1.89677,0.44304 0.87223,0 1.70292,-0.33228 0.8307,-0.33919 1.25989,-0.71994 v -1.88982 z" />
    <path
       id="path918"
       style="font-style:normal;font-variant:normal;font-weight:normal;font-stretch:normal;font-size:13.2086px;line-height:1.25;font-family:Arial;-inkscape-font-specification:Arial;fill:#d2d2d2;fill-opacity:1;stroke-width:0.212657"
       d="m -157.0149,199.80426 q 0,-2.04213 1.13527,-3.02512 0.94839,-0.81685 2.31212,-0.81685 1.51601,0 2.47824,0.99684 0.96222,0.98991 0.96222,2.74129 0,1.4191 -0.42918,2.23596 -0.42228,0.80993 -1.23913,1.25989 -0.80993,0.44996 -1.77215,0.44996 -1.54371,0 -2.49902,-0.9899 -0.94837,-0.98992 -0.94837,-2.85207 z m 1.28064,0 q 0,1.41218 0.61611,2.11828 0.6161,0.69916 1.55064,0.69916 0.92761,0 1.54371,-0.70609 0.6161,-0.70608 0.6161,-2.15289 0,-1.36372 -0.62303,-2.06289 -0.61609,-0.70611 -1.53678,-0.70611 -0.93454,0 -1.55064,0.69919 -0.61611,0.69916 -0.61611,2.11135 z" />
    <path
       id="path920"
       style="font-style:normal;font-variant:normal;font-weight:normal;font-stretch:normal;font-size:13.2086px;line-height:1.25;font-family:Arial;-inkscape-font-specification:Arial;fill:#d2d2d2;fill-opacity:1;stroke-width:0.212657"
       d="m -149.12329,199.80426 q 0,-2.04213 1.13529,-3.02512 0.94839,-0.81685 2.31212,-0.81685 1.51601,0 2.47823,0.99684 0.96223,0.98991 0.96223,2.74129 0,1.4191 -0.42919,2.23596 -0.42227,0.80993 -1.23913,1.25989 -0.80992,0.44996 -1.77214,0.44996 -1.54372,0 -2.49902,-0.9899 -0.94839,-0.98992 -0.94839,-2.85207 z m 1.28066,0 q 0,1.41218 0.61611,2.11828 0.61609,0.69916 1.55064,0.69916 0.9276,0 1.5437,-0.70609 0.6161,-0.70608 0.6161,-2.15289 0,-1.36372 -0.62302,-2.06289 -0.6161,-0.70611 -1.53678,-0.70611 -0.93455,0 -1.55064,0.69919 -0.61611,0.69916 -0.61611,2.11135 z" />
    <path
       id="path922"
       style="font-style:normal;font-variant:normal;font-weight:normal;font-stretch:normal;font-size:13.2086px;line-height:1.25;font-family:Arial;-inkscape-font-specification:Arial;fill:#d2d2d2;fill-opacity:1;stroke-width:0.212657"
       d="m -140.9963,204.08926 1.21143,0.18 q 0.0761,0.56071 0.42227,0.81685 0.46381,0.34612 1.26681,0.34612 0.86531,0 1.33604,-0.34612 0.47073,-0.34613 0.63687,-0.96915 0.0969,-0.38074 0.0901,-1.59909 -0.81686,0.96222 -2.0352,0.96222 -1.51602,0 -2.34673,-1.09375 -0.83069,-1.09375 -0.83069,-2.62362 0,-1.05222 0.38074,-1.93828 0.38073,-0.89301 1.10067,-1.37758 0.72686,-0.48457 1.70293,-0.48457 1.30142,0 2.14597,1.0522 v -0.88606 h 1.14913 v 6.35483 q 0,1.71677 -0.35305,2.42979 -0.34612,0.71993 -1.10759,1.13529 -0.75456,0.41534 -1.86215,0.41534 -1.31527,0 -2.1252,-0.59534 -0.80993,-0.58841 -0.78223,-1.77908 z m 1.03145,-4.41653 q 0,1.44679 0.57456,2.11135 0.57457,0.66457 1.43987,0.66457 0.85839,0 1.43989,-0.65764 0.58148,-0.66456 0.58148,-2.07675 0,-1.34987 -0.60225,-2.03519 -0.59534,-0.68535 -1.43989,-0.68535 -0.83069,0 -1.41218,0.67842 -0.58148,0.67148 -0.58148,2.00059 z" />
    <path
       id="path924"
       style="font-style:normal;font-variant:normal;font-weight:normal;font-stretch:normal;font-size:13.2086px;line-height:1.25;font-family:Arial;-inkscape-font-specification:Arial;fill:#d2d2d2;fill-opacity:1;stroke-width:0.212657"
       d="m -132.90393,203.48009 v -10.14835 h 1.24605 v 10.14835 z" />
    <path
       id="path926"
       style="font-style:normal;font-variant:normal;font-weight:normal;font-stretch:normal;font-size:13.2086px;line-height:1.25;font-family:Arial;-inkscape-font-specification:Arial;fill:#d2d2d2;fill-opacity:1;stroke-width:0.212657"
       d="m -124.68697,201.11261 1.28759,0.15921 q -0.3046,1.12836 -1.12836,1.75139 -0.82378,0.62302 -2.10444,0.62302 -1.61294,0 -2.56131,-0.9899 -0.94145,-0.99685 -0.94145,-2.78977 0,-1.85522 0.9553,-2.87974 0.95529,-1.02453 2.47825,-1.02453 1.47448,0 2.40902,1.00376 0.93453,1.00376 0.93453,2.82437 0,0.11069 -0.007,0.33227 h -5.4826 q 0.0693,1.21144 0.68532,1.85522 0.6161,0.64379 1.53679,0.64379 0.68532,0 1.1699,-0.35996 0.48457,-0.35997 0.76839,-1.14913 z m -4.09117,-2.01444 h 4.10503 q -0.0831,-0.92762 -0.47073,-1.39143 -0.59533,-0.71992 -1.54372,-0.71992 -0.85838,0 -1.44679,0.57455 -0.58148,0.57457 -0.64379,1.5368 z" />
    <path
       id="path928"
       style="font-style:normal;font-variant:normal;font-weight:normal;font-stretch:normal;font-size:13.2086px;line-height:1.25;font-family:Arial;-inkscape-font-specification:Arial;fill:#d2d2d2;fill-opacity:1;stroke-width:0.212657"
       d="m -95.415648,203.48009 v -4.29885 l -3.911188,-5.8495 h 1.633695 l 2.000592,3.05974 q 0.553802,0.85839 1.031455,1.71678 0.456884,-0.7961 1.107593,-1.79293 l 1.96598,-2.98359 h 1.564477 l -4.049648,5.8495 v 4.29885 z" />
    <path
       id="path930"
       style="font-style:normal;font-variant:normal;font-weight:normal;font-stretch:normal;font-size:13.2086px;line-height:1.25;font-family:Arial;-inkscape-font-specification:Arial;fill:#d2d2d2;fill-opacity:1;stroke-width:0.212657"
       d="m -85.218854,202.57325 q -0.692247,0.58841 -1.336029,0.83069 -0.636866,0.24229 -1.37064,0.24229 -1.211449,0 -1.862147,-0.58841 -0.65072,-0.59533 -0.65072,-1.51603 0,-0.53994 0.24229,-0.98299 0.249205,-0.44996 0.643782,-0.71994 0.401503,-0.26997 0.899925,-0.40842 0.366893,-0.0969 1.107593,-0.1869 1.509097,-0.17999 2.222113,-0.42919 0.0069,-0.25614 0.0069,-0.32536 0,-0.76148 -0.353039,-1.07299 -0.477653,-0.42228 -1.419105,-0.42228 -0.879157,0 -1.30143,0.31152 -0.415346,0.30459 -0.616109,1.08683 l -1.218353,-0.16614 q 0.16614,-0.78224 0.546875,-1.25988 0.380735,-0.48458 1.100678,-0.74071 0.719931,-0.26305 1.66831,-0.26305 0.941464,0 1.529877,0.22151 0.588402,0.22152 0.865303,0.56072 0.276901,0.33228 0.387661,0.84455 0.06225,0.31843 0.06225,1.14913 v 1.66139 q 0,1.73755 0.07617,2.20134 0.08308,0.45689 0.318439,0.87916 h -1.301429 q -0.193825,-0.38766 -0.249217,-0.90684 z m -0.103787,-2.78283 q -0.678405,0.27689 -2.035203,0.47071 -0.768396,0.11081 -1.086835,0.24922 -0.31844,0.13846 -0.491484,0.40843 -0.173067,0.26305 -0.173067,0.58842 0,0.49841 0.373807,0.83069 0.380747,0.33227 1.107593,0.33227 0.719943,0 1.28066,-0.3115 0.560718,-0.31844 0.823777,-0.86532 0.200752,-0.42227 0.200752,-1.24604 z" />
    <path
       id="path932"
       style="font-style:normal;font-variant:normal;font-weight:normal;font-stretch:normal;font-size:13.2086px;line-height:1.25;font-family:Arial;-inkscape-font-specification:Arial;fill:#d2d2d2;fill-opacity:1;stroke-width:0.212657"
       d="m -82.124512,203.48009 v -7.35166 h 1.121447 v 1.04529 q 0.809923,-1.21143 2.339788,-1.21143 0.664551,0 1.218365,0.24228 0.560717,0.23536 0.837619,0.62303 0.276889,0.38766 0.38765,0.92068 0.06927,0.34613 0.06927,1.21144 v 4.52037 h -1.246049 v -4.47192 q 0,-0.76147 -0.145372,-1.13529 -0.145371,-0.38072 -0.519179,-0.60224 -0.366893,-0.22845 -0.865315,-0.22845 -0.79608,0 -1.377567,0.50535 -0.574559,0.50534 -0.574559,1.91751 v 4.01504 z" />
    <path
       id="path934"
       style="font-style:normal;font-variant:normal;font-weight:normal;font-stretch:normal;font-size:13.2086px;line-height:1.25;font-family:Arial;-inkscape-font-specification:Arial;fill:#d2d2d2;fill-opacity:1;stroke-width:0.212657"
       d="m -69.463338,203.48009 v -0.92761 q -0.69917,1.09375 -2.055961,1.09375 -0.87915,0 -1.619858,-0.48457 -0.73377,-0.48458 -1.142197,-1.34989 -0.401501,-0.87222 -0.401501,-2.00058 0,-1.10069 0.366889,-1.99368 0.36689,-0.89992 1.100671,-1.37758 0.73377,-0.47764 1.640619,-0.47764 0.664544,0 1.183735,0.28382 0.519176,0.2769 0.844527,0.72686 v -3.64123 h 1.239116 v 10.14835 z m -3.938863,-3.6689 q 0,1.41218 0.595325,2.11135 0.595337,0.69916 1.405253,0.69916 0.816846,0 1.384487,-0.66456 0.574567,-0.67148 0.574567,-2.04212 0,-1.50909 -0.581483,-2.21519 -0.581494,-0.70611 -1.432952,-0.70611 -0.830684,0 -1.39141,0.67842 -0.553787,0.67839 -0.553787,2.13905 z" />
    <path
       id="path936"
       style="font-style:normal;font-variant:normal;font-weight:normal;font-stretch:normal;font-size:13.2086px;line-height:1.25;font-family:Arial;-inkscape-font-specification:Arial;fill:#d2d2d2;fill-opacity:1;stroke-width:0.212657"
       d="m -61.308685,201.11261 1.287579,0.15921 q -0.304589,1.12836 -1.128363,1.75139 -0.823776,0.62302 -2.104431,0.62302 -1.612938,0 -2.561314,-0.9899 -0.941445,-0.99685 -0.941445,-2.78977 0,-1.85522 0.955287,-2.87974 0.955303,-1.02453 2.478247,-1.02453 1.474486,0 2.40902,1.00376 0.934534,1.00376 0.934534,2.82437 0,0.11069 -0.007,0.33227 h -5.482604 q 0.06927,1.21144 0.685332,1.85522 0.6161,0.64379 1.536788,0.64379 0.685325,0 1.169898,-0.35996 0.484574,-0.35997 0.768395,-1.14913 z m -4.091187,-2.01444 h 4.105031 q -0.08306,-0.92762 -0.470728,-1.39143 -0.595333,-0.71992 -1.543712,-0.71992 -0.858387,0 -1.446796,0.57455 -0.581488,0.57457 -0.643795,1.5368 z" />
    <path
       id="path938"
       style="font-style:normal;font-variant:normal;font-weight:normal;font-stretch:normal;font-size:13.2086px;line-height:1.25;font-family:Arial;-inkscape-font-specification:Arial;fill:#d2d2d2;fill-opacity:1;stroke-width:0.212657"
       d="m -59.280397,203.48009 2.685919,-3.8212 -2.485168,-3.53046 h 1.557558 l 1.128362,1.72368 q 0.318434,0.49151 0.512263,0.82379 0.304588,-0.45688 0.560719,-0.80993 l 1.239124,-1.73754 h 1.488332 l -2.540548,3.46123 2.734376,3.89043 h -1.529866 l -1.509098,-2.28441 -0.401504,-0.61611 -1.93137,2.90052 z" />
  </g>
</svg>
