<?xml version="1.0" encoding="UTF-8" standalone="no"?>
<svg
   xmlns:dc="http://purl.org/dc/elements/1.1/"
   xmlns:cc="http://creativecommons.org/ns#"
   xmlns:rdf="http://www.w3.org/1999/02/22-rdf-syntax-ns#"
   xmlns:svg="http://www.w3.org/2000/svg"
   xmlns="http://www.w3.org/2000/svg"
   xmlns:sodipodi="http://sodipodi.sourceforge.net/DTD/sodipodi-0.dtd"
   xmlns:inkscape="http://www.inkscape.org/namespaces/inkscape"
   width="667.78827"
   height="311.69073"
   viewBox="0 0 176.68564 82.468176"
   version="1.1"
   id="svg8"
   inkscape:version="1.0 (4035a4fb49, 2020-05-01)"
   sodipodi:docname="fasie.svg">
  <defs
     id="defs2">
    <inkscape:perspective
       sodipodi:type="inkscape:persp3d"
       inkscape:vp_x="0 : -66.031835 : 1"
       inkscape:vp_y="0 : 1000 : 0"
       inkscape:vp_z="209.99999 : -66.031835 : 1"
       inkscape:persp3d-origin="105 : -115.53183 : 1"
       id="perspective893" />
  </defs>
  <sodipodi:namedview
     id="base"
     pagecolor="#ffffff"
     bordercolor="#666666"
     borderopacity="1.0"
     inkscape:pageopacity="0.0"
     inkscape:pageshadow="2"
     inkscape:zoom="0.49497475"
     inkscape:cx="743.7782"
     inkscape:cy="-324.58131"
     inkscape:document-units="mm"
     inkscape:current-layer="layer1"
     inkscape:document-rotation="0"
     showgrid="false"
     units="px"
     fit-margin-top="0"
     fit-margin-left="0"
     fit-margin-right="0"
     fit-margin-bottom="0"
     inkscape:window-width="1898"
     inkscape:window-height="1024"
     inkscape:window-x="0"
     inkscape:window-y="0"
     inkscape:window-maximized="0" />
  <metadata
     id="metadata5">
    <rdf:RDF>
      <cc:Work
         rdf:about="">
        <dc:format>image/svg+xml</dc:format>
        <dc:type
           rdf:resource="http://purl.org/dc/dcmitype/StillImage" />
        <dc:title />
      </cc:Work>
    </rdf:RDF>
  </metadata>
  <g
     inkscape:label="Слой 1"
     inkscape:groupmode="layer"
     id="layer1"
     transform="translate(254.2707,-134.11173)">
    <path
       id="path952"
       style="font-style:normal;font-variant:normal;font-weight:bold;font-stretch:normal;font-size:28.5913px;line-height:0.75;font-family:Arial;-inkscape-font-specification:'Arial Bold';letter-spacing:-5.38231px;word-spacing:0px;fill:#d2d2d2;fill-opacity:1;stroke:none;stroke-width:0.160258;stroke-opacity:1"
       d="m -204.51837,159.62448 3.60581,-0.35057 q 0.32552,1.81543 1.31462,2.6668 1.00161,0.85137 2.69183,0.85137 1.79039,0 2.69184,-0.75121 0.91397,-0.76374 0.91397,-1.77786 0,-0.65106 -0.38813,-1.10178 -0.3756,-0.46325 -1.32713,-0.80129 -0.65105,-0.22537 -2.96728,-0.80129 -2.9798,-0.73869 -4.18174,-1.81543 -1.69022,-1.51493 -1.69022,-3.69344 0,-1.40226 0.78877,-2.61672 0.80129,-1.22698 2.29119,-1.86551 1.50242,-0.63852 3.61833,-0.63852 3.45557,0 5.19587,1.51493 1.75282,1.51495 1.84046,4.04402 l -3.70597,0.16276 q -0.23788,-1.41477 -1.02665,-2.02826 -0.77625,-0.62601 -2.34127,-0.62601 -1.6151,0 -2.52908,0.66357 -0.58844,0.42568 -0.58844,1.13933 0,0.65105 0.55088,1.1143 0.70113,0.58844 3.40549,1.22697 2.70436,0.63854 3.99393,1.32714 1.3021,0.67609 2.02827,1.86551 0.73869,1.17689 0.73869,2.9172 0,1.57753 -0.87641,2.95476 -0.87641,1.37721 -2.47899,2.0533 -1.60259,0.66357 -3.99394,0.66357 -3.4806,0 -5.34611,-1.60258 -1.8655,-1.6151 -2.22859,-4.69506 z" />
    <path
       id="path954"
       style="font-style:normal;font-variant:normal;font-weight:bold;font-stretch:normal;font-size:28.5913px;line-height:0.75;font-family:Arial;-inkscape-font-specification:'Arial Bold';letter-spacing:-5.38231px;word-spacing:0px;fill:#d2d2d2;fill-opacity:1;stroke:none;stroke-width:0.160258;stroke-opacity:1"
       d="m -191.42898,165.5966 v -18.35457 h 3.51816 v 9.74069 l 4.11914,-4.68254 h 4.33198 l -4.54482,4.85782 4.87034,8.4386 h -3.79361 l -3.34288,-5.97212 -1.64015,1.71526 v 4.25686 z" />
    <path
       id="path909"
       style="fill:#d2d2d2;fill-opacity:1;stroke:none;stroke-width:0.11693;stroke-linejoin:round;stroke-opacity:1"
       d="m -146.1926,161.26454 -6.94479,4.86982 -0.0366,-19.76719 7.00537,4.94484 z"
       sodipodi:nodetypes="ccccc"
       inkscape:transform-center-x="-0.00010622905"
       inkscape:transform-center-y="7.4311073e-06" />
    <path
       sodipodi:nodetypes="ccccc"
       d="m -129.91814,151.02715 7.07764,-4.96296 0.0373,20.14516 -7.13936,-5.03936 z"
       inkscape:transform-center-y="1.2027196e-05"
       style="fill:#d2d2d2;fill-opacity:1;stroke:none;stroke-width:0.119166;stroke-linejoin:round;stroke-opacity:1"
       id="path909-3"
       inkscape:transform-center-x="9.8521336e-05" />
    <path
       style="fill:#d2d2d2;fill-opacity:1;stroke:none;stroke-width:0.0510419;stroke-opacity:1"
       d="m -238.02403,175.02631 c -6.33103,-0.36476 -11.80534,-3.42427 -15.54207,-8.68623 -0.30277,-0.42635 -0.4973,-0.74666 -0.48937,-0.80575 0.0119,-0.0888 0.32646,-0.0996 3.34526,-0.1138 l 3.33209,-0.0156 0.0663,0.14516 c 0.18767,0.41111 1.34154,1.62525 2.22429,2.34047 5.36792,4.34923 13.38466,4.60491 19.78997,0.63117 1.19293,-0.74008 3.03531,-2.16929 3.25171,-2.52246 0.0922,-0.15045 0.53051,-0.53245 0.61097,-0.53245 0.17702,0 -0.20259,0.68265 -1.05454,1.8964 -2.10695,3.00171 -4.90183,5.20699 -8.21226,6.47985 -2.32245,0.89299 -4.9608,1.31933 -7.32233,1.18326 z"
       id="path1187" />
    <path
       id="path1187-5"
       d="m -235.61423,172.3883 c -5.40942,-0.26743 -10.08683,-2.5106 -13.2796,-6.36856 -0.2587,-0.31261 -0.42491,-0.54744 -0.41814,-0.59078 0.0101,-0.0651 0.27894,-0.073 2.85829,-0.0835 l 2.84705,-0.011 0.0566,0.10636 c 0.16036,0.30142 1.14626,1.19159 1.90051,1.71599 4.58651,3.18878 11.43626,3.37623 16.90914,0.46276 1.01927,-0.5426 2.59347,-1.59047 2.77836,-1.84941 0.0788,-0.11036 0.45329,-0.39038 0.52203,-0.39038 0.15125,0 -0.1731,0.5005 -0.90103,1.39039 -1.80024,2.20081 -4.18827,3.81767 -7.0168,4.75091 -1.98438,0.65472 -4.23866,0.9673 -6.25642,0.86754 z"
       style="fill:#d2d2d2;fill-opacity:1;stroke:none;stroke-width:0.0403992;stroke-opacity:1" />
    <g
       style="font-size:11.8072px;line-height:1.25;font-family:sans-serif;stroke-width:0.177109;fill:#d2d2d2;fill-opacity:1"
       id="text880"
       aria-label="FASIE">
      <path
         id="path852"
         style="font-style:normal;font-variant:normal;font-weight:normal;font-stretch:normal;font-family:Arial;-inkscape-font-specification:Arial;stroke-width:0.177109;fill:#d2d2d2;fill-opacity:1"
         d="m -253.57973,157.04266 v -8.45183 h 5.70181 v 0.99739 h -4.58336 v 2.61741 h 3.96648 v 0.99739 h -3.96648 v 3.83964 z" />
      <path
         id="path854"
         style="font-style:normal;font-variant:normal;font-weight:normal;font-stretch:normal;font-family:Arial;-inkscape-font-specification:Arial;stroke-width:0.177109;fill:#d2d2d2;fill-opacity:1"
         d="m -247.99322,157.04266 3.24582,-8.45183 h 1.20494 l 3.45914,8.45183 h -1.27412 l -0.98585,-2.55976 h -3.53409 l -0.9282,2.55976 z m 2.43869,-3.47067 h 2.86532 l -0.88208,-2.34068 q -0.40356,-1.06657 -0.59958,-1.75263 -0.16143,0.81289 -0.45546,1.61426 z" />
      <path
         id="path856"
         style="font-style:normal;font-variant:normal;font-weight:normal;font-stretch:normal;font-family:Arial;-inkscape-font-specification:Arial;stroke-width:0.177109;fill:#d2d2d2;fill-opacity:1"
         d="m -239.55868,154.32724 1.05503,-0.0922 q 0.075,0.63418 0.34592,1.04351 0.27673,0.40357 0.85325,0.65724 0.57653,0.2479 1.29718,0.2479 0.63994,0 1.12999,-0.19025 0.49004,-0.19025 0.72642,-0.51887 0.24213,-0.33438 0.24213,-0.72642 0,-0.3978 -0.2306,-0.69183 -0.23061,-0.29979 -0.76102,-0.50157 -0.34014,-0.1326 -1.50472,-0.40934 -1.16458,-0.28249 -1.63156,-0.5304 -0.60535,-0.31708 -0.90514,-0.78407 -0.29403,-0.47275 -0.29403,-1.05504 0,-0.63994 0.36321,-1.1934 0.36321,-0.55923 1.0608,-0.84749 0.69759,-0.28826 1.55085,-0.28826 0.93973,0 1.65462,0.30556 0.72066,0.29979 1.10693,0.88784 0.38627,0.58806 0.41509,1.33177 l -1.07233,0.0807 q -0.0865,-0.80136 -0.58805,-1.21069 -0.49581,-0.40934 -1.47014,-0.40934 -1.01468,0 -1.48166,0.37474 -0.46122,0.36898 -0.46122,0.89362 0,0.45545 0.32862,0.74948 0.32285,0.29402 1.68344,0.60535 1.36636,0.30555 1.87371,0.53616 0.73795,0.34015 1.08962,0.86479 0.35168,0.51887 0.35168,1.19917 0,0.67453 -0.38627,1.27411 -0.38627,0.59382 -1.11269,0.92821 -0.72065,0.32861 -1.62579,0.32861 -1.14729,0 -1.92559,-0.33438 -0.77254,-0.33438 -1.21647,-1.00315 -0.43815,-0.67453 -0.46121,-1.52202 z" />
      <path
         id="path858"
         style="font-style:normal;font-variant:normal;font-weight:normal;font-stretch:normal;font-family:Arial;-inkscape-font-specification:Arial;stroke-width:0.177109;fill:#d2d2d2;fill-opacity:1"
         d="m -231.10109,157.04266 v -8.45183 h 1.11846 v 8.45183 z" />
      <path
         id="path860"
         style="font-style:normal;font-variant:normal;font-weight:normal;font-stretch:normal;font-family:Arial;-inkscape-font-specification:Arial;stroke-width:0.177109;fill:#d2d2d2;fill-opacity:1"
         d="m -227.99362,157.04266 v -8.45183 h 6.11115 v 0.99739 h -4.9927 v 2.58859 h 4.67561 v 0.99162 h -4.67561 v 2.87685 h 5.18871 v 0.99738 z" />
    </g>
    <g
       style="font-size:11.7004px;line-height:1.25;font-family:sans-serif;stroke-width:0.175506;fill:#d2d2d2;fill-opacity:1"
       id="text884"
       aria-label="Skolkovo">
      <path
         id="path863"
         style="font-style:normal;font-variant:normal;font-weight:normal;font-stretch:normal;font-family:Arial;-inkscape-font-specification:Arial;stroke-width:0.175506;fill:#d2d2d2;fill-opacity:1"
         d="m -204.15242,173.02162 1.04549,-0.0914 q 0.0743,0.62844 0.34279,1.03406 0.27423,0.39992 0.84554,0.6513 0.5713,0.24566 1.28544,0.24566 0.63415,0 1.11977,-0.18853 0.48561,-0.18853 0.71984,-0.51418 0.23995,-0.33136 0.23995,-0.71985 0,-0.3942 -0.22852,-0.68557 -0.22852,-0.29708 -0.75413,-0.49704 -0.33707,-0.1314 -1.49111,-0.40563 -1.15405,-0.27994 -1.61681,-0.5256 -0.59987,-0.31422 -0.89695,-0.77698 -0.29137,-0.46847 -0.29137,-1.0455 0,-0.63415 0.35993,-1.1826 0.35992,-0.55417 1.0512,-0.83983 0.69129,-0.28565 1.53682,-0.28565 0.93124,0 1.63966,0.30279 0.71414,0.29708 1.09691,0.87982 0.38278,0.58273 0.41135,1.31972 l -1.06264,0.08 q -0.0857,-0.79412 -0.58273,-1.19975 -0.49133,-0.40563 -1.45684,-0.40563 -1.0055,0 -1.46826,0.37136 -0.45705,0.36563 -0.45705,0.88552 0,0.45134 0.32565,0.74271 0.31993,0.29136 1.66822,0.59987 1.354,0.30279 1.85675,0.53132 0.73127,0.33707 1.07977,0.85696 0.3485,0.51418 0.3485,1.18832 0,0.66843 -0.38278,1.26259 -0.38277,0.58845 -1.10262,0.91981 -0.71414,0.32565 -1.61109,0.32565 -1.13691,0 -1.90817,-0.33136 -0.76556,-0.33136 -1.20546,-0.99408 -0.4342,-0.66843 -0.45705,-1.50825 z" />
      <path
         id="path865"
         style="font-style:normal;font-variant:normal;font-weight:normal;font-stretch:normal;font-family:Arial;-inkscape-font-specification:Arial;stroke-width:0.175506;fill:#d2d2d2;fill-opacity:1"
         d="m -196.08554,175.71248 v -8.37539 h 1.02835 v 4.77614 l 2.43378,-2.46805 h 1.33115 l -2.31952,2.25096 2.55375,3.81634 h -1.2683 l -2.0053,-3.10221 -0.72556,0.697 v 2.40521 z" />
      <path
         id="path867"
         style="font-style:normal;font-variant:normal;font-weight:normal;font-stretch:normal;font-family:Arial;-inkscape-font-specification:Arial;stroke-width:0.175506;fill:#d2d2d2;fill-opacity:1"
         d="m -190.62383,172.67883 q 0,-1.68536 0.93694,-2.49662 0.7827,-0.67414 1.90817,-0.67414 1.25117,0 2.04529,0.82268 0.79412,0.81697 0.79412,2.26238 0,1.17119 -0.35421,1.84533 -0.3485,0.66843 -1.02265,1.03978 -0.66843,0.37135 -1.46255,0.37135 -1.27401,0 -2.06242,-0.81697 -0.78269,-0.81697 -0.78269,-2.35379 z m 1.05692,0 q 0,1.16547 0.50846,1.7482 0.50847,0.57703 1.27973,0.57703 0.76556,0 1.27402,-0.58274 0.50847,-0.58273 0.50847,-1.77677 0,-1.12548 -0.51418,-1.7025 -0.50847,-0.58273 -1.26831,-0.58273 -0.77126,0 -1.27973,0.57702 -0.50846,0.57702 -0.50846,1.74249 z" />
      <path
         id="path869"
         style="font-style:normal;font-variant:normal;font-weight:normal;font-stretch:normal;font-family:Arial;-inkscape-font-specification:Arial;stroke-width:0.175506;fill:#d2d2d2;fill-opacity:1"
         d="m -183.75099,175.71248 v -8.37539 h 1.02835 v 8.37539 z" />
      <path
         id="path871"
         style="font-style:normal;font-variant:normal;font-weight:normal;font-stretch:normal;font-family:Arial;-inkscape-font-specification:Arial;stroke-width:0.175506;fill:#d2d2d2;fill-opacity:1"
         d="m -181.11726,175.71248 v -8.37539 h 1.02836 v 4.77614 l 2.43377,-2.46805 h 1.33115 l -2.31951,2.25096 2.55375,3.81634 h -1.26831 l -2.00529,-3.10221 -0.72556,0.697 v 2.40521 z" />
      <path
         id="path873"
         style="font-style:normal;font-variant:normal;font-weight:normal;font-stretch:normal;font-family:Arial;-inkscape-font-specification:Arial;stroke-width:0.175506;fill:#d2d2d2;fill-opacity:1"
         d="m -175.65555,172.67883 q 0,-1.68536 0.93695,-2.49662 0.78269,-0.67414 1.90817,-0.67414 1.25117,0 2.04528,0.82268 0.79412,0.81697 0.79412,2.26238 0,1.17119 -0.35421,1.84533 -0.3485,0.66843 -1.02264,1.03978 -0.66843,0.37135 -1.46255,0.37135 -1.27402,0 -2.06242,-0.81697 -0.7827,-0.81697 -0.7827,-2.35379 z m 1.05692,0 q 0,1.16547 0.50847,1.7482 0.50846,0.57703 1.27973,0.57703 0.76555,0 1.27402,-0.58274 0.50846,-0.58273 0.50846,-1.77677 0,-1.12548 -0.51418,-1.7025 -0.50846,-0.58273 -1.2683,-0.58273 -0.77127,0 -1.27973,0.57702 -0.50847,0.57702 -0.50847,1.74249 z" />
      <path
         id="path875"
         style="font-style:normal;font-variant:normal;font-weight:normal;font-stretch:normal;font-family:Arial;-inkscape-font-specification:Arial;stroke-width:0.175506;fill:#d2d2d2;fill-opacity:1"
         d="m -167.07449,175.71248 -2.30809,-6.0673 h 1.08549 l 1.30258,3.63352 q 0.21138,0.58845 0.38849,1.2226 0.13711,-0.47989 0.38278,-1.15404 l 1.34828,-3.70208 h 1.05693 l -2.29666,6.0673 z" />
      <path
         id="path877"
         style="font-style:normal;font-variant:normal;font-weight:normal;font-stretch:normal;font-family:Arial;-inkscape-font-specification:Arial;stroke-width:0.175506;fill:#d2d2d2;fill-opacity:1"
         d="m -163.29243,172.67883 q 0,-1.68536 0.93695,-2.49662 0.78269,-0.67414 1.90817,-0.67414 1.25116,0 2.04528,0.82268 0.79412,0.81697 0.79412,2.26238 0,1.17119 -0.35421,1.84533 -0.3485,0.66843 -1.02264,1.03978 -0.66843,0.37135 -1.46255,0.37135 -1.27402,0 -2.06243,-0.81697 -0.78269,-0.81697 -0.78269,-2.35379 z m 1.05692,0 q 0,1.16547 0.50847,1.7482 0.50846,0.57703 1.27973,0.57703 0.76555,0 1.27402,-0.58274 0.50846,-0.58273 0.50846,-1.77677 0,-1.12548 -0.51418,-1.7025 -0.50846,-0.58273 -1.2683,-0.58273 -0.77127,0 -1.27973,0.57702 -0.50847,0.57702 -0.50847,1.74249 z" />
    </g>
    <g
       style="font-size:10.5655px;line-height:1.25;font-family:sans-serif;stroke-width:0.158482;fill:#d2d2d2;fill-opacity:1"
       id="text72"
       aria-label="ASI">
      <path
         id="path880"
         style="font-style:normal;font-variant:normal;font-weight:normal;font-stretch:normal;font-family:Arial;-inkscape-font-specification:Arial;stroke-width:0.158482;fill:#d2d2d2;fill-opacity:1"
         d="m -147.1025,175.45316 2.90448,-7.563 h 1.07822 l 3.09536,7.563 h -1.14012 l -0.88218,-2.29057 h -3.16243 l -0.83059,2.29057 z m 2.18223,-3.10568 h 2.56399 l -0.78931,-2.09453 q -0.36113,-0.9544 -0.53653,-1.56832 -0.14445,0.72741 -0.40756,1.4445 z" />
      <path
         id="path882"
         style="font-style:normal;font-variant:normal;font-weight:normal;font-stretch:normal;font-family:Arial;-inkscape-font-specification:Arial;stroke-width:0.158482;fill:#d2d2d2;fill-opacity:1"
         d="m -139.55497,173.0233 0.94408,-0.0825 q 0.0671,0.56749 0.30954,0.93377 0.24763,0.36113 0.76352,0.58812 0.51589,0.22183 1.16076,0.22183 0.57264,0 1.01115,-0.17024 0.43851,-0.17025 0.65003,-0.4643 0.21667,-0.29922 0.21667,-0.65003 0,-0.35597 -0.20636,-0.61907 -0.20635,-0.26827 -0.68097,-0.44883 -0.30438,-0.11866 -1.34649,-0.36628 -1.0421,-0.25279 -1.45998,-0.47463 -0.54168,-0.28374 -0.80995,-0.70161 -0.2631,-0.42304 -0.2631,-0.94409 0,-0.57264 0.32501,-1.0679 0.32501,-0.50041 0.94924,-0.75836 0.62423,-0.25795 1.38776,-0.25795 0.8409,0 1.48061,0.27343 0.64487,0.26826 0.99052,0.79447 0.34565,0.52621 0.37144,1.19172 l -0.95956,0.0722 q -0.0774,-0.71709 -0.52621,-1.08338 -0.44367,-0.36628 -1.31553,-0.36628 -0.90797,0 -1.32585,0.33533 -0.41271,0.33017 -0.41271,0.79964 0,0.40755 0.29406,0.67066 0.2889,0.2631 1.50641,0.54169 1.22266,0.27342 1.67665,0.47978 0.66034,0.30437 0.97504,0.77384 0.31469,0.4643 0.31469,1.07306 0,0.60359 -0.34565,1.14012 -0.34564,0.53137 -0.99567,0.83059 -0.64487,0.29406 -1.45482,0.29406 -1.02663,0 -1.72308,-0.29922 -0.6913,-0.29922 -1.08854,-0.89765 -0.39208,-0.6036 -0.41271,-1.36196 z" />
      <path
         id="path884"
         style="font-style:normal;font-variant:normal;font-weight:normal;font-stretch:normal;font-family:Arial;-inkscape-font-specification:Arial;stroke-width:0.158482;fill:#d2d2d2;fill-opacity:1"
         d="m -131.98682,175.45316 v -7.563 h 1.00084 v 7.563 z" />
    </g>
    <path
       d="m -103.35091,151.63086 v -1.75632 c 0.17252,-0.0122 0.34527,-0.021 0.51814,-0.0264 4.803634,-0.15097 7.955194,4.12743 7.955194,4.12743 0,0 -3.40369,4.72741 -7.053284,4.72741 -0.52575,0 -0.99603,-0.0847 -1.42005,-0.22696 v -5.32578 c 1.87002,0.22576 2.24598,1.05188 3.370524,2.92597 l 2.50044,-2.10825 c 0,0 -1.82509,-2.39396 -4.902064,-2.39396 -0.33495,0 -0.65485,0.0235 -0.9689,0.057 z m 0,-5.80175 v 2.62346 c 0.17227,-0.0135 0.34491,-0.0247 0.51814,-0.031 6.680284,-0.22497 11.032354,5.47851 11.032354,5.47851 0,0 -4.99911,6.07847 -10.206804,6.07847 -0.47713,0 -0.92379,-0.0438 -1.34369,-0.11834 v 1.62156 c 0.35898,0.0457 0.73084,0.0726 1.11908,0.0726 4.846394,0 8.351074,-2.47482 11.745004,-5.40412 0.56227,0.45058 2.86604,1.54657 3.33964,2.02683 -3.22695,2.70135 -10.747,4.87854 -15.010234,4.87854 -0.3986,-0.001 -0.79689,-0.0222 -1.19349,-0.0621 v 2.27913 h 18.420004 v -19.44387 h -18.419804 z m 0,12.64676 v 1.38466 c -4.48256,-0.79935 -5.72664,-5.45857 -5.72664,-5.45857 0,0 2.15224,-2.3846 5.72664,-2.7711 v 1.51922 c -0.002,0 -0.004,-6.1e-4 -0.007,-6.1e-4 -1.87568,-0.22537 -3.34121,1.52722 -3.34121,1.52722 0,0 0.82105,2.95018 3.34825,3.79934 z m -7.96127,-4.27606 c 0,0 2.65649,-3.92021 7.96127,-4.32547 v -1.42177 c -5.87545,0.47146 -10.96346,5.44747 -10.96346,5.44747 0,0 2.88149,8.33102 10.96366,9.09367 v -1.5116 c -5.93091,-0.74642 -7.96147,-7.2823 -7.96147,-7.2823 z"
       fill-rule="evenodd"
       id="path2-5"
       style="fill:#d2d2d2;fill-opacity:1;stroke:none;stroke-width:0.195299;stroke-opacity:1"
       sodipodi:nodetypes="ccccsccccsccccccsccsccccccccccccccccccccccccc" />
    <g
       style="font-size:10.8986px;line-height:1.25;font-family:sans-serif;stroke-width:0.163479;fill:#d2d2d2;fill-opacity:1"
       id="text918"
       aria-label="nVIDIA">
      <path
         id="path887"
         style="font-style:normal;font-variant:normal;font-weight:normal;font-stretch:normal;font-size:13.9503px;font-family:Arial;-inkscape-font-specification:Arial;stroke-width:0.163479;fill:#d2d2d2;fill-opacity:1"
         d="m -117.81906,175.87808 v -7.23399 h 1.10349 v 1.02856 q 0.79696,-1.19204 2.30234,-1.19204 0.65392,0 1.19885,0.23841 0.55175,0.23159 0.82422,0.61305 0.27246,0.38145 0.38145,0.90595 0.0681,0.34058 0.0681,1.19204 v 4.44802 h -1.2261 v -4.40034 q 0,-0.74928 -0.14305,-1.11711 -0.14304,-0.37464 -0.51087,-0.59262 -0.36102,-0.22478 -0.85146,-0.22478 -0.78334,0 -1.35553,0.49725 -0.56536,0.49725 -0.56536,1.88683 v 3.95077 z" />
      <path
         id="path889"
         style="stroke-width:0.163479;fill:#d2d2d2;fill-opacity:1"
         d="m -107.85489,175.87808 -3.0333,-7.94512 h 1.12285 l 2.51711,6.68923 2.52243,-6.68923 h 1.11753 l -3.02798,7.94512 z" />
      <path
         id="path891"
         style="stroke-width:0.163479;fill:#d2d2d2;fill-opacity:1"
         d="m -102.45348,167.93296 h 1.07496 v 7.94512 h -1.07496 z" />
      <path
         id="path893"
         style="stroke-width:0.163479;fill:#d2d2d2;fill-opacity:1"
         d="m -98.164288,168.81634 v 6.17836 h 1.298466 q 1.644369,0 2.405355,-0.74502 0.766308,-0.74502 0.766308,-2.35214 0,-1.59648 -0.766308,-2.33618 -0.760986,-0.74502 -2.405355,-0.74502 z m -1.07496,-0.88338 h 2.208457 q 2.309566,0 3.389847,0.96321 1.080282,0.95788 1.080282,3.00137 0,2.05413 -1.085603,3.01734 -1.085603,0.9632 -3.384526,0.9632 h -2.208457 z" />
      <path
         id="path895"
         style="stroke-width:0.163479;fill:#d2d2d2;fill-opacity:1"
         d="m -90.852435,167.93296 h 1.074959 v 7.94512 h -1.074959 z" />
      <path
         id="path897"
         style="stroke-width:0.163479;fill:#d2d2d2;fill-opacity:1"
         d="m -84.982731,168.99196 -1.458113,3.95393 h 2.921548 z m -0.60666,-1.059 h 1.218642 l 3.02798,7.94512 h -1.117532 l -0.723735,-2.03816 h -3.581425 l -0.723735,2.03816 h -1.133497 z" />
    </g>
    <g
       style="font-size:13.2086px;line-height:1.25;font-family:sans-serif;stroke-width:0.198128;fill:#d2d2d2;fill-opacity:1"
       id="text2047"
       aria-label="NTI 20.35    Google    Yandex">
      <path
         id="path900"
         style="font-style:normal;font-variant:normal;font-weight:normal;font-stretch:normal;font-family:Arial;-inkscape-font-specification:Arial;stroke-width:0.198128;fill:#d2d2d2;fill-opacity:1"
         d="m -252.17117,206.10361 v -9.45499 h 1.28345 l 4.96613,7.42339 v -7.42339 h 1.19961 v 9.45499 h -1.28345 l -4.96613,-7.42984 v 7.42984 z" />
      <path
         id="path902"
         style="font-style:normal;font-variant:normal;font-weight:normal;font-stretch:normal;font-family:Arial;-inkscape-font-specification:Arial;stroke-width:0.198128;fill:#d2d2d2;fill-opacity:1"
         d="m -240.20732,206.10361 v -8.33922 h -3.11512 v -1.11577 h 7.49433 v 1.11577 h -3.12801 v 8.33922 z" />
      <path
         id="path904"
         style="font-style:normal;font-variant:normal;font-weight:normal;font-stretch:normal;font-family:Arial;-inkscape-font-specification:Arial;stroke-width:0.198128;fill:#d2d2d2;fill-opacity:1"
         d="m -234.32537,206.10361 v -9.45499 h 1.25121 v 9.45499 z" />
      <path
         id="path906"
         style="font-style:normal;font-variant:normal;font-weight:normal;font-stretch:normal;font-family:Arial;-inkscape-font-specification:Arial;stroke-width:0.198128;fill:#d2d2d2;fill-opacity:1"
         d="m -221.58113,204.98784 v 1.11577 h -6.24958 q -0.0129,-0.41922 0.13544,-0.80619 0.23863,-0.6385 0.76104,-1.25766 0.52886,-0.61915 1.52209,-1.43179 1.54143,-1.2641 2.08319,-1.99935 0.54176,-0.74169 0.54176,-1.39954 0,-0.6901 -0.49661,-1.16091 -0.49017,-0.47727 -1.28346,-0.47727 -0.83843,0 -1.3415,0.50307 -0.50306,0.50306 -0.50951,1.39309 l -1.19316,-0.12254 q 0.12254,-1.33505 0.92228,-2.0316 0.79974,-0.70299 2.14769,-0.70299 1.36085,0 2.15414,0.75459 0.79329,0.75459 0.79329,1.87036 0,0.56755 -0.23218,1.11576 -0.23219,0.54821 -0.77395,1.15447 -0.53531,0.60625 -1.78651,1.66397 -1.04482,0.87713 -1.3415,1.19316 -0.29668,0.30958 -0.49016,0.6256 z" />
      <path
         id="path908"
         style="font-style:normal;font-variant:normal;font-weight:normal;font-stretch:normal;font-family:Arial;-inkscape-font-specification:Arial;stroke-width:0.198128;fill:#d2d2d2;fill-opacity:1"
         d="m -220.32993,201.44061 q 0,-1.67687 0.34183,-2.6959 0.34827,-1.02547 1.02547,-1.58013 0.68365,-0.55465 1.71557,-0.55465 0.76104,0 1.33505,0.30957 0.574,0.30313 0.94808,0.88359 0.37407,0.574 0.5869,1.40599 0.21284,0.82554 0.21284,2.23153 0,1.66397 -0.34183,2.68945 -0.34182,1.01902 -1.02547,1.58013 -0.6772,0.55465 -1.71557,0.55465 -1.3673,0 -2.14769,-0.98032 -0.93518,-1.18026 -0.93518,-3.84391 z m 1.19316,0 q 0,2.32827 0.54176,3.10222 0.54821,0.76749 1.34795,0.76749 0.79974,0 1.3415,-0.77394 0.54821,-0.77395 0.54821,-3.09577 0,-2.33472 -0.54821,-3.10221 -0.54176,-0.7675 -1.3544,-0.7675 -0.79974,0 -1.277,0.6772 -0.59981,0.86424 -0.59981,3.19251 z" />
      <path
         id="path910"
         style="font-style:normal;font-variant:normal;font-weight:normal;font-stretch:normal;font-family:Arial;-inkscape-font-specification:Arial;stroke-width:0.198128;fill:#d2d2d2;fill-opacity:1"
         d="m -212.32608,206.10361 v -1.32215 h 1.32215 v 1.32215 z" />
      <path
         id="path912"
         style="font-style:normal;font-variant:normal;font-weight:normal;font-stretch:normal;font-family:Arial;-inkscape-font-specification:Arial;stroke-width:0.198128;fill:#d2d2d2;fill-opacity:1"
         d="m -209.30771,203.60765 1.16091,-0.15479 q 0.19994,0.98677 0.6772,1.42534 0.48371,0.43212 1.17381,0.43212 0.81909,0 1.3802,-0.56756 0.56755,-0.56756 0.56755,-1.40599 0,-0.79974 -0.52241,-1.3157 -0.52241,-0.52241 -1.3286,-0.52241 -0.32892,0 -0.81908,0.12899 l 0.12899,-1.01903 q 0.11609,0.0129 0.18703,0.0129 0.7417,0 1.33505,-0.38697 0.59336,-0.38697 0.59336,-1.19316 0,-0.6385 -0.43212,-1.05772 -0.43212,-0.41922 -1.11577,-0.41922 -0.6772,0 -1.12866,0.42567 -0.45147,0.42567 -0.58046,1.277 l -1.16091,-0.20638 q 0.21283,-1.16736 0.96743,-1.80586 0.75459,-0.64495 1.8768,-0.64495 0.77395,0 1.42535,0.33537 0.6514,0.32893 0.99322,0.90293 0.34827,0.57401 0.34827,1.21896 0,0.6127 -0.32892,1.11577 -0.32893,0.50306 -0.97388,0.79973 0.83844,0.19349 1.3028,0.80619 0.46437,0.60626 0.46437,1.52209 0,1.2383 -0.90293,2.10254 -0.90293,0.85778 -2.28313,0.85778 -1.24475,0 -2.07029,-0.74169 -0.81909,-0.74169 -0.93518,-1.92195 z" />
      <path
         id="path914"
         style="font-style:normal;font-variant:normal;font-weight:normal;font-stretch:normal;font-family:Arial;-inkscape-font-specification:Arial;stroke-width:0.198128;fill:#d2d2d2;fill-opacity:1"
         d="m -201.96172,203.62699 1.21896,-0.10319 q 0.13544,0.89004 0.6256,1.3415 0.49662,0.44502 1.19316,0.44502 0.83844,0 1.4189,-0.63205 0.58045,-0.63206 0.58045,-1.67688 0,-0.99322 -0.56111,-1.56723 -0.55465,-0.57401 -1.45759,-0.57401 -0.5611,0 -1.01257,0.25798 -0.45147,0.25154 -0.70945,0.65785 l -1.08996,-0.14188 0.91583,-4.85649 h 4.70169 v 1.10932 h -3.77296 l -0.50951,2.54111 q 0.85133,-0.59336 1.78651,-0.59336 1.23831,0 2.08964,0.85779 0.85134,0.85778 0.85134,2.20573 0,1.28345 -0.74815,2.21863 -0.90938,1.14801 -2.48306,1.14801 -1.2899,0 -2.10899,-0.72234 -0.81264,-0.72235 -0.92873,-1.91551 z" />
      <path
         id="path916"
         style="font-style:normal;font-variant:normal;font-weight:normal;font-stretch:normal;font-family:Arial;-inkscape-font-specification:Arial;stroke-width:0.198128;fill:#d2d2d2;fill-opacity:1"
         d="m -175.06081,202.39514 v -1.10932 l 4.00515,-0.006 v 3.50854 q -0.92228,0.73524 -1.90261,1.10931 -0.98032,0.36762 -2.01225,0.36762 -1.39309,0 -2.53465,-0.59335 -1.13512,-0.5998 -1.71557,-1.72847 -0.58046,-1.12866 -0.58046,-2.52176 0,-1.38019 0.57401,-2.57335 0.58045,-1.19961 1.66397,-1.78007 1.08352,-0.58045 2.49596,-0.58045 1.02547,0 1.85101,0.33537 0.83199,0.32892 1.3028,0.92228 0.47082,0.59336 0.7159,1.54788 l -1.12867,0.30958 q -0.21283,-0.72235 -0.52886,-1.13511 -0.31602,-0.41277 -0.90293,-0.65785 -0.5869,-0.25154 -1.3028,-0.25154 -0.85778,0 -1.48339,0.26443 -0.6256,0.25798 -1.01257,0.68365 -0.38052,0.42567 -0.59335,0.93518 -0.36118,0.87714 -0.36118,1.90261 0,1.2641 0.43212,2.11544 0.43857,0.85133 1.27055,1.2641 0.83199,0.41277 1.76717,0.41277 0.81264,0 1.58658,-0.30958 0.77394,-0.31602 1.17381,-0.67075 v -1.76071 z" />
      <path
         id="path918"
         style="font-style:normal;font-variant:normal;font-weight:normal;font-stretch:normal;font-family:Arial;-inkscape-font-specification:Arial;stroke-width:0.198128;fill:#d2d2d2;fill-opacity:1"
         d="m -169.79801,202.67892 q 0,-1.90261 1.05772,-2.81844 0.88359,-0.76104 2.15414,-0.76104 1.41244,0 2.30893,0.92873 0.89648,0.92228 0.89648,2.554 0,1.32215 -0.39987,2.0832 -0.39342,0.75459 -1.15446,1.17381 -0.7546,0.41922 -1.65108,0.41922 -1.43824,0 -2.32827,-0.92228 -0.88359,-0.92228 -0.88359,-2.6572 z m 1.19316,0 q 0,1.3157 0.57401,1.97355 0.57401,0.6514 1.44469,0.6514 0.86424,0 1.43824,-0.65785 0.57401,-0.65785 0.57401,-2.0058 0,-1.27055 -0.58046,-1.92196 -0.574,-0.65785 -1.43179,-0.65785 -0.87068,0 -1.44469,0.65141 -0.57401,0.6514 -0.57401,1.9671 z" />
      <path
         id="path920"
         style="font-style:normal;font-variant:normal;font-weight:normal;font-stretch:normal;font-family:Arial;-inkscape-font-specification:Arial;stroke-width:0.198128;fill:#d2d2d2;fill-opacity:1"
         d="m -162.44556,202.67892 q 0,-1.90261 1.05772,-2.81844 0.88359,-0.76104 2.15414,-0.76104 1.41244,0 2.30892,0.92873 0.89649,0.92228 0.89649,2.554 0,1.32215 -0.39987,2.0832 -0.39342,0.75459 -1.15447,1.17381 -0.75459,0.41922 -1.65107,0.41922 -1.43824,0 -2.32827,-0.92228 -0.88359,-0.92228 -0.88359,-2.6572 z m 1.19316,0 q 0,1.3157 0.57401,1.97355 0.574,0.6514 1.44469,0.6514 0.86423,0 1.43824,-0.65785 0.57401,-0.65785 0.57401,-2.0058 0,-1.27055 -0.58046,-1.92196 -0.57401,-0.65785 -1.43179,-0.65785 -0.87069,0 -1.44469,0.65141 -0.57401,0.6514 -0.57401,1.9671 z" />
      <path
         id="path922"
         style="font-style:normal;font-variant:normal;font-weight:normal;font-stretch:normal;font-family:Arial;-inkscape-font-specification:Arial;stroke-width:0.198128;fill:#d2d2d2;fill-opacity:1"
         d="m -154.87383,206.67116 1.12866,0.16769 q 0.0709,0.52241 0.39342,0.76104 0.43212,0.32248 1.18026,0.32248 0.80619,0 1.24476,-0.32248 0.43856,-0.32247 0.59335,-0.90293 0.0903,-0.35472 0.0839,-1.48983 -0.76105,0.89648 -1.89616,0.89648 -1.41244,0 -2.18639,-1.01903 -0.77394,-1.01902 -0.77394,-2.44436 0,-0.98033 0.35473,-1.80586 0.35472,-0.83199 1.02547,-1.28346 0.6772,-0.45146 1.58658,-0.45146 1.21251,0 1.99935,0.98032 v -0.82553 h 1.07062 v 5.92065 q 0,1.59948 -0.32893,2.26378 -0.32247,0.67075 -1.03192,1.05772 -0.703,0.38697 -1.73492,0.38697 -1.22541,0 -1.98,-0.55466 -0.75459,-0.54821 -0.72879,-1.65753 z m 0.96097,-4.11478 q 0,1.34794 0.53531,1.9671 0.53531,0.61915 1.3415,0.61915 0.79974,0 1.3415,-0.6127 0.54176,-0.61916 0.54176,-1.93486 0,-1.25765 -0.56111,-1.89615 -0.55466,-0.63851 -1.3415,-0.63851 -0.77394,0 -1.3157,0.63206 -0.54176,0.6256 -0.54176,1.86391 z" />
      <path
         id="path924"
         style="font-style:normal;font-variant:normal;font-weight:normal;font-stretch:normal;font-family:Arial;-inkscape-font-specification:Arial;stroke-width:0.198128;fill:#d2d2d2;fill-opacity:1"
         d="m -147.33435,206.10361 v -9.45499 h 1.16091 v 9.45499 z" />
      <path
         id="path926"
         style="font-style:normal;font-variant:normal;font-weight:normal;font-stretch:normal;font-family:Arial;-inkscape-font-specification:Arial;stroke-width:0.198128;fill:#d2d2d2;fill-opacity:1"
         d="m -139.67879,203.89787 1.19961,0.14834 q -0.28378,1.05127 -1.05127,1.63173 -0.76749,0.58046 -1.96065,0.58046 -1.50274,0 -2.38632,-0.92228 -0.87713,-0.92873 -0.87713,-2.59916 0,-1.72847 0.89003,-2.68299 0.89003,-0.95453 2.30893,-0.95453 1.37374,0 2.24443,0.93518 0.87068,0.93518 0.87068,2.6314 0,0.10319 -0.006,0.30957 h -5.10801 q 0.0645,1.12867 0.6385,1.72847 0.574,0.59981 1.43179,0.59981 0.6385,0 1.08997,-0.33538 0.45146,-0.33537 0.71589,-1.07062 z m -3.81166,-1.8768 h 3.82456 q -0.0774,-0.86424 -0.43856,-1.29636 -0.55466,-0.67074 -1.43825,-0.67074 -0.79974,0 -1.34794,0.5353 -0.54176,0.53531 -0.59981,1.4318 z" />
      <path
         id="path928"
         style="font-style:normal;font-variant:normal;font-weight:normal;font-stretch:normal;font-family:Arial;-inkscape-font-specification:Arial;stroke-width:0.198128;fill:#d2d2d2;fill-opacity:1"
         d="m -119.78204,206.10361 v -4.00515 l -3.64397,-5.44984 h 1.52209 l 1.8639,2.85069 q 0.51597,0.79974 0.96098,1.59948 0.42567,-0.7417 1.03192,-1.67043 l 1.83166,-2.77974 h 1.45759 l -3.77296,5.44984 v 4.00515 z" />
      <path
         id="path930"
         style="font-style:normal;font-variant:normal;font-weight:normal;font-stretch:normal;font-family:Arial;-inkscape-font-specification:Arial;stroke-width:0.198128;fill:#d2d2d2;fill-opacity:1"
         d="m -110.28191,205.25872 q -0.64495,0.54821 -1.24475,0.77394 -0.59336,0.22574 -1.277,0.22574 -1.12867,0 -1.73492,-0.54821 -0.60626,-0.55466 -0.60626,-1.41245 0,-0.50306 0.22574,-0.91583 0.23218,-0.41922 0.5998,-0.67075 0.37407,-0.25153 0.83844,-0.38052 0.34182,-0.0903 1.03192,-0.17413 1.40599,-0.16769 2.07029,-0.39987 0.006,-0.23864 0.006,-0.30313 0,-0.70945 -0.32892,-0.99968 -0.44502,-0.39342 -1.32215,-0.39342 -0.81909,0 -1.21251,0.29023 -0.38697,0.28378 -0.57401,1.01258 l -1.13511,-0.15479 q 0.15479,-0.7288 0.50951,-1.17381 0.35472,-0.45147 1.02547,-0.6901 0.67075,-0.24508 1.55433,-0.24508 0.87714,0 1.42535,0.20638 0.5482,0.20639 0.80619,0.52241 0.25798,0.30958 0.36117,0.78684 0.058,0.29668 0.058,1.07062 v 1.54788 q 0,1.61883 0.071,2.05095 0.0774,0.42567 0.29668,0.81909 h -1.21251 q -0.18059,-0.36118 -0.23219,-0.84489 z m -0.0967,-2.5927 q -0.63205,0.25798 -1.89615,0.43856 -0.7159,0.1032 -1.01258,0.23219 -0.29668,0.12899 -0.45791,0.38052 -0.16124,0.24508 -0.16124,0.54821 0,0.46436 0.34827,0.77394 0.35473,0.30957 1.03192,0.30957 0.67075,0 1.19316,-0.29022 0.52241,-0.29668 0.7675,-0.80619 0.18703,-0.39342 0.18703,-1.16091 z" />
      <path
         id="path932"
         style="font-style:normal;font-variant:normal;font-weight:normal;font-stretch:normal;font-family:Arial;-inkscape-font-specification:Arial;stroke-width:0.198128;fill:#d2d2d2;fill-opacity:1"
         d="m -107.39898,206.10361 v -6.84938 h 1.04482 v 0.97387 q 0.75459,-1.12866 2.17993,-1.12866 0.61915,0 1.13512,0.22573 0.52241,0.21928 0.78039,0.58046 0.25798,0.36117 0.36117,0.85778 0.0645,0.32248 0.0645,1.12867 v 4.21153 h -1.16091 v -4.16639 q 0,-0.70944 -0.13544,-1.05772 -0.13544,-0.35472 -0.48371,-0.5611 -0.34183,-0.21284 -0.80619,-0.21284 -0.74169,0 -1.28345,0.47082 -0.53531,0.47081 -0.53531,1.78651 v 3.74072 z" />
      <path
         id="path934"
         style="font-style:normal;font-variant:normal;font-weight:normal;font-stretch:normal;font-family:Arial;-inkscape-font-specification:Arial;stroke-width:0.198128;fill:#d2d2d2;fill-opacity:1"
         d="m -95.602823,206.10361 v -0.86424 q -0.651401,1.01903 -1.915505,1.01903 -0.819088,0 -1.509186,-0.45147 -0.683648,-0.45147 -1.064166,-1.25766 -0.37408,-0.81263 -0.37408,-1.8639 0,-1.02548 0.34183,-1.85746 0.341823,-0.83844 1.025471,-1.28346 0.683648,-0.44501 1.528535,-0.44501 0.619153,0 1.102866,0.26443 0.483713,0.25798 0.78684,0.6772 v -3.39245 h 1.154463 v 9.45499 z m -3.669773,-3.41824 q 0,1.3157 0.554658,1.9671 0.554658,0.6514 1.309251,0.6514 0.761043,0 1.289903,-0.61916 0.535309,-0.6256 0.535309,-1.9026 0,-1.40599 -0.541759,-2.06385 -0.541759,-0.65785 -1.335049,-0.65785 -0.773941,0 -1.296352,0.63206 -0.515961,0.63205 -0.515961,1.9929 z" />
      <path
         id="path936"
         style="font-style:normal;font-variant:normal;font-weight:normal;font-stretch:normal;font-family:Arial;-inkscape-font-specification:Arial;stroke-width:0.198128;fill:#d2d2d2;fill-opacity:1"
         d="m -88.005294,203.89787 1.199609,0.14834 q -0.283779,1.05127 -1.051271,1.63173 -0.767492,0.58046 -1.960651,0.58046 -1.502736,0 -2.38632,-0.92228 -0.877133,-0.92873 -0.877133,-2.59916 0,-1.72847 0.890032,-2.68299 0.890033,-0.95453 2.308926,-0.95453 1.373746,0 2.24443,0.93518 0.870684,0.93518 0.870684,2.6314 0,0.10319 -0.0065,0.30957 h -5.108013 q 0.06449,1.12867 0.638502,1.72847 0.574006,0.59981 1.431791,0.59981 0.638502,0 1.089968,-0.33538 0.451466,-0.33537 0.715896,-1.07062 z m -3.811662,-1.8768 h 3.824561 q -0.07739,-0.86424 -0.438567,-1.29636 -0.554658,-0.67074 -1.438241,-0.67074 -0.79974,0 -1.347948,0.5353 -0.541759,0.53531 -0.599805,1.4318 z" />
      <path
         id="path938"
         style="font-style:normal;font-variant:normal;font-weight:normal;font-stretch:normal;font-family:Arial;-inkscape-font-specification:Arial;stroke-width:0.198128;fill:#d2d2d2;fill-opacity:1"
         d="m -86.115583,206.10361 2.50241,-3.56013 -2.315375,-3.28925 h 1.451141 l 1.05127,1.60592 q 0.296678,0.45792 0.477264,0.7675 0.283778,-0.42567 0.52241,-0.7546 l 1.154463,-1.61882 h 1.386645 l -2.366971,3.22475 2.547557,3.62463 h -1.425342 l -1.405993,-2.12834 -0.374072,-0.57401 -1.799414,2.70235 z" />
    </g>
  </g>
</svg>
