<svg id="svg8" xmlns="http://www.w3.org/2000/svg" width="772.79" height="212.69" viewBox="0 0 772.79 212.69">
  <title>fasie</title>
  <g id="layer1">
    <path id="path952" d="M130.85,63.75l9.9-1q.89,5,3.61,7.32a11,11,0,0,0,7.39,2.34q4.91,0,7.39-2.06a6.22,6.22,0,0,0,2.51-4.88,4.47,4.47,0,0,0-1.07-3,8.13,8.13,0,0,0-3.64-2.2q-1.79-.62-8.14-2.2-8.18-2-11.48-5A13.11,13.11,0,0,1,132.67,43a12.94,12.94,0,0,1,2.16-7.18,13.74,13.74,0,0,1,6.29-5.12,25.33,25.33,0,0,1,9.93-1.75q9.48,0,14.26,4.16a14.65,14.65,0,0,1,5.05,11.1l-10.17.45q-.65-3.88-2.82-5.57T151,37.32A11.62,11.62,0,0,0,144,39.15a3.67,3.67,0,0,0-1.61,3.13,3.87,3.87,0,0,0,1.51,3.06q1.92,1.61,9.35,3.37a48.19,48.19,0,0,1,11,3.64,13.83,13.83,0,0,1,5.57,5.12,15.77,15.77,0,0,1-.38,16.12,14.51,14.51,0,0,1-6.8,5.64,28.77,28.77,0,0,1-11,1.82q-9.55,0-14.67-4.4t-6.12-12.89Z" style="fill: #d2d2d2"/>
    <path id="path954" d="M166.77,80.14V29.76h9.66V56.5l11.3-12.85h11.89L187.15,57l13.37,23.16H190.1l-9.17-16.39-4.5,4.71V80.14Z" style="fill: #d2d2d2"/>
    <path id="path909" d="M298.18,68.25,279.12,81.61,279,27.36l19.23,13.57Z" style="fill: #d2d2d2"/>
    <path id="path909-3" d="M342.85,40.15l19.42-13.62.1,55.29L342.78,68Z" style="fill: #d2d2d2"/>
    <path id="path1187" d="M54.87,106c-17.38-1-32.4-9.4-42.65-23.84A9.35,9.35,0,0,1,10.88,80c0-.24.9-.27,9.18-.31l9.14,0,.18.4c.52,1.13,3.68,4.46,6.1,6.42C50.22,98.37,72.22,99.07,89.8,88.17c3.27-2,8.33-6,8.92-6.92a5.68,5.68,0,0,1,1.68-1.46c.49,0-.56,1.87-2.89,5.2A48.69,48.69,0,0,1,75,102.77,49.76,49.76,0,0,1,54.87,106Z" style="fill: #d2d2d2"/>
    <path id="path1187-5" d="M61.49,98.78C46.64,98,33.8,91.89,25,81.3a6.71,6.71,0,0,1-1.15-1.62c0-.18.77-.2,7.84-.23l7.81,0,.16.29a25.15,25.15,0,0,0,5.22,4.71c12.59,8.75,31.39,9.27,46.41,1.27,2.8-1.49,7.12-4.36,7.62-5.08a4.73,4.73,0,0,1,1.43-1.07c.42,0-.48,1.37-2.47,3.82a41.23,41.23,0,0,1-19.26,13,48.92,48.92,0,0,1-17.17,2.38Z" style="fill: #d2d2d2"/>
    <g id="text880">
      <path id="path852" d="M12.18,56.66V33.47H27.83V36.2H15.25v7.18H26.14v2.74H15.25V56.66Z" style="fill: #d2d2d2"/>
      <path id="path854" d="M27.51,56.66l8.91-23.2h3.31l9.49,23.2h-3.5l-2.71-7h-9.7l-2.55,7Zm6.69-9.52h7.86l-2.42-6.42Q38.54,37.79,38,35.9a29.57,29.57,0,0,1-1.25,4.43Z" style="fill: #d2d2d2"/>
      <path id="path856" d="M50.66,49.21l2.9-.25a6.52,6.52,0,0,0,.95,2.86,5.36,5.36,0,0,0,2.34,1.8,8.93,8.93,0,0,0,3.56.68,8.53,8.53,0,0,0,3.1-.52,4.27,4.27,0,0,0,2-1.42,3.33,3.33,0,0,0,.66-2,3,3,0,0,0-.63-1.9,4.65,4.65,0,0,0-2.09-1.38A40.09,40.09,0,0,0,59.32,46a21.31,21.31,0,0,1-4.48-1.46,6.37,6.37,0,0,1-2.48-2.15,5.37,5.37,0,0,1-.81-2.9,5.86,5.86,0,0,1,1-3.28,6.15,6.15,0,0,1,2.91-2.33,11,11,0,0,1,4.26-.79,11.47,11.47,0,0,1,4.54.84,6.51,6.51,0,0,1,3,2.44A7,7,0,0,1,68.43,40l-2.94.22a4.73,4.73,0,0,0-1.61-3.32,6.22,6.22,0,0,0-4-1.12,6.49,6.49,0,0,0-4.07,1,3,3,0,0,0-1.27,2.45,2.64,2.64,0,0,0,.9,2.06q.89.81,4.62,1.66a30.29,30.29,0,0,1,5.14,1.47,7,7,0,0,1,3,2.37,5.73,5.73,0,0,1,1,3.29,6.35,6.35,0,0,1-1.06,3.5A7,7,0,0,1,65,56.16a10.64,10.64,0,0,1-4.46.9,13.41,13.41,0,0,1-5.28-.92,7.46,7.46,0,0,1-3.34-2.75,7.91,7.91,0,0,1-1.27-4.18Z" style="fill: #d2d2d2"/>
      <path id="path858" d="M73.87,56.66V33.47h3.07v23.2Z" style="fill: #d2d2d2"/>
      <path id="path860" d="M82.4,56.66V33.47H99.17V36.2H85.47v7.1H98.3V46H85.47v7.9H99.71v2.74Z" style="fill: #d2d2d2"/>
    </g>
    <g id="text884">
      <path id="path863" d="M131.86,100.52l2.87-.25a6.46,6.46,0,0,0,.94,2.84,5.31,5.31,0,0,0,2.32,1.79,8.85,8.85,0,0,0,3.53.67,8.45,8.45,0,0,0,3.07-.52,4.24,4.24,0,0,0,2-1.41,3.3,3.3,0,0,0,.66-2,3,3,0,0,0-.63-1.88,4.61,4.61,0,0,0-2.07-1.36,39.74,39.74,0,0,0-4.09-1.11A21.12,21.12,0,0,1,136,95.86a6.31,6.31,0,0,1-2.46-2.13,5.32,5.32,0,0,1-.8-2.87,5.8,5.8,0,0,1,1-3.25,6.1,6.1,0,0,1,2.88-2.3,11,11,0,0,1,4.22-.78,11.37,11.37,0,0,1,4.5.83,6.45,6.45,0,0,1,3,2.41,7,7,0,0,1,1.13,3.62l-2.92.22a4.69,4.69,0,0,0-1.6-3.29,6.16,6.16,0,0,0-4-1.11,6.43,6.43,0,0,0-4,1,3,3,0,0,0-1.25,2.43,2.61,2.61,0,0,0,.89,2q.88.8,4.58,1.65a30,30,0,0,1,5.1,1.46,6.94,6.94,0,0,1,3,2.35,5.67,5.67,0,0,1,1,3.26,6.29,6.29,0,0,1-1.05,3.47,7,7,0,0,1-3,2.52,10.54,10.54,0,0,1-4.42.89,13.28,13.28,0,0,1-5.24-.91,7.4,7.4,0,0,1-3.31-2.73,7.84,7.84,0,0,1-1.25-4.14Z" style="fill: #d2d2d2"/>
      <path id="path865" d="M154,107.9v-23h2.82V98l6.68-6.77h3.65l-6.37,6.18,7,10.47h-3.48l-5.5-8.51-2,1.91v6.6Z" style="fill: #d2d2d2"/>
      <path id="path867" d="M169,99.57q0-4.63,2.57-6.85a7.75,7.75,0,0,1,5.24-1.85,7.46,7.46,0,0,1,5.61,2.26,8.53,8.53,0,0,1,2.18,6.21,11,11,0,0,1-1,5.06,6.78,6.78,0,0,1-2.81,2.85,8.13,8.13,0,0,1-4,1,7.51,7.51,0,0,1-5.66-2.24Q169,103.79,169,99.57Zm2.9,0a7.12,7.12,0,0,0,1.4,4.8,4.65,4.65,0,0,0,7,0,7.26,7.26,0,0,0,1.4-4.88,6.82,6.82,0,0,0-1.41-4.67,4.43,4.43,0,0,0-3.48-1.6,4.48,4.48,0,0,0-3.51,1.58,7.06,7.06,0,0,0-1.4,4.78Z" style="fill: #d2d2d2"/>
      <path id="path869" d="M187.85,107.9v-23h2.82v23Z" style="fill: #d2d2d2"/>
      <path id="path871" d="M195.07,107.9v-23h2.82V98l6.68-6.77h3.65l-6.37,6.18,7,10.47h-3.48l-5.5-8.51-2,1.91v6.6Z" style="fill: #d2d2d2"/>
      <path id="path873" d="M210.06,99.57q0-4.63,2.57-6.85a7.75,7.75,0,0,1,5.24-1.85,7.46,7.46,0,0,1,5.61,2.26,8.53,8.53,0,0,1,2.18,6.21,11,11,0,0,1-1,5.06,6.78,6.78,0,0,1-2.81,2.85,8.13,8.13,0,0,1-4,1,7.51,7.51,0,0,1-5.66-2.24q-2.15-2.24-2.15-6.46Zm2.9,0a7.12,7.12,0,0,0,1.4,4.8,4.65,4.65,0,0,0,7,0,7.26,7.26,0,0,0,1.4-4.88,6.82,6.82,0,0,0-1.41-4.67,4.43,4.43,0,0,0-3.48-1.6,4.48,4.48,0,0,0-3.51,1.58,7.06,7.06,0,0,0-1.4,4.78Z" style="fill: #d2d2d2"/>
      <path id="path875" d="M233.61,107.9l-6.33-16.65h3l3.57,10q.58,1.61,1.07,3.36.38-1.32,1.05-3.17l3.7-10.16h2.9l-6.3,16.65Z" style="fill: #d2d2d2"/>
      <path id="path877" d="M244,99.57q0-4.63,2.57-6.85a7.75,7.75,0,0,1,5.24-1.85,7.46,7.46,0,0,1,5.61,2.26,8.53,8.53,0,0,1,2.18,6.21,11,11,0,0,1-1,5.06,6.78,6.78,0,0,1-2.81,2.85,8.13,8.13,0,0,1-4,1,7.51,7.51,0,0,1-5.66-2.24Q244,103.79,244,99.57Zm2.9,0a7.12,7.12,0,0,0,1.4,4.8,4.65,4.65,0,0,0,7,0,7.26,7.26,0,0,0,1.4-4.88,6.82,6.82,0,0,0-1.41-4.67,4.43,4.43,0,0,0-3.48-1.6,4.48,4.48,0,0,0-3.51,1.58,7.06,7.06,0,0,0-1.4,4.78Z" style="fill: #d2d2d2"/>
    </g>
    <g id="text72">
      <path id="path880" d="M295.69,107.19l8-20.76h3l8.49,20.76H312l-2.42-6.29h-8.68l-2.28,6.29Zm6-8.52h7l-2.17-5.75q-1-2.62-1.47-4.3a26.46,26.46,0,0,1-1.12,4Z" style="fill: #d2d2d2"/>
      <path id="path882" d="M316.4,100.52l2.59-.23a5.83,5.83,0,0,0,.85,2.56,4.79,4.79,0,0,0,2.1,1.61,8,8,0,0,0,3.19.61,7.63,7.63,0,0,0,2.78-.47,3.83,3.83,0,0,0,1.78-1.27,3,3,0,0,0,.59-1.78,2.67,2.67,0,0,0-.57-1.7,4.16,4.16,0,0,0-1.87-1.23,35.88,35.88,0,0,0-3.7-1,19.07,19.07,0,0,1-4-1.3,5.7,5.7,0,0,1-2.22-1.93,4.81,4.81,0,0,1-.72-2.59,5.24,5.24,0,0,1,.89-2.93,5.51,5.51,0,0,1,2.61-2.08,9.88,9.88,0,0,1,3.81-.71,10.27,10.27,0,0,1,4.06.75A5.82,5.82,0,0,1,331.28,89a6.28,6.28,0,0,1,1,3.27l-2.63.2a4.24,4.24,0,0,0-1.44-3,5.56,5.56,0,0,0-3.61-1,5.8,5.8,0,0,0-3.64.92,2.73,2.73,0,0,0-1.13,2.19,2.36,2.36,0,0,0,.81,1.84q.79.72,4.13,1.49a27.11,27.11,0,0,1,4.6,1.32,6.27,6.27,0,0,1,2.68,2.12,5.12,5.12,0,0,1,.86,2.94,5.68,5.68,0,0,1-.95,3.13,6.3,6.3,0,0,1-2.73,2.28,9.52,9.52,0,0,1-4,.81,12,12,0,0,1-4.73-.82,6.68,6.68,0,0,1-3-2.46,7.08,7.08,0,0,1-1.13-3.74Z" style="fill: #d2d2d2"/>
      <path id="path884" d="M337.17,107.19V86.43h2.75v20.76Z" style="fill: #d2d2d2"/>
    </g>
    <path id="path2-5" d="M434.47,41.81V37l1.42-.07c13.18-.41,21.83,11.33,21.83,11.33s-9.34,13-19.36,13a12.15,12.15,0,0,1-3.9-.62V46c5.13.62,6.16,2.89,9.25,8l6.86-5.79s-5-6.57-13.45-6.57a24.8,24.8,0,0,0-2.66.16Zm0-15.92v7.2c.47,0,.95-.07,1.42-.09,18.33-.62,30.28,15,30.28,15s-13.72,16.68-28,16.68a21,21,0,0,1-3.69-.32v4.45a24.23,24.23,0,0,0,3.07.2c13.3,0,22.92-6.79,32.23-14.83,1.54,1.24,7.87,4.24,9.17,5.56-8.86,7.41-29.49,13.39-41.19,13.39q-1.64,0-3.28-.17v6.25H485V25.89H434.47Zm0,34.71v3.8c-12.3-2.19-15.72-15-15.72-15a26.6,26.6,0,0,1,15.72-7.61V46h0c-5.15-.62-9.17,4.19-9.17,4.19s2.25,8.1,9.19,10.43ZM412.62,48.86A30.47,30.47,0,0,1,434.47,37v-3.9c-16.12,1.29-30.09,15-30.09,15s7.91,22.86,30.09,25V68.85c-16.28-2-21.85-20-21.85-20Z" style="fill: #d2d2d2"/>
    <g id="text918">
      <path id="path887" d="M394.77,108.35V88.5h3v2.82a7.14,7.14,0,0,1,6.32-3.27,8.12,8.12,0,0,1,3.29.65,5.12,5.12,0,0,1,2.26,1.68,6.49,6.49,0,0,1,1,2.49,19.27,19.27,0,0,1,.19,3.27v12.21h-3.36V96.28a9,9,0,0,0-.39-3.07,3.17,3.17,0,0,0-1.4-1.63A4.33,4.33,0,0,0,403.4,91a5.49,5.49,0,0,0-3.72,1.36q-1.55,1.36-1.55,5.18v10.84Z" style="fill: #d2d2d2"/>
      <path id="path889" d="M422.11,108.35l-8.32-21.8h3.08l6.91,18.36,6.92-18.36h3.07l-8.31,21.8Z" style="fill: #d2d2d2"/>
      <path id="path891" d="M436.93,86.55h3v21.8h-3Z" style="fill: #d2d2d2"/>
      <path id="path893" d="M448.71,89v17h3.56q4.51,0,6.6-2t2.1-6.46q0-4.38-2.1-6.41t-6.6-2Zm-3-2.42h6.06q6.34,0,9.3,2.64t3,8.24q0,5.64-3,8.28t-9.29,2.64h-6.06Z" style="fill: #d2d2d2"/>
      <path id="path895" d="M468.77,86.55h3v21.8h-3Z" style="fill: #d2d2d2"/>
      <path id="path897" d="M484.88,89.46l-4,10.85h8Zm-1.66-2.91h3.34l8.31,21.8H491.8l-2-5.59H480l-2,5.59h-3.11Z" style="fill: #d2d2d2"/>
    </g>
    <path id="path900" d="M10.41,197.63v-28.8h3.91l15.13,22.62V168.83H33.1v28.8H29.19L14.06,175v22.64Z" style="fill: #d2d2d2"/>
    <path id="path902" d="M46.85,197.63V172.22H37.36v-3.4H60.2v3.4H50.67v25.41Z" style="fill: #d2d2d2"/>
    <path id="path904" d="M64.77,197.63v-28.8h3.81v28.8Z" style="fill: #d2d2d2"/>
    <path id="path906" d="M103.6,194.23v3.4h-19a6.26,6.26,0,0,1,.41-2.46,13.09,13.09,0,0,1,2.32-3.83A37.12,37.12,0,0,1,91.93,187a39.55,39.55,0,0,0,6.35-6.09,7.35,7.35,0,0,0,1.65-4.26,4.68,4.68,0,0,0-1.51-3.54,5.37,5.37,0,0,0-3.91-1.45,5.52,5.52,0,0,0-4.09,1.53,5.8,5.8,0,0,0-1.55,4.24L85.23,177A8.91,8.91,0,0,1,88,170.85a9.56,9.56,0,0,1,6.54-2.14,9.13,9.13,0,0,1,6.56,2.3,7.55,7.55,0,0,1,2.42,5.7,8.64,8.64,0,0,1-.71,3.4,13.09,13.09,0,0,1-2.36,3.52,56,56,0,0,1-5.44,5.07q-3.18,2.67-4.09,3.64a11.31,11.31,0,0,0-1.49,1.91Z" style="fill: #d2d2d2"/>
    <path id="path908" d="M107.41,183.42a26.49,26.49,0,0,1,1-8.21,10.33,10.33,0,0,1,3.12-4.81,8,8,0,0,1,5.23-1.69,8.44,8.44,0,0,1,4.07.94,7.67,7.67,0,0,1,2.89,2.69,14.3,14.3,0,0,1,1.79,4.28,28.33,28.33,0,0,1,.65,6.8,26.53,26.53,0,0,1-1,8.19,10.26,10.26,0,0,1-3.12,4.81,8.77,8.77,0,0,1-11.77-1.3Q107.41,191.54,107.41,183.42Zm3.64,0q0,7.09,1.65,9.45a4.92,4.92,0,0,0,4.11,2.34,4.86,4.86,0,0,0,4.09-2.36q1.67-2.36,1.67-9.43T120.89,174a4.9,4.9,0,0,0-4.13-2.34,4.53,4.53,0,0,0-3.89,2.06q-1.83,2.63-1.83,9.73Z" style="fill: #d2d2d2"/>
    <path id="path910" d="M131.8,197.63v-4h4v4Z" style="fill: #d2d2d2"/>
    <path id="path912" d="M141,190l3.54-.47a7.89,7.89,0,0,0,2.06,4.34,5.18,5.18,0,0,0,3.58,1.32,5.68,5.68,0,0,0,4.2-1.73,5.82,5.82,0,0,0,1.73-4.28,5.39,5.39,0,0,0-1.59-4,5.48,5.48,0,0,0-4-1.59,10.15,10.15,0,0,0-2.5.39l.39-3.1.57,0a7.28,7.28,0,0,0,4.07-1.18,4,4,0,0,0,1.81-3.63,4.3,4.3,0,0,0-1.32-3.22,4.68,4.68,0,0,0-3.4-1.28,4.82,4.82,0,0,0-3.44,1.3,6.51,6.51,0,0,0-1.77,3.89l-3.54-.63a9,9,0,0,1,2.95-5.5,8.49,8.49,0,0,1,5.72-2,9.34,9.34,0,0,1,4.34,1,7.19,7.19,0,0,1,3,2.75,7,7,0,0,1,1.06,3.71,6.08,6.08,0,0,1-1,3.4,6.84,6.84,0,0,1-3,2.44,6.67,6.67,0,0,1,4,2.46,7.4,7.4,0,0,1,1.41,4.64,8.53,8.53,0,0,1-2.75,6.41,9.7,9.7,0,0,1-7,2.61,9.09,9.09,0,0,1-6.31-2.26A8.76,8.76,0,0,1,141,190Z" style="fill: #d2d2d2"/>
    <path id="path914" d="M163.37,190.08l3.71-.31a6.73,6.73,0,0,0,1.91,4.09,5.26,5.26,0,0,0,3.63,1.36,5.65,5.65,0,0,0,4.32-1.93,7.26,7.26,0,0,0,1.77-5.11A6.54,6.54,0,0,0,177,183.4a5.89,5.89,0,0,0-4.44-1.75,6.11,6.11,0,0,0-3.08.79,5.91,5.91,0,0,0-2.16,2L164,184l2.79-14.8h14.32v3.38H169.62l-1.55,7.74a9.37,9.37,0,0,1,5.44-1.81,8.62,8.62,0,0,1,6.37,2.61,9.13,9.13,0,0,1,2.59,6.72,10.49,10.49,0,0,1-2.28,6.76,9.13,9.13,0,0,1-7.56,3.5,9.36,9.36,0,0,1-6.43-2.2,8.61,8.61,0,0,1-2.83-5.84Z" style="fill: #d2d2d2"/>
    <g id="text63">
      <path id="path921" d="M371,169.46v3.76a23.75,23.75,0,0,0-4.14-1.56,14.66,14.66,0,0,0-3.76-.51,8.3,8.3,0,0,0-4.86,1.22,4,4,0,0,0-1.7,3.47,3.57,3.57,0,0,0,1.13,2.86,10,10,0,0,0,4.31,1.54l2.33.48a11.8,11.8,0,0,1,6.35,2.9,8.46,8.46,0,0,1-.72,11.8q-2.76,2.14-8.12,2.14a22,22,0,0,1-4.31-.46,32.12,32.12,0,0,1-4.71-1.35v-4a22.51,22.51,0,0,0,4.6,2,15.51,15.51,0,0,0,4.42.67,8.58,8.58,0,0,0,5.09-1.3,4.29,4.29,0,0,0,1.79-3.7,4.21,4.21,0,0,0-1.3-3.28,8.77,8.77,0,0,0-4.21-1.77l-2.35-.46q-4.31-.86-6.24-2.69a6.69,6.69,0,0,1-1.93-5.09,7.28,7.28,0,0,1,2.65-5.95,11.3,11.3,0,0,1,7.34-2.17,23.73,23.73,0,0,1,4.08.36A29.44,29.44,0,0,1,371,169.46Z" style="fill: #d2d2d2"/>
      <path id="path923" d="M393.87,186.33a10.11,10.11,0,0,0-1.6-6.06,5.43,5.43,0,0,0-8.75,0,12.44,12.44,0,0,0,0,12.15,5.46,5.46,0,0,0,8.75,0A10.2,10.2,0,0,0,393.87,186.33Zm-11.94-7.46a7.25,7.25,0,0,1,2.78-2.82,8.26,8.26,0,0,1,4-.93,7.65,7.65,0,0,1,6.31,3.09,14.74,14.74,0,0,1,0,16.25,7.65,7.65,0,0,1-6.31,3.09,8.4,8.4,0,0,1-4-.92,7.39,7.39,0,0,1-2.78-2.84V197h-3.53V167.32h3.53Z" style="fill: #d2d2d2"/>
      <path id="path925" d="M421.6,185.44v1.72H405.47a8.16,8.16,0,0,0,2.17,5.53,7.55,7.55,0,0,0,5.45,1.89,15.33,15.33,0,0,0,3.91-.5,17.38,17.38,0,0,0,3.78-1.49v3.32a21,21,0,0,1-3.87,1.22,19.38,19.38,0,0,1-4,.42,11,11,0,0,1-8.1-3,10.87,10.87,0,0,1-3-8,11.81,11.81,0,0,1,2.82-8.31,9.88,9.88,0,0,1,7.65-3.09,8.68,8.68,0,0,1,6.81,2.78,10.77,10.77,0,0,1,2.52,7.53Zm-3.51-1a6.65,6.65,0,0,0-1.62-4.6,5.35,5.35,0,0,0-4.16-1.72,6.62,6.62,0,0,0-4.71,1.66,7,7,0,0,0-2,4.67Z" style="fill: #d2d2d2"/>
      <path id="path927" d="M439.73,178.92a4.43,4.43,0,0,0-1.3-.5,6.29,6.29,0,0,0-1.53-.17,5.59,5.59,0,0,0-4.58,1.94,8.54,8.54,0,0,0-1.58,5.55V197h-3.53V175.64h3.53V179a7.13,7.13,0,0,1,2.88-2.88,9,9,0,0,1,4.31-1,6.22,6.22,0,0,1,.8.06q.44,0,1,.13Z" style="fill: #d2d2d2"/>
    </g>
    <path id="path12356" d="M561.64,27.76c-.61-.13-.65-.26-.63-2,0-.84,0-1.62.07-1.72a.46.46,0,0,0,0-.27,4.21,4.21,0,0,0-1.21.2,23.11,23.11,0,0,1-4.45.68,15.46,15.46,0,0,0-1.63.16s.14.17.37.32a6.78,6.78,0,0,0,2.21.75,2.91,2.91,0,0,1,.57.12c.17.09-.09.4-.57.68a1.59,1.59,0,0,1-1.14.22,7.31,7.31,0,0,1-1-.09l-.3-.07.37-.24a1.22,1.22,0,0,0,.37-.31,10.24,10.24,0,0,0-1.26-.83c-1.24-.75-1.26-.77-1.2-1a.94.94,0,0,1,.11-.32,2.69,2.69,0,0,1,.79,0c2.74.27,4.18,0,7.62-1.55a5.83,5.83,0,0,1,2.14-.75.76.76,0,0,1,.68.22c.34.34.39.74.29,2.24-.15,2.33-.39,3.39-.79,3.54a3,3,0,0,1-1.35.08Z" style="fill: #d2d2d2"/>
    <path id="path12328" d="M561.23,36.08c-.79-.46-1.3-1.46-1.56-3.06-.43-2.63.31-3.78,2.43-3.78a4.45,4.45,0,0,1,1.13.16l.51.16-.78.06a2.85,2.85,0,0,0-2.15.86,2.34,2.34,0,0,0-.49.81,5.31,5.31,0,0,0,.16,2.49,3.45,3.45,0,0,0,2.11,1.93l.36.11-.25.16a2.22,2.22,0,0,1-1.48.12Z" style="fill: #d2d2d2"/>
    <path id="path12326" d="M558,36.43a27.75,27.75,0,0,0-3.07-1.17,32.21,32.21,0,0,0-4-.73s0-.13,0-.29V34l2,.28c1.08.16,2.34.31,2.8.34l.83.06.31-.27c.4-.35.53-.7.8-2.1.19-1,.57-3.33.57-3.49s.14,0,.3,0,.3,0,.3.07-.1.75-.23,1.58a11.76,11.76,0,0,0,0,4.67c.13.5.25,1,.28,1s0,.17-.28.26l-.37.15a.34.34,0,0,1-.19-.07Z" style="fill: #d2d2d2"/>
    <path id="path12324" d="M558,40.71l-.84-.21a13.75,13.75,0,0,1-3.61-1.67c-2.51-1.49-4.16-2.22-5.32-2.36-.27,0-.49-.09-.49-.13s.64-.49,1.23-.7a8.24,8.24,0,0,1,4,.11,28.88,28.88,0,0,1,2.79,1.33c2.82,1.5,3.93,1.84,6.21,1.95l1.21.05-.33.3a6.07,6.07,0,0,1-2,1.14,5.46,5.46,0,0,1-1.65.21,9.75,9.75,0,0,1-1.26,0Z" style="fill: #d2d2d2"/>
    <path id="path12320" d="M558.72,46.9a8.72,8.72,0,0,1-2.05-.71l-.32-.19h1.36a4.75,4.75,0,0,0,3-.67,5.13,5.13,0,0,0,1.7-3.4c.13-.77.21-.75.4.11.53,2.49-.9,4.8-3,4.91a5.23,5.23,0,0,1-1.07-.05Z" style="fill: #d2d2d2"/>
    <path id="path12318" d="M580.58,48.91a10.84,10.84,0,0,0-1.28-1.44,7,7,0,0,1-1.86-2.38,5.62,5.62,0,0,1,.14-3.37l.19-.49,0,.87a3.15,3.15,0,0,0,.73,2.19c.59.66,1,.8,2.59.88,1.78.09,2.07.21,3.72,1.55a12.15,12.15,0,0,0,1.38,1,2,2,0,0,0,1.3.28,2.36,2.36,0,0,0,1.28-.23,1.75,1.75,0,0,1,.5-.19,2.66,2.66,0,0,1-.59.93,2.23,2.23,0,0,1-1.43.72c-.61.06-.84,0-2.3-1.15a7.15,7.15,0,0,0-2.68-1.55c-.85-.22-1.71,0-1.9.46-.11.27-.13.2.39,1.62a1.59,1.59,0,0,1,.1.58c0,.22,0,.2-.33-.25Z" style="fill: #d2d2d2"/>
    <path id="path12290" d="M565.83,62.6c-.13,0,0-.11.35-.35A8.15,8.15,0,0,0,569,59.39a5.29,5.29,0,0,0-.41-5.28,9.29,9.29,0,0,0-1.38-1.79,1.26,1.26,0,0,0,.17.41,2.17,2.17,0,0,1,.2,1.24,2.36,2.36,0,0,1-.28,1.43,1.8,1.8,0,0,1-1,1.08l-.33.14.34-.46a2.39,2.39,0,0,0,.55-1.66,2.27,2.27,0,0,0-1.22-2.21c-.59-.16-1,.37-1.11,1.56l-.07.65-.32-1a14.37,14.37,0,0,1-.76-5c0-5.48,1.94-9.62,5.67-12.08A14.19,14.19,0,0,1,574,34.42a10.94,10.94,0,0,1,2.79-.19,10.16,10.16,0,0,1,4.36.64c.78.26,3,1,3.06,1.09s.08.46.16,1a10.73,10.73,0,0,0,1.77,5.19c.39.5.4.55.12.4a1.79,1.79,0,0,1-.5-.49,3.57,3.57,0,0,0-2.06-1.34,2,2,0,0,1-.54-.28c-.15-.15-.08-.32.39-.9s.55-.73.38-1.09-.58-.65-1.46-1.1a7.89,7.89,0,0,0-3.77-.87,8,8,0,0,0-7.4,4.62,12.2,12.2,0,0,0-1.35,5.32c0,1.71.28,2.72,1.48,5.34a11.55,11.55,0,0,1,1.42,5.09,5,5,0,0,1-1.13,3.33,7.17,7.17,0,0,1-3.36,2.21,7.7,7.7,0,0,1-2.5.21Z" style="fill: #d2d2d2"/>
    <path id="path12288" d="M522.27,75.54a1.92,1.92,0,0,1-.44-.56,3.16,3.16,0,0,1,0-1.62,3.26,3.26,0,0,1,1.45-1.48,6.28,6.28,0,0,0,.85-.6,3.89,3.89,0,0,0,1-2.5v-.42l.27.14a3.81,3.81,0,0,1,1.29,1.38,2.47,2.47,0,0,1,.08,2c-.19.41-.2.42-.23.16a2.44,2.44,0,0,0-.36-1,1,1,0,0,0-.16.44,2.27,2.27,0,0,1-1.74,1.65c-1.2.4-1.69.94-1.64,1.85a3.05,3.05,0,0,0,.1.67c.11.24-.08.18-.44-.13Z" style="fill: #d2d2d2"/>
    <path id="path12286" d="M551.21,78.15a1.14,1.14,0,0,1-.41-.85,3.73,3.73,0,0,1,.17-.8,3.2,3.2,0,0,0,0-1.88,12.88,12.88,0,0,0-.64-1.29,5,5,0,0,1-.79-2.16,8.34,8.34,0,0,1,.73-2.26,9.66,9.66,0,0,0,.82-3.65,5,5,0,0,0-1.21-3.58l-.35-.32h-1.54a5.71,5.71,0,0,1-2.1-.17,6,6,0,0,1-2.46-1.65,7.71,7.71,0,0,0-3.58-2.27,6.23,6.23,0,0,0-3.76.57c-.52.25-.53.24-.89-.53a3,3,0,0,1,0-2.82A5.51,5.51,0,0,1,537,52.88c.88-.45.89-.72.12-2.23-1-2-.84-2.77,1-3.63,3.25-1.52,4.18-2,4.7-2.52s.42-.91-.36-1.31a2.23,2.23,0,0,1-1-1.09,1.86,1.86,0,0,1,1-2l.37-.17a1.58,1.58,0,0,1-.08.45c-.14.52-.08.9.15,1a4.64,4.64,0,0,0,1.1.09c1,0,1.57.16,1.75.5a5.39,5.39,0,0,1,.1,1.24c0,1.7.3,2.09,1.94,2.59a10.56,10.56,0,0,1,2.32.91,3.72,3.72,0,0,1,1,.91s-.17,0-.39-.11a7.92,7.92,0,0,0-3.4-.58c-3.82-.1-7.85.65-8.59,1.6a1.63,1.63,0,0,0-.22,1.15c.07.33.44.78.64.78a2.5,2.5,0,0,0,.7-.47,2.25,2.25,0,0,1,1.91-.78,2.86,2.86,0,0,1,1.62.41,7.71,7.71,0,0,0,2.92.81,5,5,0,0,0,2.73-.57,3.13,3.13,0,0,1,2-.44,2.54,2.54,0,0,1,1.18.54c.09.11,0,.11-.31,0a3.05,3.05,0,0,0-1.54.14A2.53,2.53,0,0,0,549,51.53a3.75,3.75,0,0,1-2.88,2.08,6.36,6.36,0,0,0-.81.24,34.7,34.7,0,0,0,3.42.69,6.27,6.27,0,0,0,2.69-.15,2.66,2.66,0,0,0,1.46-2l.06-.41.1.35a4.26,4.26,0,0,1-.08,2.17,4.11,4.11,0,0,1-1.88,1.93,7.26,7.26,0,0,1-4.16.8,1.29,1.29,0,0,0-.52,0c-.1.1.91,1,1.25,1.05a4.36,4.36,0,0,0,1.25,0,3.71,3.71,0,0,1,1.24.06,2.63,2.63,0,0,1,1.19,1l.21.35a13.35,13.35,0,0,0,1.35-.62c1.33-.65,3.45-1.57,4.65-2l.65-.23.44.49a14.18,14.18,0,0,1,3.29,5.85,8.16,8.16,0,0,1,0,2.81,5.77,5.77,0,0,1-.79,1.71c-.22.29-.63.62-.69.55a3.42,3.42,0,0,1,.3-.69,4.71,4.71,0,0,0,.17-3.81,16.82,16.82,0,0,0-2.78-4.67l-.4-.46-2.54,1.27c-1.4.7-2.61,1.33-2.69,1.39s-.1.19.55,1.11c1.07,1.51,1.24,2,1,2.83a7,7,0,0,1-.62,1.28c-.92,1.52-1.2,2.93-1.13,5.76.05,2.27.21,3.24.6,3.68s.93.59,2.24.82c1.16.2,1.67.37,1.62.54a1.61,1.61,0,0,1-.59.32,4.23,4.23,0,0,1-1.72.22,5.32,5.32,0,0,0-1.76.2,2.21,2.21,0,0,1-1.46.1Z" style="fill: #d2d2d2"/>
    <path id="path12262" d="M598.75,88A8.17,8.17,0,0,1,596.6,86c-.23-.45-.23-.72,0-1.6a4.07,4.07,0,0,0,0-2.19,6,6,0,0,0-.57-.91,2.58,2.58,0,0,1-.73-2.23l.06-.84-.63-1.82c-.92-2.68-1.54-3.89-2.19-4.29-.43-.26-.71-.22-1.44.25a10.22,10.22,0,0,1-9.36,1.18c-1.72-.62-3.29-1.78-3.29-2.45,0-.3.7-.81,2.16-1.57a19,19,0,0,0,1.79-1c.7-.54.76-.87.47-2.54a14.4,14.4,0,0,1,0-4.24,21.32,21.32,0,0,0-.39-7,3.88,3.88,0,0,1-.14-.72,26.08,26.08,0,0,1,2.58,2.64,18.66,18.66,0,0,1,2.94,4.72,18.42,18.42,0,0,1,.57,1.86c.46,1.84.88,2.52,1.57,2.52.5,0,.94-.34,2.34-1.8,1.54-1.62,1.82-1.79,2.48-1.54.83.32,1.7,1.53,3.23,4.52,2.38,4.63,4.44,10.08,4.34,11.46,0,.66-.4.57-1.91-.49-1.14-.79-1.49-1.11-1.7-1.54a2.77,2.77,0,0,1,0-1.87,4.54,4.54,0,0,0-.64-3.59,50,50,0,0,0-3.16-4c-.77-.66-1.33-.43-2.9,1.18-1,1-1,1-.89,1.47s.11.35.37.31.71-.08,1.25-.11a2.84,2.84,0,0,1,1.37.1c.37.14.43.2.66.73a42,42,0,0,1,1.62,5.07,35.94,35.94,0,0,0,1.68,5.16c1.45,3.58,2.18,6.47,1.84,7.29-.18.43-.44.43-1.18,0Z" style="fill: #d2d2d2"/>
    <path id="path12260" d="M583.37,88.93a10.07,10.07,0,0,1-1.14-.89,6.78,6.78,0,0,0-2.82-1.58,11.12,11.12,0,0,1-1.41-.57,1.68,1.68,0,0,1-.71-2.18c.32-.74.14-1.44-.82-3.33-.56-1.1-2.08-3.22-19.84-27.83l-19.5-27-.26-.36.3-.23.3-.23,2,2.75c8.65,12,44.15,61.15,44.32,61.37s.13.37-.39.07Z" style="fill: #d2d2d2"/>
    <path id="path12258" d="M578.61,92.48c-.05-.19-.16-.7-.23-1.14-.24-1.43-.64-2.14-1.31-2.37-.26-.09-.45-.06-1.44.22-2.34.65-3.09.57-5-.55-.84-.49-1.25-.61-1.57-.46s-.5.46-.52,1.69a8.55,8.55,0,0,1-.11,1.36c-.23.58-.72.7-2,.48a50.64,50.64,0,0,1-5-1.29,9.52,9.52,0,0,0-1-.28,3.37,3.37,0,0,0,.19.64c.23.67.21.89-.08.89a8.12,8.12,0,0,1-2.64-1.8c-.86-.8-.47-1.1,1.28-1a6.79,6.79,0,0,1,2.86.7c2,.88,4,1.07,4.05.38a2.69,2.69,0,0,0-.11-.75,1.82,1.82,0,0,1,.55-2.16c.63-.64.59-1-.19-2.08l-.39-.53.22-.1a5.59,5.59,0,0,1,1.76-.35,5,5,0,0,1,3.32,1.32,5.44,5.44,0,0,0,2.21,1.23,7.54,7.54,0,0,0,2.32.09c1.61-.05,1.79,0,2.13.11.64.28.94.88,1.1,2.18a13.19,13.19,0,0,1-.21,3.38l-.11.56Z" style="fill: #d2d2d2"/>
    <path id="path12256" d="M550.41,96.5a7.73,7.73,0,0,0-2-1.8c-.59-.31-.68-.49-.29-.58s.57,0,2.39.41c2.27.55,3.17.48,3.47-.25a1.3,1.3,0,0,0-.24-1.29,6.88,6.88,0,0,0-2.37-1.82c-1.33-.77-1.58-.95-1.68-1.23s0-.55.81-1.55a9.25,9.25,0,0,0,1.5-2.36c.23-.55.28-1.24.1-1.24a7,7,0,0,0-1.69,1.87,5.25,5.25,0,0,1-1.84,1.79,5.07,5.07,0,0,1-3.59.38,13.55,13.55,0,0,0-3.52,0,5,5,0,0,0-3.09,2.63L538,92l.06-.65a5.84,5.84,0,0,1,2.84-4.88c1.11-.54,1.85-.61,4.39-.45A3.83,3.83,0,0,0,547,86a2.86,2.86,0,0,0,1.63-1.26,14.23,14.23,0,0,0,.65-1.66,6.34,6.34,0,0,1,1.27-2.55,4.51,4.51,0,0,1,3-1.26c.17,0,1.17.34,2.22.7,3.37,1.14,4.67,1.3,9.56,1.22,1.83,0,4-.08,4.91-.11,1.57-.06,1.58-.06,1.58.13a.22.22,0,0,1-.19.23c-8,1.87-12.84,3.64-14.5,5.3-.4.4-1.57,1.84-2.33,2.87a1.67,1.67,0,0,0-.05,2.33,13.66,13.66,0,0,0,2.66,2.68c.78.5,1.08.78,1.08,1,0,.43-1,.65-3.78.85-1,.08-2.28.19-2.75.26-1.31.19-1.37.18-1.65-.22Z" style="fill: #d2d2d2"/>
    <path id="path12254" d="M544.29,102.43a2.19,2.19,0,0,1-1.45-1.95,2,2,0,0,1,.15-.78c.22-.43,1-.94.84-.54a1.51,1.51,0,0,0,.11,1.68c.48.54,1.41.4,2.13-.33l.39-.4.1.25a1.51,1.51,0,0,1-1.47,2.19,3,3,0,0,1-.81-.13Z" style="fill: #d2d2d2"/>
    <path id="path12252" d="M582,103.14a3.53,3.53,0,0,1-1.28-.69c-.09-.11,0-.13.66-.19,2.61-.22,3.85-1.23,3.73-3.06a5.19,5.19,0,0,0-.45-1.62c-.23-.57-.55-1.43-.72-1.9a10.33,10.33,0,0,0-1.73-3.15c-1-1.35-1.13-1.66-1-2.33.2-.93.63-1,1.16-.25a4.73,4.73,0,0,0,1.6,1.49,1.36,1.36,0,0,1,.74.74,1.25,1.25,0,0,1,.19.92A1.83,1.83,0,0,0,585,94a34.79,34.79,0,0,0,1.58,3.45,3.38,3.38,0,0,1-.67,4.54,4.2,4.2,0,0,1-3.91,1.15Z" style="fill: #d2d2d2"/>
    <path id="path12228" d="M533.88,104.72c-.23-.18-.24-.21-.19-.76a7.21,7.21,0,0,0,.06-2.45,8.83,8.83,0,0,0-1.07-2.34A11.8,11.8,0,0,1,531,95.1a9.5,9.5,0,0,1,0-3.23,3.58,3.58,0,0,0,.14-.69,7.64,7.64,0,0,1,.5-3.8,8.61,8.61,0,0,1,1.71-2.55,6.76,6.76,0,0,0,1.56-2.45,5.19,5.19,0,0,0,0-2.92c-.17-.55-.17-.7,0-.7a3.47,3.47,0,0,1,.65,1.55,4.75,4.75,0,0,1,.09,1.43A6.33,6.33,0,0,1,534,85.51a6.76,6.76,0,0,0-1.27,2.21,5.26,5.26,0,0,0-.29,1.57s.3-.18.6-.46,1.23-1.05,2.06-1.72,2-1.66,2.51-2.21c1.27-1.27,1.45-1.62,1.58-3,.14-1.58,0-2.86-.71-6.11a12.43,12.43,0,0,1-.32-3l0-1.76-.29.59c-.78,1.6-2.58,3.08-5.49,4.5l-2.49,1.21a5.61,5.61,0,0,0-3.09,3.31,4.21,4.21,0,0,0-.26,2,7.65,7.65,0,0,0,.56,3.11l.16.44-.56-.61c-1.94-2.08-3-4.79-2.72-6.93a7.11,7.11,0,0,1,1.55-3.69,15.24,15.24,0,0,1,2.75-2.44c2.57-2,3.39-3.21,3.85-5.86a5.64,5.64,0,0,1,1.6-3.53,4.66,4.66,0,0,1,3.52-1.23,10.23,10.23,0,0,1,4.4,1c.53.29.56.29-1-.06a10,10,0,0,0-3.39-.21,4.05,4.05,0,0,0-2.83,2,12.91,12.91,0,0,0-.57,1.94,9.78,9.78,0,0,1-1,3,11.11,11.11,0,0,1-3.25,3.57l-1.49,1.11a10.21,10.21,0,0,0-2.27,2.43,8.38,8.38,0,0,0-.58,1.27,4.14,4.14,0,0,0-.24,1.77,5.07,5.07,0,0,0,.14,1.47c.15.44.16.43.31-.61a6.2,6.2,0,0,1,1.73-3.29,9.9,9.9,0,0,1,3.31-2.23c2.76-1.34,3.54-2.23,4.57-5.21a9.91,9.91,0,0,1,1.17-2.67,6.64,6.64,0,0,1,4.58-2.84,14,14,0,0,1,4.27.14,13.64,13.64,0,0,1,2.91.94l.29.18h-.66a7.22,7.22,0,0,0-5,1.9,7.18,7.18,0,0,0-1.21,2.48,8.28,8.28,0,0,0-.19,2.55,18.73,18.73,0,0,0,.33,4,18.94,18.94,0,0,1,.34,3.64,6.4,6.4,0,0,1-.6,3.32c-.76,1.67-2,2.92-4.49,4.38-.62.37-1.39.86-1.71,1.1A10.14,10.14,0,0,0,533,91.33l-.29.48.23.49a4.82,4.82,0,0,0,1.64,1.78c1.19.68,2.54.75,4.89.25A10.39,10.39,0,0,1,542.4,94a8.87,8.87,0,0,1,5.25,1.39,5.65,5.65,0,0,1,2.71,5.36,4.82,4.82,0,0,1-1.1,2.61c-.41.5-1.2,1.1-1.37,1s0-.16.32-.56a4.21,4.21,0,0,0,.69-5.6,7.09,7.09,0,0,0-4-2.65,7,7,0,0,0-2.25-.19,9,9,0,0,0-2.9.33A8.36,8.36,0,0,1,536,96a6.37,6.37,0,0,1-3.3-1.79l-.51-.51v.44a7,7,0,0,0,1.43,3.76,10.74,10.74,0,0,0,1.12,1.19,16.71,16.71,0,0,1,2.59,3.18c.87,1.29,1.06,1.7.93,2s-.35.46-2.3.52c-1.79.05-1.83.05-2.06-.13Z" style="fill: #d2d2d2"/>
    <path id="path12226" d="M586.86,106.74a10.37,10.37,0,0,0,3.11-5.81,30.63,30.63,0,0,0,.14-5.18c-.23-2.38-.68-3.15-1.84-3.15-.46,0-.52,0-.75-.29a4.54,4.54,0,0,1-.54-1c-.4-1-1.46-3.36-2-4.48-.65-1.3-.65-1.29-.28-1.45a1.09,1.09,0,0,1,1,0c.28.15.47.57.61,1.43a3.31,3.31,0,0,0,1.25,2.39,1.71,1.71,0,0,0,1.08.21c1.06,0,1.4.24,1.82,1.27.33.81,2.1,6.18,2.06,6.23A2.19,2.19,0,0,1,592,97a2,2,0,0,0-.49.12,3.49,3.49,0,0,0,.26.84c.17.44.31.83.31.86s-.22.09-.5.12l-.5.06v1.23a5.52,5.52,0,0,1-.61,3,10.22,10.22,0,0,1-4,4.07c-.33.13-.32.11.35-.54Z" style="fill: #d2d2d2"/>
    <path id="path12222" d="M615.92,110.68l-.45-.18.24-.66,17.2-47.21c16.91-46.43,17-46.55,17.17-46.51a3.87,3.87,0,0,1,.57.2l.35.16L633.82,63.68c-12.61,34.63-17.22,47.19-17.32,47.19a3,3,0,0,1-.58-.18Z" style="fill: #d2d2d2"/>
    <g id="text12360">
      <path id="path12567" d="M663,56.23V45.58h2.12l2.52,7.54q.35,1.05.51,1.58.18-.58.57-1.71l2.55-7.41h1.9V56.23h-1.36V47.31l-3.09,8.91h-1.27l-3.08-9.06v9.06Z" style="fill: #d2d2d2"/>
      <path id="path12569" d="M675.07,51a5.77,5.77,0,0,1,1.42-4.15,4.83,4.83,0,0,1,3.67-1.5,5.1,5.1,0,0,1,2.66.7,4.57,4.57,0,0,1,1.8,2,6.79,6.79,0,0,1,0,5.75,4.48,4.48,0,0,1-1.85,1.94,5.31,5.31,0,0,1-2.59.65,5,5,0,0,1-2.69-.73,4.67,4.67,0,0,1-1.79-2,6,6,0,0,1-.61-2.66Zm1.45,0a4.29,4.29,0,0,0,1,3,3.61,3.61,0,0,0,5.21,0,4.51,4.51,0,0,0,1-3.17,5.39,5.39,0,0,0-.44-2.27,3.32,3.32,0,0,0-1.29-1.5,3.45,3.45,0,0,0-1.9-.54,3.61,3.61,0,0,0-2.58,1,4.59,4.59,0,0,0-1.07,3.43Z" style="fill: #d2d2d2"/>
      <path id="path12571" d="M686.58,52.8l1.33-.12a3,3,0,0,0,.44,1.31,2.46,2.46,0,0,0,1.07.83,4.1,4.1,0,0,0,1.63.31,3.92,3.92,0,0,0,1.42-.24,2,2,0,0,0,.92-.65,1.53,1.53,0,0,0,.31-.92,1.37,1.37,0,0,0-.29-.87,2.14,2.14,0,0,0-1-.63,18.38,18.38,0,0,0-1.9-.52,9.77,9.77,0,0,1-2.06-.67,2.92,2.92,0,0,1-1.14-1,2.47,2.47,0,0,1-.37-1.33,2.69,2.69,0,0,1,.46-1.5,2.82,2.82,0,0,1,1.34-1.07,5.07,5.07,0,0,1,2-.36,5.27,5.27,0,0,1,2.08.38,3,3,0,0,1,1.39,1.12,3.22,3.22,0,0,1,.52,1.68l-1.35.1a2.17,2.17,0,0,0-.74-1.53,2.85,2.85,0,0,0-1.85-.52,3,3,0,0,0-1.87.47,1.4,1.4,0,0,0-.58,1.13,1.21,1.21,0,0,0,.41.94,5.63,5.63,0,0,0,2.12.76,13.91,13.91,0,0,1,2.36.68,3.22,3.22,0,0,1,1.37,1.09,2.63,2.63,0,0,1,.44,1.51,2.91,2.91,0,0,1-.49,1.6,3.23,3.23,0,0,1-1.4,1.17,4.88,4.88,0,0,1-2,.41,6.15,6.15,0,0,1-2.43-.42,3.43,3.43,0,0,1-1.53-1.26,3.63,3.63,0,0,1-.58-1.92Z" style="fill: #d2d2d2"/>
      <path id="path12573" d="M704.59,52.49l1.41.36a4.75,4.75,0,0,1-1.6,2.65,4.39,4.39,0,0,1-2.81.91,5.1,5.1,0,0,1-2.8-.7,4.43,4.43,0,0,1-1.64-2,7.28,7.28,0,0,1-.56-2.85,6.28,6.28,0,0,1,.63-2.9A4.36,4.36,0,0,1,699,46a5.28,5.28,0,0,1,2.59-.65,4.36,4.36,0,0,1,2.69.81,4.22,4.22,0,0,1,1.52,2.29l-1.39.33a3.29,3.29,0,0,0-1.07-1.69,2.86,2.86,0,0,0-1.77-.53,3.46,3.46,0,0,0-2.06.59,3.11,3.11,0,0,0-1.15,1.58,6.33,6.33,0,0,0-.33,2,6.58,6.58,0,0,0,.39,2.37,3,3,0,0,0,1.23,1.51,3.45,3.45,0,0,0,1.81.5,3,3,0,0,0,2-.68,3.49,3.49,0,0,0,1.11-2Z" style="fill: #d2d2d2"/>
      <path id="path12575" d="M707.31,51a5.77,5.77,0,0,1,1.42-4.15,4.83,4.83,0,0,1,3.67-1.5,5.1,5.1,0,0,1,2.66.7,4.57,4.57,0,0,1,1.8,2,6.79,6.79,0,0,1,0,5.75A4.48,4.48,0,0,1,715,55.75a5.31,5.31,0,0,1-2.59.65,5,5,0,0,1-2.69-.73,4.67,4.67,0,0,1-1.79-2,6,6,0,0,1-.61-2.66Zm1.45,0a4.29,4.29,0,0,0,1,3,3.61,3.61,0,0,0,5.21,0,4.51,4.51,0,0,0,1-3.17,5.39,5.39,0,0,0-.44-2.27,3.32,3.32,0,0,0-1.29-1.5,3.45,3.45,0,0,0-1.9-.54,3.61,3.61,0,0,0-2.58,1,4.59,4.59,0,0,0-1.07,3.43Z" style="fill: #d2d2d2"/>
      <path id="path12577" d="M721.16,56.23l-2.83-10.65h1.45l1.62,7q.26,1.1.45,2.18.41-1.71.48-2l2-7.19h1.7L727.58,51a28.55,28.55,0,0,1,.83,3.77q.2-1,.53-2.32l1.67-6.84H732L729.1,56.23h-1.36l-2.24-8.11q-.28-1-.33-1.25-.17.73-.31,1.25l-2.26,8.11Z" style="fill: #d2d2d2"/>
      <path id="path12579" d="M661.92,74.82,666,64.17h1.52l4.36,10.65h-1.6L669,71.59h-4.45l-1.17,3.22ZM665,70.44h3.61l-1.11-2.95q-.51-1.34-.76-2.21a13.57,13.57,0,0,1-.57,2Z" style="fill: #d2d2d2"/>
      <path id="path12581" d="M678,70.64V69.39h4.51v4a8,8,0,0,1-2.14,1.25,6.4,6.4,0,0,1-2.27.41,6.09,6.09,0,0,1-2.85-.67,4.47,4.47,0,0,1-1.93-1.95,6.12,6.12,0,0,1-.65-2.84,6.6,6.6,0,0,1,.65-2.9,4.34,4.34,0,0,1,1.87-2A5.86,5.86,0,0,1,678,64a5.49,5.49,0,0,1,2.08.38,3.43,3.43,0,0,1,1.47,1,4.62,4.62,0,0,1,.81,1.74l-1.27.35a3.93,3.93,0,0,0-.6-1.28,2.42,2.42,0,0,0-1-.74,3.69,3.69,0,0,0-1.47-.28,4.27,4.27,0,0,0-1.67.3,3.12,3.12,0,0,0-1.14.77,3.73,3.73,0,0,0-.67,1.05,5.57,5.57,0,0,0-.41,2.14,5.23,5.23,0,0,0,.49,2.38A3.16,3.16,0,0,0,676,73.26a4.42,4.42,0,0,0,2,.46,4.77,4.77,0,0,0,1.79-.35,4.67,4.67,0,0,0,1.32-.76v-2Z" style="fill: #d2d2d2"/>
      <path id="path12583" d="M684.62,74.82V64.17h7.7v1.26H686v3.26h5.89v1.25H686v3.62h6.54v1.26Z" style="fill: #d2d2d2"/>
      <path id="path12585" d="M694.51,74.82V64.17H696l5.59,8.36V64.17h1.35V74.82h-1.45l-5.59-8.37v8.37Z" style="fill: #d2d2d2"/>
      <path id="path12587" d="M712.87,71.08l1.41.36a4.75,4.75,0,0,1-1.6,2.65,4.39,4.39,0,0,1-2.81.91,5.1,5.1,0,0,1-2.8-.7,4.43,4.43,0,0,1-1.64-2,7.28,7.28,0,0,1-.56-2.85,6.28,6.28,0,0,1,.63-2.9,4.36,4.36,0,0,1,1.81-1.88,5.28,5.28,0,0,1,2.59-.65,4.36,4.36,0,0,1,2.69.81,4.22,4.22,0,0,1,1.52,2.29l-1.39.33a3.29,3.29,0,0,0-1.07-1.69,2.86,2.86,0,0,0-1.77-.53,3.46,3.46,0,0,0-2.06.59,3.11,3.11,0,0,0-1.15,1.58,6.33,6.33,0,0,0-.33,2,6.58,6.58,0,0,0,.39,2.37,3,3,0,0,0,1.23,1.51,3.45,3.45,0,0,0,1.81.5,3,3,0,0,0,2-.68,3.49,3.49,0,0,0,1.11-2Z" style="fill: #d2d2d2"/>
      <path id="path12589" d="M719,74.82V70.31l-4.1-6.14h1.71l2.1,3.21q.58.9,1.08,1.8.48-.84,1.16-1.88L723,64.17h1.64l-4.25,6.14v4.51Z" style="fill: #d2d2d2"/>
      <path id="path12591" d="M729.39,69.63a5.77,5.77,0,0,1,1.42-4.15,4.83,4.83,0,0,1,3.67-1.5,5.1,5.1,0,0,1,2.66.7,4.57,4.57,0,0,1,1.8,2,6.79,6.79,0,0,1,0,5.75,4.48,4.48,0,0,1-1.85,1.94,5.31,5.31,0,0,1-2.59.65,5,5,0,0,1-2.69-.73,4.67,4.67,0,0,1-1.79-2A6,6,0,0,1,729.39,69.63Zm1.45,0a4.29,4.29,0,0,0,1,3,3.61,3.61,0,0,0,5.21,0,4.51,4.51,0,0,0,1-3.17,5.39,5.39,0,0,0-.44-2.27,3.32,3.32,0,0,0-1.29-1.5,3.45,3.45,0,0,0-1.9-.54,3.61,3.61,0,0,0-2.58,1,4.59,4.59,0,0,0-1.07,3.43Z" style="fill: #d2d2d2"/>
      <path id="path12593" d="M741.45,74.82V64.17h7.18v1.26h-5.77v3.3h5V70h-5v4.84Z" style="fill: #d2d2d2"/>
      <path id="path12595" d="M663.33,93.41V82.76h1.41V93.41Z" style="fill: #d2d2d2"/>
      <path id="path12597" d="M667.2,93.41V82.76h1.45l5.59,8.36V82.76h1.35V93.41h-1.45L668.55,85v8.37Z" style="fill: #d2d2d2"/>
      <path id="path12599" d="M677.95,93.41V82.76h1.45L685,91.12V82.76h1.35V93.41h-1.45L679.3,85v8.37Z" style="fill: #d2d2d2"/>
      <path id="path12601" d="M688.28,88.22a5.77,5.77,0,0,1,1.42-4.15,4.83,4.83,0,0,1,3.67-1.5,5.1,5.1,0,0,1,2.66.7,4.57,4.57,0,0,1,1.8,2,6.79,6.79,0,0,1,0,5.75A4.48,4.48,0,0,1,696,92.94a5.31,5.31,0,0,1-2.59.65,5,5,0,0,1-2.69-.73,4.67,4.67,0,0,1-1.79-2,6,6,0,0,1-.61-2.66Zm1.45,0a4.29,4.29,0,0,0,1,3,3.61,3.61,0,0,0,5.21,0,4.51,4.51,0,0,0,1-3.17,5.39,5.39,0,0,0-.44-2.27,3.32,3.32,0,0,0-1.29-1.5,3.45,3.45,0,0,0-1.9-.54,3.61,3.61,0,0,0-2.58,1,4.59,4.59,0,0,0-1.07,3.43Z" style="fill: #d2d2d2"/>
      <path id="path12603" d="M703.32,93.41l-4.12-10.65h1.53l2.77,7.73q.33.93.56,1.74.25-.87.57-1.74l2.88-7.73h1.44l-4.17,10.65Z" style="fill: #d2d2d2"/>
      <path id="path12605" d="M707.93,93.41,712,82.76h1.52l4.36,10.65h-1.6l-1.24-3.22H710.6l-1.17,3.22ZM711,89h3.61l-1.11-2.95q-.51-1.34-.76-2.21a13.57,13.57,0,0,1-.57,2Z" style="fill: #d2d2d2"/>
      <path id="path12607" d="M720.64,93.41V84h-3.51V82.76h8.44V84h-3.52v9.39Z" style="fill: #d2d2d2"/>
      <path id="path12609" d="M727.27,93.41V82.76h1.41V93.41Z" style="fill: #d2d2d2"/>
      <path id="path12611" d="M730.72,88.22a5.77,5.77,0,0,1,1.42-4.15,4.83,4.83,0,0,1,3.67-1.5,5.1,5.1,0,0,1,2.66.7,4.57,4.57,0,0,1,1.8,2,6.79,6.79,0,0,1,0,5.75,4.48,4.48,0,0,1-1.85,1.94,5.31,5.31,0,0,1-2.59.65,5,5,0,0,1-2.69-.73,4.67,4.67,0,0,1-1.79-2,6,6,0,0,1-.61-2.66Zm1.45,0a4.29,4.29,0,0,0,1,3,3.61,3.61,0,0,0,5.21,0,4.51,4.51,0,0,0,1-3.17,5.39,5.39,0,0,0-.44-2.27,3.32,3.32,0,0,0-1.29-1.5,3.45,3.45,0,0,0-1.9-.54,3.61,3.61,0,0,0-2.58,1,4.59,4.59,0,0,0-1.07,3.43Z" style="fill: #d2d2d2"/>
      <path id="path12613" d="M742.7,93.41V82.76h1.45l5.59,8.36V82.76h1.35V93.41h-1.45L744.05,85v8.37Z" style="fill: #d2d2d2"/>
      <path id="path12615" d="M753,90l1.33-.12a3,3,0,0,0,.44,1.31,2.46,2.46,0,0,0,1.07.83,4.1,4.1,0,0,0,1.63.31,3.92,3.92,0,0,0,1.42-.24,2,2,0,0,0,.92-.65,1.53,1.53,0,0,0,.31-.92,1.37,1.37,0,0,0-.29-.87,2.14,2.14,0,0,0-1-.63,18.39,18.39,0,0,0-1.9-.52,9.79,9.79,0,0,1-2.06-.67,2.92,2.92,0,0,1-1.14-1,2.47,2.47,0,0,1-.37-1.33,2.69,2.69,0,0,1,.46-1.5,2.82,2.82,0,0,1,1.34-1.07,5.07,5.07,0,0,1,2-.36,5.27,5.27,0,0,1,2.08.38,3,3,0,0,1,1.39,1.12,3.22,3.22,0,0,1,.52,1.68l-1.35.1a2.17,2.17,0,0,0-.74-1.53,2.85,2.85,0,0,0-1.85-.52,3,3,0,0,0-1.87.47,1.4,1.4,0,0,0-.58,1.13,1.21,1.21,0,0,0,.41.94,5.63,5.63,0,0,0,2.12.76,13.9,13.9,0,0,1,2.36.68A3.22,3.22,0,0,1,761,88.89a2.63,2.63,0,0,1,.44,1.51A2.91,2.91,0,0,1,761,92a3.23,3.23,0,0,1-1.4,1.17,4.88,4.88,0,0,1-2,.41,6.15,6.15,0,0,1-2.43-.42,3.43,3.43,0,0,1-1.53-1.26A3.63,3.63,0,0,1,753,90Z" style="fill: #d2d2d2"/>
    </g>
    <g id="text12620">
      <path id="path12622" d="M225,169.89h5.88l7.44,19.84,7.48-19.84h5.88V199h-3.85V173.44l-7.52,20h-4l-7.52-20V199H225Z" style="fill: #d2d2d2"/>
      <path id="path12624" d="M259.58,169.89h3.95V199h-3.95Z" style="fill: #d2d2d2"/>
      <path id="path12626" d="M271.38,169.89h18.44v3.32H275.32v8.63h13.89v3.32H275.32v10.57h14.84V199H271.38Z" style="fill: #d2d2d2"/>
      <path id="path12628" d="M292.65,169.89h24.67v3.32H307V199h-4V173.21H292.65Z" style="fill: #d2d2d2"/>
    </g>
  </g>
  <g>
    <g>
      <path d="M505.92,177c-.5-.5-1-1-1.49-1.51-.33-.36-.6-.75-.9-1.14s-.24-.44.18-.43a.47.47,0,0,0,.18,0,1.23,1.23,0,0,0,.18-.11,1.18,1.18,0,0,0-.14-.11c-1-.53-2-1-3-1.58-.45-.25-.86-.56-1.29-.85a.79.79,0,0,1-.15-.2l.21-.07.58-.14-.57-.22-2.87-1.22c-.1,0-.17-.15-.25-.23l.33-.08.46-.11-.46-.16-1.69-.51a1.4,1.4,0,0,1-.27-.15,1,1,0,0,1,.27-.1,5.18,5.18,0,0,1,3,.33.5.5,0,0,0,.17.06l.3,0a2.58,2.58,0,0,0-.12-.32,1.67,1.67,0,0,0-.17-.23l.3,0a4,4,0,0,1,2.39,1.54,2,2,0,0,0,.34.27,1.89,1.89,0,0,0,.09-.41c0-.33.14-.34.34-.17.39.34.75.7,1.13,1l.2.16c0-.08,0-.16.05-.24s0-.25.06-.37c.1.06.2.12.3.19a7.07,7.07,0,0,1,2.31,2.81,9.21,9.21,0,0,1,.28.9,1,1,0,0,0,.11.18,1.47,1.47,0,0,0,.14-.17c0-.05,0-.11.07-.17l.27-.54c.13.17.27.32.38.5a10.09,10.09,0,0,1,1.18,3.32c.08.34.17.67.27,1a.76.76,0,0,0,.15.21l.17-.19.24-.31a1.73,1.73,0,0,1,.2.37,11.16,11.16,0,0,1,.15,5,3.2,3.2,0,0,0,0,.34l.35-.16c.05,0,.08-.09.13-.13l.17-.13a.75.75,0,0,1,.08.24c0,.54,0,1.09-.08,1.63a10.29,10.29,0,0,1-.95,3.72c-.07.15-.18.28-.26.42l-.12.23a1.08,1.08,0,0,0,.29,0c.14-.06.26-.15.39-.22a.94.94,0,0,1,.2-.05.88.88,0,0,1,0,.22,11.34,11.34,0,0,1-1.37,3.34c-.43.6-.92,1.16-1.34,1.77-.16.23-.62.44-.19.84,0,0,0,.19-.08.29a6.22,6.22,0,0,1-2,2.31,2.53,2.53,0,0,0-.4.52c-.15.22-.27.48-.44.69s-.52.49-.6.92c0,.21-.42.43-.69.53a5.33,5.33,0,0,1-1.24.26c-.23,0-.39,0-.36.32,0,0,0,.07,0,.09-.21.19-.53.35-.61.59s-.09.59-.4.75a1.17,1.17,0,0,1-1,.07c-.18-.07-.3-.13-.38.16s-.4.19-.64.13-.39-.33-.39.13c0,0-.14.13-.21.13a2.06,2.06,0,0,0-1.07.43,8.32,8.32,0,0,1-4.75.91,8.11,8.11,0,0,1-3.77-1.18,2,2,0,0,0-.48-.1c-.12,0-.34-.09-.35-.15-.06-.49-.3-.19-.49-.13s-.53.28-.58-.21c0,0-.2-.08-.3-.07a4.37,4.37,0,0,1-.84.07.67.67,0,0,1-.58-.66c0-.11-.13-.21-.21-.3s-.4-.34-.46-.55-.15-.25-.36-.27a6,6,0,0,1-1.32-.24,1.33,1.33,0,0,1-.7-.76,3.32,3.32,0,0,0-1.07-1.14,8.66,8.66,0,0,1-2.48-2.68c-.09-.15,0-.39-.11-.56a4.21,4.21,0,0,0-.38-.59v0a5.1,5.1,0,0,0-.5-.69,8.77,8.77,0,0,1-2.13-3.9l0-.09-.14-.69c.2.09.4.19.61.27a1.39,1.39,0,0,0,.33,0,1.5,1.5,0,0,1-.19-.25,14.72,14.72,0,0,1-.81-1.76,13.25,13.25,0,0,1-.52-3.9,1.09,1.09,0,0,1,0-.21l.17.11c.07.06.13.14.2.17a1.87,1.87,0,0,0,.34.08,1.52,1.52,0,0,0,0-.33,10.82,10.82,0,0,1,.12-5.21,2.17,2.17,0,0,1,.19-.39c.08.11.15.21.24.32s.14.14.21.21a1.31,1.31,0,0,0,.12-.24c.2-.74.4-1.49.59-2.24a7,7,0,0,1,1.08-2.38c.17-.24.27-.23.38,0a5.06,5.06,0,0,0,.29.55c.07-.19.15-.37.2-.57a6.71,6.71,0,0,1,2.38-3.24l.11-.08.4-.27c0,.15,0,.29,0,.44a1.73,1.73,0,0,0,0,.17,1.14,1.14,0,0,0,.17-.11l1.24-1.17a.92.92,0,0,1,.23-.12c0,.08,0,.16.06.24s.06.31.09.46a4.28,4.28,0,0,0,.36-.31,4.39,4.39,0,0,1,2.34-1.55,2.54,2.54,0,0,1,.43,0h0l-.4.45a2.34,2.34,0,0,0,.58-.12,5.78,5.78,0,0,1,2.9-.33.66.66,0,0,1,.22.1.75.75,0,0,1-.18.13l-2,.66a1.26,1.26,0,0,0-.22.13l.23.07.55.09c-.16.11-.3.24-.47.33a12.25,12.25,0,0,1-3.09,1.29,1.32,1.32,0,0,0-.23.11,1.9,1.9,0,0,0,.25.09l.64.13a4.46,4.46,0,0,1-.54.46q-1.76,1.07-3.54,2.12c-.2.12-.42.2-.63.3l.65.16c.31.06.17.22.06.34q-1.08,1.19-2.17,2.37c-.25.27-.52.51-.77.77s-.2.24.1.26c.09,0,.25.25.23.37a20.58,20.58,0,0,1-.38,2.28c-.17.69-.45,1.35-.68,2-.09.25-.15.45.24.28s.3.05.29.24c-.06.75-.11,1.5-.21,2.25s-.22,1.22-.32,1.83c0,.07.06.15.09.23l.12-.18.15-.19a1,1,0,0,1,.11.19,8.13,8.13,0,0,0,1.6,2.51.13.13,0,1,0,.24-.07c0-.21,0-.42,0-.64,0-1,0-2.09,0-3.14a9.34,9.34,0,0,1,.15-1.21s.05-.08.08-.13a.53.53,0,0,1,.07.11c0,.06,0,.12,0,.18s.1.28.15.43a4.54,4.54,0,0,0,.08-.46c.05-.81.09-1.63.14-2.44a.8.8,0,0,1,.07-.2.85.85,0,0,1,.14.2c.05.15.08.31.12.47,0-.17.06-.33.09-.5.06-.36.11-.73.19-1.08,0-.06.18-.13.27-.12a.3.3,0,0,1,.23.16c.09.47.16,1,.24,1.43,0,0,.06.08.08.12l.07-.11a.3.3,0,0,0,0-.09l.08-.47a3,3,0,0,1,.12.5c.06.8.11,1.6.17,2.4a1.11,1.11,0,0,0,.06.21,1.38,1.38,0,0,0,.13-.21.91.91,0,0,0,0-.18c0-.07,0-.13,0-.2a2.06,2.06,0,0,1,.09.2c.06.15.11.31.16.47a2.32,2.32,0,0,1,.2-.46c0-.07,0-.42.24-.18a.59.59,0,0,0,.08-.14c.07-.28.13-.56.2-.83a.22.22,0,0,1,.13-.14.2.2,0,0,1,.17.09c.07.28.12.57.17.86s0,.35.17.05c0,0,.11.08.12.13a9.87,9.87,0,0,1,.18,1.11c0,.26.11.34.36.34l2.54,0c.24,0,.29-.12.33-.33a5.92,5.92,0,0,1,.26-.84c.07-.2.18-.14.23,0a4.34,4.34,0,0,1,.25.85c0,.28.17.35.42.35s.31-.18.31-.39q0-1.86,0-3.73c0-.35,0-.7,0-1.05,0-.06.06-.12.1-.19l0,.17a2.48,2.48,0,0,0,.08.3s.12,0,.12,0c.17-.51.75-.85.61-1.5,0-.1.14-.24.22-.37a1.67,1.67,0,0,1,.21.38c0,.17,0,.36.06.54s.11.13.16.19a.8.8,0,0,0,.07-.23c0-.79,0-1.58,0-2.36,0-.49.09-1,.14-1.48a.83.83,0,0,1,.05-.17,1.65,1.65,0,0,1,.07.18c0,.08,0,.17.05.25a.87.87,0,0,0,.11-.24c.08-.53.13-1.07.21-1.6,0-.26-.11-.62.34-.7.06,0,.09-.24.1-.37s-.09-.24-.05-.3a2,2,0,0,0,.29-1.25c0-.47.17-.93.22-1.41a13.17,13.17,0,0,0,0-1.41,2.23,2.23,0,0,0-.1-.47h0v-.2h0l0-.12h0l.35,0h0l.1.2h0a1.6,1.6,0,0,0-.16.54c.07,1,.18,1.91.27,2.87,0,.09,0,.18,0,.27.09.52.18,1,.28,1.56,0,0,0,.07,0,.07.59,0,.3.42.34.65.11.57.15,1.16.23,1.74a.55.55,0,0,0,.09.17,1.21,1.21,0,0,0,.08-.19c0-.06,0-.12,0-.18a1.26,1.26,0,0,1,.06-.18.7.7,0,0,1,.07.16,8.87,8.87,0,0,1,.14,1.07c0,.94,0,1.88,0,2.82a.87.87,0,0,0,.07.23,1.07,1.07,0,0,0,.11-.23,3.72,3.72,0,0,1,.09-.49,1.46,1.46,0,0,1,.25-.33,1.62,1.62,0,0,1,.19.34c.07.26.11.53.17.8a.78.78,0,0,0,.09.26c.09.14.19.26.29.38,0-.15.08-.31.12-.46a.52.52,0,0,1,.06-.11s.08.07.09.12a4.84,4.84,0,0,1,.09,1.23c0,1.23,0,2.45,0,3.68,0,.25,0,.44.35.43s.38-.15.41-.44a4.25,4.25,0,0,1,.29-.92s.17,0,.18,0a4.18,4.18,0,0,1,.29.91c0,.29.09.43.42.42.8,0,1.61,0,2.41,0,.25,0,.32-.08.35-.33a3.52,3.52,0,0,1,.25-1.23,5.24,5.24,0,0,0,.42-1.09.48.48,0,0,1,.3,0c.09.22.13.45.2.67s-.14.41.19.18a2,2,0,0,0,.1.31,3.74,3.74,0,0,0,.22.35l.13-.36.08-.24.08.22.11.32a1.53,1.53,0,0,0,.11-.34c.06-.8.1-1.6.15-2.4a.11.11,0,1,1,.13,0c0,.07,0,.15,0,.22a1.71,1.71,0,0,0,.08.19.9.9,0,0,0,.08-.21,5.21,5.21,0,0,1,0-.54,4,4,0,0,1,.18-.39,1.31,1.31,0,0,0,.07-.37c0-.16,0-.28.23-.28s.28.06.26.28.1.25.14.38a4.12,4.12,0,0,1,.1.52c0,.19,0,.39.05.58.05-.17.1-.35.16-.52s.07-.08.11-.12a.74.74,0,0,1,.06.16q.1,1,.2,2c0,.15,0,.3,0,.45a2.9,2.9,0,0,0,.1.38l.15-.38s0-.06,0-.09l.12-.28a1,1,0,0,1,.12.28c.06.53.13,1.06.14,1.6,0,.94,0,1.88,0,2.82a2.38,2.38,0,0,0,.06.39,2.07,2.07,0,0,0,.32-.28,7.42,7.42,0,0,0,1.36-2.19c0-.09.08-.35.23-.06a1,1,0,0,0,.17.18c0-.09.09-.2.08-.28-.11-.63-.26-1.24-.35-1.87s-.16-1.29-.22-1.93c0-.25,0-.44.38-.36s.2-.17.16-.32c-.32-1-.65-2.08-1-3.12a5,5,0,0,1-.13-1c0-.2,0-.45.29-.45,0,0,.07-.16,0-.18s-.3-.29-.45-.43Zm-7,20.46c.23,0,.56-.19.69-.09.52.4.85,0,1.2-.24.15-.09.18-.38.26-.58a4.4,4.4,0,0,1,.15-.48c.09-.17.25-.31.32-.49s.07-.45-.2-.45-.3-.21-.29-.42a.58.58,0,0,0-.47-.63,1.25,1.25,0,0,0-1.07.44c-.05.08-.19.17-.25.15-.34-.12-.49.09-.58.34a5.25,5.25,0,0,0-.19.79c0,.17-.05.26-.28.21-.47-.1-.61,0-.83.49a5.61,5.61,0,0,1-.46.65,10.19,10.19,0,0,0-.67,1.06c-.1.19,0,.44.28.27a3.5,3.5,0,0,0,.72-.51,10.42,10.42,0,0,0,.7-.79h0c-.08.19-.17.37-.24.57a.79.79,0,0,0,0,.24c.07,0,.16,0,.21,0a4.49,4.49,0,0,0,.9-.74c.42-.56.76-1.18,1.14-1.78a1.68,1.68,0,0,1,.13-.16c0,.07.06.15,0,.2-.2.45-.4.9-.64,1.33a4.64,4.64,0,0,1-.54.65l-.06,0,0,0Zm-6.62,6.46a21.4,21.4,0,0,0,2.11-.37,14.17,14.17,0,0,0,1.8-.72c.21-.09.25-.21.14-.46a7.63,7.63,0,0,1-.51-1.58,6.69,6.69,0,0,1,.32-3.39,1.83,1.83,0,0,0,.05-.29l-.29.08c-.67.19-1.33.42-2,.55a8.25,8.25,0,0,1-5.58-.43.54.54,0,0,0-.17,0,.74.74,0,0,0,0,.2,7.57,7.57,0,0,1,.36,1,5.65,5.65,0,0,1-.4,3.93c-.18.34-.08.47.22.62A10.92,10.92,0,0,0,492.3,203.95Zm-4-9.27c-.2,0-.39,0-.59,0l-.66.06a2.15,2.15,0,0,1,.21.53c0,.38.28.5.6.56s.79.21,1.19.28a20.11,20.11,0,0,0,5.44,0c.65-.06,1.29-.42,1.94-.42s.67-.37.86-.73l.17-.36a3.53,3.53,0,0,0-.43,0c-.62,0-1.24.07-1.86,0a2.18,2.18,0,0,1-.89-.25,1.46,1.46,0,0,0-.93-.27c-.09,0-.28-.13-.27-.18.08-.51-.24-.47-.58-.47s-.63,0-.95-.07c-.11,0-.25,0-.31,0a2.77,2.77,0,0,0-.36.41,1.57,1.57,0,0,0,.38.13c.29,0,.58,0,.86,0,.06,0,.12.07.18.1s-.13.11-.19.11c-.39,0-.79,0-1.18,0a1.37,1.37,0,0,0-.66.1A3,3,0,0,1,488.25,194.68Zm-4.08-.54a.74.74,0,0,0-.84.8c0,.11-.11.29-.18.3-.38,0-.35.24-.26.51s.69.63.4,1.16c.28.22.55.45.84.65a.43.43,0,0,0,.6-.09c.08-.08.28,0,.43,0h.25a1.82,1.82,0,0,0-.14-.23,5.32,5.32,0,0,1-.54-.67,7.4,7.4,0,0,1-.44-1c0-.06,0-.16.06-.24a.93.93,0,0,1,.13.19,4.61,4.61,0,0,0,1.94,2.44,1.26,1.26,0,0,0,.33.1,2.56,2.56,0,0,0-.08-.32c0-.13-.12-.24-.17-.37s0-.1,0-.15a.42.42,0,0,1,.11.08,6.21,6.21,0,0,0,.54.73,2.79,2.79,0,0,0,.72.51c.23.12.38,0,.27-.26a10.61,10.61,0,0,0-.65-1.08,8.13,8.13,0,0,1-.48-.67c-.14-.26-.3-.54-.6-.44-.5.18-.49-.07-.52-.43a2.55,2.55,0,0,0-.24-.72c0-.07-.15-.18-.18-.17-.42.18-.57-.19-.83-.36A2.79,2.79,0,0,0,484.18,194.14Zm-7-.31c.11.3.22.6.35.89.3.66.94.62,1.51.69,0,0,.18-.17.17-.24a4.86,4.86,0,0,1,.49-3,.71.71,0,0,0,0-.54c-.23-.53-.5-1.05-.76-1.58l-.13-.23a1.12,1.12,0,0,0-.23.19A8.05,8.05,0,0,0,477.18,193.83Zm29.63-.61a6.92,6.92,0,0,0-1.3-3.57c-.15-.23-.25-.21-.35.05a8.38,8.38,0,0,1-.63,1.45.8.8,0,0,0,0,.91,4.12,4.12,0,0,1,.49,2.27c-.06.7-.06.7.59.59C506.37,194.79,506.8,194.29,506.81,193.22Zm-10,7.05,0-.09,2.1.5c.08,0,.15.12.22.18l-.24-.07c-.37-.14-.48-.06-.47.34a1,1,0,0,0,1,1c.39,0,.55-.11.59-.5a.89.89,0,0,1,.16-.43c.27-.35.23-.56-.16-.79-.09-.05-.24-.17-.22-.23.09-.54-.21-.66-.65-.68-.19,0-.36,0-.26-.32,0-.09-.16-.38-.23-.38a2.43,2.43,0,0,0-1,.22c-.18.1-.23.24-.41,0,0-.06-.28,0-.37,0a9.05,9.05,0,0,0-.9.76.35.35,0,0,0,0,.32.39.39,0,0,0,.29.15A4.46,4.46,0,0,0,496.83,200.27Zm-9.24,0a2.11,2.11,0,0,0,.45,0,2,2,0,0,0,.42-.15,1.81,1.81,0,0,0-.22-.49,2.43,2.43,0,0,0-.55-.45c-.21-.13-.46-.38-.66,0a.37.37,0,0,1-.19-.08.92.92,0,0,0-1-.33c-.23,0-.45.17-.31.47s0,.25-.18.28-.55.07-.57.18c-.11.45-.53.77-.62,1.13s.25.85.43,1.27c0,.07.22.09.33.09a1,1,0,0,0,1-1.11c0-.29,0-.51-.4-.29a.7.7,0,0,1-.2,0c.05-.05.09-.12.15-.15A4.7,4.7,0,0,1,487.59,200.26Zm-4.52-2.1,0,.08a5.06,5.06,0,0,0,.65-.13c.07,0,.11-.16.16-.25l-.23,0c-.34,0-.65-.06-.63-.52,0,0-.13-.15-.17-.14s-.41.06-.48.18-.34.25-.57.23a.67.67,0,0,0-.74.48.7.7,0,0,0,.25.88c.1.08.22.24.2.33a.7.7,0,0,0,.55.86,6.45,6.45,0,0,0,.88.19c.29.05.5,0,.53-.37a.53.53,0,0,1,.52-.54c.42,0,.59-.22.76-.55s.06-.32-.16-.35l-1.54-.13-.63-.08Zm18.34,0v0l.6.06c-.2,0-.4.1-.6.12-.54.06-1.08.1-1.62.17-.08,0-.2.18-.2.19.2.27.27.68.76.65a.51.51,0,0,1,.59.46c0,.54.33.49.68.4s.58-.15.87-.24a.6.6,0,0,0,.45-.7.5.5,0,0,1,.24-.52.64.64,0,0,0,.24-.77.73.73,0,0,0-.73-.51c-.28,0-.49,0-.69-.25s-.61-.15-.62.09c0,.42-.27.5-.61.5a1,1,0,0,0-.2,0c0,.07.08.19.14.21C500.93,198.06,501.17,198.09,501.4,198.13Zm-20.58-3.73a.78.78,0,0,0-.73,1c.06.19.1.3-.09.46a.53.53,0,0,0,0,.84c.13.13.2.23.11.42s0,.43.24.55a.43.43,0,0,0,.59-.13,2.05,2.05,0,0,1,.68-.56c.22-.1.24-.14.11-.33-.25-.36-.48-.74-.71-1.11a.69.69,0,0,1-.05-.2,1.19,1.19,0,0,1,.16.13c.35.39.69.8,1.05,1.18a1.14,1.14,0,0,0,.33.17c0-.16.12-.41.05-.46-.49-.38-.38-.87-.32-1.37,0-.24-.34-.55-.45-.42-.33.36-.49.12-.72-.09C481,194.42,480.87,194.42,480.82,194.4Zm23.48.67a.73.73,0,0,0-.51-.81.49.49,0,0,0-.67.29c-.09.16-.17.26-.29,0a.25.25,0,0,0-.45,0,.88.88,0,0,0-.2.46c-.06.42.2.92-.33,1.23,0,0,0,.27,0,.41.1,0,.24,0,.3-.08.34-.34.66-.71,1-1.06l.21-.23a1.13,1.13,0,0,1-.08.28c-.21.35-.43.69-.66,1s-.11.26.12.28c.4,0,.74.15.82.63,0,0,.1.11.16.11a.54.54,0,0,0,.55-.65.44.44,0,0,1,.07-.43c.11-.2.22-.57.11-.7A.69.69,0,0,1,504.3,195.07Zm-11-4.49h.59c.2,0,.4,0,.39-.29s-.23-.26-.41-.26h-.72c-.15,0-.29,0-.44,0l.18-.39c0-.11.09-.21.13-.32a1.93,1.93,0,0,1-.34,0,2.82,2.82,0,0,0-1.43,0,.9.9,0,0,1-.27,0,1.57,1.57,0,0,0,.08.3,1,1,0,0,0,.17.21c.14.15.11.23-.1.23s-.7,0-1,0a.33.33,0,0,0-.22.23c0,.33.17.36.43.35a4.47,4.47,0,0,1,1,0c.42.07.63-.06.72-.46a1,1,0,0,1,.11-.21.87.87,0,0,1,.14.21.55.55,0,0,0,.73.44A1.47,1.47,0,0,1,493.26,190.58Zm1.1-4.19q0,1.64,0,3.27c0,.94,0,.94.94.9a2.29,2.29,0,0,0,.38-.08,2,2,0,0,0-.39-.1c-.54,0-.54,0-.54-.54q0-3.52,0-7a2.14,2.14,0,0,0,0-.36.73.73,0,0,0-.12-.21c-.08.05-.2.09-.23.17a1,1,0,0,0,0,.36Q494.36,184.57,494.36,186.39Zm-4.73,0h0c0-1.23,0-2.45,0-3.68a1.86,1.86,0,0,0-.13-.47,1.53,1.53,0,0,0-.18.48c0,2.27,0,4.54-.07,6.81,0,.89.12.77-.76.81h-.23a.54.54,0,0,0-.14.07s.09.09.13.09h1c.29,0,.38-.12.38-.41C489.63,188.91,489.64,187.67,489.64,186.43Zm18.78.51c0,.24,0,.45.05.66a2.53,2.53,0,0,0,.14.41,1.73,1.73,0,0,0,.27-.32,8.75,8.75,0,0,0,.76-3.2c0-.23,0-.46,0-.69a3.46,3.46,0,0,0-.56.56A5.42,5.42,0,0,0,508.42,186.94Zm-32.82.41a4.51,4.51,0,0,0-1-2.92,1.09,1.09,0,0,0-.22-.14.78.78,0,0,0,0,.24c.12.79.21,1.59.38,2.38a9.59,9.59,0,0,0,.51,1.4c0,.08.11.13.17.19s.15-.16.16-.24C475.55,188,475.57,187.66,475.6,187.34Zm1.92-12.28c-.08-.3-.15-.6-.25-.9,0-.07-.11-.12-.17-.18a1.8,1.8,0,0,0-.11.22l-.59,1.75c-.21.61-.42,1.22-.63,1.84a.75.75,0,0,0,0,.26.7.7,0,0,0,.23-.1A4.38,4.38,0,0,0,477.52,175.06Zm-1.15,6c0,.44.06.87.1,1.31,0,.07.08.14.12.21a.75.75,0,0,0,.14-.17,8.08,8.08,0,0,0,.74-3.51,1.56,1.56,0,0,0-.11-.37,2.24,2.24,0,0,0-.31.24A3.22,3.22,0,0,0,476.36,181Zm31.29-.37a3.05,3.05,0,0,0-.77-2.39,1.61,1.61,0,0,0-.21-.15.87.87,0,0,0-.11.27,7.35,7.35,0,0,0,.73,3.56.77.77,0,0,0,.14.16.72.72,0,0,0,.11-.22C507.59,181.48,507.62,181.08,507.65,180.67Zm-.71-7.17c-.08.1-.16.15-.17.21a4.29,4.29,0,0,0-.2.88,3.51,3.51,0,0,0,1.2,2.74,4.83,4.83,0,0,0,.45.35,3,3,0,0,0-.07-.59c-.37-1.13-.75-2.26-1.14-3.39Zm-7,16.38h0c0-.82,0-1.63,0-2.45,0-.13-.09-.36-.17-.38-.25,0-.26.17-.26.37,0,1.65,0,3.29,0,4.94,0,.13.12.25.18.38.07-.12.19-.25.2-.37C500,191.55,499.94,190.71,499.94,189.88Zm7.21,2.24.11.38c.11-.09.26-.16.33-.27.47-.84.92-1.69,1.38-2.53a.43.43,0,0,0,0-.17.64.64,0,0,0-.21,0,1.79,1.79,0,0,0-1.43,1.4C507.28,191.31,507.22,191.7,507.15,192.12Zm-17.24.08a6.59,6.59,0,0,0,0-.77c0-.09-.14-.24-.22-.24-.44,0-.87,0-1.31,0-.21,0-.3.08-.29.29,0,.41,0,.82,0,1.23a1.38,1.38,0,0,0,.08.32,1.34,1.34,0,0,0,.14-.34c0-.33,0-.66.08-1,0,0,.14-.08.22-.12.14.29.28.57.4.87a2.24,2.24,0,0,1,0,.41,2.46,2.46,0,0,0,.11.36,1.18,1.18,0,0,0,.13-.34c0-.35,0-.7,0-1a1.1,1.1,0,0,1,0-.18.59.59,0,0,1,.08.18c0,.33,0,.66.05,1s0,.44.29.38c.08,0,.16-.23.18-.37A4.45,4.45,0,0,0,489.91,192.2Zm-13,.08h0c0-.15,0-.3,0-.45a1.86,1.86,0,0,0-1.55-1.82,1.16,1.16,0,0,0-.26,0c0,.05,0,.12,0,.16.43.77.86,1.55,1.32,2.31a2.54,2.54,0,0,0,.43.44Zm3.57-21a1.28,1.28,0,0,0,0-.25c0-.13-.07-.25-.11-.38a1.77,1.77,0,0,0-.3.23c-.3.34-.6.68-.87,1s-.58.84-.85,1.27c0,.06,0,.17,0,.25s.18,0,.25,0c.47-.32,1-.63,1.4-1A1.34,1.34,0,0,0,480.46,171.32Zm23.28-.93a1.54,1.54,0,0,0-.11.31,1.62,1.62,0,0,0,.59,1.62q.55.4,1.12.77a1.6,1.6,0,0,0,.37.13c0-.14,0-.31-.08-.41-.57-.76-1.15-1.51-1.73-2.27A1.45,1.45,0,0,0,503.74,170.39Zm5.45,11.18c-.06-1.07-.12-2.07-.19-3.06a.88.88,0,0,0-.08-.22c0,.07-.12.14-.13.22a16,16,0,0,0-.29,2.32,7,7,0,0,0,.4,1.7c0,.09.14.16.22.24a1.44,1.44,0,0,0,.07-.29C509.2,182.15,509.19,181.82,509.19,181.57Zm-34.32,0h0c0,.45,0,.91,0,1.36a1.1,1.1,0,0,0,.06.25.91.91,0,0,0,.19-.21,5.41,5.41,0,0,0,.1-4.08.13.13,0,1,0-.19,0C474.95,179.86,474.91,180.73,474.87,181.61Zm9.5,8.35h0c0-.17,0-.33,0-.5,0-.68,0-1.36,0-2,0-.09-.1-.17-.16-.26a1,1,0,0,0-.15.24,1.41,1.41,0,0,0,0,.36c0,1.57,0,3.14,0,4.71,0,.12.1.23.16.35.07-.12.19-.25.2-.37C484.38,191.62,484.37,190.79,484.37,190Zm6-3.81c0-1.07,0-2.15,0-3.22a3.28,3.28,0,0,0,0-.49s-.07-.08-.11-.12a.51.51,0,0,0,0,.12c0,.11,0,.21,0,.32q0,3.34,0,6.67a1.23,1.23,0,0,0,0,.27s.06.08.1.12.09-.08.1-.13a1.86,1.86,0,0,0,0-.32Q490.37,187.76,490.37,186.15Zm-7.54-14.87a2.34,2.34,0,0,0-2,1.71.58.58,0,0,0,0,.13.47.47,0,0,0,.15,0c.67-.38,1.34-.76,2-1.16a3.27,3.27,0,0,0,.48-.45Zm18.72-.21,0,.07-.68.08a.75.75,0,0,0-.2.1c0,.07.07.17.14.21l2.29,1.28s.08,0,.12,0,0-.15,0-.21a6.92,6.92,0,0,0-.76-1.07A3.3,3.3,0,0,0,501.54,171.07ZM477,183.5l0-.18a1.15,1.15,0,0,0-.26.13c-.87.78-.63,2.3-.21,3.09,0,0,.09.06.14.08a1.06,1.06,0,0,0,.06-.21C476.85,185.47,476.95,184.53,477,183.5Zm30.86,1.07a2.4,2.4,0,0,0-.66-1.58.79.79,0,0,0-.22-.11.74.74,0,0,0,0,.21q.13,1.44.28,2.88a.69.69,0,0,0,.08.19c.06-.05.15-.1.17-.16C507.66,185.53,507.78,185,507.91,184.57Zm-20.64,5.57h0c0,.91,0,1.81,0,2.72a.18.18,0,1,0,.23,0q0-2.72,0-5.44a1.07,1.07,0,0,0-.11-.32,1,1,0,0,0-.13.33C487.27,188.32,487.27,189.23,487.27,190.14Zm9.37-.16h0c0-.83,0-1.66,0-2.5a.23.23,0,1,0-.23,0c0,1.39,0,2.78,0,4.17,0,.3,0,.61,0,.91a1.39,1.39,0,0,0,.15.37,1.53,1.53,0,0,0,.09-.36C496.64,191.7,496.64,190.84,496.64,190Zm-16.48-1.18h0c0-.7,0-1.39,0-2.09a.8.8,0,0,0-.11-.27,1.64,1.64,0,0,0-.12.27,1.48,1.48,0,0,0,0,.27c-.05,1.06-.11,2.11-.15,3.17a2.63,2.63,0,0,0,.07.67c0,.1.14.18.21.27a.92.92,0,0,0,.12-.3C480.16,190.13,480.16,189.46,480.16,188.8Zm21.65.17h-.06c0,.71,0,1.42,0,2.13a3.75,3.75,0,0,0,.1.59,3,3,0,0,0,.13-.6c0-1.41,0-2.81,0-4.22a2.48,2.48,0,0,0,0-.41.69.69,0,0,0-.1-.19.8.8,0,0,0-.05.2C501.8,187.3,501.8,188.13,501.8,189Zm-19.8,0h0c0,.73,0,1.45,0,2.18a2.28,2.28,0,0,0,.14.53,2.81,2.81,0,0,0,.11-.54c0-1,0-2,0-3,0-.48,0-1,0-1.45,0-.08-.09-.16-.13-.23a.89.89,0,0,0-.07.24C482,187.39,482,188.16,482,188.93Zm11.92-2.86h0c0-1.07,0-2.15,0-3.22a1.82,1.82,0,0,0-.07-.36l-.08.38a.49.49,0,0,0,0,.09q0,3.27,0,6.54a.67.67,0,0,0,0,.18s.06.08.09.12.07-.06.08-.1a4,4,0,0,0,0-.45Q493.93,187.66,493.93,186.07Zm1.84,6h0c0-.21,0-.42,0-.63s0-.34-.26-.33l-1,.09s0,.06,0,.09c0,.48,0,1,0,1.45,0,.06.07.11.11.16s.07-.14.06-.2a1.29,1.29,0,0,1,.49-1.23c.14-.12.19-.14.23,0s0,.51.1.75.13.45.2.67c0-.22.06-.44.09-.66A1.42,1.42,0,0,0,495.77,192.12ZM479.9,174.47a1.54,1.54,0,0,0-.35,0c-.89.34-1,1.18-1.32,1.95,0,0,0,.08,0,.12a.54.54,0,0,0,.15-.08,11.92,11.92,0,0,0,.93-1A7.58,7.58,0,0,0,479.9,174.47Zm24,14h0c0,.68,0,1.36,0,2a1.34,1.34,0,0,0,.06.29c.05-.1.15-.19.16-.29q0-2.06.06-4.12c0-.09-.11-.18-.16-.27a.89.89,0,0,0-.1.27C503.89,187.09,503.89,187.78,503.89,188.48Zm2-12.27a7.51,7.51,0,0,0-.52-1.21,3.73,3.73,0,0,0-.77-.72c-.05,0-.16,0-.24,0a1,1,0,0,0,0,.22,3.84,3.84,0,0,0,1.35,1.77S505.76,176.21,505.85,176.2ZM478.29,190a2.24,2.24,0,0,0-.67-1.6c-.1-.12-.23-.23-.34-.35a3.2,3.2,0,0,0-.07.57,1.12,1.12,0,0,0,.13.51,9.43,9.43,0,0,0,.63.87.8.8,0,0,0,.24.14Zm27.5-.67a.72.72,0,0,0,0,.14c0,.1,0,.19.07.29a2.7,2.7,0,0,0,.21-.2l.4-.49a1.56,1.56,0,0,0,.35-1.23s-.19-.12-.19-.11C506.26,188.2,505.76,188.62,505.8,189.33Zm-7.5-20.2a.91.91,0,0,0-.2,0,2.25,2.25,0,0,0-.27.12c.06.08.1.19.19.23.49.26,1,.51,1.48.76a.11.11,0,1,0,.2-.11A1.71,1.71,0,0,0,498.3,169.12Zm-12,.22-.19-.08a1.69,1.69,0,0,0-1.77,1.08s.1.09.12.08l1.66-.9C486.22,169.49,486.26,169.42,486.33,169.34Zm-8.16,26.32-.2,0a.9.9,0,0,0,.09.24c.23.3.46.6.71.88a1.19,1.19,0,0,0,.32.19c.06-.13.16-.26.16-.39A1.06,1.06,0,0,0,478.17,195.66Zm2.58-12.53a.54.54,0,0,0-.56.56.51.51,0,0,0,.52.55.53.53,0,0,0,.59-.58A.51.51,0,0,0,480.74,183.13ZM505,196.36a1,1,0,0,0,.15.22s.15,0,.19-.05c.31-.35.61-.7.9-1.06,0,0-.06-.2-.1-.21A1.08,1.08,0,0,0,505,196.36Zm-1.17-12.69a.56.56,0,0,0-.55-.55.55.55,0,1,0,0,1.1A.56.56,0,0,0,503.82,183.67Zm4.41-3.7h0c0-.41,0-.81,0-1.22a.56.56,0,0,0,0-.15s-.07.05-.09.09a4,4,0,0,0,0,2.82s.08.07.12.11a.53.53,0,0,0,0-.15C508.3,181,508.26,180.47,508.23,180Zm-32,9.42-.1,0a1.32,1.32,0,0,0,.09.19l1,1.35c.07.09.12.19.18.29a3.2,3.2,0,0,0,.19-.33.5.5,0,0,0,0-.26A2.44,2.44,0,0,0,476.26,189.4ZM482.37,170l-.11-.28a2.35,2.35,0,0,0-.26.23c-.2.23-.39.46-.57.7a3.45,3.45,0,0,0-.32.49s.1.17.14.17A1.55,1.55,0,0,0,482.37,170Zm-6.61,10.49h0c0,.36,0,.73,0,1.09,0,.13,0,.26,0,.39l.16-.38a1.28,1.28,0,0,0,.08-.21,3.85,3.85,0,0,0-.16-2.36.67.67,0,0,0-.14-.15c0,.06,0,.11,0,.17ZM501.66,170a1.58,1.58,0,0,0,.24.46,10.44,10.44,0,0,0,.88.7.62.62,0,0,0,.21.06c0-.08,0-.18,0-.24q-.43-.58-.88-1.15a1.24,1.24,0,0,0-.27-.19Zm4.7,20.33.29.48.23-.35.88-1.28a1.32,1.32,0,0,0,.1-.21c-.07,0-.16,0-.21,0a7.25,7.25,0,0,0-.84.67A4.21,4.21,0,0,0,506.37,190.31ZM483.63,170a2.28,2.28,0,0,0,.48-.33,7.29,7.29,0,0,0,.55-.77,1.32,1.32,0,0,0,.08-.15c-.07,0-.16,0-.2,0a11.91,11.91,0,0,0-1.21,1C483.11,170,483.4,170,483.63,170Zm16.9-.13c.12-.05.25-.07.29-.14s0-.19-.11-.26a5,5,0,0,0-.67-.6,3.5,3.5,0,0,0-.64-.28c.11.2.2.41.33.6a2.65,2.65,0,0,0,.41.48A1.75,1.75,0,0,0,500.54,169.9Zm-8.19,15.76q0-1.45,0-2.91c0-.06,0-.12,0-.18a1,1,0,0,0,0,.18q0,2.91,0,5.81c0,.06,0,.12,0,.18a1,1,0,0,0,0-.18Q492.35,187.11,492.34,185.66Zm15.39.72.09,0a1.55,1.55,0,0,0,0,.27,1.24,1.24,0,0,0,.09.23,1.28,1.28,0,0,0,.1-.22c.15-.61.31-1.23.45-1.84a2.17,2.17,0,0,0,0-.37c-.09.1-.22.18-.26.29C508.05,185.29,507.9,185.84,507.74,186.38Zm-29.52-10.8c0-.14,0-.27,0-.41a.37.37,0,0,0-.06-.11s-.1.07-.1.12a5.25,5.25,0,0,1-.79,2,.73.73,0,0,0,0,.25c.07,0,.15,0,.19-.09A3.07,3.07,0,0,0,478.22,175.57Zm24.2,18.4c.14-.13.23-.2.31-.29.36-.42.73-.85,1.08-1.28a1.19,1.19,0,0,0,.13-.3c-.13,0-.34,0-.39,0-.4.53-.76,1.09-1.13,1.64C502.39,193.8,502.41,193.86,502.42,194Zm-20.93-.16c-.3-.5-.62-1-1-1.57a.26.26,0,0,0-.19-.11,1.08,1.08,0,0,0-.28.08,1,1,0,0,0,.11.25c.23.29.48.57.7.87s.27.4.41.59c0,0,.1.06.15.08Zm-5.28-6.9a3.15,3.15,0,0,0-.53-1.8,1.79,1.79,0,0,0-.18-.18,1,1,0,0,0,0,.28c.15.58.31,1.16.48,1.74,0,.15.1.3.15.45Zm29.59-11.62a2.46,2.46,0,0,0,.71,1.59c0,.07.17.08.26.11a2.42,2.42,0,0,0-.07-.24c-.21-.5-.42-1-.62-1.5a5.46,5.46,0,0,1-.16-.57Zm-14.27,10.41c0-1,0-1.9,0-2.86a1.36,1.36,0,0,0,0-.24,1.51,1.51,0,0,0,0,.22q0,2.83,0,5.67a1.5,1.5,0,0,0,0,.22,1.38,1.38,0,0,0,0-.24C491.54,187.55,491.54,186.63,491.54,185.71Zm2.43,5.23v0h1.31a.91.91,0,0,0,.19,0c-.05,0-.1-.07-.16-.07l-2.72,0s-.08,0-.12.05.08.06.13.06Zm-2.77,1h0c0-.14,0-.27,0-.41a.66.66,0,0,0,0-.14.55.55,0,0,0,0,.12c0,.28-.08.57-.08.86,0,1.06-.1.8.82.84a1.52,1.52,0,0,0,.37-.08l-.31-.11s-.08-.08-.12-.1a.62.62,0,0,0-.27-.09.8.8,0,0,0-.26.12,1.52,1.52,0,0,1-.09-.37A5.89,5.89,0,0,1,491.2,191.89Zm-10.39-19.81V172s-.08,0-.1,0l-.94,1.27s0,.08,0,.12a.4.4,0,0,0,.12,0A1.89,1.89,0,0,0,480.81,172.08Zm22.53,21.7.15-.1c.25-.26.51-.52.75-.78a.87.87,0,0,0,.11-.27c-.11,0-.27,0-.32.05-.25.3-.47.62-.69.94C503.3,193.64,503.32,193.7,503.33,193.78Zm-25-19.6.4.4c.1-.12.3-.25.29-.36s-.18-.29-.29-.44Zm25-2.36c0,.11,0,.17,0,.2.23.36.47.71.71,1.06,0,0,.13,0,.2.06s0-.18,0-.23c-.24-.33-.49-.65-.74-1Zm4.23,16.29c.16.15.3.34.37.32s.33-.22.32-.32-.19-.29-.3-.43Zm-31.09.43-.41-.4c-.1.14-.26.28-.27.43s.18.24.28.36ZM500,197.81l-.89.29s-.08.08-.12.12.12.08.18.07c.28,0,.57-.08.85-.14a1.33,1.33,0,0,0,.3-.14Zm5.59-23.93-.39-.36c-.09.11-.28.25-.26.33s.2.28.31.42Zm2.54,4.42-.4-.36c-.1.12-.27.24-.28.37s.16.24.25.36ZM476,183.63l-.4-.41c-.1.13-.27.25-.27.38s.18.24.28.36Zm21.37,17.72-.92-.65s-.05.12,0,.14q.36.37.73.72a.21.21,0,0,0,.15,0S497.37,201.5,497.41,201.35ZM508,183.11l.41.4c.1-.13.26-.25.27-.39s-.16-.28-.27-.31S508.14,183,508,183.11Zm-17.51,9c0,.26,0,.52,0,.77a.66.66,0,0,0,.07.19c0-.06.1-.12.1-.18,0-.5,0-1,0-1.5,0,0-.05-.1-.08-.15a.65.65,0,0,0-.06.18C490.43,191.69,490.44,191.91,490.44,192.14Zm-7.1-21.45-.38-.37c-.1.12-.26.23-.27.35s.16.24.25.36Zm-3.51,22.07s-.12,0-.12.06a.37.37,0,0,0,.06.19c.24.27.48.53.72.79a.46.46,0,0,0,.1.06s0-.1,0-.12c-.18-.29-.36-.58-.55-.86C480,192.83,479.91,192.81,479.83,192.77Zm5.08,5.54h.36a.5.5,0,0,0,.12,0s-.06-.11-.11-.12c-.32-.07-.64-.14-1-.18-.07,0-.14.08-.22.12s.12.12.19.13C484.5,198.27,484.73,198.29,484.9,198.31Zm-4.82-4.22-.42-.35c-.09.12-.24.22-.26.35s.15.3.23.29S479.87,194.23,480.08,194.09Zm13.58-1.89-.09-.83a7.19,7.19,0,0,0-.11.76,6.68,6.68,0,0,0,0,.75ZM492,179.89h-.05a1.6,1.6,0,0,0,0-.18c0-.2,0-.4-.08-.6,0,.19-.07.38-.1.57a1,1,0,0,0,0,.22c0,.26,0,.52.07.77Zm.14-.11c0,.24,0,.48,0,.72a.86.86,0,0,0,0,.13s.09-.09.09-.13q0-.69,0-1.38s-.06-.09-.09-.14a.69.69,0,0,0-.06.18C492.09,179.36,492.1,179.57,492.1,179.78Zm-15.74-1.46h-.14c-.07.09-.22.21-.2.27a1.67,1.67,0,0,0,.26.42c.09-.08.24-.16.24-.24A1.45,1.45,0,0,0,476.36,178.31ZM490,190.85h-1.36a.46.46,0,0,0-.13,0l.13,0h2.63a.5.5,0,0,0,.13,0l-.13,0Zm-2.31,9.91s-.08-.05-.09,0l-.86.81s0,.11,0,.11a.21.21,0,0,0,.16,0l.7-.75A.48.48,0,0,0,487.73,200.76ZM497,168.2l-.2.06a1.74,1.74,0,0,0,.18.16c.11.08.23.2.34.2a1.64,1.64,0,0,0,.48-.15,2.35,2.35,0,0,0-.32-.16C497.37,168.27,497.22,168.25,497,168.2Zm-10,.11c-.26,0-.48.07-.7.12-.06,0-.1.08-.15.13s.1.1.13.1a7,7,0,0,0,.72-.14c.07,0,.13-.1.2-.15Zm17.46,26c.12-.21.26-.34.24-.44s-.19-.22-.29-.32c-.08.11-.21.22-.21.33S504.4,194.13,504.53,194.33Zm-3.06-23.78-.3-.34c-.1.1-.28.21-.28.31s.17.23.26.35Zm-8.9,21.18-.13-.52a2.81,2.81,0,0,0-.09.57,2.75,2.75,0,0,0,.13.56Zm-.82.16-.08-.65a3.31,3.31,0,0,0-.12.58,2.7,2.7,0,0,0,.08.54Zm.33-13.61-.5.11a4.14,4.14,0,0,0,.51.06,1.9,1.9,0,0,0,.38-.07Zm-.21,2.9-.8.08c.28,0,.57,0,.85,0s.54,0,.81-.06Zm.58-5.48-.05-.62a3.69,3.69,0,0,0-.11.53,3.33,3.33,0,0,0,0,.52Zm1.8,16.37h0c0-.22,0-.45,0-.67,0,0,0-.08-.07-.13s-.05.08-.05.12q0,.67,0,1.35a.47.47,0,0,0,0,.13s.05-.08.05-.12C494.27,192.52,494.27,192.3,494.27,192.07Zm-1.72-12.26h0c0-.2,0-.39,0-.59a.73.73,0,0,0,0-.16.93.93,0,0,0,0,.17q0,.61,0,1.23a.63.63,0,0,0,0,.16.73.73,0,0,0,0-.17C492.55,180.24,492.55,180,492.55,179.81Zm-1,0-.08-.62c0,.22-.05.44,0,.66a6.31,6.31,0,0,0,.07.64ZM493,192h0c0-.18,0-.36,0-.54a.66.66,0,0,0-.05-.16.59.59,0,0,0-.05.16c0,.18,0,.36,0,.54s0,.48.05.72Zm-1-16.23c0-.18,0-.24,0-.3s0-.14,0-.21a1.54,1.54,0,0,0-.07.19.6.6,0,0,0,0,.18c0,.15,0,.29,0,.44Zm-.35-.13v-.09h0s0,.06,0,.09Z" style="fill: #d2d2d2"/>
      <path d="M474.46,188.67l-.39.38c-.09-.12-.24-.23-.25-.35s.13-.23.21-.34Z" style="fill: #d2d2d2"/>
      <path d="M473.82,182.25c.12.22.25.34.23.45s-.16.25-.25.37c-.08-.13-.22-.25-.24-.38S473.69,182.46,473.82,182.25Z" style="fill: #d2d2d2"/>
      <path d="M510.31,188.13l-.39.35c-.08-.11-.21-.23-.21-.34s.13-.23.21-.35Z" style="fill: #d2d2d2"/>
      <path d="M510.53,182.15l-.35.38c-.09-.12-.23-.23-.24-.36s.15-.21.23-.32Z" style="fill: #d2d2d2"/>
      <path d="M477.56,182.74c-.13-.22-.26-.33-.26-.43s.12-.24.19-.37c.1.11.25.21.29.33S477.68,182.5,477.56,182.74Z" style="fill: #d2d2d2"/>
      <path d="M507.63,194.5c-.17.14-.26.27-.39.32s-.25-.16-.24-.23a1.16,1.16,0,0,1,.22-.38Z" style="fill: #d2d2d2"/>
      <path d="M509.22,177l-.33.35c-.1-.1-.29-.2-.28-.29s.16-.25.25-.37Z" style="fill: #d2d2d2"/>
      <path d="M477.09,194.65c0,.06,0,.13,0,.17s-.18.25-.27.37c-.07-.11-.21-.23-.2-.33s.15-.37.4-.23l.08,0Z" style="fill: #d2d2d2"/>
      <path d="M506.82,181.83l-.32.36c-.09-.1-.23-.2-.24-.3s.13-.22.2-.34Z" style="fill: #d2d2d2"/>
      <path d="M506.79,172.66a1.07,1.07,0,0,1-.4.15.34.34,0,0,1-.21-.26c0-.11.14-.22.22-.32l.28.23Z" style="fill: #d2d2d2"/>
      <path d="M477.39,186c.13.22.25.34.26.45s-.11.21-.18.31c-.1-.09-.25-.17-.27-.28S477.28,186.21,477.39,186Z" style="fill: #d2d2d2"/>
      <path d="M474.8,177.35l.31-.32c.08.11.23.21.24.32s-.14.22-.23.32Z" style="fill: #d2d2d2"/>
      <path d="M506.92,186l-.29.34c-.07-.09-.22-.2-.21-.28a1.13,1.13,0,0,1,.22-.37Z" style="fill: #d2d2d2"/>
      <path d="M477.73,172.45c.05.24.12.37.09.47s-.16.18-.25.27c-.06-.1-.2-.22-.18-.3S477.56,172.67,477.73,172.45Z" style="fill: #d2d2d2"/>
      <path d="M505.9,177a.58.58,0,0,1,0,.22,3.84,3.84,0,0,1-.19.4c-.08-.08-.24-.18-.22-.23a1.08,1.08,0,0,1,.24-.37s.11,0,.17,0Z" style="fill: #d2d2d2"/>
      <path d="M478.6,177.59l-.29.32c-.08-.09-.22-.18-.22-.27s.12-.2.19-.3Z" style="fill: #d2d2d2"/>
      <path d="M481.24,173.59c.1.23.19.34.18.44s-.13.16-.2.25c-.07-.09-.2-.18-.21-.28S481.12,173.8,481.24,173.59Z" style="fill: #d2d2d2"/>
      <path d="M485.4,171l-.31.28c-.06-.09-.16-.19-.16-.28s.12-.17.18-.25Z" style="fill: #d2d2d2"/>
      <path d="M503.19,173.79l-.35.24c-.06-.09-.16-.19-.15-.28a.3.3,0,0,1,.21-.2C503,173.54,503.05,173.67,503.19,173.79Z" style="fill: #d2d2d2"/>
      <path d="M502.58,169.26l.25-.19c.06.09.17.17.17.26a.3.3,0,0,1-.18.23c-.1,0-.22-.07-.33-.12Z" style="fill: #d2d2d2"/>
      <path d="M499,170.5c.09.21.17.3.17.39s-.1.15-.16.22-.19-.15-.2-.23S498.9,170.7,499,170.5Z" style="fill: #d2d2d2"/>
      <path d="M481.26,169.86c-.09-.15-.19-.25-.17-.31s.14-.15.22-.22.16.14.15.2S481.36,169.71,481.26,169.86Z" style="fill: #d2d2d2"/>
      <path d="M492.18,168.85l.09-.08V169h0l-.1-.2Z" style="fill: #d2d2d2"/>
      <path d="M491.83,169.12v-.18h0v.2Z" style="fill: #d2d2d2"/>
      <path d="M491.85,168.82l-.09,0h0l.05.07Z" style="fill: #d2d2d2"/>
      <polygon points="485.77 168.08 485.76 168.05 485.78 168.07 485.77 168.08" style="fill: #d2d2d2"/>
      <path d="M492.91,199.23l.36.22a3.08,3.08,0,0,1-.36.22c-.08,0-.19,0-.27,0a1.22,1.22,0,0,0-.24.18c.06.07.11.17.19.22,1,.51,1,1.15.09,1.78a1,1,0,0,1-.19.12.51.51,0,0,1-.17,0c0-.06,0-.14,0-.19s.18-.2.27-.31c.33-.41.3-.64-.12-.94s-.48-.42-.26-1C492.38,199.3,492.61,199.28,492.91,199.23Z" style="fill: #d2d2d2"/>
      <path d="M494.51,199.21c.15.16.52-.14.43.3,0,.08-.17.16-.27.18s-.24,0-.36,0a.26.26,0,0,0-.19.14c0,.05.06.14.11.21s.08,0,.12,0c.5.25.69.53.64.93a1.32,1.32,0,0,1-.87,1,.53.53,0,0,1-.16,0c0-.05,0-.12,0-.16s.28-.28.41-.42c.33-.37.29-.63-.13-.88s-.56-.52-.28-1C494.09,199.34,494.34,199.3,494.51,199.21Z" style="fill: #d2d2d2"/>
      <path d="M489.86,200.69c0,.35.1.7.14,1,0,0,0,.14,0,.14a3.32,3.32,0,0,1-.58,0,1.44,1.44,0,0,1,0-.31c0-.63,0-1.26,0-1.88a.32.32,0,0,1,.19-.24c.09,0,.28.05.29.11.06.38.08.78.12,1.16Z" style="fill: #d2d2d2"/>
      <path d="M491.29,199.3c.59,0,.56,0,.36.54s-.43,1.38-.65,2.06a2.7,2.7,0,0,1-.13.29c0-.12-.16-.26-.13-.37a14,14,0,0,1,.47-1.6c.12-.3.09-.39-.24-.4-.14,0-.43.19-.43-.18s.23-.35.47-.34Z" style="fill: #d2d2d2"/>
      <path d="M491.9,195.13h-1.72a.61.61,0,0,1-.18-.06c.06,0,.12-.09.19-.09h2l1.36,0c.06,0,.12.06.17.09l-.18,0H491.9Z" style="fill: #d2d2d2"/>
      <path d="M491.92,195.49h-2.13a.74.74,0,0,1-.19-.06.76.76,0,0,1,.17,0H494a.92.92,0,0,1,.17,0,1,1,0,0,1-.2,0h-2.08Z" style="fill: #d2d2d2"/>
      <path d="M497.92,197.21v0h0Z" style="fill: #d2d2d2"/>
      <path d="M483.63,198.85a1.9,1.9,0,0,1-.21.15l-.67.35,0-.06c.22-.14.43-.29.65-.42a.94.94,0,0,1,.26-.07Z" style="fill: #d2d2d2"/>
      <path d="M501.75,199.19c-.09,0-.16,0-.2,0l-.74-.42a.37.37,0,0,1-.08-.09s.06,0,.08,0l.85.38S501.71,199.11,501.75,199.19Z" style="fill: #d2d2d2"/>
      <path d="M480.86,183.8l-.12-.19,0,0,.07.23Z" style="fill: #d2d2d2"/>
      <path d="M480.85,183.79h0Z" style="fill: #d2d2d2"/>
      <path d="M503.31,183.58l0,.06a.26.26,0,0,1-.07,0s0,0-.06,0Z" style="fill: #d2d2d2"/>
    </g>
    <g>
      <path d="M540.27,196.06V174.13h-.09l-9,23.57h-1.37l-8.45-23.54h-.09v21.9h3.12v1.38h-8.14v-1.38h3.46V173.68h-3.46v-1.38h8l7.22,20h.07l7.69-20h7.86v1.38h-3.46v22.38h3.46v1.38h-10v-1.38Z" style="fill: #d2d2d2"/>
      <path d="M550.15,189.91h1.21a11,11,0,0,0,.76,3.29,6.15,6.15,0,0,0,1.41,2.09,4.79,4.79,0,0,0,1.92,1.1,8,8,0,0,0,2.29.32,7.49,7.49,0,0,0,2.48-.36,4.57,4.57,0,0,0,1.7-1,3.83,3.83,0,0,0,1-1.56,6.29,6.29,0,0,0,.3-2,4.84,4.84,0,0,0-.45-2.22,4.38,4.38,0,0,0-1.25-1.49,8.17,8.17,0,0,0-1.93-1.06q-1.13-.45-2.48-.93t-2.57-1a8.69,8.69,0,0,1-2.15-1.33,5.77,5.77,0,0,1-1.48-1.95,6.67,6.67,0,0,1-.55-2.86,8,8,0,0,1,.52-2.94,6,6,0,0,1,1.54-2.28,7,7,0,0,1,2.54-1.46,10.86,10.86,0,0,1,3.52-.52q.8,0,1.64.08t1.69.23q.84.16,1.65.37t1.54.48l.21,6.28H564a9.28,9.28,0,0,0-.69-3,5.3,5.3,0,0,0-1.31-1.84,4.28,4.28,0,0,0-1.71-.92,7.48,7.48,0,0,0-1.93-.25,7.3,7.3,0,0,0-2.28.32,4.3,4.3,0,0,0-1.61.92,3.75,3.75,0,0,0-1,1.45,5.48,5.48,0,0,0-.32,1.93,4.51,4.51,0,0,0,.45,2.13,4.38,4.38,0,0,0,1.27,1.46,9.06,9.06,0,0,0,2,1.09q1.15.48,2.54,1t2.48,1a8.94,8.94,0,0,1,2.18,1.37,6.23,6.23,0,0,1,1.55,2,6.77,6.77,0,0,1,.59,3,7.55,7.55,0,0,1-.6,3.08,6.07,6.07,0,0,1-1.71,2.27,7.76,7.76,0,0,1-2.73,1.4,12.6,12.6,0,0,1-3.63.48q-.88,0-1.83-.09t-1.87-.26q-.93-.17-1.81-.4a14.43,14.43,0,0,1-1.64-.52Z" style="fill: #d2d2d2"/>
      <path d="M575.8,189.31q0,1.49.13,2.8a5.56,5.56,0,0,0,.71,2.3,4,4,0,0,0,1.77,1.57,7.64,7.64,0,0,0,3.3.58,8.46,8.46,0,0,0,3.46-.6,4.8,4.8,0,0,0,2-1.64,6.13,6.13,0,0,0,1-2.48,18.51,18.51,0,0,0,.24-3.09V173.68h-3.46v-1.38h8.46v1.38H590v14.89a19.52,19.52,0,0,1-.38,4.08,6.82,6.82,0,0,1-1.37,3,6.08,6.08,0,0,1-2.67,1.81,12.61,12.61,0,0,1-4.28.61,14.06,14.06,0,0,1-4-.5,6.49,6.49,0,0,1-2.75-1.56,6.34,6.34,0,0,1-1.58-2.69,13.11,13.11,0,0,1-.51-3.89V173.68H569v-1.38h10.3v1.38H575.8Z" style="fill: #d2d2d2"/>
    </g>
  </g>
  <g>
    <path id="path928" d="M636,198.13v-12.2l-11.1-16.6h4.64L635.2,178q1.57,2.44,2.93,4.87,1.3-2.26,3.14-5.09l5.58-8.47h4.44l-11.49,16.6v12.2Z" style="fill: #d2d2d2"/>
    <path id="path930" d="M664.92,195.56a13.12,13.12,0,0,1-3.79,2.36,10.85,10.85,0,0,1-3.89.69,7.62,7.62,0,0,1-5.29-1.67,5.58,5.58,0,0,1-1.85-4.3,5.72,5.72,0,0,1,.69-2.79,5.88,5.88,0,0,1,1.83-2,8.73,8.73,0,0,1,2.55-1.16,25.26,25.26,0,0,1,3.14-.53,32.33,32.33,0,0,0,6.31-1.22q0-.73,0-.92a3.9,3.9,0,0,0-1-3,5.92,5.92,0,0,0-4-1.2,6.24,6.24,0,0,0-3.69.88,5.32,5.32,0,0,0-1.75,3.08l-3.46-.47a8.49,8.49,0,0,1,1.55-3.58,6.71,6.71,0,0,1,3.12-2.1,13.77,13.77,0,0,1,4.74-.75,12.54,12.54,0,0,1,4.34.63,5.67,5.67,0,0,1,2.46,1.59,5.49,5.49,0,0,1,1.1,2.4,19.91,19.91,0,0,1,.18,3.26v4.72a52.59,52.59,0,0,0,.22,6.25,8.06,8.06,0,0,0,.9,2.5h-3.69a7.5,7.5,0,0,1-.71-2.57Zm-.29-7.9a26,26,0,0,1-5.78,1.34,13.37,13.37,0,0,0-3.08.71,3.05,3.05,0,0,0-1.39,1.16,3,3,0,0,0-.49,1.67,3,3,0,0,0,1.06,2.36,4.65,4.65,0,0,0,3.14.94,7.36,7.36,0,0,0,3.63-.88,5.56,5.56,0,0,0,2.34-2.46,8.54,8.54,0,0,0,.57-3.54Z" style="fill: #d2d2d2"/>
    <path id="path932" d="M673.71,198.13V177.26h3.18v3a7.5,7.5,0,0,1,6.64-3.44,8.53,8.53,0,0,1,3.46.69,5.39,5.39,0,0,1,2.38,1.77,6.83,6.83,0,0,1,1.1,2.61,20.25,20.25,0,0,1,.2,3.44v12.83h-3.54V185.44a9.44,9.44,0,0,0-.41-3.22,3.34,3.34,0,0,0-1.47-1.71,4.55,4.55,0,0,0-2.46-.65,5.77,5.77,0,0,0-3.91,1.43q-1.63,1.43-1.63,5.44v11.4Z" style="fill: #d2d2d2"/>
    <path id="path934" d="M709.64,198.13V195.5a6.49,6.49,0,0,1-5.84,3.1,8.23,8.23,0,0,1-4.6-1.38,9.15,9.15,0,0,1-3.24-3.83,13.44,13.44,0,0,1-1.14-5.68,14.76,14.76,0,0,1,1-5.66,8.21,8.21,0,0,1,3.12-3.91,8.35,8.35,0,0,1,4.66-1.36,7,7,0,0,1,5.76,2.87V169.33h3.52v28.8Zm-11.18-10.41q0,4,1.69,6a5.1,5.1,0,0,0,4,2,5,5,0,0,0,3.93-1.89q1.63-1.91,1.63-5.8,0-4.28-1.65-6.29a5.08,5.08,0,0,0-4.07-2,4.93,4.93,0,0,0-3.95,1.93q-1.57,1.93-1.57,6.07Z" style="fill: #d2d2d2"/>
    <path id="path936" d="M732.79,191.41l3.65.45a8.92,8.92,0,0,1-3.2,5,10.88,10.88,0,0,1-13.24-1q-2.67-2.83-2.67-7.92,0-5.27,2.71-8.17a9.18,9.18,0,0,1,7-2.91,8.92,8.92,0,0,1,6.84,2.85q2.65,2.85,2.65,8,0,.31,0,.94H721a8,8,0,0,0,1.95,5.27,5.79,5.79,0,0,0,4.36,1.83,5.41,5.41,0,0,0,3.32-1,6.78,6.78,0,0,0,2.18-3.26Zm-11.61-5.72h11.65a7.07,7.07,0,0,0-1.34-3.95,5.42,5.42,0,0,0-4.38-2,5.65,5.65,0,0,0-4.11,1.63,6.48,6.48,0,0,0-1.83,4.36Z" style="fill: #d2d2d2"/>
    <path id="path938" d="M738.55,198.13l7.62-10.85-7.05-10h4.42l3.2,4.89q.9,1.4,1.45,2.34.86-1.3,1.59-2.3l3.52-4.93h4.22l-7.21,9.82,7.76,11h-4.34l-4.28-6.48-1.14-1.75-5.48,8.23Z" style="fill: #d2d2d2"/>
  </g>
</svg>
