<svg xmlns="http://www.w3.org/2000/svg" width="772.79" height="212.69" viewBox="0 0 772.79 212.69">
  <title>fasie-01-01</title>
  <g>
    <path d="M130.85,63.75l9.9-1q.89,5,3.61,7.32a11,11,0,0,0,7.39,2.34q4.91,0,7.39-2.06a6.22,6.22,0,0,0,2.51-4.88,4.47,4.47,0,0,0-1.07-3,8.13,8.13,0,0,0-3.64-2.2q-1.79-.62-8.14-2.2-8.18-2-11.48-5A13.11,13.11,0,0,1,132.67,43a12.94,12.94,0,0,1,2.16-7.18,13.74,13.74,0,0,1,6.29-5.12A25.33,25.33,0,0,1,151,28.95q9.48,0,14.26,4.16a14.65,14.65,0,0,1,5.05,11.1l-10.17.45q-.65-3.88-2.82-5.57A10.47,10.47,0,0,0,151,37.32a11.62,11.62,0,0,0-7,1.83,3.67,3.67,0,0,0-1.61,3.13,3.87,3.87,0,0,0,1.51,3.06q1.92,1.61,9.35,3.37a48.19,48.19,0,0,1,11,3.64,13.83,13.83,0,0,1,5.57,5.12,15.77,15.77,0,0,1-.38,16.12,14.51,14.51,0,0,1-6.8,5.64,28.77,28.77,0,0,1-11,1.82q-9.55,0-14.67-4.4t-6.12-12.89Z" style="fill: #d2d2d2"/>
    <path d="M166.77,80.14V29.76h9.66V56.5l11.3-12.85h11.89L187.15,57l13.37,23.16H190.1l-9.17-16.39-4.5,4.71V80.14Z" style="fill: #d2d2d2"/>
    <path d="M298.18,68.25,279.12,81.61,279,27.36l19.23,13.57Z" style="fill: #d2d2d2"/>
    <path d="M342.85,40.15l19.42-13.62.1,55.29L342.78,68Z" style="fill: #d2d2d2"/>
    <path d="M54.87,106c-17.38-1-32.4-9.4-42.65-23.84A9.35,9.35,0,0,1,10.88,80c0-.24.9-.27,9.18-.31H29.2l.18.4c.52,1.13,3.68,4.46,6.1,6.42C50.22,98.37,72.22,99.07,89.8,88.17c3.27-2,8.33-6,8.92-6.92a5.68,5.68,0,0,1,1.68-1.46c.49,0-.56,1.87-2.89,5.2A48.69,48.69,0,0,1,75,102.77,49.76,49.76,0,0,1,54.87,106Z" style="fill: #d2d2d2"/>
    <path d="M61.49,98.78C46.64,98,33.8,91.89,25,81.3a6.71,6.71,0,0,1-1.15-1.62c0-.18.77-.2,7.84-.23H39.5l.16.29a25.15,25.15,0,0,0,5.22,4.71c12.59,8.75,31.39,9.27,46.41,1.27,2.8-1.49,7.12-4.36,7.62-5.08a4.73,4.73,0,0,1,1.43-1.07c.42,0-.48,1.37-2.47,3.82a41.23,41.23,0,0,1-19.26,13,48.92,48.92,0,0,1-17.17,2.38Z" style="fill: #d2d2d2"/>
    <g>
      <path d="M12.18,56.66V33.47H27.83V36.2H15.25v7.18H26.14v2.74H15.25V56.66Z" style="fill: #d2d2d2"/>
      <path d="M27.51,56.66l8.91-23.2h3.31l9.49,23.2h-3.5l-2.71-7h-9.7l-2.55,7Zm6.69-9.52h7.86l-2.42-6.42Q38.54,37.79,38,35.9a29.57,29.57,0,0,1-1.25,4.43Z" style="fill: #d2d2d2"/>
      <path d="M50.66,49.21l2.9-.25a6.52,6.52,0,0,0,1,2.86,5.36,5.36,0,0,0,2.34,1.8,8.93,8.93,0,0,0,3.56.68,8.53,8.53,0,0,0,3.1-.52,4.27,4.27,0,0,0,2-1.42,3.33,3.33,0,0,0,.66-2,3,3,0,0,0-.63-1.9,4.65,4.65,0,0,0-2.09-1.38A40.09,40.09,0,0,0,59.32,46a21.31,21.31,0,0,1-4.48-1.46,6.37,6.37,0,0,1-2.48-2.15,5.37,5.37,0,0,1-.81-2.9,5.86,5.86,0,0,1,1-3.28,6.15,6.15,0,0,1,2.91-2.33,11,11,0,0,1,4.26-.79,11.47,11.47,0,0,1,4.54.84,6.51,6.51,0,0,1,3,2.44A7,7,0,0,1,68.43,40l-2.94.22a4.73,4.73,0,0,0-1.61-3.32,6.22,6.22,0,0,0-4-1.12,6.49,6.49,0,0,0-4.07,1,3,3,0,0,0-1.27,2.45,2.64,2.64,0,0,0,.9,2.06q.89.81,4.62,1.66a30.29,30.29,0,0,1,5.14,1.47,7,7,0,0,1,3,2.37,5.73,5.73,0,0,1,1,3.29,6.35,6.35,0,0,1-1.06,3.5A7,7,0,0,1,65,56.16a10.64,10.64,0,0,1-4.46.9,13.41,13.41,0,0,1-5.28-.92,7.46,7.46,0,0,1-3.34-2.75,7.91,7.91,0,0,1-1.27-4.18Z" style="fill: #d2d2d2"/>
      <path d="M73.87,56.66V33.47h3.07v23.2Z" style="fill: #d2d2d2"/>
      <path d="M82.4,56.66V33.47H99.17V36.2H85.47v7.1H98.3V46H85.47v7.9H99.71v2.74Z" style="fill: #d2d2d2"/>
    </g>
    <g>
      <path d="M131.86,100.52l2.87-.25a6.46,6.46,0,0,0,.94,2.84A5.31,5.31,0,0,0,138,104.9a8.85,8.85,0,0,0,3.53.67,8.45,8.45,0,0,0,3.07-.52,4.24,4.24,0,0,0,2-1.41,3.3,3.3,0,0,0,.66-2,3,3,0,0,0-.63-1.88,4.61,4.61,0,0,0-2.07-1.36,39.74,39.74,0,0,0-4.09-1.11A21.12,21.12,0,0,1,136,95.86a6.31,6.31,0,0,1-2.46-2.13,5.32,5.32,0,0,1-.8-2.87,5.8,5.8,0,0,1,1-3.25,6.1,6.1,0,0,1,2.88-2.3,11,11,0,0,1,4.22-.78,11.37,11.37,0,0,1,4.5.83,6.45,6.45,0,0,1,3,2.41,7,7,0,0,1,1.13,3.62l-2.92.22a4.69,4.69,0,0,0-1.6-3.29,6.16,6.16,0,0,0-4-1.11,6.43,6.43,0,0,0-4,1,3,3,0,0,0-1.25,2.43,2.61,2.61,0,0,0,.89,2q.88.8,4.58,1.65a30,30,0,0,1,5.1,1.46,6.94,6.94,0,0,1,3,2.35,5.67,5.67,0,0,1,1,3.26,6.29,6.29,0,0,1-1.05,3.47,7,7,0,0,1-3,2.52,10.54,10.54,0,0,1-4.42.89,13.28,13.28,0,0,1-5.24-.91,7.4,7.4,0,0,1-3.31-2.73,7.84,7.84,0,0,1-1.25-4.14Z" style="fill: #d2d2d2"/>
      <path d="M154,107.9v-23h2.82V98l6.68-6.77h3.65l-6.37,6.18,7,10.47H164.3l-5.5-8.51-2,1.91v6.6Z" style="fill: #d2d2d2"/>
      <path d="M169,99.57q0-4.63,2.57-6.85a7.75,7.75,0,0,1,5.24-1.85,7.46,7.46,0,0,1,5.61,2.26,8.53,8.53,0,0,1,2.18,6.21,11,11,0,0,1-1,5.06,6.78,6.78,0,0,1-2.81,2.85,8.13,8.13,0,0,1-4,1,7.51,7.51,0,0,1-5.66-2.24Q169,103.79,169,99.57Zm2.9,0a7.12,7.12,0,0,0,1.4,4.8,4.65,4.65,0,0,0,7,0,7.26,7.26,0,0,0,1.4-4.88,6.82,6.82,0,0,0-1.41-4.67,4.43,4.43,0,0,0-3.48-1.6,4.48,4.48,0,0,0-3.51,1.58,7.06,7.06,0,0,0-1.4,4.78Z" style="fill: #d2d2d2"/>
      <path d="M187.85,107.9v-23h2.82v23Z" style="fill: #d2d2d2"/>
      <path d="M195.07,107.9v-23h2.82V98l6.68-6.77h3.65l-6.37,6.18,7,10.47h-3.48l-5.5-8.51-2,1.91v6.6Z" style="fill: #d2d2d2"/>
      <path d="M210.06,99.57q0-4.63,2.57-6.85a7.75,7.75,0,0,1,5.24-1.85,7.46,7.46,0,0,1,5.61,2.26,8.53,8.53,0,0,1,2.18,6.21,11,11,0,0,1-1,5.06,6.78,6.78,0,0,1-2.81,2.85,8.13,8.13,0,0,1-4,1,7.51,7.51,0,0,1-5.66-2.24Q210,103.77,210,99.55Zm2.9,0a7.12,7.12,0,0,0,1.4,4.8,4.65,4.65,0,0,0,7,0,7.26,7.26,0,0,0,1.4-4.88,6.82,6.82,0,0,0-1.41-4.67,4.43,4.43,0,0,0-3.48-1.6,4.48,4.48,0,0,0-3.51,1.58,7.06,7.06,0,0,0-1.4,4.78Z" style="fill: #d2d2d2"/>
      <path d="M233.61,107.9l-6.33-16.65h3l3.57,10q.58,1.61,1.07,3.36.38-1.32,1.05-3.17l3.7-10.16h2.9l-6.3,16.65Z" style="fill: #d2d2d2"/>
      <path d="M244,99.57q0-4.63,2.57-6.85a7.75,7.75,0,0,1,5.24-1.85,7.46,7.46,0,0,1,5.61,2.26,8.53,8.53,0,0,1,2.18,6.21,11,11,0,0,1-1,5.06,6.78,6.78,0,0,1-2.81,2.85,8.13,8.13,0,0,1-4,1,7.51,7.51,0,0,1-5.66-2.24Q244,103.79,244,99.57Zm2.9,0a7.12,7.12,0,0,0,1.4,4.8,4.65,4.65,0,0,0,7,0,7.26,7.26,0,0,0,1.4-4.88,6.82,6.82,0,0,0-1.41-4.67,4.43,4.43,0,0,0-3.48-1.6,4.48,4.48,0,0,0-3.51,1.58,7.06,7.06,0,0,0-1.4,4.78Z" style="fill: #d2d2d2"/>
    </g>
    <g>
      <path d="M295.69,107.19l8-20.76h3l8.49,20.76H312l-2.42-6.29H300.9l-2.28,6.29Zm6-8.52h7l-2.17-5.75q-1-2.62-1.47-4.3a26.46,26.46,0,0,1-1.12,4Z" style="fill: #d2d2d2"/>
      <path d="M316.4,100.52l2.59-.23a5.83,5.83,0,0,0,.85,2.56,4.79,4.79,0,0,0,2.1,1.61,8,8,0,0,0,3.19.61,7.63,7.63,0,0,0,2.78-.47,3.83,3.83,0,0,0,1.78-1.27,3,3,0,0,0,.59-1.78,2.67,2.67,0,0,0-.57-1.7,4.16,4.16,0,0,0-1.87-1.23,35.88,35.88,0,0,0-3.7-1,19.07,19.07,0,0,1-4-1.3,5.7,5.7,0,0,1-2.22-1.93,4.81,4.81,0,0,1-.72-2.59,5.24,5.24,0,0,1,.89-2.93,5.51,5.51,0,0,1,2.61-2.08,9.88,9.88,0,0,1,3.81-.71,10.27,10.27,0,0,1,4.06.75A5.82,5.82,0,0,1,331.28,89a6.28,6.28,0,0,1,1,3.27l-2.63.2a4.24,4.24,0,0,0-1.44-3,5.56,5.56,0,0,0-3.61-1,5.8,5.8,0,0,0-3.64.92,2.73,2.73,0,0,0-1.13,2.19,2.36,2.36,0,0,0,.81,1.84q.79.72,4.13,1.49a27.11,27.11,0,0,1,4.6,1.32A6.27,6.27,0,0,1,332,98.35a5.12,5.12,0,0,1,.86,2.94,5.68,5.68,0,0,1-1,3.13,6.3,6.3,0,0,1-2.73,2.28,9.52,9.52,0,0,1-4,.81,12,12,0,0,1-4.73-.82,6.68,6.68,0,0,1-3-2.46,7.08,7.08,0,0,1-1.13-3.74Z" style="fill: #d2d2d2"/>
      <path d="M337.17,107.19V86.43h2.75v20.76Z" style="fill: #d2d2d2"/>
    </g>
    <path d="M434.47,41.81V37l1.42-.07c13.18-.41,21.83,11.33,21.83,11.33s-9.34,13-19.36,13a12.15,12.15,0,0,1-3.9-.62V46c5.13.62,6.16,2.89,9.25,8l6.86-5.79s-5-6.57-13.45-6.57a24.8,24.8,0,0,0-2.66.16Zm0-15.92v7.2c.47,0,1-.07,1.42-.09,18.33-.62,30.28,15,30.28,15s-13.72,16.68-28,16.68a21,21,0,0,1-3.69-.32v4.45a24.23,24.23,0,0,0,3.07.2c13.3,0,22.92-6.79,32.23-14.83,1.54,1.24,7.87,4.24,9.17,5.56-8.86,7.41-29.49,13.39-41.19,13.39a31.79,31.79,0,0,1-3.28-.17v6.25H485V25.89Zm0,34.71v3.8c-12.3-2.19-15.72-15-15.72-15a26.6,26.6,0,0,1,15.72-7.61V46h0c-5.15-.62-9.17,4.19-9.17,4.19s2.25,8.1,9.19,10.43ZM412.62,48.86A30.47,30.47,0,0,1,434.47,37V33.1c-16.12,1.29-30.09,15-30.09,15s7.91,22.86,30.09,25V68.85c-16.28-2-21.85-20-21.85-20Z" style="fill: #d2d2d2"/>
    <g>
      <path d="M394.77,108.35V88.5h3v2.82A7.14,7.14,0,0,1,404.09,88a8.12,8.12,0,0,1,3.29.65,5.12,5.12,0,0,1,2.26,1.68,6.49,6.49,0,0,1,1,2.49,19.27,19.27,0,0,1,.19,3.27V108.3h-3.36v-12a9,9,0,0,0-.39-3.07,3.17,3.17,0,0,0-1.4-1.63A4.33,4.33,0,0,0,403.4,91a5.49,5.49,0,0,0-3.72,1.36q-1.55,1.36-1.55,5.18v10.84Z" style="fill: #d2d2d2"/>
      <path d="M422.11,108.35l-8.32-21.8h3.08l6.91,18.36,6.92-18.36h3.07l-8.31,21.8Z" style="fill: #d2d2d2"/>
      <path d="M436.93,86.55h3v21.8h-3Z" style="fill: #d2d2d2"/>
      <path d="M448.71,89v17h3.56q4.51,0,6.6-2t2.1-6.46q0-4.38-2.1-6.41t-6.6-2Zm-3-2.42h6.06q6.34,0,9.3,2.64t3,8.24q0,5.64-3,8.28t-9.29,2.64h-6.06Z" style="fill: #d2d2d2"/>
      <path d="M468.77,86.55h3v21.8h-3Z" style="fill: #d2d2d2"/>
      <path d="M484.88,89.46l-4,10.85h8Zm-1.66-2.91h3.34l8.31,21.8H491.8l-2-5.59H480l-2,5.59h-3.11Z" style="fill: #d2d2d2"/>
    </g>
    <path d="M10.41,197.63v-28.8h3.91l15.13,22.62V168.83H33.1v28.8H29.19L14.06,175v22.64Z" style="fill: #d2d2d2"/>
    <path d="M46.85,197.63V172.22H37.36v-3.4H60.2v3.4H50.67v25.41Z" style="fill: #d2d2d2"/>
    <path d="M64.77,197.63v-28.8h3.81v28.8Z" style="fill: #d2d2d2"/>
    <path d="M103.6,194.23v3.4h-19a6.26,6.26,0,0,1,.41-2.46,13.09,13.09,0,0,1,2.32-3.83,37.12,37.12,0,0,1,4.6-4.34,39.55,39.55,0,0,0,6.35-6.09,7.35,7.35,0,0,0,1.65-4.26,4.68,4.68,0,0,0-1.51-3.54,5.37,5.37,0,0,0-3.91-1.45,5.52,5.52,0,0,0-4.09,1.53,5.8,5.8,0,0,0-1.55,4.24L85.23,177A8.91,8.91,0,0,1,88,170.85a9.56,9.56,0,0,1,6.54-2.14,9.13,9.13,0,0,1,6.56,2.3,7.55,7.55,0,0,1,2.42,5.7,8.64,8.64,0,0,1-.71,3.4,13.09,13.09,0,0,1-2.36,3.52A56,56,0,0,1,95,188.7q-3.18,2.67-4.09,3.64a11.31,11.31,0,0,0-1.49,1.91Z" style="fill: #d2d2d2"/>
    <path d="M107.41,183.42a26.49,26.49,0,0,1,1-8.21,10.33,10.33,0,0,1,3.12-4.81,8,8,0,0,1,5.23-1.69,8.44,8.44,0,0,1,4.07.94,7.67,7.67,0,0,1,2.89,2.69,14.3,14.3,0,0,1,1.79,4.28,28.33,28.33,0,0,1,.65,6.8,26.53,26.53,0,0,1-1,8.19,10.26,10.26,0,0,1-3.12,4.81,8.77,8.77,0,0,1-11.77-1.3Q107.41,191.54,107.41,183.42Zm3.64,0q0,7.09,1.65,9.45a4.92,4.92,0,0,0,4.11,2.34,4.86,4.86,0,0,0,4.09-2.36q1.67-2.36,1.67-9.43T120.89,174a4.9,4.9,0,0,0-4.13-2.34,4.53,4.53,0,0,0-3.89,2.06q-1.83,2.63-1.83,9.73Z" style="fill: #d2d2d2"/>
    <path d="M131.8,197.63v-4h4v4Z" style="fill: #d2d2d2"/>
    <path d="M141,190l3.54-.47a7.89,7.89,0,0,0,2.06,4.34,5.18,5.18,0,0,0,3.58,1.32,5.68,5.68,0,0,0,4.2-1.73,5.82,5.82,0,0,0,1.73-4.28,5.39,5.39,0,0,0-1.59-4,5.48,5.48,0,0,0-4-1.59,10.15,10.15,0,0,0-2.5.39l.39-3.1H149a7.28,7.28,0,0,0,4.07-1.18,4,4,0,0,0,1.81-3.63,4.3,4.3,0,0,0-1.32-3.22,4.68,4.68,0,0,0-3.4-1.28,4.82,4.82,0,0,0-3.44,1.3,6.51,6.51,0,0,0-1.77,3.89l-3.54-.63a9,9,0,0,1,2.95-5.5,8.49,8.49,0,0,1,5.72-2,9.34,9.34,0,0,1,4.34,1,7.19,7.19,0,0,1,3,2.75,7,7,0,0,1,1.06,3.71,6.08,6.08,0,0,1-1,3.4,6.84,6.84,0,0,1-3,2.44,6.67,6.67,0,0,1,4,2.46,7.4,7.4,0,0,1,1.41,4.64,8.53,8.53,0,0,1-2.75,6.41,9.7,9.7,0,0,1-7,2.61,9.09,9.09,0,0,1-6.31-2.26A8.76,8.76,0,0,1,141,190Z" style="fill: #d2d2d2"/>
    <path d="M163.37,190.08l3.71-.31a6.73,6.73,0,0,0,1.91,4.09,5.26,5.26,0,0,0,3.63,1.36,5.65,5.65,0,0,0,4.32-1.93,7.26,7.26,0,0,0,1.77-5.11A6.54,6.54,0,0,0,177,183.4a5.89,5.89,0,0,0-4.44-1.75,6.11,6.11,0,0,0-3.08.79,5.91,5.91,0,0,0-2.16,2L164,184l2.79-14.8h14.32v3.38H169.62l-1.55,7.74a9.37,9.37,0,0,1,5.44-1.81,8.62,8.62,0,0,1,6.37,2.61,9.13,9.13,0,0,1,2.59,6.72,10.49,10.49,0,0,1-2.28,6.76,9.13,9.13,0,0,1-7.56,3.5,9.36,9.36,0,0,1-6.43-2.2,8.61,8.61,0,0,1-2.83-5.84Z" style="fill: #d2d2d2"/>
    <g>
      <path d="M377,169.46v3.76a23.75,23.75,0,0,0-4.14-1.56,14.66,14.66,0,0,0-3.76-.51,8.3,8.3,0,0,0-4.86,1.22,4,4,0,0,0-1.7,3.47,3.57,3.57,0,0,0,1.13,2.86,10,10,0,0,0,4.31,1.54l2.33.48a11.8,11.8,0,0,1,6.35,2.9,8.46,8.46,0,0,1-.72,11.8q-2.76,2.14-8.12,2.14a22,22,0,0,1-4.31-.46,32.12,32.12,0,0,1-4.71-1.35v-4a22.51,22.51,0,0,0,4.6,2,15.51,15.51,0,0,0,4.42.67,8.58,8.58,0,0,0,5.09-1.3,4.29,4.29,0,0,0,1.79-3.7,4.21,4.21,0,0,0-1.3-3.28,8.77,8.77,0,0,0-4.21-1.77l-2.35-.46q-4.31-.86-6.24-2.69a6.69,6.69,0,0,1-1.93-5.09,7.28,7.28,0,0,1,2.65-5.95,11.3,11.3,0,0,1,7.34-2.17,23.73,23.73,0,0,1,4.08.36A29.44,29.44,0,0,1,377,169.46Z" style="fill: #d2d2d2"/>
      <path d="M399.87,186.33a10.11,10.11,0,0,0-1.6-6.06,5.43,5.43,0,0,0-8.75,0,12.44,12.44,0,0,0,0,12.15,5.46,5.46,0,0,0,8.75,0A10.2,10.2,0,0,0,399.87,186.33Zm-11.94-7.46a7.25,7.25,0,0,1,2.78-2.82,8.26,8.26,0,0,1,4-.93,7.65,7.65,0,0,1,6.31,3.09,14.74,14.74,0,0,1,0,16.25,7.65,7.65,0,0,1-6.31,3.09,8.4,8.4,0,0,1-4-.92,7.39,7.39,0,0,1-2.78-2.84V197H384.4V167.32h3.53Z" style="fill: #d2d2d2"/>
      <path d="M427.6,185.44v1.72H411.47a8.16,8.16,0,0,0,2.17,5.53,7.55,7.55,0,0,0,5.45,1.89,15.33,15.33,0,0,0,3.91-.5,17.38,17.38,0,0,0,3.78-1.49v3.32a21,21,0,0,1-3.87,1.22,19.38,19.38,0,0,1-4,.42,11,11,0,0,1-8.1-3,10.87,10.87,0,0,1-3-8,11.81,11.81,0,0,1,2.82-8.31,9.88,9.88,0,0,1,7.65-3.09,8.68,8.68,0,0,1,6.81,2.78,10.77,10.77,0,0,1,2.52,7.53Zm-3.51-1a6.65,6.65,0,0,0-1.62-4.6,5.35,5.35,0,0,0-4.16-1.72,6.62,6.62,0,0,0-4.71,1.66,7,7,0,0,0-2,4.67Z" style="fill: #d2d2d2"/>
      <path d="M445.73,178.92a4.43,4.43,0,0,0-1.3-.5,6.29,6.29,0,0,0-1.53-.17,5.59,5.59,0,0,0-4.58,1.94,8.54,8.54,0,0,0-1.58,5.55V197h-3.53V175.64h3.53V179a7.13,7.13,0,0,1,2.88-2.88,9,9,0,0,1,4.31-1,6.22,6.22,0,0,1,.8.06,4.48,4.48,0,0,1,1,.13Z" style="fill: #d2d2d2"/>
    </g>
    <path d="M561.64,27.76c-.61-.13-.65-.26-.63-2a8.88,8.88,0,0,1,.07-1.72.46.46,0,0,0,0-.27,4.21,4.21,0,0,0-1.21.2,23.11,23.11,0,0,1-4.45.68,15.46,15.46,0,0,0-1.63.16,1.79,1.79,0,0,0,.37.32,6.78,6.78,0,0,0,2.21.75,2.91,2.91,0,0,1,.57.12c.17.09-.09.4-.57.68a1.59,1.59,0,0,1-1.14.22,7.31,7.31,0,0,1-1-.09l-.3-.07.37-.24a1.22,1.22,0,0,0,.37-.31,10.24,10.24,0,0,0-1.26-.83c-1.24-.75-1.26-.77-1.2-1a.94.94,0,0,1,.11-.32,2.69,2.69,0,0,1,.79,0c2.74.27,4.18,0,7.62-1.55a5.83,5.83,0,0,1,2.14-.75.76.76,0,0,1,.68.22c.34.34.39.74.29,2.24-.15,2.33-.39,3.39-.79,3.54a3,3,0,0,1-1.35.08Z" style="fill: #d2d2d2"/>
    <path d="M561.23,36.08c-.79-.46-1.3-1.46-1.56-3.06-.43-2.63.31-3.78,2.43-3.78a4.45,4.45,0,0,1,1.13.16l.51.16-.78.06a2.85,2.85,0,0,0-2.15.86,2.34,2.34,0,0,0-.49.81,5.31,5.31,0,0,0,.16,2.49,3.45,3.45,0,0,0,2.11,1.93l.36.11-.25.16a2.22,2.22,0,0,1-1.48.12Z" style="fill: #d2d2d2"/>
    <path d="M558,36.43a27.75,27.75,0,0,0-3.07-1.17,32.21,32.21,0,0,0-4-.73V34l2,.28c1.08.16,2.34.31,2.8.34l.83.06.31-.27c.4-.35.53-.7.8-2.1.19-1,.57-3.33.57-3.49s.14,0,.3,0,.3,0,.3.07-.1.75-.23,1.58a11.76,11.76,0,0,0,0,4.67,8.08,8.08,0,0,0,.28,1s0,.17-.28.26l-.37.15a.34.34,0,0,1-.19-.07Z" style="fill: #d2d2d2"/>
    <path d="M558,40.71l-.84-.21a13.75,13.75,0,0,1-3.61-1.67c-2.51-1.49-4.16-2.22-5.32-2.36a.71.71,0,0,1-.49-.13,4.2,4.2,0,0,1,1.23-.7,8.24,8.24,0,0,1,4,.11,28.88,28.88,0,0,1,2.79,1.33c2.82,1.5,3.93,1.84,6.21,2h1.21l-.33.3a6.07,6.07,0,0,1-2,1.14,5.46,5.46,0,0,1-1.65.21,9.75,9.75,0,0,1-1.26,0Z" style="fill: #d2d2d2"/>
    <path d="M558.72,46.9a8.72,8.72,0,0,1-2-.71L556.4,46h1.36a4.75,4.75,0,0,0,3-.67,5.13,5.13,0,0,0,1.7-3.4c.13-.77.21-.75.4.11.53,2.49-.9,4.8-3,4.91a5.23,5.23,0,0,1-1.07,0Z" style="fill: #d2d2d2"/>
    <path d="M580.58,48.91a10.84,10.84,0,0,0-1.28-1.44,7,7,0,0,1-1.86-2.38,5.62,5.62,0,0,1,.14-3.37l.19-.49v.87a3.15,3.15,0,0,0,.73,2.19c.59.66,1,.8,2.59.88,1.78.09,2.07.21,3.72,1.55a12.15,12.15,0,0,0,1.38,1,2,2,0,0,0,1.3.28,2.36,2.36,0,0,0,1.28-.23,1.75,1.75,0,0,1,.5-.19,2.66,2.66,0,0,1-.59.93,2.23,2.23,0,0,1-1.43.72c-.61.06-.84,0-2.3-1.15a7.15,7.15,0,0,0-2.68-1.55c-.85-.22-1.71,0-1.9.46-.11.27-.13.2.39,1.62a1.59,1.59,0,0,1,.1.58c0,.22,0,.2-.33-.25Z" style="fill: #d2d2d2"/>
    <path d="M565.83,62.6c-.13,0,0-.11.35-.35A8.15,8.15,0,0,0,569,59.39a5.29,5.29,0,0,0-.41-5.28,9.29,9.29,0,0,0-1.38-1.79,1.26,1.26,0,0,0,.17.41,2.17,2.17,0,0,1,.2,1.24,2.36,2.36,0,0,1-.28,1.43,1.8,1.8,0,0,1-1,1.08l-.33.14.34-.46a2.39,2.39,0,0,0,.55-1.66,2.27,2.27,0,0,0-1.22-2.21c-.59-.16-1,.37-1.11,1.56l-.07.65-.32-1a14.37,14.37,0,0,1-.76-5c0-5.48,1.94-9.62,5.67-12.08a14.19,14.19,0,0,1,5-2,10.94,10.94,0,0,1,2.79-.19,10.16,10.16,0,0,1,4.36.64c.78.26,3,1,3.06,1.09a5.94,5.94,0,0,1,.16,1,10.73,10.73,0,0,0,1.77,5.19c.39.5.4.55.12.4a1.79,1.79,0,0,1-.5-.49,3.57,3.57,0,0,0-2.06-1.34,2,2,0,0,1-.54-.28c-.15-.15-.08-.32.39-.9s.55-.73.38-1.09-.58-.65-1.46-1.1a7.89,7.89,0,0,0-3.77-.87,8,8,0,0,0-7.4,4.62A12.2,12.2,0,0,0,570,46.42c0,1.71.28,2.72,1.48,5.34a11.55,11.55,0,0,1,1.42,5.09,5,5,0,0,1-1.13,3.33,7.17,7.17,0,0,1-3.36,2.21,7.7,7.7,0,0,1-2.5.21Z" style="fill: #d2d2d2"/>
    <path d="M522.27,75.54a1.92,1.92,0,0,1-.44-.56,3.16,3.16,0,0,1,0-1.62,3.26,3.26,0,0,1,1.45-1.48,6.28,6.28,0,0,0,.85-.6,3.89,3.89,0,0,0,1-2.5v-.42l.27.14a3.81,3.81,0,0,1,1.29,1.38,2.47,2.47,0,0,1,.08,2c-.19.41-.2.42-.23.16a2.44,2.44,0,0,0-.36-1,1,1,0,0,0-.16.44,2.27,2.27,0,0,1-1.74,1.65c-1.2.4-1.69.94-1.64,1.85a3.05,3.05,0,0,0,.1.67c.11.24-.08.18-.44-.13Z" style="fill: #d2d2d2"/>
    <path d="M551.21,78.15a1.14,1.14,0,0,1-.41-.85,3.73,3.73,0,0,1,.17-.8,3.2,3.2,0,0,0,0-1.88,12.87,12.87,0,0,0-.64-1.29,5,5,0,0,1-.79-2.16,8.34,8.34,0,0,1,.73-2.26,9.66,9.66,0,0,0,.82-3.65,5,5,0,0,0-1.21-3.58l-.35-.32H548a5.71,5.71,0,0,1-2.1-.17,6,6,0,0,1-2.46-1.65,7.71,7.71,0,0,0-3.58-2.27,6.23,6.23,0,0,0-3.76.57c-.52.25-.53.24-.89-.53a3,3,0,0,1,0-2.82,5.51,5.51,0,0,1,1.8-1.61c.88-.45.89-.72.12-2.23-1-2-.84-2.77,1-3.63,3.25-1.52,4.18-2,4.7-2.52s.42-.91-.36-1.31a2.23,2.23,0,0,1-1-1.09,1.86,1.86,0,0,1,1-2l.37-.17a1.58,1.58,0,0,1-.08.45c-.14.52-.08.9.15,1a4.64,4.64,0,0,0,1.1.09c1,0,1.57.16,1.75.5a5.39,5.39,0,0,1,.1,1.24c0,1.7.3,2.09,1.94,2.59a10.56,10.56,0,0,1,2.32.91,3.72,3.72,0,0,1,1,.91,1,1,0,0,1-.39-.11,7.92,7.92,0,0,0-3.4-.58c-3.82-.1-7.85.65-8.59,1.6a1.63,1.63,0,0,0-.22,1.15c.07.33.44.78.64.78a2.5,2.5,0,0,0,.7-.47,2.25,2.25,0,0,1,1.91-.78,2.86,2.86,0,0,1,1.62.41,7.71,7.71,0,0,0,2.92.81,5,5,0,0,0,2.73-.57,3.13,3.13,0,0,1,2-.44,2.54,2.54,0,0,1,1.18.54c.09.11,0,.11-.31,0a3.05,3.05,0,0,0-1.54.14A2.53,2.53,0,0,0,549,51.53a3.75,3.75,0,0,1-2.88,2.08,6.36,6.36,0,0,0-.81.24,34.7,34.7,0,0,0,3.42.69,6.27,6.27,0,0,0,2.69-.15,2.66,2.66,0,0,0,1.46-2l.06-.41.1.35a4.26,4.26,0,0,1,0,2.17,4.11,4.11,0,0,1-1.88,1.93,7.26,7.26,0,0,1-4.16.8,1.29,1.29,0,0,0-.52,0c-.1.1.91,1,1.25,1a4.36,4.36,0,0,0,1.25,0,3.71,3.71,0,0,1,1.24.06,2.63,2.63,0,0,1,1.19,1l.21.35a13.35,13.35,0,0,0,1.35-.62c1.33-.65,3.45-1.57,4.65-2l.65-.23.44.49A14.18,14.18,0,0,1,562,63.13a8.16,8.16,0,0,1,0,2.81,5.77,5.77,0,0,1-.79,1.71c-.22.29-.63.62-.69.55a3.42,3.42,0,0,1,.3-.69A4.71,4.71,0,0,0,561,63.7,16.82,16.82,0,0,0,558.17,59l-.4-.46-2.54,1.27c-1.4.7-2.61,1.33-2.69,1.39s-.1.19.55,1.11c1.07,1.51,1.24,2,1,2.83a7,7,0,0,1-.62,1.28c-.92,1.52-1.2,2.93-1.13,5.76,0,2.27.21,3.24.6,3.68s.93.59,2.24.82c1.16.2,1.67.37,1.62.54a1.61,1.61,0,0,1-.59.32,4.23,4.23,0,0,1-1.72.22,5.32,5.32,0,0,0-1.76.2,2.21,2.21,0,0,1-1.46.1Z" style="fill: #d2d2d2"/>
    <path d="M598.75,88a8.17,8.17,0,0,1-2.15-2c-.23-.45-.23-.72,0-1.6a4.07,4.07,0,0,0,0-2.19,6,6,0,0,0-.57-.91,2.58,2.58,0,0,1-.73-2.23l.06-.84-.63-1.82c-.92-2.68-1.54-3.89-2.19-4.29-.43-.26-.71-.22-1.44.25a10.22,10.22,0,0,1-9.36,1.18c-1.72-.62-3.29-1.78-3.29-2.45,0-.3.7-.81,2.16-1.57a19,19,0,0,0,1.79-1c.7-.54.76-.87.47-2.54a14.4,14.4,0,0,1,0-4.24,21.32,21.32,0,0,0-.39-7,3.88,3.88,0,0,1-.14-.72,26.08,26.08,0,0,1,2.58,2.64,18.66,18.66,0,0,1,2.94,4.72,18.41,18.41,0,0,1,.57,1.86c.46,1.84.88,2.52,1.57,2.52.5,0,.94-.34,2.34-1.8,1.54-1.62,1.82-1.79,2.48-1.54.83.32,1.7,1.53,3.23,4.52,2.38,4.63,4.44,10.08,4.34,11.46,0,.66-.4.57-1.91-.49-1.14-.79-1.49-1.11-1.7-1.54a2.77,2.77,0,0,1,0-1.87,4.54,4.54,0,0,0-.64-3.59,50,50,0,0,0-3.16-4c-.77-.66-1.33-.43-2.9,1.18-1,1-1,1-.89,1.47s.11.35.37.31.71-.08,1.25-.11a2.84,2.84,0,0,1,1.37.1c.37.14.43.2.66.73a42,42,0,0,1,1.62,5.07,35.94,35.94,0,0,0,1.68,5.16c1.45,3.58,2.18,6.47,1.84,7.29-.18.43-.44.43-1.18,0Z" style="fill: #d2d2d2"/>
    <path d="M583.37,88.93a10.07,10.07,0,0,1-1.14-.89,6.78,6.78,0,0,0-2.82-1.58,11.12,11.12,0,0,1-1.41-.57,1.68,1.68,0,0,1-.71-2.18c.32-.74.14-1.44-.82-3.33-.56-1.1-2.08-3.22-19.84-27.83l-19.5-27-.26-.36.3-.23.3-.23,2,2.75c8.65,12,44.15,61.15,44.32,61.37s.13.37-.39.07Z" style="fill: #d2d2d2"/>
    <path d="M578.61,92.48c0-.19-.16-.7-.23-1.14-.24-1.43-.64-2.14-1.31-2.37-.26-.09-.45-.06-1.44.22-2.34.65-3.09.57-5-.55-.84-.49-1.25-.61-1.57-.46s-.5.46-.52,1.69a8.55,8.55,0,0,1-.11,1.36c-.23.58-.72.7-2,.48a50.64,50.64,0,0,1-5-1.29,9.52,9.52,0,0,0-1-.28,3.37,3.37,0,0,0,.19.64c.23.67.21.89-.08.89a8.12,8.12,0,0,1-2.64-1.8c-.86-.8-.47-1.1,1.28-1a6.79,6.79,0,0,1,2.86.7c2,.88,4,1.07,4,.38a2.69,2.69,0,0,0-.11-.75,1.82,1.82,0,0,1,.55-2.16c.63-.64.59-1-.19-2.08l-.39-.53.22-.1a5.59,5.59,0,0,1,1.76-.35,5,5,0,0,1,3.32,1.32,5.44,5.44,0,0,0,2.21,1.23,7.54,7.54,0,0,0,2.32.09,5.47,5.47,0,0,1,2.13.11c.64.28.94.88,1.1,2.18a13.19,13.19,0,0,1-.21,3.38l-.11.56Z" style="fill: #d2d2d2"/>
    <path d="M550.41,96.5a7.73,7.73,0,0,0-2-1.8c-.59-.31-.68-.49-.29-.58s.57,0,2.39.41c2.27.55,3.17.48,3.47-.25a1.3,1.3,0,0,0-.24-1.29,6.88,6.88,0,0,0-2.37-1.82c-1.33-.77-1.58-.95-1.68-1.23s0-.55.81-1.55A9.25,9.25,0,0,0,552,86c.23-.55.28-1.24.1-1.24a7,7,0,0,0-1.69,1.87,5.25,5.25,0,0,1-1.84,1.79,5.07,5.07,0,0,1-3.59.38,13.55,13.55,0,0,0-3.52,0,5,5,0,0,0-3.09,2.63L538,92l.06-.65a5.84,5.84,0,0,1,2.84-4.88c1.11-.54,1.85-.61,4.39-.45A3.83,3.83,0,0,0,547,86a2.86,2.86,0,0,0,1.63-1.26,14.23,14.23,0,0,0,.65-1.66,6.34,6.34,0,0,1,1.27-2.55,4.51,4.51,0,0,1,3-1.26,20.83,20.83,0,0,1,2.22.7c3.37,1.14,4.67,1.3,9.56,1.22,1.83,0,4-.08,4.91-.11,1.57-.06,1.58-.06,1.58.13a.22.22,0,0,1-.19.23q-12,2.81-14.5,5.3c-.4.4-1.57,1.84-2.33,2.87a1.67,1.67,0,0,0,0,2.33,13.66,13.66,0,0,0,2.66,2.68c.78.5,1.08.78,1.08,1,0,.43-1,.65-3.78.85-1,.08-2.28.19-2.75.26-1.31.19-1.37.18-1.65-.22Z" style="fill: #d2d2d2"/>
    <path d="M544.29,102.43a2.19,2.19,0,0,1-1.45-1.95,2,2,0,0,1,.15-.78c.22-.43,1-.94.84-.54a1.51,1.51,0,0,0,.11,1.68c.48.54,1.41.4,2.13-.33l.39-.4.1.25a1.51,1.51,0,0,1-1.47,2.19,3,3,0,0,1-.81-.13Z" style="fill: #d2d2d2"/>
    <path d="M582,103.14a3.53,3.53,0,0,1-1.28-.69c-.09-.11,0-.13.66-.19,2.61-.22,3.85-1.23,3.73-3.06a5.19,5.19,0,0,0-.45-1.62c-.23-.57-.55-1.43-.72-1.9a10.33,10.33,0,0,0-1.73-3.15c-1-1.35-1.13-1.66-1-2.33.2-.93.63-1,1.16-.25a4.73,4.73,0,0,0,1.6,1.49,1.36,1.36,0,0,1,.74.74,1.25,1.25,0,0,1,.19.92,1.83,1.83,0,0,0,.1.9,34.78,34.78,0,0,0,1.58,3.45,3.38,3.38,0,0,1-.67,4.54,4.2,4.2,0,0,1-3.91,1.15Z" style="fill: #d2d2d2"/>
    <path d="M533.88,104.72c-.23-.18-.24-.21-.19-.76a7.21,7.21,0,0,0,.06-2.45,8.83,8.83,0,0,0-1.07-2.34A11.8,11.8,0,0,1,531,95.1a9.5,9.5,0,0,1,0-3.23,3.58,3.58,0,0,0,.14-.69,7.64,7.64,0,0,1,.5-3.8,8.61,8.61,0,0,1,1.71-2.55,6.76,6.76,0,0,0,1.56-2.45,5.19,5.19,0,0,0,0-2.92c-.17-.55-.17-.7,0-.7a3.47,3.47,0,0,1,.65,1.55,4.75,4.75,0,0,1,.09,1.43A6.33,6.33,0,0,1,534,85.51a6.76,6.76,0,0,0-1.27,2.21,5.26,5.26,0,0,0-.29,1.57,4,4,0,0,0,.6-.46c.3-.28,1.23-1.05,2.06-1.72a30.57,30.57,0,0,0,2.51-2.21c1.27-1.27,1.45-1.62,1.58-3,.14-1.58,0-2.86-.71-6.11a12.43,12.43,0,0,1-.32-3V71l-.29.59c-.78,1.6-2.58,3.08-5.49,4.5l-2.49,1.21a5.61,5.61,0,0,0-3.09,3.31,4.21,4.21,0,0,0-.26,2,7.65,7.65,0,0,0,.56,3.11l.16.44-.56-.61c-1.94-2.08-3-4.79-2.72-6.93A7.11,7.11,0,0,1,525.53,75a15.24,15.24,0,0,1,2.75-2.44c2.57-2,3.39-3.21,3.85-5.86a5.64,5.64,0,0,1,1.6-3.53,4.66,4.66,0,0,1,3.52-1.23,10.23,10.23,0,0,1,4.4,1c.53.29.56.29-1-.06a10,10,0,0,0-3.39-.21,4,4,0,0,0-2.83,2,12.91,12.91,0,0,0-.57,1.94,9.78,9.78,0,0,1-1,3,11.11,11.11,0,0,1-3.25,3.57l-1.49,1.11a10.21,10.21,0,0,0-2.27,2.43,8.38,8.38,0,0,0-.58,1.27,4.14,4.14,0,0,0-.24,1.77,5.07,5.07,0,0,0,.14,1.47c.15.44.16.43.31-.61a6.2,6.2,0,0,1,1.73-3.29,9.9,9.9,0,0,1,3.31-2.23c2.76-1.34,3.54-2.23,4.57-5.21a9.91,9.91,0,0,1,1.17-2.67,6.64,6.64,0,0,1,4.58-2.84,14,14,0,0,1,4.27.14,13.64,13.64,0,0,1,2.91.94l.29.18h-.66a7.22,7.22,0,0,0-5,1.9A7.18,7.18,0,0,0,541.44,70a8.28,8.28,0,0,0-.19,2.55,18.73,18.73,0,0,0,.33,4,18.94,18.94,0,0,1,.34,3.64,6.4,6.4,0,0,1-.6,3.32c-.76,1.67-2,2.92-4.49,4.38-.62.37-1.39.86-1.71,1.1A10.14,10.14,0,0,0,533,91.33l-.29.48.23.49a4.82,4.82,0,0,0,1.64,1.78c1.19.68,2.54.75,4.89.25A10.39,10.39,0,0,1,542.4,94a8.87,8.87,0,0,1,5.25,1.39,5.65,5.65,0,0,1,2.71,5.36,4.82,4.82,0,0,1-1.1,2.61c-.41.5-1.2,1.1-1.37,1s0-.16.32-.56a4.21,4.21,0,0,0,.69-5.6,7.09,7.09,0,0,0-4-2.65,7,7,0,0,0-2.25-.19,9,9,0,0,0-2.9.33A8.36,8.36,0,0,1,536,96a6.37,6.37,0,0,1-3.3-1.79l-.51-.51v.44a7,7,0,0,0,1.43,3.76,10.74,10.74,0,0,0,1.12,1.19,16.71,16.71,0,0,1,2.59,3.18c.87,1.29,1.06,1.7.93,2s-.35.46-2.3.52c-1.79.05-1.83.05-2.06-.13Z" style="fill: #d2d2d2"/>
    <path d="M586.86,106.74a10.37,10.37,0,0,0,3.11-5.81,30.63,30.63,0,0,0,.14-5.18c-.23-2.38-.68-3.15-1.84-3.15-.46,0-.52,0-.75-.29a4.54,4.54,0,0,1-.54-1c-.4-1-1.46-3.36-2-4.48-.65-1.3-.65-1.29-.28-1.45a1.09,1.09,0,0,1,1,0c.28.15.47.57.61,1.43a3.31,3.31,0,0,0,1.25,2.39,1.71,1.71,0,0,0,1.08.21c1.06,0,1.4.24,1.82,1.27.33.81,2.1,6.18,2.06,6.23A2.19,2.19,0,0,1,592,97a2,2,0,0,0-.49.12,3.49,3.49,0,0,0,.26.84c.17.44.31.83.31.86a1.15,1.15,0,0,1-.5.12l-.5.06v1.23a5.52,5.52,0,0,1-.61,3,10.22,10.22,0,0,1-4,4.07c-.33.13-.32.11.35-.54Z" style="fill: #d2d2d2"/>
    <path d="M615.92,110.68l-.45-.18.24-.66,17.2-47.21c16.91-46.43,17-46.55,17.17-46.51a3.87,3.87,0,0,1,.57.2l.35.16-17.18,47.2c-12.61,34.63-17.22,47.19-17.32,47.19a3,3,0,0,1-.58-.18Z" style="fill: #d2d2d2"/>
    <g>
      <path d="M663,56.23V45.58h2.12l2.52,7.54q.35,1.05.51,1.58.18-.58.57-1.71l2.55-7.41h1.9V56.23h-1.36V47.31l-3.09,8.91h-1.27l-3.08-9.06v9.06Z" style="fill: #d2d2d2"/>
      <path d="M675.07,51a5.77,5.77,0,0,1,1.42-4.15,4.83,4.83,0,0,1,3.67-1.5,5.1,5.1,0,0,1,2.66.7,4.57,4.57,0,0,1,1.8,2,6.79,6.79,0,0,1,0,5.75,4.48,4.48,0,0,1-1.85,1.94,5.31,5.31,0,0,1-2.59.65,5,5,0,0,1-2.69-.73,4.67,4.67,0,0,1-1.79-2,6,6,0,0,1-.61-2.66Zm1.45,0a4.29,4.29,0,0,0,1,3,3.61,3.61,0,0,0,5.1.11l.11-.11a4.51,4.51,0,0,0,1-3.17,5.39,5.39,0,0,0-.44-2.27,3.32,3.32,0,0,0-1.29-1.5,3.45,3.45,0,0,0-1.9-.54,3.61,3.61,0,0,0-2.58,1,4.59,4.59,0,0,0-1.07,3.43Z" style="fill: #d2d2d2"/>
      <path d="M686.58,52.8l1.33-.12a3,3,0,0,0,.44,1.31,2.46,2.46,0,0,0,1.07.83,4.1,4.1,0,0,0,1.63.31,3.92,3.92,0,0,0,1.42-.24,2,2,0,0,0,.92-.65,1.53,1.53,0,0,0,.31-.92,1.37,1.37,0,0,0-.29-.87,2.14,2.14,0,0,0-1-.63,18.38,18.38,0,0,0-1.9-.52,9.77,9.77,0,0,1-2.06-.67,2.92,2.92,0,0,1-1.14-1,2.47,2.47,0,0,1-.37-1.33,2.69,2.69,0,0,1,.46-1.5,2.82,2.82,0,0,1,1.34-1.07,5.07,5.07,0,0,1,2-.36,5.27,5.27,0,0,1,2.08.38,3,3,0,0,1,1.39,1.12,3.22,3.22,0,0,1,.52,1.68l-1.35.1a2.17,2.17,0,0,0-.74-1.53,2.85,2.85,0,0,0-1.85-.52,3,3,0,0,0-1.87.47,1.4,1.4,0,0,0-.58,1.13,1.21,1.21,0,0,0,.41.94,5.63,5.63,0,0,0,2.12.76,13.91,13.91,0,0,1,2.36.68,3.22,3.22,0,0,1,1.37,1.09,2.63,2.63,0,0,1,.44,1.51,2.91,2.91,0,0,1-.49,1.6,3.23,3.23,0,0,1-1.4,1.17,4.88,4.88,0,0,1-2,.41,6.15,6.15,0,0,1-2.43-.42,3.43,3.43,0,0,1-1.53-1.26,3.63,3.63,0,0,1-.58-1.92Z" style="fill: #d2d2d2"/>
      <path d="M704.59,52.49l1.41.36a4.75,4.75,0,0,1-1.6,2.65,4.39,4.39,0,0,1-2.81.91,5.1,5.1,0,0,1-2.8-.7,4.43,4.43,0,0,1-1.64-2,7.28,7.28,0,0,1-.56-2.85,6.28,6.28,0,0,1,.63-2.9A4.36,4.36,0,0,1,699,46a5.28,5.28,0,0,1,2.59-.65,4.36,4.36,0,0,1,2.69.81,4.22,4.22,0,0,1,1.52,2.29l-1.39.33a3.29,3.29,0,0,0-1.07-1.69,2.86,2.86,0,0,0-1.77-.53,3.46,3.46,0,0,0-2.06.59,3.11,3.11,0,0,0-1.15,1.58,6.33,6.33,0,0,0-.33,2,6.58,6.58,0,0,0,.39,2.37,3,3,0,0,0,1.23,1.51,3.45,3.45,0,0,0,1.81.5,3,3,0,0,0,2-.68,3.49,3.49,0,0,0,1.11-2Z" style="fill: #d2d2d2"/>
      <path d="M707.31,51a5.77,5.77,0,0,1,1.42-4.15,4.83,4.83,0,0,1,3.67-1.5,5.1,5.1,0,0,1,2.66.7,4.57,4.57,0,0,1,1.8,2,6.79,6.79,0,0,1,0,5.75,4.48,4.48,0,0,1-1.86,2,5.31,5.31,0,0,1-2.59.65,5,5,0,0,1-2.69-.73,4.67,4.67,0,0,1-1.79-2,6,6,0,0,1-.61-2.66Zm1.45,0a4.29,4.29,0,0,0,1,3,3.61,3.61,0,0,0,5.1.11L715,54a4.51,4.51,0,0,0,1-3.17,5.39,5.39,0,0,0-.44-2.27,3.32,3.32,0,0,0-1.29-1.5,3.45,3.45,0,0,0-1.9-.54,3.61,3.61,0,0,0-2.58,1,4.59,4.59,0,0,0-1.07,3.43Z" style="fill: #d2d2d2"/>
      <path d="M721.16,56.23l-2.83-10.65h1.45l1.62,7q.26,1.1.45,2.18l.48-2,2-7.19H726L727.58,51a28.55,28.55,0,0,1,.83,3.77q.2-1,.53-2.32l1.67-6.84H732l-2.9,10.62h-1.36l-2.24-8.11q-.28-1-.33-1.25-.17.73-.31,1.25l-2.26,8.11Z" style="fill: #d2d2d2"/>
      <path d="M661.92,74.82,666,64.17h1.52l4.36,10.65h-1.6L669,71.59h-4.45l-1.17,3.22ZM665,70.44h3.61l-1.11-2.95q-.51-1.34-.76-2.21a13.57,13.57,0,0,1-.57,2Z" style="fill: #d2d2d2"/>
      <path d="M678,70.64V69.39h4.51v4a8,8,0,0,1-2.14,1.25,6.4,6.4,0,0,1-2.27.41,6.09,6.09,0,0,1-2.85-.67,4.47,4.47,0,0,1-1.93-1.95,6.12,6.12,0,0,1-.65-2.84,6.6,6.6,0,0,1,.65-2.9,4.34,4.34,0,0,1,1.87-2A5.86,5.86,0,0,1,678,64a5.49,5.49,0,0,1,2.08.38,3.43,3.43,0,0,1,1.47,1,4.62,4.62,0,0,1,.81,1.74l-1.27.35a3.93,3.93,0,0,0-.6-1.28,2.42,2.42,0,0,0-1-.74,3.69,3.69,0,0,0-1.47-.28,4.27,4.27,0,0,0-1.67.3,3.12,3.12,0,0,0-1.14.77,3.73,3.73,0,0,0-.67,1.05,5.57,5.57,0,0,0-.41,2.14,5.23,5.23,0,0,0,.49,2.38A3.16,3.16,0,0,0,676,73.26a4.42,4.42,0,0,0,2,.46,4.77,4.77,0,0,0,1.79-.35,4.67,4.67,0,0,0,1.32-.76v-2Z" style="fill: #d2d2d2"/>
      <path d="M684.62,74.82V64.17h7.7v1.26H686v3.26h5.89v1.25H686v3.62h6.54v1.26Z" style="fill: #d2d2d2"/>
      <path d="M694.51,74.82V64.17H696l5.59,8.36V64.17h1.35V74.82h-1.45l-5.59-8.37v8.37Z" style="fill: #d2d2d2"/>
      <path d="M712.87,71.08l1.41.36a4.75,4.75,0,0,1-1.6,2.65,4.39,4.39,0,0,1-2.81.91,5.1,5.1,0,0,1-2.8-.7,4.43,4.43,0,0,1-1.64-2,7.28,7.28,0,0,1-.56-2.85,6.28,6.28,0,0,1,.63-2.9,4.36,4.36,0,0,1,1.81-1.88A5.28,5.28,0,0,1,709.9,64a4.36,4.36,0,0,1,2.69.81,4.22,4.22,0,0,1,1.52,2.29l-1.39.33a3.29,3.29,0,0,0-1.07-1.69,2.86,2.86,0,0,0-1.77-.53,3.46,3.46,0,0,0-2.06.59,3.11,3.11,0,0,0-1.15,1.58,6.33,6.33,0,0,0-.33,2,6.58,6.58,0,0,0,.39,2.37A3,3,0,0,0,708,73.28a3.45,3.45,0,0,0,1.81.5,3,3,0,0,0,2-.68,3.49,3.49,0,0,0,1.11-2Z" style="fill: #d2d2d2"/>
      <path d="M719,74.82V70.31l-4.1-6.14h1.71l2.1,3.21q.58.9,1.08,1.8.48-.84,1.16-1.88l2-3.13h1.64l-4.25,6.14v4.51Z" style="fill: #d2d2d2"/>
      <path d="M729.39,69.63a5.77,5.77,0,0,1,1.42-4.15,4.83,4.83,0,0,1,3.67-1.5,5.1,5.1,0,0,1,2.66.7,4.57,4.57,0,0,1,1.8,2,6.79,6.79,0,0,1,0,5.75,4.48,4.48,0,0,1-1.85,1.94,5.31,5.31,0,0,1-2.59.65,5,5,0,0,1-2.69-.73,4.67,4.67,0,0,1-1.79-2A6,6,0,0,1,729.39,69.63Zm1.45,0a4.29,4.29,0,0,0,1,3,3.61,3.61,0,0,0,5.1.11l.11-.11a4.51,4.51,0,0,0,1-3.17,5.39,5.39,0,0,0-.44-2.27,3.32,3.32,0,0,0-1.29-1.5,3.45,3.45,0,0,0-1.9-.54,3.61,3.61,0,0,0-2.58,1,4.59,4.59,0,0,0-1.07,3.43Z" style="fill: #d2d2d2"/>
      <path d="M741.45,74.82V64.17h7.18v1.26h-5.77v3.3h5V70h-5v4.84Z" style="fill: #d2d2d2"/>
      <path d="M663.33,93.41V82.76h1.41V93.41Z" style="fill: #d2d2d2"/>
      <path d="M667.2,93.41V82.76h1.45l5.59,8.36V82.76h1.35V93.41h-1.45L668.55,85v8.37Z" style="fill: #d2d2d2"/>
      <path d="M678,93.41V82.76h1.45l5.6,8.36V82.76h1.35V93.41h-1.5L679.3,85v8.37Z" style="fill: #d2d2d2"/>
      <path d="M688.28,88.22a5.77,5.77,0,0,1,1.42-4.15,4.83,4.83,0,0,1,3.67-1.5,5.1,5.1,0,0,1,2.66.7,4.57,4.57,0,0,1,1.8,2,6.79,6.79,0,0,1,0,5.75A4.48,4.48,0,0,1,696,92.94a5.31,5.31,0,0,1-2.59.65,5,5,0,0,1-2.69-.73,4.67,4.67,0,0,1-1.79-2,6,6,0,0,1-.61-2.66Zm1.45,0a4.29,4.29,0,0,0,1,3,3.61,3.61,0,0,0,5.1.11l.11-.11a4.51,4.51,0,0,0,1-3.17,5.39,5.39,0,0,0-.44-2.27,3.32,3.32,0,0,0-1.29-1.5,3.45,3.45,0,0,0-1.9-.54,3.61,3.61,0,0,0-2.58,1,4.59,4.59,0,0,0-1.07,3.43Z" style="fill: #d2d2d2"/>
      <path d="M703.32,93.41,699.2,82.76h1.53l2.77,7.73q.33.93.56,1.74.25-.87.57-1.74l2.88-7.73H709l-4.17,10.65Z" style="fill: #d2d2d2"/>
      <path d="M707.93,93.41,712,82.76h1.52l4.36,10.65h-1.6L715,90.19h-4.4l-1.17,3.22ZM711,89h3.61l-1.11-3q-.51-1.34-.76-2.21a13.57,13.57,0,0,1-.57,2Z" style="fill: #d2d2d2"/>
      <path d="M720.64,93.41V84h-3.51V82.76h8.44V84H722v9.39Z" style="fill: #d2d2d2"/>
      <path d="M727.27,93.41V82.76h1.41V93.41Z" style="fill: #d2d2d2"/>
      <path d="M730.72,88.22a5.77,5.77,0,0,1,1.42-4.15,4.83,4.83,0,0,1,3.67-1.5,5.1,5.1,0,0,1,2.66.7,4.57,4.57,0,0,1,1.8,2,6.79,6.79,0,0,1,0,5.75,4.48,4.48,0,0,1-1.85,2,5.31,5.31,0,0,1-2.59.65,5,5,0,0,1-2.69-.73,4.67,4.67,0,0,1-1.79-2,6,6,0,0,1-.61-2.66Zm1.45,0a4.29,4.29,0,0,0,1,3,3.61,3.61,0,0,0,5.1.11l.11-.11a4.51,4.51,0,0,0,1-3.17,5.39,5.39,0,0,0-.44-2.27,3.32,3.32,0,0,0-1.29-1.5,3.45,3.45,0,0,0-1.9-.54,3.61,3.61,0,0,0-2.58,1,4.59,4.59,0,0,0-1.07,3.43Z" style="fill: #d2d2d2"/>
      <path d="M742.7,93.41V82.76h1.45l5.59,8.36V82.76h1.35V93.41h-1.45L744,85v8.37Z" style="fill: #d2d2d2"/>
      <path d="M753,90l1.33-.12a3,3,0,0,0,.44,1.31,2.46,2.46,0,0,0,1.07.83,4.1,4.1,0,0,0,1.63.31,3.92,3.92,0,0,0,1.42-.24,2,2,0,0,0,.92-.65,1.53,1.53,0,0,0,.31-.92,1.37,1.37,0,0,0-.29-.87,2.14,2.14,0,0,0-1-.63,18.39,18.39,0,0,0-1.9-.52,9.79,9.79,0,0,1-2.06-.67,2.92,2.92,0,0,1-1.14-1,2.47,2.47,0,0,1-.37-1.33,2.69,2.69,0,0,1,.46-1.5,2.82,2.82,0,0,1,1.34-1.07,5.07,5.07,0,0,1,2-.36,5.27,5.27,0,0,1,2.08.38,3,3,0,0,1,1.39,1.12,3.22,3.22,0,0,1,.52,1.68l-1.35.1a2.17,2.17,0,0,0-.74-1.53,2.85,2.85,0,0,0-1.85-.52,3,3,0,0,0-1.87.47,1.4,1.4,0,0,0-.58,1.13,1.21,1.21,0,0,0,.41.94,5.63,5.63,0,0,0,2.12.76,13.9,13.9,0,0,1,2.36.68A3.22,3.22,0,0,1,761,88.89a2.63,2.63,0,0,1,.44,1.51A2.91,2.91,0,0,1,761,92a3.23,3.23,0,0,1-1.4,1.17,4.88,4.88,0,0,1-2,.41,6.15,6.15,0,0,1-2.43-.42,3.43,3.43,0,0,1-1.53-1.26A3.63,3.63,0,0,1,753,90Z" style="fill: #d2d2d2"/>
    </g>
    <g>
      <path d="M225,169.89h5.88l7.44,19.84,7.48-19.84h5.88V199h-3.85V173.44l-7.52,20h-4l-7.52-20V199H225Z" style="fill: #d2d2d2"/>
      <path d="M259.58,169.89h4V199h-4Z" style="fill: #d2d2d2"/>
      <path d="M271.38,169.89h18.44v3.32h-14.5v8.63h13.89v3.32H275.32v10.57h14.84V199H271.38Z" style="fill: #d2d2d2"/>
      <path d="M292.65,169.89h24.67v3.32H307V199h-4V173.21H292.65Z" style="fill: #d2d2d2"/>
    </g>
  </g>
  <g>
    <path d="M636,198.13v-12.2l-11.1-16.6h4.64L635.2,178q1.57,2.44,2.93,4.87,1.3-2.26,3.14-5.09l5.58-8.47h4.44l-11.49,16.6v12.2Z" style="fill: #d2d2d2"/>
    <path d="M664.92,195.56a13.12,13.12,0,0,1-3.79,2.36,10.85,10.85,0,0,1-3.89.69,7.62,7.62,0,0,1-5.29-1.67,5.58,5.58,0,0,1-1.85-4.3,5.72,5.72,0,0,1,.69-2.79,5.88,5.88,0,0,1,1.83-2,8.73,8.73,0,0,1,2.55-1.16,25.26,25.26,0,0,1,3.14-.53,32.33,32.33,0,0,0,6.31-1.22V184a3.9,3.9,0,0,0-1-3,5.92,5.92,0,0,0-4-1.2,6.24,6.24,0,0,0-3.69.88,5.32,5.32,0,0,0-1.75,3.08l-3.46-.47a8.49,8.49,0,0,1,1.55-3.58,6.71,6.71,0,0,1,3.12-2.1,13.77,13.77,0,0,1,4.74-.75,12.54,12.54,0,0,1,4.34.63,5.67,5.67,0,0,1,2.46,1.59,5.49,5.49,0,0,1,1.1,2.4,19.91,19.91,0,0,1,.18,3.26v4.72a52.59,52.59,0,0,0,.22,6.25,8.06,8.06,0,0,0,.9,2.5h-3.69a7.5,7.5,0,0,1-.71-2.57Zm-.29-7.9a26,26,0,0,1-5.78,1.34,13.37,13.37,0,0,0-3.08.71,3.05,3.05,0,0,0-1.39,1.16,3.13,3.13,0,0,0,.57,4,4.65,4.65,0,0,0,3.14.94,7.36,7.36,0,0,0,3.63-.88,5.56,5.56,0,0,0,2.34-2.46,8.54,8.54,0,0,0,.57-3.54Z" style="fill: #d2d2d2"/>
    <path d="M673.71,198.13V177.26h3.18v3a7.5,7.5,0,0,1,6.64-3.44,8.53,8.53,0,0,1,3.46.69,5.39,5.39,0,0,1,2.38,1.77,6.83,6.83,0,0,1,1.1,2.61,20.25,20.25,0,0,1,.2,3.44v12.83h-3.54V185.44a9.44,9.44,0,0,0-.41-3.22,3.34,3.34,0,0,0-1.47-1.71,4.55,4.55,0,0,0-2.46-.65,5.77,5.77,0,0,0-3.91,1.43q-1.63,1.43-1.63,5.44v11.4Z" style="fill: #d2d2d2"/>
    <path d="M709.64,198.13V195.5a6.49,6.49,0,0,1-5.84,3.1,8.23,8.23,0,0,1-4.6-1.38,9.15,9.15,0,0,1-3.24-3.83,13.44,13.44,0,0,1-1.14-5.68,14.76,14.76,0,0,1,1-5.66,8.21,8.21,0,0,1,3.12-3.91,8.35,8.35,0,0,1,4.66-1.36,7,7,0,0,1,5.76,2.87V169.33h3.52v28.8Zm-11.18-10.41q0,4,1.69,6a5.1,5.1,0,0,0,4,2,5,5,0,0,0,3.93-1.89q1.63-1.91,1.63-5.8,0-4.28-1.65-6.29a5.08,5.08,0,0,0-4.07-2,4.93,4.93,0,0,0-4,1.93q-1.57,1.93-1.57,6.07Z" style="fill: #d2d2d2"/>
    <path d="M732.79,191.41l3.65.45a8.92,8.92,0,0,1-3.2,5,10.88,10.88,0,0,1-13.24-1q-2.67-2.83-2.67-7.92,0-5.27,2.71-8.17a9.18,9.18,0,0,1,7-2.91,8.92,8.92,0,0,1,6.84,2.85q2.65,2.85,2.65,8v.94H721a8,8,0,0,0,2,5.27,5.79,5.79,0,0,0,4.36,1.83,5.41,5.41,0,0,0,3.32-1,6.78,6.78,0,0,0,2.18-3.26Zm-11.61-5.72h11.65a7.07,7.07,0,0,0-1.34-3.95,5.42,5.42,0,0,0-4.38-2,5.65,5.65,0,0,0-4.11,1.63,6.48,6.48,0,0,0-1.83,4.36Z" style="fill: #d2d2d2"/>
    <path d="M738.55,198.13l7.62-10.85-7-10h4.42l3.2,4.89q.9,1.4,1.45,2.34.86-1.3,1.59-2.3l3.52-4.93h4.22l-7.21,9.82,7.76,11h-4.34l-4.28-6.48-1.14-1.75-5.48,8.23Z" style="fill: #d2d2d2"/>
  </g>
  <g>
    <path d="M518.24,197l0-20.71-10.53,17.26h-1.91l-10.53-17.13V197h-4V168.58h3.41l12.15,20,12-20h3.41l0,28.42Z" style="fill: #d2d2d2"/>
    <path d="M533.11,196.33a13.12,13.12,0,0,1-4.8-2.58l1.54-3.17a12.85,12.85,0,0,0,4.26,2.38,16,16,0,0,0,5.35.91,9.82,9.82,0,0,0,5.41-1.2,3.67,3.67,0,0,0,1.79-3.19,3.1,3.1,0,0,0-1-2.37,6.58,6.58,0,0,0-2.41-1.4q-1.44-.49-4.06-1.1a42.71,42.71,0,0,1-5.3-1.54,8.76,8.76,0,0,1-3.45-2.38,6.24,6.24,0,0,1-1.44-4.32,7.19,7.19,0,0,1,1.23-4.1,8.39,8.39,0,0,1,3.72-2.92,15.44,15.44,0,0,1,6.2-1.1,20.09,20.09,0,0,1,5.08.65,13.67,13.67,0,0,1,4.29,1.87L548.15,174a15.26,15.26,0,0,0-3.91-1.73,14.93,14.93,0,0,0-4.08-.59,9.16,9.16,0,0,0-5.3,1.26,3.83,3.83,0,0,0-1.77,3.25,3.07,3.07,0,0,0,1,2.38,6.94,6.94,0,0,0,2.48,1.42,39.14,39.14,0,0,0,4,1.08,41.59,41.59,0,0,1,5.28,1.54A8.9,8.9,0,0,1,549.3,185a6.11,6.11,0,0,1,1.44,4.26,7.13,7.13,0,0,1-1.25,4.08,8.32,8.32,0,0,1-3.79,2.92,16,16,0,0,1-6.24,1.08A20.36,20.36,0,0,1,533.11,196.33Z" style="fill: #d2d2d2"/>
    <path d="M559.8,194.08q-3.25-3.25-3.25-9.34V168.58h4.16v16q0,9.14,8.2,9.14a8,8,0,0,0,6.12-2.25q2.12-2.25,2.12-6.88v-16h4v16.16q0,6.13-3.25,9.36t-9.07,3.23Q563,197.33,559.8,194.08Z" style="fill: #d2d2d2"/>
  </g>
</svg>
