<?xml version="1.0" encoding="UTF-8" standalone="no"?>
<svg
   xmlns:dc="http://purl.org/dc/elements/1.1/"
   xmlns:cc="http://creativecommons.org/ns#"
   xmlns:rdf="http://www.w3.org/1999/02/22-rdf-syntax-ns#"
   xmlns:svg="http://www.w3.org/2000/svg"
   xmlns="http://www.w3.org/2000/svg"
   xmlns:sodipodi="http://sodipodi.sourceforge.net/DTD/sodipodi-0.dtd"
   xmlns:inkscape="http://www.inkscape.org/namespaces/inkscape"
   sodipodi:docname="fasie.svg"
   inkscape:version="1.0 (4035a4fb49, 2020-05-01)"
   id="svg8"
   version="1.1"
   viewBox="0 0 176.68564 56.009846"
   height="211.69075"
   width="667.78827">
  <defs
     id="defs2">
    <inkscape:perspective
       id="perspective893"
       inkscape:persp3d-origin="105 : -141.99016 : 1"
       inkscape:vp_z="209.99999 : -92.490165 : 1"
       inkscape:vp_y="0 : 1000 : 0"
       inkscape:vp_x="0 : -92.490165 : 1"
       sodipodi:type="inkscape:persp3d" />
  </defs>
  <sodipodi:namedview
     inkscape:window-maximized="0"
     inkscape:window-y="0"
     inkscape:window-x="0"
     inkscape:window-height="1024"
     inkscape:window-width="1898"
     fit-margin-bottom="0"
     fit-margin-right="0"
     fit-margin-left="0"
     fit-margin-top="0"
     units="px"
     showgrid="false"
     inkscape:document-rotation="0"
     inkscape:current-layer="layer1"
     inkscape:document-units="mm"
     inkscape:cy="258.85731"
     inkscape:cx="743.54537"
     inkscape:zoom="0.49497475"
     inkscape:pageshadow="2"
     inkscape:pageopacity="0.0"
     borderopacity="1.0"
     bordercolor="#666666"
     pagecolor="#ffffff"
     id="base" />
  <metadata
     id="metadata5">
    <rdf:RDF>
      <cc:Work
         rdf:about="">
        <dc:format>image/svg+xml</dc:format>
        <dc:type
           rdf:resource="http://purl.org/dc/dcmitype/StillImage" />
        <dc:title></dc:title>
      </cc:Work>
    </rdf:RDF>
  </metadata>
  <g
     transform="translate(254.2707,-134.11173)"
     id="layer1"
     inkscape:groupmode="layer"
     inkscape:label="Слой 1">
    <path
       d="m -204.51837,147.98274 3.60581,-0.35057 q 0.32552,1.81543 1.31462,2.6668 1.00161,0.85137 2.69183,0.85137 1.79039,0 2.69184,-0.75121 0.91397,-0.76374 0.91397,-1.77786 0,-0.65106 -0.38813,-1.10178 -0.3756,-0.46325 -1.32713,-0.80129 -0.65105,-0.22537 -2.96728,-0.80129 -2.9798,-0.73869 -4.18174,-1.81543 -1.69022,-1.51493 -1.69022,-3.69344 0,-1.40226 0.78877,-2.61672 0.80129,-1.22698 2.29119,-1.86551 1.50242,-0.63852 3.61833,-0.63852 3.45557,0 5.19587,1.51493 1.75282,1.51495 1.84046,4.04402 l -3.70597,0.16276 q -0.23788,-1.41477 -1.02665,-2.02826 -0.77625,-0.62601 -2.34127,-0.62601 -1.6151,0 -2.52908,0.66357 -0.58844,0.42568 -0.58844,1.13933 0,0.65105 0.55088,1.1143 0.70113,0.58844 3.40549,1.22697 2.70436,0.63854 3.99393,1.32714 1.3021,0.67609 2.02827,1.86551 0.73869,1.17689 0.73869,2.9172 0,1.57753 -0.87641,2.95476 -0.87641,1.37721 -2.47899,2.0533 -1.60259,0.66357 -3.99394,0.66357 -3.4806,0 -5.34611,-1.60258 -1.8655,-1.6151 -2.22859,-4.69506 z"
       style="font-style:normal;font-variant:normal;font-weight:bold;font-stretch:normal;font-size:28.5913px;line-height:0.75;font-family:Arial;-inkscape-font-specification:'Arial Bold';letter-spacing:-5.38231px;word-spacing:0px;fill:#aeaeae;fill-opacity:1;stroke:none;stroke-width:0.160258;stroke-opacity:1"
       id="path952" />
    <path
       d="m -191.42898,153.95486 v -18.35457 h 3.51816 v 9.74069 l 4.11914,-4.68254 h 4.33198 l -4.54482,4.85782 4.87034,8.4386 h -3.79361 l -3.34288,-5.97212 -1.64015,1.71526 v 4.25686 z"
       style="font-style:normal;font-variant:normal;font-weight:bold;font-stretch:normal;font-size:28.5913px;line-height:0.75;font-family:Arial;-inkscape-font-specification:'Arial Bold';letter-spacing:-5.38231px;word-spacing:0px;fill:#aeaeae;fill-opacity:1;stroke:none;stroke-width:0.160258;stroke-opacity:1"
       id="path954" />
    <path
       d="m -205.05882,160.96386 1.50243,-0.14607 q 0.13563,0.75643 0.54776,1.11117 0.41734,0.35474 1.1216,0.35474 0.746,0 1.1216,-0.31301 0.38083,-0.31822 0.38083,-0.74078 0,-0.27127 -0.16172,-0.45907 -0.1565,-0.19302 -0.55298,-0.33387 -0.27127,-0.0939 -1.23637,-0.33388 -1.24159,-0.30779 -1.7424,-0.75642 -0.70426,-0.63123 -0.70426,-1.53895 0,-0.58428 0.32865,-1.0903 0.33388,-0.51125 0.95467,-0.77731 0.62601,-0.26605 1.50765,-0.26605 1.43982,0 2.16495,0.63123 0.73035,0.63123 0.76687,1.68501 l -1.54417,0.0678 q -0.0991,-0.58949 -0.42777,-0.84511 -0.32344,-0.26084 -0.97554,-0.26084 -0.67296,0 -1.05378,0.27649 -0.24519,0.17737 -0.24519,0.47472 0,0.27128 0.22954,0.4643 0.29214,0.24518 1.41896,0.51124 1.12682,0.26605 1.66414,0.55297 0.54255,0.28171 0.84512,0.7773 0.30779,0.49038 0.30779,1.21551 0,0.65731 -0.36517,1.23116 -0.36518,0.57384 -1.03292,0.85554 -0.66775,0.27649 -1.66415,0.27649 -1.45026,0 -2.22756,-0.66775 -0.77729,-0.67295 -0.92858,-1.95628 z"
       style="font-style:normal;font-variant:normal;font-weight:bold;font-stretch:normal;font-size:11.9131px;line-height:0.75;font-family:Arial;-inkscape-font-specification:'Arial Bold';letter-spacing:-0.189417px;word-spacing:0px;fill:#aeaeae;fill-opacity:1;stroke:#ababab;stroke-width:0.3;stroke-miterlimit:4;stroke-dasharray:none;stroke-opacity:1"
       id="path956" />
    <path
       d="m -197.76351,163.45225 v -7.64777 h 1.46591 v 4.05864 l 1.71632,-1.95106 h 1.805 l -1.89369,2.0241 2.02932,3.51609 h -1.58068 l -1.39287,-2.48839 -0.6834,0.71469 v 1.7737 z"
       style="font-style:normal;font-variant:normal;font-weight:bold;font-stretch:normal;font-size:11.9131px;line-height:0.75;font-family:Arial;-inkscape-font-specification:'Arial Bold';letter-spacing:-0.189417px;word-spacing:0px;fill:#aeaeae;fill-opacity:1;stroke:#ababab;stroke-width:0.3;stroke-miterlimit:4;stroke-dasharray:none;stroke-opacity:1"
       id="path958" />
    <path
       d="m -192.27319,160.6039 q 0,-0.73034 0.35995,-1.41374 0.35996,-0.6834 1.01727,-1.04335 0.66253,-0.35996 1.47634,-0.35996 1.25724,0 2.06063,0.81903 0.80338,0.81381 0.80338,2.06062 0,1.25725 -0.81382,2.08671 -0.8086,0.82425 -2.03975,0.82425 -0.76165,0 -1.45548,-0.34431 -0.68861,-0.34431 -1.04857,-1.00683 -0.35995,-0.66775 -0.35995,-1.62242 z m 1.50242,0.0782 q 0,0.82426 0.39126,1.26247 0.39126,0.4382 0.9651,0.4382 0.57384,0 0.95989,-0.4382 0.39125,-0.43821 0.39125,-1.2729 0,-0.81381 -0.39125,-1.25202 -0.38605,-0.43821 -0.95989,-0.43821 -0.57384,0 -0.9651,0.43821 -0.39126,0.43821 -0.39126,1.26245 z"
       style="font-style:normal;font-variant:normal;font-weight:bold;font-stretch:normal;font-size:11.9131px;line-height:0.75;font-family:Arial;-inkscape-font-specification:'Arial Bold';letter-spacing:-0.189417px;word-spacing:0px;fill:#aeaeae;fill-opacity:1;stroke:#ababab;stroke-width:0.3;stroke-miterlimit:4;stroke-dasharray:none;stroke-opacity:1"
       id="path960" />
    <path
       d="m -185.57259,163.45225 v -7.64777 h 1.46591 v 7.64777 z"
       style="font-style:normal;font-variant:normal;font-weight:bold;font-stretch:normal;font-size:11.9131px;line-height:0.75;font-family:Arial;-inkscape-font-specification:'Arial Bold';letter-spacing:-0.189417px;word-spacing:0px;fill:#aeaeae;fill-opacity:1;stroke:#ababab;stroke-width:0.3;stroke-miterlimit:4;stroke-dasharray:none;stroke-opacity:1"
       id="path962" />
    <path
       d="m -182.83151,163.45225 v -7.64777 h 1.46591 v 4.05864 l 1.71631,-1.95106 h 1.805 l -1.89368,2.0241 2.02932,3.51609 h -1.58068 l -1.39288,-2.48839 -0.68339,0.71469 v 1.7737 z"
       style="font-style:normal;font-variant:normal;font-weight:bold;font-stretch:normal;font-size:11.9131px;line-height:0.75;font-family:Arial;-inkscape-font-specification:'Arial Bold';letter-spacing:-0.189417px;word-spacing:0px;fill:#aeaeae;fill-opacity:1;stroke:#ababab;stroke-width:0.3;stroke-miterlimit:4;stroke-dasharray:none;stroke-opacity:1"
       id="path964" />
    <path
       d="m -177.3412,160.6039 q 0,-0.73034 0.35996,-1.41374 0.35995,-0.6834 1.01727,-1.04335 0.66252,-0.35996 1.47634,-0.35996 1.25724,0 2.06062,0.81903 0.80338,0.81381 0.80338,2.06062 0,1.25725 -0.81381,2.08671 -0.8086,0.82425 -2.03976,0.82425 -0.76164,0 -1.45547,-0.34431 -0.68862,-0.34431 -1.04857,-1.00683 -0.35996,-0.66775 -0.35996,-1.62242 z m 1.50243,0.0782 q 0,0.82426 0.39126,1.26247 0.39125,0.4382 0.9651,0.4382 0.57384,0 0.95988,-0.4382 0.39126,-0.43821 0.39126,-1.2729 0,-0.81381 -0.39126,-1.25202 -0.38604,-0.43821 -0.95988,-0.43821 -0.57385,0 -0.9651,0.43821 -0.39126,0.43821 -0.39126,1.26245 z"
       style="font-style:normal;font-variant:normal;font-weight:bold;font-stretch:normal;font-size:11.9131px;line-height:0.75;font-family:Arial;-inkscape-font-specification:'Arial Bold';letter-spacing:-0.189417px;word-spacing:0px;fill:#aeaeae;fill-opacity:1;stroke:#ababab;stroke-width:0.3;stroke-miterlimit:4;stroke-dasharray:none;stroke-opacity:1"
       id="path966" />
    <path
       d="m -169.11729,163.45225 -2.23278,-5.54019 h 1.53895 l 1.04336,2.82748 0.30257,0.94423 q 0.11999,-0.35995 0.15129,-0.47472 0.073,-0.23476 0.1565,-0.46951 l 1.05379,-2.82748 h 1.50766 l -2.20149,5.54019 z"
       style="font-style:normal;font-variant:normal;font-weight:bold;font-stretch:normal;font-size:11.9131px;line-height:0.75;font-family:Arial;-inkscape-font-specification:'Arial Bold';letter-spacing:-0.189417px;word-spacing:0px;fill:#aeaeae;fill-opacity:1;stroke:#ababab;stroke-width:0.3;stroke-miterlimit:4;stroke-dasharray:none;stroke-opacity:1"
       id="path968" />
    <path
       d="m -165.20242,160.6039 q 0,-0.73034 0.35996,-1.41374 0.35996,-0.6834 1.01728,-1.04335 0.66253,-0.35996 1.47635,-0.35996 1.25725,0 2.06063,0.81903 0.80339,0.81381 0.80339,2.06062 0,1.25725 -0.81382,2.08671 -0.8086,0.82425 -2.03977,0.82425 -0.76165,0 -1.45548,-0.34431 -0.68862,-0.34431 -1.04858,-1.00683 -0.35996,-0.66775 -0.35996,-1.62242 z m 1.50244,0.0782 q 0,0.82426 0.39126,1.26247 0.39126,0.4382 0.96511,0.4382 0.57384,0 0.95988,-0.4382 0.39126,-0.43821 0.39126,-1.2729 0,-0.81381 -0.39126,-1.25202 -0.38604,-0.43821 -0.95988,-0.43821 -0.57385,0 -0.96511,0.43821 -0.39126,0.43821 -0.39126,1.26245 z"
       style="font-style:normal;font-variant:normal;font-weight:bold;font-stretch:normal;font-size:11.9131px;line-height:0.75;font-family:Arial;-inkscape-font-specification:'Arial Bold';letter-spacing:-0.189417px;word-spacing:0px;fill:#aeaeae;fill-opacity:1;stroke:#ababab;stroke-width:0.3;stroke-miterlimit:4;stroke-dasharray:none;stroke-opacity:1"
       id="path970" />
    <path
       d="m -100.52701,157.03867 0.002,7.31081 h 2.064331 v -7.3106 h -2.065311 z m -16.24247,-0.009 v 7.32057 h 2.08308 v -5.55877 l 1.61379,4.4e-4 c 0.53453,0 0.91518,0.13299 1.17279,0.40777 0.32673,0.34803 0.45994,0.90911 0.45994,1.93581 v 3.2146 h 2.01825 v -4.04462 c 0,-2.8867 -1.84014,-3.27615 -3.64043,-3.27615 h -3.70742 z m 19.566874,0.009 v 7.31061 h 3.34902 c 1.784264,0 2.366454,-0.29686 2.996296,-0.96205 0.445292,-0.46714 0.732953,-1.49247 0.732953,-2.61289 0,-1.02745 -0.243529,-1.9444 -0.668289,-2.51525 -0.765013,-1.02081 -1.86708,-1.22042 -3.512106,-1.22042 z m 2.048114,1.5917 h 0.887846 c 1.287803,0 2.12096,0.57846 2.12096,2.07913 0,1.50108 -0.833157,2.07936 -2.12096,2.07936 h -0.887846 v -4.15831 z m -8.349508,-1.5917 -1.72315,5.79411 -1.65126,-5.7937 -2.22879,-4.5e-4 2.35808,7.31061 h 2.976 l 2.37663,-7.31059 h -2.10732 z m 14.340354,7.31061 h 2.065114 v -7.31006 l -2.065491,-4.2e-4 z m 5.788138,-7.30806 -2.883226,7.30554 h 2.036003 l 0.456228,-1.29133 h 3.411912 l 0.4316,1.29133 h 2.210814 l -2.905299,-7.30614 -2.758032,0.002 z m 1.340337,1.33291 1.250719,3.42241 h -2.540868 z m -21.221579,-18.46032 v -1.75632 a 13.227175,13.227175 0 0 1 0.51814,-0.0264 c 4.80363,-0.15097 7.955192,4.12743 7.955192,4.12743 0,0 -3.403691,4.72741 -7.053282,4.72741 -0.52575,0 -0.99603,-0.0847 -1.42005,-0.22696 v -5.32578 c 1.87002,0.22576 2.24598,1.05188 3.370521,2.92597 l 2.500434,-2.10825 c 0,0 -1.825086,-2.39396 -4.902055,-2.39396 -0.33495,0 -0.65485,0.0235 -0.9689,0.057 z m 0,-5.80175 v 2.62346 c 0.17227,-0.0135 0.34491,-0.0247 0.51814,-0.031 6.680275,-0.22497 11.032349,5.47851 11.032349,5.47851 0,0 -4.999108,6.07847 -10.206799,6.07847 -0.47713,0 -0.92379,-0.0438 -1.34369,-0.11834 v 1.62156 c 0.35898,0.0457 0.73084,0.0726 1.11908,0.0726 4.846393,0 8.351072,-2.47482 11.745,-5.40412 0.562266,0.45058 2.866037,1.54657 3.339642,2.02683 -3.226951,2.70135 -10.747,4.87854 -15.010232,4.87854 a 12.387781,12.387781 0 0 1 -1.19349,-0.0621 v 2.27913 h 18.420004 v -19.44387 h -18.419804 z m 0,12.64676 v 1.38466 c -4.48256,-0.79935 -5.72664,-5.45857 -5.72664,-5.45857 0,0 2.15224,-2.3846 5.72664,-2.7711 v 1.51922 c -0.002,0 -0.004,-6.2e-4 -0.007,-6.2e-4 -1.87568,-0.22537 -3.34121,1.52722 -3.34121,1.52722 0,0 0.82105,2.95018 3.34825,3.79934 z m -7.96127,-4.27606 c 0,0 2.65649,-3.92021 7.96127,-4.32547 v -1.42177 c -5.87545,0.47146 -10.96346,5.44747 -10.96346,5.44747 0,0 2.88149,8.33102 10.96366,9.09367 v -1.5116 c -5.93091,-0.74642 -7.96147,-7.2823 -7.96147,-7.2823 z"
       fill-rule="evenodd"
       id="path2"
       style="fill:#aeaeae;fill-opacity:1;stroke:none;stroke-width:0.195299;stroke-opacity:1" />
    <path
       inkscape:transform-center-y="7.4311073e-06"
       inkscape:transform-center-x="-0.00010622905"
       sodipodi:nodetypes="ccccc"
       d="m -146.1926,149.6228 -6.94479,4.86982 -0.0366,-19.76719 7.00537,4.94484 z"
       style="fill:#aeaeae;fill-opacity:1;stroke:none;stroke-width:0.11693;stroke-linejoin:round;stroke-opacity:1"
       id="path909" />
    <path
       inkscape:transform-center-x="9.5073833e-05"
       id="path909-3"
       style="fill:#aeaeae;fill-opacity:1;stroke:none;stroke-width:0.11693;stroke-linejoin:round;stroke-opacity:1"
       inkscape:transform-center-y="1.3670558e-05"
       d="m -129.9186,139.67027 6.94485,-4.86984 0.0366,19.76718 -7.00541,-4.94481 z"
       sodipodi:nodetypes="ccccc" />
    <g
       transform="matrix(0.83731811,0,0,0.83731811,-227.12489,39.820997)"
       style="font-size:11.1337px;line-height:1.25;font-family:sans-serif;fill:#aeaeae;fill-opacity:1;stroke:#ababab;stroke-width:0.286629;stroke-miterlimit:4;stroke-dasharray:none;stroke-opacity:1"
       id="text929"
       aria-label="ASI">
      <path
         id="path973"
         style="font-style:normal;font-variant:normal;font-weight:bold;font-stretch:normal;font-family:sans-serif;-inkscape-font-specification:'sans-serif Bold';fill:#aeaeae;fill-opacity:1;stroke:#ababab;stroke-width:0.286629;stroke-miterlimit:4;stroke-dasharray:none;stroke-opacity:1"
         d="m 102.30679,146.48829 h -3.272695 l -0.516455,1.47869 h -2.103878 l 3.006316,-8.11651 h 2.495302 l 3.00631,8.11651 h -2.10388 z m -2.750802,-1.50588 h 2.223482 l -1.10903,-3.22921 z" />
      <path
         id="path975"
         style="font-style:normal;font-variant:normal;font-weight:bold;font-stretch:normal;font-family:sans-serif;-inkscape-font-specification:'sans-serif Bold';fill:#aeaeae;fill-opacity:1;stroke:#ababab;stroke-width:0.286629;stroke-miterlimit:4;stroke-dasharray:none;stroke-opacity:1"
         d="m 111.64105,140.10598 v 1.71789 q -0.66867,-0.299 -1.30473,-0.45122 -0.63605,-0.15221 -1.20144,-0.15221 -0.75022,0 -1.10902,0.20658 -0.3588,0.20658 -0.3588,0.64149 0,0.32618 0.2392,0.51102 0.24464,0.1794 0.8807,0.30987 l 0.89156,0.1794 q 1.35366,0.27182 1.92448,0.82633 0.57082,0.55451 0.57082,1.57655 0,1.34279 -0.79915,2.00059 -0.79371,0.65236 -2.43006,0.65236 -0.77196,0 -1.54937,-0.14678 -0.7774,-0.14678 -1.5548,-0.43491 v -1.76682 q 0.7774,0.41316 1.50044,0.62518 0.72847,0.20659 1.40258,0.20659 0.68499,0 1.04923,-0.22833 0.36423,-0.22833 0.36423,-0.65237 0,-0.38054 -0.25007,-0.58713 -0.24464,-0.20658 -0.98398,-0.36967 l -0.81002,-0.1794 q -1.21775,-0.26095 -1.78314,-0.83177 -0.55994,-0.57082 -0.55994,-1.53849 0,-1.21231 0.78283,-1.86468 0.78284,-0.65236 2.25067,-0.65236 0.66867,0 1.3754,0.10329 0.70673,0.0978 1.46238,0.299 z" />
      <path
         id="path977"
         style="font-style:normal;font-variant:normal;font-weight:bold;font-stretch:normal;font-family:sans-serif;-inkscape-font-specification:'sans-serif Bold';fill:#aeaeae;fill-opacity:1;stroke:#ababab;stroke-width:0.286629;stroke-miterlimit:4;stroke-dasharray:none;stroke-opacity:1"
         d="m 114.01675,139.85047 h 2.09301 v 8.11651 h -2.09301 z" />
    </g>
    <g
       transform="translate(-329.67132,17.311309)"
       style="font-size:11.0181px;line-height:1.25;font-family:sans-serif;fill:#aeaeae;fill-opacity:1;stroke:#ababab;stroke-width:0.165271;stroke-opacity:1"
       id="text933"
       aria-label="NTI 20.35">
      <path
         id="path935"
         style="font-style:normal;font-variant:normal;font-weight:bold;font-stretch:normal;font-family:sans-serif;-inkscape-font-specification:'sans-serif Bold';fill:#aeaeae;fill-opacity:1;stroke:#ababab;stroke-width:0.165271;stroke-opacity:1"
         d="m 76.58029,162.52428 h 2.313371 l 2.921302,5.50905 v -5.50905 h 1.963675 v 8.03224 h -2.31337 l -2.921303,-5.50905 v 5.50905 H 76.58029 Z" />
      <path
         id="path937"
         style="font-style:normal;font-variant:normal;font-weight:bold;font-stretch:normal;font-family:sans-serif;-inkscape-font-specification:'sans-serif Bold';fill:#aeaeae;fill-opacity:1;stroke:#ababab;stroke-width:0.165271;stroke-opacity:1"
         d="m 84.854624,162.52428 h 7.402786 v 1.56556 h -2.663066 v 6.46668 H 87.52307 v -6.46668 h -2.668446 z" />
      <path
         id="path939"
         style="font-style:normal;font-variant:normal;font-weight:bold;font-stretch:normal;font-family:sans-serif;-inkscape-font-specification:'sans-serif Bold';fill:#aeaeae;fill-opacity:1;stroke:#ababab;stroke-width:0.165271;stroke-opacity:1"
         d="m 93.322638,162.52428 h 2.071273 v 8.03224 h -2.071273 z" />
      <path
         id="path941"
         style="font-style:normal;font-variant:normal;font-weight:bold;font-stretch:normal;font-family:sans-serif;-inkscape-font-specification:'sans-serif Bold';fill:#aeaeae;fill-opacity:1;stroke:#ababab;stroke-width:0.165271;stroke-opacity:1"
         d="m 103.42615,169.034 h 3.53461 v 1.52252 h -5.83722 V 169.034 l 2.93206,-2.58775 q 0.39274,-0.35507 0.58103,-0.69401 0.1883,-0.33894 0.1883,-0.70477 0,-0.56489 -0.38197,-0.90921 -0.3766,-0.34432 -1.00605,-0.34432 -0.4842,0 -1.05985,0.20982 -0.57565,0.20444 -1.232,0.61331 v -1.76461 q 0.69939,-0.23134 1.38264,-0.3497 0.68325,-0.12374 1.3396,-0.12374 1.44183,0 2.23805,0.63483 0.80161,0.63484 0.80161,1.77 0,0.65635 -0.33893,1.22663 -0.33894,0.56489 -1.42568,1.51714 z" />
      <path
         id="path943"
         style="font-style:normal;font-variant:normal;font-weight:bold;font-stretch:normal;font-family:sans-serif;-inkscape-font-specification:'sans-serif Bold';fill:#aeaeae;fill-opacity:1;stroke:#ababab;stroke-width:0.165271;stroke-opacity:1"
         d="m 112.98091,166.53233 q 0,-1.50638 -0.28514,-2.11969 -0.27976,-0.6187 -0.94687,-0.6187 -0.66711,0 -0.95225,0.6187 -0.28513,0.61331 -0.28513,2.11969 0,1.52252 0.28513,2.14659 0.28514,0.62407 0.95225,0.62407 0.66173,0 0.94687,-0.62407 0.28514,-0.62407 0.28514,-2.14659 z m 2.07127,0.0161 q 0,1.99595 -0.86079,3.0827 -0.86079,1.08137 -2.44249,1.08137 -1.58708,0 -2.44787,-1.08137 -0.86079,-1.08675 -0.86079,-3.0827 0,-2.00133 0.86079,-3.0827 0.86079,-1.08675 2.44787,-1.08675 1.5817,0 2.44249,1.08675 0.86079,1.08137 0.86079,3.0827 z" />
      <path
         id="path945"
         style="font-style:normal;font-variant:normal;font-weight:bold;font-stretch:normal;font-family:sans-serif;-inkscape-font-specification:'sans-serif Bold';fill:#aeaeae;fill-opacity:1;stroke:#ababab;stroke-width:0.165271;stroke-opacity:1"
         d="m 116.69844,168.47449 h 1.93678 v 2.08203 h -1.93678 z" />
      <path
         id="path947"
         style="font-style:normal;font-variant:normal;font-weight:bold;font-stretch:normal;font-family:sans-serif;-inkscape-font-specification:'sans-serif Bold';fill:#aeaeae;fill-opacity:1;stroke:#ababab;stroke-width:0.165271;stroke-opacity:1"
         d="m 124.90284,166.22567 q 0.81237,0.20982 1.232,0.73167 0.42502,0.51648 0.42502,1.31809 0,1.19434 -0.91459,1.81841 -0.91459,0.6187 -2.66845,0.6187 -0.61869,0 -1.24276,-0.10222 -0.6187,-0.0968 -1.22663,-0.2959 v -1.59784 q 0.58104,0.29052 1.15131,0.44116 0.57565,0.14525 1.12978,0.14525 0.82313,0 1.25891,-0.28513 0.44115,-0.28514 0.44115,-0.81775 0,-0.54875 -0.45191,-0.82851 -0.44654,-0.28514 -1.32347,-0.28514 h -0.8285 v -1.33422 h 0.87154 q 0.78009,0 1.16207,-0.2421 0.38197,-0.24747 0.38197,-0.74781 0,-0.46267 -0.37121,-0.71553 -0.37122,-0.25286 -1.04909,-0.25286 -0.50033,0 -1.01142,0.11298 -0.5111,0.11298 -1.01681,0.33356 v -1.51714 q 0.61331,-0.17216 1.21586,-0.25824 0.60256,-0.0861 1.18359,-0.0861 1.56556,0 2.34027,0.51648 0.78009,0.51109 0.78009,1.54404 0,0.70477 -0.37122,1.15668 -0.37121,0.44654 -1.0975,0.62945 z" />
      <path
         id="path949"
         style="font-style:normal;font-variant:normal;font-weight:bold;font-stretch:normal;font-family:sans-serif;-inkscape-font-specification:'sans-serif Bold';fill:#aeaeae;fill-opacity:1;stroke:#ababab;stroke-width:0.165271;stroke-opacity:1"
         d="m 128.59885,162.52428 h 5.14859 v 1.52252 h -3.49695 v 1.24277 q 0.23672,-0.0646 0.47343,-0.0968 0.2421,-0.0377 0.50034,-0.0377 1.46872,0 2.28647,0.73705 0.81775,0.73167 0.81775,2.04437 0,1.30195 -0.89307,2.039 -0.88769,0.73705 -2.46939,0.73705 -0.68325,0 -1.35574,-0.1345 -0.66712,-0.12912 -1.32885,-0.39812 v -1.63012 q 0.65635,0.3766 1.24277,0.5649 0.59179,0.18829 1.11364,0.18829 0.75319,0 1.18359,-0.36583 0.43577,-0.37122 0.43577,-1.00067 0,-0.63483 -0.43577,-1.00067 -0.4304,-0.36583 -1.18359,-0.36583 -0.44653,0 -0.95224,0.11836 -0.50572,0.11298 -1.08675,0.35507 z" />
    </g>
    <g
       transform="translate(-71.437539,-10.583334)"
       style="font-size:11.4712px;line-height:1.25;font-family:sans-serif;fill:#aeaeae;fill-opacity:1;stroke:none;stroke-width:0.172067;stroke-opacity:1"
       id="text982"
       aria-label="FASIE">
      <path
         id="path1113"
         style="font-style:normal;font-variant:normal;font-weight:bold;font-stretch:normal;font-family:sans-serif;-inkscape-font-specification:'sans-serif Bold';fill:#aeaeae;fill-opacity:1;stroke:none;stroke-width:0.172067;stroke-opacity:1"
         d="m -182.83316,148.00256 h 5.81961 v 1.62994 h -3.66316 v 1.55713 h 3.44472 v 1.62994 h -3.44472 v 3.54554 h -2.15645 z" />
      <path
         id="path1115"
         style="font-style:normal;font-variant:normal;font-weight:bold;font-stretch:normal;font-family:sans-serif;-inkscape-font-specification:'sans-serif Bold';fill:#aeaeae;fill-opacity:1;stroke:none;stroke-width:0.172067;stroke-opacity:1"
         d="m -171.23874,154.84159 h -3.3719 l -0.53212,1.52352 h -2.16765 l 3.09745,-8.36255 h 2.57094 l 3.09744,8.36255 h -2.16765 z m -2.83419,-1.55152 h 2.29088 l -1.14264,-3.3271 z" />
      <path
         id="path1117"
         style="font-style:normal;font-variant:normal;font-weight:bold;font-stretch:normal;font-family:sans-serif;-inkscape-font-specification:'sans-serif Bold';fill:#aeaeae;fill-opacity:1;stroke:none;stroke-width:0.172067;stroke-opacity:1"
         d="m -161.62153,148.26582 v 1.76997 q -0.68894,-0.30807 -1.34428,-0.4649 -0.65533,-0.15683 -1.23786,-0.15683 -0.77296,0 -1.14264,0.21284 -0.36967,0.21285 -0.36967,0.66094 0,0.33607 0.24645,0.52651 0.25205,0.18484 0.90739,0.31927 l 0.91859,0.18484 q 1.39469,0.28006 1.98282,0.85137 0.58812,0.57132 0.58812,1.62434 0,1.38349 -0.82337,2.06124 -0.81778,0.67214 -2.50373,0.67214 -0.79536,0 -1.59633,-0.15124 -0.80097,-0.15123 -1.60194,-0.44809 v -1.82038 q 0.80097,0.42569 1.54593,0.64413 0.75055,0.21285 1.4451,0.21285 0.70575,0 1.08102,-0.23525 0.37528,-0.23525 0.37528,-0.67214 0,-0.39208 -0.25765,-0.60493 -0.25205,-0.21284 -1.01381,-0.38088 l -0.83458,-0.18484 q -1.25466,-0.26885 -1.83718,-0.85697 -0.57692,-0.58813 -0.57692,-1.58514 0,-1.24906 0.80657,-1.9212 0.80657,-0.67214 2.31888,-0.67214 0.68895,0 1.4171,0.10642 0.72815,0.10082 1.50671,0.30807 z" />
      <path
         id="path1119"
         style="font-style:normal;font-variant:normal;font-weight:bold;font-stretch:normal;font-family:sans-serif;-inkscape-font-specification:'sans-serif Bold';fill:#aeaeae;fill-opacity:1;stroke:none;stroke-width:0.172067;stroke-opacity:1"
         d="m -159.17381,148.00256 h 2.15645 v 8.36255 h -2.15645 z" />
      <path
         id="path1121"
         style="font-style:normal;font-variant:normal;font-weight:bold;font-stretch:normal;font-family:sans-serif;-inkscape-font-specification:'sans-serif Bold';fill:#aeaeae;fill-opacity:1;stroke:none;stroke-width:0.172067;stroke-opacity:1"
         d="m -154.89452,148.00256 h 5.81962 v 1.62994 h -3.66317 v 1.55713 h 3.44472 v 1.62994 h -3.44472 v 1.9156 h 3.78639 v 1.62994 h -5.94284 z" />
    </g>
    <g
       transform="translate(-71.437539,-10.583334)"
       style="font-size:11.8274px;line-height:1.25;font-family:sans-serif;fill:#aeaeae;fill-opacity:1;stroke:none;stroke-width:0.17741;stroke-opacity:1"
       id="text1008"
       aria-label="Google   Yandex">
      <path
         id="path1088"
         style="font-style:normal;font-variant:normal;font-weight:bold;font-stretch:normal;font-family:sans-serif;-inkscape-font-specification:'sans-serif Bold';fill:#aeaeae;fill-opacity:1;stroke:none;stroke-width:0.17741;stroke-opacity:1"
         d="m -103.93391,197.51128 q -0.83162,0.40425 -1.72676,0.60638 -0.89514,0.20213 -1.84803,0.20213 -2.15411,0 -3.41308,-1.20122 -1.25897,-1.20699 -1.25897,-3.2687 0,-2.08481 1.28207,-3.28026 1.28207,-1.19545 3.51126,-1.19545 0.86049,0 1.6459,0.16171 0.79119,0.1617 1.48998,0.47933 v 1.78451 q -0.72189,-0.41004 -1.438,-0.61216 -0.71034,-0.20213 -1.42645,-0.20213 -1.32828,0 -2.05016,0.74498 -0.71611,0.73922 -0.71611,2.11947 0,1.36869 0.69301,2.11368 0.69301,0.74499 1.96931,0.74499 0.3465,0 0.64103,-0.0404 0.30031,-0.0462 0.53709,-0.1386 v -1.67478 h -1.35715 v -1.48997 h 3.46506 z" />
      <path
         id="path1090"
         style="font-style:normal;font-variant:normal;font-weight:bold;font-stretch:normal;font-family:sans-serif;-inkscape-font-specification:'sans-serif Bold';fill:#aeaeae;fill-opacity:1;stroke:none;stroke-width:0.17741;stroke-opacity:1"
         d="m -98.996205,193.0067 q -0.687237,0 -1.051065,0.49666 -0.35806,0.49088 -0.35806,1.42067 0,0.92979 0.35806,1.42645 0.363828,0.49089 1.051065,0.49089 0.675686,0 1.033743,-0.49089 0.358056,-0.49666 0.358056,-1.42645 0,-0.92979 -0.358056,-1.42067 -0.358057,-0.49666 -1.033743,-0.49666 z m 0,-1.47842 q 1.669003,0 2.604569,0.90091 0.941341,0.90092 0.941341,2.49484 0,1.59393 -0.941341,2.49485 -0.935566,0.90091 -2.604569,0.90091 -1.674775,0 -2.621895,-0.90091 -0.94134,-0.90092 -0.94134,-2.49485 0,-1.59392 0.94134,-2.49484 0.94712,-0.90091 2.621895,-0.90091 z" />
      <path
         id="path1092"
         style="font-style:normal;font-variant:normal;font-weight:bold;font-stretch:normal;font-family:sans-serif;-inkscape-font-specification:'sans-serif Bold';fill:#aeaeae;fill-opacity:1;stroke:none;stroke-width:0.17741;stroke-opacity:1"
         d="m -90.864866,193.0067 q -0.687237,0 -1.051068,0.49666 -0.358056,0.49088 -0.358056,1.42067 0,0.92979 0.358056,1.42645 0.363831,0.49089 1.051068,0.49089 0.675687,0 1.033743,-0.49089 0.358056,-0.49666 0.358056,-1.42645 0,-0.92979 -0.358056,-1.42067 -0.358056,-0.49666 -1.033743,-0.49666 z m 0,-1.47842 q 1.669003,0 2.604569,0.90091 0.941341,0.90092 0.941341,2.49484 0,1.59393 -0.941341,2.49485 -0.935566,0.90091 -2.604569,0.90091 -1.674778,0 -2.621894,-0.90091 -0.941341,-0.90092 -0.941341,-2.49485 0,-1.59392 0.941341,-2.49484 0.947116,-0.90091 2.621894,-0.90091 z" />
      <path
         id="path1094"
         style="font-style:normal;font-variant:normal;font-weight:bold;font-stretch:normal;font-family:sans-serif;-inkscape-font-specification:'sans-serif Bold';fill:#aeaeae;fill-opacity:1;stroke:none;stroke-width:0.17741;stroke-opacity:1"
         d="m -81.411032,197.05504 q -0.427358,0.56596 -0.941341,0.83162 -0.513984,0.26565 -1.18967,0.26565 -1.183895,0 -1.957759,-0.92979 -0.773863,-0.93556 -0.773863,-2.37934 0,-1.44955 0.773863,-2.37356 0.773864,-0.92979 1.957759,-0.92979 0.675686,0 1.18967,0.26565 0.513983,0.26566 0.941341,0.83739 v -0.95867 h 2.079035 v 5.81553 q 0,1.55927 -0.987542,2.37934 -0.981766,0.82584 -2.852898,0.82584 -0.606385,0 -1.172345,-0.0924 -0.56596,-0.0924 -1.137694,-0.28297 v -1.61126 q 0.542859,0.31186 1.062618,0.46201 0.519759,0.15593 1.045292,0.15593 1.016418,0 1.489976,-0.44468 0.473558,-0.44469 0.473558,-1.3918 z m -1.362923,-4.02524 q -0.641036,0 -0.999092,0.47356 -0.358056,0.47356 -0.358056,1.33982 0,0.88937 0.346506,1.35138 0.346505,0.45623 1.010642,0.45623 0.646811,0 1.004867,-0.47356 0.358056,-0.47356 0.358056,-1.33405 0,-0.86626 -0.358056,-1.33982 -0.358056,-0.47356 -1.004867,-0.47356 z" />
      <path
         id="path1096"
         style="font-style:normal;font-variant:normal;font-weight:bold;font-stretch:normal;font-family:sans-serif;-inkscape-font-specification:'sans-serif Bold';fill:#aeaeae;fill-opacity:1;stroke:none;stroke-width:0.17741;stroke-opacity:1"
         d="m -77.333813,189.16626 h 2.067485 v 8.98605 h -2.067485 z" />
      <path
         id="path1098"
         style="font-style:normal;font-variant:normal;font-weight:bold;font-stretch:normal;font-family:sans-serif;-inkscape-font-specification:'sans-serif Bold';fill:#aeaeae;fill-opacity:1;stroke:none;stroke-width:0.17741;stroke-opacity:1"
         d="m -66.811583,194.90093 v 0.58906 h -4.833757 q 0.07508,0.72767 0.525534,1.0915 0.450457,0.36383 1.258971,0.36383 0.652586,0 1.334048,-0.19058 0.687236,-0.19635 1.409124,-0.58906 v 1.59393 q -0.733438,0.2772 -1.466875,0.4158 -0.733438,0.14438 -1.466875,0.14438 -1.75563,0 -2.731621,-0.88936 -0.970217,-0.89514 -0.970217,-2.5064 0,-1.58237 0.952891,-2.48906 0.958667,-0.90669 2.633445,-0.90669 1.524626,0 2.437091,0.91824 0.918241,0.91824 0.918241,2.45441 z m -2.125236,-0.68723 q 0,-0.58906 -0.346506,-0.94712 -0.340731,-0.36383 -0.89514,-0.36383 -0.60061,0 -0.975992,0.34073 -0.375381,0.33496 -0.467783,0.97022 z" />
      <path
         id="path1100"
         style="font-style:normal;font-variant:normal;font-weight:bold;font-stretch:normal;font-family:sans-serif;-inkscape-font-specification:'sans-serif Bold';fill:#aeaeae;fill-opacity:1;stroke:none;stroke-width:0.17741;stroke-opacity:1"
         d="m -54.115475,189.53009 h 2.431316 l 1.963533,3.07235 1.963533,-3.07235 h 2.437092 l -3.286031,4.98969 v 3.63253 h -2.223413 v -3.63253 z" />
      <path
         id="path1102"
         style="font-style:normal;font-variant:normal;font-weight:bold;font-stretch:normal;font-family:sans-serif;-inkscape-font-specification:'sans-serif Bold';fill:#aeaeae;fill-opacity:1;stroke:none;stroke-width:0.17741;stroke-opacity:1"
         d="m -42.623034,195.24166 q -0.646811,0 -0.975991,0.21946 -0.323406,0.21945 -0.323406,0.64681 0,0.39271 0.25988,0.61793 0.265654,0.21946 0.733437,0.21946 0.583285,0 0.981767,-0.41581 0.398482,-0.42158 0.398482,-1.05107 v -0.23678 z m 3.158979,-0.77963 v 3.69028 h -2.08481 v -0.95866 q -0.415807,0.58906 -0.935566,0.86049 -0.519759,0.26565 -1.264747,0.26565 -1.004867,0 -1.634352,-0.58328 -0.623711,-0.58906 -0.623711,-1.52463 0,-1.13769 0.779638,-1.669 0.785414,-0.53131 2.460192,-0.53131 h 1.218546 v -0.1617 q 0,-0.49089 -0.386932,-0.71612 -0.386932,-0.231 -1.206995,-0.231 -0.664137,0 -1.235871,0.13283 -0.571735,0.13282 -1.062618,0.39848 v -1.5766 q 0.664136,-0.16171 1.334047,-0.24256 0.669912,-0.0866 1.339823,-0.0866 1.749855,0 2.523718,0.69301 0.779638,0.68723 0.779638,2.24074 z" />
      <path
         id="path1104"
         style="font-style:normal;font-variant:normal;font-weight:bold;font-stretch:normal;font-family:sans-serif;-inkscape-font-specification:'sans-serif Bold';fill:#aeaeae;fill-opacity:1;stroke:none;stroke-width:0.17741;stroke-opacity:1"
         d="m -31.026636,194.2137 v 3.93861 h -2.079035 v -0.64103 -2.37357 q 0,-0.83739 -0.04043,-1.15502 -0.03465,-0.31763 -0.127052,-0.46778 -0.121277,-0.20213 -0.32918,-0.31186 -0.207904,-0.1155 -0.473558,-0.1155 -0.646811,0 -1.016418,0.50244 -0.369606,0.49665 -0.369606,1.38024 v 3.18208 H -37.5294 v -6.46811 h 2.067485 v 0.94712 q 0.467783,-0.56596 0.993317,-0.83161 0.525534,-0.27143 1.160795,-0.27143 1.120369,0 1.697878,0.68723 0.583285,0.68724 0.583285,1.99819 z" />
      <path
         id="path1106"
         style="font-style:normal;font-variant:normal;font-weight:bold;font-stretch:normal;font-family:sans-serif;-inkscape-font-specification:'sans-serif Bold';fill:#aeaeae;fill-opacity:1;stroke:none;stroke-width:0.17741;stroke-opacity:1"
         d="m -24.697131,192.63132 v -3.46506 h 2.079035 v 8.98605 h -2.079035 v -0.93556 q -0.427357,0.57173 -0.941341,0.83739 -0.513983,0.26565 -1.18967,0.26565 -1.195445,0 -1.963533,-0.94711 -0.768088,-0.9529 -0.768088,-2.44865 0,-1.49575 0.768088,-2.44286 0.768088,-0.95289 1.963533,-0.95289 0.669911,0 1.183895,0.27143 0.519759,0.26565 0.947116,0.83161 z m -1.362923,4.18695 q 0.664136,0 1.010642,-0.48511 0.352281,-0.48511 0.352281,-1.40913 0,-0.92401 -0.352281,-1.40912 -0.346506,-0.48511 -1.010642,-0.48511 -0.658361,0 -1.010642,0.48511 -0.346506,0.48511 -0.346506,1.40912 0,0.92402 0.346506,1.40913 0.352281,0.48511 1.010642,0.48511 z" />
      <path
         id="path1108"
         style="font-style:normal;font-variant:normal;font-weight:bold;font-stretch:normal;font-family:sans-serif;-inkscape-font-specification:'sans-serif Bold';fill:#aeaeae;fill-opacity:1;stroke:none;stroke-width:0.17741;stroke-opacity:1"
         d="m -14.163352,194.90093 v 0.58906 h -4.833757 q 0.07508,0.72767 0.525534,1.0915 0.450458,0.36383 1.258972,0.36383 0.652586,0 1.334047,-0.19058 0.687237,-0.19635 1.409124,-0.58906 v 1.59393 q -0.733437,0.2772 -1.466875,0.4158 -0.733437,0.14438 -1.466875,0.14438 -1.755629,0 -2.731621,-0.88936 -0.970216,-0.89514 -0.970216,-2.5064 0,-1.58237 0.952891,-2.48906 0.958666,-0.90669 2.633444,-0.90669 1.524626,0 2.437092,0.91824 0.91824,0.91824 0.91824,2.45441 z m -2.125236,-0.68723 q 0,-0.58906 -0.346506,-0.94712 -0.34073,-0.36383 -0.89514,-0.36383 -0.60061,0 -0.975991,0.34073 -0.375382,0.33496 -0.467783,0.97022 z" />
      <path
         id="path1110"
         style="font-style:normal;font-variant:normal;font-weight:bold;font-stretch:normal;font-family:sans-serif;-inkscape-font-specification:'sans-serif Bold';fill:#aeaeae;fill-opacity:1;stroke:none;stroke-width:0.17741;stroke-opacity:1"
         d="m -10.96972,194.84318 -2.333139,-3.15898 h 2.188762 l 1.3224972,1.91734 1.3398227,-1.91734 h 2.188762 l -2.3331395,3.14743 2.4486415,3.32068 h -2.1887621 l -1.4553246,-2.04438 -1.4379992,2.04438 h -2.188762 z" />
    </g>
    <path
       id="path1187"
       d="m -238.02403,160.73872 c -6.33103,-0.36476 -11.80534,-3.42427 -15.54207,-8.68623 -0.30277,-0.42635 -0.4973,-0.74666 -0.48937,-0.80575 0.0119,-0.0888 0.32646,-0.0996 3.34526,-0.1138 l 3.33209,-0.0156 0.0663,0.14516 c 0.18767,0.41111 1.34154,1.62525 2.22429,2.34047 5.36792,4.34923 13.38466,4.60491 19.78997,0.63117 1.19293,-0.74008 3.03531,-2.16929 3.25171,-2.52246 0.0922,-0.15045 0.53051,-0.53245 0.61097,-0.53245 0.17702,0 -0.20259,0.68265 -1.05454,1.8964 -2.10695,3.00171 -4.90183,5.20699 -8.21226,6.47985 -2.32245,0.89299 -4.9608,1.31933 -7.32233,1.18326 z"
       style="fill:#aeaeae;fill-opacity:1;stroke:none;stroke-width:0.0510419;stroke-opacity:1" />
    <path
       style="fill:#aeaeae;fill-opacity:1;stroke:none;stroke-width:0.0403992;stroke-opacity:1"
       d="m -235.61423,158.10071 c -5.40942,-0.26743 -10.08683,-2.5106 -13.2796,-6.36856 -0.2587,-0.31261 -0.42491,-0.54744 -0.41814,-0.59078 0.0101,-0.0651 0.27894,-0.073 2.85829,-0.0835 l 2.84705,-0.011 0.0566,0.10636 c 0.16036,0.30142 1.14626,1.19159 1.90051,1.71599 4.58651,3.18878 11.43626,3.37623 16.90914,0.46276 1.01927,-0.5426 2.59347,-1.59047 2.77836,-1.84941 0.0788,-0.11036 0.45329,-0.39038 0.52203,-0.39038 0.15125,0 -0.1731,0.5005 -0.90103,1.39039 -1.80024,2.20081 -4.18827,3.81767 -7.0168,4.75091 -1.98438,0.65472 -4.23866,0.9673 -6.25642,0.86754 z"
       id="path1187-5" />
  </g>
</svg>
