<svg width="99" height="81" viewBox="0 0 99 81" fill="none" xmlns="http://www.w3.org/2000/svg">
<path d="M27.4048 53.1762L35.5811 59.1167L49.5607 39.8749L63.5403 59.1167L71.7166 53.1762L57.7364 33.9344L80.3562 26.5853L77.2337 16.9733L54.6139 24.323V0.539064H44.5075V24.323L21.8877 16.9733L18.7646 26.5853L41.3843 33.9344L27.4048 53.1762Z" fill="#b7b7b7"/>
<path d="M90.0212 4.30664L81.6714 10.0002C86.0703 16.4511 88.395 24.0116 88.395 31.8651C88.395 42.2479 84.3577 52.0027 77.0275 59.3328C69.6973 66.663 59.9426 70.7003 49.5597 70.7003C39.1769 70.7003 29.4216 66.663 22.0914 59.3328C14.7612 52.0027 10.7245 42.2479 10.7245 31.8651C10.7245 24.0741 13.0149 16.5638 17.3488 10.1454L8.97332 4.48985C3.5071 12.5847 0.618042 22.0509 0.618042 31.8651C0.618042 44.947 5.70621 57.2403 14.945 66.4792C24.1845 75.718 36.4772 80.8062 49.5597 80.8062C62.6417 80.8062 74.935 75.718 84.1738 66.4792C93.4127 57.2403 98.5008 44.947 98.5008 31.8651C98.5008 21.9718 95.5689 12.4426 90.0212 4.30664Z" fill="#b7b7b7"/>
</svg>
