<svg xmlns="http://www.w3.org/2000/svg" xmlns:xlink="http://www.w3.org/1999/xlink" width="272.2mm" height="75.03mm" viewBox="0 0 771.59 212.69">
  <defs>
    <mask id="a" x="430.12" y="54.9" width="31.49" height="23.7" maskUnits="userSpaceOnUse">
      <path d="M451.09,67.18,431.25,55.79,461,61.45l-9.9,17.14Z" style="fill: #71b4e1"/>
    </mask>
    <mask id="b" x="420.58" y="72.07" width="31.49" height="23.66" maskUnits="userSpaceOnUse">
      <path d="M441.19,84.31,421.35,72.92l29.75,5.67-9.9,17.14Z" style="fill: #c5cac6"/>
    </mask>
    <mask id="c" x="400.54" y="49.17" width="31.49" height="23.75" maskUnits="userSpaceOnUse">
      <path d="M421.34,61.51,401.49,50.13l29.75,5.67-9.9,17.13Z" style="fill: #f73624"/>
    </mask>
  </defs>
  <title>8</title>
  <g>
    <path d="M90.83,151v1.51h13a3.24,3.24,0,0,1,3.89,3.89v13a3.24,3.24,0,0,1-3.89,3.89H97.55c-1.08,0-2.49,0-3-1.19s.22-2.27.87-3.13l8.43-11.22h-13l-5.2,6.91c-.87,1.16-1.62,2.16-1.62,3.46s.7,2.23,1.62,3.46l1.3,1.73c1.3,1.73,2.59,3.46,4.31,4.31s3.79.86,6.58.86h5.63c3.25,0,8.1,0,11.36-3.24s3.24-8,3.24-9.71v-5.2c0-1.73,0-6.48-3.24-9.71s-8.1-3.24-11.36-3.24h-9A3.14,3.14,0,0,0,90.84,151" style="fill: #aaa"/>
    <polygon points="75.36 157.69 88.2 157.69 72.73 178.43 59.56 178.43 75.36 157.69" style="fill: #aaa"/>
    <path d="M24.67,161.38a3.63,3.63,0,0,1,.87-2.81,3.64,3.64,0,0,1,2.81-.86H50.07c2.81,0,4.87,0,6.58.86s3,2.6,4.31,4.31l1.3,1.73c.92,1.23,1.63,2.16,1.63,3.46s-.76,2.3-1.63,3.46l-5.2,6.91h-13l8.43-11.22c.65-.87,1.41-1.94.87-3.13s-1.94-1.18-3-1.18H40.2v25.94H29.83V162.89h-5.2v-1.51" style="fill: #aaa"/>
  </g>
  <g>
    <path d="M117.75,65l5.19-3.88H105.56V84.35h17.37V80.47H110.52V74.54h10.61V70.67H110.52V65Z" style="fill: #aaa"/>
    <path d="M92.43,70.17h-6V65H96l5.19-3.88H81.45V84.35H91.79c5.79,0,9.14-2.66,9.14-7.3C100.93,72.61,97.93,70.17,92.43,70.17Zm-.83,10.3H86.42V74h5.19c3.16,0,4.62,1.07,4.62,3.23S94.65,80.47,91.61,80.47Z" style="fill: #aaa"/>
    <path d="M137,61.13h-9.44V84.35h5V77.77H137c6,0,9.78-3.19,9.78-8.32S143.05,61.13,137,61.13Zm-.11,12.77h-4.4V65h4.4c3.2,0,4.93,1.6,4.93,4.45S140.08,73.9,136.89,73.9Z" style="fill: #aaa"/>
    <path d="M73,79.33a8.86,8.86,0,0,1-4.29,1.1,7.68,7.68,0,1,1,4.51-13.91l3.57-2.66-.23-.23a11.72,11.72,0,0,0-8-2.81,12.7,12.7,0,0,0-8.8,3.31,11.52,11.52,0,0,0-3.46,8.48,12.06,12.06,0,0,0,3.46,8.63,12.36,12.36,0,0,0,8.76,3.42,11.74,11.74,0,0,0,8.8-3.54l-3.19-2.4Z" style="fill: #aaa"/>
    <path d="M40.73,61A20.62,20.62,0,0,1,43,64.81l-17.37,13-7.3-4.64V67.59l7.26,4.6Z" style="fill: #aaa"/>
    <path d="M10.94,72.76A5,5,0,0,1,11,72l-4.4-.23c0,.31,0,.65,0,.95a19.36,19.36,0,0,0,5.6,13.65l3.12-3.16A14.69,14.69,0,0,1,10.94,72.76Z" style="fill: #aaa"/>
    <path d="M25.61,57.93a4.92,4.92,0,0,1,.75,0l.23-4.45c-.3,0-.64,0-.94,0a19,19,0,0,0-13.5,5.66l3.12,3.16A14.45,14.45,0,0,1,25.61,57.93Z" style="fill: #aaa"/>
    <path d="M25.61,87.58a4.92,4.92,0,0,1-.75,0L24.63,92c.3,0,.64,0,.94,0a18.94,18.94,0,0,0,13.5-5.66l-3.12-3.16A14.24,14.24,0,0,1,25.61,87.58Z" style="fill: #aaa"/>
    <path d="M33.88,60.52l3.72-2.78a19,19,0,0,0-12-4.3v4.45A14.67,14.67,0,0,1,33.88,60.52Z" style="fill: #aaa"/>
    <path d="M44.71,72.76a20.89,20.89,0,0,0-.3-3.46l-4.1,3.08v.38a14.8,14.8,0,0,1-4.85,11l3,3.31A19.34,19.34,0,0,0,44.71,72.76Z" style="fill: #aaa"/>
    <path d="M25.61,87.58a14.5,14.5,0,0,1-10.87-4.9l-3.27,3A18.88,18.88,0,0,0,25.61,92Z" style="fill: #aaa"/>
    <path d="M15.79,61.77l-3-3.31A19.27,19.27,0,0,0,6.54,72.76h4.4A14.86,14.86,0,0,1,15.79,61.77Z" style="fill: #aaa"/>
  </g>
  <g>
    <g>
      <path d="M291,149.12h.1l2.72,6.69h1.28l2.72-6.67h.1v6.7h1.7v-9.75h-2.18l-2.92,7.07h-.12l-2.92-7.07h-2.18v9.75H291Z" style="fill: #aaa"/>
      <path d="M302.66,155.51a3.55,3.55,0,0,0,1.87.47,3.61,3.61,0,0,0,1.88-.47,3.25,3.25,0,0,0,1.23-1.32,4.23,4.23,0,0,0,.43-2,4.34,4.34,0,0,0-.43-2,3.14,3.14,0,0,0-1.23-1.32,4,4,0,0,0-3.75,0,3.25,3.25,0,0,0-1.23,1.32,4.25,4.25,0,0,0-.43,2,4.36,4.36,0,0,0,.43,2A3.19,3.19,0,0,0,302.66,155.51Zm.29-4.52a2,2,0,0,1,.59-.87,1.52,1.52,0,0,1,1-.33,1.48,1.48,0,0,1,1,.33,2,2,0,0,1,.59.87,3.62,3.62,0,0,1,.19,1.22,3.57,3.57,0,0,1-.19,1.21,2,2,0,0,1-.59.87,1.49,1.49,0,0,1-1,.32,1.54,1.54,0,0,1-1-.32,1.9,1.9,0,0,1-.59-.87,3.57,3.57,0,0,1-.2-1.21A3.65,3.65,0,0,1,302.95,151Z" style="fill: #aaa"/>
      <path d="M310.76,155.5a4,4,0,0,0,3.51.15,2.6,2.6,0,0,0,1.08-.93,2.82,2.82,0,0,0,.46-1.37h-1.66a1.58,1.58,0,0,1-.29.67,1.4,1.4,0,0,1-.51.42,1.61,1.61,0,0,1-.69.15,1.54,1.54,0,0,1-.94-.29,1.81,1.81,0,0,1-.62-.82,3.4,3.4,0,0,1-.23-1.29,3.28,3.28,0,0,1,.23-1.27,1.78,1.78,0,0,1,.63-.81,1.58,1.58,0,0,1,.93-.28,1.43,1.43,0,0,1,1,.35,1.62,1.62,0,0,1,.48.88h1.66a2.74,2.74,0,0,0-.47-1.38,2.7,2.7,0,0,0-1.11-.92,3.76,3.76,0,0,0-1.59-.33,3.56,3.56,0,0,0-1.87.48,3.2,3.2,0,0,0-1.22,1.33,4.33,4.33,0,0,0-.43,2,4.26,4.26,0,0,0,.42,2,3.23,3.23,0,0,0,1.21,1.33Z" style="fill: #aaa"/>
      <path d="M318.87,153.08h.85l2,2.76h2.1l-2.76-3.72,2.73-3.59h-2.09l-2.22,3h-.63v-3h-1.74v7.32h1.74Z" style="fill: #aaa"/>
      <path d="M325.75,155.51a3.55,3.55,0,0,0,1.87.47,3.61,3.61,0,0,0,1.88-.47,3.25,3.25,0,0,0,1.23-1.32,4.25,4.25,0,0,0,.43-2,4.36,4.36,0,0,0-.43-2,3.14,3.14,0,0,0-1.23-1.32,4,4,0,0,0-3.75,0,3.25,3.25,0,0,0-1.23,1.32,4.23,4.23,0,0,0-.43,2,4.34,4.34,0,0,0,.43,2A3.19,3.19,0,0,0,325.75,155.51ZM326,151a2,2,0,0,1,.59-.87,1.53,1.53,0,0,1,1-.33,1.47,1.47,0,0,1,1,.33,2,2,0,0,1,.59.87,3.59,3.59,0,0,1,.19,1.22,3.54,3.54,0,0,1-.19,1.21,2,2,0,0,1-.59.87,1.49,1.49,0,0,1-1,.32,1.54,1.54,0,0,1-1-.32,1.9,1.9,0,0,1-.59-.87,3.57,3.57,0,0,1-.2-1.21A3.65,3.65,0,0,1,326,151Z" style="fill: #aaa"/>
      <path d="M338.51,154.9a1.73,1.73,0,0,0,.32-1,1.69,1.69,0,0,0-.25-.91,1.76,1.76,0,0,0-.69-.63,2.53,2.53,0,0,0-1-.29,2.29,2.29,0,0,0,1.17-.52,1.29,1.29,0,0,0,.43-1,1.66,1.66,0,0,0-.76-1.45,3.65,3.65,0,0,0-2.08-.51h-3.1v7.32h3.57a3.93,3.93,0,0,0,1.47-.25,2,2,0,0,0,.93-.69Zm-4.34-5h1.47a1.47,1.47,0,0,1,.86.21.69.69,0,0,1,.31.59.71.71,0,0,1-.14.45.85.85,0,0,1-.39.29,1.59,1.59,0,0,1-.61.1h-1.51Zm2.7,4.35a1.12,1.12,0,0,1-.75.22h-1.95v-1.81h1.95a1.05,1.05,0,0,1,.75.26.94.94,0,0,1,.28.71A.75.75,0,0,1,336.86,154.25Z" style="fill: #aaa"/>
      <path d="M346,154.71a2.82,2.82,0,0,0,.46-1.37h-1.66a1.58,1.58,0,0,1-.28.67,1.41,1.41,0,0,1-.51.42,1.61,1.61,0,0,1-.69.15,1.54,1.54,0,0,1-.94-.29,1.81,1.81,0,0,1-.62-.82,3.4,3.4,0,0,1-.23-1.29,3.28,3.28,0,0,1,.23-1.27,1.78,1.78,0,0,1,.63-.81,1.58,1.58,0,0,1,.93-.28,1.43,1.43,0,0,1,1,.35,1.62,1.62,0,0,1,.48.88h1.66a2.74,2.74,0,0,0-.47-1.38,2.7,2.7,0,0,0-1.11-.92,3.77,3.77,0,0,0-1.59-.33,3.56,3.56,0,0,0-1.87.48,3.19,3.19,0,0,0-1.22,1.33,4.33,4.33,0,0,0-.43,2,4.26,4.26,0,0,0,.42,2,3.24,3.24,0,0,0,1.21,1.33,4,4,0,0,0,3.51.15,2.6,2.6,0,0,0,1.08-.93Z" style="fill: #aaa"/>
      <path d="M354.49,148.52H352.4l-2.22,3h-.63v-3h-1.74v7.32h1.74v-2.76h.85l2,2.76h2.1l-2.76-3.72Z" style="fill: #aaa"/>
      <path d="M360.22,150.85v5h1.68v-7.32h-1.78l-2.95,5v-5h-1.68v7.32h1.79Z" style="fill: #aaa"/>
      <path d="M368.23,148.52l-2.95,5v-5H363.6v7.32h1.79l2.94-5v5H370v-7.32Z" style="fill: #aaa"/>
      <path d="M366.8,147.88a2.46,2.46,0,0,0,1.64-.51,1.68,1.68,0,0,0,.61-1.35h-1.3a1,1,0,0,1-.23.62.89.89,0,0,1-.73.27.9.9,0,0,1-.73-.27.94.94,0,0,1-.22-.61h-1.29a1.67,1.67,0,0,0,.61,1.35,2.45,2.45,0,0,0,1.63.51Z" style="fill: #aaa"/>
      <path d="M295.16,171.59a2.54,2.54,0,0,0,1.12-1,2.6,2.6,0,0,0,.37-1.36,2.43,2.43,0,0,0-.31-1.27,2.31,2.31,0,0,0-.79-.81,2.19,2.19,0,0,0-1-.32v-.09a2.62,2.62,0,0,0,.87-.38,1.91,1.91,0,0,0,.62-.69,2.07,2.07,0,0,0,.23-1,2.31,2.31,0,0,0-1.42-2.2,4.16,4.16,0,0,0-1.77-.33h-3.76v9.75h4a4.27,4.27,0,0,0,1.87-.35Zm-4.07-8h1.8a1.66,1.66,0,0,1,1.19.37,1.2,1.2,0,0,1,.4.94,1.24,1.24,0,0,1-.22.74,1.41,1.41,0,0,1-.59.48,2,2,0,0,1-.83.17h-1.76v-2.69Zm0,6.82V167.6h2a2,2,0,0,1,1,.21,1.52,1.52,0,0,1,.61.55,1.44,1.44,0,0,1,.22.78,1.21,1.21,0,0,1-.43,1,2.12,2.12,0,0,1-1.4.37Z" style="fill: #aaa"/>
      <path d="M302.78,171.81a2.78,2.78,0,0,0,1.1-.74,2.43,2.43,0,0,0,.58-1.12l-1.63-.18a1.44,1.44,0,0,1-.34.52,1.46,1.46,0,0,1-.54.32,2.16,2.16,0,0,1-.68.1,1.9,1.9,0,0,1-1-.24,1.65,1.65,0,0,1-.66-.69,2.42,2.42,0,0,1-.23-1h5.14v-.53a4.54,4.54,0,0,0-.27-1.66,3.18,3.18,0,0,0-.74-1.15,3,3,0,0,0-1.07-.67,3.8,3.8,0,0,0-1.29-.21,3.51,3.51,0,0,0-1.84.48,3.31,3.31,0,0,0-1.22,1.33,4.77,4.77,0,0,0,0,4,3.07,3.07,0,0,0,1.24,1.3,3.78,3.78,0,0,0,1.91.46,4.27,4.27,0,0,0,1.53-.26Zm-2.53-5.7a1.7,1.7,0,0,1,.93-.26,1.72,1.72,0,0,1,.87.22,1.55,1.55,0,0,1,.59.61,1.84,1.84,0,0,1,.22.88h-3.46a1.92,1.92,0,0,1,.22-.8,1.78,1.78,0,0,1,.62-.67Z" style="fill: #aaa"/>
      <path d="M310.45,169v3h1.67v-7.32h-1.67v2.94h-2.85v-2.94h-1.68v7.32h1.68v-3Z" style="fill: #aaa"/>
      <path d="M315.38,167.8a1.48,1.48,0,0,1-.16-.75v-2.44h-1.66V167a2.43,2.43,0,0,0,.86,2.06,3.75,3.75,0,0,0,2.34.66,4.87,4.87,0,0,0,.79-.06c.18,0,.34-.07.51-.1v2.32h1.67v-7.32H318v3.56l-.2.06a5,5,0,0,1-1.1.11,2.44,2.44,0,0,1-.86-.13,1,1,0,0,1-.51-.42Z" style="fill: #aaa"/>
      <path d="M324.35,170.14h-.08l-1.7-5.52h-1.84l2.67,7.47-.15.39a1.32,1.32,0,0,1-.39.59.84.84,0,0,1-.53.18,2.59,2.59,0,0,1-.67-.1l-.41,1.35a2.8,2.8,0,0,0,.48.13,3.15,3.15,0,0,0,.66.05,2.87,2.87,0,0,0,1.18-.22,2.24,2.24,0,0,0,.83-.63,3.35,3.35,0,0,0,.55-1l2.95-8.2H326l-1.7,5.52Z" style="fill: #aaa"/>
      <path d="M334.41,164.95a2.9,2.9,0,0,0-1.55-.43,2.28,2.28,0,0,0-1.06.21,2.07,2.07,0,0,0-.67.52,3.57,3.57,0,0,0-.38.57h-.1v-1.21h-1.71v10.06h1.74v-3.89h.07a3.38,3.38,0,0,0,.39.57,2.07,2.07,0,0,0,.68.51,2.38,2.38,0,0,0,1.05.21,2.78,2.78,0,0,0,1.56-.45,3,3,0,0,0,1.08-1.29,5.44,5.44,0,0,0,0-4.11,2.91,2.91,0,0,0-1.1-1.27Zm-.47,4.55a1.84,1.84,0,0,1-.59.84,1.5,1.5,0,0,1-1,.31,1.48,1.48,0,0,1-.94-.3,1.77,1.77,0,0,1-.59-.83,3.66,3.66,0,0,1-.21-1.24,3.58,3.58,0,0,1,.2-1.24,1.75,1.75,0,0,1,.59-.81,1.52,1.52,0,0,1,.94-.29,1.6,1.6,0,0,1,1,.3,1.81,1.81,0,0,1,.59.83,3.47,3.47,0,0,1,.2,1.21,3.52,3.52,0,0,1-.2,1.22Z" style="fill: #aaa"/>
      <path d="M341.85,167.56H339v-2.94h-1.68v7.32H339v-3h2.86v3h1.67v-7.32h-1.67Z" style="fill: #aaa"/>
      <path d="M354.18,164.61h-1.74v7.32h1.74Z" style="fill: #aaa"/>
      <path d="M348.56,167h-1.68v-2.38H345.2v7.32h3.36a3.62,3.62,0,0,0,1.6-.32,2.3,2.3,0,0,0,1.37-2.15,2.26,2.26,0,0,0-.78-1.78A3.21,3.21,0,0,0,348.56,167Zm.93,3.23a1.48,1.48,0,0,1-.93.29h-1.68v-2.1h1.68a1.43,1.43,0,0,1,.93.3,1,1,0,0,1,.36.78.86.86,0,0,1-.36.74Z" style="fill: #aaa"/>
      <path d="M359.81,162.72a.89.89,0,0,1-.73.27.9.9,0,0,1-.73-.27.94.94,0,0,1-.22-.61h-1.29a1.67,1.67,0,0,0,.61,1.35,2.45,2.45,0,0,0,1.63.51,2.48,2.48,0,0,0,1.64-.51,1.68,1.68,0,0,0,.61-1.35H360a1,1,0,0,1-.23.62Z" style="fill: #aaa"/>
      <path d="M357.57,169.6v-5h-1.68v7.32h1.79l2.94-5v5h1.69v-7.32h-1.79Z" style="fill: #aaa"/>
      <path d="M297.07,179.85a4.2,4.2,0,0,0-2-.49h-.14V178.1h-1.71v1.26H293a4.2,4.2,0,0,0-2,.49,3.62,3.62,0,0,0-1.41,1.38,4,4,0,0,0-.51,2.08,4,4,0,0,0,.51,2,3.46,3.46,0,0,0,1.4,1.35,4.3,4.3,0,0,0,2.05.48h.14v1.24h1.71v-1.24H295a4.24,4.24,0,0,0,2-.48,3.54,3.54,0,0,0,1.4-1.36,4,4,0,0,0,.51-2,4.17,4.17,0,0,0-.51-2.08A3.54,3.54,0,0,0,297.07,179.85Zm-4,5.83a2.54,2.54,0,0,1-1.2-.27,1.94,1.94,0,0,1-.8-.81,2.67,2.67,0,0,1-.29-1.29A3.09,3.09,0,0,1,291,182a1.94,1.94,0,0,1,.79-.83,2.45,2.45,0,0,1,1.21-.28h.14v4.83H293Zm4-1.09a1.85,1.85,0,0,1-.78.81,2.42,2.42,0,0,1-1.2.27h-.14v-4.83H295a2.42,2.42,0,0,1,1.2.28,1.92,1.92,0,0,1,.78.83,2.94,2.94,0,0,1,.28,1.33,2.73,2.73,0,0,1-.28,1.29Z" style="fill: #aaa"/>
      <path d="M305.51,181.08a4,4,0,0,0-3.75,0,3.25,3.25,0,0,0-1.23,1.32,4.23,4.23,0,0,0-.43,2,4.34,4.34,0,0,0,.43,2,3.2,3.2,0,0,0,1.23,1.32,3.56,3.56,0,0,0,1.87.47,3.61,3.61,0,0,0,1.88-.47,3.25,3.25,0,0,0,1.23-1.32,4.23,4.23,0,0,0,.43-2,4.34,4.34,0,0,0-.43-2A3.14,3.14,0,0,0,305.51,181.08Zm-.29,4.51a2,2,0,0,1-.59.87,1.49,1.49,0,0,1-1,.32,1.53,1.53,0,0,1-1-.32,1.9,1.9,0,0,1-.59-.87,3.56,3.56,0,0,1-.2-1.21,3.65,3.65,0,0,1,.2-1.22,1.91,1.91,0,0,1,.59-.87,1.52,1.52,0,0,1,1-.33,1.47,1.47,0,0,1,1,.33,2,2,0,0,1,.59.87,3.59,3.59,0,0,1,.19,1.22A3.54,3.54,0,0,1,305.22,185.59Z" style="fill: #aaa"/>
      <path d="M313.07,183.65h-2.85V180.7h-1.68V188h1.68v-3h2.85v3h1.67V180.7h-1.67Z" style="fill: #aaa"/>
      <path d="M322.87,180.7h-5.33l-.21,2.56c0,.41-.08.79-.12,1.15a8.64,8.64,0,0,1-.17,1,3.52,3.52,0,0,1-.26.74,1.33,1.33,0,0,1-.4.49h-.59v3.54h1.71V188h4.83v2.13H324v-3.54h-1.14v-5.89Zm-1.66,5.89h-3a3.51,3.51,0,0,0,.51-1.35,19.2,19.2,0,0,0,.25-2l.11-1.18h2.16v4.5Z" style="fill: #aaa"/>
    </g>
    <path d="M220.4,178.7l-11.33-16.38H189l8.6-16.17h20L229,162.52l-8.6,16.18Zm48.68-16.18-11.32-16.38h-20l-8.6,16.18h20l11.33,16.37,8.6-16.18Z" style="fill: #aaa"/>
  </g>
  <g>
    <g>
      <path d="M592.52,148.75a2.53,2.53,0,0,1-.27,1.19,2.87,2.87,0,0,1-.64.82l-.82.55a3.3,3.3,0,0,1-1,.18v.82h-1.56v-.82a5.23,5.23,0,0,1-1.28-.37,2,2,0,0,1-.83-.64,2.88,2.88,0,0,1-.46-.92,4.68,4.68,0,0,1-.18-1.19V145a2.54,2.54,0,0,1,.28-1.19,2.19,2.19,0,0,1,.55-.73,3,3,0,0,1,.92-.55,2,2,0,0,1,1-.18v-.55h1.65v.55a3.9,3.9,0,0,1,1,.18,2.16,2.16,0,0,1,.82.55,2.84,2.84,0,0,1,.64.82,2.53,2.53,0,0,1,.27,1.19v3.66Zm-4.3-5.13a2.74,2.74,0,0,0-.92.37,1.55,1.55,0,0,0-.27.92v4a1.16,1.16,0,0,0,.09.55,1.28,1.28,0,0,0,.27.37c.09.09.28.18.37.27a.83.83,0,0,0,.46.09Zm2.84,1.28a1.18,1.18,0,0,0-.37-.92,1.73,1.73,0,0,0-.82-.37v6.5c.09,0,.27-.09.37-.09a1.62,1.62,0,0,0,.64-.64.83.83,0,0,0,.09-.46v-4Z" style="fill: #aaa"/>
      <path d="M600.67,149.57a2.91,2.91,0,0,1-.64,2.11,2.62,2.62,0,0,1-1.92.73,2.33,2.33,0,0,1-1.92-.64,3,3,0,0,1-.64-1.92v-5.31a4,4,0,0,1,.18-1.1,2.9,2.9,0,0,1,.46-.92A1.33,1.33,0,0,1,597,142a4.63,4.63,0,0,1,1.19-.18,4.05,4.05,0,0,1,1.19.18.93.93,0,0,1,.73.46,2.87,2.87,0,0,1,.46.92,4.84,4.84,0,0,1,.09,1.19ZM599,144.35a2.67,2.67,0,0,0-.18-.82c-.09-.27-.37-.37-.73-.37a.69.69,0,0,0-.46.09c-.18.18-.27.27-.27.46a.69.69,0,0,0-.09.46v5.77a1.71,1.71,0,0,0,.18.73.82.82,0,0,0,.73.37.74.74,0,0,0,.73-.37c.18-.18.18-.46.18-.82v-5.49Z" style="fill: #aaa"/>
      <polygon points="607.26 152.32 607.26 147.74 605.34 147.74 605.34 152.32 603.78 152.32 603.78 141.79 605.43 141.79 605.43 146.18 607.35 146.18 607.35 141.79 609 141.79 609 152.32 607.26 152.32" style="fill: #aaa"/>
      <path d="M612.85,152.32v2h-1.37v-3.39l.64-.09a2.18,2.18,0,0,0,.55-1,6.53,6.53,0,0,0,.18-1.56l.18-6.41h4.76v9.07h.64v3.48h-1.37v-2h-4.21Zm1.47-4.12c0,.64-.09,1.1-.09,1.56a3.09,3.09,0,0,1-.37,1.1h2.29v-7.51H614.5Z" style="fill: #aaa"/>
      <path d="M628.32,141.7a3.42,3.42,0,0,1,1.1.18,3.71,3.71,0,0,1,.82.46,2,2,0,0,1,.46.73,3.32,3.32,0,0,1,.18,1l-1.56.37a2.28,2.28,0,0,0-.18-.92.74.74,0,0,0-.73-.37.69.69,0,0,0-.46.09l-.27.27a.55.55,0,0,0-.09.37V150c0,.09.09.27.09.37l.27.27a.69.69,0,0,0,.46.09c.64,0,.92-.46.92-1.28a2.53,2.53,0,0,0,.82.09c.27,0,.55.09.82.09a3,3,0,0,1-.64,1.92,2.41,2.41,0,0,1-1.83.73,2.33,2.33,0,0,1-1.92-.64,2.58,2.58,0,0,1-.64-1.92v-5.22a4.46,4.46,0,0,1,.09-1.1,2.9,2.9,0,0,1,.46-.92,2,2,0,0,1,.82-.64,1.87,1.87,0,0,1,1-.18" style="fill: #aaa"/>
      <path d="M638.58,149.57a2.91,2.91,0,0,1-.64,2.11,2.62,2.62,0,0,1-1.92.73,2.33,2.33,0,0,1-1.92-.64,3,3,0,0,1-.64-1.92v-5.31a4,4,0,0,1,.18-1.1,2.88,2.88,0,0,1,.46-.92,1.34,1.34,0,0,1,.83-.55,4.63,4.63,0,0,1,1.19-.18,4.06,4.06,0,0,1,1.19.18,1.65,1.65,0,0,1,.82.55,2.87,2.87,0,0,1,.46.92v6.14Zm-1.65-5.22a2.67,2.67,0,0,0-.18-.82c-.09-.27-.37-.37-.73-.37a.69.69,0,0,0-.46.09l-.27.27c-.09.09-.09.27-.18.46v5.77a1.74,1.74,0,0,0,.18.73,1,1,0,0,0,.73.37.74.74,0,0,0,.73-.37c.18-.18.18-.46.18-.82Z" style="fill: #aaa"/>
      <path d="M642.43,152.32v2h-1.37v-3.39l.64-.09a2.18,2.18,0,0,0,.55-1,6.53,6.53,0,0,0,.18-1.56l.18-6.41h4.76v9.07H648v3.48h-1.37v-2h-4.21Zm1.47-4.12c0,.64-.09,1.1-.09,1.56a3.09,3.09,0,0,1-.37,1.1h2.29v-7.51h-1.65Z" style="fill: #aaa"/>
      <polygon points="650.67 152.32 650.67 141.79 655.34 141.79 655.34 143.34 652.32 143.34 652.32 146.18 654.97 146.18 654.97 147.74 652.32 147.74 652.32 150.76 655.34 150.76 655.34 152.32 650.67 152.32" style="fill: #aaa"/>
      <path d="M661.84,145.72l-2.2,6.59h-1.56V141.79h1.56v6.68l2.2-6.68h1.56v10.53h-1.65Zm-2-6.32a.69.69,0,0,0,.09.37c.09.09.09.18.18.37l.27.27a.55.55,0,0,0,.37.09c.18,0,.27,0,.37-.09l.27-.27a.47.47,0,0,0,.18-.37c0-.09.09-.18.09-.37h1.19a2.87,2.87,0,0,1-.18.73c.09.18-.09.46-.27.64a4,4,0,0,1-.64.55,2.71,2.71,0,0,1-.92.18,3.29,3.29,0,0,1-1-.18,1.23,1.23,0,0,1-.64-.55,2.32,2.32,0,0,1-.37-.64,2.83,2.83,0,0,1-.18-.73Z" style="fill: #aaa"/>
      <path d="M669.08,141.7a3.41,3.41,0,0,1,1.1.18,3.72,3.72,0,0,1,.83.46,2,2,0,0,1,.46.73,3.32,3.32,0,0,1,.18,1l-1.56.37a2.28,2.28,0,0,0-.18-.92.74.74,0,0,0-.73-.37.69.69,0,0,0-.46.09l-.27.27a.55.55,0,0,0-.09.37V150c0,.09.09.27.09.37l.27.27a.69.69,0,0,0,.46.09c.64,0,.92-.46.92-1.28a2.53,2.53,0,0,0,.82.09c.28,0,.55.09.83.09a3,3,0,0,1-.64,1.92,2.41,2.41,0,0,1-1.83.73,2.33,2.33,0,0,1-1.92-.64,2.58,2.58,0,0,1-.64-1.92v-5.22a4.46,4.46,0,0,1,.09-1.1,2.88,2.88,0,0,1,.46-.92,2,2,0,0,1,.82-.64,2.14,2.14,0,0,1,1-.18" style="fill: #aaa"/>
      <polygon points="676.95 143.34 676.95 152.32 675.3 152.32 675.3 143.34 673.56 143.34 673.56 141.79 678.6 141.79 678.6 143.34 676.95 143.34" style="fill: #aaa"/>
      <path d="M685,146.82a1.39,1.39,0,0,1,.92.82,3.78,3.78,0,0,1,.27,1.47,3.36,3.36,0,0,1-.73,2.38,2.67,2.67,0,0,1-2.2.73h-2.2V141.79h2.29a2.56,2.56,0,0,1,2,.73,3.51,3.51,0,0,1,.37,3.39c0,.37-.37.64-.73.92m-.46-2.11a1.47,1.47,0,0,0-.27-1,1.37,1.37,0,0,0-.92-.27h-.55v2.75h.55a1,1,0,0,0,.92-.37,2.43,2.43,0,0,0,.27-1.1m.09,4.21a2,2,0,0,0-.27-1.1,1,1,0,0,0-.92-.37h-.64v3.3h.64a1.32,1.32,0,0,0,.64-.18.72.72,0,0,0,.37-.37,1.3,1.3,0,0,0,.18-.55Z" style="fill: #aaa"/>
      <polygon points="693.07 145.72 690.87 152.32 689.31 152.32 689.31 141.79 690.87 141.79 690.87 148.47 690.96 148.47 693.16 141.79 694.72 141.79 694.72 152.32 693.07 152.32 693.07 145.72" style="fill: #aaa"/>
      <path d="M697.46,152.32,698,149a2.74,2.74,0,0,1,.37-.92,1.44,1.44,0,0,1,.64-.64,2,2,0,0,1-1-.92,3.47,3.47,0,0,1-.27-1.46,3.69,3.69,0,0,1,.73-2.38,2.63,2.63,0,0,1,2.11-.82H703v10.53h-1.65v-4.58h-.46a1.12,1.12,0,0,0-.82.37c-.27.18-.37.64-.55,1.19l-.46,2.93Zm3.2-9a1.18,1.18,0,0,0-1,.46,2.08,2.08,0,0,0-.27,1.19,1.34,1.34,0,0,0,.37,1.1,1.55,1.55,0,0,0,.92.27h.64v-3Z" style="fill: #aaa"/>
      <polygon points="590.41 161.02 587.67 169.17 585.74 169.17 585.74 156.16 587.76 156.16 587.76 164.41 587.85 164.41 590.6 156.16 592.61 156.16 592.61 169.17 590.5 169.17 590.41 161.02" style="fill: #aaa"/>
      <polygon points="602.41 169.17 602.41 163.49 600.12 163.49 600.12 169.17 598.11 169.17 598.11 156.16 600.12 156.16 600.12 161.57 602.5 161.57 602.5 156.16 604.51 156.16 604.51 169.17 602.41 169.17" style="fill: #aaa"/>
      <polygon points="614.5 169.17 614.5 163.49 612.12 163.49 612.12 169.17 610.1 169.17 610.1 156.16 612.12 156.16 612.12 161.57 614.5 161.57 614.5 156.16 616.51 156.16 616.51 169.17 614.5 169.17" style="fill: #aaa"/>
      <path d="M628.42,165.87a4.07,4.07,0,0,1-.73,2.56,3.22,3.22,0,0,1-2.47.82,3,3,0,0,1-2.38-.82,3.69,3.69,0,0,1-.73-2.38v-6.5a5.5,5.5,0,0,1,.18-1.37,2.09,2.09,0,0,1,.55-1.1,2.86,2.86,0,0,1,1-.73,3.49,3.49,0,0,1,1.47-.27,4,4,0,0,1,1.56.27,3.77,3.77,0,0,1,1,.64,2.09,2.09,0,0,1,.55,1.1,7.06,7.06,0,0,1,.18,1.47v6.32Zm-2-6.5a2.09,2.09,0,0,0-.27-1,1,1,0,0,0-.92-.46.77.77,0,0,0-.55.18c-.18.09-.28.27-.37.37a1.31,1.31,0,0,0-.18.55c0,.18-.09.37-.09.55v6.59a1.55,1.55,0,0,0,.27.92,1,1,0,0,0,.92.37,1,1,0,0,0,.92-.46,1.85,1.85,0,0,0,.27-1Z" style="fill: #aaa"/>
      <path d="M638.76,162.39a1.79,1.79,0,0,1,1.19,1.1,5.44,5.44,0,0,1,.37,1.83,4.12,4.12,0,0,1-.92,3,3.35,3.35,0,0,1-2.66.92H634v-13.1h2.84a2.83,2.83,0,0,1,2.47.92,3.85,3.85,0,0,1,.82,2.66,4,4,0,0,1-.27,1.56,1.72,1.72,0,0,1-1.1,1Zm-.55-2.66a1.66,1.66,0,0,0-.37-1.28,1.55,1.55,0,0,0-1.19-.37H636v3.3h.64a1.58,1.58,0,0,0,1.19-.46c.27-.18.37-.64.37-1.19m.09,5.31a1.9,1.9,0,0,0-.37-1.37,1.45,1.45,0,0,0-1.19-.46H636v4h.82a2.19,2.19,0,0,0,.82-.18,1.1,1.1,0,0,0,.46-.46,1.74,1.74,0,0,0,.18-.73Z" style="fill: #aaa"/>
      <path d="M650.58,169.17l-.55-2.75h-2.38l-.27,1.37-.27,1.37H645c.46-2.2.92-4.4,1.28-6.5s.92-4.3,1.28-6.5h2.29l2.66,13Zm-1.83-10c-.09.92-.28,1.83-.37,2.66s-.27,1.83-.46,2.75h1.83l-.83-5.4Z" style="fill: #aaa"/>
      <polygon points="663.86 156.16 663.86 167.34 664.68 167.34 664.68 171.73 662.94 171.73 662.94 169.26 657.45 169.26 657.45 156.16 659.46 156.16 659.46 167.34 661.75 167.34 661.75 156.16 663.86 156.16" style="fill: #aaa"/>
      <polygon points="674.2 161.02 671.46 169.17 669.53 169.17 669.53 156.16 671.55 156.16 671.55 164.41 674.3 156.16 676.31 156.16 676.31 169.17 674.3 169.17 674.2 161.02" style="fill: #aaa"/>
      <path d="M681.35,169.17l.73-4.12a2.71,2.71,0,0,1,.46-1.19,1.8,1.8,0,0,1,.83-.82,2.58,2.58,0,0,1-1.28-1.1,5.41,5.41,0,0,1-.37-1.83,4,4,0,0,1,.92-2.93,3.45,3.45,0,0,1,2.56-1h3v13h-2v-5.59h-.55a1.53,1.53,0,0,0-1,.37,2.44,2.44,0,0,0-.64,1.47l-.64,3.66h-2Zm4-11.08a1.42,1.42,0,0,0-1.28.55,2.32,2.32,0,0,0-.37,1.47,1.53,1.53,0,0,0,.46,1.28,1.69,1.69,0,0,0,1.19.37h.82v-3.66Z" style="fill: #aaa"/>
      <polygon points="697.65 166.33 696.73 163.95 695.91 161.66 695.82 161.66 695.82 169.17 693.8 169.17 693.8 156.16 695.82 156.16 697.28 159.83 698.29 162.67 698.38 162.67 699.48 159.74 700.85 156.07 702.78 156.07 702.78 169.08 700.76 169.08 700.76 161.57 700.67 161.57 699.85 163.86 698.93 166.24 697.65 166.24 697.65 166.33" style="fill: #aaa"/>
    </g>
    <g>
      <path d="M700,177a58.62,58.62,0,0,1-14.4,10.57c-11.81,6.27-25.36,8.94-37.54,9.14h-1.38c-1.39,0-2.86,0-4.34-.1-18.81-.83-41.13-7.1-56.81-23.61h11.44l.2.23c10.06,11.23,29.35,18.63,50.37,19.33,1.11,0,2.22.05,3.33.05C670.06,192.66,687.53,187.08,700,177Z" style="fill: #aaa"/>
      <path d="M701.3,175c-13.06,11.47-32.47,17.59-53.77,16.89-20.68-.7-39.67-7.91-49.65-18.87H609l.26.26c9.33,8.86,24.6,14.31,41.91,14.94,1.13,0,2.25.06,3.37.06A87.15,87.15,0,0,0,701.3,175Z" style="fill: #aaa"/>
      <path d="M702,173.69c-14.4,9.6-32.47,14.52-50.86,13.84-17-.62-32-5.9-41.18-14.5h11.84c6.74,6.46,19.28,10.79,35.23,10.79h.65a111.65,111.65,0,0,0,39-7.93C698.46,175.19,700.24,174.46,702,173.69Z" style="fill: #aaa"/>
    </g>
  </g>
  <g>
    <g style="mask: url(#a)">
      <g>
        <rect x="430.12" y="54.9" width="31.49" height="13.36" style="fill: #aaa"/>
        <path d="M451.1,78.59,461,61.46l-9.91,5.72Z" style="fill: #aaa"/>
      </g>
    </g>
    <g style="mask: url(#b)">
      <g>
        <rect x="420.58" y="72.07" width="31.49" height="13.36" style="fill: #aaa"/>
        <path d="M441.2,95.73l9.9-17.14-9.91,5.71Z" style="fill: #aaa"/>
      </g>
    </g>
    <g style="mask: url(#c)">
      <g>
        <rect x="400.54" y="49.17" width="31.49" height="13.36" style="fill: #aaa"/>
        <path d="M421.35,72.92l9.9-17.13-9.91,5.71Z" style="fill: #aaa"/>
      </g>
    </g>
    <path d="M461.25,89.09h3.88L464.18,86l-.91-3.55h-.14L462.19,86ZM466,92.21h-5.65l-1,3.12c-.09.32-.22.47-.69.47h-2.89c-.34,0-.41-.25-.34-.49l5.16-15.59c.34-1.14.78-1.34,1.79-1.36h1.49c1.11,0,1.53.15,1.92,1.36L471,95.31a.34.34,0,0,1-.32.49h-2.94c-.37,0-.61,0-.71-.39Z" style="fill: #aaa"/>
    <path d="M483,92c.46-.2.61-.07.76.3l.84,1.79c.23.47.15.64-.14.82a10.75,10.75,0,0,1-5.7,1.39c-5.37,0-7.78-3.36-7.78-8.88s3.22-9.05,8-9.05a9.74,9.74,0,0,1,4.84,1c.37.21.42.33.2.87L483.24,82c-.18.45-.27.55-.74.37a9.22,9.22,0,0,0-3.35-.64c-2.72,0-4.18,2.43-4.18,5.68s1,5.44,4.27,5.44A10.25,10.25,0,0,0,483,92" style="fill: #aaa"/>
    <path d="M497,84.16l-2.2,3.73-4.13,6.81a1.66,1.66,0,0,1-1.86,1h-1c-1.29,0-1.61-.67-1.61-1.72V78.84c0-.35.15-.48.52-.48h2.64c.45,0,.53.1.53.48V90.05h.14l2.06-3.48,4.27-7.06c.57-.95.85-1.12,1.83-1.12h1c1.21,0,1.6.45,1.6,1.75V95.35c0,.34-.14.47-.52.47h-2.64c-.44,0-.55-.09-.55-.47V84.16Z" style="fill: #aaa"/>
  </g>
  <g>
    <path d="M267.64,66.53V57.81h1.7l2.46,5.6h.53l2.46-5.6h1.7v8.72h-1.06v-7.6h0L273,64.41h-1.93l-2.38-5.48h0v7.6Z" style="fill: #aaa"/>
    <path d="M279.26,65.7a3,3,0,0,1-.76-1,2.63,2.63,0,0,1-.24-1.18,2.72,2.72,0,0,1,.26-1.18,3.09,3.09,0,0,1,.76-1,3.61,3.61,0,0,1,1.15-.67,4,4,0,0,1,2.71,0,3.62,3.62,0,0,1,1.15.66,3.09,3.09,0,0,1,.77,1,2.74,2.74,0,0,1,.27,1.18,2.85,2.85,0,0,1-.63,1.69,3.53,3.53,0,0,1-1.58,1.12,4.08,4.08,0,0,1-2,.19,3.8,3.8,0,0,1-1.82-.8Zm.77-3.77a2.15,2.15,0,0,0-.53.72,1.91,1.91,0,0,0-.17.84,1.93,1.93,0,0,0,.17.84,2.16,2.16,0,0,0,.52.72,2.81,2.81,0,0,0,3.5,0,2.14,2.14,0,0,0,.53-.72,2.24,2.24,0,0,0,0-1.68,2.13,2.13,0,0,0-.53-.72,2.78,2.78,0,0,0-3.5,0Z" style="fill: #aaa"/>
    <path d="M287.11,65.67a3,3,0,0,1-.69-1,3.38,3.38,0,0,1,0-2.36,3,3,0,0,1,.69-1,3.22,3.22,0,0,1,1.09-.67,3.38,3.38,0,0,1,2.54.09,3.18,3.18,0,0,1,1,.74,3,3,0,0,1,.57,1h-1a1.92,1.92,0,0,0-.41-.59,2.13,2.13,0,0,0-.73-.45,2.23,2.23,0,0,0-.86-.14,2.1,2.1,0,0,0-.83.15,2,2,0,0,0-.69.47,2.13,2.13,0,0,0-.63,1.54,2.1,2.1,0,0,0,.63,1.55,2,2,0,0,0,.68.46,2.11,2.11,0,0,0,.82.16,2.21,2.21,0,0,0,.9-.15A2.09,2.09,0,0,0,291,65a1.91,1.91,0,0,0,.43-.65h1A2.88,2.88,0,0,1,291.28,66a3.2,3.2,0,0,1-1.94.58,3.15,3.15,0,0,1-1.21-.21A3,3,0,0,1,287.11,65.67Z" style="fill: #aaa"/>
    <path d="M293.3,66.53v-6.1h1.09v2.44h1.38l2.2-2.44h1.32l-2.54,2.87,2.75,3.22h-1.38l-2.34-2.73H294.4v2.75Z" style="fill: #aaa"/>
    <path d="M300.37,65.69a2.92,2.92,0,0,1-.67-1,2.87,2.87,0,0,1-.21-1.16,3,3,0,0,1,.21-1.18,3,3,0,0,1,.66-1,3.1,3.1,0,0,1,1-.68,3.17,3.17,0,0,1,2.42,0,3.1,3.1,0,0,1,1,.68,3,3,0,0,1,.66,1,3,3,0,0,1,.21,1.18,3,3,0,0,1-.55,1.66,3.13,3.13,0,0,1-1.39,1.1,3.22,3.22,0,0,1-1.78.18A3.17,3.17,0,0,1,300.37,65.69Zm.68-3.7a2.12,2.12,0,0,0-.46.71,2.44,2.44,0,0,0,0,1.65,2.11,2.11,0,0,0,.46.71,2.26,2.26,0,0,0,3.07,0,2.14,2.14,0,0,0,.46-.71,2.19,2.19,0,0,0-.46-2.36,2.24,2.24,0,0,0-3.07,0Z" style="fill: #aaa"/>
    <path d="M307.45,66.53v-6.1h3.13a2.15,2.15,0,0,1,1.41.43,1.41,1.41,0,0,1,.38.49,1.35,1.35,0,0,1,.13.6,1.7,1.7,0,0,1-.09.55,1.19,1.19,0,0,1-.22.39,1.29,1.29,0,0,1-.27.23,1.08,1.08,0,0,1-.24.12l-.13,0,.15,0a1.34,1.34,0,0,1,.3.13,2.2,2.2,0,0,1,.35.25,1.22,1.22,0,0,1,.29.43,1.8,1.8,0,0,1,0,1.33,1.63,1.63,0,0,1-.44.58,2.36,2.36,0,0,1-1.59.49Zm1-3.6h2c.64,0,1-.26,1-.8s-.32-.79-1-.79h-2Zm0,2.68h2.11a1.32,1.32,0,0,0,.86-.24.85.85,0,0,0,.23-.3.82.82,0,0,0,.07-.37.8.8,0,0,0-.07-.37.84.84,0,0,0-.23-.31,1.32,1.32,0,0,0-.86-.24h-2.11Z" style="fill: #aaa"/>
    <path d="M314.54,65.64a3,3,0,0,1-.68-1,3.29,3.29,0,0,1,0-2.34,3,3,0,0,1,.68-1,3.21,3.21,0,0,1,1.09-.67,3.37,3.37,0,0,1,2.54.09,3.18,3.18,0,0,1,1,.74,2.9,2.9,0,0,1,.56,1h-1a1.86,1.86,0,0,0-.41-.59,2.11,2.11,0,0,0-.73-.45,2.21,2.21,0,0,0-.86-.14,2.09,2.09,0,0,0-.83.15,2,2,0,0,0-.69.47,2.13,2.13,0,0,0-.6,1.55,2.1,2.1,0,0,0,.62,1.55,2,2,0,0,0,.68.46,2.11,2.11,0,0,0,.82.16,2.2,2.2,0,0,0,.9-.15,2.09,2.09,0,0,0,.75-.5,1.81,1.81,0,0,0,.42-.65h1a2.86,2.86,0,0,1-.57,1.09,3.05,3.05,0,0,1-1.11.82,3.24,3.24,0,0,1-1.38.26,3.13,3.13,0,0,1-1.22-.22A3,3,0,0,1,314.54,65.64Z" style="fill: #aaa"/>
    <path d="M320.73,66.53v-6.1h1.09v2.44h1.38l2.21-2.44h1.31l-2.55,2.87,2.76,3.22h-1.38l-2.34-2.73h-1.38v2.75Z" style="fill: #aaa"/>
    <path d="M327.8,66.53V60.43h1v4.7h0l3.25-4.7h1.09v6.11h-1v-4.7h0l-3.24,4.7Z" style="fill: #aaa"/>
    <path d="M334.88,66.53V60.3h1v4.8h0l3.24-4.8h1.09v6.23h-1v-4.8h0L336,66.53Zm.87-8.72h.9a.72.72,0,0,0,.06.3.69.69,0,0,0,.17.24,1.24,1.24,0,0,0,1.36,0,.7.7,0,0,0,.23-.54h.9a1.45,1.45,0,0,1-.12.62,1.42,1.42,0,0,1-.37.5,2.25,2.25,0,0,1-2.66,0,1.43,1.43,0,0,1-.36-.51,1.47,1.47,0,0,1-.11-.62Z" style="fill: #aaa"/>
    <path d="M267.64,77V70.9h1v4.7h0l3.24-4.7h1.08V77h-1V72.3h0L268.72,77Z" style="fill: #aaa"/>
    <path d="M274.71,77V70.9h1v2.5h3.39V70.9h1V77h-1V74.32h-3.38V77Z" style="fill: #aaa"/>
    <path d="M281.79,77V70.9h1v2.5h3.39V70.9h1V77h-1V74.32h-3.39V77Z" style="fill: #aaa"/>
    <path d="M289.75,76.16a2.92,2.92,0,0,1-.67-1,2.87,2.87,0,0,1-.21-1.16,2.94,2.94,0,0,1,.21-1.18,3,3,0,0,1,.66-1,3.1,3.1,0,0,1,1-.68,3.17,3.17,0,0,1,2.42,0,3.1,3.1,0,0,1,1,.68,3,3,0,0,1,.66,1,3,3,0,0,1,.21,1.18,3,3,0,0,1-.55,1.66,3.13,3.13,0,0,1-1.39,1.1,3.22,3.22,0,0,1-1.78.18A3.17,3.17,0,0,1,289.75,76.16Zm.68-3.7a2.11,2.11,0,0,0-.46.71,2.44,2.44,0,0,0,0,1.65,2.11,2.11,0,0,0,.46.71,2.24,2.24,0,0,0,3.07,0,2.09,2.09,0,0,0,.46-.71,2.44,2.44,0,0,0,0-1.65,2.09,2.09,0,0,0-.46-.71,2.24,2.24,0,0,0-3.07,0Z" style="fill: #aaa"/>
    <path d="M296.83,77V70.9H300a2.15,2.15,0,0,1,1.41.43,1.4,1.4,0,0,1,.39.49,1.33,1.33,0,0,1,.13.6,1.69,1.69,0,0,1-.09.55,1.11,1.11,0,0,1-.49.62,1.1,1.1,0,0,1-.24.12l-.14,0,.16,0a1.3,1.3,0,0,1,.3.14,2.1,2.1,0,0,1,.34.25,1.21,1.21,0,0,1,.29.43,1.54,1.54,0,0,1,.12.62,1.58,1.58,0,0,1-.13.71,1.66,1.66,0,0,1-.44.58A2.39,2.39,0,0,1,300,77Zm1-3.6h2c.64,0,1-.26,1-.79s-.31-.78-1-.78h-2Zm0,2.69H300a1.31,1.31,0,0,0,.86-.25,1,1,0,0,0,.22-.31.9.9,0,0,0,0-.73,1,1,0,0,0-.22-.31,1.31,1.31,0,0,0-.86-.25h-2.11Z" style="fill: #aaa"/>
    <path d="M303.9,76.13a3.16,3.16,0,0,1,0-4.36,2.8,2.8,0,0,1,1-.66A2.94,2.94,0,0,1,306,70.9a2.82,2.82,0,0,1,1.32.28,2.25,2.25,0,0,1,.79.62l.11.17V71h1v5.89h-1v-1l-.11.17a2.15,2.15,0,0,1-.77.61A2.87,2.87,0,0,1,306,77a2.94,2.94,0,0,1-1.15-.22A2.8,2.8,0,0,1,303.9,76.13Zm.74-3.75a2.32,2.32,0,0,0,0,3.11,2.11,2.11,0,0,0,.69.45,2.2,2.2,0,0,0,1.65,0,2.1,2.1,0,0,0,.69-.45,2.31,2.31,0,0,0,0-3.11,2.1,2.1,0,0,0-.69-.45,2.2,2.2,0,0,0-1.65,0A2.11,2.11,0,0,0,304.64,72.38Z" style="fill: #aaa"/>
    <path d="M311,77.28V70.9h1v5.43h3.3V70.9h1v5.43h.89v2.43h-1V77.28Z" style="fill: #aaa"/>
    <path d="M318.07,77V70.9h1v4.7h0l3.25-4.7h1.09V77h-1V72.3h0L319.16,77Z" style="fill: #aaa"/>
    <path d="M326,76.16a2.94,2.94,0,0,1-.67-1,2.88,2.88,0,0,1-.21-1.16,3,3,0,0,1,.21-1.18,3,3,0,0,1,.66-1,3.1,3.1,0,0,1,1-.68,3.17,3.17,0,0,1,2.42,0,3.1,3.1,0,0,1,1,.68,3,3,0,0,1,.66,1,2.94,2.94,0,0,1,.21,1.18,3,3,0,0,1-.55,1.66,3.13,3.13,0,0,1-1.39,1.1,3.22,3.22,0,0,1-1.78.18A3.17,3.17,0,0,1,326,76.16Zm.68-3.7a2.09,2.09,0,0,0-.46.71,2.44,2.44,0,0,0,0,1.65,2.09,2.09,0,0,0,.46.71,2.24,2.24,0,0,0,3.07,0,2.09,2.09,0,0,0,.46-.71,2.45,2.45,0,0,0,0-1.65,2.11,2.11,0,0,0-.46-.71,2.24,2.24,0,0,0-3.07,0Z" style="fill: #aaa"/>
    <path d="M333.11,77V70.9h1v2.5h3.39V70.9h1V77h-1V74.32h-3.38V77Z" style="fill: #aaa"/>
    <path d="M340.19,77V70.9h1v2.5h3.39V70.9h1V77h-1V74.32h-3.39V77Z" style="fill: #aaa"/>
    <path d="M347.27,77V70.9h1.05V73h1.59a2.77,2.77,0,0,1,1.82.58,1.94,1.94,0,0,1,.52.65,1.78,1.78,0,0,1,0,1.57,1.94,1.94,0,0,1-.52.65,2.77,2.77,0,0,1-1.82.58Zm1.05-.92h1.59a1.68,1.68,0,0,0,1.08-.31,1.07,1.07,0,0,0,.28-.36,1,1,0,0,0,0-.87,1.07,1.07,0,0,0-.28-.36,1.7,1.7,0,0,0-1.08-.32h-1.59Zm5,.92V70.9h1.05V77Z" style="fill: #aaa"/>
    <path d="M356.12,77V70.77h1v4.8h0l3.25-4.8h1.09V77h-1V72.2h0L357.2,77Zm.87-8.72h.9a.7.7,0,0,0,.05.3.68.68,0,0,0,.17.24,1.2,1.2,0,0,0,1.35,0,.67.67,0,0,0,.17-.24.69.69,0,0,0,.05-.3h.9a1.45,1.45,0,0,1-.12.63,1.43,1.43,0,0,1-.37.51,2.23,2.23,0,0,1-2.65,0,1.42,1.42,0,0,1-.37-.51A1.46,1.46,0,0,1,357,68.28Z" style="fill: #aaa"/>
    <path d="M267.64,87.47V81.37h.94v2.44h1.18l1.89-2.44h1.12l-2.18,2.87,2.36,3.22h-1.17l-2-2.75h-1.18v2.75Z" style="fill: #aaa"/>
    <path d="M272.94,87.47l1.76-6.11h2.66l1.77,6.11h-1.09l-1.45-5.19h-1.14L274,87.47Z" style="fill: #aaa"/>
    <path d="M280.89,86.59a3.17,3.17,0,0,1,0-4.35,2.8,2.8,0,0,1,1-.65,2.94,2.94,0,0,1,1.16-.22,2.87,2.87,0,0,1,1.32.28,2.36,2.36,0,0,1,.79.62l.11.18v-1h1v5.89h-1v-.93l-.11.16a2.16,2.16,0,0,1-.75.6,2.9,2.9,0,0,1-1.35.29,2.94,2.94,0,0,1-1.16-.22A2.8,2.8,0,0,1,280.89,86.59Zm.73-3.75a2.34,2.34,0,0,0,0,3.13,2.11,2.11,0,0,0,.69.45,2.22,2.22,0,0,0,1.65,0,2.12,2.12,0,0,0,.69-.45,2.33,2.33,0,0,0,0-3.13,2.11,2.11,0,0,0-.69-.45,2.21,2.21,0,0,0-1.65,0A2.1,2.1,0,0,0,281.62,82.85Z" style="fill: #aaa"/>
    <path d="M288.89,86.6a3.09,3.09,0,0,1,0-4.36,3.22,3.22,0,0,1,1.09-.67,3.39,3.39,0,0,1,2.55.09,3.18,3.18,0,0,1,1,.74,2.88,2.88,0,0,1,.57,1h-1a1.91,1.91,0,0,0-.42-.6,2.13,2.13,0,0,0-.73-.45,2.24,2.24,0,0,0-.86-.14,2.1,2.1,0,0,0-.83.15,2,2,0,0,0-.69.47A2.12,2.12,0,0,0,289,84.4a2.09,2.09,0,0,0,.63,1.55,2,2,0,0,0,.68.46,2.13,2.13,0,0,0,.82.16,2.22,2.22,0,0,0,.9-.15,2.08,2.08,0,0,0,.75-.5,1.82,1.82,0,0,0,.41-.63h1a2.85,2.85,0,0,1-.58,1.09,3.07,3.07,0,0,1-1.11.81,3.26,3.26,0,0,1-1.38.27,3.16,3.16,0,0,1-1.21-.21A3,3,0,0,1,288.89,86.6Z" style="fill: #aaa"/>
    <path d="M294.18,82.28v-.92h5.31v.92h-2.16v5.19h-1V82.28Z" style="fill: #aaa"/>
    <path d="M301.26,86.6a3.13,3.13,0,0,1,0-4.36,3,3,0,0,1,1-.66,3.07,3.07,0,0,1,1.2-.21,3.13,3.13,0,0,1,1.2.21,3,3,0,0,1,1,.65,2.93,2.93,0,0,1,.67,1,2.84,2.84,0,0,1,.21,1.16v.34h-5.22a2.09,2.09,0,0,0,2.12,1.88,2.35,2.35,0,0,0,1.54-.53,1.86,1.86,0,0,0,.46-.53h1A3,3,0,0,1,305.27,87a3.17,3.17,0,0,1-1.81.51,3.07,3.07,0,0,1-1.2-.21A3,3,0,0,1,301.26,86.6Zm.11-2.71h4.17a1.88,1.88,0,0,0-.66-1.17,2.08,2.08,0,0,0-1.4-.48,2.13,2.13,0,0,0-1.41.48A1.92,1.92,0,0,0,301.37,83.89Z" style="fill: #aaa"/>
    <path d="M308.34,90.09V81.5h1v1l.13-.19a2.14,2.14,0,0,1,.76-.63,2.72,2.72,0,0,1,1.34-.31,2.8,2.8,0,0,1,2.12.93,3.5,3.5,0,0,1,0,4.6,3,3,0,0,1-3.47.62,1.93,1.93,0,0,1-.75-.64l-.13-.17v3.39Zm1.6-7.13a2.57,2.57,0,0,0,0,3.31,2.1,2.1,0,0,0,3,0A2.57,2.57,0,0,0,313,83a2.09,2.09,0,0,0-3,0Z" style="fill: #aaa"/>
    <g>
      <path d="M259.18,53.46v38H244.49V83.87A38,38,0,0,0,248,80.71,38.87,38.87,0,0,0,259.18,53.46Z" style="fill: #aaa"/>
      <path d="M235.8,53.46V71.88a23,23,0,0,1-7.11,4A38.94,38.94,0,0,0,235.8,53.46Z" style="fill: #aaa"/>
      <path d="M259.18,53.46A38.87,38.87,0,0,1,248,80.71,38,38,0,0,1,221.11,92V83.88A37.78,37.78,0,0,1,197.73,92V77.16a23.26,23.26,0,0,0,16.53-7,23.89,23.89,0,0,0,6.85-16.75H235.8a38.94,38.94,0,0,1-7.11,22.41,23,23,0,0,0,7.11-4,21.81,21.81,0,0,0,1.85-1.68,23.89,23.89,0,0,0,6.85-16.75Z" style="fill: #aaa;opacity: 0.6000000000000001"/>
      <path d="M235.8,53.45v0H221.11v0Z" style="fill: #aaa"/>
      <path d="M259.18,53.45v0H244.49v0Z" style="fill: #aaa"/>
    </g>
  </g>
  <g>
    <path d="M427.67,188.15a2.63,2.63,0,0,0-2.82-2.26c-1.28,0-3.2.91-3.2,4.5,0,2.28,1,4.39,3.2,4.39a2.76,2.76,0,0,0,2.82-2.45h2.65a5.28,5.28,0,0,1-5.52,4.7c-3.38,0-5.8-2.3-5.8-6.68s2.56-6.71,5.83-6.71c3.81,0,5.34,2.63,5.49,4.5h-2.65Z" style="fill: #aaa"/>
    <path d="M433.57,190.86l3.11-3.58h3l-3.31,3.64,3.4,5.78h-3l-2.25-4-1,1.07v3h-2.47v-9.43h2.47v3.58Z" style="fill: #aaa"/>
    <path d="M448.84,192A4.81,4.81,0,1,1,444,187a4.59,4.59,0,0,1,4.8,4.94m-7.08,0c0,1.21.37,2.89,2.28,2.89s2.26-1.66,2.26-2.87-.35-2.87-2.26-2.87-2.28,1.64-2.28,2.85" style="fill: #aaa"/>
    <path d="M458.13,187.28v9.43h-2.47v-7.44H453v2.91c0,3.61-1.09,4.74-2.82,4.74a5.34,5.34,0,0,1-1.5-.21v-1.84a2.45,2.45,0,0,0,.73.07c.74,0,1.13-.37,1.13-3.24v-4.42h7.58Z" style="fill: #aaa"/>
    <path d="M461.86,190.86l3.11-3.58h3l-3.31,3.64,3.4,5.78h-3l-2.24-4-1,1.07v3h-2.47v-9.43h2.47Z" style="fill: #aaa"/>
    <path d="M477.14,192a4.81,4.81,0,1,1-4.8-4.94,4.59,4.59,0,0,1,4.8,4.94m-7.07,0c0,1.21.37,2.89,2.28,2.89s2.26-1.66,2.26-2.87-.36-2.87-2.26-2.87-2.28,1.64-2.28,2.85" style="fill: #aaa"/>
    <path d="M477.94,187.28h4.26c2.11,0,3.65.86,3.65,2.44a2.1,2.1,0,0,1-1.76,2,2.36,2.36,0,0,1,2,2.39c0,1.75-1.32,2.57-3.46,2.57h-4.72Zm2.47,3.82H482c.82,0,1.4-.33,1.4-1.07s-.56-1-1.38-1h-1.63Zm0,3.91h1.82c.91,0,1.48-.28,1.48-1.21s-.6-1.2-1.51-1.2h-1.79Z" style="fill: #aaa"/>
    <path d="M496,192a4.81,4.81,0,1,1-4.8-4.94A4.58,4.58,0,0,1,496,192m-7.08,0c0,1.21.37,2.89,2.28,2.89s2.26-1.66,2.26-2.87-.35-2.87-2.26-2.87-2.28,1.64-2.28,2.85" style="fill: #aaa"/>
    <path d="M437,181.52c2.11,0,7.29-.37,11.17-3.2v2.15H456V171l3.27-3.38,7.11,12.82h9.38L465,162.16l10.49-11.54h-9.6L456,161.94V140.18h-7.83v3.44c-2.38-2.56-6.25-4.49-12.27-4.49-13,0-15.49,7.93-15.49,12.37,0,6.1,3.28,9.49,9,10.88l8.1,2c4.27,1.06,7.33,1.83,7.33,5,0,4.22-4.44,5.22-8.44,5.22-7.33,0-8.54-4.27-8.54-6.55h-8c0,5,2.55,13.48,17.2,13.48m5.33-24-9.82-2.39c-1.67-.39-4.28-1.06-4.28-4.21,0-3.61,3.83-4.83,7-4.83,7.33,0,8,4.28,8.21,6.11h4.67v7.51a22.5,22.5,0,0,0-5.84-2.18" style="fill: #aaa"/>
  </g>
  <g>
    <g>
      <path d="M597.53,61.19V58.93H598c.43-.3.55-.78.61-1.6l.21-3.46h4.38v5.06h.77v2.27h-1.16V60H598.7v1.21Zm1.82-2.34v.07h2.52v-4h-2l-.16,2.5A2.49,2.49,0,0,1,599.35,58.86Z" style="fill: #aaa"/>
      <path d="M605,53.87H609v1.06h-2.77V56.4h2.62v1h-2.62v1.55H609V60H605Z" style="fill: #aaa"/>
      <path d="M614.43,60V54.92h-2.74V60h-1.28V53.87h5.3V60Z" style="fill: #aaa"/>
      <path d="M618.92,53.87h1.51L622.55,60h-1.35l-.46-1.49H618.6L618.14,60H616.8Zm0,3.68h1.57l-.75-2.45h-.08Z" style="fill: #aaa"/>
      <path d="M623.64,53.87h2.52A2,2,0,0,1,628.31,56h0a2,2,0,0,1-2.15,2.09h-1.25V60h-1.28Zm1.28,1v2.18h.93A1,1,0,0,0,627,56h0a1,1,0,0,0-1.16-1.08Z" style="fill: #aaa"/>
      <path d="M630.87,54.92H629V53.87h5v1.06h-1.84V60h-1.28Z" style="fill: #aaa"/>
      <path d="M636.25,53.87h1.51L639.88,60h-1.35l-.46-1.49h-2.16L635.47,60h-1.34Zm0,3.68h1.57L637,55.09H637Z" style="fill: #aaa"/>
      <path d="M641,53.87h1.47l1.69,4.48h.07l1.69-4.48h1.47V60h-1.14V55.82h-.08L644.56,60h-.8l-1.57-4.16h-.09V60H641Z" style="fill: #aaa"/>
      <path d="M648.88,53.87h4.05v1.06h-2.77V56.4h2.62v1h-2.62v1.55h2.77V60h-4.05Z" style="fill: #aaa"/>
      <path d="M654.33,53.87h1.28v2.48h2.76V53.87h1.28V60h-1.28V57.41h-2.76V60h-1.28Z" style="fill: #aaa"/>
      <path d="M662.66,54.92h-1.84V53.87h5v1.06h-1.84V60h-1.28Z" style="fill: #aaa"/>
      <path d="M602.16,70.34V65.28h-2.73v5.06h-1.28V64.22h5.3v6.12Z" style="fill: #aaa"/>
      <path d="M605,64.22h2.52a2,2,0,0,1,2.15,2.09h0a2,2,0,0,1-2.15,2.09h-1.24v1.93H605Zm1.28,1v2.18h.93a1,1,0,0,0,1.16-1.09h0a1,1,0,0,0-1.16-1.08Z" style="fill: #aaa"/>
      <path d="M610.87,64.22h4.05v1.05h-2.77v1.48h2.62v1h-2.62v1.55h2.77v1.06h-4.05Z" style="fill: #aaa"/>
      <path d="M615.71,71.55V69.29h.43c.43-.3.55-.78.61-1.6l.21-3.46h4.38v5.06h.77v2.27h-1.16V70.34h-4.07v1.21Zm1.82-2.34v.07H620v-4h-2l-.16,2.5A2.47,2.47,0,0,1,617.53,69.21Z" style="fill: #aaa"/>
      <path d="M627.15,70.34V65.28h-2.74v5.06h-1.28V64.22h5.3v6.12Z" style="fill: #aaa"/>
      <path d="M630,64.22h2.52a2,2,0,0,1,2.15,2.09h0a2,2,0,0,1-2.15,2.09h-1.25v1.93H630Zm1.28,1v2.18h.93a1,1,0,0,0,1.16-1.09h0a1,1,0,0,0-1.16-1.08Z" style="fill: #aaa"/>
      <path d="M635.86,64.22h1.27v4.09h.09L640,64.22h1.23v6.12h-1.28V66.26h-.08l-2.75,4.09h-1.23Z" style="fill: #aaa"/>
      <path d="M642.72,64.22H644v2.48h2.76V64.22H648v6.12h-1.28V67.76H644v2.58h-1.28Z" style="fill: #aaa"/>
      <path d="M649.56,64.22h1.27v4.09h.09l2.75-4.09h1.22v6.12h-1.27V66.26h-.08l-2.75,4.09h-1.23Z" style="fill: #aaa"/>
      <path d="M656.43,64.22h1.47l1.69,4.48h.08l1.69-4.48h1.46v6.12h-1.14V66.18h-.08L660,70.34h-.8l-1.57-4.16h-.09v4.16h-1.14Z" style="fill: #aaa"/>
      <path d="M666,64.22h1.51l2.13,6.12h-1.35l-.46-1.48H665.7l-.46,1.48h-1.34Zm0,3.68h1.57l-.75-2.45h-.08Z" style="fill: #aaa"/>
      <path d="M671.62,65.28h-1.84V64.22h5v1.05H672.9v5.06h-1.28Z" style="fill: #aaa"/>
      <path d="M675.92,64.22H680v1.05H677.2v1.48h2.62v1H677.2v1.55H680v1.06h-4.05Z" style="fill: #aaa"/>
      <path d="M680.76,70.34V69.22a1.54,1.54,0,0,0,.28,0c.63,0,.77-.61.81-1.41l.18-3.62h4.25v6.12H685V65.28h-1.83L683,67.92c-.08,1.51-.54,2.47-1.81,2.47A1.73,1.73,0,0,1,680.76,70.34Z" style="fill: #aaa"/>
      <path d="M687.67,64.22H689v2.05h1.19a2,2,0,0,1,2.19,2h0a2,2,0,0,1-2.12,2h-2.53ZM689,67.28v2h.91c.73,0,1.15-.36,1.15-1h0c0-.66-.43-1-1.15-1Z" style="fill: #aaa"/>
      <path d="M693.42,67.28h0c0-2,1.1-3.21,2.87-3.21a2.5,2.5,0,0,1,2.66,2.22v.05H697.7v0a1.38,1.38,0,0,0-1.41-1.15c-1,0-1.56.81-1.56,2.12h0c0,1.32.6,2.13,1.57,2.13a1.35,1.35,0,0,0,1.4-1.08v0h1.25v0a2.46,2.46,0,0,1-2.66,2.15C694.52,70.5,693.42,69.27,693.42,67.28Z" style="fill: #aaa"/>
      <path d="M701.42,65.28h-1.84V64.22h5v1.05H702.7v5.06h-1.28Z" style="fill: #aaa"/>
      <path d="M705.72,64.22h2.67c1.19,0,1.89.58,1.89,1.52h0a1.33,1.33,0,0,1-1.1,1.3v.08a1.46,1.46,0,0,1,1.4,1.46h0c0,1.07-.81,1.75-2.11,1.75h-2.75Zm1.28.95v1.59h1c.69,0,1.07-.29,1.07-.79h0c0-.5-.35-.79-1-.79Zm0,2.44v1.78h1.14c.74,0,1.14-.31,1.14-.89h0c0-.57-.41-.87-1.17-.87Z" style="fill: #aaa"/>
      <path d="M713.42,64.22h1.51l2.13,6.12H715.7l-.46-1.48h-2.16l-.46,1.48H711.3Zm0,3.68H715l-.75-2.45h-.08Z" style="fill: #aaa"/>
      <path d="M598.15,74.58h1.27v4.09h.09l2.75-4.09h1.23V80.7h-1.28V76.61h-.08l-2.75,4.09h-1.23Z" style="fill: #aaa"/>
      <path d="M607.24,74.58h1.27v4.09h.09l2.75-4.09h1.23V80.7H611.3V76.61h-.08l-2.75,4.09h-1.23Z" style="fill: #aaa"/>
      <path d="M614.1,74.58h1.28v2.48h2.76V74.58h1.28V80.7h-1.28V78.12h-2.76V80.7H614.1Z" style="fill: #aaa"/>
      <path d="M620.95,74.58h1.28v2.48H625V74.58h1.28V80.7H625V78.12h-2.76V80.7h-1.28Z" style="fill: #aaa"/>
      <path d="M627.52,77.64h0c0-2,1.14-3.21,2.95-3.21s2.94,1.23,2.94,3.21h0c0,2-1.13,3.21-2.94,3.21S627.52,79.62,627.52,77.64Zm4.58,0h0c0-1.3-.64-2.12-1.64-2.12s-1.64.83-1.64,2.12h0c0,1.29.63,2.13,1.64,2.13S632.11,78.94,632.11,77.64Z" style="fill: #aaa"/>
      <path d="M634.66,74.58h2.67c1.19,0,1.89.58,1.89,1.52h0a1.32,1.32,0,0,1-1.1,1.3v.08a1.46,1.46,0,0,1,1.4,1.45h0c0,1.07-.81,1.75-2.12,1.75h-2.75Zm1.28.95v1.59h1c.69,0,1.07-.29,1.07-.79h0c0-.5-.35-.79-1-.79Zm0,2.44v1.78h1.14c.74,0,1.13-.31,1.13-.89h0c0-.57-.41-.87-1.17-.87Z" style="fill: #aaa"/>
      <path d="M642.36,74.58h1.51L646,80.7h-1.35l-.46-1.49H642l-.46,1.49h-1.34Zm0,3.68h1.57l-.75-2.45h-.08Z" style="fill: #aaa"/>
      <path d="M652,80.7h-4.91V74.58h1.28v5.06h2.73V74.58h1.28v5.06h.77v2.27H652Z" style="fill: #aaa"/>
      <path d="M654.18,74.58h1.27v4.09h.09l2.75-4.09h1.23V80.7h-1.28V76.61h-.08l-2.75,4.09h-1.23Z" style="fill: #aaa"/>
      <path d="M660.78,77.64h0c0-2,1.14-3.21,2.95-3.21s2.94,1.23,2.94,3.21h0c0,2-1.13,3.21-2.94,3.21S660.78,79.62,660.78,77.64Zm4.58,0h0c0-1.3-.64-2.12-1.64-2.12s-1.64.83-1.64,2.12h0c0,1.29.63,2.13,1.64,2.13S665.36,78.94,665.36,77.64Z" style="fill: #aaa"/>
      <path d="M667.92,74.58h1.28v2.48H672V74.58h1.28V80.7H672V78.12H669.2V80.7h-1.28Z" style="fill: #aaa"/>
      <path d="M674.76,74.58H676v2.48h2.76V74.58h1.28V80.7H678.8V78.12H676V80.7h-1.28Z" style="fill: #aaa"/>
      <path d="M681.34,77.64h0c0-2,1.14-3.21,2.95-3.21s2.94,1.23,2.94,3.21h0c0,2-1.13,3.21-2.94,3.21S681.34,79.62,681.34,77.64Zm4.58,0h0c0-1.3-.64-2.12-1.64-2.12s-1.64.83-1.64,2.12h0c0,1.29.63,2.13,1.64,2.13S685.92,78.94,685.92,77.64Z" style="fill: #aaa"/>
      <path d="M688.48,80.7V74.58h3.94v1.06h-2.67V80.7Z" style="fill: #aaa"/>
      <path d="M693.12,77.64h0c0-2,1.14-3.21,2.95-3.21S699,75.66,699,77.63h0c0,2-1.13,3.21-2.94,3.21S693.12,79.62,693.12,77.64Zm4.58,0h0c0-1.3-.64-2.12-1.64-2.12s-1.64.83-1.64,2.12h0c0,1.29.63,2.13,1.64,2.13S697.7,78.94,697.7,77.64Z" style="fill: #aaa"/>
      <path d="M702.49,74.58H705a2,2,0,0,1,2.15,2.09h0A2,2,0,0,1,705,78.77h-1.24V80.7h-1.28Zm1.28,1v2.18h.93a1,1,0,0,0,1.16-1.09h0a1,1,0,0,0-1.16-1.08Z" style="fill: #aaa"/>
      <path d="M709.57,74.58h1.51l2.13,6.12h-1.35l-.46-1.49h-2.16l-.46,1.49h-1.34Zm0,3.68h1.57l-.75-2.45h-.08Z" style="fill: #aaa"/>
      <path d="M715.38,77.09h.81c.63,0,1-.33,1-.84h0c0-.47-.38-.76-1-.76s-1,.29-1.08.79v0h-1.19v0c.06-1.12.94-1.83,2.3-1.83s2.2.67,2.2,1.66h0a1.41,1.41,0,0,1-1.15,1.38v.08A1.42,1.42,0,0,1,718.67,79h0c0,1.08-1.05,1.84-2.45,1.84s-2.36-.76-2.41-1.87v0H715v0c0,.51.5.81,1.19.81s1.13-.34,1.13-.86h0c0-.51-.43-.83-1.15-.83h-.82Z" style="fill: #aaa"/>
      <path d="M719.89,74.58h2.67c1.19,0,1.89.58,1.89,1.52h0a1.32,1.32,0,0,1-1.1,1.3v.08a1.46,1.46,0,0,1,1.4,1.45h0c0,1.07-.81,1.75-2.12,1.75h-2.75Zm1.28.95v1.59h1c.69,0,1.07-.29,1.07-.79h0c0-.5-.35-.79-1-.79Zm0,2.44v1.78h1.14c.74,0,1.13-.31,1.13-.89h0c0-.57-.41-.87-1.17-.87Z" style="fill: #aaa"/>
      <path d="M726,74.58h1.27v4.09h.09l2.75-4.09h1.23V80.7H730V76.61h-.08l-2.75,4.09H726Z" style="fill: #aaa"/>
      <path d="M734.3,75.64h-1.84V74.58h5v1.06h-1.84V80.7H734.3Z" style="fill: #aaa"/>
      <path d="M738.6,74.58h1.27v4.09H740l2.75-4.09h1.23V80.7h-1.28V76.61h-.08l-2.75,4.09H738.6Z" style="fill: #aaa"/>
      <path d="M748.78,80.7V78.49h-.86l-1.45,2.21h-1.41l1.61-2.39a1.8,1.8,0,0,1-1.32-1.75h0a2,2,0,0,1,2.22-2H750V80.7Zm0-5.11h-1c-.68,0-1.1.37-1.1,1h0c0,.61.41,1,1.1,1h1Z" style="fill: #aaa"/>
      <path d="M598.19,91.06V84.94h3.63v.69h-2.87v5.43Z" style="fill: #aaa"/>
      <path d="M602.54,88h0c0-2,1.08-3.2,2.81-3.2s2.81,1.24,2.81,3.2h0c0,2-1.06,3.2-2.81,3.2S602.54,90,602.54,88Zm4.83,0h0c0-1.53-.78-2.49-2-2.49s-2,1-2,2.49h0c0,1.51.76,2.5,2,2.5S607.37,89.51,607.37,88Z" style="fill: #aaa"/>
      <path d="M609.52,84.94h2.31a1.87,1.87,0,0,1,2,2h0a1.89,1.89,0,0,1-2,2h-1.55v2.18h-.76Zm.76.68V88.2h1.35A1.22,1.22,0,0,0,613,86.91h0a1.22,1.22,0,0,0-1.38-1.28Z" style="fill: #aaa"/>
      <path d="M614.85,88h0c0-2,1.08-3.2,2.81-3.2s2.81,1.24,2.81,3.2h0c0,2-1.06,3.2-2.81,3.2S614.85,90,614.85,88Zm4.83,0h0c0-1.53-.78-2.49-2-2.49s-2,1-2,2.49h0c0,1.51.76,2.5,2,2.5S619.68,89.51,619.68,88Z" style="fill: #aaa"/>
      <path d="M621,92.27v-1.9h.46c.45-.24.61-.78.65-1.58l.23-3.85h3.87v5.43H627v1.9h-.71V91.06h-4.56v1.21Zm1.4-1.95v0h3.05V85.63H623l-.2,3.18A2.48,2.48,0,0,1,622.41,90.32Z" style="fill: #aaa"/>
      <path d="M629.84,84.94h.75l2.26,6.12H632l-.62-1.75H629l-.61,1.75h-.8Zm-.62,3.72h2l-1-2.73h-.07Z" style="fill: #aaa"/>
      <path d="M636.4,84.94h.89l2.09,5.1h.07l2.09-5.1h.89v6.12h-.71V86.39h0l-1.93,4.67h-.64l-1.93-4.67h0v4.67h-.71Z" style="fill: #aaa"/>
      <path d="M643.79,88h0c0-2,1.08-3.2,2.81-3.2S649.4,86,649.4,88h0c0,2-1.06,3.2-2.81,3.2S643.79,90,643.79,88Zm4.83,0h0c0-1.53-.78-2.49-2-2.49s-2,1-2,2.49h0c0,1.51.76,2.5,2,2.5S648.62,89.51,648.62,88Z" style="fill: #aaa"/>
      <path d="M650.53,88h0c0-2,1-3.2,2.69-3.2a2.39,2.39,0,0,1,2.48,2h-.78a1.68,1.68,0,0,0-1.7-1.28c-1.17,0-1.91,1-1.91,2.5h0c0,1.53.74,2.49,1.91,2.49a1.63,1.63,0,0,0,1.69-1.14h.78a2.33,2.33,0,0,1-2.47,1.85C651.57,91.2,650.53,90,650.53,88Z" style="fill: #aaa"/>
      <path d="M657,91.06V84.94h.76v2.69H658l2.52-2.69h1l-2.82,2.94,3.07,3.18h-1L658,88.24h-.22v2.82Z" style="fill: #aaa"/>
      <path d="M662.8,84.94h2.34c1.12,0,1.81.59,1.81,1.52h0a1.35,1.35,0,0,1-1.05,1.32v.07a1.45,1.45,0,0,1,1.36,1.49h0c0,1.07-.77,1.71-2.07,1.71H662.8Zm.76.67v2h1.22c.93,0,1.4-.33,1.4-1h0c0-.62-.44-1-1.2-1Zm0,2.62v2.15h1.51c.92,0,1.4-.37,1.4-1.08h0c0-.71-.5-1.07-1.47-1.07Z" style="fill: #aaa"/>
      <path d="M668.56,84.94h.76v2.27h1.5a1.87,1.87,0,0,1,2,1.93h0a1.86,1.86,0,0,1-2,1.92h-2.27Zm.76,3v2.48h1.31c.88,0,1.38-.44,1.38-1.23h0c0-.79-.5-1.24-1.38-1.24Zm4.6-3h.76v6.12h-.76Z" style="fill: #aaa"/>
    </g>
    <g>
      <g>
        <path d="M570.45,57.34a1.74,1.74,0,0,0,.38.06.45.45,0,0,1,.52.42c.08.4,0,.63-.29.76l-.17.06A1.15,1.15,0,0,0,571,59a1.63,1.63,0,0,1,.29,1.35c0,.45,0,.91,0,1.36a.76.76,0,0,0,.07.2l.38-.25a1.62,1.62,0,0,1,1.46-.33,6.36,6.36,0,0,0,1.66,0c.16,0,.17-.11.09-.23l-.3-.45a4.07,4.07,0,0,1,.59.08c.28.08.42,0,.42-.41a10.47,10.47,0,0,1,.82.69.41.41,0,0,0,.49.14,1.15,1.15,0,0,1,1.48.8l-.23,0a9.7,9.7,0,0,0,1.22,2.22,1.71,1.71,0,0,0,.57.5.43.43,0,0,1,.25.4,4.59,4.59,0,0,1,0,.56.56.56,0,0,1-.2.35c-.06,0-.22,0-.33-.09a1.9,1.9,0,0,1-.27-.2l.1.41a1.71,1.71,0,0,1-.47-.09,4.14,4.14,0,0,1-.56-.39,2.28,2.28,0,0,0-1.36-.34c-.24,0-.26.16-.22.32a6.39,6.39,0,0,0,.28.87c.27.63.54,1.26.84,1.87a4.34,4.34,0,0,0,.48.7c.35.46.75.9,1.06,1.39a2.74,2.74,0,0,1,.3.89c.08.36.16.44.47.25a12.58,12.58,0,0,0,1.23-.88c.31-.25.57-.25.74.12A7.08,7.08,0,0,0,584,73.22a.94.94,0,0,1,.27.67c0,.39.14.77.18,1.16a8.73,8.73,0,0,1,0,1.06c0,.19-.14.21-.27.11a9.09,9.09,0,0,1-.74-.59c-.23-.21-.09-.44.07-.6a.72.72,0,0,0,.12-1,1.77,1.77,0,0,0-.21-.23c-.08-.08-.22-.19-.21-.26.08-.44-.29-.61-.49-.87a3.24,3.24,0,0,0-.63-.55c-.08-.06-.26-.08-.31,0-.61.55-1.2,1.11-1.79,1.68l.06.13a5.09,5.09,0,0,0,.74-.07.59.59,0,0,1,.74.33,7,7,0,0,0,1.49,2.23.86.86,0,0,1,.17.55,3.63,3.63,0,0,0,.34,1.46,4.82,4.82,0,0,1,.24,1c0,.18-.05.28-.24.19a9.65,9.65,0,0,1-.94-.49.32.32,0,0,1-.09-.49,1.73,1.73,0,0,0,.16-.35.9.9,0,0,0-.23-1.06c-.22-.2-.41-.39-.26-.74,0-.1-.09-.31-.19-.42-.28-.3-.6-.55-.88-.85a.44.44,0,0,0-.57-.12c-.6.25-1.22.48-1.81.74a6.89,6.89,0,0,1-3,.78l.92,1.17,0-.07.2.09-.27.17-.15-.19-4.8-6.4-7.19-9.56a3.08,3.08,0,0,0-.52-.53.31.31,0,0,0-.3,0c0,.05,0,.21,0,.3A1.7,1.7,0,0,0,564,62c-.18.17-.17.47,0,.89l.11-.33h.06l0,.6h0l0-.17h0l.06.41.17-.28.07.46.16-.32.13.68H565l.09-.6,11.86,15.5.08,0-.08-.93c.08.13.18.14.32.08.43-.17.55-.1.7.34a6.77,6.77,0,0,0,.3.71.78.78,0,0,0,.56.41,1.07,1.07,0,0,1,.6.59,5.59,5.59,0,0,0,.79,1.42c.29.38.27.42-.2.55.06.27,0,.47-.34.5,0,0-.1.14-.1.21A1.59,1.59,0,0,1,579,84c-.47.46-.92,1-1.38,1.42a1.59,1.59,0,0,1-.32.22c-.16.1-.16.21,0,.34a.51.51,0,0,0,.7.12,1.35,1.35,0,0,1,1.32-.05,1.37,1.37,0,0,1,.56.49c0,.06,0,.24-.08.38-.13-.14-.22-.28-.34-.35a1.33,1.33,0,0,0-.43-.06c.15.61.14.71-.1.92a.52.52,0,0,0-.69-.37c-.38.1-.05.39-.13.57H578a1.25,1.25,0,0,0-1.49-.29,1.22,1.22,0,0,1-1.24-.06,2.07,2.07,0,0,0-1.51.41l-.06.07c-.26-.33-.07-.79.41-1,.15-.06.31-.08.46-.13s.14-.09.14-.13a.28.28,0,0,0-.12-.18c-.26-.16-.26-.16-.21-.44a1.09,1.09,0,0,0-1.13.14c-.32.26-.32.26-.52-.12l0,0-.71-.08a4.37,4.37,0,0,0-.47-.06,1.79,1.79,0,0,1-1.17-.32.42.42,0,0,0-.66.05c-.14.21-.09.44.18.64s.52.41.88.16c.07-.05.23,0,.34,0a2.53,2.53,0,0,1,.23.13c.27.11.3.16.26.44-.12-.06-.25-.16-.38-.16a1.31,1.31,0,0,0-.51.19c.69.28.79.42.53.87,0-.31-.17-.24-.37-.23a4.24,4.24,0,0,1-1.05-.09,1.26,1.26,0,0,0-.89,0l.17.57a5.32,5.32,0,0,1-.56-.09,1.19,1.19,0,0,1-.38-.18c-.13-.1-.23-.18-.42-.1s-.25-.06-.33-.15a.84.84,0,0,0-.39-.19,1,1,0,0,0-1,.17.35.35,0,0,1-.32,0c-.31-.21-.49,0-.69.17,0,0-.06,0-.14,0a2.75,2.75,0,0,1,.28-.5,3.11,3.11,0,0,1,.57-.52.75.75,0,0,1,.39-.08c.25,0,.5,0,.74,0s.39-.26.2-.5a2.07,2.07,0,0,0-.33-.34.36.36,0,0,1-.09-.54,3.41,3.41,0,0,1,.42-.49c.25-.25.25-.37,0-.65a.74.74,0,0,1-.1-.41c0-.18-.05-.29-.24-.3H566c.07.41.15.79.18,1.17a1,1,0,0,1-.52,1,2.12,2.12,0,0,1-1.91.34,1.42,1.42,0,0,1-1-1.42c0-.28,0-.55.05-.83s0-.25-.17-.27c-.59-.08-1.17-.18-1.79-.28a1.06,1.06,0,0,0,.07,1c.32.52.62,1.05.92,1.59a2.4,2.4,0,0,1,.13.42,3,3,0,0,1-1.42-.16.36.36,0,0,1-.16-.26,1.48,1.48,0,0,1,0-.53,1.31,1.31,0,0,0-.38-1.43c-.41-.39-.4-.41-.05-.84.17-.21.17-.33,0-.51a2.23,2.23,0,0,1-.49-2.79c.19-.44.46-.85.69-1.28a1.63,1.63,0,0,0-.08-1.72,1.87,1.87,0,0,0-.19-.22c-.48.46-1.1.71-1.4,1.33a4.94,4.94,0,0,0-.51,1.85,2.22,2.22,0,0,1-.15-.25,4.84,4.84,0,0,1-.43-2.32,1.37,1.37,0,0,1,.41-.8,4,4,0,0,0,.5-.79c.1-.2,0-.34-.2-.45a6.22,6.22,0,0,1-1-.67,1,1,0,0,1-.19-1.26.94.94,0,0,1,1-.67c.33,0,.33,0,.28-.5.36.16.48.74.31,1.36l-.56-.47.07-.12c-.46-.09-.74.1-.78.54a.93.93,0,0,0,.5,1c.22.12.45.22.71.35a5,5,0,0,1,.8-2.18,5.79,5.79,0,0,1,1.22-1.32,2.28,2.28,0,0,1,2.38-.08c.45.2.85.5,1.28.74a.55.55,0,0,0,.35.05c.55-.11,1.1-.23,1.64-.35.09,0,.24-.1.23-.14a.4.4,0,0,0-.15-.28.31.31,0,0,1-.23-.33c0-.06-.12-.14-.2-.18a2.56,2.56,0,0,1-.5-.22,4.27,4.27,0,0,0-4.47-.64l-.35.12-.09-.07c.08-.18.15-.36.25-.52s.51-.48.47-.89c0-.06.1-.14.17-.2s.39-.37.57-.56a.49.49,0,0,0,.08-.6c-.33-.67-.14-1.06.57-1.27a8.81,8.81,0,0,0,.92-.32.8.8,0,0,0,.39-.3.62.62,0,0,0,0-.47c0-.08-.22-.12-.34-.13s-.51,0-.81,0a.69.69,0,0,1,.07-.23l.87-1c.07-.08.17-.19.16-.28,0-.32-.1-.64-.15-1a.18.18,0,0,0,0-.08c-.3-.37-.59-.75-.91-1.1a.61.61,0,0,1-.18-.58.91.91,0,0,0-.17-.59c-.33-.49-.71-1-1.06-1.43a1,1,0,0,1-.15-.25.62.62,0,0,1,0-.22l.21.1c-.28,0-.11.14-.06.21l1.08,1.42c.08.1.17.18.24.27.3-.16.06-.3,0-.43.1.06.2.18.29.18.59,0,.73.45.93.87a.48.48,0,0,0,.23.24.71.71,0,0,1,.51.72c0,.36.27.56.49.77.05.05.25,0,.34-.05.27-.18.52-.39.79-.57a.7.7,0,0,1,1.05.1c-.14,0-.29-.05-.43-.06a.71.71,0,0,0-.71.37c.52,0,1-.12,1.43.29,0,0,.1-.09.13-.08.19.08.38.18.56.28a4.26,4.26,0,0,0,.56.29,1.5,1.5,0,0,0,.45,0l-2-1.11.35,0a1.42,1.42,0,0,1,.43,0c.6.2.83.06.89-.59a3.63,3.63,0,0,1,.09-.77,7,7,0,0,1,.41-.87l.18-.37a3.32,3.32,0,0,1-2.3-.2v-.09l.61-.06c-.3-.26-.67-.41-.85-.86l.33.11a1.64,1.64,0,0,0,1.64-.13l.55-.35a.73.73,0,0,1,1,.09,1,1,0,0,0-1.08.11,4.76,4.76,0,0,1-.44.25,1.84,1.84,0,0,1-1.16.28,6.11,6.11,0,0,1-.62-.16,1.15,1.15,0,0,0,1,.44v.1l-.76.31a.85.85,0,0,0,.17.09,1.07,1.07,0,0,0,1.18-.41,1.22,1.22,0,0,1,.89-.51c.38,0,.71,0,.85.44l.19-.15.4.12c0-.16.14-.34.11-.48a.37.37,0,0,0-.46-.31l0,.29Zm-1.94,15.57h0l.1-.66h-.09a7.19,7.19,0,0,0-.18,2.71,8.07,8.07,0,0,1,0-2.74A7.31,7.31,0,0,0,568,75a8.67,8.67,0,0,1,.14-2.82,6.31,6.31,0,0,0-.35,2.84,7.39,7.39,0,0,1,.12-2.85,1.1,1.1,0,0,0-.16.33,7.64,7.64,0,0,0-.19,2.3c0,.55,0,.55.56.48h.12l1.45-.13c.13,0,.33-.08.16-.22s-.13-.29-.13-.45c0-.69,0-1.38,0-2.07h0l-.13,2.15V72.33a12.29,12.29,0,0,0-.25,2.5V72.34h-.12v2.49h-.08V72.29a16,16,0,0,0-.19,2.53V72.3a8.09,8.09,0,0,0-.2,2.53V72.26l-.12.35Zm4.9-6.13-.07,0,.46,1-.33-.31-.06,0,.36.73,0,0-.32-.42-.06,0,.31.71,0,0-.29-.34,0,0,.3.73,0,0-.39-.48,0,0,.4.83-.08.07-.4-.45v0l.42.71,0,0-.38-.31,0,0,.22.45,0,0-.39-.34-.05,0,.43.68-.25-.13-.24-.14c.16.44.16.45.54.51s1,.12,1.47.17a19.3,19.3,0,0,0,3.23.31l-.28-.49.48.13-.51-.77.48.13-.45-.67.33,0-.35-.5.41.12c-.08-.23-.14-.42-.21-.6l-1.26-3.23a.39.39,0,0,0-.12-.16.91.91,0,0,1-.33-1.15,2,2,0,0,0,.06-.23l.26.65.15-.27.14.55h.06l.05-.17c.15.14.27.36.45.42a14,14,0,0,0,1.42.39.57.57,0,0,0,.33,0c.27-.11.39-.07.51.2a.82.82,0,0,0,.2.31,1,1,0,0,0,.33.12l.09-.38-.12-.07-.11.22-.09,0c0-.11,0-.25.1-.32s.11-.36-.09-.43a1.48,1.48,0,0,1-1-1,1.45,1.45,0,0,0-.15-.26c-.12-.22-.26-.35-.45-.07l-.46-.39.41-.36a.89.89,0,0,0-.15-.09,1.37,1.37,0,0,1-1-.72s-.09-.07-.15-.08a4.93,4.93,0,0,0-.89-.14,1.42,1.42,0,0,0-.72.18c-.14.08-.17.33-.25.5l-.14-.17.08.64-.21-.33,0,0,.06.41h0l-.16-.36-.06,0,.14.68-.29-.47.13.65h0l-.22-.33,0,0,.14.67-.23-.26,0,0,.14.51,0,0-.26-.32-.05,0,.23.56,0,0-.25-.29.18.62h0l-.22-.33,0,0,.25.64,0,0-.29-.41,0,0,.3.82,0,0-.3-.32-.06,0,.39.79,0,0-.33-.44,0,0,.37.83,0,0-.34-.44-.06,0,.5,1.1-.05,0Zm-13.5,16.56,0,0a5,5,0,0,1,.4.52,1.51,1.51,0,0,1,.23.59c0,.44.14.54.67.46l-.29-.54c-.14-.26-.4-.53-.38-.78a4.72,4.72,0,0,1,.39-1.38,11.54,11.54,0,0,1,.63-1.11c0-.09.11-.25.07-.29s0-.27,0-.41.14-.41.18-.55l.33-.15.05.22.16-.32.12.14.17-.28.07.28.2-.36.11.28.22-.38.07.15.19-.25,0,.21.32-.5,0,.35.25-.4,0,.34.25-.52.13.14.27-.41.06.12a2.68,2.68,0,0,1,.34-.28c.1-.06.25-.05.34-.12.36-.24.72-.49,1.07-.76s.42-.4.65-.61l.35-.07.17.3.08-.37.11.45h.05l.14-.42.17.36.1-.38.16.26.2-.44.08.33.18-.35.13.23.15-.66c-.7.09-1.36.16-2,.26a.8.8,0,0,0-.44.24,5.8,5.8,0,0,1-3,1.8,2.73,2.73,0,0,1-.33,0l-.05-.1.48-.39.06.22.31-.58,0,.43.36-.62,0,0v.33h0l.19-.59h0l0,.38h.06l.17-.57h0l0,.4.25-.81h0V77h0l.16-.74H566l0,.47h.08l.19-.81.05.6h.09l.09-.74h0l.11.48h.12c.06-1.09.12-2.17.17-3.26,0-.05-.14-.16-.21-.15-.4,0-.79.12-1.18.18l0,0,1.39-.34a3.19,3.19,0,0,0-2.86,1.17,2.14,2.14,0,0,1,.8-1,2.93,2.93,0,0,1,1.74-.42,2.32,2.32,0,0,0,.41-.07l0-.11a3.85,3.85,0,0,0-2.12.33,3.39,3.39,0,0,0-1.34,1.7,2.3,2.3,0,0,1,1.54-2,8.6,8.6,0,0,1,1.64-.22l.41,0q-.08-.14-.15-.14a8.24,8.24,0,0,0-1.51,0c-1.64.32-2.39,1.62-2.55,3.28-.09.93-.09,1.86-.13,2.79a1.21,1.21,0,0,1-.51,1,6.78,6.78,0,0,1-.67.44.76.76,0,0,0-.37.63,4.72,4.72,0,0,1-.28,1.24C560.65,82,560.27,82.63,559.91,83.35Zm17.17-3.6a3.91,3.91,0,0,0-.31-.91c-.41-.63-.88-1.22-1.32-1.83a.25.25,0,0,0-.38-.06A11.35,11.35,0,0,1,570,78.39a1.08,1.08,0,0,0-1,.48A5.28,5.28,0,0,1,567.85,80c-.71.6-.87.65-.11,1.56l0,0a.84.84,0,0,0,.27.06c.37,0,.73-.12,1.1-.14s.37-.1.24-.36a1.73,1.73,0,0,0-.87-.9l-.28-.14,0-.09a5.14,5.14,0,0,1,.7.11,8,8,0,0,0,2.4.35.36.36,0,0,0,.28-.14c0-.08,0-.21-.08-.31s-.07-.08-.12-.13a1,1,0,0,0-.21-1.29l.19,0a5.46,5.46,0,0,1,1.94,1.05.34.34,0,0,0,.49.06,2.07,2.07,0,0,1,1.6-.25.84.84,0,0,1,.63,1.22,4.7,4.7,0,0,0-.17.89c0,.14,0,.31,0,.41a1.91,1.91,0,0,0-.14,1.13.78.78,0,0,0,.61.63,2.3,2.3,0,0,0,1.82-1.06.44.44,0,0,0,0-.29c-.05-.14-.14-.27-.2-.41a6.06,6.06,0,0,0-.32-.79c-.25-.42-.54-.81-.81-1.21a.4.4,0,0,1-.07-.1c0-.05,0-.14,0-.16a.28.28,0,0,1,.18,0A.62.62,0,0,1,577.07,79.74Zm1.36-4.7,0,0,.65.17-.22-.31.61.15,0-.22.57.15-.09-.17a3.24,3.24,0,0,0,.6-.16c.3-.14.35-.16.57,0l.42.38a.6.6,0,0,0,0-.74.68.68,0,0,0-.66-.31c-.94.1-1.89.17-2.84.23a.55.55,0,0,1-.4-.14c-.23-.27-.42-.58-.62-.87l.07-.05.28.06-.13-.35.28.06-.06-.35.31,0-.21-.43.27,0c0-.28-.23-.3-.39-.33-.68-.13-1.36-.26-2-.37-.46-.07-.92-.12-1.39-.17a.47.47,0,0,0-.14,0l.07.28-.52-.3.22.38-.52-.34,0,0,.19.29,0,0-.44-.37,0,0,.37.56-.24,0,.13.35-.29-.05.12.27-.21,0,2.1,2.61,0-.33.69.64-.18-.47.06,0,.67.61-.2-.58.73.65,0-.06-.3-.45,0,0,.71.48,0-.05-.3-.4.79.49,0-.06-.29-.38,0,0,.76.45,0,0-.32-.42.87.37,0-.06ZM560.7,81.16h.11c.1-.45.21-.9.28-1.36a.56.56,0,0,1,.28-.41c.32-.23.62-.49.92-.75a.91.91,0,0,0,.31-.75c0-.5,0-1,0-1.49s0-1.25,0-1.87a4.6,4.6,0,0,1,.63-1.84c.18-.32.13-.41-.23-.42a1.88,1.88,0,0,0-1.58.6,4.69,4.69,0,0,0-1.12,2.29.48.48,0,0,0,.17.49,2.14,2.14,0,0,1,.7,1.4,4.66,4.66,0,0,1-.34,2.12,8.3,8.3,0,0,0-.36,1.16A.81.81,0,0,0,560.7,81.16Zm.86-9.59a4.63,4.63,0,0,0-1.69,2.83c-.13.61.05,1.28-.37,1.84a1.35,1.35,0,0,0,.54-.91,5.44,5.44,0,0,1,1.06-2.67,5.53,5.53,0,0,1,.91-.79,1.22,1.22,0,0,1,.36-.11l-.8.55,0,.07.27-.14a1.88,1.88,0,0,1,1.29-.24,1,1,0,0,0,.29,0,1.34,1.34,0,0,0,.3-.12c0-.09-.06-.21-.13-.26a12.32,12.32,0,0,0-1.15-.73,1.71,1.71,0,0,0-.68-.16,2.52,2.52,0,0,0-2,.92,3.24,3.24,0,0,0-.83,1.43l.45-.57.07,0a3.94,3.94,0,0,0-.63,1.89,3.32,3.32,0,0,1-1,2.26,1.2,1.2,0,0,0-.16,1.2,3.51,3.51,0,0,1,.59-.77,3,3,0,0,0,1.2-2.41,4.07,4.07,0,0,1,1.6-3A2.2,2.2,0,0,1,561.56,71.56Zm5,9.89a1.74,1.74,0,0,0-.22-.33,5.31,5.31,0,0,0-.53-.42c-.26-.18-.27-.28-.07-.52s.46-.57.67-.87a.68.68,0,0,0,.1-.33c0-.16-.1-.22-.24-.16-.44.19-.88.4-1.33.57-.76.29-1.54.56-2.31.84-.14,0-.31.09-.39.19-.26.35-.49.73-.74,1.11a1.63,1.63,0,0,0,.94.27.36.36,0,0,1,.22.08.66.66,0,0,0,.58.15c.13,0,.25,0,.38,0a1,1,0,0,0,.37,0c.58-.22,1.21-.3,1.79-.56A2.17,2.17,0,0,1,566.59,81.45Zm-1.65-12.88.45-.33.05,0-.09.35.59-.48-.05.39.05,0,.49-.59.07.33.54-.86-.06-.08a4.89,4.89,0,0,1-3,.23,3,3,0,0,1,.64-.38c.35-.16.78-.14,1-.49,0,0,.14,0,.22,0l.14-.31.09.21.22-.32c.23.26.28,0,.39-.1l-.17-.29-.37,0v-.18h-.77l.11-.23-.77.09,0-.08-.79.08v-.07l-.34.18.11-.24c-.28-.08-.48.25-.79,0-.11-.07-.4.11-.59.21a1.4,1.4,0,0,0-.43.3c-.14.16,0,.62.15.65l.11-.21.11.14.09-.16.14.15.09-.15.18.25,0-.29.14.19.11-.13.12.24.1-.28.13.2.14-.24,0,.4.19-.4.05.31.15-.24.07.33.23-.35.11.09.11-.16.09.23.51-.15a1.52,1.52,0,0,1-.45.38,5.41,5.41,0,0,1-1.74.43,7.87,7.87,0,0,0-1.29.39c-.16.06-.26.26-.41.41l.31.09L562,68l.06.19.9-.05v.15l.55-.1v.07l.49.05,0,.08h.65l0,.19.31-.17ZM574.27,84l.07.07-.61,1,.09.05a3.17,3.17,0,0,0,1-1.26.94.94,0,0,0-.13-1.16.81.81,0,0,1-.22-.87.87.87,0,0,0,0-.41c0-.26-.11-.52-.17-.78a.51.51,0,0,0-.57-.45,4.85,4.85,0,0,0-.62.09,9.4,9.4,0,0,1-3.17.15,2.32,2.32,0,0,0-.33,0l0,.09c.24.1.52.33.71.27s.57.14.87,0c.15-.06.38.09.57.11s.42-.08.6.11l0,0,0-.19.4.23-.06-.36L573,81l0-.31.26.31.05-.2h.09l.06,1.06.21-.59a1.17,1.17,0,0,1-.58,1.26,2.33,2.33,0,0,1-.48.17,3,3,0,0,0-.77.5c.72,0,1.24-.46,1.86-.63l.07.08-.37.45,0-.08-1.06.59a1.83,1.83,0,0,0,.75-.09c.37-.16.72-.39,1.1-.6l.16.57h0l-.11-.15-.19.55-.12-.18-.08.62-.13-.19,0,.09-.37.19,0-.08-.24.53A2.49,2.49,0,0,0,574.27,84ZM570,65.12a1.15,1.15,0,0,0,.08.15c0,.06.11.16.14.15s.19-.09.19-.15a4.52,4.52,0,0,0,0-1.06c0-.16-.27-.28-.45-.45l-.24.46-.26-.44-.23.42a.3.3,0,0,1-.1-.16l-.1-.25-.21.16-.15.06c0-.07-.07-.15-.06-.21s.08-.28-.1-.3a.36.36,0,0,0-.29.18,6,6,0,0,0-.34,1c-.09.37.09.52.46.39l.08.39c.42.1.17-.43.43-.45l.29.53.25-.35C569.67,65.46,569.67,65.46,570,65.12Zm-2.95,11,.55-.07,2-.3c.22,0,.35-.15.31-.46l-2.41.2a.6.6,0,0,1,0-.11c0-.08,0-.16,0-.24a8.34,8.34,0,0,1,.31-2.88c0-.07,0-.16,0-.24s-.19.06-.24.12a.8.8,0,0,0-.13.3A9.51,9.51,0,0,0,567.08,76.08Zm3.42-.86,0,0,.55-.48-.31,0,.45-.55,0,0-.21.11,0,0,.41-.57,0,0-.37.35,0,0,.43-.59-.37.23,0-.05.75-.82-.05,0-.39.29,0,0,.46-.53a.59.59,0,0,0-.27.1c-.86.52-.83.52-.92,1.5a2.55,2.55,0,0,1-.66,1.91c.19.2.46.36.52.58.14.56.46.57.89.4h.06c.19,0,.22-.15.1-.26a5.27,5.27,0,0,0-.53-.42l-.43-.33.29-.32-.16,0,.22-.32ZM567,68.66l0-.1c-.14.05-.29.09-.43.16a2.85,2.85,0,0,1-2.08.15,9.12,9.12,0,0,0-3-.33,1,1,0,0,0-.83.48.59.59,0,0,0,0,.21l.08,0,.18-.24.07.1.55-.18.06.12a3,3,0,0,1,.6-.24c.16,0,.38.12.49.06s.48,0,.71,0a3.28,3.28,0,0,1,1,.32l.42.11,0,.17.29-.13v.23l.5-.39,0,.29.4-.35.1.26.24-.34.06.05,0,.26Zm4.09-8.39,0-.09c-.1-.07-.2-.19-.31-.19a7.1,7.1,0,0,0-1.11,0,.37.37,0,0,0-.21.3,8.18,8.18,0,0,0,.28,1.18.64.64,0,0,0,.31.35c.14.06.39.11.48,0a1.52,1.52,0,0,0,.54-1.21h-.54v-.25Zm0,6.11a1,1,0,0,1,.58-.85,6.43,6.43,0,0,0,2-2.12,2.58,2.58,0,0,0,.19-.44l-.1-.08a3.39,3.39,0,0,0-.57.53,6.08,6.08,0,0,1-1.92,1.92A.7.7,0,0,0,571.16,66.38Zm.26,1.74,0,.06a1,1,0,0,0-.58,1.17c.35-.69,1.23-.87,1.58-1.65l-.4.18c.22-.19.48-.33.56-.69l-.35.23.1-.57c-.3.26-.58.5-.87.73a1.72,1.72,0,0,0-.58.88ZM567.61,82.6h0l.2-.18-.23,1.22.09,0c.07-.23.12-.47.2-.69a5.76,5.76,0,0,1,.31-.59l.08,0-.17.31,0,0,.64-.55,0,0-.5,1a5.09,5.09,0,0,0,.69-.83,6,6,0,0,0,.3-.56c-.22,0-.45-.07-.67-.09a10.49,10.49,0,0,1-1.08-.08c-.36-.07-.38-.09-.49.29h.8Zm5.07-11.83v.17c.35,0,.69.07,1,.13l4,.63a4.09,4.09,0,0,0,.46.09c.06,0,.14-.09.16-.16a.21.21,0,0,0-.09-.18,1.37,1.37,0,0,0-.37-.09c-1.45-.2-2.9-.39-4.36-.58A7,7,0,0,0,572.68,70.77Zm7.21,10.84c-.08-.22-.15-.42-.22-.63a2.59,2.59,0,0,0-.12-.39.26.26,0,0,0-.21-.12,1.28,1.28,0,0,0-.31.2c-.21-.1-.25-.25-.07-.41a.34.34,0,0,0,0-.57c-.09-.09-.19-.25-.34-.1s0,.24.08.34,0,.06,0,0l-.32.54-.28,0,.27.5c.16.09.31.13.38.22a2.73,2.73,0,0,1,.21.53l.15-.28.18.39,0-.5.35.53-.06-.45Zm-8.57-6.12c.58-.16,1.16-.32,1.73-.49a.28.28,0,0,0,.12-.24,6.31,6.31,0,0,0-.27-.94,3.48,3.48,0,0,0-.37-.57.8.8,0,0,0-.06.16c0,.14,0,.28,0,.42,0,.77,0,.77-.69.95l-.11,0C571.35,74.91,571.26,75.07,571.33,75.49ZM571,70a6.71,6.71,0,0,1,.66-.79,9.82,9.82,0,0,1,.83-.56A1.45,1.45,0,0,0,573,67a1.8,1.8,0,0,0-.25.45,2.08,2.08,0,0,1-1,1.33,3.33,3.33,0,0,0-.68.69A.47.47,0,0,0,571,70Zm-1.47-7.14a3.28,3.28,0,0,1-1.67-.45,13.24,13.24,0,0,0-1.28-.47c-.45-.13-1.08-.11-1.3.21l.7.26-.16-.26.67.37-.12-.34.46.33,0-.3.62.52v-.16c.12.06.3.19.32.17.15-.18.22,0,.31.06s.17.1.26.15v-.15A.87.87,0,0,0,569.57,62.9Zm.76,8c-.09,0-.19.07-.21,0-.28-.32-.5-.05-.7.09s-.3.4.05.58a2.54,2.54,0,0,0,1.52.26,1.58,1.58,0,0,0,.33-.14l-1-.77Zm.4,10.81,0,.24-.75-.1c0,.08,0,.1,0,.1l.1.05a4.08,4.08,0,0,0,2.69.18c.42-.11.46-.19.42-.68l-.18.43-.12-.25-.14.32-.07-.08-.1-.35-.18.42-.06-.27-.18.16-.05-.15-.15.17-.17-.36-.09.27-.58.09-.09-.13-.09.2Zm2.56-5.8c0-.17.07-.31.11-.45s0-.32-.23-.25l-1.66.52a.27.27,0,0,0-.19.39l.26-.15,0,.27.25-.23.06.29.24-.32,0,.47.21-.49,0,.39h.06l.14-.43.14.41.13-.44.13.24.12-.44.06.13Zm-.9-12.76a1.55,1.55,0,0,1,1.18-1,4.8,4.8,0,0,1,.59,0c.41,0,.61-.33.95-.56C573.48,61.34,572.42,62,572.39,63.11Zm-5.69,7.13a2.33,2.33,0,0,0,2.61-.63l-.39.05a1.55,1.55,0,0,0-.53.3c-.19.18-.39-.09-.57,0l0-.21-.24.21.07-.28-.27.19.21-.54Zm-3.1-10.18-.56-.31.27,0,0-.1a1.27,1.27,0,0,0-.47-.09c-.1,0-.18.18-.25.3s0,.12.06.22c-.27.33-.27.36.07.72a.41.41,0,0,0,.08.08l.32.16.07-.29.35-.3-.21-.17Zm9,6.17,0,.86c.45-.58.3-1.27.58-1.84-.7.37-1.4,1.06-1.23,1.71Zm.58-1.64-1.17.95c-.15.12-.3.23-.43.36a.87.87,0,0,0-.05,1.16,4.77,4.77,0,0,1,.41-.92,4.15,4.15,0,0,1,.77-.73A1.1,1.1,0,0,0,573.14,64.6Zm-1.54.22c.92-.66,1.45-1.7,2.47-2.25a1.11,1.11,0,0,0-.92.36c-.39.35-.78.7-1.17,1.05A1.18,1.18,0,0,0,571.6,64.82Zm-7.6-.58.16.37c.13-.56,0-1-.35-1.11s-.88.24-1.05.71c1-.07,1-.07,1.16.31Zm14.27-2.36a1,1,0,0,0-1.69-.38,1,1,0,0,1,1,.6l.19-.25.17.5H578l0-.54.11,0Zm-7.06,2.67c.16.09.23.07.21-.18s.09-.59-.38-.48c0,0,0,0,0,0-.22-.14-.36-.09-.41.17a.91.91,0,0,0,0,.41,2.27,2.27,0,0,0,.23.43ZM569,70.72s0,0,0-.06c0-.19-.07-.34-.26-.1,0,0-.07,0-.11,0-.24,0-.18.17-.14.29a2.73,2.73,0,0,0,.21.37,1.63,1.63,0,0,0,.22-.12c.23-.17.45-.35.68-.5s.32-.14.46-.24,0-.14,0-.21a.63.63,0,0,0-.21,0c-.05,0-.07.11-.12.14Zm9.17,9.45a.23.23,0,0,0,.1,0,.74.74,0,0,0,0-.76,1.72,1.72,0,0,1-.31-.53c0-.14,0-.28-.18-.22a.36.36,0,0,0-.17.31,2.92,2.92,0,0,0,.25.62C577.93,79.77,578,80,578.15,80.18Zm-2.67,1a1.77,1.77,0,0,0,.15-.35c0-.15,0-.31,0-.45.07-.33,0-.48-.27-.57v.89l-.4-.33c.07.23.18.39.15.53s0,.42.23.54l0-.33ZM570.28,58a2.2,2.2,0,0,0-.87.07,2.86,2.86,0,0,0-.63.72l.06.08a2.82,2.82,0,0,0,.45-.19C569.6,58.49,569.9,58.27,570.28,58Zm8.28,11.33.11,2C579,71.21,578.94,69.64,578.56,69.34Zm-7.25-7.06.52,0,1.2-.77a1,1,0,0,0-.84.14C571.88,61.84,571.58,62.07,571.31,62.28Zm-7.82-.61c0-.53.27-.72.75-.69-.09-.25-.24-.35-.45-.32a.56.56,0,0,0-.53.4A.48.48,0,0,0,563.49,61.67Zm15.43,10.5-.09,0s0,.05,0,.07c.07.53.13,1.05.21,1.58,0,0,.09.08.13.13s.11-.12.1-.18c0-.4-.1-.8-.17-1.2A2.58,2.58,0,0,0,578.92,72.17Zm-12.49,10,.09,0a1.06,1.06,0,0,0,.13-.42c0-.07-.2-.15-.32-.17a.93.93,0,0,0-.41,0c-.25.06-.56.09-.62.43.31,0,.6-.36.88,0l.38-.23ZM572,77.52a.84.84,0,0,0-1.21-.42A1.36,1.36,0,0,0,572,77.52Zm2.29-15.2a1.18,1.18,0,0,0-1.62.85A2.84,2.84,0,0,1,574.26,62.32Zm-4.41-2.56c.71.08.83,0,.72-.47-.05-.23-.23-.31-.38-.14A3.16,3.16,0,0,0,569.85,59.76Zm1.87,10.42a2.27,2.27,0,0,1,.17-.38c.07-.1.21-.16.27-.27a4.29,4.29,0,0,0,.22-.56A.84.84,0,0,0,571.72,70.17Zm11.63,8.55-.45-.35c-.37.42-.33.66.13.89ZM564.9,82c-.47-.18-1.06.19-1,.57l.26-.19.22.27,0-.25C564.77,82.54,564.72,82.2,564.9,82Zm10.72,3.55c.37-.34.28-.81-.24-1.31l-.17.35.25.09-.12.23C575.77,85,575.48,85.38,575.62,85.6Zm-7.94-21a1.14,1.14,0,0,0,.27-1.15A1,1,0,0,0,567.68,64.55Zm.5,20.89c-.31.39-.31.51,0,.73a.83.83,0,0,0,.27.07c0-.1.09-.22.05-.29A3.86,3.86,0,0,0,568.18,85.44Zm1.88-8.52c.14-.47.09-.56-.34-.79C569.47,76.55,569.51,76.64,570.06,76.92Zm6.25,9.57c0-.39-.2-.67-.35-.59s-.32.28-.29.37C575.76,86.57,576.06,86.46,576.3,86.49ZM569.2,60.7A1.5,1.5,0,0,0,570,62Zm-8.14,24.78c-.07-.09-.14-.2-.23-.3a.8.8,0,0,0-.19-.12.7.7,0,0,0-.11.22c0,.33.11.5.41.52ZM572,77.68a2.12,2.12,0,0,1-1.44-.56A1.09,1.09,0,0,0,572,77.68Zm-1.31-18.55c0,.19,0,.39.06.57a.22.22,0,0,0,.16.14.25.25,0,0,0,.18-.11A.44.44,0,0,0,570.68,59.13ZM563.49,83a.59.59,0,0,0-.44.69l.32,0,0-.25.16,0Zm13.92-5.11a.61.61,0,0,0-.12.9,1.54,1.54,0,0,0,.23-.43A1.38,1.38,0,0,0,577.4,77.92Zm1-6.17c.17.14.3.29.33.27a.64.64,0,0,0,.27-.3c0-.06-.14-.25-.17-.24A2.12,2.12,0,0,0,578.37,71.75ZM577.17,79l-.1,0a2.62,2.62,0,0,0,.06.28,2.39,2.39,0,0,0,.17.44.38.38,0,0,0,.43.24ZM575.1,60.88l0,.07.31.34v-.06l.68.06v0Zm-5-1.89c.46.06.47,0,.3-.52A.43.43,0,0,0,570.11,59Zm-1.76,28.59.08-.1-.37-.47-.3.17Zm7.83-.63a.37.37,0,0,0-.5-.13c-.06,0-.09.12-.13.19a.76.76,0,0,0,.23,0A3.42,3.42,0,0,0,576.18,87ZM564.51,83.9l-.28.42c.08,0,.17.09.23.07S564.64,84.16,564.51,83.9ZM577,86.76l.58.05C577.52,86.48,577.4,86.46,577,86.76Zm-5.32-22.9.11-.06a.35.35,0,0,0-.29-.45l-.09.05Zm7.76,2.35.12-.14-.43-.34-.1.11Zm-11.57-4.63-.05.07.64.25C568.34,61.68,568.18,61.6,567.83,61.58ZM563,84.5l.06.52C563.32,84.73,563.31,84.63,563,84.5Zm6.16-24c.33-.24.36-.4.14-.57Z" style="fill: #aaa"/>
        <path d="M579.41,66.21l-.41-.37.1-.11.43.34Z" style="fill: #aaa"/>
        <path d="M568.52,72.92c0,.33,0,.67,0,1s0,.65,0,1a5.76,5.76,0,0,1-.06-2Z" style="fill: #aaa"/>
        <path d="M569.76,60.51l.12-.39.6.22-.08.26Z" style="fill: #aaa"/>
        <path d="M570.64,61.39l0,.11-.46,0V61.4Z" style="fill: #aaa"/>
        <path d="M578.75,80.93c.24,0,.45.11.62-.14l-.22.49Z" style="fill: #aaa"/>
      </g>
      <path d="M571,96.3a.36.36,0,0,1-.18,0l-2.63-1.55a6,6,0,0,0-3-.83H558.3A6.32,6.32,0,0,1,552,87.57V54.92a2.5,2.5,0,0,1,2.5-2.5h33a2.5,2.5,0,0,1,2.5,2.5V87.57a6.32,6.32,0,0,1-6.31,6.31h-6.86a6,6,0,0,0-3,.83l-2.63,1.55A.36.36,0,0,1,571,96.3Zm-16.5-43.17a1.79,1.79,0,0,0-1.79,1.79V87.57a5.61,5.61,0,0,0,5.6,5.6h6.86a6.67,6.67,0,0,1,3.39.92L571,95.53l2.44-1.44a6.67,6.67,0,0,1,3.39-.92h6.86a5.61,5.61,0,0,0,5.6-5.6V54.92a1.79,1.79,0,0,0-1.79-1.79Z" style="fill: #aaa"/>
    </g>
  </g>
</svg>
