<svg xmlns="http://www.w3.org/2000/svg" xmlns:xlink="http://www.w3.org/1999/xlink" width="66.55mm" height="49.77mm" viewBox="0 0 188.65 141.08">
  <defs>
    <mask id="a" x="24.18" y="16.38" width="10.79" height="8.12" maskUnits="userSpaceOnUse">
      <path d="M31.36,20.59l-6.8-3.9,10.19,1.94L31.37,24.5Z" style="fill: #71b4e1"/>
    </mask>
    <mask id="b" x="20.91" y="22.27" width="10.79" height="8.1" maskUnits="userSpaceOnUse">
      <path d="M28,26.46l-6.8-3.9L31.37,24.5,28,30.37Z" style="fill: #c5cac6"/>
    </mask>
    <mask id="c" x="14.04" y="14.42" width="10.79" height="8.14" maskUnits="userSpaceOnUse">
      <path d="M21.17,18.65l-6.8-3.9,10.19,1.94-3.39,5.87Z" style="fill: #f73624"/>
    </mask>
  </defs>
  <title>8</title>
  <g>
    <path d="M162.19,65.87v.42h3.6a.9.9,0,0,1,1.08,1.08V71A.9.9,0,0,1,165.78,72H164c-.3,0-.69,0-.84-.33a.86.86,0,0,1,.24-.87l2.34-3.11h-3.6l-1.44,1.92a1.64,1.64,0,0,0-.45,1,1.59,1.59,0,0,0,.45,1l.36.48a3.8,3.8,0,0,0,1.2,1.2,4.12,4.12,0,0,0,1.83.24h1.56a4.29,4.29,0,0,0,3.15-.9,3.76,3.76,0,0,0,.9-2.69V68.44a3.75,3.75,0,0,0-.9-2.69,4.28,4.28,0,0,0-3.15-.9h-2.48a.87.87,0,0,0-1,1" style="fill: #aaa"/>
    <polygon points="157.9 67.72 161.46 67.72 157.17 73.47 153.52 73.47 157.9 67.72" style="fill: #aaa"/>
    <path d="M143.85,68.74a.87.87,0,0,1,1-1h6a4.09,4.09,0,0,1,1.83.24,3.84,3.84,0,0,1,1.2,1.2l.36.48a1.6,1.6,0,0,1,.45,1,1.63,1.63,0,0,1-.45,1l-1.44,1.92h-3.6l2.34-3.11a.85.85,0,0,0,.24-.87c-.15-.33-.54-.33-.84-.33h-2.82v7.19h-2.87V69.16h-1.44v-.42" style="fill: #aaa"/>
  </g>
  <g>
    <path d="M41.8,68.61l1.34-1H38.67v6h4.47v-1H39.94V71.07h2.73v-1H39.94V68.61Z" style="fill: #aaa"/>
    <path d="M35.29,69.94H33.74V68.61h2.48l1.34-1H32.46v6h2.66c1.49,0,2.35-.69,2.35-1.88S36.7,69.94,35.29,69.94Zm-.21,2.65H33.74V70.94h1.34c.81,0,1.19.27,1.19.83S35.86,72.59,35.07,72.59Z" style="fill: #aaa"/>
    <path d="M46.76,67.61H44.33v6h1.28V71.9h1.16c1.55,0,2.52-.82,2.52-2.14S48.32,67.61,46.76,67.61Zm0,3.29H45.6V68.61h1.13c.82,0,1.27.41,1.27,1.14S47.55,70.9,46.73,70.9Z" style="fill: #aaa"/>
    <path d="M30.27,72.3a2.28,2.28,0,0,1-1.1.28A2,2,0,1,1,30.33,69l.92-.68-.06-.06a3,3,0,0,0-2.06-.72,3.27,3.27,0,0,0-2.26.85A3,3,0,0,0,26,70.57a3.1,3.1,0,0,0,.89,2.22,3.18,3.18,0,0,0,2.26.88,3,3,0,0,0,2.26-.91l-.82-.62Z" style="fill: #aaa"/>
    <path d="M22,67.57a5.31,5.31,0,0,1,.59,1L18.09,71.9l-1.88-1.19V69.28l1.87,1.18Z" style="fill: #aaa"/>
    <path d="M14.31,70.61a1.29,1.29,0,0,1,0-.2l-1.13-.06c0,.08,0,.17,0,.24a5,5,0,0,0,1.44,3.51l.8-.81A3.78,3.78,0,0,1,14.31,70.61Z" style="fill: #aaa"/>
    <path d="M18.09,66.79h.19l.06-1.14h-.24a4.88,4.88,0,0,0-3.48,1.46l.8.81A3.72,3.72,0,0,1,18.09,66.79Z" style="fill: #aaa"/>
    <path d="M18.09,74.42h-.19l-.06,1.14h.24a4.88,4.88,0,0,0,3.48-1.46l-.8-.81A3.66,3.66,0,0,1,18.09,74.42Z" style="fill: #aaa"/>
    <path d="M20.21,67.46l1-.71a4.89,4.89,0,0,0-3.09-1.11v1.14A3.78,3.78,0,0,1,20.21,67.46Z" style="fill: #aaa"/>
    <path d="M23,70.61a5.38,5.38,0,0,0-.08-.89l-1.06.79v.1a3.81,3.81,0,0,1-1.25,2.83l.76.85A5,5,0,0,0,23,70.61Z" style="fill: #aaa"/>
    <path d="M18.09,74.42a3.73,3.73,0,0,1-2.8-1.26l-.84.77a4.86,4.86,0,0,0,3.64,1.63Z" style="fill: #aaa"/>
    <path d="M15.56,67.78l-.77-.85a5,5,0,0,0-1.62,3.68h1.13A3.83,3.83,0,0,1,15.56,67.78Z" style="fill: #aaa"/>
  </g>
  <g>
    <g>
      <path d="M159.86,17.43h0l.73,1.79h.34l.73-1.78h0v1.79h.46V16.62h-.58l-.78,1.89h0L160,16.62h-.58v2.61h.46Z" style="fill: #aaa"/>
      <path d="M163,19.14a1,1,0,0,0,.5.13,1,1,0,0,0,.5-.13.87.87,0,0,0,.33-.35,1.13,1.13,0,0,0,.12-.53,1.16,1.16,0,0,0-.12-.53.84.84,0,0,0-.33-.35,1.06,1.06,0,0,0-1,0,.87.87,0,0,0-.33.35,1.13,1.13,0,0,0-.12.53,1.16,1.16,0,0,0,.12.53A.85.85,0,0,0,163,19.14Zm.08-1.21a.53.53,0,0,1,.16-.23.41.41,0,0,1,.27-.09.39.39,0,0,1,.26.09.53.53,0,0,1,.16.23,1,1,0,0,1,.05.33,1,1,0,0,1-.05.32.53.53,0,0,1-.16.23.4.4,0,0,1-.26.08.41.41,0,0,1-.27-.08.51.51,0,0,1-.16-.23,1,1,0,0,1-.05-.32A1,1,0,0,1,163,17.93Z" style="fill: #aaa"/>
      <path d="M165.13,19.13a1.08,1.08,0,0,0,.94,0,.7.7,0,0,0,.29-.25.75.75,0,0,0,.12-.37H166a.42.42,0,0,1-.08.18.37.37,0,0,1-.14.11.43.43,0,0,1-.18,0,.41.41,0,0,1-.25-.08.48.48,0,0,1-.17-.22.91.91,0,0,1-.06-.34.88.88,0,0,1,.06-.34.48.48,0,0,1,.17-.22.42.42,0,0,1,.25-.08.38.38,0,0,1,.27.09.43.43,0,0,1,.13.24h.44a.73.73,0,0,0-.12-.37.72.72,0,0,0-.3-.25,1,1,0,0,0-.43-.09,1,1,0,0,0-.5.13.85.85,0,0,0-.33.36,1.16,1.16,0,0,0-.12.53,1.14,1.14,0,0,0,.11.52.86.86,0,0,0,.32.36Z" style="fill: #aaa"/>
      <path d="M167.3,18.49h.23l.54.74h.56l-.74-1,.73-1h-.56l-.59.79h-.17v-.79h-.46v2h.46Z" style="fill: #aaa"/>
      <path d="M169.14,19.14a1,1,0,0,0,.5.13,1,1,0,0,0,.5-.13.87.87,0,0,0,.33-.35,1.13,1.13,0,0,0,.12-.53,1.16,1.16,0,0,0-.12-.53.84.84,0,0,0-.33-.35,1.06,1.06,0,0,0-1,0,.87.87,0,0,0-.33.35,1.13,1.13,0,0,0-.12.53,1.16,1.16,0,0,0,.12.53A.85.85,0,0,0,169.14,19.14Zm.08-1.21a.53.53,0,0,1,.16-.23.41.41,0,0,1,.27-.09.39.39,0,0,1,.26.09.53.53,0,0,1,.16.23,1,1,0,0,1,.05.33,1,1,0,0,1-.05.32.53.53,0,0,1-.16.23.4.4,0,0,1-.26.08.41.41,0,0,1-.27-.08.51.51,0,0,1-.16-.23,1,1,0,0,1-.05-.32A1,1,0,0,1,169.22,17.93Z" style="fill: #aaa"/>
      <path d="M172.55,19a.46.46,0,0,0,.09-.28.45.45,0,0,0-.07-.24.47.47,0,0,0-.18-.17.68.68,0,0,0-.27-.08.61.61,0,0,0,.31-.14.34.34,0,0,0,.12-.27.44.44,0,0,0-.2-.39,1,1,0,0,0-.55-.14h-.83v2h1a1.05,1.05,0,0,0,.39-.07.53.53,0,0,0,.25-.19Zm-1.16-1.34h.39a.39.39,0,0,1,.23.06.18.18,0,0,1,.08.16.19.19,0,0,1,0,.12.23.23,0,0,1-.1.08.43.43,0,0,1-.16,0h-.4Zm.72,1.16a.3.3,0,0,1-.2.06h-.52v-.48h.52a.28.28,0,0,1,.2.07.25.25,0,0,1,.07.19A.2.2,0,0,1,172.11,18.8Z" style="fill: #aaa"/>
      <path d="M174.56,18.92a.75.75,0,0,0,.12-.37h-.44a.42.42,0,0,1-.08.18.38.38,0,0,1-.14.11.43.43,0,0,1-.18,0,.41.41,0,0,1-.25-.08.48.48,0,0,1-.17-.22.91.91,0,0,1-.06-.34.88.88,0,0,1,.06-.34.48.48,0,0,1,.17-.22.42.42,0,0,1,.25-.08.38.38,0,0,1,.27.09.43.43,0,0,1,.13.24h.44a.73.73,0,0,0-.12-.37.72.72,0,0,0-.3-.25,1,1,0,0,0-.43-.09,1,1,0,0,0-.5.13.85.85,0,0,0-.33.36,1.16,1.16,0,0,0-.12.53,1.14,1.14,0,0,0,.11.52.86.86,0,0,0,.32.36,1.08,1.08,0,0,0,.94,0,.7.7,0,0,0,.29-.25Z" style="fill: #aaa"/>
      <path d="M176.82,17.27h-.56l-.59.79h-.17v-.79H175v2h.46v-.74h.23l.54.74h.56l-.74-1Z" style="fill: #aaa"/>
      <path d="M178.35,17.89v1.33h.45v-2h-.48l-.79,1.33V17.27h-.45v2h.48Z" style="fill: #aaa"/>
      <path d="M180.49,17.27l-.79,1.33V17.27h-.45v2h.48l.79-1.33v1.33H181v-2Z" style="fill: #aaa"/>
      <path d="M180.11,17.1a.66.66,0,0,0,.44-.14.45.45,0,0,0,.16-.36h-.35a.26.26,0,0,1-.06.17.24.24,0,0,1-.19.07.24.24,0,0,1-.2-.07.25.25,0,0,1-.06-.16h-.34a.45.45,0,0,0,.16.36.65.65,0,0,0,.44.14Z" style="fill: #aaa"/>
      <path d="M161,23.43a.68.68,0,0,0,.3-.25.7.7,0,0,0,.1-.36.65.65,0,0,0-.08-.34.62.62,0,0,0-.21-.22.58.58,0,0,0-.27-.08v0A.7.7,0,0,0,161,22a.51.51,0,0,0,.17-.18.55.55,0,0,0,.06-.27.62.62,0,0,0-.38-.59,1.11,1.11,0,0,0-.47-.09h-1v2.61h1.06a1.14,1.14,0,0,0,.5-.09Zm-1.09-2.13h.48a.44.44,0,0,1,.32.1.32.32,0,0,1,.11.25.33.33,0,0,1-.06.2.38.38,0,0,1-.16.13.53.53,0,0,1-.22,0h-.47v-.72Zm0,1.82v-.76h.52a.55.55,0,0,1,.25.06.41.41,0,0,1,.16.15.38.38,0,0,1,.06.21.32.32,0,0,1-.12.25.57.57,0,0,1-.37.1Z" style="fill: #aaa"/>
      <path d="M163,23.49a.74.74,0,0,0,.29-.2.65.65,0,0,0,.15-.3l-.43,0a.38.38,0,0,1-.09.14.39.39,0,0,1-.14.08.58.58,0,0,1-.18,0,.51.51,0,0,1-.26-.06.44.44,0,0,1-.18-.19.65.65,0,0,1-.06-.28h1.37v-.14a1.21,1.21,0,0,0-.07-.44.85.85,0,0,0-.2-.31.81.81,0,0,0-.29-.18,1,1,0,0,0-.34-.06.94.94,0,0,0-.49.13.89.89,0,0,0-.33.36,1.28,1.28,0,0,0,0,1.06.82.82,0,0,0,.33.35,1,1,0,0,0,.51.12,1.14,1.14,0,0,0,.41-.07ZM162.32,22a.45.45,0,0,1,.25-.07.46.46,0,0,1,.23.06.41.41,0,0,1,.16.16.49.49,0,0,1,.06.24h-.92a.51.51,0,0,1,.06-.21.48.48,0,0,1,.17-.18Z" style="fill: #aaa"/>
      <path d="M165,22.73v.79h.45v-2H165v.79h-.76v-.79h-.45v2h.45v-.79Z" style="fill: #aaa"/>
      <path d="M166.37,22.42a.4.4,0,0,1,0-.2v-.65h-.44v.65a.65.65,0,0,0,.23.55,1,1,0,0,0,.62.18l.21,0,.14,0v.62h.45v-2h-.45v1l-.05,0a1.34,1.34,0,0,1-.29,0,.65.65,0,0,1-.23,0,.26.26,0,0,1-.14-.11Z" style="fill: #aaa"/>
      <path d="M168.76,23h0l-.46-1.48h-.49l.71,2,0,.11a.35.35,0,0,1-.1.16.22.22,0,0,1-.14,0l-.18,0-.11.36.13,0h.18a.77.77,0,0,0,.31-.06.6.6,0,0,0,.22-.17.89.89,0,0,0,.15-.27l.79-2.19h-.49L168.76,23Z" style="fill: #aaa"/>
      <path d="M171.45,21.66a.77.77,0,0,0-.41-.11.61.61,0,0,0-.28.06.55.55,0,0,0-.18.14,1,1,0,0,0-.1.15h0v-.32H170v2.69h.46v-1h0a.9.9,0,0,0,.1.15.55.55,0,0,0,.18.14.64.64,0,0,0,.28.06.74.74,0,0,0,.42-.12.79.79,0,0,0,.29-.34,1.45,1.45,0,0,0,0-1.1.78.78,0,0,0-.29-.34Zm-.12,1.21a.49.49,0,0,1-.16.22.4.4,0,0,1-.26.08.39.39,0,0,1-.25-.08.47.47,0,0,1-.16-.22,1,1,0,0,1-.06-.33,1,1,0,0,1,.05-.33.47.47,0,0,1,.16-.22.41.41,0,0,1,.25-.08.43.43,0,0,1,.26.08.48.48,0,0,1,.16.22.93.93,0,0,1,.05.32.94.94,0,0,1-.05.33Z" style="fill: #aaa"/>
      <path d="M173.44,22.35h-.76v-.79h-.45v2h.45v-.79h.76v.79h.45v-2h-.45Z" style="fill: #aaa"/>
      <path d="M176.74,21.57h-.46v2h.46Z" style="fill: #aaa"/>
      <path d="M175.23,22.21h-.45v-.64h-.45v2h.9a1,1,0,0,0,.43-.08.61.61,0,0,0,.37-.58.6.6,0,0,0-.21-.48A.86.86,0,0,0,175.23,22.21Zm.25.86a.4.4,0,0,1-.25.08h-.45v-.56h.45a.38.38,0,0,1,.25.08.25.25,0,0,1,.1.21.23.23,0,0,1-.1.2Z" style="fill: #aaa"/>
      <path d="M178.24,21.06a.24.24,0,0,1-.19.07.24.24,0,0,1-.2-.07.25.25,0,0,1-.06-.16h-.34a.45.45,0,0,0,.16.36.65.65,0,0,0,.44.14.66.66,0,0,0,.44-.14.45.45,0,0,0,.16-.36h-.35a.26.26,0,0,1-.06.17Z" style="fill: #aaa"/>
      <path d="M177.64,22.9V21.57h-.45v2h.48l.79-1.33v1.33h.45v-2h-.48Z" style="fill: #aaa"/>
      <path d="M161.47,25.64a1.12,1.12,0,0,0-.55-.13h0v-.34h-.46v.34h0a1.12,1.12,0,0,0-.55.13,1,1,0,0,0-.38.37,1.08,1.08,0,0,0-.14.55,1.06,1.06,0,0,0,.14.55.92.92,0,0,0,.37.36,1.15,1.15,0,0,0,.55.13h0v.33h.46V27.6h0a1.13,1.13,0,0,0,.55-.13.94.94,0,0,0,.37-.36,1.07,1.07,0,0,0,.14-.54,1.12,1.12,0,0,0-.14-.55A1,1,0,0,0,161.47,25.64Zm-1.08,1.56a.68.68,0,0,1-.32-.07.52.52,0,0,1-.21-.22.71.71,0,0,1-.08-.34.83.83,0,0,1,.07-.36.52.52,0,0,1,.21-.22.66.66,0,0,1,.32-.08h0V27.2h0Zm1.06-.29a.5.5,0,0,1-.21.22.65.65,0,0,1-.32.07h0V25.91h0a.65.65,0,0,1,.32.08.51.51,0,0,1,.21.22.79.79,0,0,1,.07.36.73.73,0,0,1-.07.34Z" style="fill: #aaa"/>
      <path d="M163.73,26a1.06,1.06,0,0,0-1,0,.87.87,0,0,0-.33.35,1.13,1.13,0,0,0-.12.53,1.16,1.16,0,0,0,.12.53.85.85,0,0,0,.33.35,1,1,0,0,0,.5.13,1,1,0,0,0,.5-.13.87.87,0,0,0,.33-.35,1.13,1.13,0,0,0,.12-.53,1.16,1.16,0,0,0-.12-.53A.84.84,0,0,0,163.73,26Zm-.08,1.21a.52.52,0,0,1-.16.23.4.4,0,0,1-.26.08.41.41,0,0,1-.27-.08.51.51,0,0,1-.16-.23,1,1,0,0,1-.05-.32,1,1,0,0,1,.05-.33.51.51,0,0,1,.16-.23.41.41,0,0,1,.27-.09.39.39,0,0,1,.26.09.52.52,0,0,1,.16.23,1,1,0,0,1,.05.33A1,1,0,0,1,163.65,27.18Z" style="fill: #aaa"/>
      <path d="M165.75,26.66H165v-.79h-.45v2H165V27h.76v.79h.45v-2h-.45Z" style="fill: #aaa"/>
      <path d="M168.37,25.87h-1.42l-.06.69c0,.11,0,.21,0,.31a2.31,2.31,0,0,1,0,.26.94.94,0,0,1-.07.2.35.35,0,0,1-.11.13h-.16v.95h.46v-.57h1.29v.57h.45v-.95h-.31V25.87Zm-.44,1.57h-.81a.94.94,0,0,0,.14-.36,5.13,5.13,0,0,0,.07-.53l0-.31h.58v1.2Z" style="fill: #aaa"/>
    </g>
    <path d="M141,25.33,138,21H132.6l2.3-4.32h5.35l3,4.38L141,25.33ZM154,21l-3-4.38h-5.35L143.31,21h5.35l3,4.38L154,21Z" style="fill: #aaa"/>
  </g>
  <g>
    <g>
      <path d="M73.8,109a1,1,0,0,1-.11.49,1.18,1.18,0,0,1-.26.34l-.34.23a1.35,1.35,0,0,1-.41.08v.34H72v-.34a2.15,2.15,0,0,1-.53-.15.82.82,0,0,1-.34-.26,1.18,1.18,0,0,1-.19-.38,1.92,1.92,0,0,1-.08-.49v-1.39A1,1,0,0,1,71,107a.9.9,0,0,1,.23-.3,1.24,1.24,0,0,1,.38-.23.81.81,0,0,1,.41-.08v-.23h.68v.23a1.6,1.6,0,0,1,.41.08.89.89,0,0,1,.34.23,1.16,1.16,0,0,1,.26.34,1,1,0,0,1,.11.49V109ZM72,106.89a1.13,1.13,0,0,0-.38.15.64.64,0,0,0-.11.38v1.65a.48.48,0,0,0,0,.23.53.53,0,0,0,.11.15l.15.11a.34.34,0,0,0,.19,0Zm1.17.53A.48.48,0,0,0,73,107a.71.71,0,0,0-.34-.15v2.67l.15,0a.67.67,0,0,0,.26-.26.34.34,0,0,0,0-.19v-1.65Z" style="fill: #aaa"/>
      <path d="M77.14,109.33a1.19,1.19,0,0,1-.26.86,1.08,1.08,0,0,1-.79.3,1,1,0,0,1-.79-.26,1.24,1.24,0,0,1-.26-.79v-2.18a1.63,1.63,0,0,1,.07-.45,1.19,1.19,0,0,1,.19-.38.55.55,0,0,1,.34-.23,1.9,1.9,0,0,1,.49-.08,1.66,1.66,0,0,1,.49.08.38.38,0,0,1,.3.19,1.18,1.18,0,0,1,.19.38,2,2,0,0,1,0,.49Zm-.68-2.14a1.1,1.1,0,0,0-.08-.34c0-.11-.15-.15-.3-.15a.28.28,0,0,0-.19,0c-.07.08-.11.11-.11.19a.28.28,0,0,0,0,.19v2.37a.7.7,0,0,0,.08.3.34.34,0,0,0,.3.15.3.3,0,0,0,.3-.15c.08-.08.08-.19.08-.34v-2.26Z" style="fill: #aaa"/>
      <polygon points="79.85 110.46 79.85 108.58 79.06 108.58 79.06 110.46 78.42 110.46 78.42 106.13 79.1 106.13 79.1 107.94 79.89 107.94 79.89 106.13 80.56 106.13 80.56 110.46 79.85 110.46" style="fill: #aaa"/>
      <path d="M82.14,110.46v.83h-.56v-1.39l.26,0a.9.9,0,0,0,.23-.41,2.68,2.68,0,0,0,.08-.64l.08-2.63h2v3.72h.26v1.43h-.56v-.83H82.14Zm.6-1.69c0,.26,0,.45,0,.64a1.27,1.27,0,0,1-.15.45h.94v-3.08h-.68Z" style="fill: #aaa"/>
      <path d="M88.5,106.1a1.4,1.4,0,0,1,.45.08,1.52,1.52,0,0,1,.34.19.82.82,0,0,1,.19.3,1.36,1.36,0,0,1,.08.41l-.64.15a.94.94,0,0,0-.08-.38.3.3,0,0,0-.3-.15.28.28,0,0,0-.19,0l-.11.11a.23.23,0,0,0,0,.15v2.52s0,.11,0,.15l.11.11a.28.28,0,0,0,.19,0c.26,0,.38-.19.38-.53a1,1,0,0,0,.34,0c.11,0,.23,0,.34,0a1.24,1.24,0,0,1-.26.79,1,1,0,0,1-.75.3,1,1,0,0,1-.79-.26,1.06,1.06,0,0,1-.26-.79v-2.14a1.83,1.83,0,0,1,0-.45,1.19,1.19,0,0,1,.19-.38.82.82,0,0,1,.34-.26.77.77,0,0,1,.41-.08" style="fill: #aaa"/>
      <path d="M92.71,109.33a1.19,1.19,0,0,1-.26.86,1.08,1.08,0,0,1-.79.3,1,1,0,0,1-.79-.26,1.24,1.24,0,0,1-.26-.79v-2.18a1.63,1.63,0,0,1,.08-.45,1.18,1.18,0,0,1,.19-.38.55.55,0,0,1,.34-.23,1.9,1.9,0,0,1,.49-.08,1.67,1.67,0,0,1,.49.08.68.68,0,0,1,.34.23,1.18,1.18,0,0,1,.19.38v2.52ZM92,107.19a1.1,1.1,0,0,0-.08-.34c0-.11-.15-.15-.3-.15a.28.28,0,0,0-.19,0l-.11.11s0,.11-.08.19v2.37a.71.71,0,0,0,.08.3.39.39,0,0,0,.3.15.31.31,0,0,0,.3-.15c.08-.08.08-.19.08-.34Z" style="fill: #aaa"/>
      <path d="M94.29,110.46v.83h-.56v-1.39l.26,0a.9.9,0,0,0,.23-.41,2.68,2.68,0,0,0,.08-.64l.08-2.63h2v3.72h.26v1.43H96v-.83H94.29Zm.6-1.69c0,.26,0,.45,0,.64a1.27,1.27,0,0,1-.15.45h.94v-3.08H95Z" style="fill: #aaa"/>
      <polygon points="97.67 110.46 97.67 106.13 99.59 106.13 99.59 106.77 98.35 106.77 98.35 107.94 99.44 107.94 99.44 108.58 98.35 108.58 98.35 109.82 99.59 109.82 99.59 110.46 97.67 110.46" style="fill: #aaa"/>
      <path d="M102.26,107.75l-.9,2.71h-.64v-4.32h.64v2.74l.9-2.74h.64v4.32h-.68Zm-.83-2.59a.28.28,0,0,0,0,.15s0,.08.08.15l.11.11a.23.23,0,0,0,.15,0c.08,0,.11,0,.15,0l.11-.11a.19.19,0,0,0,.08-.15s0-.08,0-.15h.49a1.18,1.18,0,0,1-.08.3c0,.08,0,.19-.11.26a1.64,1.64,0,0,1-.26.23,1.11,1.11,0,0,1-.38.08,1.35,1.35,0,0,1-.41-.08.51.51,0,0,1-.26-.23,1,1,0,0,1-.15-.26,1.16,1.16,0,0,1-.08-.3Z" style="fill: #aaa"/>
      <path d="M105.23,106.1a1.4,1.4,0,0,1,.45.08,1.53,1.53,0,0,1,.34.19.82.82,0,0,1,.19.3,1.36,1.36,0,0,1,.07.41l-.64.15a.94.94,0,0,0-.08-.38.3.3,0,0,0-.3-.15.28.28,0,0,0-.19,0l-.11.11a.23.23,0,0,0,0,.15v2.52s0,.11,0,.15l.11.11a.28.28,0,0,0,.19,0c.26,0,.38-.19.38-.53a1,1,0,0,0,.34,0c.11,0,.23,0,.34,0a1.24,1.24,0,0,1-.26.79,1,1,0,0,1-.75.3,1,1,0,0,1-.79-.26,1.06,1.06,0,0,1-.26-.79v-2.14a1.83,1.83,0,0,1,0-.45,1.18,1.18,0,0,1,.19-.38.82.82,0,0,1,.34-.26.88.88,0,0,1,.41-.08" style="fill: #aaa"/>
      <polygon points="108.46 106.77 108.46 110.46 107.79 110.46 107.79 106.77 107.07 106.77 107.07 106.13 109.14 106.13 109.14 106.77 108.46 106.77" style="fill: #aaa"/>
      <path d="M111.77,108.2a.57.57,0,0,1,.38.34,1.55,1.55,0,0,1,.11.6,1.38,1.38,0,0,1-.3,1,1.1,1.1,0,0,1-.9.3h-.9v-4.29h.94a1.05,1.05,0,0,1,.83.3,1.44,1.44,0,0,1,.15,1.39c0,.15-.15.26-.3.38m-.19-.86a.6.6,0,0,0-.11-.41.56.56,0,0,0-.38-.11h-.23v1.13h.23a.4.4,0,0,0,.38-.15,1,1,0,0,0,.11-.45m0,1.73a.8.8,0,0,0-.11-.45.4.4,0,0,0-.38-.15h-.26v1.35h.26a.54.54,0,0,0,.26-.08.29.29,0,0,0,.15-.15.53.53,0,0,0,.08-.23Z" style="fill: #aaa"/>
      <polygon points="115.08 107.75 114.18 110.46 113.54 110.46 113.54 106.13 114.18 106.13 114.18 108.88 114.22 108.88 115.12 106.13 115.76 106.13 115.76 110.46 115.08 110.46 115.08 107.75" style="fill: #aaa"/>
      <path d="M116.89,110.46l.23-1.35a1.13,1.13,0,0,1,.15-.38.59.59,0,0,1,.26-.26.81.81,0,0,1-.41-.38,1.42,1.42,0,0,1-.11-.6,1.52,1.52,0,0,1,.3-1,1.08,1.08,0,0,1,.86-.34h1v4.32h-.68v-1.88h-.19a.46.46,0,0,0-.34.15c-.11.08-.15.26-.23.49l-.19,1.2Zm1.32-3.68a.49.49,0,0,0-.41.19.85.85,0,0,0-.11.49.55.55,0,0,0,.15.45.64.64,0,0,0,.38.11h.26v-1.24Z" style="fill: #aaa"/>
      <polygon points="72.93 114.03 71.81 117.38 71.02 117.38 71.02 112.04 71.84 112.04 71.84 115.42 71.88 115.42 73.01 112.04 73.83 112.04 73.83 117.38 72.97 117.38 72.93 114.03" style="fill: #aaa"/>
      <polygon points="77.86 117.38 77.86 115.04 76.92 115.04 76.92 117.38 76.09 117.38 76.09 112.04 76.92 112.04 76.92 114.25 77.9 114.25 77.9 112.04 78.72 112.04 78.72 117.38 77.86 117.38" style="fill: #aaa"/>
      <polygon points="82.82 117.38 82.82 115.04 81.84 115.04 81.84 117.38 81.02 117.38 81.02 112.04 81.84 112.04 81.84 114.25 82.82 114.25 82.82 112.04 83.65 112.04 83.65 117.38 82.82 117.38" style="fill: #aaa"/>
      <path d="M88.54,116a1.67,1.67,0,0,1-.3,1.05,1.32,1.32,0,0,1-1,.34,1.23,1.23,0,0,1-1-.34,1.52,1.52,0,0,1-.3-1v-2.67a2.26,2.26,0,0,1,.08-.56.86.86,0,0,1,.23-.45,1.17,1.17,0,0,1,.41-.3,1.43,1.43,0,0,1,.6-.11,1.62,1.62,0,0,1,.64.11,1.55,1.55,0,0,1,.41.26.86.86,0,0,1,.23.45,2.9,2.9,0,0,1,.08.6V116Zm-.83-2.67a.86.86,0,0,0-.11-.41.41.41,0,0,0-.38-.19.32.32,0,0,0-.23.08c-.08,0-.11.11-.15.15a.54.54,0,0,0-.08.23c0,.08,0,.15,0,.23v2.71a.64.64,0,0,0,.11.38.4.4,0,0,0,.38.15.41.41,0,0,0,.38-.19.76.76,0,0,0,.11-.41Z" style="fill: #aaa"/>
      <path d="M92.79,114.59a.73.73,0,0,1,.49.45,2.23,2.23,0,0,1,.15.75A1.69,1.69,0,0,1,93,117a1.37,1.37,0,0,1-1.09.38H90.83V112H92a1.16,1.16,0,0,1,1,.38,1.58,1.58,0,0,1,.34,1.09,1.62,1.62,0,0,1-.11.64.71.71,0,0,1-.45.41Zm-.23-1.09a.68.68,0,0,0-.15-.53.64.64,0,0,0-.49-.15h-.26v1.35h.26a.65.65,0,0,0,.49-.19c.11-.08.15-.26.15-.49m0,2.18a.78.78,0,0,0-.15-.56.59.59,0,0,0-.49-.19h-.3v1.65H92a.9.9,0,0,0,.34-.08.45.45,0,0,0,.19-.19.71.71,0,0,0,.08-.3Z" style="fill: #aaa"/>
      <path d="M97.64,117.38l-.23-1.13h-1l-.11.56-.11.56h-.86c.19-.9.38-1.8.53-2.67s.38-1.77.53-2.67h.94l1.09,5.34Zm-.75-4.1c0,.38-.11.75-.15,1.09s-.11.75-.19,1.13h.75L97,113.28Z" style="fill: #aaa"/>
      <polygon points="103.09 112.04 103.09 116.62 103.42 116.62 103.42 118.43 102.71 118.43 102.71 117.41 100.45 117.41 100.45 112.04 101.28 112.04 101.28 116.62 102.22 116.62 102.22 112.04 103.09 112.04" style="fill: #aaa"/>
      <polygon points="107.34 114.03 106.21 117.38 105.42 117.38 105.42 112.04 106.25 112.04 106.25 115.42 107.37 112.04 108.2 112.04 108.2 117.38 107.37 117.38 107.34 114.03" style="fill: #aaa"/>
      <path d="M110.27,117.38l.3-1.69a1.11,1.11,0,0,1,.19-.49.74.74,0,0,1,.34-.34,1.06,1.06,0,0,1-.53-.45,2.22,2.22,0,0,1-.15-.75,1.65,1.65,0,0,1,.38-1.2,1.42,1.42,0,0,1,1.05-.41h1.24v5.34h-.83v-2.29H112a.63.63,0,0,0-.41.15,1,1,0,0,0-.26.6l-.26,1.5h-.83Zm1.65-4.55a.58.58,0,0,0-.53.23,1,1,0,0,0-.15.6.63.63,0,0,0,.19.53.69.69,0,0,0,.49.15h.34v-1.5Z" style="fill: #aaa"/>
      <polygon points="116.96 116.21 116.58 115.23 116.25 114.29 116.21 114.29 116.21 117.38 115.38 117.38 115.38 112.04 116.21 112.04 116.81 113.54 117.22 114.71 117.26 114.71 117.71 113.5 118.28 112 119.07 112 119.07 117.34 118.24 117.34 118.24 114.25 118.2 114.25 117.86 115.19 117.49 116.17 116.96 116.17 116.96 116.21" style="fill: #aaa"/>
    </g>
    <g>
      <path d="M117.91,120.61A24.07,24.07,0,0,1,112,125a34.58,34.58,0,0,1-15.41,3.75H96c-.57,0-1.17,0-1.78,0-7.72-.34-16.89-2.92-23.33-9.69h4.7l.08.09c4.13,4.61,12.05,7.65,20.68,7.94l1.37,0C105.64,127,112.81,124.73,117.91,120.61Z" style="fill: #aaa"/>
      <path d="M118.46,119.78c-5.36,4.71-13.33,7.22-22.08,6.94C87.89,126.43,80.1,123.47,76,119h4.56l.11.11c3.83,3.64,10.1,5.88,17.21,6.14l1.38,0A35.78,35.78,0,0,0,118.46,119.78Z" style="fill: #aaa"/>
      <path d="M118.77,119.23a35.52,35.52,0,0,1-20.88,5.68c-7-.25-13.12-2.42-16.91-6h4.86c2.77,2.65,7.92,4.43,14.47,4.43h.26a45.84,45.84,0,0,0,16-3.26Z" style="fill: #aaa"/>
    </g>
  </g>
  <g>
    <g style="mask: url(#a)">
      <g>
        <rect x="24.18" y="16.38" width="10.79" height="4.58" style="fill: #aaa"/>
        <path d="M31.37,24.5l3.39-5.87-3.4,2Z" style="fill: #aaa"/>
      </g>
    </g>
    <g style="mask: url(#b)">
      <g>
        <rect x="20.91" y="22.27" width="10.79" height="4.58" style="fill: #aaa"/>
        <path d="M28,30.37l3.39-5.87-3.4,2Z" style="fill: #aaa"/>
      </g>
    </g>
    <g style="mask: url(#c)">
      <g>
        <rect x="14.04" y="14.42" width="10.79" height="4.58" style="fill: #aaa"/>
        <path d="M21.17,22.56l3.39-5.87-3.4,2Z" style="fill: #aaa"/>
      </g>
    </g>
    <path d="M34.84,28.1h1.33L35.85,27l-.31-1.22h0L35.16,27Zm1.63,1.07H34.54l-.33,1.07c0,.11-.07.16-.24.16H33c-.12,0-.14-.09-.12-.17l1.77-5.34c.12-.39.27-.46.61-.47h.51c.38,0,.52,0,.66.47l1.77,5.34a.12.12,0,0,1-.11.17h-1c-.13,0-.21,0-.24-.14Z" style="fill: #aaa"/>
    <path d="M42.31,29.09c.16-.07.21,0,.26.1l.29.61c.08.16.05.22,0,.28a3.68,3.68,0,0,1-2,.48c-1.84,0-2.66-1.15-2.66-3s1.1-3.1,2.72-3.1a3.34,3.34,0,0,1,1.66.36c.13.07.14.11.07.3l-.26.59c-.06.15-.09.19-.25.13A3.16,3.16,0,0,0,41,25.57c-.93,0-1.43.83-1.43,1.94s.35,1.86,1.46,1.86a3.51,3.51,0,0,0,1.3-.3" style="fill: #aaa"/>
    <path d="M47.1,26.41l-.75,1.28L44.93,30a.57.57,0,0,1-.64.36H44c-.44,0-.55-.23-.55-.59v-5.2c0-.12.05-.16.18-.16h.9c.16,0,.18,0,.18.16v3.84h0l.71-1.19,1.46-2.42c.19-.32.29-.38.63-.38h.35c.41,0,.55.15.55.6v5.21c0,.12,0,.16-.18.16h-.9c-.15,0-.19,0-.19-.16V26.41Z" style="fill: #aaa"/>
  </g>
  <g>
    <path d="M90.67,68.34V65.16h.62l.9,2h.19l.9-2h.62v3.18h-.38V65.57h0l-.87,2h-.7l-.87-2h0v2.77Z" style="fill: #aaa"/>
    <path d="M94.91,68a1.09,1.09,0,0,1-.28-.37,1,1,0,0,1-.09-.43,1,1,0,0,1,.1-.43,1.12,1.12,0,0,1,.28-.37,1.31,1.31,0,0,1,.42-.24,1.47,1.47,0,0,1,1,0,1.32,1.32,0,0,1,.42.24,1.12,1.12,0,0,1,.28.36,1,1,0,0,1,.1.43,1,1,0,0,1-.23.61,1.29,1.29,0,0,1-.58.41,1.49,1.49,0,0,1-.74.07,1.38,1.38,0,0,1-.66-.29Zm.28-1.37a.78.78,0,0,0-.19.26.7.7,0,0,0-.06.31.7.7,0,0,0,.06.31.79.79,0,0,0,.19.26,1,1,0,0,0,1.28,0,.78.78,0,0,0,.19-.26.81.81,0,0,0,0-.61.78.78,0,0,0-.19-.26,1,1,0,0,0-1.28,0Z" style="fill: #aaa"/>
    <path d="M97.77,68a1.09,1.09,0,0,1-.25-.37,1.23,1.23,0,0,1,0-.86,1.09,1.09,0,0,1,.25-.37,1.17,1.17,0,0,1,.4-.24,1.23,1.23,0,0,1,.93,0,1.16,1.16,0,0,1,.38.27,1.07,1.07,0,0,1,.21.37h-.36a.7.7,0,0,0-.15-.21.78.78,0,0,0-.27-.17.81.81,0,0,0-.31,0,.76.76,0,0,0-.3.06.72.72,0,0,0-.25.17.78.78,0,0,0-.23.56.77.77,0,0,0,.23.57.73.73,0,0,0,.25.17.77.77,0,0,0,.3.06.8.8,0,0,0,.33-.05.76.76,0,0,0,.27-.18.7.7,0,0,0,.16-.24h.36a1,1,0,0,1-.41.58,1.17,1.17,0,0,1-.71.21,1.15,1.15,0,0,1-.44-.08A1.09,1.09,0,0,1,97.77,68Z" style="fill: #aaa"/>
    <path d="M100,68.34V66.12h.4V67h.5l.8-.89h.48l-.93,1,1,1.17h-.5l-.85-1h-.5v1Z" style="fill: #aaa"/>
    <path d="M102.6,68a1.07,1.07,0,0,1-.24-.36,1,1,0,0,1-.08-.42,1.08,1.08,0,0,1,.08-.43,1.1,1.1,0,0,1,.24-.37,1.13,1.13,0,0,1,.37-.25,1.16,1.16,0,0,1,.88,0,1.13,1.13,0,0,1,.37.25,1.1,1.1,0,0,1,.24.37,1.08,1.08,0,0,1,.08.43,1.1,1.1,0,0,1-.2.6,1.14,1.14,0,0,1-.51.4,1.17,1.17,0,0,1-.65.07A1.16,1.16,0,0,1,102.6,68Zm.25-1.35a.77.77,0,0,0-.17.26.89.89,0,0,0,0,.6.77.77,0,0,0,.17.26.82.82,0,0,0,1.12,0,.78.78,0,0,0,.17-.26.8.8,0,0,0-.17-.86.82.82,0,0,0-1.12,0Z" style="fill: #aaa"/>
    <path d="M105.18,68.34V66.12h1.14a.78.78,0,0,1,.51.16.51.51,0,0,1,.14.18.49.49,0,0,1,0,.22.62.62,0,0,1,0,.2.43.43,0,0,1-.08.14l-.1.08-.09,0h0l.11,0,.13.09a.44.44,0,0,1,.1.16.66.66,0,0,1,0,.49.59.59,0,0,1-.16.21.86.86,0,0,1-.58.18Zm.37-1.31h.75c.23,0,.35-.1.35-.29s-.12-.29-.35-.29h-.75Zm0,1h.77a.48.48,0,0,0,.31-.09.31.31,0,0,0,.08-.11.3.3,0,0,0,0-.13.29.29,0,0,0,0-.13.31.31,0,0,0-.08-.11.48.48,0,0,0-.31-.09h-.77Z" style="fill: #aaa"/>
    <path d="M107.76,68a1.08,1.08,0,0,1-.25-.36,1.2,1.2,0,0,1,0-.85,1.09,1.09,0,0,1,.25-.36,1.17,1.17,0,0,1,.4-.24,1.23,1.23,0,0,1,.93,0,1.16,1.16,0,0,1,.38.27,1.06,1.06,0,0,1,.2.37h-.36a.68.68,0,0,0-.15-.21.77.77,0,0,0-.26-.17.81.81,0,0,0-.31,0,.76.76,0,0,0-.3.06.72.72,0,0,0-.25.17.78.78,0,0,0-.22.57.77.77,0,0,0,.23.57.73.73,0,0,0,.25.17.77.77,0,0,0,.3.06.8.8,0,0,0,.33-.05.76.76,0,0,0,.27-.18.66.66,0,0,0,.15-.24h.36a1,1,0,0,1-.21.4,1.11,1.11,0,0,1-.4.3,1.18,1.18,0,0,1-.5.1,1.14,1.14,0,0,1-.44-.08A1.08,1.08,0,0,1,107.76,68Z" style="fill: #aaa"/>
    <path d="M110,68.34V66.12h.4V67h.5l.8-.89h.48l-.93,1,1,1.17h-.5l-.85-1h-.5v1Z" style="fill: #aaa"/>
    <path d="M112.6,68.34V66.12h.35v1.71h0l1.18-1.71h.4v2.23h-.35V66.63h0L113,68.34Z" style="fill: #aaa"/>
    <path d="M115.18,68.34V66.07h.35v1.75h0l1.18-1.75h.4v2.27h-.35V66.59h0l-1.18,1.75Zm.32-3.18h.33a.26.26,0,0,0,0,.11.25.25,0,0,0,.06.09.45.45,0,0,0,.5,0,.25.25,0,0,0,.08-.2h.33a.53.53,0,0,1,0,.23.52.52,0,0,1-.13.18.82.82,0,0,1-1,0,.52.52,0,0,1-.13-.18.54.54,0,0,1,0-.22Z" style="fill: #aaa"/>
    <path d="M90.67,72.16V69.93H91v1.71h0l1.18-1.71h.4v2.23h-.35V70.44h0l-1.18,1.71Z" style="fill: #aaa"/>
    <path d="M93.25,72.16V69.93h.35v.91h1.24v-.91h.35v2.23h-.35v-1H93.6v1Z" style="fill: #aaa"/>
    <path d="M95.83,72.16V69.93h.35v.91h1.24v-.91h.35v2.23h-.35v-1H96.18v1Z" style="fill: #aaa"/>
    <path d="M98.73,71.85a1.06,1.06,0,0,1-.24-.36,1,1,0,0,1-.08-.42,1.07,1.07,0,0,1,.08-.43,1.1,1.1,0,0,1,.24-.37A1.13,1.13,0,0,1,99.1,70a1.15,1.15,0,0,1,.88,0,1.13,1.13,0,0,1,.37.25,1.1,1.1,0,0,1,.24.37,1.08,1.08,0,0,1,.08.43,1.1,1.1,0,0,1-.2.6,1.14,1.14,0,0,1-.51.4,1.17,1.17,0,0,1-.65.07A1.16,1.16,0,0,1,98.73,71.85ZM99,70.5a.77.77,0,0,0-.17.26.89.89,0,0,0,0,.6.77.77,0,0,0,.17.26.82.82,0,0,0,1.12,0,.76.76,0,0,0,.17-.26.89.89,0,0,0,0-.6.76.76,0,0,0-.17-.26.82.82,0,0,0-1.12,0Z" style="fill: #aaa"/>
    <path d="M101.31,72.16V69.93h1.14a.78.78,0,0,1,.51.16.51.51,0,0,1,.14.18.49.49,0,0,1,0,.22.61.61,0,0,1,0,.2.41.41,0,0,1-.18.23l-.09,0h0l.11,0,.12.09a.44.44,0,0,1,.1.16.56.56,0,0,1,0,.23.58.58,0,0,1,0,.26A.6.6,0,0,1,103,72a.87.87,0,0,1-.58.18Zm.37-1.31h.75c.23,0,.35-.1.35-.29s-.11-.29-.35-.29h-.75Zm0,1h.77a.48.48,0,0,0,.31-.09.35.35,0,0,0,.08-.11.33.33,0,0,0,0-.26.35.35,0,0,0-.08-.11.48.48,0,0,0-.31-.09h-.77Z" style="fill: #aaa"/>
    <path d="M103.89,71.84a1.15,1.15,0,0,1,0-1.59,1,1,0,0,1,.35-.24,1.07,1.07,0,0,1,.42-.08,1,1,0,0,1,.48.1.82.82,0,0,1,.29.23l0,.06V70h.36v2.15h-.36v-.35l0,.06a.78.78,0,0,1-.28.22,1,1,0,0,1-.49.11,1.07,1.07,0,0,1-.42-.08A1,1,0,0,1,103.89,71.84Zm.27-1.37a.84.84,0,0,0,0,1.13.77.77,0,0,0,.25.17.8.8,0,0,0,.6,0,.76.76,0,0,0,.25-.17.84.84,0,0,0,0-1.13.76.76,0,0,0-.25-.17.8.8,0,0,0-.6,0A.77.77,0,0,0,104.15,70.47Z" style="fill: #aaa"/>
    <path d="M106.47,72.26V69.93h.37v2H108v-2h.37v2h.32v.88h-.37v-.53Z" style="fill: #aaa"/>
    <path d="M109,72.16V69.93h.35v1.71h0l1.18-1.71h.4v2.23h-.35V70.44h0l-1.18,1.71Z" style="fill: #aaa"/>
    <path d="M111.95,71.85a1.07,1.07,0,0,1-.24-.36,1.05,1.05,0,0,1-.08-.42,1.08,1.08,0,0,1,.08-.43,1.1,1.1,0,0,1,.24-.37,1.13,1.13,0,0,1,.37-.25,1.15,1.15,0,0,1,.88,0,1.13,1.13,0,0,1,.37.25,1.1,1.1,0,0,1,.24.37,1.07,1.07,0,0,1,.08.43,1.1,1.1,0,0,1-.2.6,1.14,1.14,0,0,1-.51.4,1.17,1.17,0,0,1-.65.07A1.16,1.16,0,0,1,111.95,71.85Zm.25-1.35a.76.76,0,0,0-.17.26.89.89,0,0,0,0,.6.76.76,0,0,0,.17.26.82.82,0,0,0,1.12,0,.76.76,0,0,0,.17-.26.89.89,0,0,0,0-.6.77.77,0,0,0-.17-.26.82.82,0,0,0-1.12,0Z" style="fill: #aaa"/>
    <path d="M114.53,72.16V69.93h.35v.91h1.24v-.91h.35v2.23h-.35v-1h-1.23v1Z" style="fill: #aaa"/>
    <path d="M117.11,72.16V69.93h.35v.91h1.24v-.91H119v2.23h-.35v-1h-1.24v1Z" style="fill: #aaa"/>
    <path d="M119.69,72.16V69.93h.38v.76h.58a1,1,0,0,1,.66.21.71.71,0,0,1,.19.24.65.65,0,0,1,0,.57.71.71,0,0,1-.19.24,1,1,0,0,1-.66.21Zm.38-.33h.58a.61.61,0,0,0,.39-.11.39.39,0,0,0,.1-.13.36.36,0,0,0,0-.32.39.39,0,0,0-.1-.13.62.62,0,0,0-.39-.12h-.58Zm1.81.33V69.93h.38v2.22Z" style="fill: #aaa"/>
    <path d="M122.91,72.16V69.89h.35v1.75h0l1.18-1.75h.4v2.27h-.35V70.41h0l-1.18,1.75Zm.32-3.18h.33a.26.26,0,0,0,0,.11.25.25,0,0,0,.06.09.44.44,0,0,0,.49,0,.25.25,0,0,0,.06-.09.25.25,0,0,0,0-.11h.33a.53.53,0,0,1,0,.23.52.52,0,0,1-.13.19.81.81,0,0,1-1,0,.52.52,0,0,1-.13-.19A.53.53,0,0,1,123.23,69Z" style="fill: #aaa"/>
    <path d="M90.67,76V73.75H91v.89h.43l.69-.89h.41l-.8,1L92.6,76h-.43l-.73-1H91v1Z" style="fill: #aaa"/>
    <path d="M92.6,76l.64-2.23h1L94.86,76h-.4l-.53-1.89h-.41L93,76Z" style="fill: #aaa"/>
    <path d="M95.5,75.65a1.15,1.15,0,0,1,0-1.59,1,1,0,0,1,.35-.24,1.07,1.07,0,0,1,.42-.08,1,1,0,0,1,.48.1.86.86,0,0,1,.29.23l0,.06v-.36h.36v2.15h-.36v-.34l0,.06a.79.79,0,0,1-.28.22,1.06,1.06,0,0,1-.49.1,1.07,1.07,0,0,1-.42-.08A1,1,0,0,1,95.5,75.65Zm.27-1.37a.85.85,0,0,0,0,1.14.77.77,0,0,0,.25.16.81.81,0,0,0,.6,0,.77.77,0,0,0,.25-.16.85.85,0,0,0,0-1.14.77.77,0,0,0-.25-.16.81.81,0,0,0-.6,0A.76.76,0,0,0,95.76,74.29Z" style="fill: #aaa"/>
    <path d="M98.41,75.65a1.12,1.12,0,0,1,0-1.59,1.17,1.17,0,0,1,.4-.24,1.24,1.24,0,0,1,.93,0,1.16,1.16,0,0,1,.38.27,1,1,0,0,1,.21.37H100a.7.7,0,0,0-.15-.22.78.78,0,0,0-.27-.16.82.82,0,0,0-.31,0,.77.77,0,0,0-.3.06.72.72,0,0,0-.25.17.77.77,0,0,0-.22.56.76.76,0,0,0,.23.56.73.73,0,0,0,.25.17.77.77,0,0,0,.3.06.81.81,0,0,0,.33-.05.76.76,0,0,0,.27-.18.66.66,0,0,0,.15-.23h.36a1,1,0,0,1-.21.4,1.12,1.12,0,0,1-.4.3,1.19,1.19,0,0,1-.5.1,1.15,1.15,0,0,1-.44-.08A1.09,1.09,0,0,1,98.41,75.65Z" style="fill: #aaa"/>
    <path d="M100.34,74.08v-.33h1.93v.33h-.79V76h-.36V74.08Z" style="fill: #aaa"/>
    <path d="M102.92,75.65a1.14,1.14,0,0,1,0-1.59,1.09,1.09,0,0,1,.37-.24,1.12,1.12,0,0,1,.44-.08,1.14,1.14,0,0,1,.44.08,1.11,1.11,0,0,1,.37.24,1.07,1.07,0,0,1,.24.36,1,1,0,0,1,.08.42V75H103a.76.76,0,0,0,.77.68.86.86,0,0,0,.56-.19.68.68,0,0,0,.17-.19h.35a1.09,1.09,0,0,1-.42.52,1.15,1.15,0,0,1-.66.19,1.12,1.12,0,0,1-.44-.08A1.09,1.09,0,0,1,102.92,75.65Zm0-1h1.52a.69.69,0,0,0-.24-.43.76.76,0,0,0-.51-.17.78.78,0,0,0-.51.17A.7.7,0,0,0,103,74.67Z" style="fill: #aaa"/>
    <path d="M105.5,76.93V73.8h.36v.36l0-.07a.78.78,0,0,1,.28-.23,1,1,0,0,1,.49-.11,1,1,0,0,1,.77.34,1.27,1.27,0,0,1,0,1.68,1.09,1.09,0,0,1-1.26.23.7.7,0,0,1-.27-.23l0-.06v1.23Zm.58-2.6a.94.94,0,0,0,0,1.21.76.76,0,0,0,1.1,0,.94.94,0,0,0,0-1.21.76.76,0,0,0-1.1,0Z" style="fill: #aaa"/>
    <g>
      <path d="M87.59,63.58V77.41H82.24V74.66a13.84,13.84,0,0,0,1.28-1.15A14.17,14.17,0,0,0,87.59,63.58Z" style="fill: #aaa"/>
      <path d="M79.07,63.58v6.71a8.39,8.39,0,0,1-2.59,1.45A14.19,14.19,0,0,0,79.07,63.58Z" style="fill: #aaa"/>
      <path d="M87.59,63.58a14.17,14.17,0,0,1-4.07,9.93,13.85,13.85,0,0,1-9.81,4.12v-3a13.77,13.77,0,0,1-8.52,3V72.22a8.48,8.48,0,0,0,6-2.54,8.71,8.71,0,0,0,2.5-6.1h5.35a14.19,14.19,0,0,1-2.59,8.17,8.39,8.39,0,0,0,2.59-1.45,8,8,0,0,0,.67-.61,8.71,8.71,0,0,0,2.5-6.1Z" style="fill: #aaa;opacity: 0.6000000000000001"/>
      <polygon points="79.07 63.57 79.07 63.58 73.72 63.58 73.72 63.57 79.07 63.57" style="fill: #aaa"/>
      <polygon points="87.59 63.57 87.59 63.58 82.24 63.58 82.24 63.57 87.59 63.57" style="fill: #aaa"/>
    </g>
  </g>
  <g>
    <path d="M23.26,122.29a.7.7,0,0,0-.75-.6c-.34,0-.86.24-.86,1.2,0,.61.26,1.17.86,1.17a.74.74,0,0,0,.75-.65H24a1.41,1.41,0,0,1-1.48,1.25c-.9,0-1.55-.61-1.55-1.78s.68-1.79,1.56-1.79a1.35,1.35,0,0,1,1.47,1.2h-.71Z" style="fill: #aaa"/>
    <path d="M24.83,123l.83-1h.81l-.88,1,.91,1.55h-.79l-.6-1.08-.27.29v.8h-.66v-2.52h.66v1Z" style="fill: #aaa"/>
    <path d="M28.91,123.32A1.29,1.29,0,1,1,27.63,122a1.23,1.23,0,0,1,1.28,1.32m-1.89,0c0,.32.1.77.61.77s.6-.44.6-.77-.09-.77-.6-.77-.61.44-.61.76" style="fill: #aaa"/>
    <path d="M31.4,122.06v2.52h-.66v-2H30v.78c0,1-.29,1.27-.75,1.27a1.43,1.43,0,0,1-.4-.06v-.49l.2,0c.2,0,.3-.1.3-.87v-1.18h2Z" style="fill: #aaa"/>
    <path d="M32.39,123l.83-1H34l-.89,1,.91,1.55h-.79l-.6-1.08-.28.29v.8h-.66v-2.52h.66Z" style="fill: #aaa"/>
    <path d="M36.48,123.32A1.29,1.29,0,1,1,35.2,122a1.23,1.23,0,0,1,1.28,1.32m-1.89,0c0,.32.1.77.61.77s.61-.44.61-.77-.1-.77-.61-.77-.61.44-.61.76" style="fill: #aaa"/>
    <path d="M36.69,122.06h1.14c.56,0,1,.23,1,.65a.56.56,0,0,1-.47.54.63.63,0,0,1,.54.64c0,.47-.35.69-.92.69H36.69Zm.66,1h.43c.22,0,.37-.09.37-.29s-.15-.28-.37-.28h-.44Zm0,1h.49c.24,0,.4-.08.4-.32s-.16-.32-.4-.32h-.48Z" style="fill: #aaa"/>
    <path d="M41.52,123.32A1.29,1.29,0,1,1,40.24,122a1.23,1.23,0,0,1,1.28,1.32m-1.89,0c0,.32.1.77.61.77s.6-.44.6-.77-.09-.77-.6-.77-.61.44-.61.76" style="fill: #aaa"/>
    <path d="M25.74,120.52a5.36,5.36,0,0,0,3-.85v.57h2.09v-2.52l.87-.9,1.9,3.43H36.1l-2.88-4.89,2.8-3.09H33.46l-2.64,3v-5.81H28.73v.92a4.26,4.26,0,0,0-3.28-1.2c-3.49,0-4.14,2.12-4.14,3.31a2.77,2.77,0,0,0,2.4,2.91l2.17.53c1.14.28,2,.49,2,1.33,0,1.13-1.19,1.39-2.26,1.39-2,0-2.28-1.14-2.28-1.75H21.14c0,1.33.68,3.6,4.6,3.6m1.42-6.42-2.62-.64c-.45-.1-1.14-.28-1.14-1.13s1-1.29,1.88-1.29c2,0,2.14,1.14,2.19,1.63h1.25v2a6,6,0,0,0-1.56-.58" style="fill: #aaa"/>
  </g>
  <g>
    <g>
      <path d="M78.78,18.5v-.69h.13c.13-.09.17-.24.18-.49l.06-1.05h1.33v1.54h.23v.69h-.35v-.37H79.13v.37Zm.55-.71v0h.77V16.59h-.6l0,.76A.76.76,0,0,1,79.33,17.79Z" style="fill: #aaa"/>
      <path d="M81,16.27h1.23v.32h-.84V17h.79v.3h-.79v.47h.84v.32H81Z" style="fill: #aaa"/>
      <path d="M83.91,18.13V16.59h-.83v1.54h-.39V16.27H84.3v1.86Z" style="fill: #aaa"/>
      <path d="M85.28,16.27h.46l.65,1.86H86l-.14-.45h-.65l-.14.45h-.41Zm0,1.12h.48l-.23-.75h0Z" style="fill: #aaa"/>
      <path d="M86.71,16.27h.77a.61.61,0,0,1,.65.63h0a.61.61,0,0,1-.65.63H87.1v.59h-.39Zm.39.31v.66h.28a.31.31,0,0,0,.35-.33h0a.31.31,0,0,0-.35-.33Z" style="fill: #aaa"/>
      <path d="M88.91,16.59h-.56v-.32h1.5v.32h-.56v1.54h-.39Z" style="fill: #aaa"/>
      <path d="M90.54,16.27H91l.65,1.86h-.41l-.14-.45h-.65l-.14.45h-.41Zm0,1.12H91l-.23-.75h0Z" style="fill: #aaa"/>
      <path d="M92,16.27h.45l.51,1.36h0l.51-1.36h.45v1.86h-.35V16.87h0l-.48,1.26h-.24l-.48-1.26h0v1.26H92Z" style="fill: #aaa"/>
      <path d="M94.37,16.27H95.6v.32h-.84V17h.79v.3h-.79v.47h.84v.32H94.37Z" style="fill: #aaa"/>
      <path d="M96,16.27h.39V17h.84v-.75h.39v1.86h-.39v-.78h-.84v.78H96Z" style="fill: #aaa"/>
      <path d="M98.56,16.59H98v-.32h1.5v.32h-.56v1.54h-.39Z" style="fill: #aaa"/>
      <path d="M80.19,21.28V19.74h-.83v1.54H79V19.42h1.61v1.86Z" style="fill: #aaa"/>
      <path d="M81,19.42h.77a.61.61,0,0,1,.65.63h0a.61.61,0,0,1-.65.63h-.38v.59H81Zm.39.31v.66h.28a.31.31,0,0,0,.35-.33h0a.31.31,0,0,0-.35-.33Z" style="fill: #aaa"/>
      <path d="M82.83,19.42h1.23v.32h-.84v.45H84v.3h-.79V21h.84v.32H82.83Z" style="fill: #aaa"/>
      <path d="M84.3,21.64V21h.13c.13-.09.17-.24.18-.49l.06-1.05H86V21h.23v.69h-.35v-.37H84.65v.37Zm.55-.71v0h.77V19.74H85l0,.76A.75.75,0,0,1,84.85,20.93Z" style="fill: #aaa"/>
      <path d="M87.78,21.28V19.74h-.83v1.54h-.39V19.42h1.61v1.86Z" style="fill: #aaa"/>
      <path d="M88.63,19.42h.77a.61.61,0,0,1,.65.63h0a.61.61,0,0,1-.65.63H89v.59h-.39Zm.39.31v.66h.28a.31.31,0,0,0,.35-.33h0a.31.31,0,0,0-.35-.33Z" style="fill: #aaa"/>
      <path d="M90.42,19.42h.39v1.24h0l.84-1.24H92v1.86h-.39V20h0l-.84,1.24h-.37Z" style="fill: #aaa"/>
      <path d="M92.5,19.42h.39v.75h.84v-.75h.39v1.86h-.39v-.78h-.84v.78H92.5Z" style="fill: #aaa"/>
      <path d="M94.58,19.42H95v1.24h0l.84-1.24h.37v1.86h-.39V20h0L95,21.28h-.37Z" style="fill: #aaa"/>
      <path d="M96.67,19.42h.45l.51,1.36h0l.51-1.36h.44v1.86h-.35V20h0l-.48,1.26h-.24L97,20h0v1.26h-.35Z" style="fill: #aaa"/>
      <path d="M99.58,19.42H100l.65,1.86h-.41l-.14-.45h-.65l-.14.45h-.41Zm0,1.12H100l-.23-.75h0Z" style="fill: #aaa"/>
      <path d="M101.28,19.74h-.56v-.32h1.5v.32h-.56v1.54h-.39Z" style="fill: #aaa"/>
      <path d="M102.58,19.42h1.23v.32H103v.45h.79v.3H103V21h.84v.32h-1.23Z" style="fill: #aaa"/>
      <path d="M104.05,21.28v-.34h.09c.19,0,.23-.18.25-.43l.06-1.1h1.29v1.86h-.39V19.74h-.56l0,.8c0,.46-.16.75-.55.75Z" style="fill: #aaa"/>
      <path d="M106.15,19.42h.39V20h.36a.61.61,0,0,1,.66.62h0a.6.6,0,0,1-.64.62h-.77Zm.39.93V21h.28c.22,0,.35-.11.35-.31h0c0-.2-.13-.31-.35-.31Z" style="fill: #aaa"/>
      <path d="M107.9,20.35h0a.86.86,0,0,1,.87-1,.76.76,0,0,1,.81.67v0h-.38a.42.42,0,0,0-.43-.35c-.29,0-.47.25-.47.65h0c0,.4.18.65.48.65a.41.41,0,0,0,.43-.33h.38a.75.75,0,0,1-.81.65A.86.86,0,0,1,107.9,20.35Z" style="fill: #aaa"/>
      <path d="M110.33,19.74h-.56v-.32h1.5v.32h-.56v1.54h-.39Z" style="fill: #aaa"/>
      <path d="M111.63,19.42h.81c.36,0,.58.18.58.46h0a.4.4,0,0,1-.34.4v0a.44.44,0,0,1,.42.44h0c0,.33-.25.53-.64.53h-.83Zm.39.29v.48h.29c.21,0,.32-.09.32-.24h0c0-.15-.11-.24-.29-.24Zm0,.74V21h.35c.23,0,.35-.09.35-.27h0c0-.17-.13-.27-.35-.27Z" style="fill: #aaa"/>
      <path d="M114,19.42h.46l.65,1.86h-.41l-.14-.45h-.65l-.14.45h-.41Zm0,1.12h.48l-.23-.75h0Z" style="fill: #aaa"/>
      <path d="M79,22.56h.39V23.8h0l.84-1.24h.37v1.86H80.2V23.18h0l-.84,1.24H79Z" style="fill: #aaa"/>
      <path d="M81.73,22.56h.39V23.8h0L83,22.56h.37v1.86H83V23.18h0l-.84,1.24h-.37Z" style="fill: #aaa"/>
      <path d="M83.81,22.56h.39v.75H85v-.75h.39v1.86H85v-.78H84.2v.78h-.39Z" style="fill: #aaa"/>
      <path d="M85.89,22.56h.39v.75h.84v-.75h.39v1.86h-.39v-.78h-.84v.78h-.39Z" style="fill: #aaa"/>
      <path d="M87.89,23.49h0a.9.9,0,1,1,1.79,0h0a.9.9,0,1,1-1.79,0Zm1.39,0h0c0-.39-.2-.65-.5-.65s-.5.25-.5.65h0c0,.39.19.65.5.65S89.28,23.88,89.28,23.49Z" style="fill: #aaa"/>
      <path d="M90.06,22.56h.81c.36,0,.58.18.58.46h0a.4.4,0,0,1-.34.4v0a.44.44,0,0,1,.43.44h0c0,.33-.25.53-.64.53h-.83Zm.39.29v.48h.29c.21,0,.32-.09.32-.24h0c0-.15-.11-.24-.29-.24Zm0,.74v.54h.35c.22,0,.34-.09.34-.27h0c0-.17-.13-.26-.35-.26Z" style="fill: #aaa"/>
      <path d="M92.39,22.56h.46l.65,1.86h-.41L92.95,24h-.65l-.14.45h-.41Zm0,1.12h.48l-.23-.75h0Z" style="fill: #aaa"/>
      <path d="M95.32,24.42H93.83V22.56h.39V24.1H95V22.56h.39V24.1h.23v.69h-.35Z" style="fill: #aaa"/>
      <path d="M96,22.56h.39V23.8h0l.84-1.24h.37v1.86h-.39V23.18h0l-.84,1.24H96Z" style="fill: #aaa"/>
      <path d="M98,23.49h0a.9.9,0,1,1,1.79,0h0a.9.9,0,1,1-1.79,0Zm1.39,0h0c0-.39-.2-.65-.5-.65s-.5.25-.5.65h0c0,.39.19.65.5.65S99.38,23.88,99.38,23.49Z" style="fill: #aaa"/>
      <path d="M100.15,22.56h.39v.75h.84v-.75h.39v1.86h-.39v-.78h-.84v.78h-.39Z" style="fill: #aaa"/>
      <path d="M102.23,22.56h.39v.75h.84v-.75h.39v1.86h-.39v-.78h-.84v.78h-.39Z" style="fill: #aaa"/>
      <path d="M104.23,23.49h0a.9.9,0,1,1,1.79,0h0a.9.9,0,1,1-1.79,0Zm1.39,0h0c0-.39-.2-.65-.5-.65s-.5.25-.5.65h0c0,.39.19.65.5.65S105.62,23.88,105.62,23.49Z" style="fill: #aaa"/>
      <path d="M106.4,24.42V22.56h1.2v.32h-.81v1.54Z" style="fill: #aaa"/>
      <path d="M107.81,23.49h0a.9.9,0,1,1,1.79,0h0a.9.9,0,1,1-1.79,0Zm1.39,0h0c0-.39-.2-.65-.5-.65s-.5.25-.5.65h0c0,.39.19.65.5.65S109.2,23.88,109.2,23.49Z" style="fill: #aaa"/>
      <path d="M110.65,22.56h.77a.61.61,0,0,1,.65.63h0a.61.61,0,0,1-.65.63H111v.59h-.39Zm.39.31v.66h.28a.31.31,0,0,0,.35-.33h0a.31.31,0,0,0-.35-.33Z" style="fill: #aaa"/>
      <path d="M112.8,22.56h.46l.65,1.86h-.41l-.14-.45h-.65l-.14.45h-.41Zm0,1.12h.48l-.23-.75h0Z" style="fill: #aaa"/>
      <path d="M114.57,23.32h.25c.19,0,.31-.1.31-.26h0c0-.14-.11-.23-.31-.23s-.32.09-.33.24h-.36c0-.34.29-.55.7-.55s.67.2.67.5h0a.43.43,0,0,1-.35.42v0a.43.43,0,0,1,.41.44h0c0,.33-.32.56-.74.56s-.72-.23-.73-.57h.38c0,.15.15.25.36.25s.34-.1.34-.26h0c0-.15-.13-.25-.35-.25h-.25Z" style="fill: #aaa"/>
      <path d="M115.94,22.56h.81c.36,0,.58.18.58.46h0a.4.4,0,0,1-.34.4v0a.44.44,0,0,1,.43.44h0c0,.33-.25.53-.64.53h-.83Zm.39.29v.48h.29c.21,0,.32-.09.32-.24h0c0-.15-.11-.24-.29-.24Zm0,.74v.54h.35c.22,0,.34-.09.34-.27h0c0-.17-.13-.26-.35-.26Z" style="fill: #aaa"/>
      <path d="M117.78,22.56h.39V23.8h0l.84-1.24h.37v1.86H119V23.18h0l-.84,1.24h-.37Z" style="fill: #aaa"/>
      <path d="M120.31,22.88h-.56v-.32h1.5v.32h-.56v1.54h-.39Z" style="fill: #aaa"/>
      <path d="M121.62,22.56H122V23.8h0l.84-1.24h.37v1.86h-.39V23.18h0L122,24.42h-.37Z" style="fill: #aaa"/>
      <path d="M124.71,24.42v-.67h-.26l-.44.67h-.43l.49-.72a.55.55,0,0,1-.4-.53h0a.6.6,0,0,1,.67-.6h.75v1.86Zm0-1.55h-.31c-.21,0-.33.11-.33.29h0c0,.19.12.3.33.3h.31Z" style="fill: #aaa"/>
      <path d="M79,27.57V25.71h1.1v.21h-.87v1.65Z" style="fill: #aaa"/>
      <path d="M80.3,26.64h0c0-.6.33-1,.85-1s.85.38.85,1h0c0,.59-.32,1-.85,1S80.3,27.23,80.3,26.64Zm1.47,0h0c0-.46-.24-.76-.62-.76s-.62.29-.62.76h0c0,.46.23.76.62.76S81.77,27.1,81.77,26.64Z" style="fill: #aaa"/>
      <path d="M82.42,25.71h.7a.57.57,0,0,1,.6.59h0a.57.57,0,0,1-.6.6h-.47v.66h-.23Zm.23.21v.78h.41a.37.37,0,0,0,.42-.39h0a.37.37,0,0,0-.42-.39Z" style="fill: #aaa"/>
      <path d="M84,26.64h0c0-.6.33-1,.85-1s.85.38.85,1h0c0,.59-.32,1-.85,1S84,27.23,84,26.64Zm1.47,0h0c0-.46-.24-.76-.62-.76s-.62.29-.62.76h0c0,.46.23.76.62.76S85.51,27.1,85.51,26.64Z" style="fill: #aaa"/>
      <path d="M85.91,27.93v-.58H86c.14-.07.19-.24.2-.48l.07-1.17h1.18v1.65h.23v.58h-.21v-.37H86.12v.37Zm.43-.59h.93V25.92h-.74l-.06,1A.75.75,0,0,1,86.34,27.34Z" style="fill: #aaa"/>
      <path d="M88.59,25.71h.23l.69,1.86h-.24L89.07,27h-.74l-.19.53h-.24Zm-.19,1.13H89L88.71,26h0Z" style="fill: #aaa"/>
      <path d="M90.58,25.71h.27l.64,1.55h0l.64-1.55h.27v1.86H92.2V26.15h0l-.59,1.42h-.2l-.59-1.42h0v1.42h-.22Z" style="fill: #aaa"/>
      <path d="M92.83,26.64h0c0-.6.33-1,.85-1s.85.38.85,1h0c0,.59-.32,1-.85,1S92.83,27.23,92.83,26.64Zm1.47,0h0c0-.46-.24-.76-.62-.76s-.62.29-.62.76h0c0,.46.23.76.62.76S94.29,27.1,94.29,26.64Z" style="fill: #aaa"/>
      <path d="M94.88,26.64h0c0-.6.31-1,.82-1a.72.72,0,0,1,.75.6h-.24a.51.51,0,0,0-.52-.39c-.36,0-.58.29-.58.76h0c0,.46.22.76.58.76a.49.49,0,0,0,.51-.35h.24a.71.71,0,0,1-.75.56C95.19,27.61,94.88,27.24,94.88,26.64Z" style="fill: #aaa"/>
      <path d="M96.85,27.57V25.71h.23v.82h.07l.77-.82h.29l-.86.89.93,1H98l-.83-.86h-.07v.86Z" style="fill: #aaa"/>
      <path d="M98.6,25.71h.71c.34,0,.55.18.55.46h0a.41.41,0,0,1-.32.4v0A.44.44,0,0,1,100,27h0c0,.33-.23.52-.63.52H98.6Zm.23.2v.6h.37c.28,0,.42-.1.42-.3h0c0-.19-.13-.3-.36-.3Zm0,.8v.65h.46c.28,0,.43-.11.43-.33h0c0-.21-.15-.32-.45-.32Z" style="fill: #aaa"/>
      <path d="M100.35,25.71h.23v.69H101a.57.57,0,0,1,.6.58h0a.56.56,0,0,1-.59.58h-.69Zm.23.9v.75h.4c.27,0,.42-.13.42-.37h0c0-.24-.15-.38-.42-.38Zm1.4-.9h.23v1.86H102Z" style="fill: #aaa"/>
    </g>
    <g>
      <g>
        <path d="M70.56,17.33l.11,0a.14.14,0,0,1,.16.13c0,.12,0,.19-.09.23l-.05,0a.35.35,0,0,0,0,.12.49.49,0,0,1,.09.41c0,.14,0,.28,0,.41a.23.23,0,0,0,0,.06l.11-.08a.49.49,0,0,1,.44-.1,1.93,1.93,0,0,0,.5,0s.05,0,0-.07l-.09-.14.18,0c.08,0,.13,0,.13-.12a3.18,3.18,0,0,1,.25.21.13.13,0,0,0,.15,0,.35.35,0,0,1,.45.24h-.07a3,3,0,0,0,.37.67.52.52,0,0,0,.17.15.13.13,0,0,1,.08.12,1.39,1.39,0,0,1,0,.17.17.17,0,0,1-.06.11s-.07,0-.1,0l-.08-.06,0,.12a.52.52,0,0,1-.14,0,1.26,1.26,0,0,1-.17-.12.69.69,0,0,0-.41-.1c-.07,0-.08,0-.07.1a1.94,1.94,0,0,0,.09.26c.08.19.16.38.25.57a1.32,1.32,0,0,0,.15.21c.11.14.23.27.32.42a.83.83,0,0,1,.09.27c0,.11,0,.13.14.08a3.82,3.82,0,0,0,.37-.27c.09-.08.17-.08.22,0a2.15,2.15,0,0,0,.51.7.29.29,0,0,1,.08.2c0,.12,0,.23.06.35a2.65,2.65,0,0,1,0,.32c0,.06,0,.06-.08,0l-.23-.18c-.07-.06,0-.13,0-.18a.22.22,0,0,0,0-.3l-.06-.07s-.07-.06-.06-.08-.09-.19-.15-.26a1,1,0,0,0-.19-.17s-.08,0-.09,0l-.54.51,0,0a1.54,1.54,0,0,0,.23,0,.18.18,0,0,1,.23.1,2.13,2.13,0,0,0,.45.68.26.26,0,0,1,.05.17,1.1,1.1,0,0,0,.1.44,1.46,1.46,0,0,1,.07.31c0,.06,0,.09-.07.06L74.27,24a.1.1,0,0,1,0-.15.52.52,0,0,0,0-.11.27.27,0,0,0-.07-.32c-.07-.06-.12-.12-.08-.23s0-.09-.06-.13l-.27-.26a.13.13,0,0,0-.17,0l-.55.22a2.09,2.09,0,0,1-.91.24l.28.36v0l.06,0-.08.05,0-.06L70.94,21.6l-2.18-2.9a.93.93,0,0,0-.16-.16.09.09,0,0,0-.09,0s0,.07,0,.09a.52.52,0,0,0,.08.09c-.05.05-.05.14,0,.27l0-.1h0v.18h0l0-.05h0l0,.12.05-.08,0,.14,0-.1,0,.21h0l0-.18,3.6,4.71h0l0-.28s.05,0,.1,0,.17,0,.21.1a2.06,2.06,0,0,0,.09.22.24.24,0,0,0,.17.12.32.32,0,0,1,.18.18,1.7,1.7,0,0,0,.24.43c.09.11.08.13-.06.17,0,.08,0,.14-.1.15s0,0,0,.06a.48.48,0,0,1-.17.4l-.42.43-.1.07s0,.06,0,.1a.15.15,0,0,0,.21,0,.41.41,0,0,1,.4,0,.42.42,0,0,1,.17.15s0,.07,0,.11-.07-.09-.1-.1a.4.4,0,0,0-.13,0c0,.19,0,.21,0,.28a.16.16,0,0,0-.21-.11c-.11,0,0,.12,0,.17h0a.38.38,0,0,0-.45-.09.37.37,0,0,1-.38,0,.63.63,0,0,0-.46.12l0,0c-.08-.1,0-.24.13-.3l.14,0s0,0,0,0a.09.09,0,0,0,0-.06c-.08,0-.08,0-.06-.13a.33.33,0,0,0-.34,0c-.1.08-.1.08-.16,0h0L71,26l-.14,0a.54.54,0,0,1-.36-.1.13.13,0,0,0-.2,0c0,.06,0,.13.05.19s.16.13.27,0,.07,0,.1,0l.07,0c.08,0,.09,0,.08.13s-.08,0-.12,0a.4.4,0,0,0-.16.06c.21.09.24.13.16.26,0-.1-.05-.07-.11-.07a1.29,1.29,0,0,1-.32,0,.38.38,0,0,0-.27,0l.05.17-.17,0-.12-.05s-.07-.06-.13,0-.08,0-.1,0a.25.25,0,0,0-.12-.06.32.32,0,0,0-.32.05.1.1,0,0,1-.1,0c-.09-.06-.15,0-.21.05h0a.84.84,0,0,1,.08-.15.94.94,0,0,1,.17-.16.23.23,0,0,1,.12,0h.23c.1,0,.12-.08.06-.15l-.1-.1a.11.11,0,0,1,0-.17,1,1,0,0,1,.13-.15c.08-.07.08-.11,0-.2a.22.22,0,0,1,0-.13c0-.06,0-.09-.07-.09H69.2c0,.13,0,.24.05.35a.3.3,0,0,1-.16.29.64.64,0,0,1-.58.1.43.43,0,0,1-.31-.43c0-.08,0-.17,0-.25s0-.07-.05-.08l-.54-.08a.32.32,0,0,0,0,.29l.28.48A.73.73,0,0,1,68,26a.9.9,0,0,1-.43,0,.11.11,0,0,1,0-.08.45.45,0,0,1,0-.16.4.4,0,0,0-.12-.43c-.12-.12-.12-.13,0-.26s.05-.1,0-.16a.68.68,0,0,1-.15-.85c.06-.13.14-.26.21-.39a.5.5,0,0,0,0-.52l-.06-.07c-.15.14-.33.21-.42.41a1.5,1.5,0,0,0-.15.56l0-.08a1.47,1.47,0,0,1-.13-.7.41.41,0,0,1,.12-.24,1.21,1.21,0,0,0,.15-.24c0-.06,0-.1-.06-.14a1.89,1.89,0,0,1-.31-.2.31.31,0,0,1-.06-.38.28.28,0,0,1,.3-.2c.1,0,.1,0,.08-.15.11,0,.15.23.09.41L66.74,22l0,0c-.14,0-.22,0-.24.16a.28.28,0,0,0,.15.3l.22.11a1.52,1.52,0,0,1,.24-.66,1.76,1.76,0,0,1,.37-.4.69.69,0,0,1,.72,0c.14.06.26.15.39.23a.17.17,0,0,0,.11,0l.5-.11s.07,0,.07,0a.12.12,0,0,0,0-.08.1.1,0,0,1-.07-.1s0,0-.06-.05a.78.78,0,0,1-.15-.07A1.3,1.3,0,0,0,67.61,21l-.11,0,0,0c0-.05,0-.11.07-.16s.16-.15.14-.27,0,0,.05-.06l.17-.17a.15.15,0,0,0,0-.18c-.1-.2,0-.32.17-.39l.28-.1a.24.24,0,0,0,.12-.09.19.19,0,0,0,0-.14s-.07,0-.1,0l-.25,0a.21.21,0,0,1,0-.07l.26-.3s.05-.06,0-.09,0-.2,0-.29v0l-.28-.33a.18.18,0,0,1-.06-.18.28.28,0,0,0-.05-.18c-.1-.15-.22-.29-.32-.44a.29.29,0,0,1,0-.08.19.19,0,0,1,0-.07l.06,0c-.08,0,0,0,0,.07l.33.43.07.08c.09,0,0-.09,0-.13s.06.05.09.05.22.14.28.26a.15.15,0,0,0,.07.07.22.22,0,0,1,.16.22c0,.11.08.17.15.24s.08,0,.1,0l.24-.17a.21.21,0,0,1,.32,0l-.13,0a.21.21,0,0,0-.22.11c.16,0,.32,0,.43.09l0,0,.17.09a1.29,1.29,0,0,0,.17.09.46.46,0,0,0,.14,0l-.6-.34h.11a.43.43,0,0,1,.13,0c.18.06.25,0,.27-.18a1.1,1.1,0,0,1,0-.23,2.11,2.11,0,0,1,.12-.26l.05-.11a1,1,0,0,1-.7-.06v0l.19,0c-.09-.08-.2-.12-.26-.26l.1,0a.5.5,0,0,0,.5,0l.17-.11a.22.22,0,0,1,.29,0,.29.29,0,0,0-.33,0l-.13.08a.56.56,0,0,1-.35.09l-.19,0a.35.35,0,0,0,.31.14v0l-.23.09.05,0a.33.33,0,0,0,.36-.12.37.37,0,0,1,.27-.16c.12,0,.21,0,.26.13l.06,0,.12,0s0-.1,0-.15a.11.11,0,0,0-.14-.09v.09ZM70,22.06h0l0-.2h0a2.18,2.18,0,0,0-.05.82,2.45,2.45,0,0,1,0-.83,2.22,2.22,0,0,0-.1.85,2.63,2.63,0,0,1,0-.86,1.92,1.92,0,0,0-.11.86,2.24,2.24,0,0,1,0-.87.33.33,0,0,0,0,.1,2.32,2.32,0,0,0-.06.7c0,.17,0,.17.17.15h0l.44,0s.1,0,0-.07,0-.09,0-.14c0-.21,0-.42,0-.63h0l0,.65v-.68a3.73,3.73,0,0,0-.08.76v-.76h0v.76h0v-.77a4.84,4.84,0,0,0-.06.77v-.76a2.46,2.46,0,0,0-.06.77v-.78L70,22Zm1.49-1.86h0l.14.32-.1-.1h0l.11.22h0l-.1-.13h0l.1.22h0l-.09-.1h0l.09.22h0l-.12-.15h0l.12.25,0,0-.12-.14h0l.13.22h0l-.12-.1h0l.07.14h0l-.12-.1h0l.13.21-.08,0-.07,0c0,.13,0,.14.17.15l.45.05a5.86,5.86,0,0,0,1,.09l-.08-.15.15,0-.15-.24.15,0-.14-.2h.1l-.11-.15.12,0-.06-.18-.38-1,0,0a.28.28,0,0,1-.1-.35.62.62,0,0,0,0-.07l.08.2,0-.08,0,.17h0l0-.05s.08.11.14.13a4.26,4.26,0,0,0,.43.12.17.17,0,0,0,.1,0c.08,0,.12,0,.15.06a.25.25,0,0,0,.06.09.32.32,0,0,0,.1,0l0-.12,0,0,0,.07h0s0-.08,0-.1,0-.11,0-.13a.45.45,0,0,1-.3-.31.44.44,0,0,0,0-.08c0-.07-.08-.11-.14,0l-.14-.12.12-.11,0,0a.41.41,0,0,1-.31-.22l0,0a1.5,1.5,0,0,0-.27,0,.43.43,0,0,0-.22.06s-.05.1-.07.15l0-.05,0,.2-.06-.1h0l0,.12h0l-.05-.11h0l0,.21L71.75,19l0,.2h0l-.07-.1h0l0,.2-.07-.08h0l0,.15h0l-.08-.1h0l.07.17h0l-.08-.09.05.19h0l-.07-.1h0l.07.2h0l-.09-.12h0l.09.25h0l-.09-.1h0l.12.24h0l-.1-.13h0l.11.25h0l-.1-.13h0l.15.34h0Zm-4.1,5h0a1.5,1.5,0,0,1,.12.16.46.46,0,0,1,.07.18c0,.13,0,.16.2.14l-.09-.16c0-.08-.12-.16-.12-.24a1.43,1.43,0,0,1,.12-.42,3.51,3.51,0,0,1,.19-.34s0-.08,0-.09,0-.08,0-.12l.06-.17.1,0,0,.07,0-.1,0,0,.05-.09,0,.09.06-.11,0,.09.07-.12,0,0,.06-.08,0,.06.1-.15V24l.08-.12V24l.08-.16,0,0,.08-.13,0,0,.1-.08.1,0,.32-.23c.07-.05.13-.12.2-.18l.11,0,.05.09,0-.11,0,.14h0l0-.13.05.11,0-.12,0,.08.06-.13,0,.1.05-.11,0,.07,0-.2-.61.08a.24.24,0,0,0-.13.07,1.76,1.76,0,0,1-.91.55h-.1l0,0,.15-.12,0,.07.09-.18v.13l.11-.19h0v.1h0l.06-.18h0v.12h0l.05-.17h0v.12l.08-.25h0v.13h0l0-.22h0v.14h0l.06-.25,0,.18h0l0-.23h0l0,.15h0c0-.33,0-.66.05-1,0,0,0,0-.06,0l-.36.05h0l.42-.1a1,1,0,0,0-.87.36.65.65,0,0,1,.24-.29.89.89,0,0,1,.53-.13l.13,0v0a1.17,1.17,0,0,0-.64.1,1,1,0,0,0-.41.52.7.7,0,0,1,.47-.6,2.61,2.61,0,0,1,.5-.07h.13s0,0,0,0a2.5,2.5,0,0,0-.46,0,1,1,0,0,0-.77,1c0,.28,0,.57,0,.85a.37.37,0,0,1-.16.29l-.2.13a.23.23,0,0,0-.11.19,1.43,1.43,0,0,1-.08.38C67.58,24.8,67.47,25,67.36,25.22Zm5.21-1.09a1.19,1.19,0,0,0-.09-.28c-.13-.19-.27-.37-.4-.55a.07.07,0,0,0-.12,0,3.45,3.45,0,0,1-1.55.44.33.33,0,0,0-.31.15,1.6,1.6,0,0,1-.34.34c-.22.18-.27.2,0,.47h0l.08,0,.33,0c.09,0,.11,0,.07-.11a.53.53,0,0,0-.26-.27l-.08,0v0l.21,0a2.44,2.44,0,0,0,.73.11.11.11,0,0,0,.09,0s0-.06,0-.09l0,0a.31.31,0,0,0-.07-.39h.06a1.66,1.66,0,0,1,.59.32.1.1,0,0,0,.15,0,.63.63,0,0,1,.49-.08.26.26,0,0,1,.19.37,1.43,1.43,0,0,0-.05.27s0,.09,0,.12a.58.58,0,0,0,0,.34.24.24,0,0,0,.19.19.7.7,0,0,0,.55-.32.13.13,0,0,0,0-.09s0-.08-.06-.13a1.84,1.84,0,0,0-.1-.24c-.08-.13-.16-.25-.25-.37l0,0s0,0,0,0h.06ZM73,22.7h0l.2.05-.07-.1.19,0v-.07l.17,0,0-.05a1,1,0,0,0,.18,0c.09,0,.11,0,.17,0l.13.12a.18.18,0,0,0,0-.23.21.21,0,0,0-.2-.09l-.86.07a.17.17,0,0,1-.12,0c-.07-.08-.13-.18-.19-.26l0,0,.09,0,0-.11.09,0,0-.11h.09l-.06-.13h.08c0-.08-.07-.09-.12-.1l-.62-.11-.42-.05h0l0,.09-.16-.09.07.11-.16-.1h0l.06.09h0l-.13-.11h0l.11.17h-.07l0,.11-.09,0,0,.08h-.06l.64.79v-.1l.21.19L72,22.66h0l.2.19-.06-.18.22.2v0l-.09-.14h0l.21.14v0l-.09-.12.24.15v0l-.09-.12h0l.23.14h0l-.1-.13.26.11v0ZM67.6,24.56h0c0-.14.06-.27.08-.41A.17.17,0,0,1,67.8,24c.1-.07.19-.15.28-.23a.28.28,0,0,0,.09-.23c0-.15,0-.3,0-.45s0-.38,0-.57a1.4,1.4,0,0,1,.19-.56c.05-.1,0-.12-.07-.13a.57.57,0,0,0-.48.18,1.43,1.43,0,0,0-.34.7.15.15,0,0,0,.05.15.65.65,0,0,1,.21.43,1.42,1.42,0,0,1-.1.64,2.52,2.52,0,0,0-.11.35A.25.25,0,0,0,67.6,24.56Zm.26-2.91a1.4,1.4,0,0,0-.51.86c0,.18,0,.39-.11.56a.41.41,0,0,0,.16-.27,1.65,1.65,0,0,1,.32-.81,1.68,1.68,0,0,1,.28-.24.37.37,0,0,1,.11,0l-.24.17v0l.08,0a.57.57,0,0,1,.39-.07h.09l.09,0s0-.06,0-.08a3.74,3.74,0,0,0-.35-.22.52.52,0,0,0-.21,0,.77.77,0,0,0-.6.28,1,1,0,0,0-.25.44l.14-.17h0a1.2,1.2,0,0,0-.19.57,1,1,0,0,1-.29.69.36.36,0,0,0,0,.37,1.07,1.07,0,0,1,.18-.23.92.92,0,0,0,.37-.73,1.24,1.24,0,0,1,.49-.91A.67.67,0,0,1,67.86,21.65Zm1.53,3a.53.53,0,0,0-.07-.1l-.16-.13c-.08-.05-.08-.09,0-.16l.2-.26a.21.21,0,0,0,0-.1s0-.07-.07,0l-.4.17-.7.25s-.09,0-.12.06-.15.22-.22.34a.5.5,0,0,0,.29.08l.07,0a.2.2,0,0,0,.18,0h.12a.31.31,0,0,0,.11,0c.18-.07.37-.09.54-.17A.66.66,0,0,1,69.38,24.65Zm-.5-3.91.14-.1h0l0,.1.18-.15,0,.12h0l.15-.18,0,.1.16-.26,0,0a1.48,1.48,0,0,1-.92.07.92.92,0,0,1,.19-.11c.11,0,.24,0,.32-.15s0,0,.07,0l0-.09,0,.06.07-.1c.07.08.09,0,.12,0l-.05-.09h-.11V19.9H69l0-.07-.23,0v0l-.24,0v0l-.1.05,0-.07c-.08,0-.15.08-.24,0s-.12,0-.18.06A.43.43,0,0,0,68,20s0,.19,0,.2l0-.06,0,0,0,0,0,0,0,0,.05.08v-.09l0,.06,0,0,0,.07,0-.08,0,.06,0-.07v.12l.06-.12,0,.09,0-.07,0,.1.07-.11,0,0,0,0,0,.07.15,0a.46.46,0,0,1-.14.12,1.64,1.64,0,0,1-.53.13,2.39,2.39,0,0,0-.39.12s-.08.08-.13.13l.09,0,.16-.08,0,.06.27,0v0l.17,0v0l.15,0v0h.2v.06l.09-.05Zm2.83,4.69,0,0-.19.31,0,0a1,1,0,0,0,.3-.38.29.29,0,0,0,0-.35.25.25,0,0,1-.07-.26.26.26,0,0,0,0-.12c0-.08,0-.16-.05-.24a.15.15,0,0,0-.17-.14l-.19,0a2.86,2.86,0,0,1-1,0h-.1v0c.07,0,.16.1.22.08s.17,0,.27,0,.11,0,.17,0,.13,0,.18,0h0v-.06l.12.07,0-.11.1.07v-.09l.08.09,0-.06h0l0,.32.06-.18a.35.35,0,0,1-.18.38l-.14.05a.92.92,0,0,0-.23.15c.22,0,.38-.14.56-.19l0,0-.11.14v0l-.32.18a.56.56,0,0,0,.23,0c.11,0,.22-.12.33-.18l0,.17h0l0,0-.06.17,0-.06,0,.19,0-.06v0l-.11.06v0l-.07.16A.76.76,0,0,0,71.72,25.43Zm-1.29-5.74,0,0s0,0,0,0,.06,0,.06,0a1.37,1.37,0,0,0,0-.32s-.08-.09-.14-.14l-.07.14-.08-.13-.07.13a.09.09,0,0,1,0,0l0-.08-.06,0,0,0s0,0,0-.06,0-.09,0-.09a.11.11,0,0,0-.09.05,1.81,1.81,0,0,0-.1.3c0,.11,0,.16.14.12l0,.12c.13,0,.05-.13.13-.14l.09.16.08-.11C70.32,19.79,70.32,19.79,70.43,19.69ZM69.53,23l.17,0,.6-.09c.07,0,.11,0,.09-.14l-.73.06v0s0,0,0-.07a2.53,2.53,0,0,1,.09-.87s0,0,0-.07-.06,0-.07,0a.24.24,0,0,0,0,.09A2.89,2.89,0,0,0,69.53,23Zm1-.26h0l.17-.15h-.1l.14-.17h0l-.06,0h0l.13-.17h0l-.11.11h0l.13-.18-.11.07v0l.23-.25h0l-.12.09h0l.14-.16-.08,0c-.26.16-.25.16-.28.45a.77.77,0,0,1-.2.58c.06.06.14.11.16.18s.14.17.27.12h0c.06,0,.07,0,0-.08l-.16-.13-.13-.1.09-.1h0l.07-.1Zm-1.06-2v0l-.13,0a.87.87,0,0,1-.63,0,2.77,2.77,0,0,0-.9-.1.31.31,0,0,0-.25.15.18.18,0,0,0,0,.06h0l.06-.07,0,0,.17-.05,0,0a.91.91,0,0,1,.18-.07s.11,0,.15,0,.15,0,.22,0a1,1,0,0,1,.31.1l.13,0V21l.09,0v.07l.15-.12V21l.12-.11,0,.08.07-.1,0,0V21Zm1.24-2.55v0s-.06-.06-.09-.06h-.34a.11.11,0,0,0-.06.09,2.48,2.48,0,0,0,.08.36.19.19,0,0,0,.09.11s.12,0,.14,0a.46.46,0,0,0,.17-.37H70.6v-.08Zm0,1.85a.32.32,0,0,1,.18-.26,2,2,0,0,0,.59-.64A.78.78,0,0,0,71.6,19l0,0a1,1,0,0,0-.17.16,1.85,1.85,0,0,1-.58.58A.21.21,0,0,0,70.77,20.07Zm.08.53v0a.31.31,0,0,0-.18.36c.11-.21.37-.26.48-.5l-.12.05c.07-.06.15-.1.17-.21l-.11.07,0-.17-.26.22a.52.52,0,0,0-.18.27ZM69.69,25h0l.06-.06-.07.37h0c0-.07,0-.14.06-.21a1.75,1.75,0,0,1,.09-.18h0l-.05.09h0l.2-.17h0l-.15.3a1.55,1.55,0,0,0,.21-.25,1.81,1.81,0,0,0,.09-.17l-.2,0a3.19,3.19,0,0,1-.33,0c-.11,0-.12,0-.15.09h.24Zm1.54-3.59v.05l.31,0,1.22.19.14,0s0,0,0,0a.06.06,0,0,0,0-.06l-.11,0-1.32-.18A2.12,2.12,0,0,0,71.23,21.4Zm2.19,3.29-.07-.19a.79.79,0,0,0,0-.12.08.08,0,0,0-.07,0,.39.39,0,0,0-.1.06c-.06,0-.08-.08,0-.13a.1.1,0,0,0,0-.17s-.06-.08-.1,0,0,.07,0,.1h0l-.1.16h-.08l.08.15s.09,0,.11.07a.83.83,0,0,1,.07.16l0-.09.06.12v-.15l.11.16,0-.14Zm-2.6-1.86.53-.15a.08.08,0,0,0,0-.07,1.92,1.92,0,0,0-.08-.29,1.06,1.06,0,0,0-.11-.17l0,0s0,.08,0,.13c0,.23,0,.23-.21.29h0C70.83,22.66,70.8,22.71,70.82,22.84Zm-.09-1.65a2,2,0,0,1,.2-.24,3,3,0,0,1,.25-.17.44.44,0,0,0,.13-.53.55.55,0,0,0-.08.14.63.63,0,0,1-.31.4,1,1,0,0,0-.21.21A.14.14,0,0,0,70.74,21.18ZM70.29,19a1,1,0,0,1-.51-.14,4,4,0,0,0-.39-.14c-.14,0-.33,0-.4.06l.21.08,0-.08.2.11,0-.1.14.1v-.09l.19.16v0l.1.05c0-.05.07,0,.09,0l.08,0v0A.26.26,0,0,0,70.29,19Zm.23,2.42h-.06c-.09-.1-.15,0-.21,0s-.09.12,0,.18a.77.77,0,0,0,.46.08l.1,0-.31-.23Zm.12,3.28v.07l-.23,0v0l0,0a1.24,1.24,0,0,0,.82.05c.13,0,.14-.06.13-.21l-.05.13,0-.08,0,.1,0,0,0-.11-.05.13,0-.08-.05,0,0,0,0,.05L71,24.66l0,.08-.18,0,0,0,0,.06ZM71.42,23l0-.14c0-.07,0-.1-.07-.08l-.51.16a.08.08,0,0,0-.06.12l.08,0v.08L71,23l0,.09.07-.1v.14l.06-.15v.12h0l0-.13,0,.12,0-.13,0,.07,0-.13,0,0Zm-.27-3.88a.47.47,0,0,1,.36-.29h.18c.12,0,.18-.1.29-.17C71.48,18.54,71.16,18.73,71.14,19.08Zm-1.73,2.16a.71.71,0,0,0,.79-.19l-.12,0a.47.47,0,0,0-.16.09c-.06.06-.12,0-.17,0v-.06l-.07.06,0-.08-.08.06.06-.16Zm-.94-3.09-.17-.09.08,0v0a.39.39,0,0,0-.14,0s-.06.06-.08.09,0,0,0,.07-.08.11,0,.22l0,0,.1,0,0-.09.11-.09-.06-.05ZM71.2,20v.26c.14-.18.09-.39.18-.56-.21.11-.42.32-.37.52Zm.18-.5-.36.29-.13.11a.26.26,0,0,0,0,.35A1.45,1.45,0,0,1,71,20a1.26,1.26,0,0,1,.23-.22A.33.33,0,0,0,71.37,19.53Zm-.47.07c.28-.2.44-.52.75-.68a.34.34,0,0,0-.28.11l-.35.32A.36.36,0,0,0,70.91,19.6Zm-2.31-.17,0,.11c0-.17,0-.31-.11-.34s-.27.07-.32.21c.3,0,.3,0,.35.09Zm4.33-.72a.32.32,0,0,0-.51-.11.31.31,0,0,1,.29.18l.06-.08.05.15h0v-.16h0Zm-2.14.81s.07,0,.06-.06,0-.18-.11-.15h0c-.07,0-.11,0-.12.05a.28.28,0,0,0,0,.12.69.69,0,0,0,.07.13Zm-.68,1.87v0c0-.06,0-.1-.08,0h0c-.07,0-.06.05,0,.09a.83.83,0,0,0,.06.11l.07,0,.21-.15.14-.07s0,0,0-.06h-.06s0,0,0,0Zm2.78,2.87h0a.23.23,0,0,0,0-.23.52.52,0,0,1-.09-.16s0-.09-.05-.07a.11.11,0,0,0-.05.09.89.89,0,0,0,.08.19Zm-.81.32a.54.54,0,0,0,0-.11s0-.09,0-.14,0-.14-.08-.17v.27l-.12-.1c0,.07.05.12,0,.16s0,.13.07.16v-.1Zm-1.58-7a.67.67,0,0,0-.26,0,.87.87,0,0,0-.19.22l0,0,.14-.06ZM73,21l0,.62C73.15,21.54,73.14,21.06,73,21Zm-2.2-2.14H71l.36-.23a.29.29,0,0,0-.26,0Zm-2.37-.19c0-.16.08-.22.23-.21,0-.08-.07-.11-.14-.1a.17.17,0,0,0-.16.12A.15.15,0,0,0,68.44,18.64Zm4.69,3.19h0v0c0,.16,0,.32.06.48s0,0,0,0,0,0,0-.05,0-.24-.05-.36A.78.78,0,0,0,73.13,21.83Zm-3.79,3h0a.32.32,0,0,0,0-.13s-.06,0-.1-.05h-.13c-.08,0-.17,0-.19.13s.18-.11.27,0l.12-.07ZM71,23.45a.25.25,0,0,0-.37-.13A.41.41,0,0,0,71,23.45Zm.7-4.62a.36.36,0,0,0-.49.26A.86.86,0,0,1,71.71,18.84Zm-1.34-.78c.22,0,.25,0,.22-.14s-.07-.09-.12,0A1,1,0,0,0,70.38,18.06Zm.57,3.16a.69.69,0,0,1,.05-.12s.06,0,.08-.08a1.3,1.3,0,0,0,.07-.17A.25.25,0,0,0,70.94,21.22Zm3.53,2.6-.14-.11c-.11.13-.1.2,0,.27Zm-5.6,1c-.14-.05-.32.06-.31.17l.08-.06.07.08V25C68.83,25,68.82,24.88,68.87,24.83Zm3.26,1.08c.11-.1.08-.25-.07-.4l-.05.11.08,0,0,.07C72.17,25.74,72.09,25.84,72.13,25.91Zm-2.41-6.39a.35.35,0,0,0,.08-.35A.31.31,0,0,0,69.72,19.52Zm.15,6.34c-.09.12-.09.15,0,.22l.08,0S70,26,70,26A1.17,1.17,0,0,0,69.87,25.86Zm.57-2.59c0-.14,0-.17-.1-.24C70.26,23.16,70.27,23.19,70.44,23.27Zm1.9,2.91c0-.12-.06-.2-.11-.18s-.1.09-.09.11S72.26,26.17,72.33,26.18Zm-2.16-7.83a.46.46,0,0,0,.25.41ZM67.7,25.87l-.07-.09-.06,0a.21.21,0,0,0,0,.07c0,.1,0,.15.13.16ZM71,23.5a.64.64,0,0,1-.44-.17A.33.33,0,0,0,71,23.5Zm-.4-5.63c0,.06,0,.12,0,.17a.07.07,0,0,0,0,0,.07.07,0,0,0,.06,0A.13.13,0,0,0,70.63,17.87Zm-2.19,7.26a.18.18,0,0,0-.13.21h.1v-.08h0Zm4.23-1.55a.18.18,0,0,0,0,.27.47.47,0,0,0,.07-.13A.42.42,0,0,0,72.67,23.58ZM73,21.7c.05,0,.09.09.1.08a.19.19,0,0,0,.08-.09s0-.08-.05-.07A.65.65,0,0,0,73,21.7Zm-.37,2.21h0a.8.8,0,0,0,0,.08.73.73,0,0,0,.05.13.12.12,0,0,0,.13.07ZM72,18.4v0l.09.1v0l.21,0h0Zm-1.51-.57c.14,0,.14,0,.09-.16A.13.13,0,0,0,70.45,17.83Zm-.53,8.68,0,0-.11-.14-.09.05Zm2.38-.19a.11.11,0,0,0-.15,0s0,0,0,.06h.07Zm-3.54-.93-.08.13s.05,0,.07,0S68.79,25.47,68.75,25.39Zm3.78.87.17,0C72.7,26.18,72.67,26.17,72.53,26.26Zm-1.62-7,0,0a.11.11,0,0,0-.09-.14l0,0Zm2.36.71,0,0-.13-.1,0,0Zm-3.51-1.41,0,0,.2.08C69.92,18.64,69.87,18.62,69.76,18.61Zm-1.47,7,0,.16C68.39,25.64,68.39,25.61,68.29,25.57Zm1.87-7.27c.1-.07.11-.12,0-.17Z" style="fill: #aaa"/>
        <path d="M73.28,20l-.12-.11,0,0,.13.1Z" style="fill: #aaa"/>
        <path d="M70,22.06c0,.1,0,.2,0,.3s0,.2,0,.29a1.75,1.75,0,0,1,0-.6Z" style="fill: #aaa"/>
        <path d="M70.35,18.29l0-.12.18.07,0,.08Z" style="fill: #aaa"/>
        <path d="M70.61,18.56v0h-.14v0Z" style="fill: #aaa"/>
        <path d="M73.08,24.49c.07,0,.14,0,.19,0l-.07.15Z" style="fill: #aaa"/>
      </g>
      <path d="M70.72,29.16l-.06,0-.8-.47a1.81,1.81,0,0,0-.92-.25H66.87a1.92,1.92,0,0,1-1.92-1.92V16.59a.76.76,0,0,1,.76-.76h10a.76.76,0,0,1,.76.76v9.91a1.92,1.92,0,0,1-1.92,1.92H72.49a1.81,1.81,0,0,0-.92.25l-.8.47ZM65.71,16a.54.54,0,0,0-.54.54v9.91a1.7,1.7,0,0,0,1.7,1.7h2.08a2,2,0,0,1,1,.28l.74.44.74-.44a2,2,0,0,1,1-.28h2.08a1.7,1.7,0,0,0,1.7-1.7V16.59a.54.54,0,0,0-.54-.54Z" style="fill: #aaa"/>
    </g>
  </g>
  <g>
    <path d="M161.16,117.94v0h-.86a5.93,5.93,0,0,0-9-6l.48.77a5,5,0,0,1,7.6,5.24h-1.72V115l-1.59,2.18V115l-1.58,2.17V113.4l-2.17,3.45V113.4l-3.64,5.73a6.2,6.2,0,0,0,.37.79l2.55-4v3.26l2.18-3.45v3.45l1.59-2.18v2.18l1.59-2.17v1.69h2.22a5,5,0,0,1-7.37,2.5l-.48.77a5.94,5.94,0,0,0,8.8-3.27H161S161.13,118.19,161.16,117.94Z" style="fill: #aaa"/>
    <path d="M161.32,117a5.74,5.74,0,0,1-.07.89v0h1V120l1.58-2.17V120l1.59-2.18v3.28h.54a10.07,10.07,0,1,0-.37.73h-.83v-2.11l-1.59,2.18v-2.18l-1.59,2.18v-3.25h-.45v0a6.87,6.87,0,1,1,.23-1.77Z" style="fill: #aaa"/>
  </g>
</svg>
