<svg xmlns="http://www.w3.org/2000/svg" xmlns:xlink="http://www.w3.org/1999/xlink" width="272.2mm" height="75.03mm" viewBox="0 0 771.59 212.69">
  <defs>
    <mask id="a" x="435" y="52.42" width="35.85" height="26.98" maskUnits="userSpaceOnUse">
      <path d="M458.88,66.41l-22.59-13,33.87,6.45L458.89,79.4Z" style="fill: #71b4e1"/>
    </mask>
    <mask id="b" x="424.14" y="71.98" width="35.85" height="26.93" maskUnits="userSpaceOnUse">
      <path d="M447.61,85.91,425,72.95l33.87,6.45L447.62,98.91Z" style="fill: #c5cac6"/>
    </mask>
    <mask id="c" x="401.32" y="45.91" width="35.85" height="27.04" maskUnits="userSpaceOnUse">
      <path d="M425,60,402.41,47l33.87,6.45L425,72.95Z" style="fill: #f73624"/>
    </mask>
  </defs>
  <title>8</title>
  <g>
    <path d="M92.08,149.92v1.61h13.8a3.45,3.45,0,0,1,4.14,4.14v13.8a3.45,3.45,0,0,1-4.14,4.14H99.22c-1.15,0-2.65,0-3.22-1.26s.23-2.42.92-3.33l9-11.94H92.09l-5.53,7.35c-.92,1.23-1.72,2.3-1.72,3.68s.74,2.37,1.72,3.68l1.38,1.84c1.38,1.84,2.76,3.68,4.59,4.59s4,.91,7,.91h6c3.45,0,8.61,0,12.08-3.45s3.45-8.51,3.45-10.33V159.8c0-1.84,0-6.9-3.45-10.33S109,146,105.52,146H96a3.34,3.34,0,0,0-3.9,3.91" style="fill: #aaa"/>
    <polygon points="75.62 157.03 89.28 157.03 72.82 179.09 58.81 179.09 75.62 157.03" style="fill: #aaa"/>
    <path d="M21.69,160.95a3.86,3.86,0,0,1,.92-3,3.87,3.87,0,0,1,3-.92H48.71c3,0,5.18,0,7,.92s3.21,2.76,4.59,4.59l1.38,1.84c1,1.31,1.73,2.3,1.73,3.68s-.81,2.45-1.73,3.68l-5.53,7.35H42.36l9-11.94c.69-.92,1.5-2.07.92-3.33s-2.07-1.26-3.21-1.26H38.21v27.59h-11V162.55H21.64v-1.61" style="fill: #aaa"/>
  </g>
  <g>
    <path d="M116.23,65.29l5-3.73H104.5V83.93h16.73V80.19h-12V74.48h10.22V70.74H109.28V65.29Z" style="fill: #aaa"/>
    <path d="M91.85,70.27h-5.8v-5h9.27l5-3.73H81.28V83.93h10c5.58,0,8.8-2.56,8.8-7C100,72.61,97.14,70.27,91.85,70.27Zm-.8,9.92h-5V74h5c3,0,4.45,1,4.45,3.11S94,80.19,91.06,80.19Z" style="fill: #aaa"/>
    <path d="M134.78,61.55h-9.09V83.93h4.78V77.59h4.35c5.79,0,9.42-3.07,9.42-8S140.61,61.55,134.78,61.55Zm-.11,12.3h-4.24V65.29h4.24c3.08,0,4.75,1.54,4.75,4.28S137.75,73.85,134.67,73.85Z" style="fill: #aaa"/>
    <path d="M73.09,79.09A8.53,8.53,0,0,1,69,80.15a7.4,7.4,0,1,1,4.35-13.4l3.44-2.56L76.53,64a11.29,11.29,0,0,0-7.72-2.71,12.23,12.23,0,0,0-8.47,3.19A11.09,11.09,0,0,0,57,72.61a11.61,11.61,0,0,0,3.33,8.31,11.91,11.91,0,0,0,8.44,3.3,11.31,11.31,0,0,0,8.47-3.41L74.18,78.5Z" style="fill: #aaa"/>
    <path d="M42,61.41a19.86,19.86,0,0,1,2.21,3.7L27.52,77.59l-7-4.47V67.78l7,4.43Z" style="fill: #aaa"/>
    <path d="M13.36,72.76a4.82,4.82,0,0,1,0-.73L9.16,71.8c0,.29,0,.62,0,.91a18.65,18.65,0,0,0,5.4,13.14l3-3A14.15,14.15,0,0,1,13.36,72.76Z" style="fill: #aaa"/>
    <path d="M27.49,58.48a4.74,4.74,0,0,1,.73,0l.22-4.28c-.29,0-.62,0-.91,0a18.25,18.25,0,0,0-13,5.46l3,3A13.92,13.92,0,0,1,27.49,58.48Z" style="fill: #aaa"/>
    <path d="M27.49,87a4.74,4.74,0,0,1-.73,0l-.22,4.28c.29,0,.62,0,.91,0a18.25,18.25,0,0,0,13-5.46l-3-3A13.71,13.71,0,0,1,27.49,87Z" style="fill: #aaa"/>
    <path d="M35.46,61,39,58.29a18.28,18.28,0,0,0-11.55-4.14v4.28A14.13,14.13,0,0,1,35.46,61Z" style="fill: #aaa"/>
    <path d="M45.89,72.76a20.12,20.12,0,0,0-.29-3.33l-3.95,3v.37A14.26,14.26,0,0,1,37,83.34l2.86,3.19A18.63,18.63,0,0,0,45.89,72.76Z" style="fill: #aaa"/>
    <path d="M27.49,87A14,14,0,0,1,17,82.31l-3.15,2.89a18.19,18.19,0,0,0,13.62,6.11Z" style="fill: #aaa"/>
    <path d="M18,62.17,15.17,59a18.56,18.56,0,0,0-6,13.77h4.24A14.32,14.32,0,0,1,18,62.17Z" style="fill: #aaa"/>
  </g>
  <g>
    <g>
      <path d="M287.62,149.12h.1l2.72,6.69h1.28l2.72-6.67h.1v6.7h1.7v-9.75H294l-2.92,7.07H291l-2.92-7.07h-2.18v9.75h1.7Z" style="fill: #aaa"/>
      <path d="M299.25,155.51a3.55,3.55,0,0,0,1.87.47,3.61,3.61,0,0,0,1.88-.47,3.25,3.25,0,0,0,1.23-1.32,4.23,4.23,0,0,0,.43-2,4.34,4.34,0,0,0-.43-2,3.14,3.14,0,0,0-1.23-1.32,4,4,0,0,0-3.75,0,3.25,3.25,0,0,0-1.23,1.32,4.25,4.25,0,0,0-.43,2,4.36,4.36,0,0,0,.43,2A3.19,3.19,0,0,0,299.25,155.51Zm.29-4.52a2,2,0,0,1,.59-.87,1.52,1.52,0,0,1,1-.33,1.48,1.48,0,0,1,1,.33,2,2,0,0,1,.59.87,3.62,3.62,0,0,1,.19,1.22,3.57,3.57,0,0,1-.19,1.21,2,2,0,0,1-.59.87,1.49,1.49,0,0,1-1,.32,1.54,1.54,0,0,1-1-.32,1.9,1.9,0,0,1-.59-.87,3.57,3.57,0,0,1-.2-1.21A3.65,3.65,0,0,1,299.55,151Z" style="fill: #aaa"/>
      <path d="M307.36,155.5a4,4,0,0,0,3.51.15,2.6,2.6,0,0,0,1.08-.93,2.82,2.82,0,0,0,.46-1.37h-1.66a1.58,1.58,0,0,1-.29.67,1.4,1.4,0,0,1-.51.42,1.61,1.61,0,0,1-.69.15,1.54,1.54,0,0,1-.94-.29,1.81,1.81,0,0,1-.62-.82,3.4,3.4,0,0,1-.23-1.29,3.28,3.28,0,0,1,.23-1.27,1.78,1.78,0,0,1,.63-.81,1.58,1.58,0,0,1,.93-.28,1.43,1.43,0,0,1,1,.35,1.62,1.62,0,0,1,.48.88h1.66a2.74,2.74,0,0,0-.47-1.38,2.7,2.7,0,0,0-1.11-.92,3.76,3.76,0,0,0-1.59-.33,3.56,3.56,0,0,0-1.87.48,3.2,3.2,0,0,0-1.22,1.33,4.33,4.33,0,0,0-.43,2,4.26,4.26,0,0,0,.42,2,3.23,3.23,0,0,0,1.21,1.33Z" style="fill: #aaa"/>
      <path d="M315.47,153.08h.85l2,2.76h2.1l-2.76-3.72,2.73-3.59h-2.09l-2.22,3h-.63v-3h-1.74v7.32h1.74Z" style="fill: #aaa"/>
      <path d="M322.35,155.51a3.55,3.55,0,0,0,1.87.47,3.61,3.61,0,0,0,1.88-.47,3.25,3.25,0,0,0,1.23-1.32,4.25,4.25,0,0,0,.43-2,4.36,4.36,0,0,0-.43-2,3.14,3.14,0,0,0-1.23-1.32,4,4,0,0,0-3.75,0,3.25,3.25,0,0,0-1.23,1.32,4.23,4.23,0,0,0-.43,2,4.34,4.34,0,0,0,.43,2A3.19,3.19,0,0,0,322.35,155.51Zm.29-4.52a2,2,0,0,1,.59-.87,1.53,1.53,0,0,1,1-.33,1.47,1.47,0,0,1,1,.33,2,2,0,0,1,.59.87,3.59,3.59,0,0,1,.19,1.22,3.54,3.54,0,0,1-.19,1.21,2,2,0,0,1-.59.87,1.49,1.49,0,0,1-1,.32,1.54,1.54,0,0,1-1-.32,1.9,1.9,0,0,1-.59-.87,3.57,3.57,0,0,1-.2-1.21A3.65,3.65,0,0,1,322.65,151Z" style="fill: #aaa"/>
      <path d="M335.1,154.9a1.73,1.73,0,0,0,.32-1,1.69,1.69,0,0,0-.25-.91,1.76,1.76,0,0,0-.69-.63,2.53,2.53,0,0,0-1-.29,2.29,2.29,0,0,0,1.17-.52,1.29,1.29,0,0,0,.43-1,1.66,1.66,0,0,0-.76-1.45,3.65,3.65,0,0,0-2.08-.51h-3.1v7.32h3.57a3.93,3.93,0,0,0,1.47-.25,2,2,0,0,0,.93-.69Zm-4.34-5h1.47a1.47,1.47,0,0,1,.86.21.69.69,0,0,1,.31.59.71.71,0,0,1-.14.45.85.85,0,0,1-.39.29,1.59,1.59,0,0,1-.61.1h-1.51Zm2.7,4.35a1.12,1.12,0,0,1-.75.22h-1.95v-1.81h1.95a1.05,1.05,0,0,1,.75.26.94.94,0,0,1,.28.71A.75.75,0,0,1,333.46,154.25Z" style="fill: #aaa"/>
      <path d="M342.63,154.71a2.82,2.82,0,0,0,.46-1.37h-1.66a1.58,1.58,0,0,1-.28.67,1.41,1.41,0,0,1-.51.42,1.61,1.61,0,0,1-.69.15,1.54,1.54,0,0,1-.94-.29,1.81,1.81,0,0,1-.62-.82,3.4,3.4,0,0,1-.23-1.29,3.28,3.28,0,0,1,.23-1.27,1.78,1.78,0,0,1,.63-.81,1.58,1.58,0,0,1,.93-.28,1.43,1.43,0,0,1,1,.35,1.62,1.62,0,0,1,.48.88h1.66a2.74,2.74,0,0,0-.47-1.38,2.7,2.7,0,0,0-1.11-.92,3.77,3.77,0,0,0-1.59-.33,3.56,3.56,0,0,0-1.87.48,3.19,3.19,0,0,0-1.22,1.33,4.33,4.33,0,0,0-.43,2,4.26,4.26,0,0,0,.42,2,3.24,3.24,0,0,0,1.21,1.33,4,4,0,0,0,3.51.15,2.6,2.6,0,0,0,1.08-.93Z" style="fill: #aaa"/>
      <path d="M351.09,148.52H349l-2.22,3h-.63v-3H344.4v7.32h1.74v-2.76H347l2,2.76h2.1l-2.76-3.72Z" style="fill: #aaa"/>
      <path d="M356.82,150.85v5h1.68v-7.32h-1.78l-2.95,5v-5h-1.68v7.32h1.79Z" style="fill: #aaa"/>
      <path d="M364.83,148.52l-2.95,5v-5H360.2v7.32H362l2.94-5v5h1.68v-7.32Z" style="fill: #aaa"/>
      <path d="M363.4,147.88a2.46,2.46,0,0,0,1.64-.51,1.68,1.68,0,0,0,.61-1.35h-1.3a1,1,0,0,1-.23.62.89.89,0,0,1-.73.27.9.9,0,0,1-.73-.27.94.94,0,0,1-.22-.61h-1.29a1.67,1.67,0,0,0,.61,1.35,2.45,2.45,0,0,0,1.63.51Z" style="fill: #aaa"/>
      <path d="M291.76,171.59a2.54,2.54,0,0,0,1.12-1,2.6,2.6,0,0,0,.37-1.36,2.43,2.43,0,0,0-.31-1.27,2.31,2.31,0,0,0-.79-.81,2.19,2.19,0,0,0-1-.32v-.09a2.62,2.62,0,0,0,.87-.38,1.91,1.91,0,0,0,.62-.69,2.07,2.07,0,0,0,.23-1,2.31,2.31,0,0,0-1.42-2.2,4.16,4.16,0,0,0-1.77-.33h-3.76v9.75h4a4.27,4.27,0,0,0,1.87-.35Zm-4.07-8h1.8a1.66,1.66,0,0,1,1.19.37,1.2,1.2,0,0,1,.4.94,1.24,1.24,0,0,1-.22.74,1.41,1.41,0,0,1-.59.48,2,2,0,0,1-.83.17h-1.76v-2.69Zm0,6.82V167.6h2a2,2,0,0,1,1,.21,1.52,1.52,0,0,1,.61.55,1.44,1.44,0,0,1,.22.78,1.21,1.21,0,0,1-.43,1,2.12,2.12,0,0,1-1.4.37Z" style="fill: #aaa"/>
      <path d="M299.37,171.81a2.78,2.78,0,0,0,1.1-.74,2.43,2.43,0,0,0,.58-1.12l-1.63-.18a1.44,1.44,0,0,1-.34.52,1.46,1.46,0,0,1-.54.32,2.16,2.16,0,0,1-.68.1,1.9,1.9,0,0,1-1-.24,1.65,1.65,0,0,1-.66-.69,2.42,2.42,0,0,1-.23-1h5.14v-.53a4.54,4.54,0,0,0-.27-1.66,3.18,3.18,0,0,0-.74-1.15,3,3,0,0,0-1.07-.67,3.8,3.8,0,0,0-1.29-.21,3.51,3.51,0,0,0-1.84.48,3.31,3.31,0,0,0-1.22,1.33,4.77,4.77,0,0,0,0,4,3.07,3.07,0,0,0,1.24,1.3,3.78,3.78,0,0,0,1.91.46,4.27,4.27,0,0,0,1.53-.26Zm-2.53-5.7a1.7,1.7,0,0,1,.93-.26,1.72,1.72,0,0,1,.87.22,1.55,1.55,0,0,1,.59.61,1.84,1.84,0,0,1,.22.88H296a1.92,1.92,0,0,1,.22-.8,1.78,1.78,0,0,1,.62-.67Z" style="fill: #aaa"/>
      <path d="M307,169v3h1.67v-7.32H307v2.94h-2.85v-2.94h-1.68v7.32h1.68v-3Z" style="fill: #aaa"/>
      <path d="M312,167.8a1.48,1.48,0,0,1-.16-.75v-2.44h-1.66V167a2.43,2.43,0,0,0,.86,2.06,3.75,3.75,0,0,0,2.34.66,4.87,4.87,0,0,0,.79-.06c.18,0,.34-.07.51-.1v2.32h1.67v-7.32h-1.67v3.56l-.2.06a5,5,0,0,1-1.1.11,2.44,2.44,0,0,1-.86-.13,1,1,0,0,1-.51-.42Z" style="fill: #aaa"/>
      <path d="M321,170.14h-.08l-1.7-5.52h-1.84l2.67,7.47-.15.39a1.32,1.32,0,0,1-.39.59.84.84,0,0,1-.53.18,2.59,2.59,0,0,1-.67-.1l-.41,1.35a2.8,2.8,0,0,0,.48.13,3.15,3.15,0,0,0,.66.05,2.87,2.87,0,0,0,1.18-.22,2.24,2.24,0,0,0,.83-.63,3.35,3.35,0,0,0,.55-1l2.95-8.2h-1.85l-1.7,5.52Z" style="fill: #aaa"/>
      <path d="M331,164.95a2.9,2.9,0,0,0-1.55-.43,2.28,2.28,0,0,0-1.06.21,2.07,2.07,0,0,0-.67.52,3.57,3.57,0,0,0-.38.57h-.1v-1.21h-1.71v10.06h1.74v-3.89h.07a3.38,3.38,0,0,0,.39.57,2.07,2.07,0,0,0,.68.51,2.38,2.38,0,0,0,1.05.21,2.78,2.78,0,0,0,1.56-.45,3,3,0,0,0,1.08-1.29,5.44,5.44,0,0,0,0-4.11,2.91,2.91,0,0,0-1.1-1.27Zm-.47,4.55a1.84,1.84,0,0,1-.59.84,1.5,1.5,0,0,1-1,.31,1.48,1.48,0,0,1-.94-.3,1.77,1.77,0,0,1-.59-.83,3.66,3.66,0,0,1-.21-1.24,3.58,3.58,0,0,1,.2-1.24,1.75,1.75,0,0,1,.59-.81,1.52,1.52,0,0,1,.94-.29,1.6,1.6,0,0,1,1,.3,1.81,1.81,0,0,1,.59.83,3.47,3.47,0,0,1,.2,1.21,3.52,3.52,0,0,1-.2,1.22Z" style="fill: #aaa"/>
      <path d="M338.45,167.56H335.6v-2.94h-1.68v7.32h1.68v-3h2.86v3h1.67v-7.32h-1.67Z" style="fill: #aaa"/>
      <path d="M350.78,164.61H349v7.32h1.74Z" style="fill: #aaa"/>
      <path d="M345.16,167h-1.68v-2.38H341.8v7.32h3.36a3.62,3.62,0,0,0,1.6-.32,2.3,2.3,0,0,0,1.37-2.15,2.26,2.26,0,0,0-.78-1.78A3.21,3.21,0,0,0,345.16,167Zm.93,3.23a1.48,1.48,0,0,1-.93.29h-1.68v-2.1h1.68a1.43,1.43,0,0,1,.93.3,1,1,0,0,1,.36.78.86.86,0,0,1-.36.74Z" style="fill: #aaa"/>
      <path d="M356.41,162.72a.89.89,0,0,1-.73.27.9.9,0,0,1-.73-.27.94.94,0,0,1-.22-.61h-1.29a1.67,1.67,0,0,0,.61,1.35,2.45,2.45,0,0,0,1.63.51,2.48,2.48,0,0,0,1.64-.51,1.68,1.68,0,0,0,.61-1.35h-1.3a1,1,0,0,1-.23.62Z" style="fill: #aaa"/>
      <path d="M354.16,169.6v-5h-1.68v7.32h1.79l2.94-5v5h1.69v-7.32h-1.79Z" style="fill: #aaa"/>
      <path d="M293.66,179.85a4.2,4.2,0,0,0-2-.49h-.14V178.1h-1.71v1.26h-.14a4.2,4.2,0,0,0-2,.49,3.62,3.62,0,0,0-1.41,1.38,4,4,0,0,0-.51,2.08,4,4,0,0,0,.51,2,3.46,3.46,0,0,0,1.4,1.35,4.3,4.3,0,0,0,2.05.48h.14v1.24h1.71v-1.24h.14a4.24,4.24,0,0,0,2-.48,3.54,3.54,0,0,0,1.4-1.36,4,4,0,0,0,.51-2,4.17,4.17,0,0,0-.51-2.08A3.54,3.54,0,0,0,293.66,179.85Zm-4,5.83a2.54,2.54,0,0,1-1.2-.27,1.94,1.94,0,0,1-.8-.81,2.67,2.67,0,0,1-.29-1.29,3.09,3.09,0,0,1,.28-1.35,1.94,1.94,0,0,1,.79-.83,2.45,2.45,0,0,1,1.21-.28h.14v4.83h-.13Zm4-1.09a1.85,1.85,0,0,1-.78.81,2.42,2.42,0,0,1-1.2.27h-.14v-4.83h.14a2.42,2.42,0,0,1,1.2.28,1.92,1.92,0,0,1,.78.83,2.94,2.94,0,0,1,.28,1.33,2.73,2.73,0,0,1-.28,1.29Z" style="fill: #aaa"/>
      <path d="M302.11,181.08a4,4,0,0,0-3.75,0,3.25,3.25,0,0,0-1.23,1.32,4.23,4.23,0,0,0-.43,2,4.34,4.34,0,0,0,.43,2,3.2,3.2,0,0,0,1.23,1.32,3.56,3.56,0,0,0,1.87.47,3.61,3.61,0,0,0,1.88-.47,3.25,3.25,0,0,0,1.23-1.32,4.23,4.23,0,0,0,.43-2,4.34,4.34,0,0,0-.43-2A3.14,3.14,0,0,0,302.11,181.08Zm-.29,4.51a2,2,0,0,1-.59.87,1.49,1.49,0,0,1-1,.32,1.53,1.53,0,0,1-1-.32,1.9,1.9,0,0,1-.59-.87,3.56,3.56,0,0,1-.2-1.21,3.65,3.65,0,0,1,.2-1.22,1.91,1.91,0,0,1,.59-.87,1.52,1.52,0,0,1,1-.33,1.47,1.47,0,0,1,1,.33,2,2,0,0,1,.59.87,3.59,3.59,0,0,1,.19,1.22A3.54,3.54,0,0,1,301.81,185.59Z" style="fill: #aaa"/>
      <path d="M309.67,183.65h-2.85V180.7h-1.68V188h1.68v-3h2.85v3h1.67V180.7h-1.67Z" style="fill: #aaa"/>
      <path d="M319.47,180.7h-5.33l-.21,2.56c0,.41-.08.79-.12,1.15a8.64,8.64,0,0,1-.17,1,3.52,3.52,0,0,1-.26.74,1.33,1.33,0,0,1-.4.49h-.59v3.54h1.71V188h4.83v2.13h1.68v-3.54h-1.14v-5.89Zm-1.66,5.89h-3a3.51,3.51,0,0,0,.51-1.35,19.2,19.2,0,0,0,.25-2l.11-1.18h2.16v4.5Z" style="fill: #aaa"/>
    </g>
    <path d="M217,178.7l-11.33-16.38h-20l8.6-16.17h20l11.33,16.38L217,178.7Zm48.68-16.18-11.32-16.38h-20l-8.6,16.18h20l11.33,16.37,8.6-16.18Z" style="fill: #aaa"/>
  </g>
  <g>
    <g>
      <path d="M587.28,145.42a3,3,0,0,1-.32,1.4,3.36,3.36,0,0,1-.75,1l-1,.64a3.87,3.87,0,0,1-1.18.21v1h-1.83v-1a6.13,6.13,0,0,1-1.5-.43,2.34,2.34,0,0,1-1-.75,3.38,3.38,0,0,1-.54-1.07A5.48,5.48,0,0,1,579,145v-4a3,3,0,0,1,.32-1.4,2.57,2.57,0,0,1,.64-.86,3.55,3.55,0,0,1,1.07-.64,2.31,2.31,0,0,1,1.18-.21v-.64h1.93v.64a4.57,4.57,0,0,1,1.18.21,2.53,2.53,0,0,1,1,.64,3.33,3.33,0,0,1,.75,1,3,3,0,0,1,.32,1.4v4.29Zm-5-6a3.21,3.21,0,0,0-1.07.43,1.81,1.81,0,0,0-.32,1.07v4.72a1.36,1.36,0,0,0,.11.64,1.5,1.5,0,0,0,.32.43c.11.11.32.21.43.32a1,1,0,0,0,.54.11Zm3.33,1.5a1.38,1.38,0,0,0-.43-1.07,2,2,0,0,0-1-.43V147c.11,0,.32-.11.43-.11a1.9,1.9,0,0,0,.75-.75,1,1,0,0,0,.11-.54v-4.72Z" style="fill: #aaa"/>
      <path d="M596.84,146.38a3.41,3.41,0,0,1-.75,2.47,3.08,3.08,0,0,1-2.25.86,2.73,2.73,0,0,1-2.25-.75,3.55,3.55,0,0,1-.75-2.25v-6.23a4.65,4.65,0,0,1,.21-1.29,3.4,3.4,0,0,1,.54-1.07,1.56,1.56,0,0,1,1-.64,5.43,5.43,0,0,1,1.4-.21,4.75,4.75,0,0,1,1.39.21,1.09,1.09,0,0,1,.86.54,3.36,3.36,0,0,1,.54,1.07,5.67,5.67,0,0,1,.11,1.4Zm-1.93-6.12a3.13,3.13,0,0,0-.21-1c-.11-.32-.43-.43-.86-.43a.81.81,0,0,0-.54.11c-.21.21-.32.32-.32.54a.81.81,0,0,0-.11.54v6.76a2,2,0,0,0,.21.86,1,1,0,0,0,.86.43.87.87,0,0,0,.86-.43c.22-.21.22-.54.22-1v-6.44Z" style="fill: #aaa"/>
      <polygon points="604.56 149.6 604.56 144.24 602.31 144.24 602.31 149.6 600.49 149.6 600.49 137.26 602.42 137.26 602.42 142.41 604.67 142.41 604.67 137.26 606.6 137.26 606.6 149.6 604.56 149.6" style="fill: #aaa"/>
      <path d="M611.11,149.6V152H609.5v-4l.75-.11a2.56,2.56,0,0,0,.64-1.18,7.66,7.66,0,0,0,.21-1.83l.22-7.51h5.58V148h.75v4.08h-1.61v-2.36h-4.94Zm1.72-4.83c0,.75-.11,1.29-.11,1.83a3.62,3.62,0,0,1-.43,1.29H615v-8.8H613Z" style="fill: #aaa"/>
      <path d="M629.25,137.15a4,4,0,0,1,1.29.21,4.35,4.35,0,0,1,1,.54,2.34,2.34,0,0,1,.54.86,3.89,3.89,0,0,1,.21,1.18l-1.83.43a2.67,2.67,0,0,0-.22-1.07.87.87,0,0,0-.86-.43.8.8,0,0,0-.54.11l-.32.32a.65.65,0,0,0-.11.43v7.19c0,.11.11.32.11.43l.32.32a.8.8,0,0,0,.54.11c.75,0,1.07-.54,1.07-1.5a3,3,0,0,0,1,.11c.32,0,.64.11,1,.11a3.54,3.54,0,0,1-.75,2.25,2.82,2.82,0,0,1-2.15.86,2.73,2.73,0,0,1-2.25-.75,3,3,0,0,1-.75-2.25v-6.12a5.23,5.23,0,0,1,.11-1.29,3.4,3.4,0,0,1,.54-1.07,2.34,2.34,0,0,1,1-.75,2.19,2.19,0,0,1,1.18-.21" style="fill: #aaa"/>
      <path d="M641.28,146.38a3.41,3.41,0,0,1-.75,2.47,3.08,3.08,0,0,1-2.25.86A2.73,2.73,0,0,1,636,149a3.55,3.55,0,0,1-.75-2.25v-6.23a4.65,4.65,0,0,1,.21-1.29,3.38,3.38,0,0,1,.54-1.07,1.57,1.57,0,0,1,1-.64,5.43,5.43,0,0,1,1.4-.21,4.76,4.76,0,0,1,1.39.21,1.93,1.93,0,0,1,1,.64,3.36,3.36,0,0,1,.54,1.07v7.19Zm-1.93-6.12a3.13,3.13,0,0,0-.21-1c-.11-.32-.43-.43-.86-.43a.81.81,0,0,0-.54.11l-.32.32c-.11.11-.11.32-.21.54v6.76a2,2,0,0,0,.21.86,1.12,1.12,0,0,0,.86.43.87.87,0,0,0,.86-.43c.21-.21.21-.54.21-1Z" style="fill: #aaa"/>
      <path d="M645.78,149.6V152h-1.61v-4l.75-.11a2.56,2.56,0,0,0,.64-1.18,7.66,7.66,0,0,0,.21-1.83l.22-7.51h5.58V148h.75v4.08h-1.61v-2.36h-4.94Zm1.72-4.83c0,.75-.11,1.29-.11,1.83a3.62,3.62,0,0,1-.43,1.29h2.68v-8.8h-1.93Z" style="fill: #aaa"/>
      <polygon points="655.45 149.6 655.45 137.26 660.92 137.26 660.92 139.08 657.38 139.08 657.38 142.41 660.49 142.41 660.49 144.24 657.38 144.24 657.38 147.78 660.92 147.78 660.92 149.6 655.45 149.6" style="fill: #aaa"/>
      <path d="M668.54,141.88,666,149.6h-1.82V137.26H666v7.84l2.58-7.84h1.83V149.6h-1.93Zm-2.36-7.41a.81.81,0,0,0,.11.43c.11.11.11.21.21.43l.32.32a.64.64,0,0,0,.43.11c.21,0,.32,0,.43-.11l.32-.32a.56.56,0,0,0,.22-.43c0-.11.11-.21.11-.43h1.4a3.36,3.36,0,0,1-.21.86c.11.21-.11.54-.32.75a4.67,4.67,0,0,1-.75.64,3.18,3.18,0,0,1-1.07.21,3.86,3.86,0,0,1-1.18-.21,1.44,1.44,0,0,1-.75-.64,2.72,2.72,0,0,1-.43-.75,3.32,3.32,0,0,1-.21-.86Z" style="fill: #aaa"/>
      <path d="M677,137.15a4,4,0,0,1,1.29.21,4.36,4.36,0,0,1,1,.54,2.35,2.35,0,0,1,.54.86,3.89,3.89,0,0,1,.21,1.18l-1.82.43a2.67,2.67,0,0,0-.22-1.07.87.87,0,0,0-.86-.43.8.8,0,0,0-.54.11l-.32.32a.65.65,0,0,0-.11.43v7.19c0,.11.11.32.11.43l.32.32a.8.8,0,0,0,.54.11c.75,0,1.07-.54,1.07-1.5a3,3,0,0,0,1,.11c.32,0,.65.11,1,.11a3.54,3.54,0,0,1-.75,2.25,2.82,2.82,0,0,1-2.15.86,2.73,2.73,0,0,1-2.25-.75,3,3,0,0,1-.75-2.25v-6.12a5.23,5.23,0,0,1,.11-1.29,3.38,3.38,0,0,1,.54-1.07,2.34,2.34,0,0,1,1-.75,2.51,2.51,0,0,1,1.18-.21" style="fill: #aaa"/>
      <polygon points="686.25 139.08 686.25 149.6 684.32 149.6 684.32 139.08 682.28 139.08 682.28 137.26 688.18 137.26 688.18 139.08 686.25 139.08" style="fill: #aaa"/>
      <path d="M695.7,143.16a1.63,1.63,0,0,1,1.07,1,4.43,4.43,0,0,1,.32,1.72,3.94,3.94,0,0,1-.86,2.79,3.13,3.13,0,0,1-2.58.86h-2.58V137.26h2.68a3,3,0,0,1,2.36.86,4.12,4.12,0,0,1,.43,4c0,.43-.43.75-.86,1.07m-.54-2.47a1.73,1.73,0,0,0-.32-1.18,1.6,1.6,0,0,0-1.07-.32h-.65v3.22h.65a1.13,1.13,0,0,0,1.07-.43,2.85,2.85,0,0,0,.32-1.29m.11,4.94a2.29,2.29,0,0,0-.32-1.29,1.13,1.13,0,0,0-1.07-.43h-.75v3.86h.75a1.55,1.55,0,0,0,.75-.21.84.84,0,0,0,.43-.43,1.53,1.53,0,0,0,.21-.64Z" style="fill: #aaa"/>
      <polygon points="705.14 141.88 702.57 149.6 700.74 149.6 700.74 137.26 702.57 137.26 702.57 145.1 702.67 145.1 705.25 137.26 707.08 137.26 707.08 149.6 705.14 149.6 705.14 141.88" style="fill: #aaa"/>
      <path d="M710.3,149.6l.64-3.86a3.21,3.21,0,0,1,.43-1.07,1.69,1.69,0,0,1,.75-.75,2.33,2.33,0,0,1-1.18-1.07,4.06,4.06,0,0,1-.32-1.72,4.33,4.33,0,0,1,.86-2.79,3.08,3.08,0,0,1,2.47-1h2.79v12.34h-1.93v-5.37h-.54a1.31,1.31,0,0,0-1,.43c-.32.21-.43.75-.64,1.4l-.54,3.44Zm3.76-10.52a1.39,1.39,0,0,0-1.18.54,2.44,2.44,0,0,0-.32,1.4,1.57,1.57,0,0,0,.43,1.29,1.82,1.82,0,0,0,1.07.32h.75v-3.54Z" style="fill: #aaa"/>
      <polygon points="584.81 159.8 581.59 169.35 579.34 169.35 579.34 154.11 581.7 154.11 581.7 163.77 581.81 163.77 585.03 154.11 587.39 154.11 587.39 169.35 584.92 169.35 584.81 159.8" style="fill: #aaa"/>
      <polygon points="598.88 169.35 598.88 162.7 596.19 162.7 596.19 169.35 593.83 169.35 593.83 154.11 596.19 154.11 596.19 160.44 598.98 160.44 598.98 154.11 601.34 154.11 601.34 169.35 598.88 169.35" style="fill: #aaa"/>
      <polygon points="613.04 169.35 613.04 162.7 610.25 162.7 610.25 169.35 607.89 169.35 607.89 154.11 610.25 154.11 610.25 160.44 613.04 160.44 613.04 154.11 615.4 154.11 615.4 169.35 613.04 169.35" style="fill: #aaa"/>
      <path d="M629.36,165.49a4.77,4.77,0,0,1-.86,3,3.77,3.77,0,0,1-2.9,1,3.51,3.51,0,0,1-2.79-1,4.33,4.33,0,0,1-.86-2.79v-7.62a6.45,6.45,0,0,1,.21-1.61,2.45,2.45,0,0,1,.64-1.29,3.35,3.35,0,0,1,1.18-.86,4.09,4.09,0,0,1,1.72-.32,4.63,4.63,0,0,1,1.83.32,4.42,4.42,0,0,1,1.18.75,2.45,2.45,0,0,1,.64,1.29,8.28,8.28,0,0,1,.21,1.72v7.41ZM627,157.87a2.45,2.45,0,0,0-.32-1.18,1.18,1.18,0,0,0-1.07-.54.9.9,0,0,0-.64.21c-.22.11-.32.32-.43.43a1.54,1.54,0,0,0-.21.64c0,.21-.11.43-.11.64v7.73a1.81,1.81,0,0,0,.32,1.07,1.13,1.13,0,0,0,1.07.43,1.18,1.18,0,0,0,1.07-.54,2.16,2.16,0,0,0,.32-1.18Z" style="fill: #aaa"/>
      <path d="M641.49,161.41a2.1,2.1,0,0,1,1.4,1.29,6.38,6.38,0,0,1,.43,2.15,4.83,4.83,0,0,1-1.07,3.54,3.92,3.92,0,0,1-3.11,1.07h-3.22V154.11h3.33a3.31,3.31,0,0,1,2.9,1.07,4.51,4.51,0,0,1,1,3.11,4.63,4.63,0,0,1-.32,1.83,2,2,0,0,1-1.29,1.18Zm-.65-3.11a1.94,1.94,0,0,0-.43-1.5,1.82,1.82,0,0,0-1.4-.43h-.75v3.86H639a1.85,1.85,0,0,0,1.4-.54c.32-.21.43-.75.43-1.4m.11,6.23a2.23,2.23,0,0,0-.43-1.61,1.7,1.7,0,0,0-1.4-.54h-.86v4.72h1a2.56,2.56,0,0,0,1-.21,1.29,1.29,0,0,0,.54-.54,2,2,0,0,0,.21-.86Z" style="fill: #aaa"/>
      <path d="M655.34,169.35l-.64-3.22H651.9l-.32,1.61-.32,1.61h-2.47c.54-2.58,1.07-5.15,1.5-7.62s1.07-5,1.5-7.62h2.68l3.11,15.24Zm-2.15-11.7c-.11,1.07-.32,2.15-.43,3.11s-.32,2.15-.54,3.22h2.15l-1-6.33Z" style="fill: #aaa"/>
      <polygon points="670.9 154.11 670.9 167.21 671.87 167.21 671.87 172.36 669.83 172.36 669.83 169.46 663.39 169.46 663.39 154.11 665.75 154.11 665.75 167.21 668.43 167.21 668.43 154.11 670.9 154.11" style="fill: #aaa"/>
      <polygon points="683.03 159.8 679.81 169.35 677.56 169.35 677.56 154.11 679.92 154.11 679.92 163.77 683.14 154.11 685.5 154.11 685.5 169.35 683.14 169.35 683.03 159.8" style="fill: #aaa"/>
      <path d="M691.4,169.35l.86-4.83a3.18,3.18,0,0,1,.54-1.4,2.11,2.11,0,0,1,1-1,3,3,0,0,1-1.5-1.29,6.34,6.34,0,0,1-.43-2.15,4.72,4.72,0,0,1,1.07-3.44,4,4,0,0,1,3-1.18h3.54v15.24h-2.36v-6.55h-.64a1.79,1.79,0,0,0-1.18.43,2.86,2.86,0,0,0-.75,1.72l-.75,4.29H691.4Zm4.72-13a1.67,1.67,0,0,0-1.5.64,2.72,2.72,0,0,0-.43,1.72,1.79,1.79,0,0,0,.54,1.5,2,2,0,0,0,1.4.43h1v-4.29Z" style="fill: #aaa"/>
      <polygon points="710.51 166.03 709.44 163.24 708.47 160.55 708.37 160.55 708.37 169.36 706 169.36 706 154.11 708.37 154.11 710.08 158.41 711.26 161.73 711.37 161.73 712.66 158.3 714.27 154 716.52 154 716.52 169.25 714.16 169.25 714.16 160.45 714.05 160.45 713.09 163.13 712.01 165.92 710.51 165.92 710.51 166.03" style="fill: #aaa"/>
    </g>
    <g>
      <path d="M713.23,178.59A68.71,68.71,0,0,1,696.36,191c-13.84,7.35-29.73,10.48-44,10.72h-1.62c-1.63,0-3.35,0-5.08-.12-22-1-48.22-8.32-66.6-27.67h13.41l.23.27c11.79,13.16,34.41,21.84,59,22.66,1.3,0,2.6.06,3.9.06C678.18,196.89,698.65,190.36,713.23,178.59Z" style="fill: #aaa"/>
      <path d="M714.79,176.22c-15.31,13.45-38.06,20.62-63,19.8-24.24-.82-46.5-9.27-58.2-22.12h13l.31.31C617.83,184.59,635.73,191,656,191.72c1.32,0,2.64.07,3.95.07C679.76,191.78,699,186.32,714.79,176.22Z" style="fill: #aaa"/>
      <path d="M715.66,174.66c-16.88,11.25-38.06,17-59.62,16.23-19.9-.72-37.47-6.91-48.27-17h13.88c7.9,7.57,22.6,12.65,41.3,12.65h.76c13.63-.11,29.19-2.92,45.73-9.3C711.46,176.41,713.55,175.56,715.66,174.66Z" style="fill: #aaa"/>
    </g>
  </g>
  <g>
    <g style="mask: url(#a)">
      <g>
        <rect x="435" y="52.42" width="35.85" height="15.21" style="fill: #aaa"/>
        <path d="M458.89,79.4l11.27-19.51-11.28,6.51Z" style="fill: #aaa"/>
      </g>
    </g>
    <g style="mask: url(#b)">
      <g>
        <rect x="424.14" y="71.98" width="35.85" height="15.21" style="fill: #aaa"/>
        <path d="M447.62,98.91,458.89,79.4l-11.28,6.51Z" style="fill: #aaa"/>
      </g>
    </g>
    <g style="mask: url(#c)">
      <g>
        <rect x="401.32" y="45.91" width="35.85" height="15.21" style="fill: #aaa"/>
        <path d="M425,72.95l11.27-19.5L425,60Z" style="fill: #aaa"/>
      </g>
    </g>
    <path d="M470.45,91.36h4.42l-1.08-3.55-1-4h-.16l-1.07,4Zm5.43,3.55h-6.44l-1.1,3.55c-.11.37-.25.53-.79.53h-3.29c-.39,0-.47-.28-.39-.56l5.87-17.75c.39-1.3.89-1.53,2-1.55h1.69c1.27,0,1.74.17,2.18,1.55l5.87,17.75a.39.39,0,0,1-.36.56h-3.35c-.42,0-.69,0-.81-.45Z" style="fill: #aaa"/>
    <path d="M495.26,94.66c.53-.22.69-.08.87.34l1,2c.26.53.18.73-.16.93a12.23,12.23,0,0,1-6.49,1.59c-6.12,0-8.86-3.82-8.86-10.11s3.66-10.31,9.05-10.31a11.09,11.09,0,0,1,5.51,1.18c.42.24.48.38.22,1l-.87,2c-.2.51-.31.63-.85.43a10.49,10.49,0,0,0-3.82-.73c-3.1,0-4.76,2.77-4.76,6.46s1.17,6.19,4.86,6.19a11.67,11.67,0,0,0,4.33-1" style="fill: #aaa"/>
    <path d="M511.18,85.74,508.68,90,504,97.74a1.89,1.89,0,0,1-2.11,1.18h-1.12c-1.47,0-1.83-.76-1.83-2V79.68c0-.4.18-.54.59-.54h3c.52,0,.6.12.6.54V92.45h.16l2.35-4,4.86-8c.65-1.08,1-1.28,2.08-1.28h1.17c1.37,0,1.82.51,1.82,2V98.48c0,.39-.16.53-.59.53h-3c-.5,0-.62-.11-.62-.53V85.74Z" style="fill: #aaa"/>
  </g>
  <g>
    <path d="M261,64.86V53.77h2.16l3.13,7.11H267l3.13-7.11h2.16V64.86H270.9V55.2h0l-3,7h-2.46l-3-7h0v9.66Z" style="fill: #aaa"/>
    <path d="M275.77,63.8a3.79,3.79,0,0,1-1-1.27,3.35,3.35,0,0,1-.31-1.5,3.46,3.46,0,0,1,.33-1.5,3.92,3.92,0,0,1,1-1.27,4.58,4.58,0,0,1,1.45-.85,5.12,5.12,0,0,1,3.44,0,4.6,4.6,0,0,1,1.46.84,3.92,3.92,0,0,1,1,1.27,3.48,3.48,0,0,1,.35,1.5,3.62,3.62,0,0,1-.8,2.14,4.49,4.49,0,0,1-2,1.42,5.19,5.19,0,0,1-2.57.24,4.83,4.83,0,0,1-2.31-1Zm1-4.79a2.72,2.72,0,0,0-.67.91,2.43,2.43,0,0,0-.21,1.07,2.46,2.46,0,0,0,.21,1.07,2.75,2.75,0,0,0,.67.91,3.58,3.58,0,0,0,4.45,0,2.72,2.72,0,0,0,.67-.91,2.84,2.84,0,0,0,0-2.14,2.71,2.71,0,0,0-.67-.91,3.54,3.54,0,0,0-4.45,0Z" style="fill: #aaa"/>
    <path d="M285.75,63.77a3.81,3.81,0,0,1-.87-1.29,4.29,4.29,0,0,1,0-3,3.79,3.79,0,0,1,.87-1.27,4.09,4.09,0,0,1,1.38-.85,4.29,4.29,0,0,1,3.23.11,4,4,0,0,1,1.31.94,3.75,3.75,0,0,1,.72,1.3h-1.26a2.44,2.44,0,0,0-.52-.75,2.7,2.7,0,0,0-.93-.58,2.83,2.83,0,0,0-1.09-.17,2.66,2.66,0,0,0-1.06.2,2.52,2.52,0,0,0-.87.59,2.7,2.7,0,0,0-.8,2,2.67,2.67,0,0,0,.8,2,2.55,2.55,0,0,0,.86.59,2.69,2.69,0,0,0,1,.2,2.81,2.81,0,0,0,1.15-.19,2.65,2.65,0,0,0,1-.63,2.43,2.43,0,0,0,.54-.82h1.26a3.65,3.65,0,0,1-1.43,2,4.07,4.07,0,0,1-2.47.74,4,4,0,0,1-1.54-.26A3.79,3.79,0,0,1,285.75,63.77Z" style="fill: #aaa"/>
    <path d="M293.6,64.85V57.1H295v3.1h1.75l2.79-3.1h1.68L298,60.74l3.49,4.09h-1.75l-3-3.47H295v3.49Z" style="fill: #aaa"/>
    <path d="M302.59,63.78a3.71,3.71,0,0,1-.85-1.25,3.65,3.65,0,0,1-.27-1.48,3.77,3.77,0,0,1,.26-1.51,3.82,3.82,0,0,1,.84-1.29,3.94,3.94,0,0,1,1.29-.86,4,4,0,0,1,3.07,0,3.93,3.93,0,0,1,1.29.86,3.84,3.84,0,0,1,.84,1.29,3.75,3.75,0,0,1,.26,1.51,3.83,3.83,0,0,1-.7,2.11,4,4,0,0,1-1.76,1.39,4.09,4.09,0,0,1-2.26.23A4,4,0,0,1,302.59,63.78Zm.86-4.7a2.69,2.69,0,0,0-.59.9,3.09,3.09,0,0,0,0,2.1,2.68,2.68,0,0,0,.59.9,2.88,2.88,0,0,0,3.9,0,2.72,2.72,0,0,0,.58-.9,2.79,2.79,0,0,0-.58-3,2.85,2.85,0,0,0-3.9,0Z" style="fill: #aaa"/>
    <path d="M311.58,64.86V57.1h4a2.73,2.73,0,0,1,1.79.54,1.79,1.79,0,0,1,.49.63A1.71,1.71,0,0,1,318,59a2.16,2.16,0,0,1-.11.7,1.51,1.51,0,0,1-.28.5,1.64,1.64,0,0,1-.35.29,1.37,1.37,0,0,1-.31.16l-.17,0,.19,0a1.71,1.71,0,0,1,.38.17,2.8,2.8,0,0,1,.45.32,1.54,1.54,0,0,1,.36.54,2.29,2.29,0,0,1,0,1.69,2.07,2.07,0,0,1-.56.74,3,3,0,0,1-2,.62Zm1.29-4.57h2.6c.81,0,1.22-.34,1.22-1s-.41-1-1.22-1h-2.6Zm0,3.41h2.68a1.68,1.68,0,0,0,1.09-.31,1.08,1.08,0,0,0,.29-.39,1,1,0,0,0,.08-.47,1,1,0,0,0-.08-.47,1.07,1.07,0,0,0-.29-.39,1.68,1.68,0,0,0-1.09-.31h-2.68Z" style="fill: #aaa"/>
    <path d="M320.59,63.72a3.78,3.78,0,0,1-.87-1.27,4.18,4.18,0,0,1,0-3,3.79,3.79,0,0,1,.87-1.27,4.08,4.08,0,0,1,1.38-.85,4.28,4.28,0,0,1,3.23.11,4,4,0,0,1,1.31.94,3.68,3.68,0,0,1,.71,1.3H326a2.37,2.37,0,0,0-.52-.74,2.68,2.68,0,0,0-.92-.58,2.81,2.81,0,0,0-1.09-.17,2.65,2.65,0,0,0-1.06.2,2.51,2.51,0,0,0-.87.59,2.71,2.71,0,0,0-.77,2,2.67,2.67,0,0,0,.79,2,2.55,2.55,0,0,0,.86.58,2.69,2.69,0,0,0,1,.2,2.79,2.79,0,0,0,1.15-.19,2.65,2.65,0,0,0,.95-.63,2.3,2.3,0,0,0,.54-.82h1.26a3.63,3.63,0,0,1-.73,1.39,3.88,3.88,0,0,1-1.41,1,4.11,4.11,0,0,1-1.75.34,4,4,0,0,1-1.55-.28A3.78,3.78,0,0,1,320.59,63.72Z" style="fill: #aaa"/>
    <path d="M328.44,64.85V57.1h1.39v3.1h1.75l2.8-3.1H336l-3.24,3.64,3.5,4.09h-1.75l-3-3.47h-1.75v3.49Z" style="fill: #aaa"/>
    <path d="M337.43,64.86V57.1h1.21v6h0l4.12-6h1.38v7.76H343v-6h0l-4.12,6Z" style="fill: #aaa"/>
    <path d="M346.42,64.86V56.94h1.21V63h0l4.12-6.1h1.38v7.92H352v-6.1h0l-4.12,6.1Zm1.1-11.08h1.14a.91.91,0,0,0,.07.38.88.88,0,0,0,.22.31,1.58,1.58,0,0,0,1.73,0,.89.89,0,0,0,.29-.69h1.15a1.85,1.85,0,0,1-.16.79,1.8,1.8,0,0,1-.47.64,2.85,2.85,0,0,1-3.37,0,1.82,1.82,0,0,1-.45-.64,1.87,1.87,0,0,1-.14-.78Z" style="fill: #aaa"/>
    <path d="M261,78.16V70.4h1.21v6h0l4.12-6h1.38v7.76h-1.21v-6h0l-4.12,6Z" style="fill: #aaa"/>
    <path d="M270,78.16V70.4h1.22v3.18h4.31V70.4h1.22v7.76h-1.22V74.74h-4.3v3.41Z" style="fill: #aaa"/>
    <path d="M279,78.16V70.4h1.22v3.18h4.31V70.4h1.22v7.76h-1.22V74.74h-4.31v3.41Z" style="fill: #aaa"/>
    <path d="M289.1,77.08a3.7,3.7,0,0,1-.85-1.25,3.64,3.64,0,0,1-.27-1.48,3.73,3.73,0,0,1,.26-1.51,3.82,3.82,0,0,1,.84-1.29,3.93,3.93,0,0,1,1.29-.86,4,4,0,0,1,3.07,0,3.94,3.94,0,0,1,1.29.86,3.82,3.82,0,0,1,.84,1.29,3.77,3.77,0,0,1,.26,1.51,3.83,3.83,0,0,1-.7,2.11,4,4,0,0,1-1.76,1.39,4.09,4.09,0,0,1-2.26.23A4,4,0,0,1,289.1,77.08Zm.86-4.7a2.67,2.67,0,0,0-.59.9,3.1,3.1,0,0,0,0,2.1,2.68,2.68,0,0,0,.59.9,2.85,2.85,0,0,0,3.9,0,2.66,2.66,0,0,0,.59-.9,3.1,3.1,0,0,0,0-2.1,2.66,2.66,0,0,0-.59-.9,2.85,2.85,0,0,0-3.9,0Z" style="fill: #aaa"/>
    <path d="M298.09,78.16V70.4h4a2.73,2.73,0,0,1,1.79.54,1.77,1.77,0,0,1,.49.63,1.69,1.69,0,0,1,.16.77,2.14,2.14,0,0,1-.11.7,1.41,1.41,0,0,1-.63.79,1.4,1.4,0,0,1-.31.16l-.17,0,.2,0a1.66,1.66,0,0,1,.38.17,2.67,2.67,0,0,1,.43.32,1.53,1.53,0,0,1,.37.54,2,2,0,0,1,.15.79,2,2,0,0,1-.17.9,2.1,2.1,0,0,1-.55.74,3,3,0,0,1-2,.62Zm1.29-4.57H302c.82,0,1.22-.34,1.22-1s-.39-1-1.21-1h-2.6Zm0,3.41h2.68a1.67,1.67,0,0,0,1.09-.31,1.21,1.21,0,0,0,.28-.39,1.15,1.15,0,0,0,0-.92,1.21,1.21,0,0,0-.28-.39,1.67,1.67,0,0,0-1.09-.31h-2.68Z" style="fill: #aaa"/>
    <path d="M307.07,77.05a4,4,0,0,1,0-5.54,3.56,3.56,0,0,1,1.22-.83,3.73,3.73,0,0,1,1.47-.28,3.59,3.59,0,0,1,1.67.36,2.86,2.86,0,0,1,1,.79l.14.22V70.53h1.25V78h-1.25V76.81l-.14.21a2.73,2.73,0,0,1-1,.77,3.64,3.64,0,0,1-1.71.37,3.73,3.73,0,0,1-1.46-.28A3.56,3.56,0,0,1,307.07,77.05Zm.94-4.77a2.94,2.94,0,0,0,0,4,2.68,2.68,0,0,0,.88.58,2.8,2.8,0,0,0,2.09,0,2.66,2.66,0,0,0,.88-.58,2.94,2.94,0,0,0,0-4,2.66,2.66,0,0,0-.88-.58,2.8,2.8,0,0,0-2.09,0A2.68,2.68,0,0,0,308,72.28Z" style="fill: #aaa"/>
    <path d="M316.08,78.51V70.4h1.28v6.89h4.19V70.4h1.28v6.89h1.13v3.08h-1.28V78.51Z" style="fill: #aaa"/>
    <path d="M325.07,78.16V70.4h1.21v6h0l4.12-6h1.38v7.76H330.6v-6h0l-4.12,6Z" style="fill: #aaa"/>
    <path d="M335.18,77.08a3.73,3.73,0,0,1-.85-1.25,3.66,3.66,0,0,1-.27-1.48,3.77,3.77,0,0,1,.26-1.51,3.82,3.82,0,0,1,.84-1.29,3.94,3.94,0,0,1,1.29-.86,4,4,0,0,1,3.07,0,3.94,3.94,0,0,1,1.29.86,3.82,3.82,0,0,1,.84,1.29,3.73,3.73,0,0,1,.26,1.51,3.83,3.83,0,0,1-.7,2.11,4,4,0,0,1-1.76,1.39,4.09,4.09,0,0,1-2.26.23A4,4,0,0,1,335.18,77.08Zm.86-4.7a2.66,2.66,0,0,0-.59.9,3.1,3.1,0,0,0,0,2.1,2.66,2.66,0,0,0,.59.9,2.85,2.85,0,0,0,3.9,0,2.66,2.66,0,0,0,.59-.9,3.11,3.11,0,0,0,0-2.1,2.67,2.67,0,0,0-.59-.9,2.85,2.85,0,0,0-3.9,0Z" style="fill: #aaa"/>
    <path d="M344.18,78.16V70.4h1.22v3.18h4.31V70.4h1.22v7.76H349.7V74.74h-4.3v3.41Z" style="fill: #aaa"/>
    <path d="M353.17,78.16V70.4h1.22v3.18h4.31V70.4h1.22v7.76h-1.22V74.74h-4.31v3.41Z" style="fill: #aaa"/>
    <path d="M362.16,78.15V70.4h1.34V73h2a3.52,3.52,0,0,1,2.31.74,2.47,2.47,0,0,1,.66.82,2.26,2.26,0,0,1,0,2,2.46,2.46,0,0,1-.66.82,3.52,3.52,0,0,1-2.31.74ZM363.49,77h2a2.13,2.13,0,0,0,1.37-.39,1.36,1.36,0,0,0,.36-.46,1.25,1.25,0,0,0,0-1.1,1.36,1.36,0,0,0-.36-.46,2.16,2.16,0,0,0-1.37-.41h-2Zm6.32,1.16V70.4h1.34v7.75Z" style="fill: #aaa"/>
    <path d="M373.4,78.16V70.24h1.21v6.1h0l4.12-6.1h1.38v7.91h-1.21v-6.1h0l-4.12,6.1Zm1.1-11.08h1.15a.89.89,0,0,0,.07.38.87.87,0,0,0,.22.31,1.53,1.53,0,0,0,1.72,0,.86.86,0,0,0,.22-.31.88.88,0,0,0,.07-.38h1.15a1.85,1.85,0,0,1-.15.79,1.81,1.81,0,0,1-.47.65,2.83,2.83,0,0,1-3.37,0,1.8,1.8,0,0,1-.47-.65A1.86,1.86,0,0,1,374.5,67.07Z" style="fill: #aaa"/>
    <path d="M261,91.45V83.7h1.19v3.1h1.5l2.4-3.1h1.42l-2.78,3.65,3,4.1h-1.49l-2.55-3.49h-1.5v3.49Z" style="fill: #aaa"/>
    <path d="M267.75,91.45,270,83.7h3.38l2.24,7.76h-1.38l-1.84-6.59H271l-1.84,6.59Z" style="fill: #aaa"/>
    <path d="M277.84,90.34a4,4,0,0,1,0-5.53,3.55,3.55,0,0,1,1.22-.83,3.73,3.73,0,0,1,1.47-.28,3.65,3.65,0,0,1,1.67.36,3,3,0,0,1,1,.79l.14.23V83.83h1.26v7.48h-1.26V90.12l-.14.21a2.74,2.74,0,0,1-1,.76,3.68,3.68,0,0,1-1.71.36,3.74,3.74,0,0,1-1.48-.28A3.56,3.56,0,0,1,277.84,90.34Zm.93-4.76a3,3,0,0,0,0,4,2.68,2.68,0,0,0,.88.57,2.82,2.82,0,0,0,2.09,0,2.69,2.69,0,0,0,.88-.57,3,3,0,0,0,0-4,2.68,2.68,0,0,0-.88-.57,2.81,2.81,0,0,0-2.09,0A2.66,2.66,0,0,0,278.77,85.58Z" style="fill: #aaa"/>
    <path d="M288,90.35a3.92,3.92,0,0,1,0-5.54,4.09,4.09,0,0,1,1.38-.85,4.31,4.31,0,0,1,3.24.11,4,4,0,0,1,1.31.94,3.66,3.66,0,0,1,.72,1.3H293.4a2.43,2.43,0,0,0-.54-.76,2.71,2.71,0,0,0-.93-.57,2.85,2.85,0,0,0-1.1-.17,2.67,2.67,0,0,0-1.06.2,2.52,2.52,0,0,0-.87.59,2.69,2.69,0,0,0-.77,2,2.66,2.66,0,0,0,.8,2,2.55,2.55,0,0,0,.86.58,2.7,2.7,0,0,0,1,.2,2.81,2.81,0,0,0,1.15-.19,2.65,2.65,0,0,0,1-.63,2.31,2.31,0,0,0,.53-.8h1.26a3.62,3.62,0,0,1-.73,1.39,3.89,3.89,0,0,1-1.41,1,4.14,4.14,0,0,1-1.75.34,4,4,0,0,1-1.54-.27A3.79,3.79,0,0,1,288,90.35Z" style="fill: #aaa"/>
    <path d="M294.72,84.86V83.7h6.74v1.16h-2.74v6.59h-1.24V84.86Z" style="fill: #aaa"/>
    <path d="M303.71,90.35a4,4,0,0,1,0-5.54A3.79,3.79,0,0,1,305,84a3.89,3.89,0,0,1,1.52-.27A4,4,0,0,1,308,84a3.86,3.86,0,0,1,1.29.83,3.72,3.72,0,0,1,.85,1.25,3.6,3.6,0,0,1,.27,1.47v.43h-6.63a2.66,2.66,0,0,0,2.7,2.38,3,3,0,0,0,2-.67,2.36,2.36,0,0,0,.59-.67h1.22a3.82,3.82,0,0,1-1.48,1.81,4,4,0,0,1-2.29.65,3.9,3.9,0,0,1-1.52-.27A3.79,3.79,0,0,1,303.71,90.35Zm.14-3.44h5.3a2.39,2.39,0,0,0-.84-1.48,2.64,2.64,0,0,0-1.78-.61,2.71,2.71,0,0,0-1.79.61A2.44,2.44,0,0,0,303.85,86.91Z" style="fill: #aaa"/>
    <path d="M312.71,94.78V83.87H314v1.25l.16-.24a2.72,2.72,0,0,1,1-.8,3.45,3.45,0,0,1,1.71-.39,3.56,3.56,0,0,1,2.69,1.18,4.44,4.44,0,0,1,0,5.84,3.78,3.78,0,0,1-4.4.79,2.46,2.46,0,0,1-1-.81l-.16-.22v4.3Zm2-9.06a3.26,3.26,0,0,0,0,4.21,2.66,2.66,0,0,0,3.84,0,3.26,3.26,0,0,0,0-4.21,2.65,2.65,0,0,0-3.84,0Z" style="fill: #aaa"/>
    <g>
      <path d="M250.27,48.25V96.46H231.61V86.88a48.25,48.25,0,0,0,4.48-4A49.38,49.38,0,0,0,250.27,48.25Z" style="fill: #aaa"/>
      <path d="M220.57,48.25v23.4a29.25,29.25,0,0,1-9,5.07A49.46,49.46,0,0,0,220.57,48.25Z" style="fill: #aaa"/>
      <path d="M250.27,48.25a49.38,49.38,0,0,1-14.17,34.62,48.26,48.26,0,0,1-34.18,14.37V86.89a48,48,0,0,1-29.7,10.36V78.36a29.55,29.55,0,0,0,21-8.84,30.34,30.34,0,0,0,8.7-21.27h18.65a49.46,49.46,0,0,1-9,28.47,29.25,29.25,0,0,0,9-5.07,27.7,27.7,0,0,0,2.35-2.13,30.34,30.34,0,0,0,8.7-21.27Z" style="fill: #aaa;opacity: 0.6000000000000001"/>
      <path d="M220.57,48.23v0H201.92v0Z" style="fill: #aaa"/>
      <path d="M250.27,48.23v0H231.61v0Z" style="fill: #aaa"/>
    </g>
  </g>
  <g>
    <path d="M452.82,188.15A2.63,2.63,0,0,0,450,185.9c-1.28,0-3.2.91-3.2,4.5,0,2.28,1,4.39,3.2,4.39a2.76,2.76,0,0,0,2.82-2.45h2.65A5.28,5.28,0,0,1,450,197c-3.38,0-5.8-2.3-5.8-6.68s2.56-6.71,5.83-6.71c3.81,0,5.34,2.63,5.49,4.5h-2.65Z" style="fill: #aaa"/>
    <path d="M458.71,190.86l3.11-3.58h3l-3.31,3.64,3.4,5.78h-3l-2.25-4-1,1.07v3h-2.47v-9.43h2.47v3.58Z" style="fill: #aaa"/>
    <path d="M474,192a4.81,4.81,0,1,1-4.8-4.94A4.59,4.59,0,0,1,474,192m-7.08,0c0,1.21.37,2.89,2.28,2.89s2.26-1.66,2.26-2.87-.35-2.87-2.26-2.87-2.28,1.64-2.28,2.85" style="fill: #aaa"/>
    <path d="M483.28,187.28v9.43h-2.47v-7.44h-2.64v2.91c0,3.61-1.09,4.74-2.82,4.74a5.34,5.34,0,0,1-1.5-.21v-1.84a2.45,2.45,0,0,0,.73.07c.74,0,1.13-.37,1.13-3.24v-4.42h7.58Z" style="fill: #aaa"/>
    <path d="M487,190.86l3.11-3.58h3l-3.31,3.64,3.4,5.78h-3l-2.24-4-1,1.07v3h-2.47v-9.43H487Z" style="fill: #aaa"/>
    <path d="M502.29,192a4.81,4.81,0,1,1-4.8-4.94,4.59,4.59,0,0,1,4.8,4.94m-7.07,0c0,1.21.37,2.89,2.28,2.89s2.26-1.66,2.26-2.87-.36-2.87-2.26-2.87-2.28,1.64-2.28,2.85" style="fill: #aaa"/>
    <path d="M503.09,187.28h4.26c2.11,0,3.65.86,3.65,2.44a2.1,2.1,0,0,1-1.76,2,2.36,2.36,0,0,1,2,2.39c0,1.75-1.32,2.57-3.46,2.57h-4.72Zm2.47,3.82h1.61c.82,0,1.4-.33,1.4-1.07s-.56-1-1.38-1h-1.63Zm0,3.91h1.82c.91,0,1.48-.28,1.48-1.21s-.6-1.2-1.51-1.2h-1.79Z" style="fill: #aaa"/>
    <path d="M521.16,192a4.81,4.81,0,1,1-4.8-4.94,4.58,4.58,0,0,1,4.8,4.94m-7.08,0c0,1.21.37,2.89,2.28,2.89s2.26-1.66,2.26-2.87-.35-2.87-2.26-2.87-2.28,1.64-2.28,2.85" style="fill: #aaa"/>
    <path d="M462.12,181.52c2.11,0,7.29-.37,11.17-3.2v2.15h7.82V171l3.27-3.38,7.11,12.82h9.38L490.1,162.16l10.49-11.54H491l-9.87,11.33V140.18h-7.83v3.44c-2.38-2.56-6.25-4.49-12.27-4.49-13,0-15.49,7.93-15.49,12.37,0,6.1,3.28,9.49,9,10.88l8.1,2c4.27,1.06,7.33,1.83,7.33,5,0,4.22-4.44,5.22-8.44,5.22-7.33,0-8.54-4.27-8.54-6.55h-8c0,5,2.55,13.48,17.2,13.48m5.33-24-9.82-2.39c-1.67-.39-4.28-1.06-4.28-4.21,0-3.61,3.83-4.83,7-4.83,7.33,0,8,4.28,8.21,6.11h4.67v7.51a22.5,22.5,0,0,0-5.84-2.18" style="fill: #aaa"/>
  </g>
  <g>
    <g>
      <path d="M598.35,60.54v-2.1h.39c.4-.27.51-.72.56-1.48l.19-3.2h4.06v4.69h.71v2.1h-1.07V59.43h-3.76v1.12ZM600,58.38v.07h2.33V54.74h-1.83L600.4,57A2.3,2.3,0,0,1,600,58.38Z" style="fill: #aaa"/>
      <path d="M605.22,53.76H609v1h-2.57V56.1h2.42V57h-2.42v1.43H609v1h-3.75Z" style="fill: #aaa"/>
      <path d="M614,59.43V54.74h-2.54v4.69h-1.18V53.76h4.9v5.66Z" style="fill: #aaa"/>
      <path d="M618.16,53.76h1.4l2,5.66h-1.25L619.85,58h-2l-.42,1.38h-1.24Zm0,3.4h1.46l-.69-2.27h-.07Z" style="fill: #aaa"/>
      <path d="M622.53,53.76h2.34a1.85,1.85,0,0,1,2,1.93h0a1.85,1.85,0,0,1-2,1.94h-1.15v1.79h-1.18Zm1.18.94v2h.86a1,1,0,0,0,1.08-1h0a1,1,0,0,0-1.08-1Z" style="fill: #aaa"/>
      <path d="M629.23,54.74h-1.7v-1h4.59v1h-1.7v4.69h-1.18Z" style="fill: #aaa"/>
      <path d="M634.2,53.76h1.4l2,5.66h-1.25L635.9,58h-2l-.42,1.38h-1.24Zm0,3.4h1.46l-.69-2.27h-.07Z" style="fill: #aaa"/>
      <path d="M638.57,53.76h1.36l1.57,4.15h.07l1.57-4.15h1.36v5.66h-1.06V55.57h-.08l-1.45,3.86h-.74l-1.45-3.86h-.08v3.86h-1.05Z" style="fill: #aaa"/>
      <path d="M645.9,53.76h3.75v1h-2.57V56.1h2.42V57h-2.42v1.43h2.57v1H645.9Z" style="fill: #aaa"/>
      <path d="M650.95,53.76h1.18v2.3h2.55v-2.3h1.18v5.66h-1.18V57h-2.55v2.39h-1.18Z" style="fill: #aaa"/>
      <path d="M658.66,54.74H657v-1h4.59v1h-1.7v4.69h-1.18Z" style="fill: #aaa"/>
      <path d="M602.64,69V64.33h-2.53V69h-1.18V63.35h4.9V69Z" style="fill: #aaa"/>
      <path d="M605.24,63.35h2.33a1.85,1.85,0,0,1,2,1.94h0a1.85,1.85,0,0,1-2,1.94h-1.15V69h-1.18Zm1.18.94v2h.86a1,1,0,0,0,1.08-1h0a1,1,0,0,0-1.08-1Z" style="fill: #aaa"/>
      <path d="M610.7,63.35h3.75v1h-2.57V65.7h2.42v.91h-2.42V68h2.57v1H610.7Z" style="fill: #aaa"/>
      <path d="M615.18,70.14V68h.39c.4-.27.51-.72.56-1.48l.19-3.2h4.06V68h.71v2.1H620V69h-3.76v1.12ZM616.87,68V68h2.33V64.33h-1.83l-.15,2.31A2.29,2.29,0,0,1,616.87,68Z" style="fill: #aaa"/>
      <path d="M625.78,69V64.33h-2.54V69h-1.18V63.35H627V69Z" style="fill: #aaa"/>
      <path d="M628.38,63.35h2.34a1.85,1.85,0,0,1,2,1.94h0a1.85,1.85,0,0,1-2,1.94h-1.15V69h-1.18Zm1.18.94v2h.86a1,1,0,0,0,1.08-1h0a1,1,0,0,0-1.08-1Z" style="fill: #aaa"/>
      <path d="M633.84,63.35H635v3.79h.08l2.55-3.79h1.14V69H637.6V65.23h-.07L635,69h-1.14Z" style="fill: #aaa"/>
      <path d="M640.2,63.35h1.18v2.3h2.55v-2.3h1.18V69h-1.18V66.63h-2.55V69H640.2Z" style="fill: #aaa"/>
      <path d="M646.53,63.35h1.18v3.79h.08l2.55-3.79h1.13V69h-1.18V65.23h-.08L647.67,69h-1.14Z" style="fill: #aaa"/>
      <path d="M652.89,63.35h1.36l1.57,4.15h.07l1.56-4.15h1.36V69h-1.05V65.16h-.08L656.22,69h-.74L654,65.16h-.08V69h-1.05Z" style="fill: #aaa"/>
      <path d="M661.78,63.35h1.4l2,5.66H663.9l-.42-1.37h-2L661.06,69h-1.24Zm0,3.4h1.46l-.69-2.27h-.07Z" style="fill: #aaa"/>
      <path d="M667,64.33h-1.7v-1h4.59v1h-1.7V69H667Z" style="fill: #aaa"/>
      <path d="M670.94,63.35h3.75v1h-2.57V65.7h2.42v.91h-2.42V68h2.57v1h-3.75Z" style="fill: #aaa"/>
      <path d="M675.42,69V68a1.43,1.43,0,0,0,.26,0c.58,0,.71-.56.75-1.31l.17-3.35h3.94V69h-1.18V64.33h-1.7l-.13,2.45c-.08,1.4-.5,2.29-1.68,2.29A1.61,1.61,0,0,1,675.42,69Z" style="fill: #aaa"/>
      <path d="M681.82,63.35H683v1.9h1.1a1.86,1.86,0,0,1,2,1.88h0a1.83,1.83,0,0,1-2,1.88h-2.34ZM683,66.18v1.88h.84c.68,0,1.07-.33,1.07-.93h0c0-.61-.39-.94-1.07-.94Z" style="fill: #aaa"/>
      <path d="M687.14,66.18h0c0-1.84,1-3,2.66-3a2.32,2.32,0,0,1,2.46,2.05v0h-1.15v0a1.28,1.28,0,0,0-1.31-1.07c-.89,0-1.44.75-1.44,2h0c0,1.22.56,2,1.45,2a1.25,1.25,0,0,0,1.3-1v0h1.15v0a2.27,2.27,0,0,1-2.46,2C688.16,69.16,687.14,68,687.14,66.18Z" style="fill: #aaa"/>
      <path d="M694.56,64.33h-1.7v-1h4.59v1h-1.7V69h-1.18Z" style="fill: #aaa"/>
      <path d="M698.54,63.35H701c1.1,0,1.75.54,1.75,1.41h0a1.23,1.23,0,0,1-1,1.21V66A1.35,1.35,0,0,1,703,67.39h0c0,1-.75,1.62-2,1.62h-2.54Zm1.18.88v1.48h.89c.64,0,1-.27,1-.73h0c0-.46-.32-.73-.89-.73Zm0,2.26v1.64h1.05c.69,0,1.05-.29,1.05-.83h0c0-.53-.38-.81-1.08-.81Z" style="fill: #aaa"/>
      <path d="M705.66,63.35h1.4L709,69h-1.25l-.42-1.37h-2L704.94,69H703.7Zm0,3.4h1.46l-.69-2.27h-.07Z" style="fill: #aaa"/>
      <path d="M598.92,72.94h1.18v3.79h.08l2.55-3.79h1.14v5.66h-1.18V74.82h-.07l-2.55,3.78h-1.14Z" style="fill: #aaa"/>
      <path d="M607.34,72.94h1.18v3.79h.08l2.55-3.79h1.14v5.66H611.1V74.82H611l-2.55,3.78h-1.14Z" style="fill: #aaa"/>
      <path d="M613.7,72.94h1.18v2.3h2.55v-2.3h1.18v5.66h-1.18V76.22h-2.55v2.39H613.7Z" style="fill: #aaa"/>
      <path d="M620,72.94h1.18v2.3h2.55v-2.3H625v5.66h-1.18V76.22h-2.55v2.39H620Z" style="fill: #aaa"/>
      <path d="M626.12,75.78h0a2.74,2.74,0,1,1,5.45,0h0a2.74,2.74,0,1,1-5.45,0Zm4.24,0h0c0-1.2-.6-2-1.52-2s-1.52.77-1.52,2h0c0,1.2.59,2,1.52,2S630.37,77,630.37,75.78Z" style="fill: #aaa"/>
      <path d="M632.73,72.94h2.48c1.1,0,1.75.54,1.75,1.41h0a1.22,1.22,0,0,1-1,1.2v.07a1.35,1.35,0,0,1,1.3,1.35h0c0,1-.75,1.62-2,1.62h-2.54Zm1.18.88V75.3h.89c.64,0,1-.27,1-.74h0c0-.46-.32-.73-.89-.73Zm0,2.26v1.64H635c.68,0,1-.29,1-.83h0c0-.52-.38-.81-1.08-.81Z" style="fill: #aaa"/>
      <path d="M639.86,72.94h1.4l2,5.66H642l-.42-1.38h-2l-.42,1.38h-1.24Zm0,3.4h1.46l-.69-2.27h-.07Z" style="fill: #aaa"/>
      <path d="M648.78,78.61h-4.55V72.94h1.18v4.69h2.53V72.94h1.19v4.69h.71v2.1h-1.07Z" style="fill: #aaa"/>
      <path d="M650.81,72.94H652v3.79h.08l2.55-3.79h1.14v5.66h-1.18V74.82h-.07l-2.55,3.78h-1.14Z" style="fill: #aaa"/>
      <path d="M656.91,75.78h0a2.74,2.74,0,1,1,5.45,0h0a2.74,2.74,0,1,1-5.45,0Zm4.24,0h0c0-1.2-.6-2-1.52-2s-1.52.77-1.52,2h0c0,1.2.59,2,1.52,2S661.16,77,661.16,75.78Z" style="fill: #aaa"/>
      <path d="M663.53,72.94h1.18v2.3h2.55v-2.3h1.18v5.66h-1.18V76.22h-2.55v2.39h-1.18Z" style="fill: #aaa"/>
      <path d="M669.87,72.94h1.18v2.3h2.55v-2.3h1.18v5.66h-1.18V76.22h-2.55v2.39h-1.18Z" style="fill: #aaa"/>
      <path d="M676,75.78h0a2.74,2.74,0,1,1,5.45,0h0a2.74,2.74,0,1,1-5.45,0Zm4.24,0h0c0-1.2-.6-2-1.52-2s-1.52.77-1.52,2h0c0,1.2.59,2,1.52,2S680.2,77,680.2,75.78Z" style="fill: #aaa"/>
      <path d="M682.57,78.61V72.94h3.65v1h-2.47v4.69Z" style="fill: #aaa"/>
      <path d="M686.86,75.78h0a2.74,2.74,0,1,1,5.45,0h0a2.74,2.74,0,1,1-5.45,0Zm4.24,0h0c0-1.2-.6-2-1.52-2s-1.52.77-1.52,2h0c0,1.2.59,2,1.52,2S691.11,77,691.11,75.78Z" style="fill: #aaa"/>
      <path d="M695.54,72.94h2.33a1.85,1.85,0,0,1,2,1.93h0a1.85,1.85,0,0,1-2,1.94h-1.15v1.79h-1.18Zm1.18.94v2h.86a1,1,0,0,0,1.08-1h0a1,1,0,0,0-1.08-1Z" style="fill: #aaa"/>
      <path d="M702.1,72.94h1.4l2,5.66h-1.25l-.42-1.38h-2l-.42,1.38h-1.24Zm0,3.4h1.46l-.69-2.27h-.07Z" style="fill: #aaa"/>
      <path d="M707.48,75.27h.75c.59,0,1-.31,1-.78h0c0-.44-.35-.7-.93-.7s-1,.27-1,.73v0h-1.1v0c.05-1,.87-1.69,2.13-1.69s2,.62,2,1.54h0a1.31,1.31,0,0,1-1.07,1.28v.07A1.31,1.31,0,0,1,710.52,77h0c0,1-1,1.71-2.27,1.71S706.06,78,706,77v0h1.14v0c0,.47.46.75,1.1.75s1-.31,1-.8h0c0-.47-.39-.77-1.07-.77h-.76Z" style="fill: #aaa"/>
      <path d="M711.65,72.94h2.48c1.1,0,1.75.54,1.75,1.41h0a1.22,1.22,0,0,1-1,1.2v.07a1.35,1.35,0,0,1,1.3,1.35h0c0,1-.75,1.62-2,1.62h-2.54Zm1.18.88V75.3h.89c.64,0,1-.27,1-.74h0c0-.46-.32-.73-.89-.73Zm0,2.26v1.64h1.06c.68,0,1-.29,1-.83h0c0-.52-.38-.81-1.08-.81Z" style="fill: #aaa"/>
      <path d="M717.27,72.94h1.18v3.79h.08l2.55-3.79h1.14v5.66H721V74.82H721l-2.55,3.78h-1.14Z" style="fill: #aaa"/>
      <path d="M725,73.92h-1.7v-1h4.59v1h-1.7v4.69H725Z" style="fill: #aaa"/>
      <path d="M729,72.94h1.18v3.79h.08l2.55-3.79h1.14v5.66h-1.18V74.82h-.07l-2.55,3.78H729Z" style="fill: #aaa"/>
      <path d="M738.41,78.61v-2h-.79l-1.35,2H735l1.49-2.21a1.67,1.67,0,0,1-1.22-1.62h0a1.83,1.83,0,0,1,2.06-1.83h2.3v5.66Zm0-4.73h-1c-.63,0-1,.34-1,.9h0c0,.57.38.9,1,.9h1Z" style="fill: #aaa"/>
      <path d="M599,88.2V82.53h3.36v.63h-2.66v5Z" style="fill: #aaa"/>
      <path d="M603,85.37h0c0-1.82,1-3,2.6-3s2.6,1.15,2.6,3h0c0,1.81-1,3-2.6,3S603,87.18,603,85.37Zm4.47,0h0c0-1.41-.72-2.31-1.88-2.31s-1.88.9-1.88,2.31h0c0,1.4.7,2.31,1.88,2.31S607.46,86.77,607.46,85.37Z" style="fill: #aaa"/>
      <path d="M609.46,82.53h2.14a1.73,1.73,0,0,1,1.82,1.81h0a1.75,1.75,0,0,1-1.82,1.83h-1.43v2h-.7Zm.7.63v2.39h1.25a1.13,1.13,0,0,0,1.27-1.19h0a1.13,1.13,0,0,0-1.27-1.19Z" style="fill: #aaa"/>
      <path d="M614.39,85.37h0c0-1.82,1-3,2.6-3s2.6,1.15,2.6,3h0c0,1.81-1,3-2.6,3S614.39,87.18,614.39,85.37Zm4.47,0h0c0-1.41-.72-2.31-1.88-2.31s-1.88.9-1.88,2.31h0c0,1.4.7,2.31,1.88,2.31S618.86,86.77,618.86,85.37Z" style="fill: #aaa"/>
      <path d="M620.09,89.32V87.56h.42c.41-.22.57-.72.61-1.46l.22-3.56h3.59v5h.71v1.76H625V88.2h-4.23v1.12Zm1.3-1.8v0h2.83V83.17H622l-.18,2.95A2.3,2.3,0,0,1,621.39,87.52Z" style="fill: #aaa"/>
      <path d="M628.27,82.53h.7l2.09,5.66h-.74l-.57-1.62h-2.26l-.57,1.62h-.74ZM627.7,86h1.84l-.89-2.53h-.06Z" style="fill: #aaa"/>
      <path d="M634.34,82.53h.82l1.94,4.73h.06l1.94-4.73h.82V88.2h-.66V83.87h0l-1.79,4.33h-.6L635,83.87h0V88.2h-.66Z" style="fill: #aaa"/>
      <path d="M641.18,85.37h0c0-1.82,1-3,2.6-3s2.6,1.15,2.6,3h0c0,1.81-1,3-2.6,3S641.18,87.18,641.18,85.37Zm4.47,0h0c0-1.41-.72-2.31-1.88-2.31s-1.88.9-1.88,2.31h0c0,1.4.7,2.31,1.88,2.31S645.66,86.77,645.66,85.37Z" style="fill: #aaa"/>
      <path d="M647.43,85.37h0c0-1.82,1-3,2.49-3a2.21,2.21,0,0,1,2.29,1.84h-.72a1.56,1.56,0,0,0-1.57-1.18c-1.09,0-1.77.9-1.77,2.31h0c0,1.42.68,2.31,1.77,2.31a1.51,1.51,0,0,0,1.57-1.06h.72a2.15,2.15,0,0,1-2.29,1.71C648.39,88.33,647.43,87.19,647.43,85.37Z" style="fill: #aaa"/>
      <path d="M653.45,88.2V82.53h.7V85h.21l2.34-2.49h.89L655,85.25l2.84,2.94h-.94l-2.52-2.61h-.21V88.2Z" style="fill: #aaa"/>
      <path d="M658.79,82.53H661c1,0,1.67.55,1.67,1.41h0a1.25,1.25,0,0,1-1,1.22v.06a1.34,1.34,0,0,1,1.26,1.38h0c0,1-.71,1.59-1.92,1.59h-2.21Zm.7.62V85h1.13c.86,0,1.29-.31,1.29-.9h0c0-.57-.41-.91-1.11-.91Zm0,2.43v2h1.4c.85,0,1.3-.35,1.3-1h0c0-.65-.46-1-1.36-1Z" style="fill: #aaa"/>
      <path d="M664.12,82.53h.7v2.1h1.39A1.73,1.73,0,0,1,668,86.42h0a1.72,1.72,0,0,1-1.81,1.77h-2.1Zm.7,2.73v2.29H666c.81,0,1.27-.41,1.27-1.14h0c0-.73-.47-1.15-1.27-1.15Zm4.26-2.73h.7V88.2h-.7Z" style="fill: #aaa"/>
    </g>
    <g>
      <g>
        <path d="M573.27,57a1.62,1.62,0,0,0,.35.05.42.42,0,0,1,.48.39c.08.37,0,.59-.27.7l-.16.06a1.07,1.07,0,0,0,.13.38,1.51,1.51,0,0,1,.27,1.25c0,.42,0,.84,0,1.26a.71.71,0,0,0,.06.18l.35-.23a1.5,1.5,0,0,1,1.35-.3,5.89,5.89,0,0,0,1.54,0c.15,0,.16-.1.09-.21l-.28-.41a3.77,3.77,0,0,1,.55.08c.26.08.39,0,.39-.38a9.7,9.7,0,0,1,.76.63.38.38,0,0,0,.45.13,1.06,1.06,0,0,1,1.37.74l-.21,0a9,9,0,0,0,1.13,2.05,1.58,1.58,0,0,0,.53.46.4.4,0,0,1,.23.37,4.25,4.25,0,0,1,0,.52.52.52,0,0,1-.19.33c-.06,0-.21,0-.3-.08a1.76,1.76,0,0,1-.25-.18l.09.38a1.58,1.58,0,0,1-.43-.08,3.83,3.83,0,0,1-.52-.36,2.11,2.11,0,0,0-1.26-.32c-.22,0-.24.15-.2.3a5.92,5.92,0,0,0,.26.81c.25.58.5,1.16.77,1.73a4,4,0,0,0,.45.65c.33.43.69.84,1,1.29A2.54,2.54,0,0,1,582,70c.08.33.15.41.43.23a11.65,11.65,0,0,0,1.14-.81c.29-.23.53-.23.68.11a6.55,6.55,0,0,0,1.55,2.12.87.87,0,0,1,.25.62c0,.36.13.71.17,1.08a8.08,8.08,0,0,1,0,1c0,.18-.13.19-.25.11a8.41,8.41,0,0,1-.69-.55c-.22-.2-.08-.41.06-.55a.66.66,0,0,0,.11-.92,1.64,1.64,0,0,0-.2-.21c-.07-.08-.2-.17-.19-.24.08-.41-.26-.57-.46-.81a3,3,0,0,0-.58-.5c-.07-.05-.24-.08-.29,0-.56.51-1.11,1-1.66,1.55l.06.12a4.71,4.71,0,0,0,.69-.06.54.54,0,0,1,.69.31A6.48,6.48,0,0,0,585,74.64a.8.8,0,0,1,.16.51,3.36,3.36,0,0,0,.32,1.35,4.46,4.46,0,0,1,.23,1c0,.17,0,.26-.22.18a8.94,8.94,0,0,1-.87-.45.3.3,0,0,1-.08-.45,1.6,1.6,0,0,0,.14-.33.84.84,0,0,0-.21-1c-.2-.19-.38-.36-.24-.69,0-.09-.08-.28-.18-.39-.26-.27-.56-.51-.81-.79a.41.41,0,0,0-.53-.11c-.56.23-1.13.44-1.68.68a6.38,6.38,0,0,1-2.78.72l.86,1.09,0-.06.19.08-.25.15-.14-.17L574.45,70l-6.66-8.85a2.85,2.85,0,0,0-.48-.49.28.28,0,0,0-.28,0s0,.2,0,.28a1.58,1.58,0,0,0,.25.29c-.17.15-.16.44,0,.82l.1-.3h.06l0,.55h0l0-.16h0l.06.38.16-.26.07.42.15-.3.12.63h.05l.08-.56,11,14.35.08,0-.08-.86c.08.12.16.13.3.08.4-.15.51-.09.65.31a6.27,6.27,0,0,0,.28.66.72.72,0,0,0,.52.38,1,1,0,0,1,.56.55,5.18,5.18,0,0,0,.73,1.32c.27.35.25.39-.19.51.05.25,0,.43-.31.47,0,0-.1.13-.09.2a1.48,1.48,0,0,1-.53,1.22c-.44.43-.85.88-1.28,1.32a1.47,1.47,0,0,1-.29.2c-.15.09-.15.19,0,.32a.47.47,0,0,0,.64.12,1.25,1.25,0,0,1,1.23-.05A1.27,1.27,0,0,1,582,84c0,.06,0,.22-.08.35-.12-.13-.2-.26-.32-.32a1.23,1.23,0,0,0-.4-.05c.14.57.13.65-.09.85a.48.48,0,0,0-.64-.35c-.35.09-.05.36-.12.53h-.05a1.16,1.16,0,0,0-1.38-.27,1.13,1.13,0,0,1-1.15-.05,1.92,1.92,0,0,0-1.4.38l-.05.06c-.24-.31-.06-.73.38-.91.14-.05.28-.07.42-.12s.13-.08.13-.12a.26.26,0,0,0-.11-.17c-.24-.15-.24-.15-.2-.4a1,1,0,0,0-1.05.13c-.3.24-.3.24-.48-.12l0,0-.66-.07a4,4,0,0,0-.43-.05,1.66,1.66,0,0,1-1.09-.3.39.39,0,0,0-.61.05c-.13.19-.08.41.17.59s.48.38.81.15c.07,0,.21,0,.32,0a2.35,2.35,0,0,1,.21.12c.25.1.28.15.24.41-.11-.05-.24-.15-.35-.15a1.21,1.21,0,0,0-.48.17c.64.26.73.39.49.8,0-.29-.15-.22-.34-.21a3.93,3.93,0,0,1-1-.09,1.17,1.17,0,0,0-.83,0l.16.53a4.93,4.93,0,0,1-.52-.08,1.1,1.1,0,0,1-.36-.16c-.12-.09-.22-.17-.39-.1s-.24-.06-.31-.14a.78.78,0,0,0-.37-.18,1,1,0,0,0-1,.15.32.32,0,0,1-.29,0c-.28-.19-.45,0-.64.15,0,0-.05,0-.13,0a2.55,2.55,0,0,1,.26-.46,2.88,2.88,0,0,1,.53-.48.69.69,0,0,1,.36-.07c.23,0,.46,0,.69,0s.36-.24.18-.46a1.92,1.92,0,0,0-.31-.31.33.33,0,0,1-.09-.5,3.16,3.16,0,0,1,.39-.46c.23-.23.23-.35,0-.61a.68.68,0,0,1-.09-.38c0-.17-.05-.27-.22-.27h-.67c.06.38.14.73.17,1.08a.92.92,0,0,1-.49.89,2,2,0,0,1-1.77.31,1.31,1.31,0,0,1-.94-1.31c0-.26,0-.51,0-.77s0-.23-.16-.25c-.54-.07-1.08-.17-1.66-.26a1,1,0,0,0,.07.88c.3.48.58,1,.85,1.47a2.22,2.22,0,0,1,.12.39,2.75,2.75,0,0,1-1.32-.14.33.33,0,0,1-.14-.24,1.37,1.37,0,0,1,0-.49,1.21,1.21,0,0,0-.35-1.32c-.38-.36-.37-.38,0-.78.16-.19.15-.31,0-.47a2.06,2.06,0,0,1-.46-2.58c.18-.41.43-.79.64-1.19a1.51,1.51,0,0,0-.07-1.59,1.73,1.73,0,0,0-.18-.2c-.44.43-1,.65-1.29,1.24a4.58,4.58,0,0,0-.47,1.71,2.06,2.06,0,0,1-.14-.23,4.48,4.48,0,0,1-.4-2.14,1.26,1.26,0,0,1,.38-.74,3.7,3.7,0,0,0,.46-.73c.09-.18,0-.31-.19-.42a5.76,5.76,0,0,1-.93-.62,1,1,0,0,1-.17-1.17.87.87,0,0,1,.91-.62c.31,0,.31,0,.26-.46.33.15.45.69.29,1.25l-.52-.43.06-.11c-.43-.09-.68.1-.72.5a.86.86,0,0,0,.46.92l.66.33a4.63,4.63,0,0,1,.74-2A5.36,5.36,0,0,1,564,69.58a2.11,2.11,0,0,1,2.2-.08c.42.19.79.47,1.19.69a.51.51,0,0,0,.32,0c.51-.1,1-.21,1.52-.33.08,0,.22-.1.21-.13a.37.37,0,0,0-.14-.26.29.29,0,0,1-.22-.3c0-.06-.11-.13-.19-.16a2.37,2.37,0,0,1-.46-.21,4,4,0,0,0-4.14-.59l-.33.11-.08-.06c.08-.16.14-.33.23-.49s.47-.45.44-.82c0-.06.1-.13.15-.18s.36-.34.53-.52a.46.46,0,0,0,.08-.56c-.3-.62-.13-1,.53-1.18a8.16,8.16,0,0,0,.86-.29A.74.74,0,0,0,567,64a.57.57,0,0,0,0-.43c0-.07-.21-.11-.32-.12s-.47,0-.75,0a.64.64,0,0,1,.06-.21l.8-.92c.07-.08.16-.18.15-.26,0-.3-.09-.6-.14-.89a.17.17,0,0,0,0-.07c-.28-.34-.55-.69-.84-1a.56.56,0,0,1-.17-.54.84.84,0,0,0-.15-.55c-.31-.46-.66-.89-1-1.33a.89.89,0,0,1-.14-.24.58.58,0,0,1,0-.21l.19.09c-.26,0-.11.13-.06.2l1,1.32c.07.09.15.17.22.25.27-.15.06-.27,0-.4.09.06.18.17.27.17.55,0,.68.42.86.8a.45.45,0,0,0,.21.22.66.66,0,0,1,.47.67c0,.33.25.52.46.72,0,0,.23,0,.32,0,.25-.16.48-.36.73-.53a.65.65,0,0,1,1,.09c-.13,0-.27,0-.4-.06a.65.65,0,0,0-.66.34c.48,0,1-.11,1.32.27,0,0,.1-.08.12-.07.18.08.35.17.52.26a3.94,3.94,0,0,0,.52.27,1.39,1.39,0,0,0,.42,0l-1.84-1,.32,0a1.31,1.31,0,0,1,.4,0c.56.19.77.05.82-.55a3.37,3.37,0,0,1,.08-.71,6.44,6.44,0,0,1,.38-.81l.16-.35a3.08,3.08,0,0,1-2.13-.19V58.1l.57-.06c-.28-.24-.62-.38-.79-.8l.31.11a1.52,1.52,0,0,0,1.52-.12l.51-.32a.67.67,0,0,1,.9.08.88.88,0,0,0-1,.1,4.41,4.41,0,0,1-.4.23,1.7,1.7,0,0,1-1.08.26,5.66,5.66,0,0,1-.57-.14,1.07,1.07,0,0,0,.94.41v.09l-.7.28a.79.79,0,0,0,.15.08,1,1,0,0,0,1.1-.38,1.13,1.13,0,0,1,.83-.48c.36,0,.65,0,.79.41l.18-.14.37.11c0-.15.13-.31.1-.45a.34.34,0,0,0-.42-.29l0,.27ZM571.48,71.4h0l.09-.61h-.09a6.66,6.66,0,0,0-.17,2.51,7.47,7.47,0,0,1,0-2.54,6.77,6.77,0,0,0-.31,2.58,8,8,0,0,1,.13-2.61,5.84,5.84,0,0,0-.32,2.63,6.85,6.85,0,0,1,.11-2.64,1,1,0,0,0-.15.3,7.07,7.07,0,0,0-.18,2.13c0,.51,0,.51.52.45h.11l1.34-.12c.12,0,.3-.08.15-.2s-.12-.27-.12-.41c0-.64,0-1.28,0-1.91h0l-.12,2V70.86a11.38,11.38,0,0,0-.23,2.32V70.87h-.11v2.31H572V70.82a14.77,14.77,0,0,0-.17,2.34V70.83a7.49,7.49,0,0,0-.19,2.35V70.8l-.11.32ZM576,65.73l-.06,0,.43,1-.31-.29-.05,0,.34.68,0,0-.3-.39-.05,0,.29.66,0,0-.26-.31,0,0,.28.68,0,0-.36-.44,0,0,.37.77-.07.07-.37-.42v0l.38.66,0,0-.36-.29,0,0,.2.41,0,0-.36-.32-.05,0,.4.63-.23-.12-.22-.13c.15.41.14.42.5.47s.91.11,1.37.15a17.87,17.87,0,0,0,3,.29L580,69.3l.45.12-.47-.72.44.12L580,68.2l.3,0-.32-.46.38.11c-.07-.21-.13-.39-.19-.55l-1.17-3a.36.36,0,0,0-.11-.15.85.85,0,0,1-.3-1.07,1.89,1.89,0,0,0,.05-.21l.24.6.14-.25.13.51h.06l0-.16c.14.13.25.33.42.39a13,13,0,0,0,1.32.36.52.52,0,0,0,.31,0c.25-.1.36-.06.47.19a.76.76,0,0,0,.19.29,1,1,0,0,0,.3.11l.08-.35-.12-.06-.1.2-.08,0c0-.1,0-.23.1-.29s.1-.33-.08-.39a1.37,1.37,0,0,1-.9-1,1.34,1.34,0,0,0-.13-.24c-.11-.2-.24-.33-.42-.06l-.42-.36.38-.33a.83.83,0,0,0-.14-.09,1.26,1.26,0,0,1-1-.67s-.09-.07-.14-.08a4.57,4.57,0,0,0-.83-.13,1.32,1.32,0,0,0-.67.17c-.13.08-.16.31-.23.46l-.13-.16.08.6-.19-.31h0l.05.38h0l-.15-.33h-.05l.13.63-.27-.43.12.6h0l-.2-.31h0l.13.62-.22-.24,0,0,.13.47,0,0-.24-.3,0,0,.21.52,0,0-.23-.27.17.57h0l-.21-.31h0l.23.6,0,0-.26-.38,0,0,.28.76,0,0-.27-.3-.05,0,.36.73,0,0-.31-.41,0,0,.34.77,0,0-.32-.41-.05,0,.47,1,0,0ZM563.51,81.06l0,0a4.58,4.58,0,0,1,.37.48,1.4,1.4,0,0,1,.21.54c0,.41.13.5.62.43l-.27-.5c-.13-.24-.37-.49-.35-.72a4.37,4.37,0,0,1,.36-1.28,10.69,10.69,0,0,1,.59-1c0-.08.1-.23.06-.27s0-.25,0-.38.13-.38.17-.51l.3-.14.05.2.15-.3.11.13.16-.26.07.26.18-.34.1.26.21-.35.06.14.18-.23,0,.2.29-.46,0,.33.24-.37,0,.32.23-.48.12.13.25-.38.06.11a2.48,2.48,0,0,1,.31-.26c.09-.06.23,0,.32-.11.34-.22.67-.45,1-.7s.39-.37.6-.56l.33-.07.15.27.08-.34.1.42h0l.13-.39.15.33.09-.35.15.25.19-.4.07.31.16-.33.12.21.14-.61c-.65.08-1.26.15-1.86.24a.74.74,0,0,0-.41.22,5.37,5.37,0,0,1-2.76,1.67,2.53,2.53,0,0,1-.3,0l0-.09.45-.36.06.2.28-.54,0,.4.33-.57,0,0v.31h0l.18-.54h0l0,.35h.06l.16-.53h0l0,.37.24-.75h0v.4h0l.15-.68h0l0,.43h.08l.17-.75,0,.56h.08l.08-.69h0l.1.44h.11c.06-1,.11-2,.16-3,0,0-.13-.15-.2-.14-.37,0-.73.11-1.1.16v0l1.28-.32a3,3,0,0,0-2.65,1.09,2,2,0,0,1,.74-.88,2.72,2.72,0,0,1,1.61-.38,2.15,2.15,0,0,0,.38-.06l0-.11a3.56,3.56,0,0,0-2,.31,3.14,3.14,0,0,0-1.24,1.57,2.13,2.13,0,0,1,1.42-1.83,8,8,0,0,1,1.52-.2l.38,0q-.07-.13-.14-.13a7.63,7.63,0,0,0-1.4,0c-1.52.29-2.21,1.5-2.36,3-.08.86-.09,1.72-.12,2.59a1.12,1.12,0,0,1-.48.89,6.28,6.28,0,0,1-.62.41.7.7,0,0,0-.34.58,4.37,4.37,0,0,1-.26,1.14C564.2,79.78,563.85,80.39,563.51,81.06Zm15.9-3.34a3.62,3.62,0,0,0-.28-.84c-.38-.58-.82-1.13-1.23-1.69a.23.23,0,0,0-.35-.06,10.51,10.51,0,0,1-4.72,1.34,1,1,0,0,0-.93.45,4.88,4.88,0,0,1-1,1c-.66.56-.81.61-.11,1.44l0,0a.78.78,0,0,0,.25.06c.34,0,.68-.11,1-.13s.35-.09.22-.33a1.6,1.6,0,0,0-.81-.83L571.2,78l0-.09a4.76,4.76,0,0,1,.65.1,7.45,7.45,0,0,0,2.22.32.33.33,0,0,0,.26-.13c0-.07,0-.19-.07-.29s-.07-.08-.11-.12a1,1,0,0,0-.2-1.19l.18,0a5.06,5.06,0,0,1,1.8,1,.32.32,0,0,0,.45.05,1.91,1.91,0,0,1,1.48-.23.78.78,0,0,1,.58,1.13,4.35,4.35,0,0,0-.16.82c0,.13,0,.29,0,.38a1.76,1.76,0,0,0-.13,1,.72.72,0,0,0,.57.59,2.13,2.13,0,0,0,1.69-1,.4.4,0,0,0,0-.27c0-.13-.13-.25-.18-.38a5.61,5.61,0,0,0-.29-.73c-.23-.39-.5-.75-.75-1.12a.37.37,0,0,1-.06-.09s0-.13,0-.15a.26.26,0,0,1,.17,0A.57.57,0,0,1,579.41,77.72Zm1.26-4.35,0,0,.6.16-.2-.29.57.14,0-.2.53.13-.08-.16a3,3,0,0,0,.56-.15c.28-.13.33-.15.53,0l.39.35a.55.55,0,0,0,0-.69.63.63,0,0,0-.61-.29c-.87.09-1.75.15-2.63.21a.5.5,0,0,1-.37-.13c-.21-.25-.39-.54-.57-.81l.06,0,.26.06-.12-.33.26.06-.06-.32.29,0-.19-.4.25,0c0-.26-.21-.28-.37-.31-.63-.12-1.26-.24-1.89-.34-.43-.07-.85-.11-1.28-.16a.43.43,0,0,0-.13,0l.07.26-.48-.28.2.35-.48-.32,0,0,.18.27,0,0-.41-.34,0,0,.35.51-.22,0,.12.32-.27,0,.11.25-.19,0,1.94,2.42,0-.3.64.59-.17-.43.05,0,.62.56-.18-.54.67.6,0-.06-.28-.42,0,0,.65.44,0,0-.28-.37.73.46,0-.05-.27-.36,0,0,.71.41,0,0-.3-.39.8.34,0-.05ZM564.25,79h.1c.09-.42.19-.83.26-1.26a.52.52,0,0,1,.26-.38c.3-.21.58-.45.85-.69A.84.84,0,0,0,566,76c0-.46,0-.92,0-1.38s0-1.16,0-1.73a4.26,4.26,0,0,1,.58-1.7c.16-.3.12-.38-.21-.39a1.74,1.74,0,0,0-1.47.56,4.35,4.35,0,0,0-1,2.12.44.44,0,0,0,.15.46,2,2,0,0,1,.65,1.3,4.32,4.32,0,0,1-.31,2,7.69,7.69,0,0,0-.34,1.07A.75.75,0,0,0,564.25,79Zm.79-8.88a4.28,4.28,0,0,0-1.56,2.62c-.12.56,0,1.18-.34,1.7a1.25,1.25,0,0,0,.5-.84,5,5,0,0,1,1-2.48,5.12,5.12,0,0,1,.84-.73,1.13,1.13,0,0,1,.33-.1l-.74.51,0,.07.25-.13a1.74,1.74,0,0,1,1.19-.23.89.89,0,0,0,.27,0,1.24,1.24,0,0,0,.27-.11c0-.08-.05-.19-.12-.24a11.41,11.41,0,0,0-1.07-.67,1.59,1.59,0,0,0-.63-.15,2.34,2.34,0,0,0-1.83.85,3,3,0,0,0-.76,1.33l.41-.52.06,0a3.65,3.65,0,0,0-.58,1.75,3.07,3.07,0,0,1-.88,2.1,1.11,1.11,0,0,0-.15,1.12,3.25,3.25,0,0,1,.55-.71,2.82,2.82,0,0,0,1.11-2.23,3.77,3.77,0,0,1,1.48-2.77A2,2,0,0,1,565,70.15Zm4.66,9.16a1.61,1.61,0,0,0-.2-.3,4.92,4.92,0,0,0-.5-.39c-.24-.17-.25-.26-.06-.48s.42-.53.62-.8a.63.63,0,0,0,.1-.31c0-.15-.09-.2-.22-.15-.41.17-.81.37-1.23.53-.71.27-1.42.51-2.13.77-.13,0-.29.08-.36.18-.24.33-.46.68-.68,1a1.51,1.51,0,0,0,.87.25.33.33,0,0,1,.2.07.61.61,0,0,0,.54.13c.12,0,.23,0,.35,0a1,1,0,0,0,.34,0c.54-.2,1.12-.27,1.65-.52A2,2,0,0,1,569.7,79.31Zm-1.53-11.92.42-.31,0,0-.08.32.54-.45-.05.36.05,0,.46-.54.06.31.5-.8-.05-.07a4.53,4.53,0,0,1-2.8.22,2.81,2.81,0,0,1,.59-.35c.32-.15.72-.13,1-.45,0,0,.13,0,.21,0l.13-.28.08.19.21-.3c.21.25.26,0,.36-.09l-.16-.27-.34,0v-.17h-.71l.1-.21-.71.08v-.07l-.73.08v-.07l-.31.16.1-.22c-.26-.08-.45.23-.73,0-.1-.07-.37.1-.55.19a1.3,1.3,0,0,0-.39.28c-.13.15,0,.57.13.6l.11-.19.1.13.08-.15.13.14.08-.14.17.24,0-.27.13.18.1-.12.12.22.09-.26.12.19.13-.22,0,.37.18-.37,0,.29.14-.22.06.31.21-.32.1.08.11-.15.08.21.47-.14a1.41,1.41,0,0,1-.42.36,5,5,0,0,1-1.62.4,7.29,7.29,0,0,0-1.2.36c-.15.06-.24.24-.38.38l.29.09.49-.24.06.17.84-.05v.14l.51-.09v.06l.45.05,0,.07h.6l0,.18.28-.16Zm8.64,14.31.06.06-.57.94.08,0a2.94,2.94,0,0,0,.92-1.17.87.87,0,0,0-.12-1.08.75.75,0,0,1-.21-.81.8.8,0,0,0,0-.38c0-.24-.1-.48-.16-.72a.47.47,0,0,0-.53-.41,4.49,4.49,0,0,0-.57.08,8.71,8.71,0,0,1-2.93.14,2.15,2.15,0,0,0-.3,0l0,.08c.22.09.48.31.66.25s.53.13.81,0,.35.09.53.1.39-.07.55.1h0l0-.18.37.21-.05-.34.29.22,0-.29.24.29.05-.18H576l.05,1,.19-.55a1.08,1.08,0,0,1-.54,1.17,2.16,2.16,0,0,1-.44.16,2.8,2.8,0,0,0-.71.46c.66,0,1.15-.43,1.72-.59l.06.08-.35.41,0-.08-1,.54a1.69,1.69,0,0,0,.69-.09c.35-.15.67-.36,1-.55l.15.53h0l-.1-.14-.17.51-.11-.17-.07.58-.12-.18,0,.09-.34.17,0-.07-.22.49A2.31,2.31,0,0,0,576.81,81.69Zm-3.93-17.52a1.06,1.06,0,0,0,.08.14c0,.05.1.15.13.14s.17-.08.18-.14a4.19,4.19,0,0,0,0-1c0-.15-.25-.26-.41-.42l-.23.43-.25-.41-.21.39a.28.28,0,0,1-.1-.15l-.1-.23-.19.14-.13.06c0-.07-.07-.14-.05-.19s.07-.26-.09-.28a.33.33,0,0,0-.26.17,5.53,5.53,0,0,0-.31.91c-.08.35.08.48.42.36l.07.37c.38.09.16-.4.4-.41l.27.49.23-.32C572.55,64.49,572.55,64.49,572.88,64.18Zm-2.73,10.15.51-.06,1.82-.27c.21,0,.32-.14.29-.42l-2.23.18a.56.56,0,0,1,0-.1c0-.07,0-.15,0-.22a7.72,7.72,0,0,1,.28-2.67c0-.07,0-.15,0-.22s-.17.05-.22.11a.74.74,0,0,0-.12.28A8.81,8.81,0,0,0,570.15,74.32Zm3.17-.8,0,0,.51-.44-.29,0,.41-.51,0,0-.19.1,0,0,.38-.53,0,0-.34.32,0,0,.4-.55-.35.22,0-.05.69-.76,0,0-.36.27,0,0,.42-.49a.55.55,0,0,0-.25.09c-.79.48-.77.48-.86,1.39a2.36,2.36,0,0,1-.61,1.77c.17.19.43.34.48.54.13.52.42.52.82.37H574c.18,0,.2-.13.1-.24a4.88,4.88,0,0,0-.49-.39l-.4-.31.27-.29-.15,0,.21-.3Zm-3.22-6.07,0-.09c-.13,0-.27.08-.39.14a2.64,2.64,0,0,1-1.93.14,8.44,8.44,0,0,0-2.74-.31,1,1,0,0,0-.77.45.54.54,0,0,0,0,.2l.07,0,.17-.22.07.09.51-.17.05.11a2.79,2.79,0,0,1,.55-.22c.14,0,.35.11.45.05s.45,0,.66,0a3,3,0,0,1,.95.3l.39.1,0,.16.27-.12v.21l.46-.36,0,.27.37-.32.09.25.23-.32.06,0,0,.24Zm3.79-7.77,0-.09c-.09-.06-.19-.17-.28-.18a6.57,6.57,0,0,0-1,0,.35.35,0,0,0-.19.28,7.57,7.57,0,0,0,.26,1.09.59.59,0,0,0,.29.32c.13.06.36.1.44,0a1.41,1.41,0,0,0,.5-1.12h-.5v-.23Zm0,5.65a1,1,0,0,1,.54-.79,6,6,0,0,0,1.81-2,2.39,2.39,0,0,0,.18-.4l-.09-.07a3.14,3.14,0,0,0-.53.49,5.63,5.63,0,0,1-1.78,1.77A.65.65,0,0,0,573.93,65.35Zm.24,1.61,0,.05a.93.93,0,0,0-.54,1.09c.33-.64,1.14-.8,1.46-1.53l-.37.16c.2-.17.44-.3.52-.64l-.32.21.09-.53c-.28.24-.54.46-.8.68a1.6,1.6,0,0,0-.54.81Zm-3.53,13.4h0l.18-.17-.21,1.13.09,0c.06-.21.11-.44.19-.64a5.33,5.33,0,0,1,.29-.54l.07,0-.15.29,0,0,.6-.51,0,0-.46.91a4.72,4.72,0,0,0,.64-.77,5.52,5.52,0,0,0,.28-.52c-.21,0-.42-.07-.63-.09a9.72,9.72,0,0,1-1-.07c-.33-.06-.35-.08-.46.27h.74Zm4.7-11v.16c.32,0,.64.07,1,.12l3.71.59a3.79,3.79,0,0,0,.43.08c.05,0,.13-.08.15-.15a.19.19,0,0,0-.08-.17,1.27,1.27,0,0,0-.34-.09l-4-.53A6.45,6.45,0,0,0,575.34,69.41Zm6.68,10c-.07-.2-.14-.39-.2-.58a2.39,2.39,0,0,0-.11-.36.24.24,0,0,0-.2-.11,1.18,1.18,0,0,0-.29.19c-.2-.1-.23-.23-.07-.38a.31.31,0,0,0,0-.53c-.08-.08-.17-.23-.32-.09s0,.23.07.31,0,.06,0,0l-.29.5-.26,0,.25.47c.15.08.29.12.35.2a2.53,2.53,0,0,1,.2.49l.14-.26.17.36,0-.46.32.49-.06-.41Zm-7.93-5.67c.54-.15,1.07-.29,1.6-.45a.26.26,0,0,0,.11-.22,5.84,5.84,0,0,0-.25-.87,3.22,3.22,0,0,0-.34-.52.74.74,0,0,0-.06.15c0,.13,0,.26,0,.39,0,.71,0,.71-.64.88l-.11,0C574.1,73.24,574,73.39,574.09,73.78Zm-.26-5a6.22,6.22,0,0,1,.61-.73,9.09,9.09,0,0,1,.77-.52,1.34,1.34,0,0,0,.39-1.6,1.67,1.67,0,0,0-.23.42,1.93,1.93,0,0,1-.93,1.23,3.08,3.08,0,0,0-.63.64A.43.43,0,0,0,573.82,68.74Zm-1.36-6.61a3,3,0,0,1-1.55-.42,12.26,12.26,0,0,0-1.18-.43c-.42-.12-1-.1-1.21.2l.65.25-.14-.24.62.35-.11-.31.43.3,0-.28.57.49v-.14c.11.06.28.18.3.16s.2,0,.29.06l.24.14v-.14A.8.8,0,0,0,572.46,62.12Zm.7,7.38c-.08,0-.17.06-.19,0-.26-.29-.46-.05-.65.08s-.28.37,0,.54a2.36,2.36,0,0,0,1.41.24,1.46,1.46,0,0,0,.31-.13l-.95-.72Zm.37,10,0,.22-.69-.09c0,.08,0,.09,0,.09l.09.05a3.78,3.78,0,0,0,2.49.17c.39-.1.43-.17.39-.63l-.17.4-.11-.23-.13.29-.07-.07-.1-.33-.17.39-.06-.25-.17.15,0-.14-.14.16-.16-.34-.08.25-.54.08-.08-.12-.09.18Zm2.37-5.38c0-.16.07-.29.11-.42s0-.29-.21-.24l-1.54.48a.25.25,0,0,0-.17.36l.24-.14,0,.25.23-.21.06.26.23-.3,0,.43.19-.45,0,.36h.06l.13-.4.13.38.12-.41.12.23.11-.41.05.12Zm-.83-11.82a1.43,1.43,0,0,1,1.1-.9,4.45,4.45,0,0,1,.55,0c.38,0,.56-.3.88-.52C576.08,60.68,575.1,61.25,575.06,62.32Zm-5.27,6.6a2.16,2.16,0,0,0,2.42-.58l-.36,0a1.43,1.43,0,0,0-.49.28c-.18.17-.37-.09-.53,0l0-.2-.23.19.06-.26-.25.17.19-.5Zm-2.87-9.42-.52-.29.25,0,0-.1a1.18,1.18,0,0,0-.43-.09c-.09,0-.17.17-.23.28s0,.11.05.2c-.25.3-.25.34.06.66a.38.38,0,0,0,.08.08l.3.15.07-.27.32-.28-.2-.16Zm8.3,5.72,0,.8c.42-.54.28-1.18.54-1.7-.65.35-1.29,1-1.14,1.58Zm.54-1.51-1.09.88c-.14.11-.28.21-.4.34a.81.81,0,0,0,0,1.07,4.42,4.42,0,0,1,.38-.85,3.85,3.85,0,0,1,.71-.68A1,1,0,0,0,575.77,63.7Zm-1.43.2c.85-.61,1.35-1.57,2.29-2.08a1,1,0,0,0-.85.33c-.36.33-.73.65-1.08,1A1.09,1.09,0,0,0,574.34,63.9Zm-7-.53.14.35c.12-.52,0-.93-.32-1s-.82.22-1,.65c.91-.06.91-.06,1.07.28Zm13.21-2.18a1,1,0,0,0-1.57-.35.94.94,0,0,1,.89.55l.18-.23.16.46h.08l0-.5.1,0ZM574,63.66c.15.09.21.06.19-.17s.08-.55-.35-.45c0,0,0,0,0,0-.21-.13-.33-.09-.38.15a.84.84,0,0,0,0,.38,2.1,2.1,0,0,0,.21.4Zm-2.06,5.71s0,0,0-.06c0-.18-.06-.32-.24-.09,0,0-.07,0-.1,0-.22,0-.17.15-.13.27a2.53,2.53,0,0,0,.2.35,1.51,1.51,0,0,0,.21-.11c.21-.15.41-.32.63-.47s.29-.13.43-.22,0-.13,0-.2a.58.58,0,0,0-.2,0s-.07.1-.11.13Zm8.49,8.75a.22.22,0,0,0,.09,0,.69.69,0,0,0,0-.7,1.59,1.59,0,0,1-.29-.49c0-.13,0-.26-.17-.21a.33.33,0,0,0-.16.29,2.71,2.71,0,0,0,.23.58C580.2,77.74,580.3,77.92,580.41,78.12Zm-2.47,1a1.64,1.64,0,0,0,.14-.32c0-.14,0-.28,0-.42.07-.31,0-.44-.25-.53v.82l-.37-.31c.07.21.17.36.14.49s0,.39.21.5l0-.31ZM573.11,57.6a2,2,0,0,0-.81.07,2.65,2.65,0,0,0-.59.66l.05.07a2.61,2.61,0,0,0,.41-.17C572.48,58,572.76,57.84,573.11,57.6Zm7.67,10.49.1,1.89C581.18,69.82,581.13,68.36,580.78,68.09Zm-6.71-6.54.48,0,1.11-.71a.89.89,0,0,0-.78.13C574.59,61.14,574.32,61.36,574.07,61.55ZM566.82,61c0-.49.25-.67.69-.64-.09-.23-.23-.32-.42-.3a.51.51,0,0,0-.49.37A.45.45,0,0,0,566.82,61Zm14.29,9.72-.08,0s0,0,0,.07c.06.49.12,1,.2,1.46,0,0,.08.08.12.12s.1-.11.1-.16c0-.37-.09-.74-.15-1.11A2.39,2.39,0,0,0,581.11,70.71ZM569.54,80l.08,0a1,1,0,0,0,.12-.39c0-.07-.19-.14-.3-.16a.86.86,0,0,0-.38,0c-.24.06-.51.08-.57.4.29,0,.55-.33.82,0l.35-.21Zm5.13-4.3a.77.77,0,0,0-1.12-.39A1.26,1.26,0,0,0,574.68,75.66Zm2.13-14.08a1.09,1.09,0,0,0-1.5.78A2.63,2.63,0,0,1,576.8,61.59Zm-4.08-2.37c.66.07.77,0,.67-.43,0-.21-.21-.28-.35-.13A2.93,2.93,0,0,0,572.72,59.21Zm1.73,9.65a2.11,2.11,0,0,1,.16-.35c.07-.09.19-.15.25-.25a4,4,0,0,0,.21-.52A.78.78,0,0,0,574.45,68.86Zm10.77,7.92-.41-.32c-.35.39-.31.61.12.82Zm-17.09,3.08c-.44-.16-1,.17-.93.53l.24-.17.21.25,0-.23C568,80.31,568,80,568.13,79.86Zm9.93,3.29c.34-.31.26-.75-.22-1.22l-.15.32.23.08-.12.21C578.2,82.62,577.93,82.94,578.06,83.14Zm-7.35-19.49a1.05,1.05,0,0,0,.25-1.06A1,1,0,0,0,570.71,63.65ZM571.17,83c-.29.36-.29.47,0,.67a.77.77,0,0,0,.25.07c0-.09.08-.2,0-.27A3.58,3.58,0,0,0,571.17,83Zm1.74-7.89c.13-.44.09-.52-.32-.74C572.37,74.76,572.4,74.85,572.91,75.11ZM578.69,84c0-.36-.19-.62-.32-.55s-.3.26-.27.35C578.19,84,578.46,83.94,578.69,84Zm-6.58-23.89a1.39,1.39,0,0,0,.75,1.25ZM564.57,83c-.06-.08-.13-.19-.22-.28a.74.74,0,0,0-.17-.11.65.65,0,0,0-.11.2c0,.31.1.46.38.48Zm10.13-7.21a2,2,0,0,1-1.33-.52A1,1,0,0,0,574.7,75.81Zm-1.21-17.18c0,.18,0,.36.06.53a.2.2,0,0,0,.15.13.23.23,0,0,0,.17-.1A.41.41,0,0,0,573.49,58.63Zm-6.67,22.13a.54.54,0,0,0-.41.64l.3,0,0-.23.15,0ZM579.71,76a.56.56,0,0,0-.11.84,1.42,1.42,0,0,0,.21-.4A1.28,1.28,0,0,0,579.71,76Zm.9-5.71c.15.13.27.27.3.25a.59.59,0,0,0,.25-.27c0-.05-.13-.23-.16-.22A2,2,0,0,0,580.61,70.32Zm-1.11,6.75-.09,0a2.43,2.43,0,0,0,.06.25,2.21,2.21,0,0,0,.16.41.35.35,0,0,0,.4.22Zm-1.92-16.82,0,.07.29.31v-.06l.63.05v0ZM573,58.51c.42.06.43,0,.28-.48A.4.4,0,0,0,573,58.51ZM571.33,85l.08-.09-.34-.43-.28.16Zm7.25-.58a.34.34,0,0,0-.47-.12c-.05,0-.08.11-.12.17a.7.7,0,0,0,.21,0A3.17,3.17,0,0,0,578.58,84.4Zm-10.8-2.83-.26.39c.07,0,.15.08.21.07S567.9,81.82,567.77,81.57Zm11.53,2.65.53,0C579.82,84,579.71,83.94,579.3,84.22ZM574.38,63l.11-.06a.32.32,0,0,0-.27-.42l-.08,0Zm7.19,2.18.11-.13-.4-.32-.09.1ZM570.85,60.9l0,.07.59.23C571.32,61,571.17,60.92,570.85,60.9Zm-4.49,21.22.06.49C566.67,82.34,566.66,82.25,566.36,82.13Zm5.7-22.18c.31-.23.33-.37.13-.53Z" style="fill: #aaa"/>
        <path d="M581.57,65.19l-.38-.34.09-.1.4.32Z" style="fill: #aaa"/>
        <path d="M571.48,71.4c0,.31,0,.62,0,.92s0,.6,0,.9a5.34,5.34,0,0,1-.05-1.82Z" style="fill: #aaa"/>
        <path d="M572.63,59.91l.11-.36.55.2-.07.24Z" style="fill: #aaa"/>
        <path d="M573.45,60.73l0,.1-.42,0v-.12Z" style="fill: #aaa"/>
        <path d="M581,78.82c.23,0,.41.11.57-.13l-.2.45Z" style="fill: #aaa"/>
      </g>
      <path d="M573.77,93.06a.33.33,0,0,1-.17,0l-2.43-1.43a5.51,5.51,0,0,0-2.8-.76H562A5.85,5.85,0,0,1,556.17,85V54.73a2.32,2.32,0,0,1,2.32-2.32h30.56a2.32,2.32,0,0,1,2.32,2.32V85a5.85,5.85,0,0,1-5.85,5.85h-6.35a5.51,5.51,0,0,0-2.8.76L573.94,93A.33.33,0,0,1,573.77,93.06Zm-15.28-40a1.66,1.66,0,0,0-1.65,1.65V85A5.19,5.19,0,0,0,562,90.15h6.35a6.18,6.18,0,0,1,3.14.86l2.26,1.33L576,91a6.18,6.18,0,0,1,3.14-.86h6.35A5.19,5.19,0,0,0,590.71,85V54.73a1.66,1.66,0,0,0-1.65-1.65Z" style="fill: #aaa"/>
    </g>
  </g>
</svg>
