<svg xmlns="http://www.w3.org/2000/svg" xmlns:xlink="http://www.w3.org/1999/xlink" width="411mm" height="307.35mm" viewBox="0 0 1165.04 871.23">
  <defs>
    <mask id="a" x="128.53" y="91.15" width="67.74" height="50.98" maskUnits="userSpaceOnUse">
      <path d="M173.64,117.56,131,93.08l64,12.18-21.29,36.87Z" style="fill: #71b4e1"/>
    </mask>
    <mask id="b" x="108" y="128.1" width="67.74" height="50.89" maskUnits="userSpaceOnUse">
      <path d="M152.34,154.42l-42.68-24.49,64,12.19L152.37,179Z" style="fill: #c5cac6"/>
    </mask>
    <mask id="c" x="64.89" y="78.83" width="67.74" height="51.1" maskUnits="userSpaceOnUse">
      <path d="M109.63,105.37,66.95,80.88l64,12.19-21.29,36.85Z" style="fill: #f73624"/>
    </mask>
  </defs>
  <title>8</title>
  <g>
    <path d="M995.18,401.9v2.63h22.58c1.5,0,3.76,0,5.27,1.5s1.51,3.76,1.51,5.27v22.58c0,1.51,0,3.76-1.51,5.27s-3.77,1.51-5.27,1.51h-10.89c-1.88,0-4.33,0-5.27-2.07s.37-4,1.51-5.46l14.67-19.54H995.2l-9.05,12c-1.51,2-2.82,3.76-2.82,6s1.21,3.89,2.82,6l2.26,3c2.26,3,4.52,6,7.51,7.51s6.59,1.5,11.46,1.5h9.8c5.65,0,14.1,0,19.77-5.64s5.64-13.92,5.64-16.9v-9.05c0-3,0-11.29-5.64-16.9s-14.1-5.63-19.77-5.64h-15.59c-1.5,0-3.39,0-4.89,1.51s-1.5,3.39-1.5,4.89" style="fill: #aaa"/>
    <polygon points="968.25 413.53 990.59 413.53 963.66 449.63 940.74 449.63 968.25 413.53" style="fill: #aaa"/>
    <path d="M880,419.95c0-1.5,0-3.39,1.51-4.89s3.39-1.5,4.89-1.5h37.82c4.89,0,8.48,0,11.46,1.5s5.26,4.52,7.51,7.51l2.26,3c1.61,2.14,2.83,3.76,2.83,6s-1.32,4-2.83,6l-9.05,12H913.82l14.67-19.54c1.13-1.51,2.45-3.38,1.51-5.46s-3.38-2.06-5.26-2.06H907v45.15H889V422.58h-9.05v-2.64" style="fill: #aaa"/>
  </g>
  <g>
    <path d="M239.21,419.12l8.39-6.27H219.51V450.4h28.08v-6.27H227.53v-9.58h17.15v-6.27H227.53v-9.16Z" style="fill: #aaa"/>
    <path d="M198.29,427.48h-9.73v-8.35h15.56l8.39-6.27h-32V450.4h16.71c9.36,0,14.77-4.3,14.77-11.8C212,431.41,207.17,427.48,198.29,427.48ZM197,444.13h-8.39V433.74H197c5.11,0,7.47,1.72,7.47,5.23S201.88,444.13,197,444.13Z" style="fill: #aaa"/>
    <path d="M270.33,412.86H255.07V450.4h8V439.77h7.3c9.72,0,15.8-5.16,15.8-13.46S280.11,412.86,270.33,412.86Zm-.18,20.64H263V419.12h7.11c5.17,0,8,2.58,8,7.19S275.31,433.5,270.15,433.5Z" style="fill: #aaa"/>
    <path d="M166.8,442.29a14.32,14.32,0,0,1-6.93,1.79,12.41,12.41,0,1,1,7.29-22.49l5.78-4.3-.36-.37a18.94,18.94,0,0,0-13-4.55,20.52,20.52,0,0,0-14.22,5.35,18.61,18.61,0,0,0-5.6,13.71,19.49,19.49,0,0,0,5.6,13.94,20,20,0,0,0,14.16,5.53c5.77,0,10.82-2,14.22-5.72l-5.16-3.87Z" style="fill: #aaa"/>
    <path d="M114.71,412.61a33.33,33.33,0,0,1,3.71,6.2l-28.08,21-11.8-7.5v-9l11.73,7.43Z" style="fill: #aaa"/>
    <path d="M66.56,431.66a8.1,8.1,0,0,1,.06-1.23l-7.11-.37c0,.49-.06,1-.06,1.54a31.29,31.29,0,0,0,9.06,22.06l5-5.1A23.74,23.74,0,0,1,66.56,431.66Z" style="fill: #aaa"/>
    <path d="M90.27,407.69a8,8,0,0,1,1.22.06l.36-7.19c-.49,0-1-.06-1.52-.06a30.63,30.63,0,0,0-21.83,9.16l5,5.1A23.36,23.36,0,0,1,90.27,407.69Z" style="fill: #aaa"/>
    <path d="M90.27,455.62a8,8,0,0,1-1.22-.06l-.36,7.19c.49,0,1,.06,1.52.06A30.62,30.62,0,0,0,112,453.65l-5-5.1A23,23,0,0,1,90.27,455.62Z" style="fill: #aaa"/>
    <path d="M103.64,411.87l6-4.49a30.68,30.68,0,0,0-19.39-6.94v7.19A23.71,23.71,0,0,1,103.64,411.87Z" style="fill: #aaa"/>
    <path d="M121.15,431.66a33.77,33.77,0,0,0-.49-5.59L114,431v.61a23.93,23.93,0,0,1-7.84,17.76l4.8,5.35A31.27,31.27,0,0,0,121.15,431.66Z" style="fill: #aaa"/>
    <path d="M90.27,455.62a23.43,23.43,0,0,1-17.57-7.93l-5.29,4.86a30.52,30.52,0,0,0,22.86,10.26Z" style="fill: #aaa"/>
    <path d="M74.4,413.9l-4.8-5.35a31.16,31.16,0,0,0-10.15,23.11h7.11A24,24,0,0,1,74.4,413.9Z" style="fill: #aaa"/>
  </g>
  <g>
    <g>
      <path d="M980.54,97.71h.16l4.56,11.23h2.15L992,97.74h.16V109H995V92.61h-3.66l-4.89,11.86h-.2l-4.89-11.86h-3.66V109h2.86Z" style="fill: #aaa"/>
      <path d="M1000.07,108.43a6,6,0,0,0,3.14.79,6.05,6.05,0,0,0,3.15-.79,5.45,5.45,0,0,0,2.06-2.22,7.1,7.1,0,0,0,.73-3.33,7.29,7.29,0,0,0-.73-3.33,5.27,5.27,0,0,0-2.06-2.22,6.63,6.63,0,0,0-6.29,0A5.45,5.45,0,0,0,998,99.57a7.13,7.13,0,0,0-.73,3.33,7.31,7.31,0,0,0,.73,3.33A5.36,5.36,0,0,0,1000.07,108.43Zm.49-7.59a3.31,3.31,0,0,1,1-1.45,2.56,2.56,0,0,1,1.67-.55,2.48,2.48,0,0,1,1.64.55,3.31,3.31,0,0,1,1,1.45,6.07,6.07,0,0,1,.32,2,6,6,0,0,1-.32,2,3.31,3.31,0,0,1-1,1.45,2.49,2.49,0,0,1-1.64.53,2.58,2.58,0,0,1-1.67-.53,3.19,3.19,0,0,1-1-1.45,6,6,0,0,1-.33-2A6.13,6.13,0,0,1,1000.56,100.85Z" style="fill: #aaa"/>
      <path d="M1013.67,108.42a6.75,6.75,0,0,0,5.89.24,4.37,4.37,0,0,0,1.81-1.57,4.73,4.73,0,0,0,.77-2.3h-2.79a2.65,2.65,0,0,1-.48,1.12,2.35,2.35,0,0,1-.86.71,2.7,2.7,0,0,1-1.16.24,2.58,2.58,0,0,1-1.58-.49,3,3,0,0,1-1-1.38,5.7,5.7,0,0,1-.38-2.16,5.5,5.5,0,0,1,.38-2.13,3,3,0,0,1,1.06-1.37,2.65,2.65,0,0,1,1.57-.48,2.4,2.4,0,0,1,1.69.59,2.72,2.72,0,0,1,.8,1.48h2.79a4.6,4.6,0,0,0-.78-2.32,4.53,4.53,0,0,0-1.86-1.54,6.31,6.31,0,0,0-2.67-.55,6,6,0,0,0-3.14.81,5.37,5.37,0,0,0-2,2.23,7.27,7.27,0,0,0-.73,3.31,7.14,7.14,0,0,0,.71,3.28,5.42,5.42,0,0,0,2,2.23Z" style="fill: #aaa"/>
      <path d="M1027.28,104.34h1.42l3.4,4.64h3.53l-4.63-6.25,4.59-6h-3.52l-3.73,5h-1.06v-5h-2.92V109h2.92Z" style="fill: #aaa"/>
      <path d="M1038.84,108.43a6,6,0,0,0,3.14.79,6.05,6.05,0,0,0,3.15-.79,5.45,5.45,0,0,0,2.06-2.22,7.13,7.13,0,0,0,.73-3.33,7.31,7.31,0,0,0-.73-3.33,5.27,5.27,0,0,0-2.06-2.22,6.63,6.63,0,0,0-6.29,0,5.45,5.45,0,0,0-2.06,2.22,7.1,7.1,0,0,0-.73,3.33,7.29,7.29,0,0,0,.73,3.33A5.35,5.35,0,0,0,1038.84,108.43Zm.49-7.59a3.31,3.31,0,0,1,1-1.45,2.56,2.56,0,0,1,1.67-.55,2.47,2.47,0,0,1,1.64.55,3.31,3.31,0,0,1,1,1.45,6,6,0,0,1,.32,2,5.94,5.94,0,0,1-.32,2,3.31,3.31,0,0,1-1,1.45,2.49,2.49,0,0,1-1.64.53,2.58,2.58,0,0,1-1.67-.53,3.19,3.19,0,0,1-1-1.45,6,6,0,0,1-.33-2A6.13,6.13,0,0,1,1039.33,100.85Z" style="fill: #aaa"/>
      <path d="M1060.24,107.41a2.9,2.9,0,0,0,.54-1.76,2.84,2.84,0,0,0-.42-1.53,3,3,0,0,0-1.16-1.07,4.24,4.24,0,0,0-1.71-.49,3.84,3.84,0,0,0,2-.88,2.17,2.17,0,0,0,.73-1.68,2.79,2.79,0,0,0-1.28-2.43,6.13,6.13,0,0,0-3.48-.86h-5.2V109h6a6.6,6.6,0,0,0,2.47-.42,3.34,3.34,0,0,0,1.55-1.17ZM1052.95,99h2.47a2.47,2.47,0,0,1,1.44.36,1.15,1.15,0,0,1,.52,1,1.18,1.18,0,0,1-.23.75,1.43,1.43,0,0,1-.65.49,2.68,2.68,0,0,1-1,.17h-2.53Zm4.53,7.3a1.89,1.89,0,0,1-1.26.37h-3.27v-3h3.27a1.77,1.77,0,0,1,1.26.43,1.57,1.57,0,0,1,.46,1.19A1.26,1.26,0,0,1,1057.48,106.32Z" style="fill: #aaa"/>
      <path d="M1072.87,107.09a4.73,4.73,0,0,0,.77-2.3h-2.79a2.65,2.65,0,0,1-.48,1.12,2.37,2.37,0,0,1-.86.71,2.7,2.7,0,0,1-1.16.24,2.59,2.59,0,0,1-1.58-.49,3,3,0,0,1-1-1.38,5.7,5.7,0,0,1-.38-2.16,5.5,5.5,0,0,1,.38-2.13,3,3,0,0,1,1.06-1.37,2.66,2.66,0,0,1,1.57-.48,2.4,2.4,0,0,1,1.68.59,2.71,2.71,0,0,1,.8,1.48h2.79a4.6,4.6,0,0,0-.78-2.32,4.54,4.54,0,0,0-1.86-1.54,6.32,6.32,0,0,0-2.67-.55,6,6,0,0,0-3.14.81,5.36,5.36,0,0,0-2,2.23,7.27,7.27,0,0,0-.73,3.31,7.14,7.14,0,0,0,.71,3.28,5.43,5.43,0,0,0,2,2.23,6.75,6.75,0,0,0,5.89.24,4.37,4.37,0,0,0,1.81-1.57Z" style="fill: #aaa"/>
      <path d="M1087.07,96.7h-3.51l-3.73,5h-1.06v-5h-2.92V109h2.92v-4.64h1.42l3.4,4.64h3.53l-4.63-6.25Z" style="fill: #aaa"/>
      <path d="M1096.68,100.62V109h2.82V96.7h-3l-5,8.36V96.7h-2.82V109h3Z" style="fill: #aaa"/>
      <path d="M1110.13,96.7l-5,8.36V96.7h-2.82V109h3l4.94-8.36V109h2.82V96.7Z" style="fill: #aaa"/>
      <path d="M1107.73,95.62a4.13,4.13,0,0,0,2.76-.86,2.83,2.83,0,0,0,1-2.26h-2.18a1.6,1.6,0,0,1-.38,1,1.49,1.49,0,0,1-1.22.45,1.52,1.52,0,0,1-1.23-.45,1.58,1.58,0,0,1-.36-1H1104a2.8,2.8,0,0,0,1,2.26,4.11,4.11,0,0,0,2.74.86Z" style="fill: #aaa"/>
      <path d="M987.49,135.41a4.27,4.27,0,0,0,1.87-1.6,4.37,4.37,0,0,0,.62-2.29,4.07,4.07,0,0,0-.52-2.13,3.88,3.88,0,0,0-1.32-1.37,3.67,3.67,0,0,0-1.68-.53v-.16a4.4,4.4,0,0,0,1.45-.63,3.21,3.21,0,0,0,1-1.15,3.48,3.48,0,0,0,.39-1.71,3.88,3.88,0,0,0-2.38-3.69,7,7,0,0,0-3-.56h-6.32V136h6.68a7.16,7.16,0,0,0,3.14-.59Zm-6.84-13.34h3a2.79,2.79,0,0,1,2,.62,2,2,0,0,1,.67,1.57,2.08,2.08,0,0,1-.36,1.24,2.37,2.37,0,0,1-1,.81,3.3,3.3,0,0,1-1.39.29h-3v-4.52Zm0,11.44v-4.79H984a3.44,3.44,0,0,1,1.6.35,2.56,2.56,0,0,1,1,.92,2.41,2.41,0,0,1,.36,1.31,2,2,0,0,1-.73,1.6,3.56,3.56,0,0,1-2.35.62Z" style="fill: #aaa"/>
      <path d="M1000.27,135.79a4.67,4.67,0,0,0,1.84-1.24,4.07,4.07,0,0,0,1-1.87l-2.73-.3a2.41,2.41,0,0,1-.56.88,2.46,2.46,0,0,1-.9.53,3.62,3.62,0,0,1-1.15.17,3.19,3.19,0,0,1-1.65-.4,2.77,2.77,0,0,1-1.1-1.17,4.06,4.06,0,0,1-.39-1.76h8.62v-.89a7.62,7.62,0,0,0-.45-2.78,5.33,5.33,0,0,0-1.24-1.93,5.11,5.11,0,0,0-1.8-1.12,6.37,6.37,0,0,0-2.16-.36,5.89,5.89,0,0,0-3.09.81,5.56,5.56,0,0,0-2,2.23,8,8,0,0,0,0,6.67,5.14,5.14,0,0,0,2.08,2.19,6.34,6.34,0,0,0,3.21.78,7.17,7.17,0,0,0,2.57-.43ZM996,126.23a2.85,2.85,0,0,1,1.57-.43,2.88,2.88,0,0,1,1.47.37,2.59,2.59,0,0,1,1,1,3.08,3.08,0,0,1,.36,1.48h-5.81a3.23,3.23,0,0,1,.36-1.34,3,3,0,0,1,1-1.12Z" style="fill: #aaa"/>
      <path d="M1013.15,131v5h2.8V123.71h-2.8v4.94h-4.79v-4.94h-2.82V136h2.82v-5Z" style="fill: #aaa"/>
      <path d="M1021.43,129.06a2.49,2.49,0,0,1-.28-1.27v-4.09h-2.79v4.09a4.07,4.07,0,0,0,1.44,3.46,6.3,6.3,0,0,0,3.92,1.11,8.17,8.17,0,0,0,1.32-.1c.31,0,.57-.12.86-.17V136h2.8V123.71h-2.8v6l-.34.1a8.41,8.41,0,0,1-1.84.19,4.09,4.09,0,0,1-1.44-.22,1.61,1.61,0,0,1-.86-.71Z" style="fill: #aaa"/>
      <path d="M1036.48,133h-.13l-2.86-9.27h-3.09l4.49,12.54-.25.66a2.21,2.21,0,0,1-.65,1,1.4,1.4,0,0,1-.89.3A4.34,4.34,0,0,1,1032,138l-.68,2.26a4.7,4.7,0,0,0,.8.22,5.29,5.29,0,0,0,1.1.09,4.82,4.82,0,0,0,2-.37,3.76,3.76,0,0,0,1.39-1.07,5.61,5.61,0,0,0,.91-1.67l5-13.76h-3.11l-2.86,9.27Z" style="fill: #aaa"/>
      <path d="M1053.37,124.27a4.86,4.86,0,0,0-2.6-.72,3.82,3.82,0,0,0-1.79.36,3.47,3.47,0,0,0-1.12.88,6,6,0,0,0-.64,1h-.17v-2h-2.87v16.89h2.92v-6.54h.11a5.66,5.66,0,0,0,.65,1,3.47,3.47,0,0,0,1.13.85,4,4,0,0,0,1.77.35,4.66,4.66,0,0,0,2.61-.75,5,5,0,0,0,1.81-2.16,9.13,9.13,0,0,0,0-6.9,4.88,4.88,0,0,0-1.84-2.13Zm-.78,7.63a3.09,3.09,0,0,1-1,1.41,2.52,2.52,0,0,1-1.63.52,2.48,2.48,0,0,1-1.58-.5,3,3,0,0,1-1-1.4,6.13,6.13,0,0,1-.35-2.09,6,6,0,0,1,.33-2.07,2.94,2.94,0,0,1,1-1.37,2.55,2.55,0,0,1,1.58-.49,2.69,2.69,0,0,1,1.63.5,3,3,0,0,1,1,1.4,5.82,5.82,0,0,1,.34,2,5.9,5.9,0,0,1-.34,2Z" style="fill: #aaa"/>
      <path d="M1065.86,128.64h-4.79v-4.94h-2.82V136h2.82v-5h4.79v5h2.8V123.71h-2.8Z" style="fill: #aaa"/>
      <path d="M1086.55,123.71h-2.92V136h2.92Z" style="fill: #aaa"/>
      <path d="M1077.11,127.71h-2.82v-4h-2.82V136h5.63a6.08,6.08,0,0,0,2.69-.53,3.86,3.86,0,0,0,2.29-3.61,3.78,3.78,0,0,0-1.31-3A5.39,5.39,0,0,0,1077.11,127.71Zm1.57,5.43a2.48,2.48,0,0,1-1.57.49h-2.82V130.1h2.82a2.41,2.41,0,0,1,1.57.5,1.6,1.6,0,0,1,.61,1.31,1.45,1.45,0,0,1-.61,1.24Z" style="fill: #aaa"/>
      <path d="M1096,120.53a1.49,1.49,0,0,1-1.22.45,1.52,1.52,0,0,1-1.23-.45,1.58,1.58,0,0,1-.36-1H1091a2.8,2.8,0,0,0,1,2.26,4.11,4.11,0,0,0,2.74.86,4.16,4.16,0,0,0,2.76-.86,2.83,2.83,0,0,0,1-2.26h-2.18a1.6,1.6,0,0,1-.38,1Z" style="fill: #aaa"/>
      <path d="M1092.22,132.07v-8.36h-2.82V136h3l4.94-8.36V136h2.83V123.71h-3Z" style="fill: #aaa"/>
      <path d="M990.69,149.27a7,7,0,0,0-3.43-.82H987v-2.12h-2.87v2.12h-.23a7,7,0,0,0-3.43.82,6.08,6.08,0,0,0-2.37,2.32,6.78,6.78,0,0,0-.86,3.48,6.68,6.68,0,0,0,.86,3.43,5.8,5.8,0,0,0,2.35,2.26,7.22,7.22,0,0,0,3.44.81h.23v2.09H987v-2.09h.23a7.12,7.12,0,0,0,3.43-.81,5.93,5.93,0,0,0,2.35-2.27,6.7,6.7,0,0,0,.86-3.41,7,7,0,0,0-.86-3.48A6,6,0,0,0,990.69,149.27Zm-6.77,9.79a4.26,4.26,0,0,1-2-.46,3.26,3.26,0,0,1-1.34-1.35,4.48,4.48,0,0,1-.48-2.16,5.19,5.19,0,0,1,.46-2.26,3.25,3.25,0,0,1,1.32-1.4,4.11,4.11,0,0,1,2-.48h.23v8.1h-.22Zm6.68-1.83a3.11,3.11,0,0,1-1.31,1.35,4.06,4.06,0,0,1-2,.46H987v-8.1h.23a4.06,4.06,0,0,1,2,.48,3.22,3.22,0,0,1,1.31,1.4,4.93,4.93,0,0,1,.46,2.23,4.58,4.58,0,0,1-.46,2.16Z" style="fill: #aaa"/>
      <path d="M1004.86,151.35a6.64,6.64,0,0,0-6.29,0,5.45,5.45,0,0,0-2.06,2.22,7.1,7.1,0,0,0-.73,3.33,7.29,7.29,0,0,0,.73,3.33,5.36,5.36,0,0,0,2.06,2.22,6,6,0,0,0,3.14.79,6.06,6.06,0,0,0,3.15-.79,5.46,5.46,0,0,0,2.06-2.22,7.1,7.1,0,0,0,.73-3.33,7.29,7.29,0,0,0-.73-3.33A5.28,5.28,0,0,0,1004.86,151.35Zm-.49,7.57a3.29,3.29,0,0,1-1,1.45,2.49,2.49,0,0,1-1.64.53,2.57,2.57,0,0,1-1.67-.53,3.19,3.19,0,0,1-1-1.45,6,6,0,0,1-.33-2,6.13,6.13,0,0,1,.33-2,3.21,3.21,0,0,1,1-1.45,2.56,2.56,0,0,1,1.67-.55,2.47,2.47,0,0,1,1.64.55,3.29,3.29,0,0,1,1,1.45,6,6,0,0,1,.32,2A5.94,5.94,0,0,1,1004.37,158.92Z" style="fill: #aaa"/>
      <path d="M1017.55,155.65h-4.79v-4.94h-2.82V163h2.82v-5h4.79v5h2.8V150.71h-2.8Z" style="fill: #aaa"/>
      <path d="M1034,150.71h-8.94l-.35,4.3c-.06.69-.13,1.32-.2,1.93a14.51,14.51,0,0,1-.29,1.61,5.91,5.91,0,0,1-.44,1.24,2.23,2.23,0,0,1-.67.82h-1v5.95H1025V163h8.1v3.57h2.82v-5.95H1034v-9.89Zm-2.79,9.89h-5.1a5.89,5.89,0,0,0,.86-2.26,32.22,32.22,0,0,0,.42-3.34l.19-2h3.63v7.56Z" style="fill: #aaa"/>
    </g>
    <path d="M862,147.34l-19-27.5H809.39l14.43-27.14h33.63l19,27.48L862,147.34Zm81.7-27.15-19-27.5H891.09l-14.43,27.15h33.63l19,27.48,14.43-27.15Z" style="fill: #aaa"/>
  </g>
  <g>
    <g>
      <path d="M466.09,682.4a5.26,5.26,0,0,1-.57,2.47,6,6,0,0,1-1.33,1.71l-1.71,1.14a6.85,6.85,0,0,1-2.09.38v1.71h-3.23v-1.71a10.86,10.86,0,0,1-2.66-.76,4.15,4.15,0,0,1-1.71-1.33,6,6,0,0,1-1-1.9,9.71,9.71,0,0,1-.38-2.47v-7a5.26,5.26,0,0,1,.57-2.47,4.55,4.55,0,0,1,1.14-1.52,6.28,6.28,0,0,1,1.9-1.14,4.08,4.08,0,0,1,2.09-.38V668h3.42v1.14a8.1,8.1,0,0,1,2.09.38,4.48,4.48,0,0,1,1.71,1.14,5.89,5.89,0,0,1,1.33,1.71,5.24,5.24,0,0,1,.57,2.47v7.6Zm-8.94-10.65a5.69,5.69,0,0,0-1.9.76,3.21,3.21,0,0,0-.57,1.9v8.36a2.41,2.41,0,0,0,.19,1.14,2.66,2.66,0,0,0,.57.76c.19.19.57.38.76.57a1.71,1.71,0,0,0,1,.19Zm5.89,2.66a2.45,2.45,0,0,0-.76-1.9,3.59,3.59,0,0,0-1.71-.76v13.5c.19,0,.57-.19.76-.19a3.36,3.36,0,0,0,1.33-1.33,1.73,1.73,0,0,0,.19-1v-8.36Z" style="fill: #aaa"/>
      <path d="M483,684.11a6,6,0,0,1-1.33,4.37,5.45,5.45,0,0,1-4,1.52c-1.9,0-3.23-.38-4-1.33a6.29,6.29,0,0,1-1.33-4v-11a8.24,8.24,0,0,1,.38-2.28,6,6,0,0,1,1-1.9,2.77,2.77,0,0,1,1.71-1.14,9.62,9.62,0,0,1,2.47-.38,8.42,8.42,0,0,1,2.47.38,1.94,1.94,0,0,1,1.52,1,6,6,0,0,1,1,1.9,10,10,0,0,1,.19,2.47Zm-3.42-10.84a5.55,5.55,0,0,0-.38-1.71c-.19-.57-.76-.76-1.52-.76a1.43,1.43,0,0,0-1,.19c-.38.38-.57.57-.57,1a1.44,1.44,0,0,0-.19,1v12a3.56,3.56,0,0,0,.38,1.52,1.7,1.7,0,0,0,1.52.76,1.54,1.54,0,0,0,1.52-.76c.38-.38.38-1,.38-1.71V673.28Z" style="fill: #aaa"/>
      <polygon points="496.7 689.82 496.7 680.31 492.7 680.31 492.7 689.82 489.47 689.82 489.47 667.95 492.89 667.95 492.89 677.08 496.89 677.08 496.89 667.95 500.31 667.95 500.31 689.82 496.7 689.82" style="fill: #aaa"/>
      <path d="M508.29,689.82V694h-2.85v-7l1.33-.19a4.53,4.53,0,0,0,1.14-2.09,13.56,13.56,0,0,0,.38-3.23l.38-13.31h9.89V687h1.33v7.22H517V690h-8.75Zm3-8.55c0,1.33-.19,2.28-.19,3.23a6.42,6.42,0,0,1-.76,2.28h4.75V671.19h-3.42Z" style="fill: #aaa"/>
      <path d="M540.42,667.76a7.1,7.1,0,0,1,2.28.38,7.7,7.7,0,0,1,1.71,1,4.14,4.14,0,0,1,1,1.52,6.89,6.89,0,0,1,.38,2.09l-3.23.76a4.74,4.74,0,0,0-.38-1.9,1.54,1.54,0,0,0-1.52-.76,1.42,1.42,0,0,0-1,.19l-.57.57a1.14,1.14,0,0,0-.19.76v12.74c0,.19.19.57.19.76l.57.57a1.42,1.42,0,0,0,1,.19c1.33,0,1.9-1,1.9-2.66a5.25,5.25,0,0,0,1.71.19c.57,0,1.14.19,1.71.19a6.27,6.27,0,0,1-1.33,4,5,5,0,0,1-3.8,1.52c-1.9,0-3.23-.38-4-1.33a5.36,5.36,0,0,1-1.33-4V673.66a9.25,9.25,0,0,1,.19-2.28,6,6,0,0,1,1-1.9,4.14,4.14,0,0,1,1.71-1.33,3.87,3.87,0,0,1,2.09-.38" style="fill: #aaa"/>
      <path d="M561.71,684.11a6,6,0,0,1-1.33,4.37,5.45,5.45,0,0,1-4,1.52c-1.9,0-3.23-.38-4-1.33a6.29,6.29,0,0,1-1.33-4v-11a8.24,8.24,0,0,1,.38-2.28,6,6,0,0,1,1-1.9,2.77,2.77,0,0,1,1.71-1.14,9.62,9.62,0,0,1,2.47-.38,8.44,8.44,0,0,1,2.47.38,3.42,3.42,0,0,1,1.71,1.14,6,6,0,0,1,1,1.9v12.74Zm-3.42-10.84a5.55,5.55,0,0,0-.38-1.71c-.19-.57-.76-.76-1.52-.76a1.43,1.43,0,0,0-1,.19l-.57.57c-.19.19-.19.57-.38,1v12a3.61,3.61,0,0,0,.38,1.52,2,2,0,0,0,1.52.76,1.54,1.54,0,0,0,1.52-.76c.38-.38.38-1,.38-1.71Z" style="fill: #aaa"/>
      <path d="M569.7,689.82V694h-2.85v-7l1.33-.19a4.53,4.53,0,0,0,1.14-2.09,13.56,13.56,0,0,0,.38-3.23l.38-13.31H580V687h1.33v7.22h-2.85V690H569.7Zm3-8.55c0,1.33-.19,2.28-.19,3.23a6.42,6.42,0,0,1-.76,2.28h4.75V671.19h-3.42Z" style="fill: #aaa"/>
      <polygon points="586.81 689.82 586.81 667.95 596.5 667.95 596.5 671.18 590.23 671.18 590.23 677.08 595.75 677.08 595.75 680.31 590.23 680.31 590.23 686.58 596.5 686.58 596.5 689.82 586.81 689.82" style="fill: #aaa"/>
      <path d="M610,676.13l-4.56,13.69h-3.23V668h3.23v13.88L610,668h3.23v21.86h-3.42ZM605.82,663a1.44,1.44,0,0,0,.19.76c.19.19.19.38.38.76l.57.57a1.14,1.14,0,0,0,.76.19c.38,0,.57,0,.76-.19l.57-.57a1,1,0,0,0,.38-.76c0-.19.19-.38.19-.76h2.47a6,6,0,0,1-.38,1.52c.19.38-.19,1-.57,1.33a8.27,8.27,0,0,1-1.33,1.14,5.63,5.63,0,0,1-1.9.38,6.84,6.84,0,0,1-2.09-.38,2.56,2.56,0,0,1-1.33-1.14,4.81,4.81,0,0,1-.76-1.33,5.88,5.88,0,0,1-.38-1.52Z" style="fill: #aaa"/>
      <path d="M625,667.76a7.08,7.08,0,0,1,2.28.38,7.71,7.71,0,0,1,1.71,1,4.16,4.16,0,0,1,1,1.52,6.89,6.89,0,0,1,.38,2.09l-3.23.76a4.74,4.74,0,0,0-.38-1.9,1.54,1.54,0,0,0-1.52-.76,1.42,1.42,0,0,0-1,.19l-.57.57a1.14,1.14,0,0,0-.19.76v12.74c0,.19.19.57.19.76l.57.57a1.42,1.42,0,0,0,1,.19c1.33,0,1.9-1,1.9-2.66a5.25,5.25,0,0,0,1.71.19c.57,0,1.14.19,1.71.19a6.27,6.27,0,0,1-1.33,4,5,5,0,0,1-3.8,1.52c-1.9,0-3.23-.38-4-1.33a5.36,5.36,0,0,1-1.33-4V673.66a9.25,9.25,0,0,1,.19-2.28,6,6,0,0,1,1-1.9,4.15,4.15,0,0,1,1.71-1.33,4.45,4.45,0,0,1,2.09-.38" style="fill: #aaa"/>
      <polygon points="641.37 671.18 641.37 689.82 637.95 689.82 637.95 671.18 634.34 671.18 634.34 667.95 644.79 667.95 644.79 671.18 641.37 671.18" style="fill: #aaa"/>
      <path d="M658.1,678.41a2.88,2.88,0,0,1,1.9,1.71,7.85,7.85,0,0,1,.57,3c0,2.28-.57,4-1.52,4.94-1,1.14-2.47,1.52-4.56,1.52h-4.56V668h4.76a5.31,5.31,0,0,1,4.18,1.52,7.29,7.29,0,0,1,.76,7c0,.76-.76,1.33-1.52,1.9m-.95-4.37a3.06,3.06,0,0,0-.57-2.09,2.84,2.84,0,0,0-1.9-.57h-1.14v5.7h1.14a2,2,0,0,0,1.9-.76,5,5,0,0,0,.57-2.28m.19,8.74a4.05,4.05,0,0,0-.57-2.28,2,2,0,0,0-1.9-.76h-1.33v6.84h1.33a2.75,2.75,0,0,0,1.33-.38,1.49,1.49,0,0,0,.76-.76,2.7,2.7,0,0,0,.38-1.14Z" style="fill: #aaa"/>
      <polygon points="674.83 676.13 670.27 689.82 667.04 689.82 667.04 667.95 670.27 667.95 670.27 681.83 670.46 681.83 675.02 667.95 678.25 667.95 678.25 689.82 674.83 689.82 674.83 676.13" style="fill: #aaa"/>
      <path d="M684,689.82,685.1,683a5.69,5.69,0,0,1,.76-1.9,3,3,0,0,1,1.33-1.33,4.12,4.12,0,0,1-2.09-1.9,7.2,7.2,0,0,1-.57-3,7.67,7.67,0,0,1,1.52-4.94,5.45,5.45,0,0,1,4.37-1.71h4.94V690h-3.42V680.5h-1a2.33,2.33,0,0,0-1.71.76c-.57.38-.76,1.33-1.14,2.47l-1,6.08Zm6.65-18.63a2.46,2.46,0,0,0-2.09,1,4.32,4.32,0,0,0-.57,2.47,2.78,2.78,0,0,0,.76,2.28,3.22,3.22,0,0,0,1.9.57h1.33v-6.27Z" style="fill: #aaa"/>
      <polygon points="461.71 707.88 456.01 724.8 452.02 724.8 452.02 697.8 456.2 697.8 456.2 714.91 456.39 714.91 462.09 697.8 466.27 697.8 466.27 724.8 461.9 724.8 461.71 707.88" style="fill: #aaa"/>
      <polygon points="486.62 724.8 486.62 713.01 481.87 713.01 481.87 724.8 477.68 724.8 477.68 697.8 481.87 697.8 481.87 709.02 486.81 709.02 486.81 697.8 490.99 697.8 490.99 724.8 486.62 724.8" style="fill: #aaa"/>
      <polygon points="511.71 724.8 511.71 713.01 506.77 713.01 506.77 724.8 502.59 724.8 502.59 697.8 506.77 697.8 506.77 709.02 511.71 709.02 511.71 697.8 515.89 697.8 515.89 724.8 511.71 724.8" style="fill: #aaa"/>
      <path d="M540.61,718a8.45,8.45,0,0,1-1.52,5.32C538,724.42,536.43,725,534,725c-2.28,0-4-.57-4.94-1.71a7.67,7.67,0,0,1-1.52-4.94v-13.5a11.42,11.42,0,0,1,.38-2.85A4.33,4.33,0,0,1,529,699.7a5.93,5.93,0,0,1,2.09-1.52,7.25,7.25,0,0,1,3-.57,8.19,8.19,0,0,1,3.23.57,7.83,7.83,0,0,1,2.09,1.33,4.33,4.33,0,0,1,1.14,2.28,14.66,14.66,0,0,1,.38,3V718Zm-4.18-13.5a4.33,4.33,0,0,0-.57-2.09,2.1,2.1,0,0,0-1.9-1,1.6,1.6,0,0,0-1.14.38c-.38.19-.57.57-.76.76a2.73,2.73,0,0,0-.38,1.14c0,.38-.19.76-.19,1.14v13.69a3.21,3.21,0,0,0,.57,1.9,2,2,0,0,0,1.9.76,2.1,2.1,0,0,0,1.9-1,3.83,3.83,0,0,0,.57-2.09Z" style="fill: #aaa"/>
      <path d="M562.09,710.73a3.71,3.71,0,0,1,2.47,2.28,11.29,11.29,0,0,1,.76,3.8c0,2.85-.57,4.94-1.9,6.27-1.14,1.33-3,1.9-5.51,1.9h-5.7V697.8h5.89c2.47,0,4.18.57,5.13,1.9a8,8,0,0,1,1.71,5.51,8.19,8.19,0,0,1-.57,3.23,3.57,3.57,0,0,1-2.28,2.09ZM561,705.22a3.44,3.44,0,0,0-.76-2.66,3.23,3.23,0,0,0-2.47-.76h-1.33v6.84h1.33a3.28,3.28,0,0,0,2.47-1c.57-.38.76-1.33.76-2.47m.19,11a4,4,0,0,0-.76-2.85,3,3,0,0,0-2.47-1h-1.52v8.37h1.71a4.54,4.54,0,0,0,1.71-.38,2.29,2.29,0,0,0,1-1,3.61,3.61,0,0,0,.38-1.52Z" style="fill: #aaa"/>
      <path d="M586.62,724.8l-1.14-5.7h-4.94l-.57,2.85-.57,2.85H575c1-4.56,1.9-9.12,2.66-13.5,1-4.56,1.9-8.94,2.66-13.5h4.75l5.51,27Zm-3.8-20.72c-.19,1.9-.57,3.8-.76,5.51-.38,1.9-.57,3.8-1,5.7h3.8l-1.71-11.22Z" style="fill: #aaa"/>
      <polygon points="614.19 697.8 614.19 721 615.9 721 615.9 730.12 612.28 730.12 612.28 724.99 600.88 724.99 600.88 697.8 605.06 697.8 605.06 721 609.81 721 609.81 697.8 614.19 697.8" style="fill: #aaa"/>
      <polygon points="635.67 707.88 629.97 724.8 625.97 724.8 625.97 697.8 630.16 697.8 630.16 714.91 635.86 697.8 640.04 697.8 640.04 724.8 635.86 724.8 635.67 707.88" style="fill: #aaa"/>
      <path d="M650.5,724.8l1.52-8.55a5.62,5.62,0,0,1,1-2.47,3.74,3.74,0,0,1,1.71-1.71,5.35,5.35,0,0,1-2.66-2.28,11.23,11.23,0,0,1-.76-3.8c0-2.66.57-4.75,1.9-6.08a7.16,7.16,0,0,1,5.32-2.09h6.27v27h-4.18V713.2h-1.14a3.17,3.17,0,0,0-2.09.76,5.06,5.06,0,0,0-1.33,3l-1.33,7.6H650.5Zm8.37-23a3,3,0,0,0-2.66,1.14,4.81,4.81,0,0,0-.76,3,3.17,3.17,0,0,0,1,2.66,3.51,3.51,0,0,0,2.47.76h1.71v-7.6Z" style="fill: #aaa"/>
      <polygon points="684.34 718.9 682.44 713.96 680.73 709.21 680.54 709.21 680.54 724.8 676.35 724.8 676.35 697.8 680.54 697.8 683.58 705.41 685.67 711.3 685.86 711.3 688.14 705.22 690.99 697.61 694.99 697.61 694.99 724.61 690.8 724.61 690.8 709.02 690.61 709.02 688.9 713.77 687 718.71 684.34 718.71 684.34 718.9" style="fill: #aaa"/>
    </g>
    <g>
      <path d="M689.16,741.16a121.7,121.7,0,0,1-29.89,21.94c-24.51,13-52.66,18.57-77.94,19h-2.86c-2.88,0-5.93,0-9-.21-39-1.71-85.4-14.74-117.95-49h23.76l.41.48c20.88,23.32,60.94,38.67,104.57,40.13,2.31.07,4.61.11,6.91.11C627.07,773.56,663.33,762,689.16,741.16Z" style="fill: #aaa"/>
      <path d="M691.92,736.95c-27.11,23.82-67.4,36.52-111.62,35.07-42.93-1.45-82.35-16.42-103.07-39.17h23.06l.54.54c19.36,18.4,51.07,29.71,87,31,2.34.09,4.67.13,7,.13C629.87,764.52,664,754.84,691.92,736.95Z" style="fill: #aaa"/>
      <path d="M693.46,734.19c-29.89,19.93-67.4,30.14-105.59,28.74-35.25-1.28-66.36-12.24-85.49-30.09H527c14,13.4,40,22.41,73.14,22.41h1.34c24.13-.19,51.7-5.17,81-16.47C686,737.29,689.72,735.79,693.46,734.19Z" style="fill: #aaa"/>
    </g>
  </g>
  <g>
    <g style="mask: url(#a)">
      <g>
        <rect x="128.53" y="91.15" width="67.74" height="28.74" style="fill: #aaa"/>
        <path d="M173.67,142.12,195,105.26l-21.32,12.31Z" style="fill: #aaa"/>
      </g>
    </g>
    <g style="mask: url(#b)">
      <g>
        <rect x="108" y="128.1" width="67.74" height="28.74" style="fill: #aaa"/>
        <path d="M152.37,179l21.29-36.87-21.32,12.29Z" style="fill: #aaa"/>
      </g>
    </g>
    <g style="mask: url(#c)">
      <g>
        <rect x="64.89" y="78.83" width="67.74" height="28.74" style="fill: #aaa"/>
        <path d="M109.66,129.93,131,93.08l-21.32,12.29Z" style="fill: #aaa"/>
      </g>
    </g>
    <path d="M195.5,164.72h8.34l-2-6.71-2-7.65h-.31l-2,7.65Zm10.25,6.71H193.59l-2.09,6.71c-.2.69-.47,1-1.49,1h-6.21c-.73,0-.89-.54-.73-1.05l11.1-33.54c.73-2.46,1.69-2.88,3.86-2.93h3.2c2.4,0,3.28.31,4.13,2.93l11.1,33.54a.74.74,0,0,1-.69,1.05h-6.32c-.8,0-1.31,0-1.53-.85Z" style="fill: #aaa"/>
    <path d="M242.38,171c1-.42,1.31-.16,1.64.65l1.8,3.85c.49,1,.33,1.39-.31,1.77a23.12,23.12,0,0,1-12.27,3c-11.56,0-16.73-7.22-16.73-19.1s6.92-19.48,17.11-19.48A21,21,0,0,1,244,143.88c.8.45.91.72.42,1.88l-1.64,3.69c-.38,1-.58,1.19-1.6.8a19.83,19.83,0,0,0-7.21-1.39c-5.86,0-9,5.23-9,12.21s2.22,11.69,9.19,11.69a22.05,22.05,0,0,0,8.19-1.86" style="fill: #aaa"/>
    <path d="M272.47,154.1l-4.73,8-8.88,14.65c-1.22,2-1.8,2.24-4,2.24h-2.11c-2.77,0-3.46-1.43-3.46-3.69V142.65c0-.76.33-1,1.11-1h5.68c1,0,1.13.22,1.13,1v24.13h.31l4.44-7.49,9.19-15.18c1.22-2,1.82-2.41,3.93-2.41h2.22c2.59,0,3.44,1,3.44,3.76v32.74c0,.74-.31,1-1.11,1H274c-1,0-1.18-.2-1.18-1V154.1Z" style="fill: #aaa"/>
  </g>
  <g>
    <path d="M548.43,418.65V400.42H552l5.14,11.7h1.11l5.14-11.7h3.55v18.24h-2.21V402.76h0l-5,11.46h-4l-5-11.46h-.05v15.89Z" style="fill: #aaa"/>
    <path d="M572.74,416.92a6.23,6.23,0,0,1-1.59-2.09,5.51,5.51,0,0,1-.51-2.47,5.7,5.7,0,0,1,.55-2.47,6.45,6.45,0,0,1,1.59-2.09,7.54,7.54,0,0,1,2.39-1.4,8.42,8.42,0,0,1,5.66,0,7.56,7.56,0,0,1,2.41,1.39,6.45,6.45,0,0,1,1.61,2.08,5.72,5.72,0,0,1,.57,2.46,6,6,0,0,1-1.31,3.53,7.39,7.39,0,0,1-3.31,2.33,8.54,8.54,0,0,1-4.23.39,7.94,7.94,0,0,1-3.8-1.68Zm1.61-7.88a4.48,4.48,0,0,0-1.1,1.5,4,4,0,0,0-.35,1.76,4,4,0,0,0,.35,1.76,4.52,4.52,0,0,0,1.1,1.51,5.88,5.88,0,0,0,7.32,0,4.48,4.48,0,0,0,1.1-1.5,4.67,4.67,0,0,0,0-3.51,4.45,4.45,0,0,0-1.1-1.5,5.82,5.82,0,0,0-7.32,0Z" style="fill: #aaa"/>
    <path d="M589.16,416.86a6.26,6.26,0,0,1-1.44-2.12,7.07,7.07,0,0,1,0-4.93,6.24,6.24,0,0,1,1.43-2.09,6.73,6.73,0,0,1,2.28-1.4,7.07,7.07,0,0,1,5.32.19,6.64,6.64,0,0,1,2.16,1.55,6.16,6.16,0,0,1,1.18,2.14H598a4,4,0,0,0-.86-1.23,4.45,4.45,0,0,0-1.52-.95,4.66,4.66,0,0,0-1.8-.29,4.38,4.38,0,0,0-1.74.32,4.15,4.15,0,0,0-1.44,1,4.45,4.45,0,0,0-1.31,3.23,4.39,4.39,0,0,0,1.31,3.25,4.2,4.2,0,0,0,1.42,1,4.42,4.42,0,0,0,1.72.33,4.62,4.62,0,0,0,1.89-.31,4.37,4.37,0,0,0,1.56-1,4,4,0,0,0,.89-1.35h2.07a6,6,0,0,1-2.35,3.33,6.7,6.7,0,0,1-4.06,1.21,6.58,6.58,0,0,1-2.53-.43A6.24,6.24,0,0,1,589.16,416.86Z" style="fill: #aaa"/>
    <path d="M602.08,418.65V405.89h2.28V411h2.88l4.6-5.11h2.76l-5.31,6,5.74,6.74h-2.88l-4.9-5.71h-2.88v5.74Z" style="fill: #aaa"/>
    <path d="M616.87,416.89a6.11,6.11,0,0,1-1.4-2.06,6,6,0,0,1-.45-2.43,6.2,6.2,0,0,1,.43-2.48,6.29,6.29,0,0,1,1.39-2.12,6.48,6.48,0,0,1,2.13-1.42,6.63,6.63,0,0,1,5.05,0,6.47,6.47,0,0,1,2.12,1.42,6.32,6.32,0,0,1,1.39,2.12,6.17,6.17,0,0,1,.43,2.48,6.31,6.31,0,0,1-1.15,3.47,6.55,6.55,0,0,1-2.9,2.3,6.73,6.73,0,0,1-3.72.38A6.63,6.63,0,0,1,616.87,416.89Zm1.42-7.74a4.43,4.43,0,0,0-1,1.48,5.09,5.09,0,0,0,0,3.45,4.41,4.41,0,0,0,1,1.48,4.73,4.73,0,0,0,6.42,0,4.48,4.48,0,0,0,1-1.48,4.59,4.59,0,0,0-1-4.93,4.68,4.68,0,0,0-6.42,0Z" style="fill: #aaa"/>
    <path d="M631.67,418.65V405.89h6.55a4.49,4.49,0,0,1,2.94.9,2.94,2.94,0,0,1,.8,1,2.82,2.82,0,0,1,.26,1.26,3.56,3.56,0,0,1-.18,1.16,2.48,2.48,0,0,1-.46.82,2.7,2.7,0,0,1-.57.48,2.25,2.25,0,0,1-.51.26,1.15,1.15,0,0,1-.28.06,1.29,1.29,0,0,1,.32.07,2.81,2.81,0,0,1,.63.28,4.6,4.6,0,0,1,.74.53,2.54,2.54,0,0,1,.6.89,3.77,3.77,0,0,1,0,2.78,3.4,3.4,0,0,1-.91,1.22,4.94,4.94,0,0,1-3.32,1Zm2.12-7.53h4.28c1.33,0,2-.55,2-1.66s-.67-1.66-2-1.66h-4.28Zm0,5.61h4.41a2.76,2.76,0,0,0,1.79-.51,1.77,1.77,0,0,0,.47-.63,1.71,1.71,0,0,0,.14-.77,1.68,1.68,0,0,0-.14-.77,1.76,1.76,0,0,0-.47-.64,2.77,2.77,0,0,0-1.79-.51h-4.41Z" style="fill: #aaa"/>
    <path d="M646.5,416.79a6.22,6.22,0,0,1-1.42-2.09,6.89,6.89,0,0,1,0-4.9,6.24,6.24,0,0,1,1.43-2.09,6.71,6.71,0,0,1,2.27-1.39,7.05,7.05,0,0,1,5.31.19,6.64,6.64,0,0,1,2.16,1.55,6.06,6.06,0,0,1,1.17,2.13h-2.07a3.9,3.9,0,0,0-.86-1.23A4.41,4.41,0,0,0,653,408a4.63,4.63,0,0,0-1.8-.28,4.37,4.37,0,0,0-1.74.32,4.14,4.14,0,0,0-1.43,1,4.46,4.46,0,0,0-1.26,3.24,4.4,4.4,0,0,0,1.3,3.24,4.2,4.2,0,0,0,1.42,1,4.42,4.42,0,0,0,1.71.33,4.59,4.59,0,0,0,1.89-.31,4.37,4.37,0,0,0,1.56-1,3.79,3.79,0,0,0,.89-1.35h2.07a6,6,0,0,1-1.2,2.28,6.38,6.38,0,0,1-2.32,1.7,6.76,6.76,0,0,1-2.88.55,6.54,6.54,0,0,1-2.55-.46A6.21,6.21,0,0,1,646.5,416.79Z" style="fill: #aaa"/>
    <path d="M659.42,418.65V405.89h2.28V411h2.88l4.61-5.11h2.74l-5.33,6,5.77,6.74h-2.88l-4.88-5.71h-2.88v5.74Z" style="fill: #aaa"/>
    <path d="M674.22,418.65V405.89h2v9.83h0l6.78-9.83h2.27v12.77h-2v-9.83h-.05l-6.78,9.83Z" style="fill: #aaa"/>
    <path d="M689,418.65v-13h2v10h0l6.78-10h2.27v13h-2v-10h-.05l-6.78,10Zm1.81-18.24h1.87a1.5,1.5,0,0,0,.12.62,1.45,1.45,0,0,0,.36.51,2.6,2.6,0,0,0,2.85,0,1.46,1.46,0,0,0,.47-1.14h1.89a3,3,0,0,1-.26,1.29,3,3,0,0,1-.77,1.05,4.69,4.69,0,0,1-5.55,0,3,3,0,0,1-.75-1.06,3.08,3.08,0,0,1-.24-1.29Z" style="fill: #aaa"/>
    <path d="M548.43,440.54V427.77h2v9.83h.05l6.78-9.83h2.27v12.77h-2v-9.83h0l-6.78,9.83Z" style="fill: #aaa"/>
    <path d="M563.23,440.54V427.77h2V433h7.09v-5.23h2v12.77h-2v-5.62h-7.07v5.62Z" style="fill: #aaa"/>
    <path d="M578,440.54V427.77h2V433h7.09v-5.23h2v12.77h-2v-5.62H580v5.62Z" style="fill: #aaa"/>
    <path d="M594.67,438.78a6.09,6.09,0,0,1-1.39-2.06,6,6,0,0,1-.45-2.43,6.14,6.14,0,0,1,.43-2.48,6.29,6.29,0,0,1,1.39-2.12,6.47,6.47,0,0,1,2.12-1.42,6.63,6.63,0,0,1,5.05,0A6.48,6.48,0,0,1,604,429.7a6.29,6.29,0,0,1,1.39,2.12,6.2,6.2,0,0,1,.43,2.48,6.3,6.3,0,0,1-1.15,3.47,6.53,6.53,0,0,1-2.9,2.3,6.73,6.73,0,0,1-3.72.38A6.63,6.63,0,0,1,594.67,438.78Zm1.42-7.74a4.4,4.4,0,0,0-1,1.48,5.11,5.11,0,0,0,0,3.46,4.41,4.41,0,0,0,1,1.48,4.68,4.68,0,0,0,6.42,0,4.38,4.38,0,0,0,1-1.48,5.11,5.11,0,0,0,0-3.46,4.37,4.37,0,0,0-1-1.48,4.68,4.68,0,0,0-6.42,0Z" style="fill: #aaa"/>
    <path d="M609.48,440.54V427.78H616a4.49,4.49,0,0,1,3,.89,2.92,2.92,0,0,1,.81,1,2.78,2.78,0,0,1,.26,1.26,3.52,3.52,0,0,1-.18,1.16,2.32,2.32,0,0,1-1,1.3,2.3,2.3,0,0,1-.51.26,1,1,0,0,1-.28.07,1.7,1.7,0,0,1,.33.06,2.73,2.73,0,0,1,.63.28,4.39,4.39,0,0,1,.71.52,2.53,2.53,0,0,1,.6.9,3.22,3.22,0,0,1,.25,1.3,3.3,3.3,0,0,1-.28,1.47,3.46,3.46,0,0,1-.91,1.22,5,5,0,0,1-3.34,1ZM611.6,433h4.28c1.34,0,2-.55,2-1.66s-.64-1.64-2-1.64h-4.28Zm0,5.62H616a2.75,2.75,0,0,0,1.8-.51,2,2,0,0,0,.46-.64,1.89,1.89,0,0,0,0-1.52,2,2,0,0,0-.46-.64,2.75,2.75,0,0,0-1.8-.51H611.6Z" style="fill: #aaa"/>
    <path d="M624.25,438.72a6.61,6.61,0,0,1,0-9.11,5.86,5.86,0,0,1,2-1.37,6.14,6.14,0,0,1,2.42-.46,5.9,5.9,0,0,1,2.75.59,4.7,4.7,0,0,1,1.65,1.3l.23.36v-2h2.06v12.32h-2.06v-2l-.23.34a4.49,4.49,0,0,1-1.61,1.27,6,6,0,0,1-2.81.61,6.14,6.14,0,0,1-2.41-.46A5.86,5.86,0,0,1,624.25,438.72Zm1.55-7.85a4.84,4.84,0,0,0,0,6.51,4.41,4.41,0,0,0,1.44.95,4.61,4.61,0,0,0,3.44,0,4.38,4.38,0,0,0,1.44-.95,4.84,4.84,0,0,0,0-6.51,4.38,4.38,0,0,0-1.44-.95,4.61,4.61,0,0,0-3.44,0A4.41,4.41,0,0,0,625.8,430.87Z" style="fill: #aaa"/>
    <path d="M639.07,441.12V427.77h2.1v11.35h6.89V427.77h2.1v11.35H652v5.07h-2.1v-3.07Z" style="fill: #aaa"/>
    <path d="M653.87,440.54V427.77h2v9.83h0l6.78-9.83H665v12.77h-2v-9.83h0l-6.78,9.83Z" style="fill: #aaa"/>
    <path d="M670.51,438.78a6.14,6.14,0,0,1-1.39-2.06,6,6,0,0,1-.45-2.43,6.2,6.2,0,0,1,.43-2.48,6.29,6.29,0,0,1,1.39-2.12,6.48,6.48,0,0,1,2.13-1.42,6.63,6.63,0,0,1,5.05,0,6.49,6.49,0,0,1,2.12,1.42,6.29,6.29,0,0,1,1.39,2.12,6.14,6.14,0,0,1,.43,2.48,6.31,6.31,0,0,1-1.15,3.47,6.55,6.55,0,0,1-2.9,2.3,6.73,6.73,0,0,1-3.72.38A6.63,6.63,0,0,1,670.51,438.78Zm1.42-7.74a4.37,4.37,0,0,0-1,1.48,5.11,5.11,0,0,0,0,3.46,4.38,4.38,0,0,0,1,1.48,4.68,4.68,0,0,0,6.42,0,4.38,4.38,0,0,0,1-1.48,5.12,5.12,0,0,0,0-3.46,4.4,4.4,0,0,0-1-1.48,4.68,4.68,0,0,0-6.42,0Z" style="fill: #aaa"/>
    <path d="M685.32,440.54V427.77h2V433h7.09v-5.23h2v12.77h-2v-5.62h-7.07v5.62Z" style="fill: #aaa"/>
    <path d="M700.11,440.54V427.77h2V433h7.09v-5.23h2v12.77h-2v-5.62h-7.09v5.62Z" style="fill: #aaa"/>
    <path d="M714.91,440.54V427.77h2.2v4.34h3.32a5.79,5.79,0,0,1,3.8,1.21,4.06,4.06,0,0,1,1.09,1.35,3.71,3.71,0,0,1,0,3.29,4.06,4.06,0,0,1-1.09,1.35,5.79,5.79,0,0,1-3.8,1.21Zm2.2-1.91h3.32a3.51,3.51,0,0,0,2.25-.64,2.24,2.24,0,0,0,.59-.75,2.07,2.07,0,0,0,0-1.82,2.23,2.23,0,0,0-.59-.75,3.55,3.55,0,0,0-2.25-.67h-3.32Zm10.4,1.91V427.77h2.2v12.76Z" style="fill: #aaa"/>
    <path d="M733.41,440.54v-13h2v10h0l6.78-10h2.27v13h-2v-10h-.05l-6.78,10Zm1.82-18.24h1.89a1.47,1.47,0,0,0,.11.62,1.43,1.43,0,0,0,.37.51,2.51,2.51,0,0,0,2.82,0,1.41,1.41,0,0,0,.37-.51,1.45,1.45,0,0,0,.11-.62h1.89a3,3,0,0,1-.24,1.31,3,3,0,0,1-.77,1.07,4.66,4.66,0,0,1-5.55,0,3,3,0,0,1-.77-1.07A3.06,3.06,0,0,1,735.23,422.3Z" style="fill: #aaa"/>
    <path d="M548.43,462.43V449.66h2v5.11h2.47l4-5.11h2.34l-4.57,6,4.94,6.74h-2.45l-4.2-5.74H550.4v5.74Z" style="fill: #aaa"/>
    <path d="M559.53,462.43l3.69-12.77h5.57l3.69,12.77h-2.27l-3-10.85H564.8l-3,10.85Z" style="fill: #aaa"/>
    <path d="M576.14,460.59a6.62,6.62,0,0,1,0-9.1,5.85,5.85,0,0,1,2-1.37,6.15,6.15,0,0,1,2.42-.46,6,6,0,0,1,2.75.59,4.94,4.94,0,0,1,1.65,1.3l.24.37v-2h2.07v12.31h-2.07v-1.95l-.24.34a4.51,4.51,0,0,1-1.58,1.25,6.06,6.06,0,0,1-2.82.6,6.15,6.15,0,0,1-2.43-.46A5.85,5.85,0,0,1,576.14,460.59Zm1.52-7.84a4.89,4.89,0,0,0,0,6.55,4.4,4.4,0,0,0,1.45.94,4.64,4.64,0,0,0,3.44,0,4.43,4.43,0,0,0,1.45-.94,4.86,4.86,0,0,0,0-6.55,4.41,4.41,0,0,0-1.45-.95,4.62,4.62,0,0,0-3.45,0A4.38,4.38,0,0,0,577.66,452.76Z" style="fill: #aaa"/>
    <path d="M592.87,460.61a6.45,6.45,0,0,1,0-9.12,6.74,6.74,0,0,1,2.28-1.39,7.09,7.09,0,0,1,5.33.19,6.65,6.65,0,0,1,2.16,1.55,6,6,0,0,1,1.18,2.13h-2.07a4,4,0,0,0-.89-1.25,4.46,4.46,0,0,0-1.53-.95,4.68,4.68,0,0,0-1.8-.29,4.39,4.39,0,0,0-1.74.32,4.15,4.15,0,0,0-1.44,1,4.42,4.42,0,0,0-1.27,3.24,4.37,4.37,0,0,0,1.31,3.24,4.19,4.19,0,0,0,1.42,1,4.44,4.44,0,0,0,1.72.33,4.63,4.63,0,0,0,1.89-.31,4.36,4.36,0,0,0,1.57-1,3.8,3.8,0,0,0,.87-1.31h2.07a6,6,0,0,1-1.2,2.28,6.41,6.41,0,0,1-2.31,1.7,6.82,6.82,0,0,1-2.88.56A6.6,6.6,0,0,1,595,462,6.24,6.24,0,0,1,592.87,460.61Z" style="fill: #aaa"/>
    <path d="M603.93,451.58v-1.91H615v1.91h-4.52v10.85h-2V451.58Z" style="fill: #aaa"/>
    <path d="M618.72,460.61a6.55,6.55,0,0,1,0-9.12,6.23,6.23,0,0,1,2.11-1.38,6.41,6.41,0,0,1,2.51-.44,6.54,6.54,0,0,1,2.51.44,6.35,6.35,0,0,1,2.12,1.36,6.12,6.12,0,0,1,1.4,2.06,5.93,5.93,0,0,1,.45,2.42v.71H618.91a4.37,4.37,0,0,0,4.44,3.92,4.91,4.91,0,0,0,3.23-1.1,3.89,3.89,0,0,0,1-1.1h2a6.28,6.28,0,0,1-2.43,3,6.62,6.62,0,0,1-3.78,1.06,6.42,6.42,0,0,1-2.51-.44A6.24,6.24,0,0,1,618.72,460.61Zm.23-5.66h8.72a3.94,3.94,0,0,0-1.38-2.44,4.35,4.35,0,0,0-2.92-1,4.46,4.46,0,0,0-2.94,1A4,4,0,0,0,619,454.94Z" style="fill: #aaa"/>
    <path d="M633.52,467.9v-18h2.06V452l.26-.39a4.48,4.48,0,0,1,1.59-1.31,5.68,5.68,0,0,1,2.81-.64,5.86,5.86,0,0,1,4.43,1.94,7.31,7.31,0,0,1,0,9.62,6.22,6.22,0,0,1-7.25,1.31,4,4,0,0,1-1.57-1.34l-.26-.36v7.08ZM636.87,453a5.37,5.37,0,0,0,0,6.93,4.38,4.38,0,0,0,6.32,0,5.37,5.37,0,0,0,0-6.93,4.37,4.37,0,0,0-6.32,0Z" style="fill: #aaa"/>
    <g>
      <path d="M530.76,391.33v79.35h-30.7V454.9a79.41,79.41,0,0,0,7.37-6.6A81.26,81.26,0,0,0,530.76,391.33Z" style="fill: #aaa"/>
      <path d="M481.88,391.33v38.51A48.14,48.14,0,0,1,467,438.18,81.4,81.4,0,0,0,481.88,391.33Z" style="fill: #aaa"/>
      <path d="M530.76,391.33a81.26,81.26,0,0,1-23.33,57A79.42,79.42,0,0,1,451.18,472v-17a79,79,0,0,1-48.88,17V440.88a48.63,48.63,0,0,0,34.56-14.54,49.94,49.94,0,0,0,14.31-35h30.7A81.4,81.4,0,0,1,467,438.18a48.14,48.14,0,0,0,14.87-8.34,45.59,45.59,0,0,0,3.87-3.5,49.94,49.94,0,0,0,14.31-35Z" style="fill: #aaa;opacity: 0.6000000000000001"/>
      <path d="M481.88,391.3v0h-30.7v0Z" style="fill: #aaa"/>
      <path d="M530.76,391.3v0h-30.7v0Z" style="fill: #aaa"/>
    </g>
  </g>
  <g>
    <path d="M111.48,763.81c-.43-1.58-1.29-4.64-5.8-4.64-2.62,0-6.59,1.88-6.59,9.26,0,4.69,2,9,6.59,9,3,0,5.16-1.83,5.8-5h5.45c-1.08,5.7-4.79,9.65-11.35,9.65-6.95,0-11.92-4.73-11.92-13.73,0-9.15,5.26-13.79,12-13.79,7.82,0,11,5.4,11.28,9.25h-5.45Z" style="fill: #aaa"/>
    <path d="M123.59,769.37,130,762h6.24l-6.81,7.49,7,11.89h-6.09l-4.62-8.32-2.11,2.2v6.12h-5.08V762h5.08v7.35Z" style="fill: #aaa"/>
    <path d="M155,771.67c0,7-4.69,10.24-9.87,10.24s-9.9-3.2-9.9-10.19,4.72-10.2,9.9-10.2,9.87,3.17,9.87,10.16m-14.55,0c0,2.48.75,5.94,4.68,5.94s4.65-3.42,4.65-5.89-.72-5.91-4.65-5.91-4.68,3.38-4.68,5.86" style="fill: #aaa"/>
    <path d="M174.1,762v19.38H169v-15.3h-5.44v6c0,7.41-2.23,9.75-5.8,9.75a11,11,0,0,1-3.09-.42v-3.79a5,5,0,0,0,1.5.14c1.53,0,2.32-.75,2.32-6.65V762H174.1Z" style="fill: #aaa"/>
    <path d="M181.77,769.37l6.4-7.35h6.24l-6.81,7.49,7,11.89H188.5l-4.61-8.32-2.12,2.2v6.12h-5.08V762h5.08Z" style="fill: #aaa"/>
    <path d="M213.18,771.67c0,7-4.68,10.24-9.87,10.24s-9.9-3.2-9.9-10.19,4.72-10.2,9.9-10.2,9.87,3.17,9.87,10.16m-14.54,0c0,2.48.75,5.94,4.68,5.94s4.66-3.42,4.66-5.89-.75-5.91-4.66-5.91-4.68,3.38-4.68,5.86" style="fill: #aaa"/>
    <path d="M214.83,762h8.75c4.33,0,7.5,1.77,7.5,5a4.32,4.32,0,0,1-3.61,4.18c2,.47,4.18,1.74,4.18,4.91,0,3.59-2.72,5.29-7.11,5.29h-9.71Zm5.07,7.85h3.31c1.69,0,2.88-.68,2.88-2.2s-1.15-2.16-2.84-2.16H219.9Zm0,8h3.74c1.88,0,3-.58,3-2.49,0-1.69-1.22-2.48-3.1-2.48H219.9Z" style="fill: #aaa"/>
    <path d="M252,771.67c0,7-4.67,10.24-9.87,10.24s-9.91-3.2-9.91-10.19,4.73-10.2,9.91-10.2,9.87,3.17,9.87,10.16m-14.55,0c0,2.48.77,5.94,4.69,5.94s4.64-3.42,4.64-5.89-.71-5.91-4.64-5.91-4.69,3.38-4.69,5.86" style="fill: #aaa"/>
    <path d="M130.59,750.18c4.33,0,15-.76,23-6.58V748h16.08l0-19.41,6.71-6.95L191,748h19.29l-22.14-37.66,21.56-23.73H189.94l-20.29,23.29V665.17H153.55v7.08c-4.9-5.26-12.84-9.24-25.23-9.24-26.81,0-31.85,16.31-31.85,25.44,0,12.55,6.74,19.52,18.49,22.37l16.66,4.1c8.79,2.17,15.07,3.77,15.07,10.27,0,8.67-9.14,10.72-17.35,10.72-15.06,0-17.57-8.78-17.57-13.46H95.22c0,10.27,5.25,27.72,35.37,27.72m11-49.4-20.19-4.92c-3.43-.8-8.8-2.17-8.8-8.67,0-7.42,7.88-9.93,14.49-9.93,15.06,0,16.44,8.79,16.88,12.55h9.61v15.44a46.26,46.26,0,0,0-12-4.48" style="fill: #aaa"/>
  </g>
  <g>
    <g>
      <path d="M471.42,104.42V100.1h.81c.82-.56,1.05-1.48,1.15-3.05l.4-6.6h8.35v9.65h1.46v4.32h-2.21v-2.31h-7.75v2.31Zm3.47-4.45v.13h4.8V92.46h-3.76l-.3,4.76A4.74,4.74,0,0,1,474.89,100Z" style="fill: #aaa"/>
      <path d="M485.57,90.45h7.72v2H488v2.81h5v1.88h-5v3h5.29v2h-7.72Z" style="fill: #aaa"/>
      <path d="M503.64,102.12V92.46h-5.22v9.65H496V90.45h10.1v11.67Z" style="fill: #aaa"/>
      <path d="M512.2,90.45h2.87l4.06,11.67h-2.57l-.87-2.83h-4.11l-.87,2.83h-2.56Zm-.06,7h3l-1.42-4.68h-.15Z" style="fill: #aaa"/>
      <path d="M521.2,90.45H526a3.81,3.81,0,0,1,4.09,4v0a3.81,3.81,0,0,1-4.09,4h-2.37v3.68H521.2Zm2.44,1.93v4.15h1.77a2,2,0,0,0,2.22-2.07v0a2,2,0,0,0-2.22-2.06Z" style="fill: #aaa"/>
      <path d="M535,92.46h-3.5v-2h9.44v2h-3.5v9.65H535Z" style="fill: #aaa"/>
      <path d="M545.24,90.45h2.87l4.06,11.67h-2.57l-.87-2.83h-4.11l-.87,2.83H541.2Zm-.06,7h3l-1.42-4.68h-.15Z" style="fill: #aaa"/>
      <path d="M554.24,90.45H557L560.27,99h.14l3.22-8.54h2.8v11.67h-2.18V94.17h-.16l-3,7.94h-1.52l-3-7.94h-.17v7.94h-2.17Z" style="fill: #aaa"/>
      <path d="M569.33,90.45h7.72v2h-5.29v2.81h5v1.88h-5v3h5.29v2h-7.72Z" style="fill: #aaa"/>
      <path d="M579.73,90.45h2.44v4.74h5.26V90.45h2.44v11.67h-2.44V97.2h-5.26v4.92h-2.44Z" style="fill: #aaa"/>
      <path d="M595.61,92.46h-3.5v-2h9.44v2h-3.5v9.65h-2.44Z" style="fill: #aaa"/>
      <path d="M480.24,121.87v-9.66H475v9.66h-2.44V110.2h10.1v11.67Z" style="fill: #aaa"/>
      <path d="M485.6,110.2h4.8a3.82,3.82,0,0,1,4.1,4h0a3.82,3.82,0,0,1-4.1,4H488v3.68H485.6Zm2.44,1.93v4.15h1.77a2,2,0,0,0,2.22-2.07v0a2,2,0,0,0-2.22-2.06Z" style="fill: #aaa"/>
      <path d="M496.85,110.2h7.72v2h-5.29V115h5v1.88h-5v2.95h5.29v2h-7.72Z" style="fill: #aaa"/>
      <path d="M506.08,124.17v-4.32h.81c.82-.56,1.05-1.48,1.15-3.05l.4-6.6h8.35v9.65h1.46v4.32H516v-2.31h-7.75v2.31Zm3.47-4.46v.14h4.8v-7.64h-3.76l-.3,4.76A4.71,4.71,0,0,1,509.55,119.71Z" style="fill: #aaa"/>
      <path d="M527.9,121.87v-9.66h-5.22v9.66h-2.44V110.2h10.1v11.67Z" style="fill: #aaa"/>
      <path d="M533.25,110.2h4.81a3.81,3.81,0,0,1,4.09,4h0a3.81,3.81,0,0,1-4.09,4h-2.37v3.68h-2.44Zm2.44,1.93v4.15h1.77a2,2,0,0,0,2.22-2.07v0a2,2,0,0,0-2.22-2.06Z" style="fill: #aaa"/>
      <path d="M544.5,110.2h2.43V118h.17l5.25-7.8h2.34v11.67h-2.44v-7.79h-.15l-5.25,7.79H544.5Z" style="fill: #aaa"/>
      <path d="M557.59,110.2H560v4.74h5.26V110.2h2.44v11.67h-2.44V117H560v4.92h-2.44Z" style="fill: #aaa"/>
      <path d="M570.64,110.2h2.43V118h.17l5.25-7.8h2.33v11.67h-2.43v-7.79h-.16L573,121.87h-2.35Z" style="fill: #aaa"/>
      <path d="M583.73,110.2h2.8l3.22,8.54h.15l3.22-8.54h2.79v11.67h-2.17v-7.94h-.16l-3,7.94h-1.53l-3-7.94h-.17v7.94h-2.17Z" style="fill: #aaa"/>
      <path d="M602,110.2h2.87L609,121.87h-2.57l-.87-2.83h-4.11l-.87,2.83H598Zm-.06,7h3l-1.42-4.68h-.15Z" style="fill: #aaa"/>
      <path d="M612.7,112.21h-3.5v-2h9.44v2h-3.5v9.66H612.7Z" style="fill: #aaa"/>
      <path d="M620.89,110.2h7.72v2h-5.29V115h5v1.88h-5v2.95h5.29v2h-7.72Z" style="fill: #aaa"/>
      <path d="M630.12,121.87v-2.13a2.94,2.94,0,0,0,.54.06c1.19,0,1.47-1.15,1.54-2.69l.35-6.9h8.11v11.67h-2.44v-9.66h-3.49l-.28,5c-.16,2.87-1,4.72-3.46,4.72A3.31,3.31,0,0,1,630.12,121.87Z" style="fill: #aaa"/>
      <path d="M643.31,110.2h2.44v3.91H648a3.83,3.83,0,0,1,4.17,3.86v0a3.76,3.76,0,0,1-4,3.87h-4.82Zm2.44,5.84v3.88h1.74c1.4,0,2.2-.68,2.2-1.92v0c0-1.25-.81-1.94-2.2-1.94Z" style="fill: #aaa"/>
      <path d="M654.27,116h0c0-3.78,2.09-6.12,5.47-6.12a4.77,4.77,0,0,1,5.06,4.23v.1h-2.37v-.06a2.64,2.64,0,0,0-2.69-2.2c-1.83,0-3,1.54-3,4.05h0c0,2.51,1.15,4.06,3,4.06a2.57,2.57,0,0,0,2.67-2.07l0-.06h2.37v.09c-.25,2.44-2.25,4.11-5.06,4.11C656.35,122.17,654.27,119.82,654.27,116Z" style="fill: #aaa"/>
      <path d="M669.53,112.21H666v-2h9.44v2H672v9.66h-2.44Z" style="fill: #aaa"/>
      <path d="M677.73,110.2h5.1c2.26,0,3.61,1.1,3.61,2.9h0a2.53,2.53,0,0,1-2.11,2.49v.14a2.78,2.78,0,0,1,2.66,2.78h0c0,2-1.54,3.33-4,3.33h-5.24Zm2.44,1.81v3H682c1.31,0,2-.55,2-1.51v0c0-.95-.67-1.51-1.83-1.51Zm0,4.65V120h2.17c1.41,0,2.17-.6,2.17-1.7h0c0-1.09-.79-1.67-2.23-1.67Z" style="fill: #aaa"/>
      <path d="M692.4,110.2h2.87l4.06,11.67h-2.57l-.87-2.83h-4.11l-.87,2.83h-2.56Zm-.06,7h3l-1.42-4.68h-.15Z" style="fill: #aaa"/>
      <path d="M472.59,130H475v7.8h.17l5.25-7.8h2.34v11.67h-2.44v-7.79h-.15l-5.25,7.79h-2.35Z" style="fill: #aaa"/>
      <path d="M489.92,130h2.43v7.8h.17l5.25-7.8h2.34v11.67h-2.44v-7.79h-.15l-5.25,7.79h-2.35Z" style="fill: #aaa"/>
      <path d="M503,130h2.44v4.74h5.26V130h2.44v11.67h-2.44V136.7h-5.26v4.92H503Z" style="fill: #aaa"/>
      <path d="M516.06,130h2.44v4.74h5.26V130h2.44v11.67h-2.44V136.7H518.5v4.92h-2.44Z" style="fill: #aaa"/>
      <path d="M528.6,135.79h0c0-3.78,2.18-6.12,5.62-6.12s5.61,2.35,5.61,6.12h0c0,3.77-2.16,6.13-5.61,6.13S528.6,139.56,528.6,135.79Zm8.74,0h0c0-2.48-1.23-4.05-3.12-4.05s-3.13,1.58-3.13,4.05h0c0,2.47,1.21,4.06,3.13,4.06S537.34,138.25,537.34,135.79Z" style="fill: #aaa"/>
      <path d="M542.22,130h5.1c2.26,0,3.61,1.11,3.61,2.9v0a2.52,2.52,0,0,1-2.11,2.48v.14a2.78,2.78,0,0,1,2.67,2.77v0c0,2-1.55,3.33-4,3.33h-5.24Zm2.44,1.81v3h1.84c1.31,0,2-.55,2-1.52h0c0-.95-.67-1.51-1.83-1.51Zm0,4.65v3.39h2.18c1.4,0,2.16-.6,2.16-1.7v0c0-1.08-.79-1.66-2.23-1.66Z" style="fill: #aaa"/>
      <path d="M556.9,130h2.87l4.06,11.67h-2.57l-.87-2.83h-4.11l-.87,2.83h-2.56Zm-.06,7h3l-1.42-4.68h-.15Z" style="fill: #aaa"/>
      <path d="M575.26,141.62H565.9V130h2.44v9.65h5.21V130H576v9.65h1.47v4.32h-2.21Z" style="fill: #aaa"/>
      <path d="M579.44,130h2.43v7.8H582l5.25-7.8h2.34v11.67h-2.44v-7.79H587l-5.25,7.79h-2.35Z" style="fill: #aaa"/>
      <path d="M592,135.79h0c0-3.78,2.18-6.12,5.62-6.12s5.61,2.35,5.61,6.12h0c0,3.77-2.16,6.13-5.61,6.13S592,139.56,592,135.79Zm8.74,0h0c0-2.48-1.23-4.05-3.12-4.05s-3.13,1.58-3.13,4.05h0c0,2.47,1.21,4.06,3.13,4.06S600.76,138.25,600.76,135.79Z" style="fill: #aaa"/>
      <path d="M605.64,130h2.44v4.74h5.26V130h2.44v11.67h-2.44V136.7h-5.26v4.92h-2.44Z" style="fill: #aaa"/>
      <path d="M618.69,130h2.44v4.74h5.26V130h2.44v11.67h-2.44V136.7h-5.26v4.92h-2.44Z" style="fill: #aaa"/>
      <path d="M631.22,135.79h0c0-3.78,2.18-6.12,5.62-6.12s5.61,2.35,5.61,6.12h0c0,3.77-2.16,6.13-5.61,6.13S631.22,139.56,631.22,135.79Zm8.74,0h0c0-2.48-1.23-4.05-3.12-4.05s-3.13,1.58-3.13,4.05h0c0,2.47,1.21,4.06,3.13,4.06S640,138.25,640,135.79Z" style="fill: #aaa"/>
      <path d="M644.85,141.62V130h7.52v2h-5.08v9.65Z" style="fill: #aaa"/>
      <path d="M653.69,135.79h0c0-3.78,2.18-6.12,5.62-6.12s5.61,2.35,5.61,6.12h0c0,3.77-2.16,6.13-5.61,6.13S653.69,139.56,653.69,135.79Zm8.74,0h0c0-2.48-1.23-4.05-3.12-4.05s-3.13,1.58-3.13,4.05h0c0,2.47,1.21,4.06,3.13,4.06S662.43,138.25,662.43,135.79Z" style="fill: #aaa"/>
      <path d="M671.56,130h4.8a3.82,3.82,0,0,1,4.1,4v0a3.82,3.82,0,0,1-4.1,4H674v3.68h-2.44Zm2.44,1.93V136h1.77A2,2,0,0,0,678,134v0a2,2,0,0,0-2.22-2.06Z" style="fill: #aaa"/>
      <path d="M685.06,130h2.87L692,141.62h-2.57l-.87-2.83h-4.11l-.87,2.83H681Zm-.06,7h3l-1.42-4.68h-.15Z" style="fill: #aaa"/>
      <path d="M696.15,134.74h1.54c1.21,0,2-.63,2-1.6h0c0-.9-.72-1.44-1.92-1.44s-2,.55-2.06,1.51v0h-2.27v-.09c.11-2.13,1.8-3.48,4.39-3.48s4.19,1.27,4.19,3.17h0a2.7,2.7,0,0,1-2.2,2.64v.14a2.7,2.7,0,0,1,2.61,2.78h0c0,2.06-2,3.51-4.67,3.51s-4.51-1.46-4.59-3.56v-.06h2.35v0c.07,1,1,1.54,2.26,1.54s2.15-.65,2.15-1.64v0c0-1-.81-1.58-2.2-1.58h-1.57Z" style="fill: #aaa"/>
      <path d="M704.73,130h5.1c2.26,0,3.61,1.11,3.61,2.9v0a2.52,2.52,0,0,1-2.11,2.48v.14a2.78,2.78,0,0,1,2.67,2.77v0c0,2-1.55,3.33-4,3.33h-5.24Zm2.44,1.81v3H709c1.31,0,2-.55,2-1.52h0c0-.95-.67-1.51-1.83-1.51Zm0,4.65v3.39h2.18c1.4,0,2.16-.6,2.16-1.7v0c0-1.08-.79-1.66-2.23-1.66Z" style="fill: #aaa"/>
      <path d="M716.3,130h2.43v7.8h.17l5.25-7.8h2.34v11.67H724v-7.79h-.15l-5.25,7.79H716.3Z" style="fill: #aaa"/>
      <path d="M732.22,132h-3.5v-2h9.44v2h-3.5v9.65h-2.44Z" style="fill: #aaa"/>
      <path d="M740.42,130h2.43v7.8H743l5.25-7.8h2.34v11.67h-2.44v-7.79H748l-5.25,7.79h-2.35Z" style="fill: #aaa"/>
      <path d="M759.83,141.62V137.4H758.2l-2.77,4.21h-2.7l3.07-4.55a3.43,3.43,0,0,1-2.51-3.34h0c0-2.24,1.63-3.76,4.23-3.76h4.74v11.67Zm0-9.74h-2c-1.29,0-2.09.7-2.09,1.84v0c0,1.16.78,1.85,2.1,1.85h2Z" style="fill: #aaa"/>
      <path d="M472.66,161.37V149.7h6.92V151h-5.47v10.36Z" style="fill: #aaa"/>
      <path d="M481,155.54h0c0-3.75,2.05-6.1,5.35-6.1s5.35,2.36,5.35,6.1h0c0,3.72-2,6.11-5.35,6.11S481,159.26,481,155.54Zm9.21,0h0c0-2.91-1.48-4.75-3.86-4.75s-3.86,1.84-3.86,4.75h0c0,2.89,1.44,4.76,3.86,4.76S490.18,158.42,490.18,155.54Z" style="fill: #aaa"/>
      <path d="M494.29,149.7h4.4a3.57,3.57,0,0,1,3.74,3.73h0a3.6,3.6,0,0,1-3.74,3.76h-2.95v4.16h-1.45Zm1.45,1.29v4.92h2.58a2.33,2.33,0,0,0,2.62-2.45h0a2.32,2.32,0,0,0-2.62-2.45Z" style="fill: #aaa"/>
      <path d="M504.44,155.54h0c0-3.75,2.05-6.1,5.35-6.1s5.35,2.36,5.35,6.1h0c0,3.72-2,6.11-5.35,6.11S504.44,159.26,504.44,155.54Zm9.21,0h0c0-2.91-1.48-4.75-3.86-4.75s-3.86,1.84-3.86,4.75h0c0,2.89,1.44,4.76,3.86,4.76S513.65,158.42,513.65,155.54Z" style="fill: #aaa"/>
      <path d="M516.18,163.67v-3.62h.87c.85-.45,1.16-1.49,1.25-3l.44-7.34h7.38v10.35h1.46v3.62h-1.35v-2.31h-8.7v2.31Zm2.67-3.71v.09h5.82v-9H520l-.38,6.07A4.73,4.73,0,0,1,518.85,160Z" style="fill: #aaa"/>
      <path d="M533,149.7h1.43l4.31,11.67h-1.52L536.06,158h-4.65l-1.16,3.34h-1.53Zm-1.17,7.09h3.78l-1.83-5.21h-.13Z" style="fill: #aaa"/>
      <path d="M545.53,149.7h1.69l4,9.73h.13l4-9.73H557v11.67h-1.36v-8.91h-.09l-3.69,8.91h-1.23L547,152.46h-.08v8.91h-1.36Z" style="fill: #aaa"/>
      <path d="M559.62,155.54h0c0-3.75,2.05-6.1,5.35-6.1s5.35,2.36,5.35,6.1h0c0,3.72-2,6.11-5.35,6.11S559.62,159.26,559.62,155.54Zm9.21,0h0c0-2.91-1.48-4.75-3.86-4.75s-3.86,1.84-3.86,4.75h0c0,2.89,1.44,4.76,3.86,4.76S568.83,158.42,568.83,155.54Z" style="fill: #aaa"/>
      <path d="M572.48,155.55v0c0-3.76,2-6.1,5.14-6.1a4.55,4.55,0,0,1,4.72,3.78v0h-1.46v0a3.21,3.21,0,0,0-3.24-2.44c-2.24,0-3.64,1.84-3.64,4.76v0c0,2.92,1.4,4.75,3.65,4.75a3.1,3.1,0,0,0,3.22-2.18h1.49c-.39,2.13-2.23,3.52-4.71,3.52C574.46,161.64,572.48,159.3,572.48,155.55Z" style="fill: #aaa"/>
      <path d="M584.87,161.37V149.7h1.45v5.12h.43l4.81-5.12h1.83l-5.39,5.6,5.86,6.06h-1.93L586.75,156h-.43v5.38Z" style="fill: #aaa"/>
      <path d="M595.88,149.7h4.46c2.14,0,3.45,1.12,3.45,2.9h0a2.57,2.57,0,0,1-2,2.51v.13a2.76,2.76,0,0,1,2.6,2.83h0c0,2-1.47,3.27-4,3.27h-4.55Zm1.45,1.28v3.74h2.33c1.76,0,2.66-.63,2.66-1.86v0c0-1.18-.84-1.87-2.29-1.87Zm0,5v4.1h2.88c1.76,0,2.67-.71,2.67-2.06h0c0-1.34-1-2-2.81-2Z" style="fill: #aaa"/>
      <path d="M606.86,149.7h1.45V154h2.86a3.56,3.56,0,0,1,3.75,3.67h0a3.54,3.54,0,0,1-3.73,3.65h-4.32Zm1.45,5.63v4.72h2.49c1.67,0,2.62-.85,2.62-2.34h0c0-1.51-1-2.37-2.62-2.37Zm8.77-5.63h1.45v11.67h-1.45Z" style="fill: #aaa"/>
    </g>
    <g>
      <g>
        <path d="M419.77,97.08a3.33,3.33,0,0,0,.72.11.87.87,0,0,1,1,.79c.16.76,0,1.21-.55,1.45l-.33.12a2.2,2.2,0,0,0,.27.78,3.1,3.1,0,0,1,.55,2.57c-.06.86-.05,1.73-.06,2.6a1.46,1.46,0,0,0,.13.38l.72-.48a3.09,3.09,0,0,1,2.79-.62,12.12,12.12,0,0,0,3.16.06c.31,0,.32-.21.18-.44s-.33-.49-.57-.85a7.77,7.77,0,0,1,1.13.16c.53.16.8,0,.81-.78a20,20,0,0,1,1.55,1.31.79.79,0,0,0,.93.27A2.19,2.19,0,0,1,435,106l-.43.08a18.5,18.5,0,0,0,2.33,4.22,3.26,3.26,0,0,0,1.08,1,.82.82,0,0,1,.47.76,8.75,8.75,0,0,1,.05,1.07,1.08,1.08,0,0,1-.39.67c-.11.08-.42-.07-.62-.17a3.63,3.63,0,0,1-.52-.37l.19.78a3.26,3.26,0,0,1-.89-.17,7.9,7.9,0,0,1-1.07-.73,4.34,4.34,0,0,0-2.59-.66c-.46,0-.5.31-.42.62a12.19,12.19,0,0,0,.54,1.66c.51,1.2,1,2.39,1.59,3.56a8.27,8.27,0,0,0,.92,1.34c.67.89,1.42,1.72,2,2.65a5.23,5.23,0,0,1,.58,1.69c.16.69.31.84.89.47a24,24,0,0,0,2.34-1.67c.59-.48,1.1-.48,1.41.22a13.5,13.5,0,0,0,3.18,4.37,1.79,1.79,0,0,1,.52,1.27c.05.74.27,1.47.35,2.21a16.65,16.65,0,0,1,.06,2c0,.36-.26.4-.51.22a17.33,17.33,0,0,1-1.42-1.12c-.45-.41-.17-.84.13-1.14a1.36,1.36,0,0,0,.23-1.89,3.38,3.38,0,0,0-.4-.43c-.14-.16-.42-.36-.4-.49.16-.84-.55-1.17-.94-1.66a6.19,6.19,0,0,0-1.19-1c-.15-.11-.49-.16-.6-.07-1.16,1-2.28,2.12-3.42,3.19l.12.25a9.7,9.7,0,0,0,1.42-.13,1.12,1.12,0,0,1,1.42.64,13.35,13.35,0,0,0,2.84,4.26,1.65,1.65,0,0,1,.33,1.05,6.92,6.92,0,0,0,.66,2.78,9.19,9.19,0,0,1,.47,2c.07.35-.1.54-.45.37a18.41,18.41,0,0,1-1.79-.94.61.61,0,0,1-.17-.94,3.29,3.29,0,0,0,.3-.67,1.72,1.72,0,0,0-.44-2c-.41-.38-.78-.74-.49-1.42.08-.18-.17-.59-.37-.8-.53-.56-1.15-1-1.67-1.62a.85.85,0,0,0-1.09-.23c-1.15.48-2.32.91-3.46,1.41a13.14,13.14,0,0,1-5.73,1.48l1.76,2.24.07-.13.38.17-.52.32-.28-.35-9.16-12.21q-6.85-9.12-13.71-18.23a5.86,5.86,0,0,0-1-1,.58.58,0,0,0-.57.06c-.09.1-.06.41,0,.57a3.25,3.25,0,0,0,.51.59c-.34.32-.33.9,0,1.7l.21-.62.12,0,.07,1.14h.08l.09-.33h.08l.12.78.32-.53.14.87.3-.61.25,1.29h.11l.17-1.15L432.15,138l.16-.08-.16-1.78c.16.24.33.27.62.16.83-.32,1-.18,1.34.64a12.92,12.92,0,0,0,.57,1.35,1.48,1.48,0,0,0,1.07.78,2,2,0,0,1,1.14,1.12,10.67,10.67,0,0,0,1.51,2.71c.56.72.52.81-.39,1.06.11.52,0,.89-.64,1-.08,0-.2.27-.19.41a3,3,0,0,1-1.09,2.5c-.9.88-1.75,1.82-2.64,2.72a3,3,0,0,1-.6.41c-.3.18-.31.39-.09.65a1,1,0,0,0,1.33.24,2.57,2.57,0,0,1,2.52-.1,2.61,2.61,0,0,1,1.07.94c.09.12-.09.46-.16.72-.26-.27-.42-.54-.65-.66a2.53,2.53,0,0,0-.83-.11c.29,1.17.27,1.35-.18,1.75a1,1,0,0,0-1.32-.71c-.72.19-.1.74-.25,1.09,0,0-.09,0-.1,0a2.39,2.39,0,0,0-2.84-.56,2.33,2.33,0,0,1-2.37-.11c-.42-.32-2.57.33-2.88.78L426,155c-.5-.63-.13-1.51.79-1.86.28-.11.58-.15.87-.26.11,0,.27-.17.26-.24a.54.54,0,0,0-.23-.35c-.5-.31-.5-.3-.41-.83a2.07,2.07,0,0,0-2.16.27c-.61.49-.61.49-1-.24,0,0,0-.06,0,0l-1.35-.15a8.33,8.33,0,0,0-.9-.11,3.41,3.41,0,0,1-2.24-.61.81.81,0,0,0-1.25.1c-.26.4-.16.84.34,1.22s1,.79,1.67.31c.14-.1.44,0,.66.07a4.83,4.83,0,0,1,.44.24c.52.2.58.3.49.84-.24-.11-.49-.31-.72-.3a2.49,2.49,0,0,0-1,.36c1.32.53,1.51.8,1,1.65,0-.6-.32-.46-.71-.43a8.09,8.09,0,0,1-2-.18,2.4,2.4,0,0,0-1.7,0l.32,1.08a10.15,10.15,0,0,1-1.06-.17,2.27,2.27,0,0,1-.73-.34c-.25-.18-.44-.35-.81-.2-.15.06-.48-.12-.63-.28a1.6,1.6,0,0,0-.75-.36,2,2,0,0,0-2,.32.66.66,0,0,1-.6,0c-.58-.4-.93,0-1.31.32,0,0-.11.08-.27.06a5.25,5.25,0,0,1,.53-1,5.93,5.93,0,0,1,1.09-1,1.42,1.42,0,0,1,.75-.15c.47,0,.95.07,1.41,0s.75-.49.37-1a4,4,0,0,0-.64-.64.69.69,0,0,1-.18-1,6.5,6.5,0,0,1,.8-.94c.48-.47.48-.71.08-1.25a1.4,1.4,0,0,1-.19-.79c0-.35-.1-.56-.46-.57s-1,0-1.38,0c.13.79.29,1.5.34,2.22a1.9,1.9,0,0,1-1,1.84,4,4,0,0,1-3.65.65,2.7,2.7,0,0,1-1.93-2.7c0-.53.06-1.05.1-1.58,0-.26,0-.47-.33-.52-1.12-.15-2.23-.34-3.41-.53a2,2,0,0,0,.14,1.81c.61,1,1.19,2,1.76,3a4.57,4.57,0,0,1,.25.79,5.66,5.66,0,0,1-2.71-.3.69.69,0,0,1-.3-.5,2.82,2.82,0,0,1,.07-1,2.49,2.49,0,0,0-.73-2.72c-.78-.74-.77-.79-.1-1.6.33-.39.32-.64-.07-1-1.68-1.48-1.79-3.36-.94-5.31.37-.85.88-1.63,1.31-2.45a3.12,3.12,0,0,0-.15-3.28,3.57,3.57,0,0,0-.36-.42c-.91.88-2.1,1.35-2.67,2.54a9.43,9.43,0,0,0-1,3.53,4.24,4.24,0,0,1-.29-.47,9.22,9.22,0,0,1-.82-4.42,2.6,2.6,0,0,1,.77-1.53,7.62,7.62,0,0,0,1-1.5c.19-.38,0-.64-.39-.86a11.87,11.87,0,0,1-1.92-1.27,2,2,0,0,1-.35-2.41,1.79,1.79,0,0,1,1.86-1.27c.64,0,.64,0,.53-.94.68.31.92,1.42.59,2.58l-1.06-.89.13-.22c-.88-.18-1.4.2-1.48,1a1.78,1.78,0,0,0,1,1.9c.42.23.86.42,1.36.67a9.54,9.54,0,0,1,1.53-4.17,11,11,0,0,1,2.32-2.53,4.35,4.35,0,0,1,4.53-.16c.86.39,1.62,1,2.45,1.42a1.06,1.06,0,0,0,.66.1c1-.2,2.09-.43,3.14-.67.17,0,.45-.2.44-.26a.77.77,0,0,0-.29-.53.6.6,0,0,1-.45-.63c0-.11-.23-.26-.38-.34a4.89,4.89,0,0,1-1-.43c-2.59-2.19-5.47-2.29-8.52-1.22l-.67.23-.17-.12c.15-.33.29-.68.47-1,.32-.55,1-.92.9-1.7,0-.11.2-.26.32-.38.36-.36.75-.7,1.1-1.07a.94.94,0,0,0,.16-1.15c-.62-1.28-.27-2,1.09-2.43a16.8,16.8,0,0,0,1.76-.6,1.53,1.53,0,0,0,.74-.58,1.18,1.18,0,0,0,0-.89c-.06-.15-.43-.24-.66-.24-.49,0-1,.05-1.54.09a1.31,1.31,0,0,1,.13-.44c.54-.64,1.11-1.26,1.66-1.9.14-.16.33-.37.31-.54-.05-.62-.18-1.23-.29-1.84a.35.35,0,0,0-.07-.15c-.57-.7-1.12-1.43-1.73-2.1a1.16,1.16,0,0,1-.35-1.1,1.73,1.73,0,0,0-.32-1.13c-.64-.94-1.35-1.82-2-2.73a1.83,1.83,0,0,1-.29-.48,1.19,1.19,0,0,1,0-.42l.4.18c-.53,0-.22.27-.11.41.68.91,1.37,1.81,2.06,2.71.14.19.32.35.46.51.56-.3.12-.57.06-.83.19.12.37.34.56.34,1.12,0,1.4.87,1.77,1.66a.92.92,0,0,0,.44.46,1.36,1.36,0,0,1,1,1.37c0,.69.52,1.07.94,1.48.1.1.48,0,.65-.1.52-.34,1-.75,1.51-1.09a1.34,1.34,0,0,1,2,.19c-.28,0-.55-.1-.83-.12a1.35,1.35,0,0,0-1.36.7c1,.06,2-.23,2.72.55.08,0,.2-.17.25-.15.36.16.72.35,1.07.54a8.12,8.12,0,0,0,1.07.55,2.86,2.86,0,0,0,.86,0l-3.79-2.11c.22,0,.44,0,.67,0a2.7,2.7,0,0,1,.83.05c1.14.39,1.58.11,1.69-1.13a6.93,6.93,0,0,1,.16-1.46,13.26,13.26,0,0,1,.78-1.66l.34-.71c-1.61.24-3.06.4-4.39-.39V99.4l1.17-.11c-.58-.5-1.27-.78-1.63-1.65.3.1.47.14.63.22a3.14,3.14,0,0,0,3.13-.26l1.05-.66a1.39,1.39,0,0,1,1.85.17,1.8,1.8,0,0,0-2.06.21,9.07,9.07,0,0,1-.83.48,3.51,3.51,0,0,1-2.22.54,11.66,11.66,0,0,1-1.17-.3,2.2,2.2,0,0,0,1.94.85l0,.18-1.44.58a1.63,1.63,0,0,0,.32.17,2,2,0,0,0,2.26-.78,2.32,2.32,0,0,1,1.71-1c.73-.08,1.34,0,1.62.85l.37-.28.75.24c.08-.31.27-.64.2-.92a.71.71,0,0,0-.87-.59l.07.56Zm-3.69,29.7h0l.19-1.26-.18,0a13.71,13.71,0,0,0-.34,5.16,15.39,15.39,0,0,1,0-5.23,13.93,13.93,0,0,0-.65,5.32,16.53,16.53,0,0,1,.27-5.37c-.86,1.73-.64,3.59-.67,5.42a14.1,14.1,0,0,1,.23-5.43,2.1,2.1,0,0,0-.31.63,14.57,14.57,0,0,0-.36,4.39c0,1,0,1,1.07.92h.23l2.76-.25c.24,0,.62-.16.31-.42s-.25-.55-.26-.85c0-1.31,0-2.63,0-3.94h-.09l-.24,4.11v-4.29c-.6,1.56-.21,3.19-.48,4.78v-4.75h-.22v4.75h-.16v-4.84a30.41,30.41,0,0,0-.35,4.82v-4.8c-.68,1.57-.21,3.22-.38,4.83v-4.9l-.23.67Zm9.34-11.69-.13.06.88,2-.64-.6-.11.07.69,1.4-.08,0-.62-.8-.11.06.6,1.35-.06,0-.55-.65-.09.05.57,1.39-.07,0-.74-.91-.08,0,.77,1.58-.15.14-.76-.86,0,0,.79,1.35-.05,0-.73-.6-.06.05.42.85-.07,0-.75-.65-.1.07L425,122l-.47-.25-.45-.26c.3.85.3.87,1,1,.93.13,1.87.22,2.81.32a36.8,36.8,0,0,0,6.16.59l-.53-.94.92.24-1-1.48.92.24-.87-1.28.62,0-.67-.95.77.23c-.15-.44-.26-.8-.4-1.14q-1.2-3.08-2.41-6.15a.74.74,0,0,0-.23-.31,1.74,1.74,0,0,1-.63-2.2,3.88,3.88,0,0,0,.11-.43l.5,1.24.29-.52.27,1h.11l.1-.33c.28.27.52.68.86.8a26.74,26.74,0,0,0,2.71.75,1.08,1.08,0,0,0,.64,0c.51-.22.75-.13,1,.38a1.57,1.57,0,0,0,.39.59,2,2,0,0,0,.63.23l.17-.72-.24-.13-.21.42-.17-.08c.06-.21.06-.48.2-.61.42-.4.21-.68-.17-.81a2.82,2.82,0,0,1-1.86-2,2.76,2.76,0,0,0-.28-.49c-.23-.41-.49-.68-.86-.13l-.87-.75.77-.68a1.7,1.7,0,0,0-.29-.18,2.6,2.6,0,0,1-2-1.37c0-.08-.18-.14-.28-.16a9.4,9.4,0,0,0-1.7-.28,2.71,2.71,0,0,0-1.38.35c-.26.16-.33.64-.47,1l-.27-.32.16,1.23-.39-.63-.09,0,.11.78-.07,0-.31-.68-.11,0,.27,1.3-.55-.89.25,1.24-.09,0-.42-.64-.08,0,.26,1.28-.45-.5-.07,0,.27,1-.09,0-.5-.61-.1.06.44,1.07-.08,0-.48-.55.34,1.18-.06,0-.43-.63-.07,0,.47,1.23-.08,0-.54-.78-.07,0,.58,1.56-.07,0-.56-.61-.11.08.74,1.51-.08,0-.63-.85-.09,0,.7,1.59-.08,0-.65-.84-.11.05,1,2.11-.1,0Zm-25.75,31.58,0,.08a9.44,9.44,0,0,1,.75,1,2.89,2.89,0,0,1,.44,1.12c.07.84.27,1,1.28.88l-.56-1c-.26-.49-.77-1-.72-1.48a9,9,0,0,1,.75-2.63,22,22,0,0,1,1.21-2.11c.09-.17.2-.47.13-.55-.27-.29-.09-.52,0-.78s.26-.79.35-1.06l.62-.28.1.42.31-.62.24.28.33-.54.14.54.37-.69.21.54.43-.73.12.28.37-.48.09.4.6-1,.07.67.49-.77.07.65.48-1,.24.27.51-.79.12.22a5.11,5.11,0,0,1,.65-.53c.19-.11.47-.1.65-.22.69-.46,1.38-.94,2-1.45.43-.34.81-.75,1.24-1.16l.68-.14.32.56.16-.71.2.86.1,0,.26-.81.32.68.19-.73.3.51.39-.83.15.64.34-.67.24.43.29-1.25c-1.34.17-2.59.31-3.84.5a1.53,1.53,0,0,0-.85.46,11.06,11.06,0,0,1-5.69,3.44,5.2,5.2,0,0,1-.63.09l-.1-.19.92-.74.12.42.59-1.11.05.83.68-1.18.09,0v.64l.09,0,.36-1.12.08,0,0,.73.12,0,.33-1.08h.07l.08.76.49-1.54h.07v.83h.08l.3-1.41.1,0,0,.89.16,0,.36-1.55.1,1.15h.17l.16-1.42h.07l.21.92h.23c.11-2.07.24-4.14.33-6.22,0-.1-.27-.31-.4-.29-.76.08-1.5.22-2.26.34l0-.09,2.65-.65a6.08,6.08,0,0,0-5.46,2.24,4.08,4.08,0,0,1,1.52-1.82,5.59,5.59,0,0,1,3.31-.79,4.42,4.42,0,0,0,.79-.13l0-.22a7.34,7.34,0,0,0-4,.63,6.47,6.47,0,0,0-2.55,3.24,4.38,4.38,0,0,1,2.93-3.78,16.41,16.41,0,0,1,3.12-.42l.79-.07q-.14-.27-.29-.27a15.72,15.72,0,0,0-2.87.06c-3.13.6-4.56,3.1-4.85,6.25-.16,1.77-.18,3.55-.24,5.33a2.3,2.3,0,0,1-1,1.83,12.93,12.93,0,0,1-1.28.84,1.44,1.44,0,0,0-.7,1.2,9,9,0,0,1-.53,2.36C401.09,144,400.37,145.3,399.67,146.67Zm32.73-6.87a7.46,7.46,0,0,0-.59-1.73c-.79-1.2-1.68-2.32-2.53-3.48a.47.47,0,0,0-.72-.12,21.65,21.65,0,0,1-9.71,2.75,2.06,2.06,0,0,0-1.93.92,10.06,10.06,0,0,1-2.12,2.11c-1.36,1.15-1.67,1.25-.22,3,0,0,0,0,0,0a1.6,1.6,0,0,0,.52.12c.7-.08,1.4-.23,2.1-.27.54,0,.71-.19.45-.69a3.3,3.3,0,0,0-1.66-1.71c-.18-.07-.36-.17-.53-.26l0-.18a9.81,9.81,0,0,1,1.33.21,15.34,15.34,0,0,0,4.58.66.69.69,0,0,0,.54-.27c.07-.15-.07-.4-.15-.6s-.14-.16-.22-.25a2,2,0,0,0-.41-2.46,2.68,2.68,0,0,1,.36.06,10.42,10.42,0,0,1,3.71,2,.65.65,0,0,0,.93.11,3.94,3.94,0,0,1,3.05-.48,1.61,1.61,0,0,1,1.2,2.32,9,9,0,0,0-.33,1.7c0,.26.06.59-.06.78a3.63,3.63,0,0,0-.27,2.15A1.48,1.48,0,0,0,431,147.4a4.39,4.39,0,0,0,3.47-2,.83.83,0,0,0,0-.56c-.1-.27-.27-.52-.38-.79a11.56,11.56,0,0,0-.6-1.51c-.47-.8-1-1.54-1.55-2.3a.76.76,0,0,1-.12-.19c0-.1-.07-.26,0-.3a.53.53,0,0,1,.35-.09A1.18,1.18,0,0,1,432.4,139.79Zm2.59-9,0-.08,1.24.32-.42-.6,1.17.3-.05-.42,1.1.28-.17-.33a6.18,6.18,0,0,0,1.14-.3c.57-.27.67-.3,1.09.07l.8.73a1.14,1.14,0,0,0-.09-1.41,1.3,1.3,0,0,0-1.25-.59c-1.8.19-3.61.32-5.42.43a1,1,0,0,1-.77-.27c-.44-.52-.79-1.1-1.18-1.66l.13-.1.54.11-.26-.67.54.11-.12-.67.59.07-.39-.81.52-.07c0-.53-.43-.57-.75-.64-1.29-.26-2.59-.49-3.89-.7-.88-.14-1.76-.23-2.64-.33a.89.89,0,0,0-.27.06l.14.54-1-.58.42.72-1-.66-.06.09.36.56-.08.05-.84-.7-.07.07.71,1.06-.45.06.25.66-.55-.1.23.51-.39,0,4,5,.07-.63,1.31,1.21-.34-.89.11-.07,1.27,1.16-.38-1.1,1.39,1.24.09-.12-.57-.86.09-.08,1.35.91.08-.1-.57-.76,1.51.94.08-.11-.55-.73.06-.08,1.45.85.06-.09-.61-.81,1.65.7.06-.11Zm-33.81,11.66.21,0c.18-.86.4-1.72.53-2.59a1.08,1.08,0,0,1,.53-.79c.61-.44,1.19-.93,1.76-1.43a1.74,1.74,0,0,0,.59-1.42c0-.95-.07-1.89-.06-2.84,0-1.19,0-2.38.09-3.57a8.78,8.78,0,0,1,1.2-3.51c.33-.61.26-.77-.44-.81a3.58,3.58,0,0,0-3,1.15,9,9,0,0,0-2.14,4.37.92.92,0,0,0,.32.94,4.08,4.08,0,0,1,1.34,2.67,8.89,8.89,0,0,1-.65,4,15.83,15.83,0,0,0-.69,2.2A1.55,1.55,0,0,0,401.19,142.49Zm1.63-18.29a8.82,8.82,0,0,0-3.22,5.39c-.25,1.16.1,2.44-.7,3.5a2.57,2.57,0,0,0,1-1.73,10.38,10.38,0,0,1,2-5.1,10.55,10.55,0,0,1,1.74-1.51,2.32,2.32,0,0,1,.69-.21l-1.53,1.05.08.14.52-.28a3.59,3.59,0,0,1,2.45-.46,1.84,1.84,0,0,0,.56.06,2.55,2.55,0,0,0,.56-.23c-.08-.17-.11-.4-.24-.49a23.5,23.5,0,0,0-2.2-1.38,3.27,3.27,0,0,0-1.3-.31,4.81,4.81,0,0,0-3.78,1.76,6.18,6.18,0,0,0-1.57,2.74l.85-1.08.13.07a7.51,7.51,0,0,0-1.2,3.6,6.33,6.33,0,0,1-1.82,4.32,2.29,2.29,0,0,0-.31,2.3,6.7,6.7,0,0,1,1.13-1.47A5.8,5.8,0,0,0,399,130.3a7.77,7.77,0,0,1,3.06-5.71A4.2,4.2,0,0,1,402.82,124.2Zm9.59,18.86a3.31,3.31,0,0,0-.41-.63,10.12,10.12,0,0,0-1-.8c-.49-.34-.51-.54-.13-1s.87-1.09,1.28-1.65a1.29,1.29,0,0,0,.2-.64c0-.3-.18-.41-.45-.3-.85.36-1.67.77-2.53,1.1-1.46.56-2.93,1.06-4.4,1.59-.26.1-.6.17-.74.36-.5.67-.94,1.39-1.41,2.11a3.12,3.12,0,0,0,1.79.51.69.69,0,0,1,.42.15,1.25,1.25,0,0,0,1.1.28c.24,0,.48.06.73.06a2,2,0,0,0,.71-.05c1.11-.42,2.31-.56,3.4-1.06A4.14,4.14,0,0,1,412.41,143.06Zm-3.14-24.56.86-.64.1.08-.17.66,1.12-.92-.1.74.1.08.94-1.12.13.64,1-1.64-.11-.15a9.32,9.32,0,0,1-5.77.44,5.79,5.79,0,0,1,1.22-.72c.67-.3,1.48-.27,2-.93,0-.06.27,0,.42,0l.27-.59.18.4.42-.61c.44.5.54,0,.74-.18l-.32-.55-.7.09,0-.34h-1.47l.21-.44-1.47.16,0-.15-1.51.16v-.13l-.65.34.21-.45c-.53-.16-.92.47-1.51.09-.21-.14-.76.21-1.13.39a2.67,2.67,0,0,0-.81.58c-.27.3-.06,1.18.28,1.25l.22-.4.21.27.17-.31.26.29.17-.29.34.49.05-.56.27.36.21-.25.24.46.19-.53.25.39.27-.45.06.76.37-.76.1.59.28-.45.12.64.44-.66.2.17.22-.31.16.44,1-.29a2.9,2.9,0,0,1-.87.73,10.32,10.32,0,0,1-3.33.82,15,15,0,0,0-2.47.74c-.3.12-.5.49-.79.79l.59.18,1-.5.12.36,1.72-.1,0,.28,1-.19v.13l.93.1-.06.15h1.24l-.06.37.59-.33ZM427.06,148l.13.13L426,150l.16.1a6,6,0,0,0,1.89-2.4,1.79,1.79,0,0,0-.25-2.22,1.55,1.55,0,0,1-.43-1.66,1.65,1.65,0,0,0,0-.78c-.09-.5-.21-1-.32-1.49a1,1,0,0,0-1.08-.85,9.25,9.25,0,0,0-1.18.17,17.93,17.93,0,0,1-6,.29,4.42,4.42,0,0,0-.63,0l0,.17c.46.19,1,.63,1.36.52.59-.18,1.08.27,1.67,0,.29-.12.72.18,1.09.21s.8-.15,1.14.2l0,0-.08-.36.76.44-.11-.69.6.45,0-.59.49.59.1-.37h.17l.11,2,.4-1.13a2.23,2.23,0,0,1-1.1,2.41,4.45,4.45,0,0,1-.91.33,5.77,5.77,0,0,0-1.46.95c1.37.05,2.36-.88,3.54-1.21l.13.16-.71.85-.08-.16-2,1.12a3.49,3.49,0,0,0,1.42-.18c.71-.31,1.37-.74,2.09-1.14l.31,1.08-.06,0-.21-.29-.36,1-.23-.35-.15,1.19-.25-.37,0,.18-.71.36-.08-.15-.45,1A4.75,4.75,0,0,0,427.06,148ZM419,111.9a2.19,2.19,0,0,0,.16.29c.08.11.21.31.27.29s.36-.17.36-.28a8.62,8.62,0,0,0,0-2c-.06-.31-.52-.54-.85-.86l-.47.88-.5-.84-.44.8a.58.58,0,0,1-.2-.31c-.06-.16-.13-.32-.2-.48-.13.1-.26.21-.4.3a1.74,1.74,0,0,1-.28.12c0-.13-.14-.29-.11-.4s.14-.54-.19-.58a.69.69,0,0,0-.54.34,11.38,11.38,0,0,0-.65,1.86c-.17.71.17,1,.87.75l.15.75c.79.19.33-.82.82-.85l.55,1,.48-.66C418.28,112.55,418.28,112.55,419,111.9Zm-5.62,20.9,1.06-.13,3.74-.57c.43-.07.67-.29.59-.87l-4.6.38a1.15,1.15,0,0,1-.08-.21c0-.15,0-.3,0-.45a15.9,15.9,0,0,1,.58-5.49c0-.13-.06-.31-.09-.46-.15.07-.35.11-.45.23a1.53,1.53,0,0,0-.24.57A18.13,18.13,0,0,0,413.34,132.8Zm6.52-1.64,0-.09,1-.91-.6.07.85-1-.08-.06-.39.21,0-.06.79-1.09-.08-.06-.7.67-.08-.08.82-1.12-.71.44-.09-.1,1.42-1.56-.1-.09-.75.56-.06-.08.87-1a1.13,1.13,0,0,0-.52.19c-1.63,1-1.59,1-1.76,2.86-.12,1.3-.11,2.67-1.25,3.65.36.38.88.69,1,1.11.27,1.06.87,1.08,1.69.77h.11c.37,0,.42-.28.2-.5a10,10,0,0,0-1-.8l-.82-.63.55-.61-.3-.08.43-.61Zm-6.63-12.5-.09-.18c-.27.1-.55.17-.81.3a5.44,5.44,0,0,1-4,.29,17.39,17.39,0,0,0-5.65-.63,2,2,0,0,0-1.59.92,1.12,1.12,0,0,0-.09.41l.15.07.35-.45.14.19,1-.34.11.23A5.74,5.74,0,0,1,404,119c.3-.05.72.24.93.11.48-.28.92,0,1.36,0a6.26,6.26,0,0,1,1.95.61c.26.09.52.14.8.21l0,.33.55-.24v.44l1-.75-.06.56.76-.67.18.51.47-.65.12.1.07.5Zm7.8-16,0-.18c-.19-.13-.38-.36-.58-.36a13.54,13.54,0,0,0-2.11,0,.71.71,0,0,0-.39.58,15.6,15.6,0,0,0,.53,2.25,1.22,1.22,0,0,0,.59.66c.27.12.74.2.91.05a2.9,2.9,0,0,0,1-2.3h-1l0-.47Zm.08,11.64a2,2,0,0,1,1.11-1.62,12.26,12.26,0,0,0,3.73-4,4.91,4.91,0,0,0,.37-.83l-.19-.15a6.47,6.47,0,0,0-1.09,1,11.59,11.59,0,0,1-3.66,3.65A1.34,1.34,0,0,0,421.12,114.31Zm.5,3.32.09.11A1.92,1.92,0,0,0,420.6,120c.67-1.31,2.35-1.65,3-3.15l-.76.34c.42-.36.92-.63,1.07-1.32l-.67.44.18-1.1c-.58.49-1.1,1-1.65,1.39a3.28,3.28,0,0,0-1.11,1.68Zm-7.26,27.6.07,0,.38-.35-.44,2.32.18,0c.13-.44.22-.9.39-1.32a11,11,0,0,1,.6-1.12l.15.08-.32.59.09,0,1.23-1.06.05.07-1,1.87a9.71,9.71,0,0,0,1.31-1.58,11.36,11.36,0,0,0,.58-1.07c-.43-.06-.86-.14-1.29-.18a20,20,0,0,1-2.07-.15c-.68-.13-.72-.17-.94.56h1.53ZM424,122.68V123c.66.08,1.32.14,2,.24l7.65,1.21a7.8,7.8,0,0,0,.89.17c.11,0,.27-.17.31-.3a.39.39,0,0,0-.17-.35,2.61,2.61,0,0,0-.71-.18c-2.77-.37-5.53-.75-8.3-1.1A13.29,13.29,0,0,0,424,122.68Zm13.76,20.67c-.15-.42-.29-.8-.42-1.2a4.93,4.93,0,0,0-.23-.75.49.49,0,0,0-.41-.22,2.44,2.44,0,0,0-.6.38c-.4-.2-.48-.48-.14-.79a.65.65,0,0,0,0-1.09c-.17-.17-.36-.47-.65-.19s-.08.46.15.64c.05,0,.07.12.05.09l-.6,1-.53.08.51,1c.31.17.6.24.72.42a5.21,5.21,0,0,1,.41,1l.28-.53.35.74.06-1,.66,1-.11-.85Zm-16.34-11.67c1.11-.31,2.21-.6,3.3-.94a.53.53,0,0,0,.24-.46,12,12,0,0,0-.51-1.79,6.63,6.63,0,0,0-.7-1.08,1.52,1.52,0,0,0-.12.3c0,.26,0,.53,0,.79.08,1.46.08,1.46-1.32,1.81l-.22.06C421.48,130.57,421.31,130.87,421.45,131.67Zm-.54-10.38a12.8,12.8,0,0,1,1.25-1.51,18.73,18.73,0,0,1,1.59-1.06,2.77,2.77,0,0,0,.8-3.31,3.44,3.44,0,0,0-.47.87,4,4,0,0,1-1.92,2.53,6.35,6.35,0,0,0-1.29,1.32A.89.89,0,0,0,420.91,121.29Zm-2.81-13.62a6.25,6.25,0,0,1-3.19-.86,25.25,25.25,0,0,0-2.43-.89c-.86-.25-2.06-.21-2.49.4l1.34.5-.3-.5,1.28.71-.24-.65.88.62-.09-.57,1.17,1,0-.3c.22.12.58.37.61.33.3-.33.41,0,.59.12s.32.19.49.29l0-.29A1.66,1.66,0,0,0,418.1,107.67Zm1.45,15.19c-.17,0-.36.13-.4.08-.54-.6-.95-.1-1.33.17-.6.44-.57.75.1,1.11a4.85,4.85,0,0,0,2.9.49,3,3,0,0,0,.64-.27L419.5,123Zm.76,20.62-.06.45-1.43-.19c.07.16.07.18.08.19l.19.1a7.77,7.77,0,0,0,5.14.34c.8-.2.88-.35.8-1.3l-.34.82-.23-.48-.26.6-.14-.15-.2-.67-.35.8-.12-.52-.34.3-.1-.3-.29.33-.33-.69-.17.52-1.11.17-.17-.25-.18.37Zm4.87-11.07c.08-.32.14-.59.22-.86s0-.61-.44-.49c-1.06.32-2.12.66-3.17,1a.51.51,0,0,0-.36.74l.49-.28.08.51.47-.43.12.54.46-.61.09.89.39-.94.06.74.12,0,.28-.82.28.77.24-.85.26.47L425,132l.11.24Zm-1.71-24.34a3,3,0,0,1,2.26-1.85,9.16,9.16,0,0,1,1.13-.06c.78,0,1.16-.62,1.8-1.07C425.56,104.7,423.54,105.87,423.46,108.08Zm-10.86,13.59c1.16.85,3.81.17,5-1.2l-.75.1a3,3,0,0,0-1,.58c-.37.35-.75-.18-1.09.09l.06-.4-.46.4.13-.53-.51.35.39-1Zm-5.9-19.41-1.07-.6.52-.09,0-.2a2.43,2.43,0,0,0-.89-.18c-.19,0-.35.35-.47.57s.06.23.11.41c-.52.62-.52.69.13,1.37a.78.78,0,0,0,.16.16l.61.31.14-.55.66-.57-.41-.33ZM423.8,114l-.07,1.64c.86-1.1.58-2.43,1.11-3.5-1.34.71-2.66,2-2.35,3.26Zm1.11-3.12-2.24,1.81c-.28.23-.57.44-.82.69a1.66,1.66,0,0,0-.1,2.21,9.1,9.1,0,0,1,.78-1.75,7.92,7.92,0,0,1,1.46-1.39A2.1,2.1,0,0,0,424.91,110.91Zm-2.94.42c1.75-1.26,2.77-3.24,4.71-4.29a2.12,2.12,0,0,0-1.76.69c-.74.67-1.49,1.33-2.23,2A2.24,2.24,0,0,0,422,111.33Zm-14.5-1.1.3.71c.25-1.07,0-1.92-.67-2.12s-1.68.46-2,1.35c1.87-.13,1.87-.13,2.2.58Zm27.21-4.49a2,2,0,0,0-3.23-.72,1.94,1.94,0,0,1,1.83,1.14l.37-.48.33.95h.16l.05-1,.21,0Zm-13.45,5.09c.3.18.43.13.4-.35s.17-1.12-.72-.92c0,0-.05-.05-.08-.07-.43-.27-.68-.18-.78.32a1.73,1.73,0,0,0,0,.78,4.33,4.33,0,0,0,.43.82ZM417,122.59s-.08-.06-.09-.12c-.06-.37-.13-.65-.5-.19,0,0-.14,0-.21.05-.45,0-.35.32-.26.56a5.21,5.21,0,0,0,.41.71,3.11,3.11,0,0,0,.42-.23c.44-.32.85-.66,1.3-1,.27-.18.6-.27.88-.45.07,0,0-.27,0-.41a1.2,1.2,0,0,0-.41,0c-.1,0-.13.21-.23.26C417.91,122.1,417.49,122.32,417,122.59Zm17.48,18a.44.44,0,0,0,.19-.07,1.41,1.41,0,0,0,0-1.44,3.28,3.28,0,0,1-.59-1c-.06-.26,0-.54-.34-.43a.69.69,0,0,0-.33.59,5.57,5.57,0,0,0,.48,1.19C434,139.84,434.25,140.21,434.47,140.62Zm-5.09,2a3.38,3.38,0,0,0,.29-.66c.06-.28,0-.58.06-.86.14-.64,0-.91-.51-1.09v1.69l-.77-.63c.14.43.34.75.29,1-.1.53,0,.81.44,1l-.08-.64Zm-9.93-44.25a4.19,4.19,0,0,0-1.66.14,5.45,5.45,0,0,0-1.21,1.37l.11.15a5.37,5.37,0,0,0,.85-.36C418.14,99.27,418.73,98.84,419.44,98.35ZM435.23,120l.2,3.89C436.06,123.51,436,120.52,435.23,120Zm-13.82-13.46,1-.06,2.28-1.46a1.82,1.82,0,0,0-1.6.27C422.5,105.66,421.94,106.09,421.41,106.49Zm-14.91-1.16c0-1,.51-1.37,1.43-1.31-.18-.48-.47-.67-.86-.61a1.06,1.06,0,0,0-1,.75A.92.92,0,0,0,406.49,105.33Zm29.42,20-.17.05s-.07.1-.07.14c.13,1,.26,2,.4,3,0,.09.17.16.26.24.07-.11.21-.23.2-.34-.09-.76-.18-1.52-.32-2.28A4.93,4.93,0,0,0,435.92,125.35Zm-23.82,19.07.17.07a2,2,0,0,0,.24-.8c0-.14-.39-.28-.62-.33a1.77,1.77,0,0,0-.79,0c-.48.12-1.06.16-1.17.82.59,0,1.14-.69,1.68,0l.72-.43Zm10.57-8.86a1.59,1.59,0,0,0-2.31-.81A2.59,2.59,0,0,0,422.66,135.55Zm4.38-29c-1.34-.55-3.06.38-3.09,1.61A5.41,5.41,0,0,1,427,106.57Zm-8.41-4.89c1.35.15,1.58,0,1.38-.89-.1-.43-.44-.58-.73-.26A6,6,0,0,0,418.63,101.68Zm3.57,19.86a4.34,4.34,0,0,1,.33-.73c.14-.2.4-.31.51-.52a8.19,8.19,0,0,0,.42-1.07A1.6,1.6,0,0,0,422.2,121.54Zm22.18,16.3-.85-.66c-.71.8-.63,1.25.24,1.69Zm-35.2,6.34c-.9-.33-2,.36-1.92,1.09l.5-.36.42.51.08-.48C408.93,145.13,408.85,144.48,409.18,144.19ZM429.63,151c.7-.64.53-1.54-.46-2.5l-.32.67.48.16-.24.43C429.92,149.87,429.37,150.54,429.63,151Zm-15.14-40.13a2.17,2.17,0,0,0,.52-2.19A2,2,0,0,0,414.49,110.83Zm1,39.83c-.6.74-.59,1,0,1.39a1.58,1.58,0,0,0,.51.14c0-.19.16-.41.1-.56A7.37,7.37,0,0,0,415.44,150.66ZM419,134.41c.26-.9.18-1.08-.65-1.51C417.9,133.7,418,133.88,419,134.41Zm11.91,18.26c-.06-.74-.38-1.27-.67-1.13s-.61.54-.55.71C429.9,152.81,430.46,152.59,430.94,152.66Zm-13.55-49.19a2.86,2.86,0,0,0,1.54,2.58Zm-15.53,47.25c-.12-.16-.27-.38-.44-.58a1.52,1.52,0,0,0-.36-.22,1.33,1.33,0,0,0-.22.41c-.08.64.21,1,.79,1Zm20.86-14.86a4,4,0,0,1-2.74-1.07A2.08,2.08,0,0,0,422.72,135.86Zm-2.5-35.38c0,.37.05.74.12,1.09a.42.42,0,0,0,.3.26.47.47,0,0,0,.35-.21A.84.84,0,0,0,420.22,100.48Zm-13.73,45.58a1.12,1.12,0,0,0-.84,1.32l.61.07-.08-.48.31.09ZM433,136.32a1.16,1.16,0,0,0-.23,1.73,2.93,2.93,0,0,0,.43-.82A2.63,2.63,0,0,0,433,136.32Zm1.85-11.76c.32.27.56.55.62.51a1.22,1.22,0,0,0,.51-.56c0-.11-.27-.48-.32-.46A4.05,4.05,0,0,0,434.87,124.56Zm-2.3,13.91-.19.06a5,5,0,0,0,.12.53,4.56,4.56,0,0,0,.33.84.73.73,0,0,0,.82.45Zm-3.95-34.64-.07.14.59.65,0-.12,1.3.11,0-.07Zm-9.51-3.6c.87.12.89.09.57-1A.82.82,0,0,0,419.13,100.23Zm-3.36,54.51.16-.19-.71-.89-.58.33Zm14.93-1.2a.7.7,0,0,0-1-.25c-.11,0-.17.23-.25.36a1.45,1.45,0,0,0,.44.08A6.53,6.53,0,0,0,430.69,153.54Zm-22.25-5.83-.53.81c.15,0,.32.17.44.13C408.76,148.52,408.7,148.22,408.45,147.71Zm23.75,5.46,1.1.1C433.26,152.64,433,152.59,432.19,153.17ZM422,109.5l.22-.12a.66.66,0,0,0-.55-.85l-.17.1Zm14.8,4.48.23-.27-.82-.66-.18.22Zm-22.07-8.83-.1.14,1.23.48C415.76,105.34,415.45,105.19,414.78,105.16Zm-9.24,43.71.12,1C406.17,149.3,406.16,149.12,405.54,148.86Zm11.75-45.68c.63-.47.68-.77.27-1.08Z" style="fill: #aaa"/>
        <path d="M436.85,114l-.77-.71.18-.22.82.66Z" style="fill: #aaa"/>
        <path d="M416.08,126.78c0,.63,0,1.27.06,1.9s.06,1.23.06,1.85a11,11,0,0,1-.11-3.74Z" style="fill: #aaa"/>
        <path d="M418.46,103.12l.23-.74,1.14.41-.15.49Z" style="fill: #aaa"/>
        <path d="M420.13,104.8a1.34,1.34,0,0,1-.07.2l-.87.05c0-.09,0-.25,0-.25Z" style="fill: #aaa"/>
        <path d="M435.59,142.06c.47.07.85.22,1.18-.26l-.41.94Z" style="fill: #aaa"/>
      </g>
      <path d="M420.8,171.37a.68.68,0,0,1-.35-.09l-5-3a11.36,11.36,0,0,0-5.76-1.57H396.6a12.06,12.06,0,0,1-12-12V92.46a4.77,4.77,0,0,1,4.77-4.77h62.94A4.77,4.77,0,0,1,457,92.46v62.26a12.06,12.06,0,0,1-12,12H431.91a11.36,11.36,0,0,0-5.76,1.57l-5,3A.68.68,0,0,1,420.8,171.37ZM389.33,89a3.41,3.41,0,0,0-3.41,3.41v62.26a10.69,10.69,0,0,0,10.68,10.68h13.08a12.72,12.72,0,0,1,6.46,1.76l4.66,2.75,4.66-2.75a12.72,12.72,0,0,1,6.46-1.76H445a10.69,10.69,0,0,0,10.68-10.68V92.46A3.41,3.41,0,0,0,452.27,89Z" style="fill: #aaa"/>
    </g>
  </g>
  <g>
    <path d="M988.75,728.89l0-.21h-5.42a37.26,37.26,0,0,0-56.5-37.74l3,4.81a31.58,31.58,0,0,1,47.7,32.93H966.77v-18.4l-10,13.72V710.33l-10,13.63v-23.6L933.15,722V700.38l-22.86,36a38.93,38.93,0,0,0,2.29,4.93l16-25.06v20.48l13.67-21.68v21.66l10-13.67V736.7l10-13.66v10.6h14a31.58,31.58,0,0,1-46.26,15.7l-3,4.82a37.27,37.27,0,0,0,55.29-20.52h5.58S988.52,730.43,988.75,728.89Z" style="fill: #aaa"/>
    <path d="M989.74,723.06a36,36,0,0,1-.44,5.61l0,.22h6v13.05l9.95-13.63v13.63l10-13.69v20.61h3.37a63.24,63.24,0,1,0-2.33,4.56h-5.21V740.18l-10,13.66V740.18l-10,13.67V733.44h-2.8l-.05.2a43.13,43.13,0,1,1,1.45-11.1Z" style="fill: #aaa"/>
  </g>
</svg>
