<svg xmlns="http://www.w3.org/2000/svg" xmlns:xlink="http://www.w3.org/1999/xlink" width="272.2mm" height="75.03mm" viewBox="0 0 771.59 212.69">
  <defs>
    <mask id="a" x="440.16" y="47.23" width="41.34" height="31.11" maskUnits="userSpaceOnUse">
      <path d="M467.68,63.35l-26-14.94,39.06,7.43-13,22.5Z" style="fill: #71b4e1"/>
    </mask>
    <mask id="b" x="427.63" y="69.78" width="41.34" height="31.05" maskUnits="userSpaceOnUse">
      <path d="M454.69,85.84l-26-14.94,39.06,7.44-13,22.5Z" style="fill: #c5cac6"/>
    </mask>
    <mask id="c" x="401.32" y="39.71" width="41.34" height="31.18" maskUnits="userSpaceOnUse">
      <path d="M428.62,55.91,402.58,41l39.06,7.44-13,22.49Z" style="fill: #f73624"/>
    </mask>
  </defs>
  <title>8</title>
  <path d="M453.2,167.06c-.72-3.12,2.4-5.87,6.42-5.87,3.62,0,7.26.81,8.63,5.86h4.64v7.71C467.1,170,454.57,173,453.2,167.06Zm48.16-2.13H490.91l-10,10.89V154h-8v5.34c-.27-.35-.55-.68-.85-1-3-3.16-7.22-4.74-12.63-4.74a14.23,14.23,0,0,0-11.69,5.15,12.55,12.55,0,0,0-2.67,10.14c1.89,8.38,9.67,9.71,15.39,10.46,4.51.59,8.83,1.4,8.71,5.43s-4.83,5.2-7.92,5.2c-8,0-8.31-5.94-8.31-5.94h-8.64a14.55,14.55,0,0,0,3.55,8.9c3,3.35,7.51,5.07,13.42,5.07A17.41,17.41,0,0,0,472.9,194v3.59h8V187.27l2.85-3.12,8.15,13.34h9.34L489.5,177.92Z" style="fill: #d2d2d2"/>
  <g>
    <path d="M92.09,157.66v1.61h13.8a3.45,3.45,0,0,1,4.14,4.14v13.8a3.45,3.45,0,0,1-4.14,4.14H99.23c-1.15,0-2.65,0-3.22-1.26s.23-2.42.92-3.34l9-11.95H92.1l-5.54,7.36c-.92,1.23-1.72,2.3-1.72,3.68s.74,2.38,1.72,3.68l1.38,1.84c1.38,1.84,2.76,3.68,4.59,4.59s4,.91,7,.91h6c3.45,0,8.62,0,12.09-3.45s3.45-8.51,3.45-10.34v-5.54c0-1.84,0-6.9-3.45-10.34s-8.62-3.44-12.09-3.45H96a3.34,3.34,0,0,0-3.91,3.91" style="fill: #d2d2d2"/>
    <polygon points="75.62 164.77 89.28 164.77 72.82 186.84 58.8 186.84 75.62 164.77" style="fill: #d2d2d2"/>
    <path d="M21.67,168.69a3.86,3.86,0,0,1,.92-3,3.87,3.87,0,0,1,3-.92H48.7c3,0,5.19,0,7,.92s3.22,2.76,4.59,4.59l1.38,1.84c1,1.31,1.73,2.3,1.73,3.68s-.81,2.45-1.73,3.68l-5.54,7.36H42.34l9-11.95c.69-.92,1.5-2.07.92-3.34S50.17,170.3,49,170.3H38.19v27.61h-11V170.3H21.62v-1.61" style="fill: #d2d2d2"/>
  </g>
  <g>
    <path d="M685.3,68.12l5-3.73H673.56V86.75H690.3V83h-12V77.31h10.22V73.57H678.34V68.12Z" style="fill: #d2d2d2"/>
    <path d="M660.92,73.09h-5.8v-5h9.27l5-3.73H650.35V86.75h10c5.58,0,8.8-2.56,8.8-7C669.11,75.44,666.21,73.09,660.92,73.09Zm-.8,9.92h-5V76.83h5c3,0,4.45,1,4.45,3.11S663.06,83,660.12,83Z" style="fill: #d2d2d2"/>
    <path d="M703.84,64.38h-9.09V86.75h4.78V80.42h4.35c5.79,0,9.42-3.07,9.42-8S709.68,64.38,703.84,64.38Zm-.11,12.3H699.5V68.12h4.24c3.08,0,4.75,1.54,4.75,4.28S706.82,76.68,703.74,76.68Z" style="fill: #d2d2d2"/>
    <path d="M642.16,81.92A8.53,8.53,0,0,1,638,83a7.4,7.4,0,1,1,4.35-13.4L645.82,67l-.22-.22a11.29,11.29,0,0,0-7.72-2.71,12.23,12.23,0,0,0-8.47,3.19,11.09,11.09,0,0,0-3.33,8.17,11.61,11.61,0,0,0,3.33,8.31,11.91,11.91,0,0,0,8.44,3.3,11.31,11.31,0,0,0,8.47-3.41l-3.08-2.31Z" style="fill: #d2d2d2"/>
    <path d="M611.12,64.24a19.86,19.86,0,0,1,2.21,3.7L596.59,80.42l-7-4.47V70.61l7,4.43Z" style="fill: #d2d2d2"/>
    <path d="M582.43,75.58a4.82,4.82,0,0,1,0-.73l-4.24-.22c0,.29,0,.62,0,.91a18.65,18.65,0,0,0,5.4,13.14l3-3A14.15,14.15,0,0,1,582.43,75.58Z" style="fill: #d2d2d2"/>
    <path d="M596.55,61.3a4.74,4.74,0,0,1,.73,0l.22-4.28c-.29,0-.62,0-.91,0a18.25,18.25,0,0,0-13,5.46l3,3A13.92,13.92,0,0,1,596.55,61.3Z" style="fill: #d2d2d2"/>
    <path d="M596.55,89.86a4.74,4.74,0,0,1-.73,0l-.22,4.28c.29,0,.62,0,.91,0a18.25,18.25,0,0,0,13-5.46l-3-3A13.71,13.71,0,0,1,596.55,89.86Z" style="fill: #d2d2d2"/>
    <path d="M604.52,63.8l3.59-2.67A18.28,18.28,0,0,0,596.55,57v4.28A14.13,14.13,0,0,1,604.52,63.8Z" style="fill: #d2d2d2"/>
    <path d="M615,75.58a20.12,20.12,0,0,0-.29-3.33l-3.95,3v.37A14.26,14.26,0,0,1,606,86.17l2.86,3.19A18.63,18.63,0,0,0,615,75.58Z" style="fill: #d2d2d2"/>
    <path d="M596.55,89.86a14,14,0,0,1-10.47-4.72L582.94,88a18.19,18.19,0,0,0,13.62,6.11Z" style="fill: #d2d2d2"/>
    <path d="M587.1,65l-2.86-3.19a18.56,18.56,0,0,0-6,13.77h4.24A14.32,14.32,0,0,1,587.1,65Z" style="fill: #d2d2d2"/>
  </g>
  <g>
    <g>
      <path d="M284.22,160.27h.1L287,167h1.28l2.72-6.67h.1V167h1.7v-9.75h-2.18l-2.92,7.07h-.12l-2.92-7.07h-2.18V167h1.7Z" style="fill: #d2d2d2"/>
      <path d="M295.85,166.66a3.55,3.55,0,0,0,1.87.47,3.61,3.61,0,0,0,1.88-.47,3.25,3.25,0,0,0,1.23-1.32,4.23,4.23,0,0,0,.43-2,4.34,4.34,0,0,0-.43-2,3.14,3.14,0,0,0-1.23-1.32,4,4,0,0,0-3.75,0,3.25,3.25,0,0,0-1.23,1.32,4.25,4.25,0,0,0-.43,2,4.36,4.36,0,0,0,.43,2A3.19,3.19,0,0,0,295.85,166.66Zm.29-4.52a2,2,0,0,1,.59-.87,1.52,1.52,0,0,1,1-.33,1.48,1.48,0,0,1,1,.33,2,2,0,0,1,.59.87,3.62,3.62,0,0,1,.19,1.22,3.57,3.57,0,0,1-.19,1.21,2,2,0,0,1-.59.87,1.49,1.49,0,0,1-1,.32,1.54,1.54,0,0,1-1-.32,1.9,1.9,0,0,1-.59-.87,3.57,3.57,0,0,1-.2-1.21A3.65,3.65,0,0,1,296.15,162.14Z" style="fill: #d2d2d2"/>
      <path d="M304,166.66a4,4,0,0,0,3.51.15,2.6,2.6,0,0,0,1.08-.93,2.82,2.82,0,0,0,.46-1.37h-1.66a1.58,1.58,0,0,1-.29.67,1.4,1.4,0,0,1-.51.42,1.61,1.61,0,0,1-.69.15,1.54,1.54,0,0,1-.94-.29,1.81,1.81,0,0,1-.62-.82,3.4,3.4,0,0,1-.23-1.29,3.28,3.28,0,0,1,.23-1.27,1.78,1.78,0,0,1,.63-.81,1.58,1.58,0,0,1,.93-.28,1.43,1.43,0,0,1,1,.35,1.62,1.62,0,0,1,.48.88H309a2.74,2.74,0,0,0-.47-1.38,2.7,2.7,0,0,0-1.11-.92,3.76,3.76,0,0,0-1.59-.33,3.56,3.56,0,0,0-1.87.48,3.2,3.2,0,0,0-1.22,1.33,4.33,4.33,0,0,0-.43,2,4.26,4.26,0,0,0,.42,2,3.23,3.23,0,0,0,1.21,1.33Z" style="fill: #d2d2d2"/>
      <path d="M312.06,164.23h.85l2,2.76H317l-2.76-3.72,2.73-3.59h-2.09l-2.22,3h-.63v-3h-1.74V167h1.74Z" style="fill: #d2d2d2"/>
      <path d="M319,166.66a3.55,3.55,0,0,0,1.87.47,3.61,3.61,0,0,0,1.88-.47,3.25,3.25,0,0,0,1.23-1.32,4.25,4.25,0,0,0,.43-2,4.36,4.36,0,0,0-.43-2,3.14,3.14,0,0,0-1.23-1.32,4,4,0,0,0-3.75,0,3.25,3.25,0,0,0-1.23,1.32,4.23,4.23,0,0,0-.43,2,4.34,4.34,0,0,0,.43,2A3.19,3.19,0,0,0,319,166.66Zm.29-4.52a2,2,0,0,1,.59-.87,1.53,1.53,0,0,1,1-.33,1.47,1.47,0,0,1,1,.33,2,2,0,0,1,.59.87,3.59,3.59,0,0,1,.19,1.22,3.54,3.54,0,0,1-.19,1.21,2,2,0,0,1-.59.87,1.49,1.49,0,0,1-1,.32,1.54,1.54,0,0,1-1-.32,1.9,1.9,0,0,1-.59-.87,3.57,3.57,0,0,1-.2-1.21A3.65,3.65,0,0,1,319.24,162.14Z" style="fill: #d2d2d2"/>
      <path d="M331.7,166.06a1.73,1.73,0,0,0,.32-1,1.69,1.69,0,0,0-.25-.91,1.76,1.76,0,0,0-.69-.63,2.53,2.53,0,0,0-1-.29,2.29,2.29,0,0,0,1.17-.52,1.29,1.29,0,0,0,.43-1,1.66,1.66,0,0,0-.76-1.45,3.65,3.65,0,0,0-2.08-.51h-3.1V167h3.57a3.93,3.93,0,0,0,1.47-.25,2,2,0,0,0,.93-.69Zm-4.34-5h1.47a1.47,1.47,0,0,1,.86.21.69.69,0,0,1,.31.59.71.71,0,0,1-.14.45.85.85,0,0,1-.39.29,1.59,1.59,0,0,1-.61.1h-1.51Zm2.7,4.35a1.12,1.12,0,0,1-.75.22h-1.95v-1.81h1.95a1.05,1.05,0,0,1,.75.26.94.94,0,0,1,.28.71A.75.75,0,0,1,330.06,165.4Z" style="fill: #d2d2d2"/>
      <path d="M339.23,165.87a2.82,2.82,0,0,0,.46-1.37H338a1.58,1.58,0,0,1-.28.67,1.41,1.41,0,0,1-.51.42,1.61,1.61,0,0,1-.69.15,1.54,1.54,0,0,1-.94-.29,1.81,1.81,0,0,1-.62-.82,3.4,3.4,0,0,1-.23-1.29,3.28,3.28,0,0,1,.23-1.27,1.78,1.78,0,0,1,.63-.81,1.58,1.58,0,0,1,.93-.28,1.43,1.43,0,0,1,1,.35,1.62,1.62,0,0,1,.48.88h1.66a2.74,2.74,0,0,0-.47-1.38,2.7,2.7,0,0,0-1.11-.92,3.77,3.77,0,0,0-1.59-.33,3.56,3.56,0,0,0-1.87.48,3.19,3.19,0,0,0-1.22,1.33,4.33,4.33,0,0,0-.43,2,4.26,4.26,0,0,0,.42,2,3.24,3.24,0,0,0,1.21,1.33,4,4,0,0,0,3.51.15,2.6,2.6,0,0,0,1.08-.93Z" style="fill: #d2d2d2"/>
      <path d="M347.69,159.67H345.6l-2.22,3h-.63v-3H341V167h1.74v-2.76h.85l2,2.76h2.1L345,163.27Z" style="fill: #d2d2d2"/>
      <path d="M353.42,162v5h1.68v-7.32h-1.78l-2.95,5v-5h-1.68V167h1.79Z" style="fill: #d2d2d2"/>
      <path d="M361.43,159.67l-2.95,5v-5H356.8V167h1.79l2.94-5v5h1.68v-7.32Z" style="fill: #d2d2d2"/>
      <path d="M360,159a2.46,2.46,0,0,0,1.64-.51,1.68,1.68,0,0,0,.61-1.35H361a1,1,0,0,1-.23.62.89.89,0,0,1-.73.27.9.9,0,0,1-.73-.27.94.94,0,0,1-.22-.61h-1.29a1.67,1.67,0,0,0,.61,1.35A2.45,2.45,0,0,0,360,159Z" style="fill: #d2d2d2"/>
      <path d="M288.36,182.74a2.54,2.54,0,0,0,1.12-1,2.6,2.6,0,0,0,.37-1.36,2.43,2.43,0,0,0-.31-1.27,2.31,2.31,0,0,0-.79-.81,2.19,2.19,0,0,0-1-.32v-.09a2.62,2.62,0,0,0,.87-.38,1.91,1.91,0,0,0,.62-.69,2.07,2.07,0,0,0,.23-1,2.31,2.31,0,0,0-1.42-2.2,4.16,4.16,0,0,0-1.77-.33h-3.76v9.75h4a4.27,4.27,0,0,0,1.87-.35Zm-4.07-8h1.8a1.66,1.66,0,0,1,1.19.37,1.2,1.2,0,0,1,.4.94,1.24,1.24,0,0,1-.22.74,1.41,1.41,0,0,1-.59.48,2,2,0,0,1-.83.17h-1.76v-2.69Zm0,6.82v-2.86h2a2,2,0,0,1,1,.21,1.52,1.52,0,0,1,.61.55,1.44,1.44,0,0,1,.22.78,1.21,1.21,0,0,1-.43,1,2.12,2.12,0,0,1-1.4.37Z" style="fill: #d2d2d2"/>
      <path d="M296,183a2.78,2.78,0,0,0,1.1-.74,2.43,2.43,0,0,0,.58-1.12l-1.63-.18a1.44,1.44,0,0,1-.34.52,1.46,1.46,0,0,1-.54.32,2.16,2.16,0,0,1-.68.1,1.9,1.9,0,0,1-1-.24,1.65,1.65,0,0,1-.66-.69,2.42,2.42,0,0,1-.23-1h5.14v-.53a4.54,4.54,0,0,0-.27-1.66,3.18,3.18,0,0,0-.74-1.15,3,3,0,0,0-1.07-.67,3.8,3.8,0,0,0-1.29-.21,3.51,3.51,0,0,0-1.84.48,3.31,3.31,0,0,0-1.22,1.33,4.77,4.77,0,0,0,0,4,3.07,3.07,0,0,0,1.24,1.3,3.78,3.78,0,0,0,1.91.46A4.27,4.27,0,0,0,296,183Zm-2.53-5.7a1.7,1.7,0,0,1,.93-.26,1.72,1.72,0,0,1,.87.22,1.55,1.55,0,0,1,.59.61,1.84,1.84,0,0,1,.22.88h-3.46a1.92,1.92,0,0,1,.22-.8,1.78,1.78,0,0,1,.62-.67Z" style="fill: #d2d2d2"/>
      <path d="M303.65,180.12v3h1.67v-7.32h-1.67v2.94h-2.85v-2.94h-1.68v7.32h1.68v-3Z" style="fill: #d2d2d2"/>
      <path d="M308.58,179a1.48,1.48,0,0,1-.16-.75v-2.44h-1.66v2.44a2.43,2.43,0,0,0,.86,2.06,3.75,3.75,0,0,0,2.34.66,4.87,4.87,0,0,0,.79-.06c.18,0,.34-.07.51-.1v2.32h1.67v-7.32h-1.67v3.56l-.2.06a5,5,0,0,1-1.1.11,2.44,2.44,0,0,1-.86-.13,1,1,0,0,1-.51-.42Z" style="fill: #d2d2d2"/>
      <path d="M317.55,181.29h-.08l-1.7-5.52h-1.84l2.67,7.47-.15.39a1.32,1.32,0,0,1-.39.59.84.84,0,0,1-.53.18,2.59,2.59,0,0,1-.67-.1l-.41,1.35a2.8,2.8,0,0,0,.48.13,3.15,3.15,0,0,0,.66.05,2.87,2.87,0,0,0,1.18-.22,2.24,2.24,0,0,0,.83-.63,3.35,3.35,0,0,0,.55-1l2.95-8.2h-1.85l-1.7,5.52Z" style="fill: #d2d2d2"/>
      <path d="M327.61,176.1a2.9,2.9,0,0,0-1.55-.43,2.28,2.28,0,0,0-1.06.21,2.07,2.07,0,0,0-.67.52,3.57,3.57,0,0,0-.38.57h-.1v-1.21h-1.71v10.06h1.74v-3.89h.07a3.38,3.38,0,0,0,.39.57,2.07,2.07,0,0,0,.68.51,2.38,2.38,0,0,0,1.05.21,2.78,2.78,0,0,0,1.56-.45,3,3,0,0,0,1.08-1.29,5.44,5.44,0,0,0,0-4.11,2.91,2.91,0,0,0-1.1-1.27Zm-.47,4.55a1.84,1.84,0,0,1-.59.84,1.5,1.5,0,0,1-1,.31,1.48,1.48,0,0,1-.94-.3,1.77,1.77,0,0,1-.59-.83,3.66,3.66,0,0,1-.21-1.24,3.58,3.58,0,0,1,.2-1.24,1.75,1.75,0,0,1,.59-.81,1.52,1.52,0,0,1,.94-.29,1.6,1.6,0,0,1,1,.3,1.81,1.81,0,0,1,.59.83,3.47,3.47,0,0,1,.2,1.21,3.52,3.52,0,0,1-.2,1.22Z" style="fill: #d2d2d2"/>
      <path d="M335.05,178.71H332.2v-2.94h-1.68v7.32h1.68v-3h2.86v3h1.67v-7.32h-1.67Z" style="fill: #d2d2d2"/>
      <path d="M347.38,175.77h-1.74v7.32h1.74Z" style="fill: #d2d2d2"/>
      <path d="M341.76,178.15h-1.68v-2.38H338.4v7.32h3.36a3.62,3.62,0,0,0,1.6-.32,2.3,2.3,0,0,0,1.37-2.15,2.26,2.26,0,0,0-.78-1.78A3.21,3.21,0,0,0,341.76,178.15Zm.93,3.23a1.48,1.48,0,0,1-.93.29h-1.68v-2.1h1.68a1.43,1.43,0,0,1,.93.3,1,1,0,0,1,.36.78.86.86,0,0,1-.36.74Z" style="fill: #d2d2d2"/>
      <path d="M353,173.87a.89.89,0,0,1-.73.27.9.9,0,0,1-.73-.27.94.94,0,0,1-.22-.61H350a1.67,1.67,0,0,0,.61,1.35,2.45,2.45,0,0,0,1.63.51,2.48,2.48,0,0,0,1.64-.51,1.68,1.68,0,0,0,.61-1.35h-1.3a1,1,0,0,1-.23.62Z" style="fill: #d2d2d2"/>
      <path d="M350.76,180.75v-5h-1.68v7.32h1.79l2.94-5v5h1.69v-7.32h-1.79Z" style="fill: #d2d2d2"/>
      <path d="M290.26,191a4.2,4.2,0,0,0-2-.49h-.14v-1.26h-1.71v1.26h-.14a4.2,4.2,0,0,0-2,.49,3.62,3.62,0,0,0-1.41,1.38,4,4,0,0,0-.51,2.08,4,4,0,0,0,.51,2,3.46,3.46,0,0,0,1.4,1.35,4.3,4.3,0,0,0,2.05.48h.14v1.24h1.71v-1.24h.14a4.24,4.24,0,0,0,2-.48,3.54,3.54,0,0,0,1.4-1.36,4,4,0,0,0,.51-2,4.17,4.17,0,0,0-.51-2.08A3.54,3.54,0,0,0,290.26,191Zm-4,5.83a2.54,2.54,0,0,1-1.2-.27,1.94,1.94,0,0,1-.8-.81,2.67,2.67,0,0,1-.29-1.29,3.09,3.09,0,0,1,.28-1.35,1.94,1.94,0,0,1,.79-.83,2.45,2.45,0,0,1,1.21-.28h.14v4.83h-.13Zm4-1.09a1.85,1.85,0,0,1-.78.81,2.42,2.42,0,0,1-1.2.27h-.14V192h.14a2.42,2.42,0,0,1,1.2.28,1.92,1.92,0,0,1,.78.83,2.94,2.94,0,0,1,.28,1.33,2.73,2.73,0,0,1-.28,1.29Z" style="fill: #d2d2d2"/>
      <path d="M298.71,192.24a4,4,0,0,0-3.75,0,3.25,3.25,0,0,0-1.23,1.32,4.23,4.23,0,0,0-.43,2,4.34,4.34,0,0,0,.43,2,3.2,3.2,0,0,0,1.23,1.32,3.56,3.56,0,0,0,1.87.47,3.61,3.61,0,0,0,1.88-.47,3.25,3.25,0,0,0,1.23-1.32,4.23,4.23,0,0,0,.43-2,4.34,4.34,0,0,0-.43-2A3.14,3.14,0,0,0,298.71,192.24Zm-.29,4.51a2,2,0,0,1-.59.87,1.49,1.49,0,0,1-1,.32,1.53,1.53,0,0,1-1-.32,1.9,1.9,0,0,1-.59-.87,3.56,3.56,0,0,1-.2-1.21,3.65,3.65,0,0,1,.2-1.22,1.91,1.91,0,0,1,.59-.87,1.52,1.52,0,0,1,1-.33,1.47,1.47,0,0,1,1,.33,2,2,0,0,1,.59.87,3.59,3.59,0,0,1,.19,1.22A3.54,3.54,0,0,1,298.41,196.75Z" style="fill: #d2d2d2"/>
      <path d="M306.27,194.8h-2.85v-2.94h-1.68v7.32h1.68v-3h2.85v3h1.67v-7.32h-1.67Z" style="fill: #d2d2d2"/>
      <path d="M316.07,191.86h-5.33l-.21,2.56c0,.41-.08.79-.12,1.15a8.64,8.64,0,0,1-.17,1,3.52,3.52,0,0,1-.26.74,1.33,1.33,0,0,1-.4.49H309v3.54h1.71v-2.13h4.83v2.13h1.68v-3.54h-1.14v-5.89Zm-1.66,5.89h-3a3.51,3.51,0,0,0,.51-1.35,19.2,19.2,0,0,0,.25-2l.11-1.18h2.16v4.5Z" style="fill: #d2d2d2"/>
    </g>
    <path d="M213.59,189.85l-11.33-16.38h-20l8.6-16.17h20l11.33,16.38-8.6,16.18Zm48.68-16.18L251,157.29h-20l-8.6,16.18h20l11.33,16.37,8.6-16.18Z" style="fill: #d2d2d2"/>
  </g>
  <g>
    <g>
      <path d="M585.15,153a3,3,0,0,1-.32,1.4,3.36,3.36,0,0,1-.75,1l-1,.64a3.87,3.87,0,0,1-1.18.21v1H580.1v-1a6.13,6.13,0,0,1-1.5-.43,2.34,2.34,0,0,1-1-.75,3.38,3.38,0,0,1-.54-1.07,5.48,5.48,0,0,1-.21-1.4v-4a3,3,0,0,1,.32-1.4,2.57,2.57,0,0,1,.64-.86,3.55,3.55,0,0,1,1.07-.64,2.31,2.31,0,0,1,1.18-.21v-.64H582v.64a4.57,4.57,0,0,1,1.18.21,2.53,2.53,0,0,1,1,.64,3.33,3.33,0,0,1,.75,1,3,3,0,0,1,.32,1.4V153Zm-5-6a3.21,3.21,0,0,0-1.07.43,1.81,1.81,0,0,0-.32,1.07v4.72a1.36,1.36,0,0,0,.11.64,1.5,1.5,0,0,0,.32.43c.11.11.32.21.43.32a1,1,0,0,0,.54.11Zm3.33,1.5a1.38,1.38,0,0,0-.43-1.07,2,2,0,0,0-1-.43v7.62c.11,0,.32-.11.43-.11a1.9,1.9,0,0,0,.75-.75,1,1,0,0,0,.11-.54v-4.72Z" style="fill: #d2d2d2"/>
      <path d="M594.7,153.92a3.41,3.41,0,0,1-.75,2.47,3.08,3.08,0,0,1-2.25.86,2.73,2.73,0,0,1-2.25-.75,3.55,3.55,0,0,1-.75-2.25V148a4.65,4.65,0,0,1,.21-1.29,3.4,3.4,0,0,1,.54-1.07,1.56,1.56,0,0,1,1-.64,5.43,5.43,0,0,1,1.4-.21,4.75,4.75,0,0,1,1.39.21,1.09,1.09,0,0,1,.86.54,3.36,3.36,0,0,1,.54,1.07,5.67,5.67,0,0,1,.11,1.4Zm-1.93-6.12a3.13,3.13,0,0,0-.21-1c-.11-.32-.43-.43-.86-.43a.81.81,0,0,0-.54.11c-.21.21-.32.32-.32.54a.81.81,0,0,0-.11.54v6.76a2,2,0,0,0,.21.86,1,1,0,0,0,.86.43.87.87,0,0,0,.86-.43c.22-.21.22-.54.22-1v-6.44Z" style="fill: #d2d2d2"/>
      <polygon points="602.43 157.14 602.43 151.78 600.18 151.78 600.18 157.14 598.35 157.14 598.35 144.8 600.28 144.8 600.28 149.95 602.54 149.95 602.54 144.8 604.47 144.8 604.47 157.14 602.43 157.14" style="fill: #d2d2d2"/>
      <path d="M609,157.14v2.36h-1.61v-4l.75-.11a2.56,2.56,0,0,0,.64-1.18,7.66,7.66,0,0,0,.21-1.83l.22-7.51h5.58v10.63h.75v4.08h-1.61v-2.36H609Zm1.72-4.83c0,.75-.11,1.29-.11,1.83a3.62,3.62,0,0,1-.43,1.29h2.68v-8.8h-1.93Z" style="fill: #d2d2d2"/>
      <path d="M627.12,144.69a4,4,0,0,1,1.29.21,4.35,4.35,0,0,1,1,.54,2.34,2.34,0,0,1,.54.86,3.89,3.89,0,0,1,.21,1.18l-1.83.43a2.67,2.67,0,0,0-.22-1.07.87.87,0,0,0-.86-.43.8.8,0,0,0-.54.11l-.32.32a.65.65,0,0,0-.11.43v7.19c0,.11.11.32.11.43l.32.32a.8.8,0,0,0,.54.11c.75,0,1.07-.54,1.07-1.5a3,3,0,0,0,1,.11c.32,0,.64.11,1,.11a3.54,3.54,0,0,1-.75,2.25,2.82,2.82,0,0,1-2.15.86,2.73,2.73,0,0,1-2.25-.75,3,3,0,0,1-.75-2.25V148a5.23,5.23,0,0,1,.11-1.29,3.4,3.4,0,0,1,.54-1.07,2.34,2.34,0,0,1,1-.75,2.19,2.19,0,0,1,1.18-.21" style="fill: #d2d2d2"/>
      <path d="M639.14,153.92a3.41,3.41,0,0,1-.75,2.47,3.08,3.08,0,0,1-2.25.86,2.73,2.73,0,0,1-2.25-.75,3.55,3.55,0,0,1-.75-2.25V148a4.65,4.65,0,0,1,.21-1.29,3.38,3.38,0,0,1,.54-1.07,1.57,1.57,0,0,1,1-.64,5.43,5.43,0,0,1,1.4-.21,4.76,4.76,0,0,1,1.39.21,1.93,1.93,0,0,1,1,.64,3.36,3.36,0,0,1,.54,1.07v7.19Zm-1.93-6.12a3.13,3.13,0,0,0-.21-1c-.11-.32-.43-.43-.86-.43a.81.81,0,0,0-.54.11l-.32.32c-.11.11-.11.32-.21.54v6.76a2,2,0,0,0,.21.86,1.12,1.12,0,0,0,.86.43A.87.87,0,0,0,637,155c.21-.21.21-.54.21-1Z" style="fill: #d2d2d2"/>
      <path d="M643.65,157.14v2.36H642v-4l.75-.11a2.56,2.56,0,0,0,.64-1.18,7.66,7.66,0,0,0,.21-1.83l.22-7.51h5.58v10.63h.75v4.08h-1.61v-2.36h-4.94Zm1.72-4.83c0,.75-.11,1.29-.11,1.83a3.62,3.62,0,0,1-.43,1.29h2.68v-8.8h-1.93Z" style="fill: #d2d2d2"/>
      <polygon points="653.31 157.14 653.31 144.8 658.79 144.8 658.79 146.62 655.24 146.62 655.24 149.95 658.36 149.95 658.36 151.78 655.24 151.78 655.24 155.32 658.79 155.32 658.79 157.14 653.31 157.14" style="fill: #d2d2d2"/>
      <path d="M666.41,149.42l-2.58,7.73H662V144.8h1.82v7.84l2.58-7.84h1.83v12.34H666.3ZM664,142a.81.81,0,0,0,.11.43c.11.11.11.21.21.43l.32.32a.64.64,0,0,0,.43.11c.21,0,.32,0,.43-.11l.32-.32a.56.56,0,0,0,.22-.43c0-.11.11-.21.11-.43h1.4a3.36,3.36,0,0,1-.21.86c.11.21-.11.54-.32.75a4.67,4.67,0,0,1-.75.64,3.18,3.18,0,0,1-1.07.21,3.86,3.86,0,0,1-1.18-.21,1.44,1.44,0,0,1-.75-.64,2.72,2.72,0,0,1-.43-.75,3.32,3.32,0,0,1-.21-.86Z" style="fill: #d2d2d2"/>
      <path d="M674.89,144.69a4,4,0,0,1,1.29.21,4.36,4.36,0,0,1,1,.54,2.35,2.35,0,0,1,.54.86,3.89,3.89,0,0,1,.21,1.18l-1.82.43a2.67,2.67,0,0,0-.22-1.07.87.87,0,0,0-.86-.43.8.8,0,0,0-.54.11l-.32.32a.65.65,0,0,0-.11.43v7.19c0,.11.11.32.11.43l.32.32a.8.8,0,0,0,.54.11c.75,0,1.07-.54,1.07-1.5a3,3,0,0,0,1,.11c.32,0,.65.11,1,.11a3.54,3.54,0,0,1-.75,2.25,2.82,2.82,0,0,1-2.15.86,2.73,2.73,0,0,1-2.25-.75,3,3,0,0,1-.75-2.25V148a5.23,5.23,0,0,1,.11-1.29,3.38,3.38,0,0,1,.54-1.07,2.34,2.34,0,0,1,1-.75,2.51,2.51,0,0,1,1.18-.21" style="fill: #d2d2d2"/>
      <polygon points="684.12 146.63 684.12 157.15 682.19 157.15 682.19 146.63 680.15 146.63 680.15 144.8 686.05 144.8 686.05 146.63 684.12 146.63" style="fill: #d2d2d2"/>
      <path d="M693.57,150.7a1.63,1.63,0,0,1,1.07,1,4.43,4.43,0,0,1,.32,1.72,3.94,3.94,0,0,1-.86,2.79,3.13,3.13,0,0,1-2.58.86h-2.58V144.8h2.68a3,3,0,0,1,2.36.86,4.12,4.12,0,0,1,.43,4c0,.43-.43.75-.86,1.07m-.54-2.47a1.73,1.73,0,0,0-.32-1.18,1.6,1.6,0,0,0-1.07-.32H691V150h.65a1.13,1.13,0,0,0,1.07-.43,2.85,2.85,0,0,0,.32-1.29m.11,4.94a2.29,2.29,0,0,0-.32-1.29,1.13,1.13,0,0,0-1.07-.43H691v3.86h.75a1.55,1.55,0,0,0,.75-.21.84.84,0,0,0,.43-.43,1.53,1.53,0,0,0,.21-.64Z" style="fill: #d2d2d2"/>
      <polygon points="703.01 149.41 700.44 157.14 698.61 157.14 698.61 144.8 700.44 144.8 700.44 152.64 700.54 152.64 703.12 144.8 704.94 144.8 704.94 157.14 703.01 157.14 703.01 149.41" style="fill: #d2d2d2"/>
      <path d="M708.16,157.14l.64-3.86a3.21,3.21,0,0,1,.43-1.07,1.69,1.69,0,0,1,.75-.75,2.33,2.33,0,0,1-1.18-1.07,4.06,4.06,0,0,1-.32-1.72,4.33,4.33,0,0,1,.86-2.79,3.08,3.08,0,0,1,2.47-1h2.79v12.34h-1.93v-5.37h-.54a1.31,1.31,0,0,0-1,.43c-.32.21-.43.75-.64,1.4l-.54,3.44Zm3.76-10.52a1.39,1.39,0,0,0-1.18.54,2.44,2.44,0,0,0-.32,1.4,1.57,1.57,0,0,0,.43,1.29,1.82,1.82,0,0,0,1.07.32h.75v-3.54Z" style="fill: #d2d2d2"/>
      <polygon points="582.68 167.34 579.46 176.9 577.21 176.9 577.21 161.65 579.57 161.65 579.57 171.31 579.67 171.31 582.89 161.65 585.26 161.65 585.26 176.9 582.79 176.9 582.68 167.34" style="fill: #d2d2d2"/>
      <polygon points="596.74 176.9 596.74 170.24 594.06 170.24 594.06 176.9 591.7 176.9 591.7 161.65 594.06 161.65 594.06 167.99 596.85 167.99 596.85 161.65 599.21 161.65 599.21 176.9 596.74 176.9" style="fill: #d2d2d2"/>
      <polygon points="610.91 176.9 610.91 170.24 608.12 170.24 608.12 176.9 605.76 176.9 605.76 161.65 608.12 161.65 608.12 167.99 610.91 167.99 610.91 161.65 613.27 161.65 613.27 176.9 610.91 176.9" style="fill: #d2d2d2"/>
      <path d="M627.23,173a4.77,4.77,0,0,1-.86,3,3.77,3.77,0,0,1-2.9,1,3.51,3.51,0,0,1-2.79-1,4.33,4.33,0,0,1-.86-2.79v-7.62A6.45,6.45,0,0,1,620,164a2.45,2.45,0,0,1,.64-1.29,3.35,3.35,0,0,1,1.18-.86,4.09,4.09,0,0,1,1.72-.32,4.63,4.63,0,0,1,1.83.32,4.42,4.42,0,0,1,1.18.75,2.45,2.45,0,0,1,.64,1.29,8.28,8.28,0,0,1,.21,1.72V173Zm-2.36-7.62a2.45,2.45,0,0,0-.32-1.18,1.18,1.18,0,0,0-1.07-.54.9.9,0,0,0-.64.21c-.22.11-.32.32-.43.43a1.54,1.54,0,0,0-.21.64c0,.21-.11.43-.11.64v7.73a1.81,1.81,0,0,0,.32,1.07,1.13,1.13,0,0,0,1.07.43,1.18,1.18,0,0,0,1.07-.54,2.16,2.16,0,0,0,.32-1.18Z" style="fill: #d2d2d2"/>
      <path d="M639.36,169a2.1,2.1,0,0,1,1.4,1.29,6.38,6.38,0,0,1,.43,2.15,4.83,4.83,0,0,1-1.07,3.54A3.92,3.92,0,0,1,637,177h-3.22V161.65h3.33a3.31,3.31,0,0,1,2.9,1.07,4.51,4.51,0,0,1,1,3.11,4.63,4.63,0,0,1-.32,1.83,2,2,0,0,1-1.29,1.18Zm-.65-3.11a1.94,1.94,0,0,0-.43-1.5,1.82,1.82,0,0,0-1.4-.43h-.75v3.86h.75a1.85,1.85,0,0,0,1.4-.54c.32-.21.43-.75.43-1.4m.11,6.23a2.23,2.23,0,0,0-.43-1.61,1.7,1.7,0,0,0-1.4-.54h-.86v4.72h1a2.56,2.56,0,0,0,1-.21,1.29,1.29,0,0,0,.54-.54,2,2,0,0,0,.21-.86Z" style="fill: #d2d2d2"/>
      <path d="M653.2,176.89l-.64-3.22h-2.79l-.32,1.61-.32,1.61h-2.47c.54-2.58,1.07-5.15,1.5-7.62s1.07-5,1.5-7.62h2.68l3.11,15.24Zm-2.15-11.7c-.11,1.07-.32,2.15-.43,3.11s-.32,2.15-.54,3.22h2.15l-1-6.33Z" style="fill: #d2d2d2"/>
      <polygon points="668.77 161.65 668.77 174.75 669.74 174.75 669.74 179.9 667.7 179.9 667.7 177 661.26 177 661.26 161.65 663.62 161.65 663.62 174.75 666.3 174.75 666.3 161.65 668.77 161.65" style="fill: #d2d2d2"/>
      <polygon points="680.9 167.34 677.68 176.9 675.42 176.9 675.42 161.65 677.79 161.65 677.79 171.31 681.01 161.65 683.37 161.65 683.37 176.9 681.01 176.9 680.9 167.34" style="fill: #d2d2d2"/>
      <path d="M689.27,176.9l.86-4.83a3.18,3.18,0,0,1,.54-1.4,2.11,2.11,0,0,1,1-1,3,3,0,0,1-1.5-1.29,6.34,6.34,0,0,1-.43-2.15,4.72,4.72,0,0,1,1.07-3.44,4,4,0,0,1,3-1.18h3.54V176.9H695v-6.55h-.64a1.79,1.79,0,0,0-1.18.43,2.86,2.86,0,0,0-.75,1.72l-.75,4.29h-2.36Zm4.72-13a1.67,1.67,0,0,0-1.5.64,2.72,2.72,0,0,0-.43,1.72,1.79,1.79,0,0,0,.54,1.5,2,2,0,0,0,1.4.43h1v-4.29Z" style="fill: #d2d2d2"/>
      <polygon points="708.38 173.57 707.31 170.78 706.34 168.09 706.23 168.09 706.23 176.9 703.87 176.9 703.87 161.65 706.23 161.65 707.95 165.95 709.13 169.28 709.24 169.28 710.53 165.84 712.14 161.55 714.39 161.55 714.39 176.79 712.03 176.79 712.03 167.99 711.92 167.99 710.96 170.67 709.88 173.46 708.38 173.46 708.38 173.57" style="fill: #d2d2d2"/>
    </g>
    <g>
      <path d="M711.1,186.13a68.71,68.71,0,0,1-16.88,12.39c-13.84,7.35-29.73,10.48-44,10.72H648.6c-1.63,0-3.35,0-5.08-.12-22-1-48.22-8.32-66.6-27.67h13.41l.23.27c11.79,13.16,34.41,21.84,59,22.66,1.3,0,2.6.06,3.9.06C676,204.43,696.52,197.9,711.1,186.13Z" style="fill: #d2d2d2"/>
      <path d="M712.66,183.76c-15.31,13.45-38.06,20.62-63,19.8-24.24-.82-46.5-9.27-58.2-22.12h13l.31.31c10.93,10.39,28.84,16.78,49.13,17.52,1.32,0,2.64.07,3.95.07C677.63,199.32,696.9,193.86,712.66,183.76Z" style="fill: #d2d2d2"/>
      <path d="M713.53,182.2c-16.88,11.25-38.06,17-59.62,16.23-19.9-.72-37.47-6.91-48.27-17h13.88c7.9,7.57,22.6,12.65,41.3,12.65h.76c13.63-.11,29.19-2.92,45.73-9.3C709.33,183.95,711.42,183.1,713.53,182.2Z" style="fill: #d2d2d2"/>
    </g>
  </g>
  <g>
    <g>
      <path d="M70.43,49.07a3,3,0,0,0,.64.09.77.77,0,0,1,.88.71c.14.67,0,1.08-.49,1.29l-.29.11a2,2,0,0,0,.24.69,2.77,2.77,0,0,1,.49,2.29c-.05.77,0,1.54-.06,2.32a1.3,1.3,0,0,0,.12.34l.64-.43a2.75,2.75,0,0,1,2.49-.55,10.81,10.81,0,0,0,2.82.05c.27,0,.29-.19.16-.39l-.51-.76a6.93,6.93,0,0,1,1,.14c.47.14.72,0,.72-.7a17.81,17.81,0,0,1,1.39,1.17.7.7,0,0,0,.83.24A2,2,0,0,1,84,57l-.39.07a16.5,16.5,0,0,0,2.08,3.77,2.9,2.9,0,0,0,1,.85.73.73,0,0,1,.42.67,7.8,7.8,0,0,1,0,1,1,1,0,0,1-.35.6c-.1.07-.38-.07-.56-.15a3.24,3.24,0,0,1-.47-.33l.17.69a2.91,2.91,0,0,1-.8-.15,7,7,0,0,1-1-.65,3.87,3.87,0,0,0-2.31-.59c-.41,0-.44.28-.37.55A10.88,10.88,0,0,0,82,64.8c.45,1.07.92,2.14,1.42,3.18a7.38,7.38,0,0,0,.82,1.2c.6.79,1.27,1.54,1.81,2.36a4.66,4.66,0,0,1,.52,1.51c.14.61.28.75.79.42A21.4,21.4,0,0,0,89.43,72c.53-.42,1-.43,1.26.2a12,12,0,0,0,2.84,3.9A1.6,1.6,0,0,1,94,77.21c0,.66.24,1.31.31,2a14.85,14.85,0,0,1,.05,1.8c0,.32-.23.36-.46.19a15.46,15.46,0,0,1-1.27-1c-.4-.36-.15-.75.12-1A1.22,1.22,0,0,0,93,77.48a3,3,0,0,0-.36-.39c-.13-.14-.38-.32-.35-.44.14-.75-.49-1-.84-1.48a5.52,5.52,0,0,0-1.07-.93c-.13-.09-.44-.14-.53-.06-1,.93-2,1.89-3,2.85l.11.22a8.65,8.65,0,0,0,1.26-.12,1,1,0,0,1,1.27.57,11.91,11.91,0,0,0,2.53,3.8,1.47,1.47,0,0,1,.29.94,6.18,6.18,0,0,0,.59,2.48,8.2,8.2,0,0,1,.42,1.76c.06.31-.09.48-.4.33a16.42,16.42,0,0,1-1.59-.83.54.54,0,0,1-.15-.83,2.94,2.94,0,0,0,.27-.6,1.54,1.54,0,0,0-.39-1.8c-.37-.34-.69-.66-.44-1.26.07-.16-.15-.52-.33-.71-.47-.5-1-.94-1.49-1.44a.76.76,0,0,0-1-.21c-1,.43-2.07.81-3.09,1.26a11.72,11.72,0,0,1-5.11,1.32l1.57,2,.06-.11.34.15-.47.28-.25-.32L72.6,73q-6.11-8.13-12.23-16.26a5.23,5.23,0,0,0-.88-.9.52.52,0,0,0-.51.05c-.08.09-.05.36,0,.51a2.9,2.9,0,0,0,.45.53c-.31.28-.29.8,0,1.51l.18-.56.1,0,.06,1h.07l.08-.29H60l.11.69.29-.47.13.78.27-.54L61,60.25h.1l.15-1L81.47,85.57l.14-.07-.14-1.59c.14.21.3.24.55.14.74-.28.93-.16,1.19.57a11.52,11.52,0,0,0,.51,1.21,1.32,1.32,0,0,0,1,.69,1.82,1.82,0,0,1,1,1A9.52,9.52,0,0,0,87,90c.5.64.46.72-.35.94.1.46,0,.8-.57.85-.07,0-.18.24-.17.36a2.71,2.71,0,0,1-1,2.23c-.81.78-1.56,1.62-2.35,2.42a2.71,2.71,0,0,1-.54.37c-.27.16-.28.35-.08.58a.87.87,0,0,0,1.18.21,2.29,2.29,0,0,1,2.25-.09,2.33,2.33,0,0,1,1,.84c.08.1-.08.41-.14.64-.23-.24-.37-.48-.58-.59a2.26,2.26,0,0,0-.74-.1c.26,1,.24,1.2-.16,1.56a.89.89,0,0,0-1.18-.64c-.64.17-.09.66-.22,1,0,0-.08,0-.09,0a2.13,2.13,0,0,0-2.53-.5,2.08,2.08,0,0,1-2.11-.09c-.37-.29-2.3.29-2.57.7l-.1.12c-.45-.56-.11-1.35.7-1.66.25-.1.52-.14.77-.23.1,0,.24-.15.23-.22a.48.48,0,0,0-.2-.31c-.44-.28-.45-.27-.36-.74a1.85,1.85,0,0,0-1.93.24c-.55.44-.55.44-.89-.21,0,0,0,0,0,0l-1.21-.13a7.43,7.43,0,0,0-.8-.1,3,3,0,0,1-2-.54.72.72,0,0,0-1.12.09c-.23.36-.15.75.31,1.09s.88.7,1.49.28c.12-.09.39,0,.59.06a4.31,4.31,0,0,1,.39.21c.46.18.51.27.43.75-.21-.09-.43-.28-.65-.27a2.22,2.22,0,0,0-.88.32c1.18.48,1.35.72.89,1.47,0-.54-.28-.41-.63-.38a7.22,7.22,0,0,1-1.79-.16,2.14,2.14,0,0,0-1.52,0l.29,1a9.05,9.05,0,0,1-.95-.15,2,2,0,0,1-.65-.3c-.23-.16-.4-.31-.72-.17-.14.06-.43-.11-.57-.25a1.43,1.43,0,0,0-.67-.33,1.77,1.77,0,0,0-1.77.28.59.59,0,0,1-.54,0c-.52-.36-.83,0-1.17.28,0,0-.1.07-.24,0a4.68,4.68,0,0,1,.47-.85,5.29,5.29,0,0,1,1-.88,1.27,1.27,0,0,1,.66-.13c.42,0,.85.07,1.26,0s.67-.44.33-.85a3.52,3.52,0,0,0-.57-.57.61.61,0,0,1-.16-.93,5.8,5.8,0,0,1,.72-.84c.43-.42.43-.63.07-1.11a1.25,1.25,0,0,1-.17-.7c0-.31-.09-.5-.41-.51s-.86,0-1.23,0c.11.71.26,1.34.31,2a1.7,1.7,0,0,1-.89,1.64,3.61,3.61,0,0,1-3.26.58,2.41,2.41,0,0,1-1.72-2.41c0-.47.06-.94.09-1.41,0-.23,0-.42-.3-.46-1-.13-2-.3-3-.47a1.8,1.8,0,0,0,.12,1.62c.55.89,1.06,1.79,1.57,2.7a4.08,4.08,0,0,1,.23.71,5,5,0,0,1-2.42-.27.61.61,0,0,1-.26-.44,2.51,2.51,0,0,1,.06-.9,2.22,2.22,0,0,0-.65-2.43c-.7-.66-.69-.7-.09-1.43.29-.35.28-.57-.06-.87a3.79,3.79,0,0,1-.84-4.74c.33-.75.79-1.45,1.17-2.18a2.78,2.78,0,0,0-.13-2.93,3.18,3.18,0,0,0-.32-.37c-.81.78-1.87,1.2-2.38,2.27a8.41,8.41,0,0,0-.87,3.15,3.78,3.78,0,0,1-.26-.42,8.23,8.23,0,0,1-.73-3.94A2.32,2.32,0,0,1,48.87,81a6.8,6.8,0,0,0,.85-1.34c.17-.34,0-.57-.35-.76a10.59,10.59,0,0,1-1.71-1.14,1.76,1.76,0,0,1-.32-2.15A1.59,1.59,0,0,1,49,74.51c.57,0,.57,0,.47-.84.61.28.82,1.27.53,2.31l-.95-.8.12-.2c-.78-.16-1.25.17-1.32.91a1.59,1.59,0,0,0,.85,1.69c.38.2.77.38,1.21.6a8.51,8.51,0,0,1,1.36-3.72,9.85,9.85,0,0,1,2.07-2.25,3.88,3.88,0,0,1,4-.14c.76.34,1.45.86,2.18,1.26a.94.94,0,0,0,.59.09c.94-.18,1.87-.39,2.8-.6.15,0,.4-.18.39-.23a.68.68,0,0,0-.26-.47.53.53,0,0,1-.4-.56c0-.1-.21-.23-.34-.3a4.36,4.36,0,0,1-.85-.38c-2.31-2-4.88-2-7.6-1.09l-.6.21-.15-.11c.14-.3.26-.61.42-.89.28-.49.87-.82.8-1.51,0-.1.18-.23.28-.34.32-.32.67-.62,1-1a.84.84,0,0,0,.14-1c-.55-1.14-.24-1.8,1-2.17a15,15,0,0,0,1.57-.54,1.37,1.37,0,0,0,.66-.52,1.05,1.05,0,0,0,0-.79c-.05-.13-.38-.21-.59-.21-.43,0-.87,0-1.38.08a1.17,1.17,0,0,1,.12-.39c.49-.57,1-1.12,1.48-1.69.12-.14.29-.33.28-.48,0-.55-.16-1.09-.26-1.64a.31.31,0,0,0-.07-.14c-.51-.63-1-1.27-1.54-1.88a1,1,0,0,1-.31-1,1.54,1.54,0,0,0-.28-1c-.57-.84-1.21-1.63-1.81-2.44a1.63,1.63,0,0,1-.26-.43,1.06,1.06,0,0,1,0-.38l.36.16c-.47,0-.19.24-.1.36.6.81,1.22,1.62,1.84,2.42.13.17.28.31.41.46.5-.27.11-.5.06-.74.17.11.33.3.5.31,1,0,1.25.77,1.58,1.48a.82.82,0,0,0,.39.41,1.21,1.21,0,0,1,.87,1.22c0,.61.46,1,.84,1.32.09.09.42,0,.58-.09.47-.3.89-.67,1.35-1a1.19,1.19,0,0,1,1.79.17c-.25,0-.49-.09-.74-.11a1.2,1.2,0,0,0-1.21.62c.88.06,1.77-.21,2.43.49.07,0,.18-.15.22-.13.32.14.64.31,1,.48a7.24,7.24,0,0,0,1,.49,2.55,2.55,0,0,0,.76,0l-3.38-1.88c.2,0,.4,0,.59,0a2.41,2.41,0,0,1,.74,0c1,.35,1.41.1,1.51-1a6.18,6.18,0,0,1,.15-1.3,11.83,11.83,0,0,1,.7-1.48l.3-.64a5.65,5.65,0,0,1-3.91-.35v-.15l1-.1c-.51-.45-1.14-.7-1.45-1.47.27.09.42.13.56.19a2.8,2.8,0,0,0,2.79-.23l.94-.59a1.24,1.24,0,0,1,1.65.15,1.61,1.61,0,0,0-1.83.19,8.09,8.09,0,0,1-.74.43,3.13,3.13,0,0,1-2,.48,10.4,10.4,0,0,1-1-.26,2,2,0,0,0,1.73.76l0,.16-1.29.52a1.45,1.45,0,0,0,.28.15,1.82,1.82,0,0,0,2-.69A2.07,2.07,0,0,1,69.13,50c.65-.08,1.2,0,1.45.76l.33-.25.67.21c.07-.27.24-.57.18-.82a.63.63,0,0,0-.77-.53l.07.5ZM67.14,75.57h0l.17-1.12h-.16a12.23,12.23,0,0,0-.3,4.61,13.73,13.73,0,0,1,0-4.67,12.43,12.43,0,0,0-.58,4.75,14.74,14.74,0,0,1,.24-4.79c-.77,1.55-.57,3.2-.6,4.83a12.58,12.58,0,0,1,.21-4.85,1.87,1.87,0,0,0-.28.56,13,13,0,0,0-.32,3.91c0,.93,0,.93,1,.82h.2l2.46-.22c.22,0,.55-.14.28-.37s-.23-.49-.23-.76c0-1.17,0-2.34,0-3.51h-.08l-.22,3.66V74.56c-.53,1.39-.18,2.84-.42,4.26V74.59h-.2v4.24h-.14V74.49a27.13,27.13,0,0,0-.32,4.3V74.51c-.61,1.4-.19,2.88-.34,4.31V74.45l-.2.59Zm8.33-10.43-.12.06L76.14,67l-.57-.53-.09.07.62,1.25-.07,0-.55-.71-.09.06.53,1.21-.05,0-.49-.58-.08,0,.51,1.24-.06,0-.66-.81-.07,0,.68,1.41-.13.12-.68-.77,0,0,.71,1.21,0,0-.65-.53-.05,0,.38.76-.07,0-.67-.58-.09.07.73,1.15-.42-.22-.4-.23c.27.75.27.77.93.86.83.11,1.67.2,2.51.28a32.83,32.83,0,0,0,5.49.52l-.47-.83.82.22-.86-1.32.82.22-.77-1.14.55,0-.6-.85.69.21c-.14-.39-.24-.71-.36-1q-1.07-2.75-2.15-5.49a.66.66,0,0,0-.21-.28,1.55,1.55,0,0,1-.56-2,3.46,3.46,0,0,0,.1-.39l.44,1.1.26-.46.24.93h.1l.09-.29c.25.24.46.61.76.72a23.85,23.85,0,0,0,2.42.67,1,1,0,0,0,.57,0c.46-.19.67-.12.86.34a1.4,1.4,0,0,0,.35.53,1.78,1.78,0,0,0,.56.21L87,63l-.21-.11-.19.37-.15-.07c.06-.18.06-.42.18-.54.37-.36.19-.61-.15-.72a2.52,2.52,0,0,1-1.66-1.76,2.46,2.46,0,0,0-.25-.44c-.21-.37-.44-.6-.77-.12L83,59l.69-.61a1.52,1.52,0,0,0-.26-.16A2.32,2.32,0,0,1,81.68,57c0-.07-.16-.12-.25-.14a8.39,8.39,0,0,0-1.52-.25,2.42,2.42,0,0,0-1.23.31c-.23.14-.29.57-.42.85L78,57.44l.14,1.1L77.81,58l-.08,0,.1.7-.06,0-.28-.61-.1,0,.24,1.16-.49-.79.22,1.11-.08,0-.37-.57-.07,0,.23,1.15-.4-.45-.06,0,.24.87-.08,0-.45-.54-.09.05.39,1-.07,0-.43-.49.31,1.05-.05,0L76,61.23l-.06,0,.42,1.1-.07,0-.49-.7-.06,0,.52,1.39-.07,0-.5-.55-.1.07L76.23,64l-.07,0-.57-.76-.08,0,.62,1.41-.07,0L75.48,64l-.1,0L76.24,66l-.09,0Zm-23,28.17,0,.07a8.42,8.42,0,0,1,.67.89,2.58,2.58,0,0,1,.39,1c.07.75.24.92,1.14.79l-.5-.92c-.23-.44-.68-.9-.65-1.32a8,8,0,0,1,.67-2.35,19.64,19.64,0,0,1,1.08-1.89c.08-.15.18-.42.11-.49-.24-.26-.08-.46,0-.69s.23-.7.31-.94l.55-.25.09.37L56.7,87l.21.25.3-.48.12.48.33-.62.18.48.38-.65.11.25.33-.42.08.36.54-.85.06.6.43-.68.06.58.43-.89.21.24.46-.7.11.2a4.56,4.56,0,0,1,.58-.47c.17-.1.42-.09.58-.2.62-.41,1.23-.83,1.81-1.29.39-.3.72-.67,1.1-1l.6-.12.28.5.14-.63.18.77.09,0,.23-.72.28.61.17-.65.27.45.35-.74.14.57.3-.6.21.39.26-1.12c-1.19.15-2.31.27-3.42.45a1.37,1.37,0,0,0-.75.41,9.87,9.87,0,0,1-5.07,3.06,4.64,4.64,0,0,1-.56.08l-.09-.17.82-.66.1.37.52-1,0,.74.61-1.05.08,0v.57H61l.32-1,.07,0,0,.65.1,0,.29-1h.06l.07.68.43-1.38h.06v.74h.08l.27-1.26h.09l0,.79.14,0,.32-1.39.09,1h.15l.15-1.27h.06l.19.82h.2c.1-1.85.21-3.7.29-5.54,0-.09-.25-.28-.36-.26-.67.08-1.34.2-2,.3l0-.08,2.36-.58a5.42,5.42,0,0,0-4.87,2,3.64,3.64,0,0,1,1.36-1.63,5,5,0,0,1,3-.71,4,4,0,0,0,.7-.11l0-.19a6.54,6.54,0,0,0-3.6.56,5.77,5.77,0,0,0-2.28,2.89,3.9,3.9,0,0,1,2.61-3.37A14.63,14.63,0,0,1,64,74.14l.7-.06q-.13-.24-.26-.24a14,14,0,0,0-2.56.05c-2.79.54-4.07,2.76-4.33,5.57-.15,1.58-.16,3.17-.22,4.75a2.05,2.05,0,0,1-.88,1.63,11.53,11.53,0,0,1-1.14.75,1.29,1.29,0,0,0-.62,1.07,8,8,0,0,1-.47,2.1C53.76,91,53.12,92.08,52.5,93.31Zm29.2-6.13a6.65,6.65,0,0,0-.52-1.55c-.7-1.07-1.5-2.07-2.25-3.11a.42.42,0,0,0-.65-.11,19.31,19.31,0,0,1-8.66,2.45,1.83,1.83,0,0,0-1.72.82A9,9,0,0,1,66,87.56c-1.21,1-1.49,1.11-.19,2.65,0,0,0,0,0,0a1.43,1.43,0,0,0,.47.11c.63-.07,1.25-.21,1.87-.24s.64-.17.4-.61A3,3,0,0,0,67.1,88c-.16-.06-.32-.15-.48-.23l0-.16a8.75,8.75,0,0,1,1.19.19,13.69,13.69,0,0,0,4.08.59.61.61,0,0,0,.48-.24c.06-.13-.06-.36-.13-.53s-.13-.14-.2-.22a1.74,1.74,0,0,0-.36-2.19,2.39,2.39,0,0,1,.32.05A9.29,9.29,0,0,1,75.35,87a.58.58,0,0,0,.83.09,3.51,3.51,0,0,1,2.72-.43A1.43,1.43,0,0,1,80,88.76a8,8,0,0,0-.29,1.51c0,.23.06.53-.06.69a3.24,3.24,0,0,0-.24,1.92,1.32,1.32,0,0,0,1,1.08,3.92,3.92,0,0,0,3.1-1.81.74.74,0,0,0,0-.5c-.09-.24-.24-.46-.34-.7a10.31,10.31,0,0,0-.54-1.35c-.42-.71-.92-1.37-1.38-2.06a.67.67,0,0,1-.11-.17c0-.09-.07-.23,0-.27a.47.47,0,0,1,.31-.08A1.05,1.05,0,0,1,81.7,87.18Zm2.31-8,0-.07,1.11.29-.37-.53,1,.26,0-.38,1,.25-.15-.29a5.52,5.52,0,0,0,1-.27c.51-.24.6-.27,1,.06l.72.65a1,1,0,0,0-.08-1.26,1.16,1.16,0,0,0-1.12-.53c-1.61.17-3.22.28-4.83.38a.93.93,0,0,1-.68-.24c-.39-.46-.71-1-1.05-1.48l.11-.09.48.1-.23-.6.48.1-.11-.6.53.06-.35-.73.47-.06c0-.47-.38-.51-.67-.57C81.12,73.41,80,73.2,78.8,73c-.78-.13-1.57-.2-2.36-.3a.79.79,0,0,0-.24.06l.12.48-.88-.52.37.64-.89-.59-.05.08.32.5-.07,0-.75-.62-.06.06.64.94-.4.05.22.59-.49-.09.21.46-.35,0,3.57,4.45.07-.56L79,79.74,78.65,79l.1-.07,1.13,1-.34-1L80.78,80l.08-.1-.51-.76.08-.07,1.2.81.07-.09-.51-.68,1.35.84.07-.1-.49-.65.06-.07,1.3.76.06-.08L83,79.12l1.47.63,0-.09ZM53.85,89.58H54c.16-.77.35-1.53.47-2.31a1,1,0,0,1,.48-.7c.55-.39,1.06-.83,1.57-1.28A1.55,1.55,0,0,0,57.08,84c0-.84-.06-1.69-.05-2.53,0-1.06,0-2.13.08-3.18a7.83,7.83,0,0,1,1.07-3.13c.3-.54.23-.69-.39-.72a3.19,3.19,0,0,0-2.69,1,8,8,0,0,0-1.91,3.9.82.82,0,0,0,.28.84,3.64,3.64,0,0,1,1.19,2.38,7.93,7.93,0,0,1-.58,3.61,14.12,14.12,0,0,0-.62,2A1.38,1.38,0,0,0,53.85,89.58Zm1.46-16.32a7.87,7.87,0,0,0-2.87,4.81c-.22,1,.09,2.17-.62,3.12a2.29,2.29,0,0,0,.91-1.54,9.26,9.26,0,0,1,1.81-4.55,9.41,9.41,0,0,1,1.55-1.34,2.07,2.07,0,0,1,.61-.18l-1.37.94.07.13.46-.25A3.2,3.2,0,0,1,58.05,74a1.64,1.64,0,0,0,.5.06,2.28,2.28,0,0,0,.5-.21c-.07-.15-.1-.36-.22-.43a21,21,0,0,0-2-1.23,2.92,2.92,0,0,0-1.16-.27,4.29,4.29,0,0,0-3.37,1.57,5.51,5.51,0,0,0-1.4,2.44l.76-1,.12.07a6.7,6.7,0,0,0-1.07,3.21,5.64,5.64,0,0,1-1.62,3.85,2,2,0,0,0-.28,2,6,6,0,0,1,1-1.31,5.17,5.17,0,0,0,2-4.09,6.93,6.93,0,0,1,2.73-5.1A3.75,3.75,0,0,1,55.31,73.26Zm8.55,16.82a3,3,0,0,0-.37-.56,9,9,0,0,0-.91-.72c-.44-.3-.45-.48-.11-.89s.78-1,1.14-1.47a1.15,1.15,0,0,0,.18-.57c0-.27-.16-.37-.4-.27-.75.32-1.49.69-2.26,1-1.3.5-2.62.94-3.92,1.42-.23.08-.53.15-.66.32-.45.6-.84,1.24-1.26,1.88a2.78,2.78,0,0,0,1.6.45.61.61,0,0,1,.37.13,1.12,1.12,0,0,0,1,.25c.21,0,.43.05.65.06a1.76,1.76,0,0,0,.63,0c1-.37,2.06-.5,3-.95A3.69,3.69,0,0,1,63.86,90.09ZM61.06,68.18l.76-.57.09.08-.15.59,1-.82-.09.66.09.07.84-1,.12.57.92-1.46-.09-.14a8.32,8.32,0,0,1-5.15.4,5.17,5.17,0,0,1,1.09-.64c.59-.27,1.32-.24,1.78-.83,0-.06.24,0,.38,0l.24-.52.16.35.38-.55c.39.45.48,0,.66-.16l-.29-.49-.63.08,0-.31H61.88l.19-.39-1.31.15,0-.13-1.35.14v-.12l-.58.3L59,63c-.47-.14-.82.42-1.35.08-.19-.12-.68.19-1,.35a2.38,2.38,0,0,0-.72.52c-.24.27-.06,1,.25,1.11l.19-.36.19.24.15-.27.23.26.15-.26.31.43,0-.5.24.32.18-.22.21.41.17-.47.22.35.24-.4.05.68.33-.67.09.53.25-.4.11.57.39-.59.18.15.19-.28.15.39.86-.26a2.59,2.59,0,0,1-.77.65,9.21,9.21,0,0,1-3,.73,13.39,13.39,0,0,0-2.2.66c-.27.11-.45.44-.7.7l.53.16.9-.44.11.32,1.54-.09v.25l.93-.17v.11l.83.09-.05.13h1.11l-.05.33.52-.29ZM76.93,94.47l.12.11-1,1.73.15.09a5.39,5.39,0,0,0,1.68-2.14,1.6,1.6,0,0,0-.23-2,1.38,1.38,0,0,1-.38-1.48,1.47,1.47,0,0,0,0-.7c-.08-.44-.19-.88-.29-1.33A.86.86,0,0,0,76,88a8.25,8.25,0,0,0-1,.15,16,16,0,0,1-5.38.26,3.94,3.94,0,0,0-.56,0l0,.15c.41.17.88.56,1.21.47.53-.16,1,.24,1.49,0,.26-.1.64.16,1,.18s.72-.14,1,.18l0,0-.07-.32.68.39-.1-.62.53.4,0-.52.43.53.09-.33h.15l.1,1.81.35-1a2,2,0,0,1-1,2.15,4,4,0,0,1-.81.29,5.14,5.14,0,0,0-1.31.85c1.22,0,2.11-.79,3.16-1.08l.12.14-.63.76-.07-.14-1.81,1a3.11,3.11,0,0,0,1.27-.16c.63-.28,1.22-.66,1.87-1l.28,1-.06,0-.19-.26-.32.93-.2-.31L76,94.95l-.22-.33,0,.16-.63.32L75.14,95l-.4.91A4.24,4.24,0,0,0,76.93,94.47ZM69.71,62.29a2,2,0,0,0,.14.26c.07.1.19.27.24.26s.32-.16.32-.25a7.69,7.69,0,0,0,0-1.8c-.05-.28-.46-.48-.76-.77l-.42.79L68.79,60l-.39.71a.51.51,0,0,1-.18-.28c-.05-.14-.12-.28-.17-.42-.12.09-.23.19-.36.27a1.55,1.55,0,0,1-.25.11c0-.12-.13-.26-.1-.36s.13-.48-.17-.51a.61.61,0,0,0-.48.31,10.16,10.16,0,0,0-.58,1.66c-.15.64.15.88.77.67l.13.67c.71.17.29-.73.73-.76l.49.91.43-.59C69.1,62.87,69.1,62.87,69.71,62.29Zm-5,18.64.94-.11,3.34-.5c.38-.06.6-.26.53-.77l-4.1.34a1,1,0,0,1-.07-.19c0-.13,0-.27,0-.4a14.18,14.18,0,0,1,.52-4.9c0-.12-.05-.27-.08-.41-.14.06-.32.1-.4.2a1.36,1.36,0,0,0-.22.51A16.18,16.18,0,0,0,64.69,80.93Zm5.82-1.46,0-.08.93-.81-.53.07.76-.93-.07-.06-.35.19,0-.06.7-1-.07-.05-.63.6-.07-.07.73-1-.64.4-.08-.09,1.27-1.39-.09-.08-.67.5-.05-.07.78-.9a1,1,0,0,0-.47.17c-1.46.88-1.42.89-1.57,2.55-.11,1.16-.1,2.38-1.12,3.26.32.34.78.62.88,1,.24.95.78,1,1.51.69h.1c.33,0,.37-.25.18-.44a9,9,0,0,0-.9-.71l-.74-.56.49-.54L70.47,80l.38-.55ZM64.6,68.32l-.08-.16c-.24.09-.49.16-.72.26a4.85,4.85,0,0,1-3.54.26,15.51,15.51,0,0,0-5-.56,1.74,1.74,0,0,0-1.42.82,1,1,0,0,0-.08.36l.13.06.31-.4.12.17.93-.3.1.2a5.12,5.12,0,0,1,1-.41c.27,0,.64.21.83.1.43-.25.82,0,1.21,0a5.58,5.58,0,0,1,1.74.54c.23.08.47.13.71.19l0,.29.49-.22V70l.85-.67-.06.5.68-.59.16.45.42-.58.11.09.06.45Zm7-14.27,0-.16c-.17-.11-.34-.32-.52-.33a12.08,12.08,0,0,0-1.88,0,.64.64,0,0,0-.35.52,13.91,13.91,0,0,0,.47,2,1.09,1.09,0,0,0,.53.59c.24.11.66.18.81,0a2.59,2.59,0,0,0,.93-2.05h-.92l0-.42Zm.07,10.39a1.77,1.77,0,0,1,1-1.44A10.94,10.94,0,0,0,76,59.39a4.38,4.38,0,0,0,.33-.74l-.17-.13a5.77,5.77,0,0,0-1,.9,10.34,10.34,0,0,1-3.26,3.26A1.2,1.2,0,0,0,71.63,64.44Zm.45,3,.08.1a1.72,1.72,0,0,0-1,2c.6-1.17,2.1-1.48,2.68-2.81l-.68.3c.37-.32.82-.56,1-1.18l-.6.39.16-1c-.51.44-1,.85-1.48,1.24a2.93,2.93,0,0,0-1,1.5ZM65.6,92l.06,0,.34-.31-.39,2.07.16,0c.11-.39.2-.8.35-1.18a9.8,9.8,0,0,1,.53-1l.13.07-.28.53.08,0,1.09-.94,0,.06-.85,1.67A8.66,8.66,0,0,0,68,91.69a10.13,10.13,0,0,0,.52-1c-.38-.05-.76-.12-1.15-.16a17.85,17.85,0,0,1-1.84-.13c-.61-.12-.65-.15-.84.5h1.37Zm8.63-20.12v.29c.59.07,1.18.12,1.76.21l6.82,1.08a7,7,0,0,0,.79.15c.09,0,.24-.15.28-.27a.35.35,0,0,0-.15-.31,2.33,2.33,0,0,0-.63-.16c-2.47-.33-4.94-.67-7.41-1A11.85,11.85,0,0,0,74.23,71.91ZM86.5,90.34c-.13-.37-.26-.72-.37-1.07a4.4,4.4,0,0,0-.2-.67.43.43,0,0,0-.37-.2,2.17,2.17,0,0,0-.53.34c-.36-.18-.42-.43-.13-.71a.58.58,0,0,0,0-1c-.15-.15-.32-.42-.58-.17s-.07.41.13.57c0,0,.06.11,0,.08l-.54.92-.47.07.46.86c.27.15.53.21.64.37a4.65,4.65,0,0,1,.37.91l.25-.48.31.66.05-.85.59.9-.1-.76ZM71.93,79.93c1-.27,2-.54,2.95-.83a.47.47,0,0,0,.21-.41,10.73,10.73,0,0,0-.46-1.6,5.91,5.91,0,0,0-.62-1,1.36,1.36,0,0,0-.1.27c0,.24,0,.47,0,.71.07,1.3.07,1.3-1.17,1.61l-.19.06C72,78.95,71.8,79.22,71.93,79.93Zm-.48-9.26a11.42,11.42,0,0,1,1.11-1.35A16.71,16.71,0,0,1,74,68.37a2.47,2.47,0,0,0,.71-2.95,3.07,3.07,0,0,0-.42.77,3.54,3.54,0,0,1-1.71,2.26,5.66,5.66,0,0,0-1.15,1.17A.79.79,0,0,0,71.44,70.67ZM68.94,58.52a5.58,5.58,0,0,1-2.85-.76,22.52,22.52,0,0,0-2.17-.8c-.77-.22-1.83-.18-2.22.36l1.2.45-.27-.44,1.14.63-.21-.58.78.56-.08-.51,1,.89,0-.26c.2.11.51.33.54.29.26-.3.37,0,.53.1s.29.17.44.26l0-.25A1.48,1.48,0,0,0,68.94,58.52Zm1.29,13.55c-.15,0-.32.11-.36.07-.48-.54-.85-.09-1.19.15-.54.39-.51.67.09,1a4.33,4.33,0,0,0,2.59.44,2.68,2.68,0,0,0,.57-.24l-1.74-1.32Zm.68,18.39-.06.4-1.27-.17c.06.14.06.16.07.17l.17.09a6.93,6.93,0,0,0,4.58.3c.71-.18.79-.32.72-1.16l-.31.73-.2-.43-.24.54-.13-.14-.18-.6-.31.72-.11-.46-.31.27-.09-.26-.26.3-.29-.62-.15.46-1,.15-.15-.22-.16.33Zm4.35-9.87c.07-.29.13-.53.19-.77s0-.54-.39-.43c-.95.28-1.89.59-2.83.89a.46.46,0,0,0-.32.66l.44-.25.07.45.42-.39.1.48.41-.54.08.79.35-.83.05.66.11,0,.25-.73.25.69.21-.75.23.42.2-.75.1.22ZM73.72,58.88a2.63,2.63,0,0,1,2-1.65,8.17,8.17,0,0,1,1-.06c.69,0,1-.56,1.61-1C75.59,55.87,73.79,56.92,73.72,58.88ZM64,71c1,.76,3.4.15,4.44-1.07l-.67.09a2.63,2.63,0,0,0-.9.52c-.33.31-.67-.16-1,.08l.06-.36-.41.35.11-.47-.45.32.35-.91ZM58.77,53.69l-1-.53.46-.08,0-.17a2.16,2.16,0,0,0-.79-.16c-.17,0-.31.31-.42.51s.05.21.1.37c-.47.56-.46.62.11,1.22a.7.7,0,0,0,.14.14l.55.27.13-.49.59-.51L58.35,54ZM74,64.19,74,65.66c.77-1,.52-2.16,1-3.13-1.2.64-2.38,1.8-2.1,2.91Zm1-2.78L73,63c-.25.2-.51.39-.73.62a1.48,1.48,0,0,0-.09,2,8.12,8.12,0,0,1,.7-1.56,7.07,7.07,0,0,1,1.3-1.24A1.87,1.87,0,0,0,75,61.41Zm-2.62.38c1.56-1.12,2.47-2.89,4.2-3.82a1.89,1.89,0,0,0-1.57.61c-.66.6-1.33,1.18-2,1.79A2,2,0,0,0,72.39,61.79Zm-12.93-1,.27.64c.22-1,0-1.72-.59-1.89s-1.5.41-1.79,1.2c1.67-.12,1.67-.12,2,.52Zm24.28-4a1.78,1.78,0,0,0-2.88-.64,1.73,1.73,0,0,1,1.64,1l.33-.43.3.85h.14l0-.92.19,0Zm-12,4.54c.27.16.38.12.35-.31s.15-1-.64-.82c0,0,0,0-.07-.06-.38-.24-.61-.16-.7.28a1.54,1.54,0,0,0,0,.7,3.86,3.86,0,0,0,.39.73ZM67.95,71.83s-.07-.05-.08-.11c-.05-.33-.12-.58-.45-.17,0,0-.12,0-.19,0-.4,0-.31.28-.23.5a4.65,4.65,0,0,0,.36.64,2.77,2.77,0,0,0,.38-.2c.39-.28.76-.59,1.16-.86.24-.16.54-.24.78-.4.06,0,0-.24,0-.36a1.07,1.07,0,0,0-.36,0c-.09,0-.12.19-.21.24C68.77,71.39,68.39,71.59,67.95,71.83ZM83.54,87.91a.4.4,0,0,0,.17-.06,1.26,1.26,0,0,0,0-1.29,2.93,2.93,0,0,1-.52-.9c-.05-.23,0-.48-.31-.38a.61.61,0,0,0-.3.52A5,5,0,0,0,83,86.87C83.15,87.21,83.34,87.54,83.54,87.91ZM79,89.68a3,3,0,0,0,.26-.59c.05-.25,0-.52.06-.77.13-.57,0-.81-.46-1v1.51l-.68-.56c.12.39.31.67.26.9-.09.47,0,.72.39.91l-.07-.57ZM70.14,50.21a3.74,3.74,0,0,0-1.48.12,4.86,4.86,0,0,0-1.08,1.22l.1.13a4.79,4.79,0,0,0,.76-.32C69,51,69.5,50.65,70.14,50.21ZM84.22,69.48l.18,3.47C85,72.65,84.87,70,84.22,69.48Zm-12.33-12,.88-.05,2-1.3a1.63,1.63,0,0,0-1.43.24C72.86,56.72,72.36,57.11,71.89,57.47Zm-13.3-1c0-.9.46-1.22,1.27-1.17-.16-.43-.42-.59-.76-.55a.94.94,0,0,0-.91.67A.82.82,0,0,0,58.58,56.43ZM84.83,74.29l-.16,0s-.06.09-.06.13c.11.9.23,1.79.36,2.69,0,.08.15.14.23.21.06-.1.19-.21.18-.3-.08-.68-.16-1.36-.28-2A4.4,4.4,0,0,0,84.83,74.29Zm-21.25,17,.15.06a1.8,1.8,0,0,0,.21-.71c0-.13-.35-.25-.55-.3a1.58,1.58,0,0,0-.7,0c-.43.11-.94.15-1,.73.53,0,1-.61,1.5,0l.64-.38ZM73,83.39A1.42,1.42,0,0,0,71,82.67,2.31,2.31,0,0,0,73,83.39Zm3.9-25.86c-1.2-.49-2.73.34-2.76,1.44A4.82,4.82,0,0,1,76.91,57.54Zm-7.5-4.36c1.21.14,1.41,0,1.23-.79-.09-.38-.39-.52-.65-.23A5.38,5.38,0,0,0,69.41,53.18ZM72.6,70.9a3.87,3.87,0,0,1,.29-.65c.12-.17.35-.28.46-.46a7.3,7.3,0,0,0,.38-1A1.43,1.43,0,0,0,72.6,70.9ZM92.38,85.44l-.76-.59c-.64.71-.57,1.12.22,1.51ZM61,91.1c-.8-.3-1.8.32-1.72,1l.44-.32.38.46.07-.42C60.76,91.94,60.68,91.35,61,91.1Zm18.24,6c.62-.57.47-1.38-.41-2.23l-.28.6.43.15-.21.39C79.49,96.17,79,96.76,79.23,97.13ZM65.72,61.33a1.93,1.93,0,0,0,.46-2A1.75,1.75,0,0,0,65.72,61.33Zm.85,35.53c-.53.66-.53.86,0,1.24a1.41,1.41,0,0,0,.45.13c0-.17.15-.37.09-.5A6.57,6.57,0,0,0,66.57,96.87Zm3.2-14.5c.23-.8.16-1-.58-1.35C68.76,81.74,68.83,81.9,69.76,82.37ZM80.39,98.66c-.06-.66-.34-1.13-.6-1s-.54.48-.49.64C79.46,98.78,80,98.59,80.39,98.66ZM68.3,54.77a2.55,2.55,0,0,0,1.38,2.3ZM54.45,96.92c-.11-.15-.24-.34-.4-.51a1.35,1.35,0,0,0-.32-.2,1.19,1.19,0,0,0-.19.37c-.07.57.19.85.7.88ZM73.06,83.67a3.6,3.6,0,0,1-2.45-1A1.86,1.86,0,0,0,73.06,83.67ZM70.83,52.11c0,.33,0,.66.11,1a.37.37,0,0,0,.27.23.42.42,0,0,0,.31-.19A.75.75,0,0,0,70.83,52.11ZM58.58,92.76a1,1,0,0,0-.75,1.18l.55.06-.07-.43.28.08Zm23.67-8.69A1,1,0,0,0,82,85.62a2.61,2.61,0,0,0,.39-.73A2.34,2.34,0,0,0,82.25,84.08ZM83.9,73.58c.28.24.5.49.55.46a1.09,1.09,0,0,0,.45-.5c0-.1-.24-.43-.29-.41A3.61,3.61,0,0,0,83.9,73.58Zm-2,12.4-.17,0a4.47,4.47,0,0,0,.11.47,4.07,4.07,0,0,0,.3.75.65.65,0,0,0,.73.4Zm-3.52-30.9-.06.13.53.58,0-.1,1.16.09,0-.07Zm-8.48-3.21c.77.11.79.08.51-.88A.73.73,0,0,0,69.85,51.88Zm-3,48.63.14-.17-.63-.79-.52.3Zm13.31-1.07a.62.62,0,0,0-.85-.22c-.1,0-.15.21-.22.32a1.29,1.29,0,0,0,.39.07A5.82,5.82,0,0,0,80.17,99.44Zm-19.84-5.2-.47.72c.13,0,.28.16.39.12C60.61,95,60.55,94.7,60.33,94.24ZM81.51,99.1l1,.09C82.46,98.64,82.26,98.59,81.51,99.1Zm-9.05-39,.19-.11a.59.59,0,0,0-.49-.76l-.15.09Zm13.21,4,.2-.24-.73-.59-.16.19ZM66,56.28l-.09.13,1.09.43C66.85,56.44,66.57,56.3,66,56.28Zm-8.24,39,.11.89C58.3,95.66,58.28,95.49,57.74,95.26ZM68.22,54.52c.56-.42.61-.68.24-1Z" style="fill: #d2d2d2"/>
      <path d="M85.67,64.15,85,63.52l.16-.19.73.59Z" style="fill: #d2d2d2"/>
      <path d="M67.14,75.57c0,.57,0,1.13.05,1.7s.05,1.1.05,1.65a9.8,9.8,0,0,1-.1-3.34Z" style="fill: #d2d2d2"/>
      <path d="M69.26,54.46l.2-.66,1,.37-.13.43Z" style="fill: #d2d2d2"/>
      <path d="M70.75,56a1.2,1.2,0,0,1-.07.18l-.78,0c0-.08,0-.22,0-.22Z" style="fill: #d2d2d2"/>
      <path d="M84.54,89.19c.42.06.76.19,1.05-.23l-.37.83Z" style="fill: #d2d2d2"/>
    </g>
    <path d="M71.34,115.35a.61.61,0,0,1-.31-.08l-4.47-2.63a10.13,10.13,0,0,0-5.14-1.4H49.76A10.75,10.75,0,0,1,39,100.48V44.95a4.26,4.26,0,0,1,4.25-4.25H99.42a4.26,4.26,0,0,1,4.25,4.25v55.54a10.75,10.75,0,0,1-10.74,10.74H81.26a10.13,10.13,0,0,0-5.14,1.4l-4.47,2.63A.61.61,0,0,1,71.34,115.35ZM43.27,41.91a3,3,0,0,0-3,3v55.54A9.54,9.54,0,0,0,49.76,110H61.43a11.35,11.35,0,0,1,5.76,1.57L71.34,114l4.16-2.45A11.35,11.35,0,0,1,81.26,110H92.93a9.54,9.54,0,0,0,9.53-9.53V44.95a3,3,0,0,0-3-3Z" style="fill: #d2d2d2"/>
  </g>
  <g>
    <g style="mask: url(#a)">
      <g>
        <rect x="440.16" y="47.23" width="41.34" height="17.54" style="fill: #d2d2d2"/>
        <path d="M467.7,78.33l13-22.5-13,7.51Z" style="fill: #d2d2d2"/>
      </g>
    </g>
    <g style="mask: url(#b)">
      <g>
        <rect x="427.63" y="69.78" width="41.34" height="17.54" style="fill: #d2d2d2"/>
        <path d="M454.7,100.83l13-22.5-13,7.5Z" style="fill: #d2d2d2"/>
      </g>
    </g>
    <g style="mask: url(#c)">
      <g>
        <rect x="401.32" y="39.71" width="41.34" height="17.54" style="fill: #d2d2d2"/>
        <path d="M428.64,70.89l13-22.49-13,7.5Z" style="fill: #d2d2d2"/>
      </g>
    </g>
    <path d="M481,92.12h5.09L484.87,88l-1.19-4.67h-.19L482.25,88Zm6.26,4.09h-7.42l-1.27,4.09c-.12.42-.28.61-.91.61h-3.79c-.45,0-.54-.33-.45-.64l6.77-20.47c.45-1.5,1-1.76,2.36-1.79h1.95c1.46,0,2,.19,2.52,1.79l6.77,20.47a.45.45,0,0,1-.42.64h-3.86c-.49,0-.8,0-.93-.52Z" style="fill: #d2d2d2"/>
    <path d="M509.63,95.93c.61-.26.8-.1,1,.4l1.1,2.35c.3.61.2.85-.19,1.08a14.11,14.11,0,0,1-7.49,1.83c-7.05,0-10.21-4.41-10.21-11.65S498.06,78,504.28,78a12.78,12.78,0,0,1,6.35,1.36c.49.27.55.44.26,1.15l-1,2.25c-.23.59-.35.72-1,.49a12.1,12.1,0,0,0-4.4-.85c-3.58,0-5.48,3.19-5.48,7.45S500.38,97,504.63,97a13.46,13.46,0,0,0,5-1.13" style="fill: #d2d2d2"/>
    <path d="M528,85.64l-2.88,4.9-5.42,8.94a2.18,2.18,0,0,1-2.44,1.36H516c-1.69,0-2.11-.87-2.11-2.25V78.65c0-.46.2-.63.68-.63H518c.6,0,.69.14.69.63V93.38h.19l2.71-4.57,5.61-9.26c.74-1.24,1.11-1.47,2.4-1.47h1.35c1.58,0,2.1.59,2.1,2.29v20c0,.45-.19.61-.68.61h-3.47c-.58,0-.72-.12-.72-.61V85.64Z" style="fill: #d2d2d2"/>
  </g>
  <g>
    <path d="M257.6,70.14V59.06h2.16l3.13,7.11h.67l3.13-7.11h2.16V70.14H267.5V60.48h0l-3,7H262l-3-7h0v9.66Z" style="fill: #d2d2d2"/>
    <path d="M272.37,69.08a3.79,3.79,0,0,1-1-1.27,3.35,3.35,0,0,1-.31-1.5,3.46,3.46,0,0,1,.33-1.5,3.92,3.92,0,0,1,1-1.27,4.58,4.58,0,0,1,1.45-.85,5.12,5.12,0,0,1,3.44,0,4.6,4.6,0,0,1,1.46.84,3.92,3.92,0,0,1,1,1.27,3.48,3.48,0,0,1,.35,1.5,3.62,3.62,0,0,1-.8,2.14,4.49,4.49,0,0,1-2,1.42,5.19,5.19,0,0,1-2.57.24,4.83,4.83,0,0,1-2.31-1Zm1-4.79a2.72,2.72,0,0,0-.67.91,2.43,2.43,0,0,0-.21,1.07,2.46,2.46,0,0,0,.21,1.07,2.75,2.75,0,0,0,.67.91,3.58,3.58,0,0,0,4.45,0,2.72,2.72,0,0,0,.67-.91,2.84,2.84,0,0,0,0-2.14,2.71,2.71,0,0,0-.67-.91,3.54,3.54,0,0,0-4.45,0Z" style="fill: #d2d2d2"/>
    <path d="M282.35,69a3.81,3.81,0,0,1-.87-1.29,4.29,4.29,0,0,1,0-3,3.79,3.79,0,0,1,.87-1.27,4.09,4.09,0,0,1,1.38-.85,4.29,4.29,0,0,1,3.23.11,4,4,0,0,1,1.31.94A3.75,3.75,0,0,1,289,65h-1.26a2.44,2.44,0,0,0-.52-.75,2.7,2.7,0,0,0-.93-.58,2.83,2.83,0,0,0-1.09-.17,2.66,2.66,0,0,0-1.06.2,2.52,2.52,0,0,0-.87.59,2.7,2.7,0,0,0-.8,2,2.67,2.67,0,0,0,.8,2,2.55,2.55,0,0,0,.86.59,2.69,2.69,0,0,0,1,.2,2.81,2.81,0,0,0,1.15-.19,2.65,2.65,0,0,0,1-.63,2.43,2.43,0,0,0,.54-.82h1.26a3.65,3.65,0,0,1-1.43,2,4.07,4.07,0,0,1-2.47.74,4,4,0,0,1-1.54-.26A3.79,3.79,0,0,1,282.35,69Z" style="fill: #d2d2d2"/>
    <path d="M290.2,70.13V62.38h1.38v3.1h1.75l2.79-3.1h1.68L294.57,66l3.49,4.09h-1.75l-3-3.47H291.6v3.49Z" style="fill: #d2d2d2"/>
    <path d="M299.19,69.07a3.71,3.71,0,0,1-.85-1.25,3.65,3.65,0,0,1-.27-1.48,3.77,3.77,0,0,1,.26-1.51,3.82,3.82,0,0,1,.84-1.29,3.94,3.94,0,0,1,1.29-.86,4,4,0,0,1,3.07,0,3.93,3.93,0,0,1,1.29.86,3.84,3.84,0,0,1,.84,1.29,3.75,3.75,0,0,1,.26,1.51,3.83,3.83,0,0,1-.7,2.11,4,4,0,0,1-1.76,1.39,4.09,4.09,0,0,1-2.26.23A4,4,0,0,1,299.19,69.07Zm.86-4.7a2.69,2.69,0,0,0-.59.9,3.09,3.09,0,0,0,0,2.1,2.68,2.68,0,0,0,.59.9,2.88,2.88,0,0,0,3.9,0,2.72,2.72,0,0,0,.58-.9,2.79,2.79,0,0,0-.58-3,2.85,2.85,0,0,0-3.9,0Z" style="fill: #d2d2d2"/>
    <path d="M308.18,70.14V62.38h4a2.73,2.73,0,0,1,1.79.54,1.79,1.79,0,0,1,.49.63,1.71,1.71,0,0,1,.16.77,2.16,2.16,0,0,1-.11.7,1.51,1.51,0,0,1-.28.5,1.64,1.64,0,0,1-.35.29,1.37,1.37,0,0,1-.31.16l-.17,0,.19,0a1.71,1.71,0,0,1,.38.17,2.8,2.8,0,0,1,.45.32,1.54,1.54,0,0,1,.36.54,2.29,2.29,0,0,1,0,1.69,2.07,2.07,0,0,1-.56.74,3,3,0,0,1-2,.62Zm1.29-4.57h2.6c.81,0,1.22-.34,1.22-1s-.41-1-1.22-1h-2.6Zm0,3.41h2.68a1.68,1.68,0,0,0,1.09-.31,1.08,1.08,0,0,0,.29-.39,1,1,0,0,0,.08-.47,1,1,0,0,0-.08-.47,1.07,1.07,0,0,0-.29-.39,1.68,1.68,0,0,0-1.09-.31h-2.68Z" style="fill: #d2d2d2"/>
    <path d="M317.19,69a3.78,3.78,0,0,1-.87-1.27,4.18,4.18,0,0,1,0-3,3.79,3.79,0,0,1,.87-1.27,4.08,4.08,0,0,1,1.38-.85,4.28,4.28,0,0,1,3.23.11,4,4,0,0,1,1.31.94,3.68,3.68,0,0,1,.71,1.3h-1.26a2.37,2.37,0,0,0-.52-.74,2.68,2.68,0,0,0-.92-.58A2.81,2.81,0,0,0,320,63.5a2.65,2.65,0,0,0-1.06.2,2.51,2.51,0,0,0-.87.59,2.71,2.71,0,0,0-.77,2,2.67,2.67,0,0,0,.79,2,2.55,2.55,0,0,0,.86.58,2.69,2.69,0,0,0,1,.2,2.79,2.79,0,0,0,1.15-.19,2.65,2.65,0,0,0,.95-.63,2.3,2.3,0,0,0,.54-.82h1.26a3.63,3.63,0,0,1-.73,1.39,3.88,3.88,0,0,1-1.41,1,4.11,4.11,0,0,1-1.75.34,4,4,0,0,1-1.55-.28A3.78,3.78,0,0,1,317.19,69Z" style="fill: #d2d2d2"/>
    <path d="M325,70.13V62.38h1.39v3.1h1.75l2.8-3.1h1.66L329.4,66l3.5,4.09h-1.75l-3-3.47h-1.75v3.49Z" style="fill: #d2d2d2"/>
    <path d="M334,70.14V62.38h1.21v6h0l4.12-6h1.38v7.76h-1.21v-6h0l-4.12,6Z" style="fill: #d2d2d2"/>
    <path d="M343,70.14V62.22h1.21v6.1h0l4.12-6.1h1.38v7.92h-1.21V64h0l-4.12,6.1Zm1.1-11.08h1.14a.91.91,0,0,0,.07.38.88.88,0,0,0,.22.31,1.58,1.58,0,0,0,1.73,0,.89.89,0,0,0,.29-.69h1.15a1.85,1.85,0,0,1-.16.79,1.8,1.8,0,0,1-.47.64,2.85,2.85,0,0,1-3.37,0,1.82,1.82,0,0,1-.45-.64,1.87,1.87,0,0,1-.14-.78Z" style="fill: #d2d2d2"/>
    <path d="M257.6,83.44V75.68h1.21v6h0l4.12-6h1.38v7.76h-1.21v-6h0l-4.12,6Z" style="fill: #d2d2d2"/>
    <path d="M266.6,83.44V75.68h1.22v3.18h4.31V75.68h1.22v7.76h-1.22V80h-4.3v3.41Z" style="fill: #d2d2d2"/>
    <path d="M275.59,83.44V75.68h1.22v3.18h4.31V75.68h1.22v7.76h-1.22V80h-4.31v3.41Z" style="fill: #d2d2d2"/>
    <path d="M285.7,82.36a3.7,3.7,0,0,1-.85-1.25,3.64,3.64,0,0,1-.27-1.48,3.73,3.73,0,0,1,.26-1.51,3.82,3.82,0,0,1,.84-1.29A3.93,3.93,0,0,1,287,76,4,4,0,0,1,290,76a3.94,3.94,0,0,1,1.29.86,3.82,3.82,0,0,1,.84,1.29,3.77,3.77,0,0,1,.26,1.51,3.83,3.83,0,0,1-.7,2.11A4,4,0,0,1,290,83.14a4.09,4.09,0,0,1-2.26.23A4,4,0,0,1,285.7,82.36Zm.86-4.7a2.67,2.67,0,0,0-.59.9,3.1,3.1,0,0,0,0,2.1,2.68,2.68,0,0,0,.59.9,2.85,2.85,0,0,0,3.9,0,2.66,2.66,0,0,0,.59-.9,3.1,3.1,0,0,0,0-2.1,2.66,2.66,0,0,0-.59-.9,2.85,2.85,0,0,0-3.9,0Z" style="fill: #d2d2d2"/>
    <path d="M294.69,83.44V75.68h4a2.73,2.73,0,0,1,1.79.54,1.77,1.77,0,0,1,.49.63,1.69,1.69,0,0,1,.16.77,2.14,2.14,0,0,1-.11.7,1.41,1.41,0,0,1-.63.79,1.4,1.4,0,0,1-.31.16l-.17,0,.2,0a1.66,1.66,0,0,1,.38.17,2.67,2.67,0,0,1,.43.32,1.53,1.53,0,0,1,.37.54,2,2,0,0,1,.15.79,2,2,0,0,1-.17.9,2.1,2.1,0,0,1-.55.74,3,3,0,0,1-2,.62ZM296,78.86h2.6c.82,0,1.22-.34,1.22-1s-.39-1-1.21-1H296Zm0,3.41h2.68a1.67,1.67,0,0,0,1.09-.31,1.21,1.21,0,0,0,.28-.39,1.15,1.15,0,0,0,0-.92,1.21,1.21,0,0,0-.28-.39,1.67,1.67,0,0,0-1.09-.31H296Z" style="fill: #d2d2d2"/>
    <path d="M303.67,82.33a4,4,0,0,1,0-5.54,3.56,3.56,0,0,1,1.22-.83,3.73,3.73,0,0,1,1.47-.28A3.59,3.59,0,0,1,308,76a2.86,2.86,0,0,1,1,.79l.14.22V75.81h1.25V83.3h-1.25V82.09l-.14.21a2.73,2.73,0,0,1-1,.77,3.64,3.64,0,0,1-1.71.37,3.73,3.73,0,0,1-1.46-.28A3.56,3.56,0,0,1,303.67,82.33Zm.94-4.77a2.94,2.94,0,0,0,0,4,2.68,2.68,0,0,0,.88.58,2.8,2.8,0,0,0,2.09,0,2.66,2.66,0,0,0,.88-.58,2.94,2.94,0,0,0,0-4,2.66,2.66,0,0,0-.88-.58,2.8,2.8,0,0,0-2.09,0A2.68,2.68,0,0,0,304.61,77.56Z" style="fill: #d2d2d2"/>
    <path d="M312.68,83.79V75.68H314v6.89h4.19V75.68h1.28v6.89h1.13v3.08h-1.28V83.79Z" style="fill: #d2d2d2"/>
    <path d="M321.67,83.44V75.68h1.21v6h0l4.12-6h1.38v7.76H327.2v-6h0l-4.12,6Z" style="fill: #d2d2d2"/>
    <path d="M331.78,82.36a3.73,3.73,0,0,1-.85-1.25,3.66,3.66,0,0,1-.27-1.48,3.77,3.77,0,0,1,.26-1.51,3.82,3.82,0,0,1,.84-1.29,3.94,3.94,0,0,1,1.29-.86,4,4,0,0,1,3.07,0,3.94,3.94,0,0,1,1.29.86,3.82,3.82,0,0,1,.84,1.29,3.73,3.73,0,0,1,.26,1.51,3.83,3.83,0,0,1-.7,2.11,4,4,0,0,1-1.76,1.39,4.09,4.09,0,0,1-2.26.23A4,4,0,0,1,331.78,82.36Zm.86-4.7a2.66,2.66,0,0,0-.59.9,3.1,3.1,0,0,0,0,2.1,2.66,2.66,0,0,0,.59.9,2.85,2.85,0,0,0,3.9,0,2.66,2.66,0,0,0,.59-.9,3.11,3.11,0,0,0,0-2.1,2.67,2.67,0,0,0-.59-.9,2.85,2.85,0,0,0-3.9,0Z" style="fill: #d2d2d2"/>
    <path d="M340.77,83.44V75.68H342v3.18h4.31V75.68h1.22v7.76H346.3V80H342v3.41Z" style="fill: #d2d2d2"/>
    <path d="M349.76,83.44V75.68H351v3.18h4.31V75.68h1.22v7.76h-1.22V80H351v3.41Z" style="fill: #d2d2d2"/>
    <path d="M358.76,83.43V75.68h1.34v2.63h2a3.52,3.52,0,0,1,2.31.74,2.47,2.47,0,0,1,.66.82,2.26,2.26,0,0,1,0,2,2.46,2.46,0,0,1-.66.82,3.52,3.52,0,0,1-2.31.74Zm1.34-1.16h2a2.13,2.13,0,0,0,1.37-.39,1.36,1.36,0,0,0,.36-.46,1.25,1.25,0,0,0,0-1.1,1.36,1.36,0,0,0-.36-.46,2.16,2.16,0,0,0-1.37-.41h-2Zm6.32,1.16V75.68h1.34v7.75Z" style="fill: #d2d2d2"/>
    <path d="M370,83.44V75.52h1.21v6.1h0l4.12-6.1h1.38v7.91h-1.21v-6.1h0l-4.12,6.1Zm1.1-11.08h1.15a.89.89,0,0,0,.07.38.87.87,0,0,0,.22.31,1.53,1.53,0,0,0,1.72,0,.86.86,0,0,0,.22-.31.88.88,0,0,0,.07-.38h1.15a1.85,1.85,0,0,1-.15.79,1.81,1.81,0,0,1-.47.65,2.83,2.83,0,0,1-3.37,0,1.8,1.8,0,0,1-.47-.65A1.86,1.86,0,0,1,371.1,72.35Z" style="fill: #d2d2d2"/>
    <path d="M257.6,96.74V89h1.19v3.1h1.5l2.4-3.1h1.42l-2.78,3.65,3,4.1h-1.49l-2.55-3.49h-1.5v3.49Z" style="fill: #d2d2d2"/>
    <path d="M264.35,96.74,266.59,89H270l2.24,7.76h-1.38L269,90.14h-1.44l-1.84,6.59Z" style="fill: #d2d2d2"/>
    <path d="M274.44,95.62a4,4,0,0,1,0-5.53,3.55,3.55,0,0,1,1.22-.83,3.73,3.73,0,0,1,1.47-.28,3.65,3.65,0,0,1,1.67.36,3,3,0,0,1,1,.79l.14.23V89.11h1.26v7.48H280V95.4l-.14.21a2.74,2.74,0,0,1-1,.76,3.68,3.68,0,0,1-1.71.36,3.74,3.74,0,0,1-1.48-.28A3.56,3.56,0,0,1,274.44,95.62Zm.93-4.76a3,3,0,0,0,0,4,2.68,2.68,0,0,0,.88.57,2.82,2.82,0,0,0,2.09,0,2.69,2.69,0,0,0,.88-.57,3,3,0,0,0,0-4,2.68,2.68,0,0,0-.88-.57,2.81,2.81,0,0,0-2.09,0A2.66,2.66,0,0,0,275.36,90.86Z" style="fill: #d2d2d2"/>
    <path d="M284.6,95.63a3.92,3.92,0,0,1,0-5.54,4.09,4.09,0,0,1,1.38-.85,4.31,4.31,0,0,1,3.24.11,4,4,0,0,1,1.31.94,3.66,3.66,0,0,1,.72,1.3H290a2.43,2.43,0,0,0-.54-.76,2.71,2.71,0,0,0-.93-.57,2.85,2.85,0,0,0-1.1-.17,2.67,2.67,0,0,0-1.06.2,2.52,2.52,0,0,0-.87.59,2.69,2.69,0,0,0-.77,2,2.66,2.66,0,0,0,.8,2,2.55,2.55,0,0,0,.86.58,2.7,2.7,0,0,0,1,.2,2.81,2.81,0,0,0,1.15-.19,2.65,2.65,0,0,0,1-.63,2.31,2.31,0,0,0,.53-.8h1.26a3.62,3.62,0,0,1-.73,1.39,3.89,3.89,0,0,1-1.41,1,4.14,4.14,0,0,1-1.75.34,4,4,0,0,1-1.54-.27A3.79,3.79,0,0,1,284.6,95.63Z" style="fill: #d2d2d2"/>
    <path d="M291.32,90.14V89h6.74v1.16h-2.74v6.59h-1.24V90.14Z" style="fill: #d2d2d2"/>
    <path d="M300.31,95.63a4,4,0,0,1,0-5.54,3.79,3.79,0,0,1,1.28-.84,3.89,3.89,0,0,1,1.52-.27,4,4,0,0,1,1.52.27,3.86,3.86,0,0,1,1.29.83,3.72,3.72,0,0,1,.85,1.25,3.6,3.6,0,0,1,.27,1.47v.43h-6.63a2.66,2.66,0,0,0,2.7,2.38,3,3,0,0,0,2-.67,2.36,2.36,0,0,0,.59-.67h1.22a3.82,3.82,0,0,1-1.48,1.81,4,4,0,0,1-2.29.65,3.9,3.9,0,0,1-1.52-.27A3.79,3.79,0,0,1,300.31,95.63Zm.14-3.44h5.3a2.39,2.39,0,0,0-.84-1.48,2.64,2.64,0,0,0-1.78-.61,2.71,2.71,0,0,0-1.79.61A2.44,2.44,0,0,0,300.45,92.19Z" style="fill: #d2d2d2"/>
    <path d="M309.3,100.06V89.15h1.25V90.4l.16-.24a2.72,2.72,0,0,1,1-.8,3.45,3.45,0,0,1,1.71-.39,3.56,3.56,0,0,1,2.69,1.18,4.44,4.44,0,0,1,0,5.84,3.78,3.78,0,0,1-4.4.79,2.46,2.46,0,0,1-1-.81l-.16-.22v4.3Zm2-9.06a3.26,3.26,0,0,0,0,4.21,2.66,2.66,0,0,0,3.84,0,3.26,3.26,0,0,0,0-4.21,2.65,2.65,0,0,0-3.84,0Z" style="fill: #d2d2d2"/>
    <g>
      <path d="M246.86,53.53v48.21H228.21V92.16a48.25,48.25,0,0,0,4.48-4A49.38,49.38,0,0,0,246.86,53.53Z" style="fill: #d2d2d2"/>
      <path d="M217.17,53.53v23.4a29.25,29.25,0,0,1-9,5.07A49.46,49.46,0,0,0,217.17,53.53Z" style="fill: #d2d2d2"/>
      <path d="M246.86,53.53a49.38,49.38,0,0,1-14.17,34.62,48.26,48.26,0,0,1-34.18,14.37V92.17a48,48,0,0,1-29.7,10.36V83.64a29.55,29.55,0,0,0,21-8.84,30.34,30.34,0,0,0,8.7-21.27h18.65a49.46,49.46,0,0,1-9,28.47,29.25,29.25,0,0,0,9-5.07,27.7,27.7,0,0,0,2.35-2.13,30.34,30.34,0,0,0,8.7-21.27Z" style="fill: #d2d2d2;opacity: 0.6"/>
      <path d="M217.17,53.52v0H198.51v0Z" style="fill: #d2d2d2"/>
      <path d="M246.86,53.52v0H228.21v0Z" style="fill: #d2d2d2"/>
    </g>
  </g>
</svg>
