<svg xmlns="http://www.w3.org/2000/svg" width="411mm" height="307.35mm" viewBox="0 0 1165.04 871.23">
  <title>8</title>
  <g>
    <path d="M1012.49,101.75v3h25.78c1.71,0,4.3,0,6,1.71s1.72,4.3,1.72,6v25.78c0,1.72,0,4.3-1.72,6s-4.3,1.72-6,1.72h-12.43c-2.15,0-4.95,0-6-2.36s.43-4.51,1.73-6.23l16.75-22.31h-25.78l-10.34,13.74c-1.73,2.3-3.22,4.3-3.22,6.87s1.39,4.44,3.22,6.87l2.58,3.43c2.58,3.43,5.16,6.87,8.57,8.57s7.52,1.71,13.08,1.71h11.19c6.45,0,16.09,0,22.57-6.44s6.44-15.9,6.44-19.3V120.21c0-3.44,0-12.89-6.44-19.3s-16.09-6.43-22.57-6.44H1019.8c-1.71,0-3.87,0-5.59,1.72s-1.71,3.87-1.71,5.59" style="fill: #aaa"/>
    <polygon points="981.74 115.03 1007.25 115.03 976.51 156.25 950.34 156.25 981.74 115.03" style="fill: #aaa"/>
    <path d="M881,122.36c0-1.71,0-3.87,1.72-5.59s3.87-1.71,5.59-1.71h43.18c5.58,0,9.68,0,13.08,1.71s6,5.16,8.57,8.57l2.58,3.43c1.84,2.44,3.23,4.3,3.23,6.87s-1.5,4.57-3.23,6.87l-10.34,13.74H919.61l16.75-22.31c1.29-1.72,2.8-3.86,1.72-6.23s-3.86-2.36-6-2.36H911.85v51.55H891.25V125.36H880.91v-3" style="fill: #aaa"/>
  </g>
  <g>
    <path d="M234.85,407.4l9.57-7.15H212.36v42.86h32.06v-7.16h-22.9V425h19.57v-7.15H221.52V407.4Z" style="fill: #aaa"/>
    <path d="M188.14,416.94H177V407.4H194.8l9.58-7.15H167.87v42.86H187c10.69,0,16.87-4.91,16.87-13.47C203.82,421.43,198.27,416.94,188.14,416.94Zm-1.53,19H177V424.09h9.58c5.83,0,8.53,2,8.53,6S192.23,435.95,186.61,435.95Z" style="fill: #aaa"/>
    <path d="M270.38,400.25H253v42.86h9.16V431h8.33c11.1,0,18-5.89,18-15.36S281.55,400.25,270.38,400.25Zm-.21,23.57h-8.12V407.4h8.12c5.9,0,9.09,2.95,9.09,8.21S276.07,423.81,270.17,423.81Z" style="fill: #aaa"/>
    <path d="M152.18,433.84a16.35,16.35,0,0,1-7.91,2c-8.26,0-14.23-6-14.23-14.17s6-14.17,14.23-14.17a13.75,13.75,0,0,1,8.33,2.67l6.6-4.91-.42-.42c-3.82-3.44-9-5.19-14.79-5.19a23.43,23.43,0,0,0-16.24,6.1,21.25,21.25,0,0,0-6.39,15.65,22.25,22.25,0,0,0,6.39,15.92,22.82,22.82,0,0,0,16.17,6.32c6.59,0,12.35-2.32,16.24-6.52l-5.9-4.42Z" style="fill: #aaa"/>
    <path d="M92.71,400A38.05,38.05,0,0,1,96.94,407L64.88,431l-13.47-8.56V412.17l13.39,8.49Z" style="fill: #aaa"/>
    <path d="M37.74,421.71a9.24,9.24,0,0,1,.07-1.4l-8.12-.42c0,.56-.07,1.19-.07,1.75A35.73,35.73,0,0,0,40,446.82L45.72,441A27.1,27.1,0,0,1,37.74,421.71Z" style="fill: #aaa"/>
    <path d="M64.81,394.35a9.09,9.09,0,0,1,1.39.07l.42-8.21c-.56,0-1.18-.07-1.74-.07A35,35,0,0,0,40,396.6l5.76,5.82A26.67,26.67,0,0,1,64.81,394.35Z" style="fill: #aaa"/>
    <path d="M64.81,449.07a9.09,9.09,0,0,1-1.39-.07L63,457.21c.56,0,1.18.07,1.74.07a35,35,0,0,0,24.92-10.45L83.9,441A26.27,26.27,0,0,1,64.81,449.07Z" style="fill: #aaa"/>
    <path d="M80.08,399.12,86.95,394a35,35,0,0,0-22.14-7.93v8.21A27.07,27.07,0,0,1,80.08,399.12Z" style="fill: #aaa"/>
    <path d="M100.07,421.71a38.55,38.55,0,0,0-.56-6.38L91.94,421v.7A27.32,27.32,0,0,1,83,442l5.48,6.1A35.7,35.7,0,0,0,100.07,421.71Z" style="fill: #aaa"/>
    <path d="M64.81,449.07A26.75,26.75,0,0,1,44.75,440l-6,5.54a34.85,34.85,0,0,0,26.09,11.71Z" style="fill: #aaa"/>
    <path d="M46.7,401.43l-5.49-6.1a35.57,35.57,0,0,0-11.59,26.38h8.12A27.43,27.43,0,0,1,46.7,401.43Z" style="fill: #aaa"/>
  </g>
  <g>
    <g>
      <path d="M995.78,677.27H996l5.2,12.82h2.45l5.2-12.79h.18v12.84h3.27V671.46h-4.18L1002.51,685h-.23l-5.59-13.54h-4.18v18.69h3.27Z" style="fill: #aaa"/>
      <path d="M1018.07,689.52a6.81,6.81,0,0,0,3.58.9,6.91,6.91,0,0,0,3.6-.9,6.22,6.22,0,0,0,2.35-2.53,8.11,8.11,0,0,0,.83-3.8,8.32,8.32,0,0,0-.83-3.8,6,6,0,0,0-2.35-2.53,7.57,7.57,0,0,0-7.18,0,6.23,6.23,0,0,0-2.36,2.53,8.13,8.13,0,0,0-.83,3.8,8.35,8.35,0,0,0,.83,3.8A6.11,6.11,0,0,0,1018.07,689.52Zm.56-8.66a3.77,3.77,0,0,1,1.13-1.66,2.92,2.92,0,0,1,1.91-.62,2.83,2.83,0,0,1,1.87.62,3.77,3.77,0,0,1,1.13,1.66,6.93,6.93,0,0,1,.36,2.33,6.84,6.84,0,0,1-.36,2.32,3.77,3.77,0,0,1-1.13,1.66,2.85,2.85,0,0,1-1.87.61,2.94,2.94,0,0,1-1.91-.61,3.64,3.64,0,0,1-1.13-1.66,6.83,6.83,0,0,1-.38-2.32A7,7,0,0,1,1018.64,680.86Z" style="fill: #aaa"/>
      <path d="M1033.6,689.5a7.71,7.71,0,0,0,6.73.28,5,5,0,0,0,2.07-1.79,5.4,5.4,0,0,0,.88-2.63h-3.18a3,3,0,0,1-.55,1.28,2.69,2.69,0,0,1-1,.81,3.08,3.08,0,0,1-1.33.28,3,3,0,0,1-1.81-.56,3.47,3.47,0,0,1-1.19-1.58,6.51,6.51,0,0,1-.43-2.47,6.28,6.28,0,0,1,.43-2.43,3.42,3.42,0,0,1,1.21-1.56,3,3,0,0,1,1.79-.54,2.74,2.74,0,0,1,1.92.67,3.11,3.11,0,0,1,.91,1.69h3.18a5.26,5.26,0,0,0-.89-2.65,5.17,5.17,0,0,0-2.12-1.76,7.21,7.21,0,0,0-3-.62,6.83,6.83,0,0,0-3.58.92,6.13,6.13,0,0,0-2.34,2.55,8.3,8.3,0,0,0-.83,3.78,8.16,8.16,0,0,0,.81,3.75,6.19,6.19,0,0,0,2.32,2.55Z" style="fill: #aaa"/>
      <path d="M1049.14,684.85h1.63l3.88,5.29h4l-5.29-7.13,5.24-6.89h-4l-4.26,5.65h-1.21v-5.65h-3.33v14h3.33Z" style="fill: #aaa"/>
      <path d="M1062.33,689.52a6.81,6.81,0,0,0,3.58.9,6.91,6.91,0,0,0,3.6-.9,6.23,6.23,0,0,0,2.36-2.53,8.13,8.13,0,0,0,.83-3.8,8.35,8.35,0,0,0-.83-3.8,6,6,0,0,0-2.36-2.53,7.57,7.57,0,0,0-7.18,0,6.22,6.22,0,0,0-2.35,2.53,8.11,8.11,0,0,0-.83,3.8,8.32,8.32,0,0,0,.83,3.8A6.11,6.11,0,0,0,1062.33,689.52Zm.56-8.66a3.77,3.77,0,0,1,1.13-1.66,2.92,2.92,0,0,1,1.91-.62,2.83,2.83,0,0,1,1.87.62,3.77,3.77,0,0,1,1.13,1.66,6.88,6.88,0,0,1,.36,2.33,6.78,6.78,0,0,1-.36,2.32,3.77,3.77,0,0,1-1.13,1.66,2.85,2.85,0,0,1-1.87.61,3,3,0,0,1-1.91-.61,3.64,3.64,0,0,1-1.13-1.66,6.83,6.83,0,0,1-.38-2.32A7,7,0,0,1,1062.89,680.86Z" style="fill: #aaa"/>
      <path d="M1086.77,688.35a3.31,3.31,0,0,0,.61-2,3.24,3.24,0,0,0-.48-1.74,3.37,3.37,0,0,0-1.33-1.22,4.84,4.84,0,0,0-2-.56,4.39,4.39,0,0,0,2.24-1,2.47,2.47,0,0,0,.83-1.92,3.18,3.18,0,0,0-1.46-2.78,7,7,0,0,0-4-1h-5.94v14h6.85a7.54,7.54,0,0,0,2.82-.48,3.81,3.81,0,0,0,1.77-1.33Zm-8.32-9.58h2.82a2.82,2.82,0,0,1,1.64.41,1.32,1.32,0,0,1,.6,1.13,1.35,1.35,0,0,1-.26.85,1.63,1.63,0,0,1-.75.56,3.06,3.06,0,0,1-1.16.2h-2.88Zm5.17,8.33a2.16,2.16,0,0,1-1.44.43h-3.73v-3.47h3.73a2,2,0,0,1,1.44.49,1.8,1.8,0,0,1,.53,1.36A1.44,1.44,0,0,1,1083.62,687.1Z" style="fill: #aaa"/>
      <path d="M1101.19,688a5.4,5.4,0,0,0,.88-2.63h-3.18a3,3,0,0,1-.55,1.28,2.7,2.7,0,0,1-1,.81,3.08,3.08,0,0,1-1.33.28,3,3,0,0,1-1.81-.56,3.46,3.46,0,0,1-1.19-1.58,6.51,6.51,0,0,1-.43-2.47,6.28,6.28,0,0,1,.43-2.43,3.42,3.42,0,0,1,1.21-1.56,3,3,0,0,1,1.79-.54,2.73,2.73,0,0,1,1.92.67,3.1,3.1,0,0,1,.91,1.69H1102a5.26,5.26,0,0,0-.89-2.65,5.18,5.18,0,0,0-2.12-1.76,7.21,7.21,0,0,0-3-.62,6.82,6.82,0,0,0-3.58.92,6.11,6.11,0,0,0-2.34,2.55,8.3,8.3,0,0,0-.83,3.78,8.16,8.16,0,0,0,.81,3.75,6.2,6.2,0,0,0,2.32,2.55,7.71,7.71,0,0,0,6.73.28,5,5,0,0,0,2.07-1.79Z" style="fill: #aaa"/>
      <path d="M1117.4,676.12h-4l-4.26,5.65h-1.21v-5.65h-3.33v14h3.33v-5.29h1.62l3.88,5.29h4l-5.29-7.13Z" style="fill: #aaa"/>
      <path d="M1128.37,680.59v9.55h3.22v-14h-3.41l-5.65,9.55v-9.55h-3.22v14h3.43Z" style="fill: #aaa"/>
      <path d="M1143.72,676.12l-5.65,9.55v-9.55h-3.22v14h3.43l5.63-9.55v9.55h3.22v-14Z" style="fill: #aaa"/>
      <path d="M1141,674.89a4.71,4.71,0,0,0,3.15-1,3.23,3.23,0,0,0,1.16-2.58h-2.49a1.83,1.83,0,0,1-.43,1.18,1.7,1.7,0,0,1-1.39.51,1.73,1.73,0,0,1-1.41-.51,1.8,1.8,0,0,1-.41-1.17h-2.47a3.2,3.2,0,0,0,1.16,2.58,4.69,4.69,0,0,0,3.13,1Z" style="fill: #aaa"/>
      <path d="M1003.72,720.32a4.88,4.88,0,0,0,2.14-1.82,5,5,0,0,0,.71-2.61,4.65,4.65,0,0,0-.6-2.43,4.43,4.43,0,0,0-1.51-1.56,4.19,4.19,0,0,0-1.92-.61v-.18a5,5,0,0,0,1.66-.72,3.67,3.67,0,0,0,1.19-1.31,4,4,0,0,0,.45-2,4.43,4.43,0,0,0-2.72-4.21,8,8,0,0,0-3.4-.64h-7.21v18.69h7.63a8.18,8.18,0,0,0,3.58-.67Zm-7.81-15.24h3.45a3.18,3.18,0,0,1,2.27.71,2.3,2.3,0,0,1,.76,1.79A2.37,2.37,0,0,1,1002,709a2.7,2.7,0,0,1-1.13.92,3.77,3.77,0,0,1-1.59.33h-3.38v-5.16Zm0,13.07v-5.47h3.76a3.92,3.92,0,0,1,1.82.39,2.92,2.92,0,0,1,1.18,1.05,2.75,2.75,0,0,1,.41,1.5,2.32,2.32,0,0,1-.83,1.82,4.06,4.06,0,0,1-2.69.71Z" style="fill: #aaa"/>
      <path d="M1018.3,720.75a5.33,5.33,0,0,0,2.11-1.41,4.65,4.65,0,0,0,1.11-2.14l-3.12-.35a2.75,2.75,0,0,1-.64,1,2.8,2.8,0,0,1-1,.61,4.14,4.14,0,0,1-1.31.2,3.65,3.65,0,0,1-1.89-.46,3.16,3.16,0,0,1-1.26-1.33,4.63,4.63,0,0,1-.45-2h9.85v-1a8.7,8.7,0,0,0-.51-3.17,6.09,6.09,0,0,0-1.41-2.2,5.83,5.83,0,0,0-2.06-1.28,7.27,7.27,0,0,0-2.47-.41,6.72,6.72,0,0,0-3.53.92,6.35,6.35,0,0,0-2.34,2.55,9.15,9.15,0,0,0,0,7.61,5.87,5.87,0,0,0,2.37,2.5,7.23,7.23,0,0,0,3.66.89,8.18,8.18,0,0,0,2.93-.49Zm-4.86-10.91a3.25,3.25,0,0,1,1.79-.49,3.29,3.29,0,0,1,1.67.43,3,3,0,0,1,1.13,1.17,3.52,3.52,0,0,1,.41,1.69h-6.63a3.68,3.68,0,0,1,.41-1.53,3.41,3.41,0,0,1,1.19-1.28Z" style="fill: #aaa"/>
      <path d="M1033,715.31V721h3.2V707H1033v5.64h-5.47V707h-3.22v14h3.22v-5.67Z" style="fill: #aaa"/>
      <path d="M1042.46,713.07a2.84,2.84,0,0,1-.32-1.45V707H1039v4.67a4.65,4.65,0,0,0,1.64,3.94,7.19,7.19,0,0,0,4.48,1.27,9.33,9.33,0,0,0,1.51-.12c.35,0,.65-.13,1-.2V721h3.2V707h-3.2v6.82l-.38.12a9.6,9.6,0,0,1-2.1.21,4.67,4.67,0,0,1-1.64-.25,1.83,1.83,0,0,1-1-.81Z" style="fill: #aaa"/>
      <path d="M1059.65,717.54h-.15L1056.23,707h-3.53l5.12,14.31-.28.76a2.52,2.52,0,0,1-.75,1.13,1.6,1.6,0,0,1-1,.35,5,5,0,0,1-1.29-.2l-.78,2.58a5.37,5.37,0,0,0,.91.25,6,6,0,0,0,1.26.1,5.51,5.51,0,0,0,2.25-.43,4.29,4.29,0,0,0,1.59-1.22,6.41,6.41,0,0,0,1-1.91l5.65-15.71h-3.55l-3.26,10.58Z" style="fill: #aaa"/>
      <path d="M1078.92,707.6a5.55,5.55,0,0,0-3-.82,4.36,4.36,0,0,0-2,.41,4,4,0,0,0-1.28,1,6.84,6.84,0,0,0-.73,1.08h-.2V707h-3.28v19.28h3.33v-7.46h.13a6.47,6.47,0,0,0,.75,1.08,4,4,0,0,0,1.29,1,4.55,4.55,0,0,0,2,.39,5.32,5.32,0,0,0,3-.85,5.68,5.68,0,0,0,2.07-2.47,10.42,10.42,0,0,0,0-7.87,5.57,5.57,0,0,0-2.1-2.43Zm-.89,8.71a3.52,3.52,0,0,1-1.13,1.61,2.88,2.88,0,0,1-1.86.59,2.83,2.83,0,0,1-1.81-.58,3.39,3.39,0,0,1-1.13-1.59,7,7,0,0,1-.4-2.38,6.85,6.85,0,0,1,.38-2.37,3.36,3.36,0,0,1,1.13-1.56,2.91,2.91,0,0,1,1.81-.56,3.07,3.07,0,0,1,1.86.58,3.46,3.46,0,0,1,1.13,1.59,6.64,6.64,0,0,1,.38,2.32,6.74,6.74,0,0,1-.38,2.33Z" style="fill: #aaa"/>
      <path d="M1093.18,712.59h-5.47V707h-3.21v14h3.21v-5.67h5.47V721h3.2V707h-3.2Z" style="fill: #aaa"/>
      <path d="M1116.8,707h-3.33v14h3.33Z" style="fill: #aaa"/>
      <path d="M1106,711.52h-3.22V707h-3.21v14H1106a6.94,6.94,0,0,0,3.07-.61,4.41,4.41,0,0,0,2.62-4.13,4.32,4.32,0,0,0-1.49-3.42A6.15,6.15,0,0,0,1106,711.52Zm1.79,6.2a2.83,2.83,0,0,1-1.79.56h-3.22v-4H1106a2.75,2.75,0,0,1,1.79.58,1.82,1.82,0,0,1,.7,1.5,1.65,1.65,0,0,1-.7,1.41Z" style="fill: #aaa"/>
      <path d="M1127.59,703.32a1.7,1.7,0,0,1-1.39.51,1.73,1.73,0,0,1-1.41-.51,1.8,1.8,0,0,1-.41-1.17h-2.47a3.2,3.2,0,0,0,1.16,2.58,4.69,4.69,0,0,0,3.13,1,4.75,4.75,0,0,0,3.15-1,3.23,3.23,0,0,0,1.16-2.58H1128a1.83,1.83,0,0,1-.43,1.18Z" style="fill: #aaa"/>
      <path d="M1123.28,716.5V707h-3.22v14h3.43l5.64-9.55V721h3.23V707h-3.43Z" style="fill: #aaa"/>
      <path d="M1007.37,736.14a8,8,0,0,0-3.91-.94h-.27v-2.42h-3.28v2.42h-.27a8,8,0,0,0-3.91.94,6.94,6.94,0,0,0-2.7,2.65,7.74,7.74,0,0,0-1,4,7.62,7.62,0,0,0,1,3.91,6.63,6.63,0,0,0,2.69,2.58,8.24,8.24,0,0,0,3.93.92h.27v2.38h3.28v-2.38h.27a8.13,8.13,0,0,0,3.91-.92,6.77,6.77,0,0,0,2.69-2.6,7.64,7.64,0,0,0,1-3.9,8,8,0,0,0-1-4A6.79,6.79,0,0,0,1007.37,736.14Zm-7.72,11.18a4.86,4.86,0,0,1-2.3-.53,3.72,3.72,0,0,1-1.53-1.54,5.12,5.12,0,0,1-.55-2.47,5.93,5.93,0,0,1,.53-2.58,3.72,3.72,0,0,1,1.51-1.59,4.7,4.7,0,0,1,2.32-.54h.27v9.25h-.25Zm7.63-2.09a3.55,3.55,0,0,1-1.49,1.54,4.63,4.63,0,0,1-2.3.53h-.27v-9.25h.27a4.63,4.63,0,0,1,2.3.54,3.67,3.67,0,0,1,1.49,1.59,5.63,5.63,0,0,1,.53,2.55,5.23,5.23,0,0,1-.53,2.47Z" style="fill: #aaa"/>
      <path d="M1023.54,738.51a7.58,7.58,0,0,0-7.18,0A6.22,6.22,0,0,0,1014,741a8.11,8.11,0,0,0-.83,3.8,8.32,8.32,0,0,0,.83,3.8,6.12,6.12,0,0,0,2.35,2.53,6.81,6.81,0,0,0,3.58.9,6.92,6.92,0,0,0,3.6-.9,6.23,6.23,0,0,0,2.35-2.53,8.11,8.11,0,0,0,.83-3.8,8.32,8.32,0,0,0-.83-3.8A6,6,0,0,0,1023.54,738.51Zm-.56,8.64a3.76,3.76,0,0,1-1.13,1.66,2.85,2.85,0,0,1-1.87.61,2.94,2.94,0,0,1-1.91-.61,3.64,3.64,0,0,1-1.13-1.66,6.83,6.83,0,0,1-.38-2.32,7,7,0,0,1,.38-2.33,3.67,3.67,0,0,1,1.13-1.66,2.92,2.92,0,0,1,1.91-.62,2.83,2.83,0,0,1,1.87.62,3.76,3.76,0,0,1,1.13,1.66,6.88,6.88,0,0,1,.37,2.33A6.78,6.78,0,0,1,1023,747.16Z" style="fill: #aaa"/>
      <path d="M1038,743.43h-5.47v-5.64h-3.22v14h3.22v-5.67H1038v5.67h3.2v-14H1038Z" style="fill: #aaa"/>
      <path d="M1056.81,737.79H1046.6l-.4,4.91c-.07.79-.15,1.51-.23,2.2a16.56,16.56,0,0,1-.33,1.84,6.75,6.75,0,0,1-.5,1.41,2.54,2.54,0,0,1-.76.94h-1.13v6.79h3.28v-4.08h9.25v4.08H1059V749.1h-2.19V737.79Zm-3.18,11.29h-5.82a6.73,6.73,0,0,0,1-2.58,36.78,36.78,0,0,0,.48-3.81l.22-2.25h4.14v8.64Z" style="fill: #aaa"/>
    </g>
    <path d="M860.47,733.94l-21.71-31.39H800.38l16.48-31h38.39L877,702.95l-16.48,31Zm93.27-31L932,671.56H893.65l-16.48,31h38.39l21.71,31.37,16.48-31Z" style="fill: #aaa"/>
  </g>
  <g>
    <g>
      <path d="M452.08,667.77a6,6,0,0,1-.65,2.82,6.79,6.79,0,0,1-1.52,2l-2,1.3a7.82,7.82,0,0,1-2.39.43v2h-3.69v-2a12.4,12.4,0,0,1-3-.87,4.73,4.73,0,0,1-2-1.52,6.83,6.83,0,0,1-1.09-2.17,11.09,11.09,0,0,1-.43-2.82v-8a6,6,0,0,1,.65-2.82,5.2,5.2,0,0,1,1.3-1.74,7.17,7.17,0,0,1,2.17-1.3,4.66,4.66,0,0,1,2.39-.43v-1.3h3.91v1.3a9.25,9.25,0,0,1,2.39.43,5.12,5.12,0,0,1,2,1.3,6.73,6.73,0,0,1,1.52,2,6,6,0,0,1,.65,2.82v8.68Zm-10.2-12.15a6.5,6.5,0,0,0-2.17.87,3.67,3.67,0,0,0-.65,2.17v9.55a2.75,2.75,0,0,0,.22,1.3,3,3,0,0,0,.65.87c.22.22.65.43.87.65a2,2,0,0,0,1.09.22Zm6.73,3a2.79,2.79,0,0,0-.87-2.17,4.1,4.1,0,0,0-2-.87V671c.22,0,.65-.22.87-.22a3.84,3.84,0,0,0,1.52-1.52,2,2,0,0,0,.22-1.09v-9.55Z" style="fill: #aaa"/>
      <path d="M471.4,669.73c0,2.17-.43,3.91-1.52,5a6.22,6.22,0,0,1-4.56,1.74c-2.17,0-3.69-.43-4.56-1.52a7.18,7.18,0,0,1-1.52-4.56V657.79a9.4,9.4,0,0,1,.43-2.6,6.88,6.88,0,0,1,1.09-2.17,3.16,3.16,0,0,1,2-1.3,11,11,0,0,1,2.82-.43,9.61,9.61,0,0,1,2.82.43,2.21,2.21,0,0,1,1.74,1.09,6.79,6.79,0,0,1,1.09,2.17,11.47,11.47,0,0,1,.22,2.82Zm-3.91-12.37a6.34,6.34,0,0,0-.43-2c-.22-.65-.87-.87-1.74-.87a1.63,1.63,0,0,0-1.09.22c-.43.43-.65.65-.65,1.09a1.64,1.64,0,0,0-.22,1.09V670.6a4.06,4.06,0,0,0,.43,1.74,1.94,1.94,0,0,0,1.74.87,1.76,1.76,0,0,0,1.73-.87c.44-.43.44-1.09.44-2v-13Z" style="fill: #aaa"/>
      <polygon points="487.02 676.24 487.02 665.39 482.46 665.39 482.46 676.24 478.77 676.24 478.77 651.28 482.68 651.28 482.68 661.7 487.24 661.7 487.24 651.28 491.15 651.28 491.15 676.24 487.02 676.24" style="fill: #aaa"/>
      <path d="M500.26,676.24V681H497v-8l1.52-.22a5.17,5.17,0,0,0,1.3-2.39,15.48,15.48,0,0,0,.43-3.69l.44-15.19H512V673h1.52v8.25h-3.26v-4.78h-10Zm3.47-9.77c0,1.52-.22,2.6-.22,3.69a7.32,7.32,0,0,1-.87,2.6h5.43V655h-3.91Z" style="fill: #aaa"/>
      <path d="M536.94,651.06a8.11,8.11,0,0,1,2.6.43,8.79,8.79,0,0,1,2,1.09,4.73,4.73,0,0,1,1.09,1.74,7.87,7.87,0,0,1,.43,2.39l-3.69.87a5.41,5.41,0,0,0-.44-2.17,1.76,1.76,0,0,0-1.73-.87,1.63,1.63,0,0,0-1.09.22l-.65.65a1.31,1.31,0,0,0-.22.87v14.54c0,.22.22.65.22.87l.65.65a1.63,1.63,0,0,0,1.09.22c1.52,0,2.17-1.09,2.17-3a6,6,0,0,0,2,.22c.65,0,1.3.22,2,.22a7.15,7.15,0,0,1-1.52,4.56,5.71,5.71,0,0,1-4.34,1.73c-2.17,0-3.69-.43-4.56-1.52a6.12,6.12,0,0,1-1.52-4.56V657.79a10.57,10.57,0,0,1,.22-2.6A6.87,6.87,0,0,1,532.6,653a4.73,4.73,0,0,1,2-1.52,4.42,4.42,0,0,1,2.39-.43" style="fill: #aaa"/>
      <path d="M561.25,669.73c0,2.17-.43,3.91-1.52,5a6.22,6.22,0,0,1-4.56,1.74c-2.17,0-3.69-.43-4.56-1.52a7.18,7.18,0,0,1-1.52-4.56V657.79a9.4,9.4,0,0,1,.43-2.6,6.83,6.83,0,0,1,1.09-2.17,3.17,3.17,0,0,1,2-1.3,11,11,0,0,1,2.82-.43,9.63,9.63,0,0,1,2.82.43,3.9,3.9,0,0,1,2,1.3,6.79,6.79,0,0,1,1.09,2.17v14.54Zm-3.91-12.37a6.34,6.34,0,0,0-.43-2c-.22-.65-.87-.87-1.74-.87a1.63,1.63,0,0,0-1.09.22l-.65.65c-.22.22-.22.65-.43,1.09v13.67a4.12,4.12,0,0,0,.43,1.74,2.26,2.26,0,0,0,1.74.87,1.76,1.76,0,0,0,1.74-.87c.43-.43.43-1.09.43-2Z" style="fill: #aaa"/>
      <path d="M570.37,676.24V681h-3.26v-8l1.52-.22a5.18,5.18,0,0,0,1.3-2.39,15.48,15.48,0,0,0,.43-3.69l.44-15.19h11.29V673h1.52v8.25h-3.25v-4.78h-10Zm3.47-9.77c0,1.52-.22,2.6-.22,3.69a7.32,7.32,0,0,1-.87,2.6h5.43V655h-3.91Z" style="fill: #aaa"/>
      <polygon points="589.9 676.24 589.9 651.28 600.97 651.28 600.97 654.97 593.81 654.97 593.81 661.7 600.1 661.7 600.1 665.39 593.81 665.39 593.81 672.55 600.97 672.55 600.97 676.24 589.9 676.24" style="fill: #aaa"/>
      <path d="M616.38,660.61l-5.21,15.63h-3.69v-25h3.69v15.84l5.21-15.84h3.69v25h-3.91Zm-4.77-15a1.64,1.64,0,0,0,.22.87c.22.22.22.43.43.87l.65.65a1.3,1.3,0,0,0,.87.22c.43,0,.65,0,.87-.22l.65-.65a1.12,1.12,0,0,0,.44-.87c0-.22.22-.43.22-.87h2.82a6.79,6.79,0,0,1-.43,1.74c.22.43-.22,1.09-.65,1.52a9.44,9.44,0,0,1-1.52,1.3,6.42,6.42,0,0,1-2.17.43,7.8,7.8,0,0,1-2.39-.43,2.92,2.92,0,0,1-1.52-1.3,5.49,5.49,0,0,1-.87-1.52,6.71,6.71,0,0,1-.43-1.74Z" style="fill: #aaa"/>
      <path d="M633.53,651.06a8.08,8.08,0,0,1,2.6.43,8.81,8.81,0,0,1,2,1.09,4.75,4.75,0,0,1,1.09,1.74,7.87,7.87,0,0,1,.43,2.39l-3.69.87a5.41,5.41,0,0,0-.44-2.17,1.76,1.76,0,0,0-1.73-.87,1.62,1.62,0,0,0-1.09.22l-.65.65a1.31,1.31,0,0,0-.22.87v14.54c0,.22.22.65.22.87l.65.65a1.62,1.62,0,0,0,1.09.22c1.52,0,2.17-1.09,2.17-3a6,6,0,0,0,2,.22c.65,0,1.3.22,2,.22a7.15,7.15,0,0,1-1.52,4.56,5.71,5.71,0,0,1-4.34,1.73c-2.17,0-3.69-.43-4.56-1.52a6.12,6.12,0,0,1-1.52-4.56V657.79a10.57,10.57,0,0,1,.22-2.6,6.83,6.83,0,0,1,1.09-2.17,4.73,4.73,0,0,1,2-1.52,5.08,5.08,0,0,1,2.39-.43" style="fill: #aaa"/>
      <polygon points="652.19 654.97 652.19 676.24 648.29 676.24 648.29 654.97 644.16 654.97 644.16 651.28 656.1 651.28 656.1 654.97 652.19 654.97" style="fill: #aaa"/>
      <path d="M671.29,663.22a3.29,3.29,0,0,1,2.17,2,9,9,0,0,1,.65,3.47c0,2.6-.65,4.56-1.74,5.64-1.09,1.3-2.82,1.74-5.21,1.74H662V651.28h5.43c2.17,0,3.9.65,4.77,1.74,1.09,1.09,1.52,2.82,1.52,5a7,7,0,0,1-.65,3c0,.87-.87,1.52-1.74,2.17m-1.08-5a3.49,3.49,0,0,0-.65-2.39,3.24,3.24,0,0,0-2.17-.65h-1.3v6.51h1.3a2.28,2.28,0,0,0,2.17-.87,5.76,5.76,0,0,0,.65-2.6m.22,10a4.63,4.63,0,0,0-.65-2.6,2.29,2.29,0,0,0-2.17-.87h-1.52v7.81h1.52a3.14,3.14,0,0,0,1.52-.43,1.7,1.7,0,0,0,.87-.87,3.09,3.09,0,0,0,.43-1.3Z" style="fill: #aaa"/>
      <polygon points="690.39 660.61 685.19 676.24 681.5 676.24 681.5 651.28 685.19 651.28 685.19 667.13 685.4 667.13 690.61 651.28 694.3 651.28 694.3 676.24 690.39 676.24 690.39 660.61" style="fill: #aaa"/>
      <path d="M700.81,676.24l1.3-7.81a6.5,6.5,0,0,1,.87-2.17,3.42,3.42,0,0,1,1.52-1.52,4.7,4.7,0,0,1-2.39-2.17,8.22,8.22,0,0,1-.65-3.47,8.76,8.76,0,0,1,1.74-5.64,6.22,6.22,0,0,1,5-2h5.64v25h-3.91V665.6h-1.09a2.65,2.65,0,0,0-2,.87c-.65.43-.87,1.52-1.3,2.82l-1.09,6.95Zm7.6-21.27a2.8,2.8,0,0,0-2.39,1.09,4.93,4.93,0,0,0-.65,2.82,3.17,3.17,0,0,0,.87,2.6,3.67,3.67,0,0,0,2.17.65h1.52V655Z" style="fill: #aaa"/>
      <polygon points="447.09 696.86 440.58 716.18 436.02 716.18 436.02 685.36 440.79 685.36 440.79 704.89 441.01 704.89 447.52 685.36 452.29 685.36 452.29 716.18 447.3 716.18 447.09 696.86" style="fill: #aaa"/>
      <polygon points="475.52 716.18 475.52 702.72 470.09 702.72 470.09 716.18 465.32 716.18 465.32 685.36 470.09 685.36 470.09 698.16 475.74 698.16 475.74 685.36 480.51 685.36 480.51 716.18 475.52 716.18" style="fill: #aaa"/>
      <polygon points="504.17 716.18 504.17 702.72 498.52 702.72 498.52 716.18 493.75 716.18 493.75 685.36 498.52 685.36 498.52 698.16 504.17 698.16 504.17 685.36 508.94 685.36 508.94 716.18 504.17 716.18" style="fill: #aaa"/>
      <path d="M537.16,708.36a9.65,9.65,0,0,1-1.74,6.08c-1.3,1.3-3,2-5.86,2-2.6,0-4.56-.65-5.64-2a8.75,8.75,0,0,1-1.73-5.64V693.39a13,13,0,0,1,.43-3.26,5,5,0,0,1,1.3-2.6,6.78,6.78,0,0,1,2.39-1.73,8.27,8.27,0,0,1,3.47-.65,9.36,9.36,0,0,1,3.69.65,8.94,8.94,0,0,1,2.39,1.52,5,5,0,0,1,1.3,2.6,16.73,16.73,0,0,1,.43,3.47v15ZM532.39,693a5,5,0,0,0-.65-2.39,2.4,2.4,0,0,0-2.17-1.09,1.83,1.83,0,0,0-1.3.43c-.44.22-.65.65-.87.87a3.11,3.11,0,0,0-.43,1.3c0,.43-.22.87-.22,1.3V709a3.67,3.67,0,0,0,.65,2.17,2.29,2.29,0,0,0,2.17.87,2.4,2.4,0,0,0,2.17-1.09,4.38,4.38,0,0,0,.65-2.39Z" style="fill: #aaa"/>
      <path d="M561.69,700.11a4.24,4.24,0,0,1,2.82,2.6,12.89,12.89,0,0,1,.87,4.34c0,3.26-.65,5.64-2.17,7.16-1.3,1.52-3.47,2.17-6.29,2.17H550.4v-31h6.73c2.82,0,4.78.65,5.86,2.17a9.12,9.12,0,0,1,2,6.3,9.35,9.35,0,0,1-.65,3.69,4.08,4.08,0,0,1-2.6,2.39Zm-1.3-6.29c0-1.52-.22-2.39-.87-3a3.68,3.68,0,0,0-2.82-.87h-1.52v7.81h1.52a3.75,3.75,0,0,0,2.82-1.09c.65-.43.87-1.52.87-2.82m.22,12.59c0-1.52-.22-2.6-.87-3.26a3.43,3.43,0,0,0-2.82-1.09h-1.74v9.55h2a5.18,5.18,0,0,0,2-.43,2.62,2.62,0,0,0,1.09-1.09,4.12,4.12,0,0,0,.43-1.74Z" style="fill: #aaa"/>
      <path d="M589.68,716.18l-1.3-6.51h-5.64l-.65,3.26-.65,3.25h-5c1.09-5.21,2.17-10.42,3-15.41,1.09-5.21,2.17-10.2,3-15.41h5.42l6.3,30.82Zm-4.34-23.66c-.22,2.17-.65,4.34-.87,6.3-.44,2.17-.65,4.34-1.09,6.51h4.34l-2-12.81Z" style="fill: #aaa"/>
      <polygon points="621.16 685.36 621.16 711.84 623.11 711.84 623.11 722.25 618.99 722.25 618.99 716.39 605.96 716.39 605.96 685.36 610.74 685.36 610.74 711.84 616.16 711.84 616.16 685.36 621.16 685.36" style="fill: #aaa"/>
      <polygon points="645.68 696.86 639.17 716.18 634.61 716.18 634.61 685.36 639.39 685.36 639.39 704.89 645.9 685.36 650.67 685.36 650.67 716.18 645.9 716.18 645.68 696.86" style="fill: #aaa"/>
      <path d="M662.61,716.18l1.74-9.77a6.42,6.42,0,0,1,1.09-2.82,4.26,4.26,0,0,1,2-2,6.11,6.11,0,0,1-3-2.6,12.82,12.82,0,0,1-.87-4.34c0-3,.65-5.43,2.17-6.95a8.17,8.17,0,0,1,6.08-2.39h7.16v30.82h-4.78V702.94h-1.3a3.62,3.62,0,0,0-2.39.87,5.78,5.78,0,0,0-1.52,3.47L667.39,716h-4.78Zm9.55-26.26a3.37,3.37,0,0,0-3,1.3,5.49,5.49,0,0,0-.87,3.47c0,1.52.43,2.6,1.09,3a4,4,0,0,0,2.82.87h2v-8.68Z" style="fill: #aaa"/>
      <polygon points="701.25 709.45 699.08 703.8 697.12 698.38 696.91 698.38 696.91 716.18 692.13 716.18 692.13 685.36 696.91 685.36 700.38 694.04 702.76 700.77 702.98 700.77 705.59 693.82 708.84 685.14 713.4 685.14 713.4 715.96 708.62 715.96 708.62 698.16 708.41 698.16 706.46 703.59 704.28 709.23 701.25 709.23 701.25 709.45" style="fill: #aaa"/>
    </g>
    <g>
      <path d="M706.75,734.86a138.94,138.94,0,0,1-34.12,25c-28,14.86-60.12,21.2-89,21.67h-3.27c-3.29,0-6.77,0-10.28-.24-44.57-2-97.49-16.83-134.66-55.95h27.12l.46.54c23.83,26.62,69.57,44.15,119.38,45.81,2.64.08,5.26.13,7.89.13C635.87,771.85,677.26,758.64,706.75,734.86Z" style="fill: #aaa"/>
      <path d="M709.9,730c-31,27.19-76.95,41.69-127.43,40-49-1.65-94-18.74-117.67-44.72h26.32l.62.62c22.11,21,58.31,33.92,99.33,35.42,2.67.1,5.33.15,8,.15C639.07,761.53,678,750.48,709.9,730Z" style="fill: #aaa"/>
      <path d="M711.66,726.9c-34.12,22.76-76.95,34.41-120.55,32.81-40.24-1.46-75.77-14-97.61-34.36h28.07c16,15.3,45.69,25.58,83.5,25.58h1.53c27.55-.22,59-5.91,92.46-18.81C703.16,730.44,707.4,728.73,711.66,726.9Z" style="fill: #aaa"/>
    </g>
  </g>
  <g>
    <path d="M547.22,406.87V386h4.06l5.87,13.35h1.26L564.29,386h4.06v20.82h-2.52V388.72h-.05l-5.71,13.09h-4.62l-5.67-13.09h-.06v18.14Z" style="fill: #aaa"/>
    <path d="M575,404.88a7.12,7.12,0,0,1-1.82-2.39,6.29,6.29,0,0,1-.58-2.82,6.5,6.5,0,0,1,.63-2.81,7.37,7.37,0,0,1,1.82-2.39,8.61,8.61,0,0,1,2.73-1.6,9.62,9.62,0,0,1,6.46,0,8.64,8.64,0,0,1,2.75,1.58,7.36,7.36,0,0,1,1.84,2.38,6.53,6.53,0,0,1,.66,2.81,6.8,6.8,0,0,1-1.5,4,8.44,8.44,0,0,1-3.78,2.66,9.74,9.74,0,0,1-4.83.44,9.07,9.07,0,0,1-4.33-1.92Zm1.84-9a5.12,5.12,0,0,0-1.26,1.72,4.57,4.57,0,0,0-.4,2,4.62,4.62,0,0,0,.4,2,5.16,5.16,0,0,0,1.25,1.72,6.72,6.72,0,0,0,8.36,0,5.11,5.11,0,0,0,1.26-1.72,5.34,5.34,0,0,0,0-4,5.08,5.08,0,0,0-1.25-1.72,6.65,6.65,0,0,0-8.36,0Z" style="fill: #aaa"/>
    <path d="M593.72,404.82a7.15,7.15,0,0,1-1.64-2.42,8.07,8.07,0,0,1,0-5.63,7.13,7.13,0,0,1,1.64-2.39,7.69,7.69,0,0,1,2.6-1.59,8.07,8.07,0,0,1,6.07.21,7.58,7.58,0,0,1,2.47,1.77,7,7,0,0,1,1.35,2.44h-2.37a4.59,4.59,0,0,0-1-1.4,5.08,5.08,0,0,0-1.74-1.08,5.32,5.32,0,0,0-2.06-.33,5,5,0,0,0-2,.37,4.74,4.74,0,0,0-1.64,1.12,5.08,5.08,0,0,0-1.5,3.69,5,5,0,0,0,1.5,3.71,4.79,4.79,0,0,0,1.62,1.1,5,5,0,0,0,2,.38,5.27,5.27,0,0,0,2.16-.35,5,5,0,0,0,1.79-1.19,4.57,4.57,0,0,0,1-1.54h2.37a6.86,6.86,0,0,1-2.69,3.81,7.64,7.64,0,0,1-4.63,1.38,7.51,7.51,0,0,1-2.89-.5A7.12,7.12,0,0,1,593.72,404.82Z" style="fill: #aaa"/>
    <path d="M608.47,406.86V392.29h2.6v5.83h3.28l5.25-5.83h3.15l-6.06,6.85,6.56,7.69H620l-5.59-6.52h-3.28v6.55Z" style="fill: #aaa"/>
    <path d="M625.35,404.85a7,7,0,0,1-1.59-2.35,6.85,6.85,0,0,1-.51-2.77,7.08,7.08,0,0,1,.49-2.83,7.18,7.18,0,0,1,1.59-2.42,7.4,7.4,0,0,1,2.43-1.62,7.57,7.57,0,0,1,5.77,0,7.39,7.39,0,0,1,2.42,1.62,7.22,7.22,0,0,1,1.59,2.42,7,7,0,0,1,.49,2.83,7.2,7.2,0,0,1-1.31,4,7.48,7.48,0,0,1-3.32,2.62,7.68,7.68,0,0,1-4.24.43A7.57,7.57,0,0,1,625.35,404.85ZM627,396a5.06,5.06,0,0,0-1.1,1.69,5.82,5.82,0,0,0,0,3.94,5,5,0,0,0,1.1,1.69,5.4,5.4,0,0,0,7.33,0,5.12,5.12,0,0,0,1.1-1.69,5.24,5.24,0,0,0-1.1-5.63,5.35,5.35,0,0,0-7.33,0Z" style="fill: #aaa"/>
    <path d="M642.26,406.86V392.3h7.48a5.12,5.12,0,0,1,3.36,1,3.36,3.36,0,0,1,.92,1.18,3.22,3.22,0,0,1,.3,1.44,4.07,4.07,0,0,1-.21,1.32,2.83,2.83,0,0,1-.52.93,3.08,3.08,0,0,1-.65.55,2.57,2.57,0,0,1-.58.29,1.31,1.31,0,0,1-.32.07,1.47,1.47,0,0,1,.36.08,3.21,3.21,0,0,1,.72.32,5.25,5.25,0,0,1,.85.6,2.9,2.9,0,0,1,.69,1,4.31,4.31,0,0,1,0,3.18,3.89,3.89,0,0,1-1,1.39,5.64,5.64,0,0,1-3.8,1.17Zm2.42-8.59h4.88c1.52,0,2.29-.63,2.29-1.9s-.76-1.89-2.29-1.89h-4.88Zm0,6.41h5a3.16,3.16,0,0,0,2-.58,2,2,0,0,0,.54-.72,2,2,0,0,0,.16-.88,1.92,1.92,0,0,0-.16-.88,2,2,0,0,0-.54-.73,3.16,3.16,0,0,0-2-.58h-5Z" style="fill: #aaa"/>
    <path d="M659.18,404.74a7.1,7.1,0,0,1-1.63-2.39,7.86,7.86,0,0,1,0-5.59,7.13,7.13,0,0,1,1.63-2.39,7.66,7.66,0,0,1,2.6-1.59,8,8,0,0,1,6.06.21,7.59,7.59,0,0,1,2.46,1.77,6.91,6.91,0,0,1,1.34,2.44h-2.36a4.45,4.45,0,0,0-1-1.4,5,5,0,0,0-1.73-1.08,5.29,5.29,0,0,0-2.05-.33,5,5,0,0,0-2,.37,4.72,4.72,0,0,0-1.64,1.11,5.09,5.09,0,0,0-1.44,3.7,5,5,0,0,0,1.49,3.7,4.8,4.8,0,0,0,1.62,1.1,5,5,0,0,0,2,.38,5.24,5.24,0,0,0,2.15-.35,5,5,0,0,0,1.78-1.19,4.33,4.33,0,0,0,1-1.54h2.36a6.83,6.83,0,0,1-1.37,2.61,7.29,7.29,0,0,1-2.64,1.95,7.72,7.72,0,0,1-3.29.63,7.47,7.47,0,0,1-2.91-.53A7.09,7.09,0,0,1,659.18,404.74Z" style="fill: #aaa"/>
    <path d="M673.93,406.86V392.29h2.61v5.83h3.28l5.26-5.83h3.13l-6.08,6.85,6.58,7.69h-3.29l-5.58-6.52h-3.28v6.55Z" style="fill: #aaa"/>
    <path d="M690.83,406.87V392.29h2.28v11.22h.05l7.75-11.22h2.59v14.58h-2.28V395.64h-.06l-7.74,11.22Z" style="fill: #aaa"/>
    <path d="M707.72,406.87V392H710v11.45h.05L717.8,392h2.59v14.88h-2.28V395.41H718l-7.74,11.45ZM709.79,386h2.14a1.71,1.71,0,0,0,.13.71,1.66,1.66,0,0,0,.42.58,3,3,0,0,0,3.26,0,1.67,1.67,0,0,0,.54-1.3h2.16a3.47,3.47,0,0,1-.29,1.48,3.38,3.38,0,0,1-.88,1.2,5.36,5.36,0,0,1-6.34,0,3.41,3.41,0,0,1-.85-1.21,3.51,3.51,0,0,1-.27-1.47Z" style="fill: #aaa"/>
    <path d="M547.22,431.85V417.28h2.28V428.5h.06l7.74-11.23h2.59v14.58h-2.28V420.63h-.05l-7.74,11.23Z" style="fill: #aaa"/>
    <path d="M564.12,431.85V417.28h2.29v6h8.09v-6h2.29v14.58H574.5v-6.41h-8.07v6.41Z" style="fill: #aaa"/>
    <path d="M581,431.85V417.28h2.29v6h8.09v-6h2.29v14.58h-2.29v-6.41H583.3v6.41Z" style="fill: #aaa"/>
    <path d="M600,429.84a7,7,0,0,1-1.59-2.35,6.85,6.85,0,0,1-.51-2.77,7,7,0,0,1,.49-2.83,7.18,7.18,0,0,1,1.59-2.42,7.39,7.39,0,0,1,2.42-1.62,7.56,7.56,0,0,1,5.77,0,7.4,7.4,0,0,1,2.43,1.62,7.18,7.18,0,0,1,1.59,2.42,7.08,7.08,0,0,1,.49,2.83,7.19,7.19,0,0,1-1.31,4,7.46,7.46,0,0,1-3.32,2.62,7.68,7.68,0,0,1-4.24.43A7.57,7.57,0,0,1,600,429.84Zm1.62-8.84a5,5,0,0,0-1.11,1.69,5.83,5.83,0,0,0,0,3.95,5,5,0,0,0,1.11,1.69,5.35,5.35,0,0,0,7.33,0,5,5,0,0,0,1.1-1.69,5.83,5.83,0,0,0,0-3.95A5,5,0,0,0,609,421a5.35,5.35,0,0,0-7.33,0Z" style="fill: #aaa"/>
    <path d="M616.91,431.85V417.29h7.49a5.12,5.12,0,0,1,3.37,1,3.33,3.33,0,0,1,.92,1.18,3.18,3.18,0,0,1,.3,1.44,4,4,0,0,1-.21,1.32,2.65,2.65,0,0,1-1.18,1.49,2.63,2.63,0,0,1-.58.29,1.11,1.11,0,0,1-.32.08,1.94,1.94,0,0,1,.37.07,3.11,3.11,0,0,1,.72.32,5,5,0,0,1,.81.59,2.88,2.88,0,0,1,.69,1,3.68,3.68,0,0,1,.29,1.49,3.77,3.77,0,0,1-.32,1.68,4,4,0,0,1-1,1.4,5.71,5.71,0,0,1-3.82,1.16Zm2.43-8.6h4.89c1.53,0,2.3-.63,2.3-1.89s-.74-1.87-2.27-1.87h-4.89Zm0,6.41h5a3.14,3.14,0,0,0,2.05-.58,2.28,2.28,0,0,0,.52-.73,2.16,2.16,0,0,0,0-1.74,2.28,2.28,0,0,0-.52-.73,3.14,3.14,0,0,0-2.05-.58h-5Z" style="fill: #aaa"/>
    <path d="M633.78,429.78a7.55,7.55,0,0,1,0-10.4,6.68,6.68,0,0,1,2.29-1.56,7,7,0,0,1,2.77-.53A6.74,6.74,0,0,1,642,418a5.37,5.37,0,0,1,1.88,1.49l.27.42v-2.33h2.36v14.07h-2.36v-2.27l-.27.39a5.13,5.13,0,0,1-1.84,1.45,6.84,6.84,0,0,1-3.21.69,7,7,0,0,1-2.75-.52A6.69,6.69,0,0,1,633.78,429.78Zm1.77-9a5.53,5.53,0,0,0,0,7.43,5,5,0,0,0,1.65,1.08,5.26,5.26,0,0,0,3.93,0,5,5,0,0,0,1.65-1.08,5.52,5.52,0,0,0,0-7.43,5,5,0,0,0-1.65-1.08,5.26,5.26,0,0,0-3.93,0A5,5,0,0,0,635.54,420.82Z" style="fill: #aaa"/>
    <path d="M650.7,432.52V417.28h2.4v13H661v-13h2.4v13h2.12V436h-2.4v-3.5Z" style="fill: #aaa"/>
    <path d="M667.6,431.85V417.28h2.28V428.5h.05l7.75-11.23h2.59v14.58H678V420.63h-.05l-7.75,11.23Z" style="fill: #aaa"/>
    <path d="M686.6,429.84a7,7,0,0,1-1.59-2.35,6.88,6.88,0,0,1-.51-2.77,7.08,7.08,0,0,1,.49-2.83,7.18,7.18,0,0,1,1.59-2.42,7.4,7.4,0,0,1,2.43-1.62,7.56,7.56,0,0,1,5.77,0,7.41,7.41,0,0,1,2.42,1.62,7.18,7.18,0,0,1,1.59,2.42,7,7,0,0,1,.49,2.83,7.2,7.2,0,0,1-1.31,4,7.48,7.48,0,0,1-3.32,2.62,7.68,7.68,0,0,1-4.24.43A7.57,7.57,0,0,1,686.6,429.84Zm1.62-8.84a5,5,0,0,0-1.1,1.69,5.83,5.83,0,0,0,0,3.95,5,5,0,0,0,1.1,1.69,5.35,5.35,0,0,0,7.33,0,5,5,0,0,0,1.1-1.69,5.85,5.85,0,0,0,0-3.95,5,5,0,0,0-1.11-1.69,5.35,5.35,0,0,0-7.33,0Z" style="fill: #aaa"/>
    <path d="M703.5,431.85V417.28h2.29v6h8.09v-6h2.29v14.58h-2.29v-6.41h-8.07v6.41Z" style="fill: #aaa"/>
    <path d="M720.39,431.85V417.28h2.29v6h8.09v-6h2.29v14.58h-2.29v-6.41h-8.09v6.41Z" style="fill: #aaa"/>
    <path d="M737.29,431.85V417.28h2.51v4.95h3.8a6.61,6.61,0,0,1,4.34,1.39,4.63,4.63,0,0,1,1.24,1.55,4.24,4.24,0,0,1,0,3.76,4.63,4.63,0,0,1-1.24,1.55,6.61,6.61,0,0,1-4.34,1.39Zm2.51-2.19h3.8a4,4,0,0,0,2.57-.73,2.55,2.55,0,0,0,.68-.86,2.36,2.36,0,0,0,0-2.07,2.55,2.55,0,0,0-.68-.86,4.05,4.05,0,0,0-2.57-.77h-3.8Zm11.88,2.19V417.28h2.51v14.57Z" style="fill: #aaa"/>
    <path d="M758.4,431.85V417h2.28v11.45h.05L768.48,417h2.59v14.87h-2.28V420.4h-.06L761,431.85ZM760.48,411h2.16a1.68,1.68,0,0,0,.13.71,1.63,1.63,0,0,0,.42.58,2.87,2.87,0,0,0,3.22,0,1.61,1.61,0,0,0,.42-.58A1.65,1.65,0,0,0,767,411h2.16a3.47,3.47,0,0,1-.28,1.49,3.4,3.4,0,0,1-.88,1.22,5.32,5.32,0,0,1-6.33,0,3.39,3.39,0,0,1-.88-1.22A3.49,3.49,0,0,1,760.48,411Z" style="fill: #aaa"/>
    <path d="M547.22,456.84V442.27h2.23v5.83h2.82l4.51-5.83h2.67l-5.21,6.85,5.64,7.7h-2.8l-4.8-6.56h-2.82v6.56Z" style="fill: #aaa"/>
    <path d="M559.9,456.84l4.21-14.58h6.36l4.21,14.58h-2.59l-3.47-12.39h-2.71l-3.46,12.39Z" style="fill: #aaa"/>
    <path d="M578.86,454.75a7.56,7.56,0,0,1,0-10.39,6.68,6.68,0,0,1,2.29-1.56,7,7,0,0,1,2.77-.53,6.86,6.86,0,0,1,3.14.68,5.64,5.64,0,0,1,1.89,1.48l.27.42v-2.34h2.36v14.05h-2.36v-2.23l-.27.39a5.15,5.15,0,0,1-1.8,1.42,6.92,6.92,0,0,1-3.22.68,7,7,0,0,1-2.78-.53A6.68,6.68,0,0,1,578.86,454.75Zm1.74-8.95a5.58,5.58,0,0,0,0,7.48,5,5,0,0,0,1.65,1.08,5.29,5.29,0,0,0,3.93,0,5.06,5.06,0,0,0,1.65-1.08,5.55,5.55,0,0,0,0-7.48,5,5,0,0,0-1.65-1.08,5.28,5.28,0,0,0-3.93,0A5,5,0,0,0,580.59,445.8Z" style="fill: #aaa"/>
    <path d="M598,454.76a7.37,7.37,0,0,1,0-10.42,7.69,7.69,0,0,1,2.6-1.59,8.1,8.1,0,0,1,6.08.21,7.59,7.59,0,0,1,2.47,1.77,6.87,6.87,0,0,1,1.35,2.43h-2.37a4.56,4.56,0,0,0-1-1.43,5.09,5.09,0,0,0-1.74-1.08,5.35,5.35,0,0,0-2.06-.33,5,5,0,0,0-2,.37,4.74,4.74,0,0,0-1.64,1.11,5,5,0,0,0-1.45,3.7,5,5,0,0,0,1.5,3.7,4.79,4.79,0,0,0,1.62,1.1,5.07,5.07,0,0,0,2,.38,5.29,5.29,0,0,0,2.16-.35,5,5,0,0,0,1.79-1.19,4.34,4.34,0,0,0,1-1.49h2.37a6.8,6.8,0,0,1-1.37,2.6,7.32,7.32,0,0,1-2.64,1.94,7.78,7.78,0,0,1-3.29.64,7.53,7.53,0,0,1-2.9-.51A7.12,7.12,0,0,1,598,454.76Z" style="fill: #aaa"/>
    <path d="M610.58,444.45v-2.19h12.67v2.19h-5.16v12.39h-2.33V444.45Z" style="fill: #aaa"/>
    <path d="M627.47,454.76a7.48,7.48,0,0,1,0-10.41,7.12,7.12,0,0,1,2.41-1.57,7.32,7.32,0,0,1,2.86-.51,7.47,7.47,0,0,1,2.86.5,7.25,7.25,0,0,1,2.42,1.55,7,7,0,0,1,1.6,2.35,6.77,6.77,0,0,1,.51,2.77v.81H627.69a5,5,0,0,0,5.07,4.48,5.6,5.6,0,0,0,3.68-1.26,4.44,4.44,0,0,0,1.1-1.26h2.3a7.17,7.17,0,0,1-2.78,3.41,7.56,7.56,0,0,1-4.31,1.22,7.33,7.33,0,0,1-2.86-.51A7.13,7.13,0,0,1,627.47,454.76Zm.26-6.46h10a4.49,4.49,0,0,0-1.58-2.79,5,5,0,0,0-3.34-1.14,5.09,5.09,0,0,0-3.36,1.14A4.59,4.59,0,0,0,627.73,448.3Z" style="fill: #aaa"/>
    <path d="M644.37,463.09v-20.5h2.35v2.35l.3-.45a5.12,5.12,0,0,1,1.81-1.5,6.49,6.49,0,0,1,3.21-.73,6.69,6.69,0,0,1,5.05,2.21,8.35,8.35,0,0,1,0,11,7.11,7.11,0,0,1-8.28,1.49,4.62,4.62,0,0,1-1.8-1.53l-.3-.42v8.08Zm3.82-17a6.13,6.13,0,0,0,0,7.91,5,5,0,0,0,7.22,0,6.13,6.13,0,0,0,0-7.91,5,5,0,0,0-7.22,0Z" style="fill: #aaa"/>
    <g>
      <path d="M527,375.67v90.59H492v-18a90.66,90.66,0,0,0,8.41-7.53A92.78,92.78,0,0,0,527,375.67Z" style="fill: #aaa"/>
      <path d="M471.24,375.67v44a55,55,0,0,1-17,9.52A92.93,92.93,0,0,0,471.24,375.67Z" style="fill: #aaa"/>
      <path d="M527,375.67a92.78,92.78,0,0,1-26.63,65,90.67,90.67,0,0,1-64.22,27V448.26a90.17,90.17,0,0,1-55.8,19.46V432.24a55.52,55.52,0,0,0,39.46-16.6,57,57,0,0,0,16.34-40h35a92.93,92.93,0,0,1-17,53.49,55,55,0,0,0,17-9.52,52.05,52.05,0,0,0,4.41-4,57,57,0,0,0,16.34-40Z" style="fill: #aaa;opacity: 0.6000000000000001"/>
      <path d="M471.24,375.63v0h-35v0Z" style="fill: #aaa"/>
      <path d="M527,375.63v0H492v0Z" style="fill: #aaa"/>
    </g>
  </g>
  <g>
    <path d="M104,754.87c-.43-1.58-1.29-4.64-5.8-4.64-2.62,0-6.59,1.88-6.59,9.26,0,4.69,2,9,6.59,9,3,0,5.16-1.83,5.8-5h5.45c-1.08,5.7-4.79,9.65-11.35,9.65-6.95,0-11.92-4.73-11.92-13.73,0-9.15,5.26-13.79,12-13.79,7.82,0,11,5.4,11.28,9.25H104Z" style="fill: #aaa"/>
    <path d="M116.06,760.43l6.4-7.35h6.24l-6.81,7.49,7,11.89h-6.09l-4.62-8.32-2.11,2.2v6.12H111V753.07h5.08v7.35Z" style="fill: #aaa"/>
    <path d="M147.47,762.73c0,7-4.69,10.24-9.87,10.24s-9.9-3.2-9.9-10.19,4.72-10.2,9.9-10.2,9.87,3.17,9.87,10.16m-14.55,0c0,2.48.75,5.94,4.68,5.94s4.65-3.42,4.65-5.89-.72-5.91-4.65-5.91-4.68,3.38-4.68,5.86" style="fill: #aaa"/>
    <path d="M166.57,753.07v19.38h-5.08v-15.3H156v6c0,7.41-2.23,9.75-5.8,9.75a11,11,0,0,1-3.09-.42v-3.79a5,5,0,0,0,1.5.14c1.53,0,2.32-.75,2.32-6.65v-9.08h15.59Z" style="fill: #aaa"/>
    <path d="M174.25,760.43l6.4-7.35h6.24l-6.81,7.49,7,11.89H181l-4.61-8.32-2.12,2.2v6.12h-5.08V753.07h5.08Z" style="fill: #aaa"/>
    <path d="M205.66,762.73c0,7-4.68,10.24-9.87,10.24s-9.9-3.2-9.9-10.19,4.72-10.2,9.9-10.2,9.87,3.17,9.87,10.16m-14.54,0c0,2.48.75,5.94,4.68,5.94s4.66-3.42,4.66-5.89-.75-5.91-4.66-5.91-4.68,3.38-4.68,5.86" style="fill: #aaa"/>
    <path d="M207.3,753.07h8.75c4.33,0,7.49,1.77,7.49,5a4.32,4.32,0,0,1-3.61,4.18c2,.47,4.18,1.74,4.18,4.91,0,3.59-2.72,5.29-7.11,5.29H207.3Zm5.07,7.85h3.31c1.69,0,2.88-.68,2.88-2.2s-1.15-2.16-2.84-2.16h-3.35Zm0,8h3.74c1.88,0,3-.58,3-2.49,0-1.69-1.22-2.48-3.1-2.48h-3.68Z" style="fill: #aaa"/>
    <path d="M244.46,762.73c0,7-4.67,10.24-9.87,10.24s-9.91-3.2-9.91-10.19,4.73-10.2,9.91-10.2,9.87,3.17,9.87,10.16m-14.55,0c0,2.48.77,5.94,4.69,5.94s4.64-3.42,4.64-5.89-.71-5.91-4.64-5.91-4.69,3.38-4.69,5.86" style="fill: #aaa"/>
    <path d="M123.06,741.24c4.33,0,15-.76,23-6.58v4.41H162.1l0-19.41,6.71-6.95,14.61,26.36h19.29L180.6,701.42l21.56-23.73H182.41L162.12,701V656.23H146v7.08c-4.9-5.26-12.84-9.24-25.23-9.24-26.81,0-31.85,16.31-31.85,25.44,0,12.55,6.74,19.52,18.49,22.37L124.1,706c8.79,2.17,15.07,3.77,15.07,10.27,0,8.67-9.14,10.72-17.35,10.72-15.06,0-17.57-8.78-17.57-13.46H87.69c0,10.27,5.25,27.72,35.37,27.72m11-49.4-20.19-4.92c-3.43-.8-8.8-2.17-8.8-8.67,0-7.42,7.88-9.93,14.49-9.93,15.06,0,16.44,8.79,16.88,12.55H146v15.44a46.26,46.26,0,0,0-12-4.48" style="fill: #aaa"/>
  </g>
  <g>
    <g>
      <path d="M466.76,104.87v-5.3h1c1-.69,1.29-1.81,1.42-3.75l.49-8.1h10.25V99.57h1.79v5.3H479V102h-9.52v2.83ZM471,99.4v.16h5.9V90.19H472.3L471.93,96A5.82,5.82,0,0,1,471,99.4Z" style="fill: #aaa"/>
      <path d="M484.13,87.72h9.48v2.47h-6.49v3.45h6.12v2.3h-6.12v3.62h6.49V102h-9.48Z" style="fill: #aaa"/>
      <path d="M506.31,102V90.19H499.9V102h-3V87.72h12.4V102Z" style="fill: #aaa"/>
      <path d="M516.82,87.72h3.53l5,14.32h-3.15l-1.07-3.48h-5L515,102h-3.14Zm-.08,8.6h3.69l-1.75-5.74h-.18Z" style="fill: #aaa"/>
      <path d="M527.87,87.72h5.91a4.68,4.68,0,0,1,5,4.89v0a4.68,4.68,0,0,1-5,4.89h-2.91V102h-3Zm3,2.37v5.09H533a2.4,2.4,0,0,0,2.72-2.54v0c0-1.63-1-2.53-2.72-2.53Z" style="fill: #aaa"/>
      <path d="M544.8,90.19h-4.3V87.72H552.1v2.47h-4.3V102h-3Z" style="fill: #aaa"/>
      <path d="M557.38,87.72h3.53l5,14.32h-3.15l-1.07-3.48h-5L555.56,102h-3.14Zm-.08,8.6H561l-1.75-5.74h-.18Z" style="fill: #aaa"/>
      <path d="M568.43,87.72h3.44l4,10.48H576l4-10.48h3.44V102h-2.68V92.29h-.19L576.85,102H575l-3.67-9.75h-.2V102h-2.67Z" style="fill: #aaa"/>
      <path d="M587,87.72h9.48v2.47h-6.49v3.45h6.12v2.3h-6.12v3.62h6.49V102H587Z" style="fill: #aaa"/>
      <path d="M599.71,87.72h3v5.81h6.45V87.72h3V102h-3V96h-6.45v6h-3Z" style="fill: #aaa"/>
      <path d="M619.21,90.19h-4.3V87.72H626.5v2.47h-4.3V102h-3Z" style="fill: #aaa"/>
      <path d="M477.59,126.28V114.43h-6.4v11.85h-3V112h12.4v14.32Z" style="fill: #aaa"/>
      <path d="M484.17,112h5.9a4.69,4.69,0,0,1,5,4.89v0a4.69,4.69,0,0,1-5,4.89h-2.9v4.51h-3Zm3,2.37v5.09h2.18a2.4,2.4,0,0,0,2.72-2.54v0c0-1.63-1-2.53-2.72-2.53Z" style="fill: #aaa"/>
      <path d="M498,112h9.48v2.47H501v3.46h6.12v2.3H501v3.62h6.49v2.47H498Z" style="fill: #aaa"/>
      <path d="M509.3,129.11v-5.3h1c1-.69,1.29-1.81,1.42-3.75l.49-8.1h10.25v11.85h1.79v5.3h-2.71v-2.83H512v2.83Zm4.26-5.47v.17h5.9v-9.38h-4.62l-.37,5.85A5.79,5.79,0,0,1,513.57,123.64Z" style="fill: #aaa"/>
      <path d="M536.09,126.28V114.43h-6.41v11.85h-3V112h12.4v14.32Z" style="fill: #aaa"/>
      <path d="M542.66,112h5.91a4.68,4.68,0,0,1,5,4.89v0a4.68,4.68,0,0,1-5,4.89h-2.91v4.51h-3Zm3,2.37v5.09h2.18a2.4,2.4,0,0,0,2.72-2.54v0c0-1.63-1-2.53-2.72-2.53Z" style="fill: #aaa"/>
      <path d="M556.46,112h3v9.58h.2l6.44-9.58H569v14.32h-3v-9.57h-.18l-6.44,9.57h-2.88Z" style="fill: #aaa"/>
      <path d="M572.54,112h3v5.81H582V112h3v14.32h-3v-6h-6.45v6h-3Z" style="fill: #aaa"/>
      <path d="M588.55,112h3v9.58h.2l6.44-9.58H601v14.32h-3v-9.57h-.19l-6.43,9.57h-2.88Z" style="fill: #aaa"/>
      <path d="M604.62,112h3.44l4,10.48h.18L616.15,112h3.43v14.32h-2.67v-9.74h-.19L613,126.28h-1.88l-3.66-9.74h-.2v9.74h-2.67Z" style="fill: #aaa"/>
      <path d="M627.09,112h3.53l5,14.32h-3.15l-1.07-3.47h-5l-1.07,3.47h-3.14Zm-.08,8.6h3.69L629,114.82h-.18Z" style="fill: #aaa"/>
      <path d="M640.18,114.43h-4.3V112h11.59v2.47h-4.3v11.85h-3Z" style="fill: #aaa"/>
      <path d="M650.24,112h9.48v2.47h-6.49v3.46h6.12v2.3h-6.12v3.62h6.49v2.47h-9.48Z" style="fill: #aaa"/>
      <path d="M661.57,126.28v-2.62a3.61,3.61,0,0,0,.66.07c1.46,0,1.8-1.42,1.89-3.3l.43-8.47h10v14.32h-3V114.43h-4.29l-.34,6.19c-.19,3.53-1.27,5.79-4.24,5.79A4.06,4.06,0,0,1,661.57,126.28Z" style="fill: #aaa"/>
      <path d="M677.76,112h3v4.8h2.78c3,0,5.12,1.92,5.12,4.74v0a4.61,4.61,0,0,1-5,4.75h-5.92Zm3,7.16v4.76h2.13c1.71,0,2.7-.83,2.7-2.36v0c0-1.54-1-2.38-2.7-2.38Z" style="fill: #aaa"/>
      <path d="M691.21,119.13v0c0-4.64,2.56-7.51,6.71-7.51,3.4,0,5.94,2.17,6.22,5.19v.12h-2.91v-.07a3.24,3.24,0,0,0-3.3-2.7c-2.25,0-3.65,1.89-3.65,5v0c0,3.08,1.41,5,3.66,5a3.16,3.16,0,0,0,3.28-2.54l0-.08h2.91v.11c-.31,3-2.76,5-6.22,5C693.77,126.65,691.21,123.77,691.21,119.13Z" style="fill: #aaa"/>
      <path d="M709.95,114.43h-4.3V112h11.59v2.47h-4.3v11.85h-3Z" style="fill: #aaa"/>
      <path d="M720,112h6.26c2.78,0,4.43,1.36,4.43,3.56v0a3.1,3.1,0,0,1-2.59,3.05v.18a3.41,3.41,0,0,1,3.27,3.41v0c0,2.51-1.89,4.09-4.95,4.09H720Zm3,2.22v3.73h2.26c1.61,0,2.5-.67,2.5-1.85v0c0-1.16-.82-1.85-2.25-1.85Zm0,5.71V124h2.67c1.74,0,2.67-.73,2.67-2.09v0c0-1.33-1-2-2.73-2Z" style="fill: #aaa"/>
      <path d="M738,112h3.53l5,14.32h-3.15l-1.07-3.47h-5l-1.07,3.47h-3.14Zm-.08,8.6h3.69l-1.75-5.74h-.18Z" style="fill: #aaa"/>
      <path d="M468.2,136.21h3v9.57h.2l6.44-9.57h2.87v14.32h-3V141h-.18l-6.44,9.57H468.2Z" style="fill: #aaa"/>
      <path d="M489.48,136.21h3v9.57h.2l6.44-9.57H502v14.32h-3V141h-.18l-6.44,9.57h-2.88Z" style="fill: #aaa"/>
      <path d="M505.55,136.21h3V142H515v-5.81h3v14.32h-3v-6h-6.45v6h-3Z" style="fill: #aaa"/>
      <path d="M521.56,136.21h3V142H531v-5.81h3v14.32h-3v-6h-6.45v6h-3Z" style="fill: #aaa"/>
      <path d="M537,143.37v0c0-4.64,2.68-7.51,6.9-7.51s6.88,2.89,6.88,7.51v0c0,4.63-2.65,7.53-6.88,7.53S537,148,537,143.37Zm10.73,0v0c0-3-1.51-5-3.83-5s-3.85,1.93-3.85,5v0c0,3,1.49,5,3.85,5S547.68,146.4,547.68,143.37Z" style="fill: #aaa"/>
      <path d="M553.67,136.21h6.26c2.78,0,4.43,1.36,4.43,3.56v0a3.1,3.1,0,0,1-2.59,3V143a3.41,3.41,0,0,1,3.28,3.4v0c0,2.51-1.91,4.09-5,4.09h-6.43Zm3,2.22v3.73h2.26c1.61,0,2.5-.67,2.5-1.86v0c0-1.16-.82-1.85-2.25-1.85Zm0,5.71v4.16h2.68c1.72,0,2.65-.73,2.65-2.09v0c0-1.33-1-2-2.73-2Z" style="fill: #aaa"/>
      <path d="M571.68,136.21h3.53l5,14.32H577L576,147.05h-5l-1.07,3.48h-3.14Zm-.08,8.6h3.69l-1.75-5.74h-.18Z" style="fill: #aaa"/>
      <path d="M594.22,150.53H582.73V136.21h3v11.85h6.4V136.21h3v11.85h1.8v5.3h-2.71Z" style="fill: #aaa"/>
      <path d="M599.36,136.21h3v9.57h.2l6.44-9.57h2.87v14.32h-3V141h-.18l-6.44,9.57h-2.88Z" style="fill: #aaa"/>
      <path d="M614.8,143.37v0c0-4.64,2.68-7.51,6.9-7.51s6.88,2.89,6.88,7.51v0c0,4.63-2.65,7.53-6.88,7.53S614.8,148,614.8,143.37Zm10.73,0v0c0-3-1.51-5-3.83-5s-3.85,1.93-3.85,5v0c0,3,1.49,5,3.85,5S625.53,146.4,625.53,143.37Z" style="fill: #aaa"/>
      <path d="M631.52,136.21h3V142H641v-5.81h3v14.32h-3v-6h-6.45v6h-3Z" style="fill: #aaa"/>
      <path d="M647.54,136.21h3V142H657v-5.81h3v14.32h-3v-6h-6.45v6h-3Z" style="fill: #aaa"/>
      <path d="M662.92,143.37v0c0-4.64,2.68-7.51,6.9-7.51s6.88,2.89,6.88,7.51v0c0,4.63-2.65,7.53-6.88,7.53S662.92,148,662.92,143.37Zm10.73,0v0c0-3-1.51-5-3.83-5s-3.85,1.93-3.85,5v0c0,3,1.49,5,3.85,5S673.65,146.4,673.65,143.37Z" style="fill: #aaa"/>
      <path d="M679.65,150.53V136.21h9.23v2.47h-6.24v11.85Z" style="fill: #aaa"/>
      <path d="M690.51,143.37v0c0-4.64,2.68-7.51,6.9-7.51s6.88,2.89,6.88,7.51v0c0,4.63-2.65,7.53-6.88,7.53S690.51,148,690.51,143.37Zm10.73,0v0c0-3-1.51-5-3.83-5s-3.85,1.93-3.85,5v0c0,3,1.49,5,3.85,5S701.24,146.4,701.24,143.37Z" style="fill: #aaa"/>
      <path d="M712.44,136.21h5.9a4.69,4.69,0,0,1,5,4.89v0a4.69,4.69,0,0,1-5,4.89h-2.9v4.51h-3Zm3,2.37v5.09h2.18a2.4,2.4,0,0,0,2.72-2.54v0c0-1.63-1-2.53-2.72-2.53Z" style="fill: #aaa"/>
      <path d="M729,136.21h3.53l5,14.32h-3.15l-1.07-3.48h-5l-1.07,3.48H724Zm-.08,8.6h3.69l-1.75-5.74h-.18Z" style="fill: #aaa"/>
      <path d="M742.62,142.08h1.89c1.49,0,2.42-.78,2.42-2v0c0-1.1-.88-1.77-2.36-1.77s-2.44.67-2.53,1.85v0h-2.79v-.11c.14-2.62,2.21-4.28,5.39-4.28s5.15,1.56,5.15,3.89v0a3.31,3.31,0,0,1-2.7,3.24v.18a3.32,3.32,0,0,1,3.2,3.41v0c0,2.53-2.46,4.31-5.73,4.31s-5.54-1.79-5.64-4.37v-.07h2.88v0c.09,1.19,1.17,1.89,2.78,1.89s2.64-.79,2.64-2v0c0-1.19-1-1.93-2.7-1.93h-1.93Z" style="fill: #aaa"/>
      <path d="M753.16,136.21h6.26c2.78,0,4.43,1.36,4.43,3.56v0a3.1,3.1,0,0,1-2.59,3V143a3.41,3.41,0,0,1,3.28,3.4v0c0,2.51-1.91,4.09-5,4.09h-6.43Zm3,2.22v3.73h2.26c1.61,0,2.5-.67,2.5-1.86v0c0-1.16-.82-1.85-2.25-1.85Zm0,5.71v4.16h2.68c1.72,0,2.65-.73,2.65-2.09v0c0-1.33-1-2-2.73-2Z" style="fill: #aaa"/>
      <path d="M767.36,136.21h3v9.57h.2l6.44-9.57h2.87v14.32h-3V141h-.18l-6.44,9.57h-2.88Z" style="fill: #aaa"/>
      <path d="M786.9,138.68h-4.3v-2.47H794.2v2.47h-4.3v11.85h-3Z" style="fill: #aaa"/>
      <path d="M797,136.21h3v9.57h.2l6.44-9.57h2.87v14.32h-3V141h-.18l-6.44,9.57H797Z" style="fill: #aaa"/>
      <path d="M820.8,150.53v-5.17h-2l-3.4,5.17h-3.31l3.77-5.59a4.21,4.21,0,0,1-3.09-4.1v0c0-2.75,2-4.62,5.19-4.62h5.82v14.32Zm0-12h-2.43c-1.59,0-2.56.86-2.56,2.26v0c0,1.43,1,2.27,2.57,2.27h2.42Z" style="fill: #aaa"/>
      <path d="M468.29,174.77V160.45h8.5v1.6h-6.71v12.71Z" style="fill: #aaa"/>
      <path d="M478.48,167.61v0c0-4.6,2.52-7.49,6.57-7.49s6.57,2.9,6.57,7.49v0c0,4.57-2.48,7.5-6.57,7.5S478.48,172.19,478.48,167.61Zm11.31,0v0c0-3.57-1.81-5.84-4.74-5.84s-4.74,2.26-4.74,5.84v0c0,3.54,1.77,5.85,4.74,5.85S489.79,171.16,489.79,167.61Z" style="fill: #aaa"/>
      <path d="M494.83,160.45h5.4a4.38,4.38,0,0,1,4.59,4.58v0a4.42,4.42,0,0,1-4.59,4.62h-3.62v5.11h-1.78Zm1.78,1.59v6h3.16c2,0,3.22-1.12,3.22-3v0c0-1.89-1.18-3-3.22-3Z" style="fill: #aaa"/>
      <path d="M507.29,167.61v0c0-4.6,2.52-7.49,6.57-7.49s6.57,2.9,6.57,7.49v0c0,4.57-2.48,7.5-6.57,7.5S507.29,172.19,507.29,167.61Zm11.31,0v0c0-3.57-1.81-5.84-4.74-5.84s-4.74,2.26-4.74,5.84v0c0,3.54,1.77,5.85,4.74,5.85S518.6,171.16,518.6,167.61Z" style="fill: #aaa"/>
      <path d="M521.71,177.6v-4.44h1.07c1-.56,1.43-1.83,1.53-3.7l.54-9h9.06v12.71h1.79v4.44h-1.66v-2.83H523.37v2.83ZM525,173v.11h7.15v-11.1h-5.68L526,169.5A5.81,5.81,0,0,1,525,173Z" style="fill: #aaa"/>
      <path d="M542.38,160.45h1.76l5.29,14.32h-1.87l-1.44-4.1H540.4l-1.43,4.1h-1.88Zm-1.44,8.71h4.64l-2.25-6.4h-.16Z" style="fill: #aaa"/>
      <path d="M557.73,160.45h2.08l4.9,11.95h.16l4.9-11.95h2.08v14.32h-1.67V163.84h-.11l-4.53,10.93H564l-4.53-10.93h-.1v10.93h-1.67Z" style="fill: #aaa"/>
      <path d="M575,167.61v0c0-4.6,2.52-7.49,6.57-7.49s6.57,2.9,6.57,7.49v0c0,4.57-2.48,7.5-6.57,7.5S575,172.19,575,167.61Zm11.31,0v0c0-3.57-1.81-5.84-4.74-5.84s-4.74,2.26-4.74,5.84v0c0,3.54,1.77,5.85,4.74,5.85S586.34,171.16,586.34,167.61Z" style="fill: #aaa"/>
      <path d="M590.82,167.63v0c0-4.61,2.42-7.49,6.31-7.49a5.59,5.59,0,0,1,5.8,4.64v0h-1.79v0a3.94,3.94,0,0,0-4-3c-2.74,0-4.47,2.26-4.47,5.84v0c0,3.58,1.72,5.84,4.48,5.84a3.81,3.81,0,0,0,4-2.67l0,0h1.8v0c-.48,2.62-2.73,4.32-5.78,4.32C593.25,175.11,590.82,172.23,590.82,167.63Z" style="fill: #aaa"/>
      <path d="M606,174.77V160.45h1.78v6.29h.52l5.91-6.29h2.25l-6.61,6.88,7.19,7.44h-2.37l-6.36-6.6h-.52v6.6Z" style="fill: #aaa"/>
      <path d="M619.54,160.45H625c2.63,0,4.23,1.38,4.23,3.56v0a3.16,3.16,0,0,1-2.46,3.08v.16a3.39,3.39,0,0,1,3.19,3.48v0c0,2.51-1.8,4-4.85,4h-5.58Zm1.78,1.58v4.59h2.86c2.17,0,3.27-.77,3.27-2.28v0c0-1.45-1-2.29-2.81-2.29Zm0,6.13v5h3.54c2.16,0,3.28-.87,3.28-2.52v0c0-1.65-1.17-2.5-3.45-2.5Z" style="fill: #aaa"/>
      <path d="M633,160.45h1.78v5.31h3.5a4.37,4.37,0,0,1,4.6,4.51v0a4.34,4.34,0,0,1-4.58,4.49H633Zm1.78,6.91v5.8h3.06c2.05,0,3.22-1,3.22-2.88v0c0-1.85-1.18-2.9-3.22-2.9Zm10.76-6.91h1.78v14.32h-1.78Z" style="fill: #aaa"/>
    </g>
    <g>
      <g>
        <path d="M403.36,95.86a4.08,4.08,0,0,0,.88.13,1.07,1.07,0,0,1,1.22,1c.2.93,0,1.48-.68,1.77l-.4.15a2.7,2.7,0,0,0,.33,1c.86.93.76,2,.68,3.15s-.06,2.12-.08,3.19a1.79,1.79,0,0,0,.16.47c.33-.22.61-.4.89-.59a3.79,3.79,0,0,1,3.42-.76,14.88,14.88,0,0,0,3.88.07c.38,0,.39-.26.22-.54s-.4-.6-.7-1a9.53,9.53,0,0,1,1.38.19c.64.2,1,0,1-1a24.51,24.51,0,0,1,1.91,1.6,1,1,0,0,0,1.14.33,2.69,2.69,0,0,1,3.47,1.87l-.53.09c.55,2,1.86,3.48,2.86,5.19a4,4,0,0,0,1.33,1.17,1,1,0,0,1,.58.93,10.74,10.74,0,0,1,.06,1.32,1.32,1.32,0,0,1-.48.83c-.14.1-.52-.09-.77-.21a4.46,4.46,0,0,1-.64-.46l.23,1a4,4,0,0,1-1.09-.21,9.69,9.69,0,0,1-1.32-.9,5.33,5.33,0,0,0-3.18-.81c-.56,0-.61.38-.51.76a15,15,0,0,0,.66,2c.62,1.47,1.26,2.94,2,4.38a10.16,10.16,0,0,0,1.13,1.65c.83,1.09,1.75,2.11,2.49,3.25a6.41,6.41,0,0,1,.71,2.08c.19.84.38,1,1.09.58a29.45,29.45,0,0,0,2.87-2.06c.73-.58,1.34-.59,1.73.27a16.57,16.57,0,0,0,3.91,5.36,2.2,2.2,0,0,1,.63,1.56c.07.91.33,1.81.43,2.72a20.44,20.44,0,0,1,.08,2.47c0,.44-.32.49-.63.27a21.27,21.27,0,0,1-1.74-1.38c-.55-.5-.2-1,.16-1.4a1.67,1.67,0,0,0,.28-2.31,4.15,4.15,0,0,0-.5-.53c-.18-.2-.52-.44-.49-.6.19-1-.67-1.44-1.16-2a7.59,7.59,0,0,0-1.47-1.28c-.18-.13-.61-.2-.73-.08-1.42,1.28-2.8,2.61-4.19,3.92l.15.3a11.91,11.91,0,0,0,1.74-.16,1.38,1.38,0,0,1,1.74.78,16.39,16.39,0,0,0,3.48,5.23,2,2,0,0,1,.4,1.29,8.5,8.5,0,0,0,.81,3.42,11.28,11.28,0,0,1,.57,2.42c.08.42-.12.66-.55.45a22.6,22.6,0,0,1-2.19-1.15.75.75,0,0,1-.21-1.15,4,4,0,0,0,.37-.82,2.11,2.11,0,0,0-.54-2.47c-.51-.47-1-.91-.6-1.74.1-.23-.21-.72-.45-1-.65-.69-1.41-1.29-2-2a1,1,0,0,0-1.34-.29c-1.41.59-2.85,1.12-4.25,1.73a16.13,16.13,0,0,1-7,1.82l2.16,2.75.08-.16.47.21-.64.39-.35-.43-11.25-15q-8.41-11.19-16.83-22.38a7.2,7.2,0,0,0-1.21-1.24.72.72,0,0,0-.7.07c-.12.12-.07.5,0,.7a4,4,0,0,0,.62.72c-.42.39-.4,1.1,0,2.08l.25-.76.14,0,.08,1.4h.1l.12-.4h.1l.15,1,.4-.65.17,1.07.37-.75.3,1.58h.13l.21-1.41,27.77,36.27.2-.09-.19-2.18c.19.29.41.33.76.2,1-.39,1.28-.23,1.64.79a15.86,15.86,0,0,0,.7,1.66,1.82,1.82,0,0,0,1.31,1,2.5,2.5,0,0,1,1.4,1.38,13.09,13.09,0,0,0,1.85,3.33c.68.88.64,1-.48,1.3.14.64,0,1.1-.79,1.18-.1,0-.25.33-.23.5a3.73,3.73,0,0,1-1.34,3.07c-1.11,1.08-2.15,2.23-3.24,3.33a3.72,3.72,0,0,1-.74.51c-.37.23-.38.48-.11.8a1.19,1.19,0,0,0,1.63.29c1-.79,2.1-.43,3.1-.13a3.2,3.2,0,0,1,1.32,1.15c.12.14-.12.57-.19.88-.32-.33-.51-.66-.8-.81a3.1,3.1,0,0,0-1-.13c.36,1.44.34,1.65-.23,2.15a1.22,1.22,0,0,0-1.62-.88c-.88.23-.13.91-.31,1.34,0,0-.11,0-.13,0-1-1.14-2.18-1.11-3.49-.69-1,.31-1.93.62-2.91-.13-.51-.4-3.16.4-3.54,1L411,167c-.62-.77-.16-1.85,1-2.29.34-.13.72-.19,1.07-.31.13,0,.33-.21.32-.3a.66.66,0,0,0-.28-.42c-.61-.38-.61-.37-.5-1a2.54,2.54,0,0,0-2.65.33c-.75.6-.75.6-1.22-.29,0,0-.06-.07,0,0l-1.66-.18a10.23,10.23,0,0,0-1.1-.13,4.18,4.18,0,0,1-2.75-.75,1,1,0,0,0-1.54.13c-.32.49-.2,1,.42,1.5s1.21,1,2.05.38c.17-.12.54,0,.81.08a5.93,5.93,0,0,1,.54.29c.63.25.71.37.6,1-.29-.13-.6-.38-.89-.37a3.06,3.06,0,0,0-1.2.44c1.62.66,1.85,1,1.23,2,0-.74-.39-.57-.87-.53a9.93,9.93,0,0,1-2.46-.22,3,3,0,0,0-2.09.06l.4,1.33a12.45,12.45,0,0,1-1.3-.21,2.79,2.79,0,0,1-.9-.41c-.31-.23-.55-.43-1-.24-.19.08-.59-.15-.78-.35a2,2,0,0,0-.92-.45,2.43,2.43,0,0,0-2.43.39.81.81,0,0,1-.74,0c-.71-.49-1.15,0-1.61.39-.06.06-.14.1-.33.07a6.44,6.44,0,0,1,.65-1.17,7.27,7.27,0,0,1,1.33-1.21,1.74,1.74,0,0,1,.91-.18c.58,0,1.16.09,1.74,0,.73-.08.92-.61.46-1.18a4.84,4.84,0,0,0-.78-.79.84.84,0,0,1-.22-1.27,8,8,0,0,1,1-1.15c.59-.57.59-.87.1-1.53a1.72,1.72,0,0,1-.23-1c0-.43-.13-.68-.57-.7-.59,0-1.18,0-1.69,0,.16,1,.36,1.85.42,2.73a2.34,2.34,0,0,1-1.23,2.26,5,5,0,0,1-4.48.8,3.32,3.32,0,0,1-2.37-3.31c0-.65.08-1.29.12-1.94,0-.32,0-.58-.41-.64-1.37-.19-2.73-.42-4.19-.65a2.47,2.47,0,0,0,.17,2.22c.75,1.22,1.46,2.47,2.16,3.72a5.61,5.61,0,0,1,.31,1,6.94,6.94,0,0,1-3.33-.36.84.84,0,0,1-.36-.61,3.46,3.46,0,0,1,.08-1.24,3.06,3.06,0,0,0-.89-3.34c-1-.91-.95-1-.12-2,.4-.48.39-.78-.09-1.2-2.06-1.81-2.2-4.12-1.15-6.52.45-1,1.09-2,1.61-3a3.83,3.83,0,0,0-.18-4,4.38,4.38,0,0,0-.44-.51c-1.12,1.08-2.58,1.65-3.27,3.12a11.57,11.57,0,0,0-1.19,4.33,5.2,5.2,0,0,1-.35-.58,11.32,11.32,0,0,1-1-5.42,3.2,3.2,0,0,1,1-1.88,9.36,9.36,0,0,0,1.17-1.84c.24-.46,0-.79-.48-1.05a14.57,14.57,0,0,1-2.35-1.57,2.43,2.43,0,0,1-.43-3,2.19,2.19,0,0,1,2.29-1.56c.78,0,.78,0,.65-1.16.84.38,1.13,1.74.72,3.17l-1.31-1.1.16-.27c-1.08-.22-1.72.24-1.82,1.26a2.19,2.19,0,0,0,1.17,2.33c.52.28,1.05.52,1.67.82A11.71,11.71,0,0,1,377,130.8a13.55,13.55,0,0,1,2.85-3.1c1.72-1.25,3.71-1,5.56-.19,1,.47,2,1.18,3,1.74a1.3,1.3,0,0,0,.81.12c1.29-.25,2.57-.53,3.85-.83.21,0,.56-.24.54-.32a.94.94,0,0,0-.36-.65.73.73,0,0,1-.55-.77c0-.14-.28-.32-.47-.42a6,6,0,0,1-1.17-.52c-3.18-2.69-6.72-2.81-10.46-1.5l-.83.28-.21-.15c.19-.41.35-.84.58-1.23.39-.68,1.2-1.13,1.1-2.08,0-.14.24-.32.39-.46.45-.44.92-.86,1.35-1.32a1.16,1.16,0,0,0,.2-1.41c-.76-1.57-.33-2.48,1.34-3a20.63,20.63,0,0,0,2.16-.74,1.88,1.88,0,0,0,.9-.71,1.45,1.45,0,0,0,0-1.09c-.07-.18-.52-.29-.81-.29-.6,0-1.2.07-1.89.12a1.61,1.61,0,0,1,.16-.54c.67-.78,1.36-1.55,2-2.33.17-.19.4-.45.38-.66-.07-.76-.22-1.5-.35-2.25a.43.43,0,0,0-.09-.19c-.7-.87-1.38-1.75-2.12-2.58a1.42,1.42,0,0,1-.43-1.35,2.12,2.12,0,0,0-.39-1.39c-.78-1.15-1.66-2.24-2.49-3.35a2.24,2.24,0,0,1-.35-.59,1.46,1.46,0,0,1,0-.52l.49.22c-.65,0-.27.33-.14.5.83,1.12,1.68,2.22,2.53,3.33.18.23.39.43.57.63.69-.37.15-.69.08-1,.23.15.46.42.69.42,1.38,0,1.71,1.06,2.17,2a1.13,1.13,0,0,0,.54.56,1.66,1.66,0,0,1,1.2,1.69c0,.85.63,1.31,1.15,1.81.12.12.58,0,.8-.12.64-.41,1.22-.92,1.86-1.34a1.64,1.64,0,0,1,2.46.23c-.34,0-.68-.12-1-.15a1.66,1.66,0,0,0-1.67.86c1.21.08,2.43-.28,3.34.68.1-.06.24-.21.31-.18.45.2.88.43,1.31.66a10,10,0,0,0,1.31.68,3.51,3.51,0,0,0,1.05,0l-4.66-2.59c.27,0,.54-.05.82,0a3.31,3.31,0,0,1,1,.07c1.4.48,1.93.13,2.08-1.39a8.51,8.51,0,0,1,.2-1.79,16.27,16.27,0,0,1,1-2l.41-.88c-2,.3-3.75.49-5.39-.48v-.2l1.43-.14c-.71-.62-1.56-1-2-2,.37.13.58.18.77.27a3.85,3.85,0,0,0,3.84-.31l1.29-.81a1.7,1.7,0,0,1,2.27.2,2.21,2.21,0,0,0-2.52.26,11.14,11.14,0,0,1-1,.59,4.31,4.31,0,0,1-2.72.66,14.31,14.31,0,0,1-1.44-.36,2.7,2.7,0,0,0,2.38,1l0,.22-1.77.72a2,2,0,0,0,.39.21,2.51,2.51,0,0,0,2.77-1,2.85,2.85,0,0,1,2.09-1.2c.9-.1,1.65,0,2,1l.45-.35.93.29c.09-.38.33-.79.25-1.12a.87.87,0,0,0-1.07-.73l.09.68Zm-4.53,36.46h0l.24-1.54-.22,0a16.83,16.83,0,0,0-.42,6.34,18.89,18.89,0,0,1,0-6.42,17.1,17.1,0,0,0-.79,6.53,20.29,20.29,0,0,1,.33-6.59c-1.06,2.13-.78,4.41-.82,6.65a17.31,17.31,0,0,1,.28-6.67,2.58,2.58,0,0,0-.38.77,17.88,17.88,0,0,0-.45,5.39c0,1.28,0,1.28,1.32,1.13l.28,0c1.13-.1,2.26-.19,3.39-.31.3,0,.76-.2.38-.51s-.31-.68-.31-1c0-1.61,0-3.22,0-4.84l-.11,0-.3,5v-5.27c-.73,1.91-.25,3.91-.58,5.86V131h-.27v5.83h-.19v-5.94a37.33,37.33,0,0,0-.44,5.91v-5.9c-.84,1.93-.26,4-.47,5.93v-6l-.28.82ZM410.3,118l-.16.08,1.08,2.44-.78-.73-.13.09.85,1.71-.1.05-.76-1-.13.08.73,1.66-.07,0-.67-.79-.11.07.71,1.71-.08,0-.91-1.12-.1.05.94,1.93-.18.17-.94-1.06,0,0,1,1.66-.06.06-.9-.73-.07.07.52,1-.09.05-.92-.8-.13.09,1,1.58-.58-.31-.56-.32c.37,1,.37,1.06,1.27,1.19,1.15.16,2.3.28,3.45.39,2.51.25,5,.9,7.56.72l-.65-1.15,1.13.3-1.18-1.81,1.12.3-1.06-1.57.76.06-.82-1.16.95.29c-.19-.54-.32-1-.49-1.4q-1.47-3.78-3-7.55a.91.91,0,0,0-.29-.39,2.14,2.14,0,0,1-.77-2.69,4.77,4.77,0,0,0,.14-.53l.61,1.52.36-.63.33,1.28.14,0,.12-.4c.35.34.64.83,1.05,1a32.83,32.83,0,0,0,3.33.92,1.32,1.32,0,0,0,.78,0c.63-.26.92-.16,1.19.47a1.93,1.93,0,0,0,.48.73,2.45,2.45,0,0,0,.77.28l.21-.89-.29-.16-.26.51-.21-.1c.08-.25.08-.58.24-.74.52-.49.26-.83-.21-1a3.47,3.47,0,0,1-2.28-2.42,3.39,3.39,0,0,0-.34-.61c-.29-.51-.61-.83-1.06-.16l-1.07-.92.95-.84a2.09,2.09,0,0,0-.36-.22,3.2,3.2,0,0,1-2.43-1.68c0-.1-.22-.17-.35-.19a11.54,11.54,0,0,0-2.09-.34,3.33,3.33,0,0,0-1.69.42c-.32.2-.4.78-.58,1.17l-.33-.4.19,1.51-.48-.78-.11,0,.14,1-.08,0-.39-.84-.14,0,.33,1.59-.68-1.09.3,1.53-.12,0-.52-.78-.09,0,.32,1.58-.55-.62-.09.05.33,1.19-.11,0-.62-.75-.13.08.54,1.31-.1,0-.59-.67.42,1.45-.07,0-.52-.78-.08,0,.58,1.51-.1,0-.67-1-.09,0,.71,1.91-.09,0-.69-.75-.14.1.91,1.85-.1.05-.78-1-.11.06.86,1.95-.09,0-.8-1-.13.07,1.18,2.59-.12.06Zm-31.61,38.76a.43.43,0,0,0,.06.09,11.58,11.58,0,0,1,.93,1.22,3.54,3.54,0,0,1,.54,1.37c.09,1,.33,1.27,1.57,1.08l-.69-1.27c-.32-.61-.94-1.24-.89-1.82a11.06,11.06,0,0,1,.92-3.23,27,27,0,0,1,1.48-2.59c.11-.2.25-.58.15-.68-.33-.36-.1-.64,0-1,.17-.48.32-1,.43-1.3l.76-.35.13.51.38-.76.29.34.41-.67.17.66.46-.85.25.66.53-.89.15.34.45-.58.12.49.74-1.17.08.82.6-.94.09.8.59-1.22.29.33.63-1,.15.27a6.27,6.27,0,0,1,.79-.65c.24-.14.57-.12.8-.27.85-.57,1.69-1.15,2.49-1.78.53-.42,1-.92,1.52-1.43l.83-.17.39.69.2-.87.25,1.06.12,0,.32-1,.39.83.24-.89.37.62.48-1,.19.78.42-.83.29.53.35-1.54c-1.64.21-3.18.38-4.71.62a1.88,1.88,0,0,0-1,.57,13.58,13.58,0,0,1-7,4.22,6.39,6.39,0,0,1-.77.1l-.12-.24,1.13-.91.14.51.72-1.37.06,1,.83-1.45.11,0v.78l.11,0,.44-1.37.1,0,.05.9.14,0,.4-1.33.09,0,.1.93.6-1.89h.09v1h.1l.37-1.73.12,0,0,1.09.2,0,.44-1.91.13,1.41h.21l.2-1.74h.08l.26,1.12h.28c.14-2.54.29-5.09.4-7.63,0-.12-.34-.38-.49-.36-.93.1-1.85.27-2.77.41l0-.11,3.25-.8a7.46,7.46,0,0,0-6.7,2.75,5,5,0,0,1,1.87-2.24,6.86,6.86,0,0,1,4.06-1,5.43,5.43,0,0,0,1-.15l-.06-.27a9,9,0,0,0-5,.78,7.94,7.94,0,0,0-3.13,4c.37-2.2,1.44-3.93,3.59-4.63a20.14,20.14,0,0,1,3.83-.51c.32,0,.64-.06,1-.08q-.18-.33-.36-.33a19.3,19.3,0,0,0-3.53.07c-3.84.74-5.6,3.8-6,7.67-.2,2.17-.22,4.36-.3,6.54a2.82,2.82,0,0,1-1.21,2.24,15.87,15.87,0,0,1-1.57,1,1.77,1.77,0,0,0-.86,1.48,11,11,0,0,1-.65,2.89C380.42,153.49,379.54,155,378.69,156.73Zm40.18-8.44a9.16,9.16,0,0,0-.72-2.13c-1-1.47-2.06-2.85-3.1-4.28a.58.58,0,0,0-.89-.15,26.57,26.57,0,0,1-11.92,3.38,2.52,2.52,0,0,0-2.36,1.13,12.35,12.35,0,0,1-2.61,2.59c-1.66,1.41-2,1.53-.27,3.65,0,0,0,0,0,0a2,2,0,0,0,.64.15c.86-.09,1.72-.28,2.58-.33.66,0,.87-.23.55-.85a4.05,4.05,0,0,0-2-2.1c-.23-.09-.44-.21-.65-.32l0-.22a12,12,0,0,1,1.63.26,18.83,18.83,0,0,0,5.62.82.84.84,0,0,0,.66-.33c.08-.19-.09-.49-.18-.73s-.17-.2-.27-.3c.66-1.11.31-2.05-.5-3a3.29,3.29,0,0,1,.44.07,12.79,12.79,0,0,1,4.55,2.47.8.8,0,0,0,1.14.13,4.84,4.84,0,0,1,3.74-.59,2,2,0,0,1,1.48,2.85,11,11,0,0,0-.4,2.08c-.05.32.08.72-.08,1-.56.84-.31,1.75-.33,2.64a1.82,1.82,0,0,0,1.43,1.48,5.39,5.39,0,0,0,4.26-2.49,1,1,0,0,0,0-.68c-.12-.33-.33-.64-.47-1a14.19,14.19,0,0,0-.74-1.85c-.58-1-1.26-1.89-1.91-2.83a.93.93,0,0,1-.15-.23c0-.12-.09-.32,0-.37a.65.65,0,0,1,.42-.11A1.45,1.45,0,0,1,418.87,148.29Zm3.18-11,.06-.1,1.53.39-.51-.73,1.44.36-.06-.52,1.35.34-.2-.4a7.59,7.59,0,0,0,1.41-.37c.7-.33.83-.37,1.34.09l1,.9a1.4,1.4,0,0,0-.11-1.74,1.59,1.59,0,0,0-1.54-.73c-2.21.23-4.43.39-6.65.53a1.28,1.28,0,0,1-.94-.34c-.54-.64-1-1.35-1.45-2l.16-.13.66.14-.32-.82.66.14-.15-.82.73.08-.48-1,.64-.08c0-.65-.53-.7-.92-.78-1.59-.31-3.18-.61-4.78-.86-1.07-.17-2.16-.28-3.24-.41a1.09,1.09,0,0,0-.33.08l.17.66-1.21-.71.51.88-1.22-.81-.07.11.45.68-.09.06-1-.86-.08.08.88,1.3-.56.07.31.81-.67-.12.28.63-.48,0,4.91,6.12.09-.77,1.61,1.49-.42-1.09.13-.09,1.56,1.43L415.9,137l1.7,1.52.11-.14-.7-1.05.11-.1,1.65,1.12.1-.12-.7-.94L420,138.4l.1-.13-.68-.9.08-.1,1.78,1,.08-.12-.75-1,2,.86.07-.13Zm-41.5,14.31.25,0c.22-1.06.49-2.11.65-3.17a1.32,1.32,0,0,1,.66-1c.75-.54,1.46-1.15,2.16-1.75a2.13,2.13,0,0,0,.72-1.74c0-1.16-.08-2.32-.08-3.48,0-1.46,0-2.93.11-4.38a10.77,10.77,0,0,1,1.48-4.31c.41-.75.32-1-.53-1a4.4,4.4,0,0,0-3.7,1.41,11,11,0,0,0-2.63,5.37,1.12,1.12,0,0,0,.39,1.16,5,5,0,0,1,1.64,3.28,10.91,10.91,0,0,1-.8,5,19.43,19.43,0,0,0-.85,2.7A1.9,1.9,0,0,0,380.55,151.6Zm2-22.46a10.83,10.83,0,0,0-4,6.62c-.3,1.42.12,3-.86,4.3a3.15,3.15,0,0,0,1.25-2.12,12.74,12.74,0,0,1,2.49-6.26,13,13,0,0,1,2.13-1.85,2.85,2.85,0,0,1,.85-.25l-1.88,1.29.1.17c.21-.11.43-.22.64-.34a4.4,4.4,0,0,1,3-.57,2.26,2.26,0,0,0,.69.08,3.13,3.13,0,0,0,.69-.28c-.1-.2-.14-.49-.3-.6a28.84,28.84,0,0,0-2.7-1.7,4,4,0,0,0-1.6-.38,5.91,5.91,0,0,0-4.64,2.16,7.58,7.58,0,0,0-1.93,3.36l1-1.32.16.09a9.22,9.22,0,0,0-1.47,4.42,7.77,7.77,0,0,1-2.23,5.3,2.81,2.81,0,0,0-.38,2.82,8.22,8.22,0,0,1,1.38-1.81,7.12,7.12,0,0,0,2.82-5.63,9.53,9.53,0,0,1,3.75-7A5.16,5.16,0,0,1,382.56,129.14Zm11.77,23.15a4.06,4.06,0,0,0-.51-.77,12.42,12.42,0,0,0-1.25-1c-.6-.42-.62-.67-.16-1.22s1.07-1.33,1.57-2a1.59,1.59,0,0,0,.24-.78c0-.37-.22-.51-.55-.37-1,.44-2.05.94-3.1,1.35-1.79.68-3.6,1.3-5.4,2-.32.12-.73.2-.91.45-.62.82-1.15,1.71-1.73,2.59a3.83,3.83,0,0,0,2.2.62.84.84,0,0,1,.51.18,1.54,1.54,0,0,0,1.35.34c.29,0,.59.07.89.08a2.42,2.42,0,0,0,.87-.06c1.37-.51,2.83-.69,4.18-1.3A5.08,5.08,0,0,1,394.33,152.29Zm-3.86-30.14,1.05-.78.12.1-.21.81,1.37-1.13-.13.91.13.09,1.15-1.37.16.78,1.26-2-.13-.19c-2.31.74-4.63,1.31-7.08.54a7.11,7.11,0,0,1,1.5-.89c.82-.37,1.82-.33,2.45-1.14.06-.08.34,0,.52,0l.33-.72.21.49.52-.75c.54.62.66,0,.91-.23l-.39-.68-.86.11,0-.42h-1.8l.26-.54-1.8.2,0-.18-1.85.19v-.16l-.79.41.26-.55c-.65-.2-1.13.58-1.86.11-.26-.17-.94.26-1.39.48a3.28,3.28,0,0,0-1,.71c-.33.37-.08,1.44.34,1.53l.27-.49.26.33.21-.38.32.36.2-.36.42.6.07-.68.33.45.25-.3.29.56.23-.65.3.48.33-.56.07.94.45-.93.12.72.34-.55.15.78.54-.81.25.21.27-.38.2.54,1.18-.36a3.56,3.56,0,0,1-1.06.9c-1.26.73-2.71.73-4.08,1a18.43,18.43,0,0,0-3,.91c-.37.14-.62.6-1,1l.73.22,1.24-.61.15.44,2.11-.13,0,.35,1.29-.24v.16l1.15.13-.07.18h1.53l-.07.45.72-.4Zm21.84,36.18.16.15L411,160.86l.2.12a7.42,7.42,0,0,0,2.32-2.95,2.2,2.2,0,0,0-.31-2.72,1.9,1.9,0,0,1-.53-2,2,2,0,0,0,0-1c-.11-.61-.26-1.22-.39-1.82a1.19,1.19,0,0,0-1.33-1,11.35,11.35,0,0,0-1.44.21,22,22,0,0,1-7.41.36,5.42,5.42,0,0,0-.77,0l0,.21c.56.24,1.21.78,1.67.64.73-.21,1.33.34,2,0,.35-.14.88.22,1.34.25s1-.19,1.39.25l.06,0-.09-.44.93.54-.14-.85.73.55,0-.72.6.73.13-.46h.2l.14,2.49.49-1.39c.06,1.23-.12,2.32-1.36,3a5.46,5.46,0,0,1-1.12.4,7.08,7.08,0,0,0-1.8,1.16c1.68.06,2.9-1.08,4.35-1.49l.16.2-.87,1-.1-.19-2.49,1.38a4.28,4.28,0,0,0,1.75-.22c.87-.38,1.68-.91,2.57-1.4l.38,1.33-.08,0-.26-.35-.44,1.28-.28-.43-.18,1.46-.31-.45,0,.22-.87.44-.1-.18-.55,1.25A5.83,5.83,0,0,0,412.31,158.33ZM402.37,114a2.69,2.69,0,0,0,.19.35c.1.14.26.38.34.36s.44-.21.44-.34a10.59,10.59,0,0,0,0-2.48c-.07-.38-.64-.67-1-1.05l-.57,1.08-.62-1-.53,1a.71.71,0,0,1-.24-.39c-.07-.2-.16-.39-.24-.58-.16.12-.32.26-.49.37a2.14,2.14,0,0,1-.34.15c0-.16-.17-.35-.13-.49.1-.32.18-.66-.23-.71a.84.84,0,0,0-.67.42,14,14,0,0,0-.79,2.29c-.21.88.21,1.21,1.07.92l.18.92c1,.24.41-1,1-1l.67,1.25.59-.82C401.54,114.84,401.54,114.84,402.37,114Zm-6.9,25.65c.49-.06.89-.1,1.3-.16l4.59-.69c.53-.08.82-.36.73-1.07l-5.65.47a1.41,1.41,0,0,1-.1-.26c0-.18,0-.37,0-.55a19.51,19.51,0,0,1,.71-6.74c0-.16-.07-.37-.11-.56-.19.09-.43.13-.55.28a1.88,1.88,0,0,0-.3.7A22.26,22.26,0,0,0,395.47,139.7Zm8-2,0-.11,1.28-1.12-.73.09,1-1.28-.1-.08-.48.26-.05-.08,1-1.33-.1-.07-.86.82-.1-.1,1-1.38-.87.54-.11-.13,1.75-1.92-.12-.11-.92.68-.07-.1,1.07-1.24a1.39,1.39,0,0,0-.64.23c-2,1.21-1.95,1.22-2.16,3.51-.15,1.59-.14,3.28-1.53,4.48.44.47,1.08.85,1.21,1.36.33,1.3,1.07,1.32,2.08.95a.63.63,0,0,1,.14,0c.45-.06.52-.34.24-.61a12.33,12.33,0,0,0-1.23-1l-1-.77.68-.75-.37-.1.53-.75Zm-8.13-15.34-.11-.23c-.33.12-.68.21-1,.36a6.68,6.68,0,0,1-4.87.36,21.35,21.35,0,0,0-6.94-.77,2.39,2.39,0,0,0-2,1.13,1.38,1.38,0,0,0-.11.5l.19.09.43-.56.17.23,1.28-.42.14.28a7.05,7.05,0,0,1,1.4-.56c.36-.06.88.29,1.14.14.59-.35,1.13,0,1.66,0a7.68,7.68,0,0,1,2.39.75c.32.11.64.17,1,.26l0,.4.68-.3v.54l1.17-.92-.08.68.94-.82.22.62.57-.8.15.12.08.62Zm9.58-19.63.05-.22c-.24-.16-.47-.44-.71-.45a16.62,16.62,0,0,0-2.59.06.87.87,0,0,0-.48.71,19.15,19.15,0,0,0,.65,2.76,1.49,1.49,0,0,0,.72.81c.33.15.91.25,1.12.07a3.56,3.56,0,0,0,1.27-2.83h-1.26l0-.58ZM405,117a2.44,2.44,0,0,1,1.37-2c2-1.19,3.3-3.09,4.58-5a6,6,0,0,0,.45-1l-.24-.18a7.94,7.94,0,0,0-1.33,1.24,14.23,14.23,0,0,1-4.49,4.48A1.65,1.65,0,0,0,405,117Zm.61,4.08.12.13a2.36,2.36,0,0,0-1.37,2.75c.83-1.61,2.89-2,3.69-3.86l-.94.41c.52-.44,1.12-.77,1.32-1.62l-.82.54.22-1.35c-.71.6-1.35,1.17-2,1.71a4,4,0,0,0-1.36,2.06ZM396.71,155l.08,0,.47-.43-.54,2.84.22,0c.16-.54.27-1.1.48-1.62a13.48,13.48,0,0,1,.73-1.37l.19.1-.39.73.11.06,1.51-1.3.06.09-1.17,2.3a11.92,11.92,0,0,0,1.61-1.94,13.94,13.94,0,0,0,.71-1.32c-.53-.07-1.05-.17-1.58-.22a24.56,24.56,0,0,1-2.54-.19c-.84-.16-.89-.21-1.15.69h1.88Zm11.88-27.69v.39c.81.1,1.62.17,2.43.3l9.39,1.48a9.57,9.57,0,0,0,1.09.2c.13,0,.33-.21.38-.37a.48.48,0,0,0-.21-.43,3.21,3.21,0,0,0-.87-.22c-3.4-.46-6.79-.92-10.19-1.35A16.31,16.31,0,0,0,408.59,127.28Zm16.89,25.37c-.18-.51-.36-1-.52-1.47a6.05,6.05,0,0,0-.28-.92.6.6,0,0,0-.5-.27,3,3,0,0,0-.73.47c-.49-.25-.58-.59-.17-1a.79.79,0,0,0,0-1.33c-.21-.21-.44-.58-.8-.23s-.1.57.18.79c.06,0,.08.15.06.11l-.74,1.26-.65.1.63,1.18c.38.21.73.29.88.52a6.4,6.4,0,0,1,.5,1.25l.35-.66.43.91.07-1.18.81,1.24-.14-1Zm-20.05-14.33c1.36-.38,2.71-.74,4.05-1.15a.65.65,0,0,0,.29-.56,14.76,14.76,0,0,0-.63-2.2,8.13,8.13,0,0,0-.86-1.33,1.87,1.87,0,0,0-.14.37c0,.32,0,.65,0,1,.09,1.79.09,1.79-1.62,2.22l-.27.08C405.46,137,405.25,137.34,405.42,138.32Zm-.66-12.74a15.71,15.71,0,0,1,1.53-1.86,23,23,0,0,1,2-1.31,3.4,3.4,0,0,0,1-4.06,4.22,4.22,0,0,0-.58,1.06,4.87,4.87,0,0,1-2.35,3.11,7.79,7.79,0,0,0-1.59,1.62A1.09,1.09,0,0,0,404.76,125.58Zm-3.45-16.72c-1.46.19-2.66-.54-3.92-1.05a31,31,0,0,0-3-1.1c-1.06-.3-2.52-.25-3.05.5l1.65.62-.37-.61,1.57.87-.29-.79,1.08.77-.11-.7,1.44,1.23,0-.36c.27.15.71.45.75.4.36-.41.51,0,.72.14s.39.23.61.36l0-.35C399.54,109.58,400.49,109.62,401.31,108.86Zm1.78,18.65c-.2,0-.44.16-.49.1-.66-.74-1.17-.13-1.64.21-.74.53-.7.93.12,1.37a6,6,0,0,0,3.56.6,3.69,3.69,0,0,0,.78-.34L403,127.65Zm.93,25.31-.08.55-1.75-.24c.08.19.08.23.1.23l.24.13a9.54,9.54,0,0,0,6.3.42c1-.25,1.08-.43,1-1.6l-.42,1-.28-.59-.32.74-.17-.19-.24-.83-.42,1-.15-.64-.42.37-.12-.36-.36.41-.4-.85-.21.63-1.36.21-.21-.31-.22.46Zm6-13.59c.1-.4.17-.73.27-1.06.15-.51,0-.74-.54-.6-1.3.39-2.6.81-3.9,1.22a.63.63,0,0,0-.44.91l.6-.35.1.62.58-.53.14.67.57-.75.11,1.09.48-1.15.07.91.15,0,.34-1,.34.95.29-1,.31.57.28-1,.13.3Zm-2.1-29.88a3.62,3.62,0,0,1,2.77-2.27A11.24,11.24,0,0,1,412,107c1,0,1.42-.77,2.21-1.31C410.46,105.21,408,106.65,407.89,109.36ZM394.57,126c1.43,1,4.67.21,6.11-1.47l-.92.12a3.62,3.62,0,0,0-1.24.71c-.45.43-.92-.22-1.34.11l.08-.5-.57.49.15-.65-.62.44.48-1.25Zm-7.25-23.82-1.31-.73.64-.12,0-.24a3,3,0,0,0-1.09-.22c-.23,0-.43.43-.58.7-.05.09.07.29.13.51-.64.77-.64.85.16,1.68a1,1,0,0,0,.2.2c.25.13.5.25.75.37l.17-.68.82-.7-.5-.41Zm21,14.45-.09,2c1.06-1.35.71-3,1.36-4.3-1.65.87-3.27,2.48-2.89,4Zm1.36-3.83-2.74,2.22c-.34.28-.7.54-1,.85a2,2,0,0,0-.12,2.71,11.17,11.17,0,0,1,1-2.14,9.72,9.72,0,0,1,1.79-1.71A2.58,2.58,0,0,0,409.66,112.84Zm-3.61.52c2.15-1.54,3.4-4,5.78-5.26a2.61,2.61,0,0,0-2.16.84c-.91.82-1.83,1.63-2.73,2.47A2.75,2.75,0,0,0,406.06,113.35ZM388.26,112l.37.87c.31-1.31,0-2.36-.82-2.61s-2.06.57-2.46,1.65c2.3-.16,2.3-.16,2.71.72Zm33.41-5.51a2.45,2.45,0,0,0-4-.88A2.39,2.39,0,0,1,420,107l.45-.59.41,1.16H421l.06-1.26.26.05Zm-16.51,6.25c.37.22.53.16.49-.43s.21-1.38-.88-1.13c0,0-.06-.06-.1-.09-.52-.34-.84-.22-1,.39a2.12,2.12,0,0,0,0,1,5.31,5.31,0,0,0,.53,1Zm-5.21,14.44s-.1-.07-.11-.14c-.07-.45-.16-.8-.61-.23,0,.06-.17.06-.26.06-.56,0-.43.39-.32.69a6.39,6.39,0,0,0,.5.88,3.82,3.82,0,0,0,.52-.28c.54-.39,1-.81,1.59-1.18.33-.22.74-.34,1.08-.55.09-.06,0-.33,0-.5a1.47,1.47,0,0,0-.5,0c-.12,0-.16.26-.28.33C401.08,126.57,400.55,126.84,399.94,127.18ZM421.4,149.3a.54.54,0,0,0,.23-.09,1.73,1.73,0,0,0,0-1.77,4,4,0,0,1-.72-1.24c-.07-.32,0-.66-.42-.52a.85.85,0,0,0-.41.72,6.84,6.84,0,0,0,.59,1.46C420.87,148.34,421.13,148.8,421.4,149.3Zm-6.25,2.43a4.14,4.14,0,0,0,.36-.81c.07-.34,0-.72.08-1.06.17-.78,0-1.11-.63-1.34v2.08l-.94-.77c.17.53.42.92.36,1.24-.12.65-.05,1,.54,1.25l-.1-.78ZM403,97.42a5.15,5.15,0,0,0-2,.17,6.69,6.69,0,0,0-1.48,1.68l.14.18a6.6,6.6,0,0,0,1-.44C401.36,98.54,402.08,98,403,97.42Zm19.38,26.51.25,4.78C423.36,128.31,423.24,124.63,422.34,123.93Zm-17-16.52,1.21-.07,2.8-1.79a2.24,2.24,0,0,0-2,.34C406.71,106.39,406,106.92,405.37,107.41ZM387.06,106c0-1.24.63-1.68,1.75-1.61-.22-.59-.57-.82-1.05-.75a1.3,1.3,0,0,0-1.25.93A1.13,1.13,0,0,0,387.06,106Zm36.12,24.58-.21.07c0,.06-.09.12-.08.18.16,1.23.31,2.47.5,3.7,0,.11.2.2.31.3.09-.14.26-.29.24-.42-.11-.94-.23-1.87-.39-2.8A6,6,0,0,0,423.18,130.56ZM393.94,154l.21.09a2.48,2.48,0,0,0,.29-1c0-.17-.48-.35-.76-.41a2.17,2.17,0,0,0-1,0c-.59.15-1.3.2-1.44,1,.72,0,1.4-.85,2.06,0l.89-.53Zm13-10.88a2,2,0,0,0-2.83-1A3.17,3.17,0,0,0,406.91,143.08Zm5.37-35.58c-1.65-.68-3.76.47-3.79,2C410,108.16,410,108.16,412.28,107.5Zm-10.32-6c1.66.19,1.94,0,1.69-1.09-.12-.53-.54-.72-.9-.32A7.4,7.4,0,0,0,402,101.5Zm4.38,24.38a5.32,5.32,0,0,1,.41-.89c.17-.24.49-.38.63-.63a10,10,0,0,0,.52-1.32C406.36,123.46,405.77,124.59,406.34,125.89Zm27.22,20-1-.82c-.88,1-.78,1.54.3,2.08Zm-43.2,7.78c-1.11-.41-2.48.44-2.36,1.34l.61-.44.52.63.1-.58C390.06,154.84,390,154,390.36,153.68Zm25.1,8.31c.85-.79.65-1.89-.56-3.07l-.39.82.59.2-.29.53C415.82,160.66,415.14,161.48,415.47,162Zm-18.59-49.26a2.66,2.66,0,0,0,.63-2.68A2.41,2.41,0,0,0,396.88,112.73Zm1.17,48.9c-.73.9-.72,1.19,0,1.71a1.94,1.94,0,0,0,.63.17c0-.23.2-.51.12-.68A9,9,0,0,0,398,161.63Zm4.4-20c.32-1.11.22-1.32-.8-1.86C401.07,140.81,401.16,141,402.45,141.68Zm14.62,22.41c-.08-.91-.47-1.56-.82-1.39s-.75.66-.68.87C415.79,164.26,416.49,164,417.07,164.09ZM400.43,103.7a3.51,3.51,0,0,0,1.89,3.17Zm-19.06,58c-.15-.2-.33-.47-.54-.71a1.86,1.86,0,0,0-.44-.27,1.63,1.63,0,0,0-.27.5c-.09.78.26,1.17,1,1.22ZM407,143.46a5,5,0,0,1-3.36-1.32A2.55,2.55,0,0,0,407,143.46ZM403.91,100c0,.46.06.91.15,1.34a.52.52,0,0,0,.37.32.58.58,0,0,0,.43-.26A1,1,0,0,0,403.91,100ZM387.06,156a1.37,1.37,0,0,0-1,1.62l.75.08-.1-.59.38.11Zm32.57-12a1.42,1.42,0,0,0-.29,2.12,3.6,3.6,0,0,0,.53-1A3.22,3.22,0,0,0,419.63,144Zm2.27-14.44c.39.33.69.67.76.63a1.49,1.49,0,0,0,.62-.69c0-.13-.33-.59-.4-.56A5,5,0,0,0,421.9,129.59Zm-2.82,17.07-.23.07a6.14,6.14,0,0,0,.15.64,5.6,5.6,0,0,0,.41,1,.9.9,0,0,0,1,.56Zm-4.85-42.52-.08.17.73.79,0-.14,1.6.13,0-.09Zm-11.67-4.42c1.07.15,1.09.11.7-1.22A1,1,0,0,0,402.57,99.72Zm-4.12,66.92.19-.23-.87-1.09-.71.41Zm18.32-1.47a.86.86,0,0,0-1.18-.3c-.14.05-.21.29-.31.44a1.78,1.78,0,0,0,.54.1A8,8,0,0,0,416.77,165.16ZM389.46,158l-.64,1c.18.06.39.21.54.17C389.84,159,389.77,158.64,389.46,158Zm29.15,6.7,1.35.12C419.92,164.06,419.64,164,418.61,164.71Zm-12.46-53.6.27-.15a.82.82,0,0,0-.68-1l-.21.12Zm18.17,5.5.28-.33-1-.81-.22.26Zm-27.09-10.84-.12.17,1.5.59C398.44,106,398.06,105.81,397.23,105.77ZM385.9,159.42l.15,1.23C386.67,160,386.65,159.73,385.9,159.42Zm14.42-56.07c.77-.57.84-.94.33-1.33Z" style="fill: #aaa"/>
        <path d="M424.33,116.61l-1-.87.22-.26,1,.81Z" style="fill: #aaa"/>
        <path d="M398.83,132.31c0,.78,0,1.56.07,2.33s.07,1.51.07,2.27a13.49,13.49,0,0,1-.13-4.6Z" style="fill: #aaa"/>
        <path d="M401.75,103.27l.28-.91,1.4.5-.18.6Z" style="fill: #aaa"/>
        <path d="M403.81,105.33a1.65,1.65,0,0,1-.09.25l-1.07.07c0-.11,0-.3,0-.3C403,105.33,403.38,105.33,403.81,105.33Z" style="fill: #aaa"/>
        <path d="M422.78,151.07c.57.08,1,.27,1.45-.32l-.51,1.15Z" style="fill: #aaa"/>
      </g>
      <path d="M404.62,187.06a.84.84,0,0,1-.43-.12L398,183.32a13.94,13.94,0,0,0-7.08-1.93H374.92a14.8,14.8,0,0,1-14.78-14.78V90.18A5.86,5.86,0,0,1,366,84.33h77.26a5.86,5.86,0,0,1,5.85,5.85V166.6a14.8,14.8,0,0,1-14.78,14.78H418.27a13.94,13.94,0,0,0-7.08,1.93L405,186.94A.84.84,0,0,1,404.62,187.06ZM366,86a4.19,4.19,0,0,0-4.18,4.18V166.6a13.12,13.12,0,0,0,13.11,13.11H391a15.61,15.61,0,0,1,7.93,2.16l5.72,3.37,5.72-3.37a15.61,15.61,0,0,1,7.93-2.16h16.06a13.12,13.12,0,0,0,13.11-13.11V90.18A4.19,4.19,0,0,0,443.25,86Z" style="fill: #aaa"/>
    </g>
  </g>
  <g>
    <path d="M1000.47,427.84l0-.2h-5.26A36.2,36.2,0,0,0,940.35,391l2.93,4.68a30.68,30.68,0,0,1,46.34,32H979.12V409.76l-9.72,13.33V409.81l-9.67,13.24V400.13l-13.27,21v-21l-22.21,35a37.82,37.82,0,0,0,2.23,4.79L942,415.56v19.9l13.28-21.06v21L965,422.16v13.27l9.68-13.27v10.29h13.57a30.68,30.68,0,0,1-44.94,15.26l-2.92,4.68a36.21,36.21,0,0,0,53.71-19.94h5.42S1000.24,429.34,1000.47,427.84Z" style="fill: #aaa"/>
    <path d="M1001.43,422.18a35,35,0,0,1-.42,5.45l0,.21h5.86v12.68l9.66-13.24v13.24l9.7-13.3v20h3.28a61.43,61.43,0,1,0-2.26,4.43h-5.06V438.81l-9.68,13.27V438.81l-9.7,13.28V432.26h-2.72l0,.2a41.9,41.9,0,1,1,1.41-10.78Z" style="fill: #aaa"/>
  </g>
  <g>
    <g>
      <path d="M166.33,174.24h9.14l-2.24-7.35-2.14-8.38h-.34l-2.21,8.38Zm11.23,7.35H164.24L162,188.94c-.22.76-.51,1.1-1.63,1.1h-6.81c-.8,0-1-.59-.8-1.15l12.15-36.74c.8-2.69,1.85-3.16,4.23-3.21h3.5c2.63,0,3.6.34,4.52,3.21l12.15,36.74a.81.81,0,0,1-.75,1.15H181.6c-.87,0-1.43,0-1.68-.93Z" style="fill: #aaa"/>
      <path d="M217.69,181.07c1.09-.47,1.43-.17,1.8.71l2,4.21c.54,1.1.37,1.52-.34,1.94a25.32,25.32,0,0,1-13.44,3.28c-12.67,0-18.33-7.91-18.33-20.92S196.92,149,208.08,149a23,23,0,0,1,11.4,2.45c.87.49,1,.78.46,2.06l-1.8,4c-.41,1.05-.63,1.3-1.75.88a21.72,21.72,0,0,0-7.9-1.52c-6.42,0-9.85,5.73-9.85,13.37s2.43,12.81,10.06,12.81a24.16,24.16,0,0,0,9-2" style="fill: #aaa"/>
      <path d="M250.65,162.6l-5.18,8.79-9.72,16c-1.34,2.18-2,2.45-4.38,2.45h-2.31c-3,0-3.79-1.57-3.79-4V150.06c0-.83.37-1.13,1.22-1.13h6.22c1.07,0,1.24.24,1.24,1.13v26.43h.34l4.86-8.21,10.07-16.63c1.34-2.23,2-2.65,4.3-2.65h2.43c2.84,0,3.77,1.05,3.77,4.12V189c0,.81-.34,1.1-1.22,1.1h-6.22c-1,0-1.29-.22-1.29-1.1V162.6Z" style="fill: #aaa"/>
    </g>
    <polygon points="95.62 95.76 142.38 122.58 165.74 109.1 95.62 95.76" style="fill: #aaa;opacity: 0.55"/>
    <polygon points="119.05 162.95 142.41 149.49 72.29 136.13 119.05 162.95" style="fill: #aaa;opacity: 0.35000000000000003"/>
    <polygon points="72.26 109.23 95.62 95.77 26.34 82.87 72.26 109.23" style="fill: #aaa;opacity: 0.75"/>
    <polygon points="72.29 136.13 95.62 95.76 72.26 109.22 72.29 136.13" style="fill: #aaa"/>
    <polygon points="142.41 149.47 165.74 109.1 142.38 122.57 142.41 149.47" style="fill: #aaa"/>
    <polygon points="119.05 189.91 142.38 149.54 119.02 163.01 119.05 189.91" style="fill: #aaa"/>
  </g>
</svg>
