<svg xmlns="http://www.w3.org/2000/svg" width="272.2mm" height="75.03mm" viewBox="0 0 771.59 212.69">
  <title>8</title>
  <g>
    <path d="M90.83,151v1.51h13a3.24,3.24,0,0,1,3.89,3.89v13a3.24,3.24,0,0,1-3.89,3.89H97.55c-1.08,0-2.49,0-3-1.19s.22-2.27.87-3.13l8.43-11.22h-13l-5.2,6.91c-.87,1.16-1.62,2.16-1.62,3.46s.7,2.23,1.62,3.46l1.3,1.73c1.3,1.73,2.59,3.46,4.31,4.31s3.79.86,6.58.86h5.63c3.25,0,8.1,0,11.36-3.24s3.24-8,3.24-9.71v-5.2c0-1.73,0-6.48-3.24-9.71s-8.1-3.24-11.36-3.24h-9A3.14,3.14,0,0,0,90.84,151" style="fill: #aaa"/>
    <polygon points="75.36 157.69 88.2 157.69 72.73 178.43 59.56 178.43 75.36 157.69" style="fill: #aaa"/>
    <path d="M24.67,161.38a3.63,3.63,0,0,1,.87-2.81,3.64,3.64,0,0,1,2.81-.86H50.07c2.81,0,4.87,0,6.58.86s3,2.6,4.31,4.31l1.3,1.73c.92,1.23,1.63,2.16,1.63,3.46s-.76,2.3-1.63,3.46l-5.2,6.91h-13l8.43-11.22c.65-.87,1.41-1.94.87-3.13s-1.94-1.18-3-1.18H40.2v25.94H29.83V162.89h-5.2v-1.51" style="fill: #aaa"/>
  </g>
  <g>
    <path d="M117.75,65l5.19-3.88H105.56V84.35h17.37V80.47H110.52V74.54h10.61V70.67H110.52V65Z" style="fill: #aaa"/>
    <path d="M92.43,70.17h-6V65H96l5.19-3.88H81.45V84.35H91.79c5.79,0,9.14-2.66,9.14-7.3C100.93,72.61,97.93,70.17,92.43,70.17Zm-.83,10.3H86.42V74h5.19c3.16,0,4.62,1.07,4.62,3.23S94.65,80.47,91.61,80.47Z" style="fill: #aaa"/>
    <path d="M137,61.13h-9.44V84.35h5V77.77H137c6,0,9.78-3.19,9.78-8.32S143.05,61.13,137,61.13Zm-.11,12.77h-4.4V65h4.4c3.2,0,4.93,1.6,4.93,4.45S140.08,73.9,136.89,73.9Z" style="fill: #aaa"/>
    <path d="M73,79.33a8.86,8.86,0,0,1-4.29,1.1,7.68,7.68,0,1,1,4.51-13.91l3.57-2.66-.23-.23a11.72,11.72,0,0,0-8-2.81,12.7,12.7,0,0,0-8.8,3.31,11.52,11.52,0,0,0-3.46,8.48,12.06,12.06,0,0,0,3.46,8.63,12.36,12.36,0,0,0,8.76,3.42,11.74,11.74,0,0,0,8.8-3.54l-3.19-2.4Z" style="fill: #aaa"/>
    <path d="M40.73,61A20.62,20.62,0,0,1,43,64.81l-17.37,13-7.3-4.64V67.59l7.26,4.6Z" style="fill: #aaa"/>
    <path d="M10.94,72.76A5,5,0,0,1,11,72l-4.4-.23c0,.31,0,.65,0,.95a19.36,19.36,0,0,0,5.6,13.65l3.12-3.16A14.69,14.69,0,0,1,10.94,72.76Z" style="fill: #aaa"/>
    <path d="M25.61,57.93a4.92,4.92,0,0,1,.75,0l.23-4.45c-.3,0-.64,0-.94,0a19,19,0,0,0-13.5,5.66l3.12,3.16A14.45,14.45,0,0,1,25.61,57.93Z" style="fill: #aaa"/>
    <path d="M25.61,87.58a4.92,4.92,0,0,1-.75,0L24.63,92c.3,0,.64,0,.94,0a18.94,18.94,0,0,0,13.5-5.66l-3.12-3.16A14.24,14.24,0,0,1,25.61,87.58Z" style="fill: #aaa"/>
    <path d="M33.88,60.52l3.72-2.78a19,19,0,0,0-12-4.3v4.45A14.67,14.67,0,0,1,33.88,60.52Z" style="fill: #aaa"/>
    <path d="M44.71,72.76a20.89,20.89,0,0,0-.3-3.46l-4.1,3.08v.38a14.8,14.8,0,0,1-4.85,11l3,3.31A19.34,19.34,0,0,0,44.71,72.76Z" style="fill: #aaa"/>
    <path d="M25.61,87.58a14.5,14.5,0,0,1-10.87-4.9l-3.27,3A18.88,18.88,0,0,0,25.61,92Z" style="fill: #aaa"/>
    <path d="M15.79,61.77l-3-3.31A19.27,19.27,0,0,0,6.54,72.76h4.4A14.86,14.86,0,0,1,15.79,61.77Z" style="fill: #aaa"/>
  </g>
  <g>
    <g>
      <path d="M291,149.12h.1l2.72,6.69h1.28l2.72-6.67h.1v6.7h1.7v-9.75h-2.18l-2.92,7.07h-.12l-2.92-7.07h-2.18v9.75H291Z" style="fill: #aaa"/>
      <path d="M302.66,155.51a3.55,3.55,0,0,0,1.87.47,3.61,3.61,0,0,0,1.88-.47,3.25,3.25,0,0,0,1.23-1.32,4.23,4.23,0,0,0,.43-2,4.34,4.34,0,0,0-.43-2,3.14,3.14,0,0,0-1.23-1.32,4,4,0,0,0-3.75,0,3.25,3.25,0,0,0-1.23,1.32,4.25,4.25,0,0,0-.43,2,4.36,4.36,0,0,0,.43,2A3.19,3.19,0,0,0,302.66,155.51Zm.29-4.52a2,2,0,0,1,.59-.87,1.52,1.52,0,0,1,1-.33,1.48,1.48,0,0,1,1,.33,2,2,0,0,1,.59.87,3.62,3.62,0,0,1,.19,1.22,3.57,3.57,0,0,1-.19,1.21,2,2,0,0,1-.59.87,1.49,1.49,0,0,1-1,.32,1.54,1.54,0,0,1-1-.32,1.9,1.9,0,0,1-.59-.87,3.57,3.57,0,0,1-.2-1.21A3.65,3.65,0,0,1,302.95,151Z" style="fill: #aaa"/>
      <path d="M310.76,155.5a4,4,0,0,0,3.51.15,2.6,2.6,0,0,0,1.08-.93,2.82,2.82,0,0,0,.46-1.37h-1.66a1.58,1.58,0,0,1-.29.67,1.4,1.4,0,0,1-.51.42,1.61,1.61,0,0,1-.69.15,1.54,1.54,0,0,1-.94-.29,1.81,1.81,0,0,1-.62-.82,3.4,3.4,0,0,1-.23-1.29,3.28,3.28,0,0,1,.23-1.27,1.78,1.78,0,0,1,.63-.81,1.58,1.58,0,0,1,.93-.28,1.43,1.43,0,0,1,1,.35,1.62,1.62,0,0,1,.48.88h1.66a2.74,2.74,0,0,0-.47-1.38,2.7,2.7,0,0,0-1.11-.92,3.76,3.76,0,0,0-1.59-.33,3.56,3.56,0,0,0-1.87.48,3.2,3.2,0,0,0-1.22,1.33,4.33,4.33,0,0,0-.43,2,4.26,4.26,0,0,0,.42,2,3.23,3.23,0,0,0,1.21,1.33Z" style="fill: #aaa"/>
      <path d="M318.87,153.08h.85l2,2.76h2.1l-2.76-3.72,2.73-3.59h-2.09l-2.22,3h-.63v-3h-1.74v7.32h1.74Z" style="fill: #aaa"/>
      <path d="M325.75,155.51a3.55,3.55,0,0,0,1.87.47,3.61,3.61,0,0,0,1.88-.47,3.25,3.25,0,0,0,1.23-1.32,4.25,4.25,0,0,0,.43-2,4.36,4.36,0,0,0-.43-2,3.14,3.14,0,0,0-1.23-1.32,4,4,0,0,0-3.75,0,3.25,3.25,0,0,0-1.23,1.32,4.23,4.23,0,0,0-.43,2,4.34,4.34,0,0,0,.43,2A3.19,3.19,0,0,0,325.75,155.51ZM326,151a2,2,0,0,1,.59-.87,1.53,1.53,0,0,1,1-.33,1.47,1.47,0,0,1,1,.33,2,2,0,0,1,.59.87,3.59,3.59,0,0,1,.19,1.22,3.54,3.54,0,0,1-.19,1.21,2,2,0,0,1-.59.87,1.49,1.49,0,0,1-1,.32,1.54,1.54,0,0,1-1-.32,1.9,1.9,0,0,1-.59-.87,3.57,3.57,0,0,1-.2-1.21A3.65,3.65,0,0,1,326,151Z" style="fill: #aaa"/>
      <path d="M338.51,154.9a1.73,1.73,0,0,0,.32-1,1.69,1.69,0,0,0-.25-.91,1.76,1.76,0,0,0-.69-.63,2.53,2.53,0,0,0-1-.29,2.29,2.29,0,0,0,1.17-.52,1.29,1.29,0,0,0,.43-1,1.66,1.66,0,0,0-.76-1.45,3.65,3.65,0,0,0-2.08-.51h-3.1v7.32h3.57a3.93,3.93,0,0,0,1.47-.25,2,2,0,0,0,.93-.69Zm-4.34-5h1.47a1.47,1.47,0,0,1,.86.21.69.69,0,0,1,.31.59.71.71,0,0,1-.14.45.85.85,0,0,1-.39.29,1.59,1.59,0,0,1-.61.1h-1.51Zm2.7,4.35a1.12,1.12,0,0,1-.75.22h-1.95v-1.81h1.95a1.05,1.05,0,0,1,.75.26.94.94,0,0,1,.28.71A.75.75,0,0,1,336.86,154.25Z" style="fill: #aaa"/>
      <path d="M346,154.71a2.82,2.82,0,0,0,.46-1.37h-1.66a1.58,1.58,0,0,1-.28.67,1.41,1.41,0,0,1-.51.42,1.61,1.61,0,0,1-.69.15,1.54,1.54,0,0,1-.94-.29,1.81,1.81,0,0,1-.62-.82,3.4,3.4,0,0,1-.23-1.29,3.28,3.28,0,0,1,.23-1.27,1.78,1.78,0,0,1,.63-.81,1.58,1.58,0,0,1,.93-.28,1.43,1.43,0,0,1,1,.35,1.62,1.62,0,0,1,.48.88h1.66a2.74,2.74,0,0,0-.47-1.38,2.7,2.7,0,0,0-1.11-.92,3.77,3.77,0,0,0-1.59-.33,3.56,3.56,0,0,0-1.87.48,3.19,3.19,0,0,0-1.22,1.33,4.33,4.33,0,0,0-.43,2,4.26,4.26,0,0,0,.42,2,3.24,3.24,0,0,0,1.21,1.33,4,4,0,0,0,3.51.15,2.6,2.6,0,0,0,1.08-.93Z" style="fill: #aaa"/>
      <path d="M354.49,148.52H352.4l-2.22,3h-.63v-3h-1.74v7.32h1.74v-2.76h.85l2,2.76h2.1l-2.76-3.72Z" style="fill: #aaa"/>
      <path d="M360.22,150.85v5h1.68v-7.32h-1.78l-2.95,5v-5h-1.68v7.32h1.79Z" style="fill: #aaa"/>
      <path d="M368.23,148.52l-2.95,5v-5H363.6v7.32h1.79l2.94-5v5H370v-7.32Z" style="fill: #aaa"/>
      <path d="M366.8,147.88a2.46,2.46,0,0,0,1.64-.51,1.68,1.68,0,0,0,.61-1.35h-1.3a1,1,0,0,1-.23.62.89.89,0,0,1-.73.27.9.9,0,0,1-.73-.27.94.94,0,0,1-.22-.61h-1.29a1.67,1.67,0,0,0,.61,1.35,2.45,2.45,0,0,0,1.63.51Z" style="fill: #aaa"/>
      <path d="M295.16,171.59a2.54,2.54,0,0,0,1.12-1,2.6,2.6,0,0,0,.37-1.36,2.43,2.43,0,0,0-.31-1.27,2.31,2.31,0,0,0-.79-.81,2.19,2.19,0,0,0-1-.32v-.09a2.62,2.62,0,0,0,.87-.38,1.91,1.91,0,0,0,.62-.69,2.07,2.07,0,0,0,.23-1,2.31,2.31,0,0,0-1.42-2.2,4.16,4.16,0,0,0-1.77-.33h-3.76v9.75h4a4.27,4.27,0,0,0,1.87-.35Zm-4.07-8h1.8a1.66,1.66,0,0,1,1.19.37,1.2,1.2,0,0,1,.4.94,1.24,1.24,0,0,1-.22.74,1.41,1.41,0,0,1-.59.48,2,2,0,0,1-.83.17h-1.76v-2.69Zm0,6.82V167.6h2a2,2,0,0,1,1,.21,1.52,1.52,0,0,1,.61.55,1.44,1.44,0,0,1,.22.78,1.21,1.21,0,0,1-.43,1,2.12,2.12,0,0,1-1.4.37Z" style="fill: #aaa"/>
      <path d="M302.78,171.81a2.78,2.78,0,0,0,1.1-.74,2.43,2.43,0,0,0,.58-1.12l-1.63-.18a1.44,1.44,0,0,1-.34.52,1.46,1.46,0,0,1-.54.32,2.16,2.16,0,0,1-.68.1,1.9,1.9,0,0,1-1-.24,1.65,1.65,0,0,1-.66-.69,2.42,2.42,0,0,1-.23-1h5.14v-.53a4.54,4.54,0,0,0-.27-1.66,3.18,3.18,0,0,0-.74-1.15,3,3,0,0,0-1.07-.67,3.8,3.8,0,0,0-1.29-.21,3.51,3.51,0,0,0-1.84.48,3.31,3.31,0,0,0-1.22,1.33,4.77,4.77,0,0,0,0,4,3.07,3.07,0,0,0,1.24,1.3,3.78,3.78,0,0,0,1.91.46,4.27,4.27,0,0,0,1.53-.26Zm-2.53-5.7a1.7,1.7,0,0,1,.93-.26,1.72,1.72,0,0,1,.87.22,1.55,1.55,0,0,1,.59.61,1.84,1.84,0,0,1,.22.88h-3.46a1.92,1.92,0,0,1,.22-.8,1.78,1.78,0,0,1,.62-.67Z" style="fill: #aaa"/>
      <path d="M310.45,169v3h1.67v-7.32h-1.67v2.94h-2.85v-2.94h-1.68v7.32h1.68v-3Z" style="fill: #aaa"/>
      <path d="M315.38,167.8a1.48,1.48,0,0,1-.16-.75v-2.44h-1.66V167a2.43,2.43,0,0,0,.86,2.06,3.75,3.75,0,0,0,2.34.66,4.87,4.87,0,0,0,.79-.06c.18,0,.34-.07.51-.1v2.32h1.67v-7.32H318v3.56l-.2.06a5,5,0,0,1-1.1.11,2.44,2.44,0,0,1-.86-.13,1,1,0,0,1-.51-.42Z" style="fill: #aaa"/>
      <path d="M324.35,170.14h-.08l-1.7-5.52h-1.84l2.67,7.47-.15.39a1.32,1.32,0,0,1-.39.59.84.84,0,0,1-.53.18,2.59,2.59,0,0,1-.67-.1l-.41,1.35a2.8,2.8,0,0,0,.48.13,3.15,3.15,0,0,0,.66.05,2.87,2.87,0,0,0,1.18-.22,2.24,2.24,0,0,0,.83-.63,3.35,3.35,0,0,0,.55-1l2.95-8.2H326l-1.7,5.52Z" style="fill: #aaa"/>
      <path d="M334.41,164.95a2.9,2.9,0,0,0-1.55-.43,2.28,2.28,0,0,0-1.06.21,2.07,2.07,0,0,0-.67.52,3.57,3.57,0,0,0-.38.57h-.1v-1.21h-1.71v10.06h1.74v-3.89h.07a3.38,3.38,0,0,0,.39.57,2.07,2.07,0,0,0,.68.51,2.38,2.38,0,0,0,1.05.21,2.78,2.78,0,0,0,1.56-.45,3,3,0,0,0,1.08-1.29,5.44,5.44,0,0,0,0-4.11,2.91,2.91,0,0,0-1.1-1.27Zm-.47,4.55a1.84,1.84,0,0,1-.59.84,1.5,1.5,0,0,1-1,.31,1.48,1.48,0,0,1-.94-.3,1.77,1.77,0,0,1-.59-.83,3.66,3.66,0,0,1-.21-1.24,3.58,3.58,0,0,1,.2-1.24,1.75,1.75,0,0,1,.59-.81,1.52,1.52,0,0,1,.94-.29,1.6,1.6,0,0,1,1,.3,1.81,1.81,0,0,1,.59.83,3.47,3.47,0,0,1,.2,1.21,3.52,3.52,0,0,1-.2,1.22Z" style="fill: #aaa"/>
      <path d="M341.85,167.56H339v-2.94h-1.68v7.32H339v-3h2.86v3h1.67v-7.32h-1.67Z" style="fill: #aaa"/>
      <path d="M354.18,164.61h-1.74v7.32h1.74Z" style="fill: #aaa"/>
      <path d="M348.56,167h-1.68v-2.38H345.2v7.32h3.36a3.62,3.62,0,0,0,1.6-.32,2.3,2.3,0,0,0,1.37-2.15,2.26,2.26,0,0,0-.78-1.78A3.21,3.21,0,0,0,348.56,167Zm.93,3.23a1.48,1.48,0,0,1-.93.29h-1.68v-2.1h1.68a1.43,1.43,0,0,1,.93.3,1,1,0,0,1,.36.78.86.86,0,0,1-.36.74Z" style="fill: #aaa"/>
      <path d="M359.81,162.72a.89.89,0,0,1-.73.27.9.9,0,0,1-.73-.27.94.94,0,0,1-.22-.61h-1.29a1.67,1.67,0,0,0,.61,1.35,2.45,2.45,0,0,0,1.63.51,2.48,2.48,0,0,0,1.64-.51,1.68,1.68,0,0,0,.61-1.35H360a1,1,0,0,1-.23.62Z" style="fill: #aaa"/>
      <path d="M357.57,169.6v-5h-1.68v7.32h1.79l2.94-5v5h1.69v-7.32h-1.79Z" style="fill: #aaa"/>
      <path d="M297.07,179.85a4.2,4.2,0,0,0-2-.49h-.14V178.1h-1.71v1.26H293a4.2,4.2,0,0,0-2,.49,3.62,3.62,0,0,0-1.41,1.38,4,4,0,0,0-.51,2.08,4,4,0,0,0,.51,2,3.46,3.46,0,0,0,1.4,1.35,4.3,4.3,0,0,0,2.05.48h.14v1.24h1.71v-1.24H295a4.24,4.24,0,0,0,2-.48,3.54,3.54,0,0,0,1.4-1.36,4,4,0,0,0,.51-2,4.17,4.17,0,0,0-.51-2.08A3.54,3.54,0,0,0,297.07,179.85Zm-4,5.83a2.54,2.54,0,0,1-1.2-.27,1.94,1.94,0,0,1-.8-.81,2.67,2.67,0,0,1-.29-1.29A3.09,3.09,0,0,1,291,182a1.94,1.94,0,0,1,.79-.83,2.45,2.45,0,0,1,1.21-.28h.14v4.83H293Zm4-1.09a1.85,1.85,0,0,1-.78.81,2.42,2.42,0,0,1-1.2.27h-.14v-4.83H295a2.42,2.42,0,0,1,1.2.28,1.92,1.92,0,0,1,.78.83,2.94,2.94,0,0,1,.28,1.33,2.73,2.73,0,0,1-.28,1.29Z" style="fill: #aaa"/>
      <path d="M305.51,181.08a4,4,0,0,0-3.75,0,3.25,3.25,0,0,0-1.23,1.32,4.23,4.23,0,0,0-.43,2,4.34,4.34,0,0,0,.43,2,3.2,3.2,0,0,0,1.23,1.32,3.56,3.56,0,0,0,1.87.47,3.61,3.61,0,0,0,1.88-.47,3.25,3.25,0,0,0,1.23-1.32,4.23,4.23,0,0,0,.43-2,4.34,4.34,0,0,0-.43-2A3.14,3.14,0,0,0,305.51,181.08Zm-.29,4.51a2,2,0,0,1-.59.87,1.49,1.49,0,0,1-1,.32,1.53,1.53,0,0,1-1-.32,1.9,1.9,0,0,1-.59-.87,3.56,3.56,0,0,1-.2-1.21,3.65,3.65,0,0,1,.2-1.22,1.91,1.91,0,0,1,.59-.87,1.52,1.52,0,0,1,1-.33,1.47,1.47,0,0,1,1,.33,2,2,0,0,1,.59.87,3.59,3.59,0,0,1,.19,1.22A3.54,3.54,0,0,1,305.22,185.59Z" style="fill: #aaa"/>
      <path d="M313.07,183.65h-2.85V180.7h-1.68V188h1.68v-3h2.85v3h1.67V180.7h-1.67Z" style="fill: #aaa"/>
      <path d="M322.87,180.7h-5.33l-.21,2.56c0,.41-.08.79-.12,1.15a8.64,8.64,0,0,1-.17,1,3.52,3.52,0,0,1-.26.74,1.33,1.33,0,0,1-.4.49h-.59v3.54h1.71V188h4.83v2.13H324v-3.54h-1.14v-5.89Zm-1.66,5.89h-3a3.51,3.51,0,0,0,.51-1.35,19.2,19.2,0,0,0,.25-2l.11-1.18h2.16v4.5Z" style="fill: #aaa"/>
    </g>
    <path d="M220.4,178.7l-11.33-16.38H189l8.6-16.17h20L229,162.52l-8.6,16.18Zm48.68-16.18-11.32-16.38h-20l-8.6,16.18h20l11.33,16.37,8.6-16.18Z" style="fill: #aaa"/>
  </g>
  <g>
    <g>
      <path d="M592.52,148.75a2.53,2.53,0,0,1-.27,1.19,2.87,2.87,0,0,1-.64.82l-.82.55a3.3,3.3,0,0,1-1,.18v.82h-1.56v-.82a5.23,5.23,0,0,1-1.28-.37,2,2,0,0,1-.83-.64,2.88,2.88,0,0,1-.46-.92,4.68,4.68,0,0,1-.18-1.19V145a2.54,2.54,0,0,1,.28-1.19,2.19,2.19,0,0,1,.55-.73,3,3,0,0,1,.92-.55,2,2,0,0,1,1-.18v-.55h1.65v.55a3.9,3.9,0,0,1,1,.18,2.16,2.16,0,0,1,.82.55,2.84,2.84,0,0,1,.64.82,2.53,2.53,0,0,1,.27,1.19v3.66Zm-4.3-5.13a2.74,2.74,0,0,0-.92.37,1.55,1.55,0,0,0-.27.92v4a1.16,1.16,0,0,0,.09.55,1.28,1.28,0,0,0,.27.37c.09.09.28.18.37.27a.83.83,0,0,0,.46.09Zm2.84,1.28a1.18,1.18,0,0,0-.37-.92,1.73,1.73,0,0,0-.82-.37v6.5c.09,0,.27-.09.37-.09a1.62,1.62,0,0,0,.64-.64.83.83,0,0,0,.09-.46v-4Z" style="fill: #aaa"/>
      <path d="M600.67,149.57a2.91,2.91,0,0,1-.64,2.11,2.62,2.62,0,0,1-1.92.73,2.33,2.33,0,0,1-1.92-.64,3,3,0,0,1-.64-1.92v-5.31a4,4,0,0,1,.18-1.1,2.9,2.9,0,0,1,.46-.92A1.33,1.33,0,0,1,597,142a4.63,4.63,0,0,1,1.19-.18,4.05,4.05,0,0,1,1.19.18.93.93,0,0,1,.73.46,2.87,2.87,0,0,1,.46.92,4.84,4.84,0,0,1,.09,1.19ZM599,144.35a2.67,2.67,0,0,0-.18-.82c-.09-.27-.37-.37-.73-.37a.69.69,0,0,0-.46.09c-.18.18-.27.27-.27.46a.69.69,0,0,0-.09.46v5.77a1.71,1.71,0,0,0,.18.73.82.82,0,0,0,.73.37.74.74,0,0,0,.73-.37c.18-.18.18-.46.18-.82v-5.49Z" style="fill: #aaa"/>
      <polygon points="607.26 152.32 607.26 147.74 605.34 147.74 605.34 152.32 603.78 152.32 603.78 141.79 605.43 141.79 605.43 146.18 607.35 146.18 607.35 141.79 609 141.79 609 152.32 607.26 152.32" style="fill: #aaa"/>
      <path d="M612.85,152.32v2h-1.37v-3.39l.64-.09a2.18,2.18,0,0,0,.55-1,6.53,6.53,0,0,0,.18-1.56l.18-6.41h4.76v9.07h.64v3.48h-1.37v-2h-4.21Zm1.47-4.12c0,.64-.09,1.1-.09,1.56a3.09,3.09,0,0,1-.37,1.1h2.29v-7.51H614.5Z" style="fill: #aaa"/>
      <path d="M628.32,141.7a3.42,3.42,0,0,1,1.1.18,3.71,3.71,0,0,1,.82.46,2,2,0,0,1,.46.73,3.32,3.32,0,0,1,.18,1l-1.56.37a2.28,2.28,0,0,0-.18-.92.74.74,0,0,0-.73-.37.69.69,0,0,0-.46.09l-.27.27a.55.55,0,0,0-.09.37V150c0,.09.09.27.09.37l.27.27a.69.69,0,0,0,.46.09c.64,0,.92-.46.92-1.28a2.53,2.53,0,0,0,.82.09c.27,0,.55.09.82.09a3,3,0,0,1-.64,1.92,2.41,2.41,0,0,1-1.83.73,2.33,2.33,0,0,1-1.92-.64,2.58,2.58,0,0,1-.64-1.92v-5.22a4.46,4.46,0,0,1,.09-1.1,2.9,2.9,0,0,1,.46-.92,2,2,0,0,1,.82-.64,1.87,1.87,0,0,1,1-.18" style="fill: #aaa"/>
      <path d="M638.58,149.57a2.91,2.91,0,0,1-.64,2.11,2.62,2.62,0,0,1-1.92.73,2.33,2.33,0,0,1-1.92-.64,3,3,0,0,1-.64-1.92v-5.31a4,4,0,0,1,.18-1.1,2.88,2.88,0,0,1,.46-.92,1.34,1.34,0,0,1,.83-.55,4.63,4.63,0,0,1,1.19-.18,4.06,4.06,0,0,1,1.19.18,1.65,1.65,0,0,1,.82.55,2.87,2.87,0,0,1,.46.92v6.14Zm-1.65-5.22a2.67,2.67,0,0,0-.18-.82c-.09-.27-.37-.37-.73-.37a.69.69,0,0,0-.46.09l-.27.27c-.09.09-.09.27-.18.46v5.77a1.74,1.74,0,0,0,.18.73,1,1,0,0,0,.73.37.74.74,0,0,0,.73-.37c.18-.18.18-.46.18-.82Z" style="fill: #aaa"/>
      <path d="M642.43,152.32v2h-1.37v-3.39l.64-.09a2.18,2.18,0,0,0,.55-1,6.53,6.53,0,0,0,.18-1.56l.18-6.41h4.76v9.07H648v3.48h-1.37v-2h-4.21Zm1.47-4.12c0,.64-.09,1.1-.09,1.56a3.09,3.09,0,0,1-.37,1.1h2.29v-7.51h-1.65Z" style="fill: #aaa"/>
      <polygon points="650.67 152.32 650.67 141.79 655.34 141.79 655.34 143.34 652.32 143.34 652.32 146.18 654.97 146.18 654.97 147.74 652.32 147.74 652.32 150.76 655.34 150.76 655.34 152.32 650.67 152.32" style="fill: #aaa"/>
      <path d="M661.84,145.72l-2.2,6.59h-1.56V141.79h1.56v6.68l2.2-6.68h1.56v10.53h-1.65Zm-2-6.32a.69.69,0,0,0,.09.37c.09.09.09.18.18.37l.27.27a.55.55,0,0,0,.37.09c.18,0,.27,0,.37-.09l.27-.27a.47.47,0,0,0,.18-.37c0-.09.09-.18.09-.37h1.19a2.87,2.87,0,0,1-.18.73c.09.18-.09.46-.27.64a4,4,0,0,1-.64.55,2.71,2.71,0,0,1-.92.18,3.29,3.29,0,0,1-1-.18,1.23,1.23,0,0,1-.64-.55,2.32,2.32,0,0,1-.37-.64,2.83,2.83,0,0,1-.18-.73Z" style="fill: #aaa"/>
      <path d="M669.08,141.7a3.41,3.41,0,0,1,1.1.18,3.72,3.72,0,0,1,.83.46,2,2,0,0,1,.46.73,3.32,3.32,0,0,1,.18,1l-1.56.37a2.28,2.28,0,0,0-.18-.92.74.74,0,0,0-.73-.37.69.69,0,0,0-.46.09l-.27.27a.55.55,0,0,0-.09.37V150c0,.09.09.27.09.37l.27.27a.69.69,0,0,0,.46.09c.64,0,.92-.46.92-1.28a2.53,2.53,0,0,0,.82.09c.28,0,.55.09.83.09a3,3,0,0,1-.64,1.92,2.41,2.41,0,0,1-1.83.73,2.33,2.33,0,0,1-1.92-.64,2.58,2.58,0,0,1-.64-1.92v-5.22a4.46,4.46,0,0,1,.09-1.1,2.88,2.88,0,0,1,.46-.92,2,2,0,0,1,.82-.64,2.14,2.14,0,0,1,1-.18" style="fill: #aaa"/>
      <polygon points="676.95 143.34 676.95 152.32 675.3 152.32 675.3 143.34 673.56 143.34 673.56 141.79 678.6 141.79 678.6 143.34 676.95 143.34" style="fill: #aaa"/>
      <path d="M685,146.82a1.39,1.39,0,0,1,.92.82,3.78,3.78,0,0,1,.27,1.47,3.36,3.36,0,0,1-.73,2.38,2.67,2.67,0,0,1-2.2.73h-2.2V141.79h2.29a2.56,2.56,0,0,1,2,.73,3.51,3.51,0,0,1,.37,3.39c0,.37-.37.64-.73.92m-.46-2.11a1.47,1.47,0,0,0-.27-1,1.37,1.37,0,0,0-.92-.27h-.55v2.75h.55a1,1,0,0,0,.92-.37,2.43,2.43,0,0,0,.27-1.1m.09,4.21a2,2,0,0,0-.27-1.1,1,1,0,0,0-.92-.37h-.64v3.3h.64a1.32,1.32,0,0,0,.64-.18.72.72,0,0,0,.37-.37,1.3,1.3,0,0,0,.18-.55Z" style="fill: #aaa"/>
      <polygon points="693.07 145.72 690.87 152.32 689.31 152.32 689.31 141.79 690.87 141.79 690.87 148.47 690.96 148.47 693.16 141.79 694.72 141.79 694.72 152.32 693.07 152.32 693.07 145.72" style="fill: #aaa"/>
      <path d="M697.46,152.32,698,149a2.74,2.74,0,0,1,.37-.92,1.44,1.44,0,0,1,.64-.64,2,2,0,0,1-1-.92,3.47,3.47,0,0,1-.27-1.46,3.69,3.69,0,0,1,.73-2.38,2.63,2.63,0,0,1,2.11-.82H703v10.53h-1.65v-4.58h-.46a1.12,1.12,0,0,0-.82.37c-.27.18-.37.64-.55,1.19l-.46,2.93Zm3.2-9a1.18,1.18,0,0,0-1,.46,2.08,2.08,0,0,0-.27,1.19,1.34,1.34,0,0,0,.37,1.1,1.55,1.55,0,0,0,.92.27h.64v-3Z" style="fill: #aaa"/>
      <polygon points="590.41 161.02 587.67 169.17 585.74 169.17 585.74 156.16 587.76 156.16 587.76 164.41 587.85 164.41 590.6 156.16 592.61 156.16 592.61 169.17 590.5 169.17 590.41 161.02" style="fill: #aaa"/>
      <polygon points="602.41 169.17 602.41 163.49 600.12 163.49 600.12 169.17 598.11 169.17 598.11 156.16 600.12 156.16 600.12 161.57 602.5 161.57 602.5 156.16 604.51 156.16 604.51 169.17 602.41 169.17" style="fill: #aaa"/>
      <polygon points="614.5 169.17 614.5 163.49 612.12 163.49 612.12 169.17 610.1 169.17 610.1 156.16 612.12 156.16 612.12 161.57 614.5 161.57 614.5 156.16 616.51 156.16 616.51 169.17 614.5 169.17" style="fill: #aaa"/>
      <path d="M628.42,165.87a4.07,4.07,0,0,1-.73,2.56,3.22,3.22,0,0,1-2.47.82,3,3,0,0,1-2.38-.82,3.69,3.69,0,0,1-.73-2.38v-6.5a5.5,5.5,0,0,1,.18-1.37,2.09,2.09,0,0,1,.55-1.1,2.86,2.86,0,0,1,1-.73,3.49,3.49,0,0,1,1.47-.27,4,4,0,0,1,1.56.27,3.77,3.77,0,0,1,1,.64,2.09,2.09,0,0,1,.55,1.1,7.06,7.06,0,0,1,.18,1.47v6.32Zm-2-6.5a2.09,2.09,0,0,0-.27-1,1,1,0,0,0-.92-.46.77.77,0,0,0-.55.18c-.18.09-.28.27-.37.37a1.31,1.31,0,0,0-.18.55c0,.18-.09.37-.09.55v6.59a1.55,1.55,0,0,0,.27.92,1,1,0,0,0,.92.37,1,1,0,0,0,.92-.46,1.85,1.85,0,0,0,.27-1Z" style="fill: #aaa"/>
      <path d="M638.76,162.39a1.79,1.79,0,0,1,1.19,1.1,5.44,5.44,0,0,1,.37,1.83,4.12,4.12,0,0,1-.92,3,3.35,3.35,0,0,1-2.66.92H634v-13.1h2.84a2.83,2.83,0,0,1,2.47.92,3.85,3.85,0,0,1,.82,2.66,4,4,0,0,1-.27,1.56,1.72,1.72,0,0,1-1.1,1Zm-.55-2.66a1.66,1.66,0,0,0-.37-1.28,1.55,1.55,0,0,0-1.19-.37H636v3.3h.64a1.58,1.58,0,0,0,1.19-.46c.27-.18.37-.64.37-1.19m.09,5.31a1.9,1.9,0,0,0-.37-1.37,1.45,1.45,0,0,0-1.19-.46H636v4h.82a2.19,2.19,0,0,0,.82-.18,1.1,1.1,0,0,0,.46-.46,1.74,1.74,0,0,0,.18-.73Z" style="fill: #aaa"/>
      <path d="M650.58,169.17l-.55-2.75h-2.38l-.27,1.37-.27,1.37H645c.46-2.2.92-4.4,1.28-6.5s.92-4.3,1.28-6.5h2.29l2.66,13Zm-1.83-10c-.09.92-.28,1.83-.37,2.66s-.27,1.83-.46,2.75h1.83l-.83-5.4Z" style="fill: #aaa"/>
      <polygon points="663.86 156.16 663.86 167.34 664.68 167.34 664.68 171.73 662.94 171.73 662.94 169.26 657.45 169.26 657.45 156.16 659.46 156.16 659.46 167.34 661.75 167.34 661.75 156.16 663.86 156.16" style="fill: #aaa"/>
      <polygon points="674.2 161.02 671.46 169.17 669.53 169.17 669.53 156.16 671.55 156.16 671.55 164.41 674.3 156.16 676.31 156.16 676.31 169.17 674.3 169.17 674.2 161.02" style="fill: #aaa"/>
      <path d="M681.35,169.17l.73-4.12a2.71,2.71,0,0,1,.46-1.19,1.8,1.8,0,0,1,.83-.82,2.58,2.58,0,0,1-1.28-1.1,5.41,5.41,0,0,1-.37-1.83,4,4,0,0,1,.92-2.93,3.45,3.45,0,0,1,2.56-1h3v13h-2v-5.59h-.55a1.53,1.53,0,0,0-1,.37,2.44,2.44,0,0,0-.64,1.47l-.64,3.66h-2Zm4-11.08a1.42,1.42,0,0,0-1.28.55,2.32,2.32,0,0,0-.37,1.47,1.53,1.53,0,0,0,.46,1.28,1.69,1.69,0,0,0,1.19.37h.82v-3.66Z" style="fill: #aaa"/>
      <polygon points="697.65 166.33 696.73 163.95 695.91 161.66 695.82 161.66 695.82 169.17 693.8 169.17 693.8 156.16 695.82 156.16 697.28 159.83 698.29 162.67 698.38 162.67 699.48 159.74 700.85 156.07 702.78 156.07 702.78 169.08 700.76 169.08 700.76 161.57 700.67 161.57 699.85 163.86 698.93 166.24 697.65 166.24 697.65 166.33" style="fill: #aaa"/>
    </g>
    <g>
      <path d="M700,177a58.62,58.62,0,0,1-14.4,10.57c-11.81,6.27-25.36,8.94-37.54,9.14h-1.38c-1.39,0-2.86,0-4.34-.1-18.81-.83-41.13-7.1-56.81-23.61h11.44l.2.23c10.06,11.23,29.35,18.63,50.37,19.33,1.11,0,2.22.05,3.33.05C670.06,192.66,687.53,187.08,700,177Z" style="fill: #aaa"/>
      <path d="M701.3,175c-13.06,11.47-32.47,17.59-53.77,16.89-20.68-.7-39.67-7.91-49.65-18.87H609l.26.26c9.33,8.86,24.6,14.31,41.91,14.94,1.13,0,2.25.06,3.37.06A87.15,87.15,0,0,0,701.3,175Z" style="fill: #aaa"/>
      <path d="M702,173.69c-14.4,9.6-32.47,14.52-50.86,13.84-17-.62-32-5.9-41.18-14.5h11.84c6.74,6.46,19.28,10.79,35.23,10.79h.65a111.65,111.65,0,0,0,39-7.93C698.46,175.19,700.24,174.46,702,173.69Z" style="fill: #aaa"/>
    </g>
  </g>
  <g>
    <path d="M467.37,91.39h4.22l-1-3.4-1-3.87h-.16l-1,3.87Zm5.19,3.4H466.4l-1.06,3.4c-.1.35-.24.51-.75.51h-3.15c-.37,0-.45-.27-.37-.53l5.62-17c.37-1.25.85-1.46,2-1.48h1.62c1.21,0,1.66.16,2.09,1.48l5.62,17a.37.37,0,0,1-.35.53h-3.2c-.4,0-.66,0-.78-.43Z" style="fill: #aaa"/>
    <path d="M491.1,94.55c.51-.22.66-.08.83.33l.91,1.95c.25.51.17.7-.16.89a11.7,11.7,0,0,1-6.21,1.52c-5.85,0-8.47-3.66-8.47-9.67s3.5-9.86,8.66-9.86a10.61,10.61,0,0,1,5.27,1.13c.4.23.46.36.21,1l-.83,1.87c-.19.49-.29.6-.81.41a10,10,0,0,0-3.65-.7c-3,0-4.55,2.65-4.55,6.18s1.12,5.92,4.65,5.92a11.16,11.16,0,0,0,4.15-.94" style="fill: #aaa"/>
    <path d="M506.34,86l-2.39,4.06-4.49,7.41a1.81,1.81,0,0,1-2,1.13h-1.07c-1.4,0-1.75-.72-1.75-1.87V80.22c0-.38.17-.52.56-.52H498c.49,0,.57.11.57.52V92.44h.16L501,88.64,505.67,81c.62-1,.92-1.22,2-1.22h1.12c1.31,0,1.74.49,1.74,1.9V98.21c0,.37-.16.51-.56.51h-2.88c-.48,0-.6-.1-.6-.51V86Z" style="fill: #aaa"/>
  </g>
  <g>
    <path d="M267.64,66.53V57.81h1.7l2.46,5.6h.53l2.46-5.6h1.7v8.72h-1.06v-7.6h0L273,64.41h-1.93l-2.38-5.48h0v7.6Z" style="fill: #aaa"/>
    <path d="M279.26,65.7a3,3,0,0,1-.76-1,2.63,2.63,0,0,1-.24-1.18,2.72,2.72,0,0,1,.26-1.18,3.09,3.09,0,0,1,.76-1,3.61,3.61,0,0,1,1.15-.67,4,4,0,0,1,2.71,0,3.62,3.62,0,0,1,1.15.66,3.09,3.09,0,0,1,.77,1,2.74,2.74,0,0,1,.27,1.18,2.85,2.85,0,0,1-.63,1.69,3.53,3.53,0,0,1-1.58,1.12,4.08,4.08,0,0,1-2,.19,3.8,3.8,0,0,1-1.82-.8Zm.77-3.77a2.15,2.15,0,0,0-.53.72,1.91,1.91,0,0,0-.17.84,1.93,1.93,0,0,0,.17.84,2.16,2.16,0,0,0,.52.72,2.81,2.81,0,0,0,3.5,0,2.14,2.14,0,0,0,.53-.72,2.24,2.24,0,0,0,0-1.68,2.13,2.13,0,0,0-.53-.72,2.78,2.78,0,0,0-3.5,0Z" style="fill: #aaa"/>
    <path d="M287.11,65.67a3,3,0,0,1-.69-1,3.38,3.38,0,0,1,0-2.36,3,3,0,0,1,.69-1,3.22,3.22,0,0,1,1.09-.67,3.38,3.38,0,0,1,2.54.09,3.18,3.18,0,0,1,1,.74,3,3,0,0,1,.57,1h-1a1.92,1.92,0,0,0-.41-.59,2.13,2.13,0,0,0-.73-.45,2.23,2.23,0,0,0-.86-.14,2.1,2.1,0,0,0-.83.15,2,2,0,0,0-.69.47,2.13,2.13,0,0,0-.63,1.54,2.1,2.1,0,0,0,.63,1.55,2,2,0,0,0,.68.46,2.11,2.11,0,0,0,.82.16,2.21,2.21,0,0,0,.9-.15A2.09,2.09,0,0,0,291,65a1.91,1.91,0,0,0,.43-.65h1A2.88,2.88,0,0,1,291.28,66a3.2,3.2,0,0,1-1.94.58,3.15,3.15,0,0,1-1.21-.21A3,3,0,0,1,287.11,65.67Z" style="fill: #aaa"/>
    <path d="M293.3,66.53v-6.1h1.09v2.44h1.38l2.2-2.44h1.32l-2.54,2.87,2.75,3.22h-1.38l-2.34-2.73H294.4v2.75Z" style="fill: #aaa"/>
    <path d="M300.37,65.69a2.92,2.92,0,0,1-.67-1,2.87,2.87,0,0,1-.21-1.16,3,3,0,0,1,.21-1.18,3,3,0,0,1,.66-1,3.1,3.1,0,0,1,1-.68,3.17,3.17,0,0,1,2.42,0,3.1,3.1,0,0,1,1,.68,3,3,0,0,1,.66,1,3,3,0,0,1,.21,1.18,3,3,0,0,1-.55,1.66,3.13,3.13,0,0,1-1.39,1.1,3.22,3.22,0,0,1-1.78.18A3.17,3.17,0,0,1,300.37,65.69Zm.68-3.7a2.12,2.12,0,0,0-.46.71,2.44,2.44,0,0,0,0,1.65,2.11,2.11,0,0,0,.46.71,2.26,2.26,0,0,0,3.07,0,2.14,2.14,0,0,0,.46-.71,2.19,2.19,0,0,0-.46-2.36,2.24,2.24,0,0,0-3.07,0Z" style="fill: #aaa"/>
    <path d="M307.45,66.53v-6.1h3.13a2.15,2.15,0,0,1,1.41.43,1.41,1.41,0,0,1,.38.49,1.35,1.35,0,0,1,.13.6,1.7,1.7,0,0,1-.09.55,1.19,1.19,0,0,1-.22.39,1.29,1.29,0,0,1-.27.23,1.08,1.08,0,0,1-.24.12l-.13,0,.15,0a1.34,1.34,0,0,1,.3.13,2.2,2.2,0,0,1,.35.25,1.22,1.22,0,0,1,.29.43,1.8,1.8,0,0,1,0,1.33,1.63,1.63,0,0,1-.44.58,2.36,2.36,0,0,1-1.59.49Zm1-3.6h2c.64,0,1-.26,1-.8s-.32-.79-1-.79h-2Zm0,2.68h2.11a1.32,1.32,0,0,0,.86-.24.85.85,0,0,0,.23-.3.82.82,0,0,0,.07-.37.8.8,0,0,0-.07-.37.84.84,0,0,0-.23-.31,1.32,1.32,0,0,0-.86-.24h-2.11Z" style="fill: #aaa"/>
    <path d="M314.54,65.64a3,3,0,0,1-.68-1,3.29,3.29,0,0,1,0-2.34,3,3,0,0,1,.68-1,3.21,3.21,0,0,1,1.09-.67,3.37,3.37,0,0,1,2.54.09,3.18,3.18,0,0,1,1,.74,2.9,2.9,0,0,1,.56,1h-1a1.86,1.86,0,0,0-.41-.59,2.11,2.11,0,0,0-.73-.45,2.21,2.21,0,0,0-.86-.14,2.09,2.09,0,0,0-.83.15,2,2,0,0,0-.69.47,2.13,2.13,0,0,0-.6,1.55,2.1,2.1,0,0,0,.62,1.55,2,2,0,0,0,.68.46,2.11,2.11,0,0,0,.82.16,2.2,2.2,0,0,0,.9-.15,2.09,2.09,0,0,0,.75-.5,1.81,1.81,0,0,0,.42-.65h1a2.86,2.86,0,0,1-.57,1.09,3.05,3.05,0,0,1-1.11.82,3.24,3.24,0,0,1-1.38.26,3.13,3.13,0,0,1-1.22-.22A3,3,0,0,1,314.54,65.64Z" style="fill: #aaa"/>
    <path d="M320.73,66.53v-6.1h1.09v2.44h1.38l2.21-2.44h1.31l-2.55,2.87,2.76,3.22h-1.38l-2.34-2.73h-1.38v2.75Z" style="fill: #aaa"/>
    <path d="M327.8,66.53V60.43h1v4.7h0l3.25-4.7h1.09v6.11h-1v-4.7h0l-3.24,4.7Z" style="fill: #aaa"/>
    <path d="M334.88,66.53V60.3h1v4.8h0l3.24-4.8h1.09v6.23h-1v-4.8h0L336,66.53Zm.87-8.72h.9a.72.72,0,0,0,.06.3.69.69,0,0,0,.17.24,1.24,1.24,0,0,0,1.36,0,.7.7,0,0,0,.23-.54h.9a1.45,1.45,0,0,1-.12.62,1.42,1.42,0,0,1-.37.5,2.25,2.25,0,0,1-2.66,0,1.43,1.43,0,0,1-.36-.51,1.47,1.47,0,0,1-.11-.62Z" style="fill: #aaa"/>
    <path d="M267.64,77V70.9h1v4.7h0l3.24-4.7h1.08V77h-1V72.3h0L268.72,77Z" style="fill: #aaa"/>
    <path d="M274.71,77V70.9h1v2.5h3.39V70.9h1V77h-1V74.32h-3.38V77Z" style="fill: #aaa"/>
    <path d="M281.79,77V70.9h1v2.5h3.39V70.9h1V77h-1V74.32h-3.39V77Z" style="fill: #aaa"/>
    <path d="M289.75,76.16a2.92,2.92,0,0,1-.67-1,2.87,2.87,0,0,1-.21-1.16,2.94,2.94,0,0,1,.21-1.18,3,3,0,0,1,.66-1,3.1,3.1,0,0,1,1-.68,3.17,3.17,0,0,1,2.42,0,3.1,3.1,0,0,1,1,.68,3,3,0,0,1,.66,1,3,3,0,0,1,.21,1.18,3,3,0,0,1-.55,1.66,3.13,3.13,0,0,1-1.39,1.1,3.22,3.22,0,0,1-1.78.18A3.17,3.17,0,0,1,289.75,76.16Zm.68-3.7a2.11,2.11,0,0,0-.46.71,2.44,2.44,0,0,0,0,1.65,2.11,2.11,0,0,0,.46.71,2.24,2.24,0,0,0,3.07,0,2.09,2.09,0,0,0,.46-.71,2.44,2.44,0,0,0,0-1.65,2.09,2.09,0,0,0-.46-.71,2.24,2.24,0,0,0-3.07,0Z" style="fill: #aaa"/>
    <path d="M296.83,77V70.9H300a2.15,2.15,0,0,1,1.41.43,1.4,1.4,0,0,1,.39.49,1.33,1.33,0,0,1,.13.6,1.69,1.69,0,0,1-.09.55,1.11,1.11,0,0,1-.49.62,1.1,1.1,0,0,1-.24.12l-.14,0,.16,0a1.3,1.3,0,0,1,.3.14,2.1,2.1,0,0,1,.34.25,1.21,1.21,0,0,1,.29.43,1.54,1.54,0,0,1,.12.62,1.58,1.58,0,0,1-.13.71,1.66,1.66,0,0,1-.44.58A2.39,2.39,0,0,1,300,77Zm1-3.6h2c.64,0,1-.26,1-.79s-.31-.78-1-.78h-2Zm0,2.69H300a1.31,1.31,0,0,0,.86-.25,1,1,0,0,0,.22-.31.9.9,0,0,0,0-.73,1,1,0,0,0-.22-.31,1.31,1.31,0,0,0-.86-.25h-2.11Z" style="fill: #aaa"/>
    <path d="M303.9,76.13a3.16,3.16,0,0,1,0-4.36,2.8,2.8,0,0,1,1-.66A2.94,2.94,0,0,1,306,70.9a2.82,2.82,0,0,1,1.32.28,2.25,2.25,0,0,1,.79.62l.11.17V71h1v5.89h-1v-1l-.11.17a2.15,2.15,0,0,1-.77.61A2.87,2.87,0,0,1,306,77a2.94,2.94,0,0,1-1.15-.22A2.8,2.8,0,0,1,303.9,76.13Zm.74-3.75a2.32,2.32,0,0,0,0,3.11,2.11,2.11,0,0,0,.69.45,2.2,2.2,0,0,0,1.65,0,2.1,2.1,0,0,0,.69-.45,2.31,2.31,0,0,0,0-3.11,2.1,2.1,0,0,0-.69-.45,2.2,2.2,0,0,0-1.65,0A2.11,2.11,0,0,0,304.64,72.38Z" style="fill: #aaa"/>
    <path d="M311,77.28V70.9h1v5.43h3.3V70.9h1v5.43h.89v2.43h-1V77.28Z" style="fill: #aaa"/>
    <path d="M318.07,77V70.9h1v4.7h0l3.25-4.7h1.09V77h-1V72.3h0L319.16,77Z" style="fill: #aaa"/>
    <path d="M326,76.16a2.94,2.94,0,0,1-.67-1,2.88,2.88,0,0,1-.21-1.16,3,3,0,0,1,.21-1.18,3,3,0,0,1,.66-1,3.1,3.1,0,0,1,1-.68,3.17,3.17,0,0,1,2.42,0,3.1,3.1,0,0,1,1,.68,3,3,0,0,1,.66,1,2.94,2.94,0,0,1,.21,1.18,3,3,0,0,1-.55,1.66,3.13,3.13,0,0,1-1.39,1.1,3.22,3.22,0,0,1-1.78.18A3.17,3.17,0,0,1,326,76.16Zm.68-3.7a2.09,2.09,0,0,0-.46.71,2.44,2.44,0,0,0,0,1.65,2.09,2.09,0,0,0,.46.71,2.24,2.24,0,0,0,3.07,0,2.09,2.09,0,0,0,.46-.71,2.45,2.45,0,0,0,0-1.65,2.11,2.11,0,0,0-.46-.71,2.24,2.24,0,0,0-3.07,0Z" style="fill: #aaa"/>
    <path d="M333.11,77V70.9h1v2.5h3.39V70.9h1V77h-1V74.32h-3.38V77Z" style="fill: #aaa"/>
    <path d="M340.19,77V70.9h1v2.5h3.39V70.9h1V77h-1V74.32h-3.39V77Z" style="fill: #aaa"/>
    <path d="M347.27,77V70.9h1.05V73h1.59a2.77,2.77,0,0,1,1.82.58,1.94,1.94,0,0,1,.52.65,1.78,1.78,0,0,1,0,1.57,1.94,1.94,0,0,1-.52.65,2.77,2.77,0,0,1-1.82.58Zm1.05-.92h1.59a1.68,1.68,0,0,0,1.08-.31,1.07,1.07,0,0,0,.28-.36,1,1,0,0,0,0-.87,1.07,1.07,0,0,0-.28-.36,1.7,1.7,0,0,0-1.08-.32h-1.59Zm5,.92V70.9h1.05V77Z" style="fill: #aaa"/>
    <path d="M356.12,77V70.77h1v4.8h0l3.25-4.8h1.09V77h-1V72.2h0L357.2,77Zm.87-8.72h.9a.7.7,0,0,0,.05.3.68.68,0,0,0,.17.24,1.2,1.2,0,0,0,1.35,0,.67.67,0,0,0,.17-.24.69.69,0,0,0,.05-.3h.9a1.45,1.45,0,0,1-.12.63,1.43,1.43,0,0,1-.37.51,2.23,2.23,0,0,1-2.65,0,1.42,1.42,0,0,1-.37-.51A1.46,1.46,0,0,1,357,68.28Z" style="fill: #aaa"/>
    <path d="M267.64,87.47V81.37h.94v2.44h1.18l1.89-2.44h1.12l-2.18,2.87,2.36,3.22h-1.17l-2-2.75h-1.18v2.75Z" style="fill: #aaa"/>
    <path d="M272.94,87.47l1.76-6.11h2.66l1.77,6.11h-1.09l-1.45-5.19h-1.14L274,87.47Z" style="fill: #aaa"/>
    <path d="M280.89,86.59a3.17,3.17,0,0,1,0-4.35,2.8,2.8,0,0,1,1-.65,2.94,2.94,0,0,1,1.16-.22,2.87,2.87,0,0,1,1.32.28,2.36,2.36,0,0,1,.79.62l.11.18v-1h1v5.89h-1v-.93l-.11.16a2.16,2.16,0,0,1-.75.6,2.9,2.9,0,0,1-1.35.29,2.94,2.94,0,0,1-1.16-.22A2.8,2.8,0,0,1,280.89,86.59Zm.73-3.75a2.34,2.34,0,0,0,0,3.13,2.11,2.11,0,0,0,.69.45,2.22,2.22,0,0,0,1.65,0,2.12,2.12,0,0,0,.69-.45,2.33,2.33,0,0,0,0-3.13,2.11,2.11,0,0,0-.69-.45,2.21,2.21,0,0,0-1.65,0A2.1,2.1,0,0,0,281.62,82.85Z" style="fill: #aaa"/>
    <path d="M288.89,86.6a3.09,3.09,0,0,1,0-4.36,3.22,3.22,0,0,1,1.09-.67,3.39,3.39,0,0,1,2.55.09,3.18,3.18,0,0,1,1,.74,2.88,2.88,0,0,1,.57,1h-1a1.91,1.91,0,0,0-.42-.6,2.13,2.13,0,0,0-.73-.45,2.24,2.24,0,0,0-.86-.14,2.1,2.1,0,0,0-.83.15,2,2,0,0,0-.69.47A2.12,2.12,0,0,0,289,84.4a2.09,2.09,0,0,0,.63,1.55,2,2,0,0,0,.68.46,2.13,2.13,0,0,0,.82.16,2.22,2.22,0,0,0,.9-.15,2.08,2.08,0,0,0,.75-.5,1.82,1.82,0,0,0,.41-.63h1a2.85,2.85,0,0,1-.58,1.09,3.07,3.07,0,0,1-1.11.81,3.26,3.26,0,0,1-1.38.27,3.16,3.16,0,0,1-1.21-.21A3,3,0,0,1,288.89,86.6Z" style="fill: #aaa"/>
    <path d="M294.18,82.28v-.92h5.31v.92h-2.16v5.19h-1V82.28Z" style="fill: #aaa"/>
    <path d="M301.26,86.6a3.13,3.13,0,0,1,0-4.36,3,3,0,0,1,1-.66,3.07,3.07,0,0,1,1.2-.21,3.13,3.13,0,0,1,1.2.21,3,3,0,0,1,1,.65,2.93,2.93,0,0,1,.67,1,2.84,2.84,0,0,1,.21,1.16v.34h-5.22a2.09,2.09,0,0,0,2.12,1.88,2.35,2.35,0,0,0,1.54-.53,1.86,1.86,0,0,0,.46-.53h1A3,3,0,0,1,305.27,87a3.17,3.17,0,0,1-1.81.51,3.07,3.07,0,0,1-1.2-.21A3,3,0,0,1,301.26,86.6Zm.11-2.71h4.17a1.88,1.88,0,0,0-.66-1.17,2.08,2.08,0,0,0-1.4-.48,2.13,2.13,0,0,0-1.41.48A1.92,1.92,0,0,0,301.37,83.89Z" style="fill: #aaa"/>
    <path d="M308.34,90.09V81.5h1v1l.13-.19a2.14,2.14,0,0,1,.76-.63,2.72,2.72,0,0,1,1.34-.31,2.8,2.8,0,0,1,2.12.93,3.5,3.5,0,0,1,0,4.6,3,3,0,0,1-3.47.62,1.93,1.93,0,0,1-.75-.64l-.13-.17v3.39Zm1.6-7.13a2.57,2.57,0,0,0,0,3.31,2.1,2.1,0,0,0,3,0A2.57,2.57,0,0,0,313,83a2.09,2.09,0,0,0-3,0Z" style="fill: #aaa"/>
    <g>
      <path d="M259.18,53.46v38H244.49V83.87A38,38,0,0,0,248,80.71,38.87,38.87,0,0,0,259.18,53.46Z" style="fill: #aaa"/>
      <path d="M235.8,53.46V71.88a23,23,0,0,1-7.11,4A38.94,38.94,0,0,0,235.8,53.46Z" style="fill: #aaa"/>
      <path d="M259.18,53.46A38.87,38.87,0,0,1,248,80.71,38,38,0,0,1,221.11,92V83.88A37.78,37.78,0,0,1,197.73,92V77.16a23.26,23.26,0,0,0,16.53-7,23.89,23.89,0,0,0,6.85-16.75H235.8a38.94,38.94,0,0,1-7.11,22.41,23,23,0,0,0,7.11-4,21.81,21.81,0,0,0,1.85-1.68,23.89,23.89,0,0,0,6.85-16.75Z" style="fill: #aaa;opacity: 0.6000000000000001"/>
      <path d="M235.8,53.45v0H221.11v0Z" style="fill: #aaa"/>
      <path d="M259.18,53.45v0H244.49v0Z" style="fill: #aaa"/>
    </g>
  </g>
  <g>
    <path d="M427.67,188.15a2.63,2.63,0,0,0-2.82-2.26c-1.28,0-3.2.91-3.2,4.5,0,2.28,1,4.39,3.2,4.39a2.76,2.76,0,0,0,2.82-2.45h2.65a5.28,5.28,0,0,1-5.52,4.7c-3.38,0-5.8-2.3-5.8-6.68s2.56-6.71,5.83-6.71c3.81,0,5.34,2.63,5.49,4.5h-2.65Z" style="fill: #aaa"/>
    <path d="M433.57,190.86l3.11-3.58h3l-3.31,3.64,3.4,5.78h-3l-2.25-4-1,1.07v3h-2.47v-9.43h2.47v3.58Z" style="fill: #aaa"/>
    <path d="M448.84,192A4.81,4.81,0,1,1,444,187a4.59,4.59,0,0,1,4.8,4.94m-7.08,0c0,1.21.37,2.89,2.28,2.89s2.26-1.66,2.26-2.87-.35-2.87-2.26-2.87-2.28,1.64-2.28,2.85" style="fill: #aaa"/>
    <path d="M458.13,187.28v9.43h-2.47v-7.44H453v2.91c0,3.61-1.09,4.74-2.82,4.74a5.34,5.34,0,0,1-1.5-.21v-1.84a2.45,2.45,0,0,0,.73.07c.74,0,1.13-.37,1.13-3.24v-4.42h7.58Z" style="fill: #aaa"/>
    <path d="M461.86,190.86l3.11-3.58h3l-3.31,3.64,3.4,5.78h-3l-2.24-4-1,1.07v3h-2.47v-9.43h2.47Z" style="fill: #aaa"/>
    <path d="M477.14,192a4.81,4.81,0,1,1-4.8-4.94,4.59,4.59,0,0,1,4.8,4.94m-7.07,0c0,1.21.37,2.89,2.28,2.89s2.26-1.66,2.26-2.87-.36-2.87-2.26-2.87-2.28,1.64-2.28,2.85" style="fill: #aaa"/>
    <path d="M477.94,187.28h4.26c2.11,0,3.65.86,3.65,2.44a2.1,2.1,0,0,1-1.76,2,2.36,2.36,0,0,1,2,2.39c0,1.75-1.32,2.57-3.46,2.57h-4.72Zm2.47,3.82H482c.82,0,1.4-.33,1.4-1.07s-.56-1-1.38-1h-1.63Zm0,3.91h1.82c.91,0,1.48-.28,1.48-1.21s-.6-1.2-1.51-1.2h-1.79Z" style="fill: #aaa"/>
    <path d="M496,192a4.81,4.81,0,1,1-4.8-4.94A4.58,4.58,0,0,1,496,192m-7.08,0c0,1.21.37,2.89,2.28,2.89s2.26-1.66,2.26-2.87-.35-2.87-2.26-2.87-2.28,1.64-2.28,2.85" style="fill: #aaa"/>
    <path d="M437,181.52c2.11,0,7.29-.37,11.17-3.2v2.15H456V171l3.27-3.38,7.11,12.82h9.38L465,162.16l10.49-11.54h-9.6L456,161.94V140.18h-7.83v3.44c-2.38-2.56-6.25-4.49-12.27-4.49-13,0-15.49,7.93-15.49,12.37,0,6.1,3.28,9.49,9,10.88l8.1,2c4.27,1.06,7.33,1.83,7.33,5,0,4.22-4.44,5.22-8.44,5.22-7.33,0-8.54-4.27-8.54-6.55h-8c0,5,2.55,13.48,17.2,13.48m5.33-24-9.82-2.39c-1.67-.39-4.28-1.06-4.28-4.21,0-3.61,3.83-4.83,7-4.83,7.33,0,8,4.28,8.21,6.11h4.67v7.51a22.5,22.5,0,0,0-5.84-2.18" style="fill: #aaa"/>
  </g>
  <g>
    <g>
      <path d="M591.53,58.48V56H592c.47-.32.6-.84.66-1.73l.23-3.74h4.74V56h.83v2.45h-1.25V57.18h-4.4v1.31Zm2-2.53V56h2.73V51.7H594.1l-.17,2.7A2.69,2.69,0,0,1,593.51,56Z" style="fill: #aaa"/>
      <path d="M599.57,50.55H604V51.7h-3v1.59h2.83v1.06H601V56h3v1.14h-4.38Z" style="fill: #aaa"/>
      <path d="M609.82,57.18V51.7h-3v5.48h-1.38V50.55h5.73v6.62Z" style="fill: #aaa"/>
      <path d="M614.68,50.55h1.63l2.3,6.62h-1.46l-.49-1.61h-2.33l-.49,1.61h-1.45Zm0,4h1.7l-.81-2.66h-.08Z" style="fill: #aaa"/>
      <path d="M619.79,50.55h2.73a2.16,2.16,0,0,1,2.32,2.26h0a2.16,2.16,0,0,1-2.32,2.26h-1.35v2.09h-1.38Zm1.38,1.1V54h1a1.11,1.11,0,0,0,1.26-1.17h0a1.11,1.11,0,0,0-1.26-1.17Z" style="fill: #aaa"/>
      <path d="M627.62,51.7h-2V50.55H631V51.7h-2v5.48h-1.38Z" style="fill: #aaa"/>
      <path d="M633.44,50.55h1.63l2.3,6.62h-1.46l-.49-1.61h-2.33l-.49,1.61h-1.45Zm0,4h1.7l-.81-2.66h-.08Z" style="fill: #aaa"/>
      <path d="M638.55,50.55h1.59L642,55.4H642l1.83-4.85h1.59v6.62h-1.24V52.67h-.09l-1.7,4.51h-.87l-1.7-4.51h-.09v4.51h-1.23Z" style="fill: #aaa"/>
      <path d="M647.11,50.55h4.38V51.7h-3v1.59h2.83v1.06H648.5V56h3v1.14h-4.38Z" style="fill: #aaa"/>
      <path d="M653,50.55h1.38v2.69h3V50.55h1.38v6.62h-1.38V54.39h-3v2.79H653Z" style="fill: #aaa"/>
      <path d="M662,51.7h-2V50.55h5.36V51.7h-2v5.48H662Z" style="fill: #aaa"/>
      <path d="M596.54,68.39V62.91h-3v5.48H592.2V61.77h5.73v6.62Z" style="fill: #aaa"/>
      <path d="M599.58,61.77h2.73A2.17,2.17,0,0,1,604.64,64h0a2.17,2.17,0,0,1-2.33,2.26H601v2.09h-1.38Zm1.38,1.1v2.35h1A1.11,1.11,0,0,0,603.24,64h0A1.11,1.11,0,0,0,602,62.86Z" style="fill: #aaa"/>
      <path d="M606,61.77h4.38v1.14h-3v1.6h2.83v1.06h-2.83v1.67h3v1.14H606Z" style="fill: #aaa"/>
      <path d="M611.21,69.7V67.24h.46c.47-.32.6-.84.66-1.73l.23-3.74h4.74v5.48h.83V69.7h-1.25V68.39h-4.4V69.7Zm2-2.53v.08h2.73V62.91h-2.13l-.17,2.7A2.68,2.68,0,0,1,613.18,67.17Z" style="fill: #aaa"/>
      <path d="M623.6,68.39V62.91h-3v5.48h-1.38V61.77H625v6.62Z" style="fill: #aaa"/>
      <path d="M626.63,61.77h2.73A2.16,2.16,0,0,1,631.69,64h0a2.16,2.16,0,0,1-2.32,2.26H628v2.09h-1.38Zm1.38,1.1v2.35h1A1.11,1.11,0,0,0,630.28,64h0A1.11,1.11,0,0,0,629,62.86Z" style="fill: #aaa"/>
      <path d="M633,61.77h1.38v4.43h.09l3-4.43h1.33v6.62h-1.38V64h-.08l-3,4.42H633Z" style="fill: #aaa"/>
      <path d="M640.45,61.77h1.38v2.69h3V61.77h1.38v6.62h-1.38V65.6h-3v2.79h-1.38Z" style="fill: #aaa"/>
      <path d="M647.85,61.77h1.38v4.43h.09l3-4.43h1.32v6.62h-1.38V64h-.09l-3,4.42h-1.33Z" style="fill: #aaa"/>
      <path d="M655.29,61.77h1.59l1.83,4.85h.08l1.83-4.85h1.58v6.62H661V63.88h-.09l-1.7,4.51h-.87l-1.69-4.51h-.09v4.51h-1.23Z" style="fill: #aaa"/>
      <path d="M665.68,61.77h1.63l2.3,6.62h-1.46l-.49-1.6h-2.33l-.49,1.6h-1.45Zm0,4h1.7l-.81-2.66h-.08Z" style="fill: #aaa"/>
      <path d="M671.73,62.91h-2V61.77h5.36v1.14h-2v5.48h-1.38Z" style="fill: #aaa"/>
      <path d="M676.38,61.77h4.38v1.14h-3v1.6h2.83v1.06h-2.83v1.67h3v1.14h-4.38Z" style="fill: #aaa"/>
      <path d="M681.62,68.39V67.18a1.67,1.67,0,0,0,.3,0c.68,0,.83-.66.88-1.53l.2-3.92h4.61v6.62h-1.38V62.91h-2l-.16,2.86c-.09,1.63-.59,2.68-2,2.68A1.88,1.88,0,0,1,681.62,68.39Z" style="fill: #aaa"/>
      <path d="M689.1,61.77h1.38V64h1.28a2.18,2.18,0,0,1,2.37,2.19h0a2.13,2.13,0,0,1-2.3,2.2H689.1Zm1.38,3.31v2.2h1c.79,0,1.25-.39,1.25-1.09h0c0-.71-.46-1.1-1.25-1.1Z" style="fill: #aaa"/>
      <path d="M695.32,65.08h0c0-2.15,1.19-3.47,3.1-3.47A2.71,2.71,0,0,1,701.3,64V64H700v0a1.5,1.5,0,0,0-1.53-1.25c-1,0-1.69.88-1.69,2.3h0c0,1.42.65,2.31,1.69,2.31A1.46,1.46,0,0,0,700,66.21v0h1.35v.05a2.66,2.66,0,0,1-2.87,2.33C696.51,68.56,695.32,67.23,695.32,65.08Z" style="fill: #aaa"/>
      <path d="M704,62.91h-2V61.77h5.36v1.14h-2v5.48H704Z" style="fill: #aaa"/>
      <path d="M708.64,61.77h2.9c1.28,0,2.05.63,2.05,1.65h0a1.43,1.43,0,0,1-1.2,1.41v.08a1.58,1.58,0,0,1,1.51,1.58h0c0,1.16-.88,1.89-2.29,1.89h-3Zm1.38,1v1.73h1c.74,0,1.15-.31,1.15-.86h0c0-.54-.38-.86-1-.86Zm0,2.64v1.92h1.23c.8,0,1.23-.34,1.23-1h0c0-.62-.45-.95-1.26-.95Z" style="fill: #aaa"/>
      <path d="M717,61.77h1.63l2.3,6.62h-1.46l-.49-1.6h-2.33l-.49,1.6h-1.45Zm0,4h1.7l-.81-2.66h-.08Z" style="fill: #aaa"/>
      <path d="M592.2,73h1.38V77.4h.09l3-4.43H598V79.6H596.6V75.17h-.08l-3,4.42H592.2Z" style="fill: #aaa"/>
      <path d="M602,73h1.38V77.4h.09l3-4.43h1.33V79.6h-1.38V75.17h-.08l-3,4.42H602Z" style="fill: #aaa"/>
      <path d="M609.47,73h1.38v2.69h3V73h1.38V79.6h-1.38V76.81h-3V79.6h-1.38Z" style="fill: #aaa"/>
      <path d="M616.88,73h1.38v2.69h3V73h1.38V79.6h-1.38V76.81h-3V79.6h-1.38Z" style="fill: #aaa"/>
      <path d="M624,76.29h0c0-2.15,1.24-3.47,3.19-3.47s3.18,1.33,3.18,3.47h0c0,2.14-1.23,3.48-3.18,3.48S624,78.43,624,76.29Zm5,0h0c0-1.41-.7-2.3-1.77-2.3s-1.78.89-1.78,2.3h0c0,1.4.69,2.31,1.78,2.31S629,77.69,629,76.29Z" style="fill: #aaa"/>
      <path d="M631.73,73h2.9c1.28,0,2.05.63,2.05,1.65h0a1.43,1.43,0,0,1-1.2,1.41v.08A1.58,1.58,0,0,1,637,77.7h0c0,1.16-.88,1.89-2.29,1.89h-3Zm1.38,1v1.73h1c.74,0,1.15-.31,1.15-.86h0c0-.54-.38-.86-1-.86Zm0,2.64v1.92h1.24c.8,0,1.23-.34,1.23-1h0c0-.61-.45-.94-1.26-.94Z" style="fill: #aaa"/>
      <path d="M640.05,73h1.63L644,79.6h-1.46L642,78H639.7l-.49,1.61h-1.45Zm0,4h1.7l-.81-2.66h-.08Z" style="fill: #aaa"/>
      <path d="M650.48,79.6h-5.31V73h1.38v5.48h3V73h1.39v5.48h.83v2.45h-1.25Z" style="fill: #aaa"/>
      <path d="M652.85,73h1.38V77.4h.09l3-4.43h1.33V79.6h-1.38V75.17h-.08l-3,4.42h-1.33Z" style="fill: #aaa"/>
      <path d="M660,76.29h0c0-2.15,1.24-3.47,3.19-3.47s3.18,1.33,3.18,3.47h0c0,2.14-1.23,3.48-3.18,3.48S660,78.43,660,76.29Zm5,0h0c0-1.41-.7-2.3-1.77-2.3s-1.78.89-1.78,2.3h0c0,1.4.69,2.31,1.78,2.31S665,77.69,665,76.29Z" style="fill: #aaa"/>
      <path d="M667.72,73h1.38v2.69h3V73h1.38V79.6h-1.38V76.81h-3V79.6h-1.38Z" style="fill: #aaa"/>
      <path d="M675.13,73h1.38v2.69h3V73h1.38V79.6H679.5V76.81h-3V79.6h-1.38Z" style="fill: #aaa"/>
      <path d="M682.24,76.29h0c0-2.15,1.24-3.47,3.19-3.47s3.18,1.33,3.18,3.47h0c0,2.14-1.23,3.48-3.18,3.48S682.24,78.43,682.24,76.29Zm5,0h0c0-1.41-.7-2.3-1.77-2.3s-1.78.89-1.78,2.3h0c0,1.4.69,2.31,1.78,2.31S687.21,77.69,687.21,76.29Z" style="fill: #aaa"/>
      <path d="M690,79.6V73h4.27v1.14h-2.88V79.6Z" style="fill: #aaa"/>
      <path d="M695,76.29h0c0-2.15,1.24-3.47,3.19-3.47s3.18,1.33,3.18,3.47h0c0,2.14-1.23,3.48-3.18,3.48S695,78.43,695,76.29Zm5,0h0c0-1.41-.7-2.3-1.77-2.3s-1.78.89-1.78,2.3h0c0,1.4.69,2.31,1.78,2.31S700,77.69,700,76.29Z" style="fill: #aaa"/>
      <path d="M705.14,73h2.73a2.17,2.17,0,0,1,2.33,2.26h0a2.17,2.17,0,0,1-2.33,2.26h-1.34V79.6h-1.38Zm1.38,1.1v2.35h1a1.11,1.11,0,0,0,1.26-1.17h0a1.11,1.11,0,0,0-1.26-1.17Z" style="fill: #aaa"/>
      <path d="M712.81,73h1.63l2.3,6.62h-1.46L714.79,78h-2.33L712,79.6h-1.45Zm0,4h1.7l-.81-2.66h-.08Z" style="fill: #aaa"/>
      <path d="M719.1,75.69H720c.69,0,1.12-.36,1.12-.91h0c0-.51-.41-.82-1.09-.82s-1.13.31-1.17.85v0h-1.29v0c.06-1.21,1-2,2.49-2s2.38.72,2.38,1.8h0a1.53,1.53,0,0,1-1.25,1.5v.08a1.53,1.53,0,0,1,1.48,1.58h0c0,1.17-1.14,2-2.65,2s-2.56-.83-2.61-2v0h1.33v0c0,.55.54.88,1.28.88s1.22-.37,1.22-.93h0c0-.55-.46-.89-1.25-.89h-.89Z" style="fill: #aaa"/>
      <path d="M724,73h2.9c1.28,0,2.05.63,2.05,1.65h0a1.43,1.43,0,0,1-1.2,1.41v.08a1.58,1.58,0,0,1,1.52,1.57h0c0,1.16-.88,1.89-2.29,1.89h-3Zm1.38,1v1.73h1c.74,0,1.15-.31,1.15-.86h0c0-.54-.38-.86-1-.86Zm0,2.64v1.92h1.24c.8,0,1.23-.34,1.23-1h0c0-.61-.45-.94-1.26-.94Z" style="fill: #aaa"/>
      <path d="M730.54,73h1.38V77.4H732L735,73h1.33V79.6h-1.38V75.17h-.08l-3,4.42h-1.33Z" style="fill: #aaa"/>
      <path d="M739.58,74.12h-2V73h5.36v1.14h-2V79.6h-1.38Z" style="fill: #aaa"/>
      <path d="M744.23,73h1.38V77.4h.09l3-4.43H750V79.6h-1.38V75.17h-.08l-3,4.42h-1.33Z" style="fill: #aaa"/>
      <path d="M755.25,79.6V77.21h-.93l-1.57,2.39h-1.53L753,77a2,2,0,0,1-1.43-1.9h0a2.14,2.14,0,0,1,2.4-2.13h2.69V79.6Zm0-5.53h-1.12c-.73,0-1.19.4-1.19,1h0c0,.66.44,1.05,1.19,1.05h1.12Z" style="fill: #aaa"/>
      <path d="M592.24,90.81V84.19h3.93v.74h-3.1v5.88Z" style="fill: #aaa"/>
      <path d="M597,87.5h0c0-2.13,1.16-3.46,3-3.46s3,1.34,3,3.46h0c0,2.11-1.15,3.47-3,3.47S597,89.62,597,87.5Zm5.23,0h0c0-1.65-.84-2.7-2.19-2.7s-2.19,1-2.19,2.7h0c0,1.64.82,2.7,2.19,2.7S602.19,89.14,602.19,87.5Z" style="fill: #aaa"/>
      <path d="M604.52,84.19H607a2,2,0,0,1,2.12,2.12h0A2,2,0,0,1,607,88.45h-1.67v2.36h-.82Zm.82.73v2.79h1.46a1.32,1.32,0,0,0,1.49-1.39h0a1.32,1.32,0,0,0-1.49-1.39Z" style="fill: #aaa"/>
      <path d="M610.28,87.5h0c0-2.13,1.16-3.46,3-3.46s3,1.34,3,3.46h0c0,2.11-1.15,3.47-3,3.47S610.28,89.62,610.28,87.5Zm5.23,0h0c0-1.65-.84-2.7-2.19-2.7s-2.19,1-2.19,2.7h0c0,1.64.82,2.7,2.19,2.7S615.51,89.14,615.51,87.5Z" style="fill: #aaa"/>
      <path d="M616.95,92.12V90.06h.49c.48-.26.66-.84.71-1.71l.25-4.17h4.19v5.88h.83v2.05h-.77V90.81h-4.94v1.31ZM618.46,90v.05h3.3V84.93h-2.63l-.22,3.44A2.69,2.69,0,0,1,618.46,90Z" style="fill: #aaa"/>
      <path d="M626.5,84.19h.81l2.44,6.62h-.87l-.67-1.9h-2.64l-.66,1.9h-.87Zm-.67,4H628l-1-3h-.07Z" style="fill: #aaa"/>
      <path d="M633.6,84.19h1l2.27,5.53h.07l2.27-5.53h1v6.62h-.77V85.75h-.05l-2.09,5.06h-.7l-2.09-5.06h0v5.06h-.77Z" style="fill: #aaa"/>
      <path d="M641.6,87.5h0c0-2.13,1.16-3.46,3-3.46s3,1.34,3,3.46h0c0,2.11-1.15,3.47-3,3.47S641.6,89.62,641.6,87.5Zm5.23,0h0c0-1.65-.84-2.7-2.19-2.7s-2.19,1-2.19,2.7h0c0,1.64.82,2.7,2.19,2.7S646.83,89.14,646.83,87.5Z" style="fill: #aaa"/>
      <path d="M648.9,87.5h0c0-2.13,1.12-3.46,2.92-3.46a2.58,2.58,0,0,1,2.68,2.15h-.84a1.82,1.82,0,0,0-1.84-1.38c-1.27,0-2.07,1-2.07,2.7h0c0,1.66.8,2.7,2.07,2.7A1.76,1.76,0,0,0,653.65,89h.84a2.52,2.52,0,0,1-2.67,2C650,91,648.9,89.63,648.9,87.5Z" style="fill: #aaa"/>
      <path d="M655.94,90.81V84.19h.82V87.1H657l2.73-2.91h1l-3.06,3.18L661,90.81h-1.1L657,87.76h-.24v3.05Z" style="fill: #aaa"/>
      <path d="M662.18,84.19h2.53c1.22,0,2,.64,2,1.65h0a1.46,1.46,0,0,1-1.14,1.42v.07A1.57,1.57,0,0,1,667,88.95h0c0,1.16-.83,1.85-2.24,1.85h-2.58Zm.82.73V87h1.32c1,0,1.51-.36,1.51-1.05h0c0-.67-.48-1.06-1.3-1.06Zm0,2.83v2.33h1.64c1,0,1.52-.4,1.52-1.17h0c0-.76-.54-1.15-1.59-1.15Z" style="fill: #aaa"/>
      <path d="M668.41,84.19h.82v2.45h1.62A2,2,0,0,1,673,88.73h0a2,2,0,0,1-2.12,2.07h-2.45Zm.82,3.2v2.68h1.42c.95,0,1.49-.48,1.49-1.33h0c0-.85-.55-1.34-1.49-1.34Zm5-3.2H675v6.62h-.82Z" style="fill: #aaa"/>
    </g>
    <g>
      <g>
        <path d="M562.22,54.32a1.89,1.89,0,0,0,.41.06.49.49,0,0,1,.56.45c.09.43,0,.68-.31.82l-.19.07a1.25,1.25,0,0,0,.15.44,1.76,1.76,0,0,1,.31,1.46c0,.49,0,1,0,1.47a.83.83,0,0,0,.07.22l.41-.27a1.75,1.75,0,0,1,1.58-.35,6.88,6.88,0,0,0,1.8,0c.17,0,.18-.12.1-.25l-.32-.48a4.41,4.41,0,0,1,.64.09c.3.09.46,0,.46-.45a11.33,11.33,0,0,1,.88.74.45.45,0,0,0,.53.15,1.24,1.24,0,0,1,1.6.86l-.25,0a10.5,10.5,0,0,0,1.32,2.4,1.85,1.85,0,0,0,.62.54.46.46,0,0,1,.27.43,5,5,0,0,1,0,.61.61.61,0,0,1-.22.38c-.06,0-.24,0-.35-.1a2.06,2.06,0,0,1-.3-.21l.11.44a1.85,1.85,0,0,1-.51-.1,4.48,4.48,0,0,1-.61-.42A2.46,2.46,0,0,0,569.5,63c-.26,0-.28.18-.24.35a6.92,6.92,0,0,0,.31.94c.29.68.58,1.36.9,2a4.7,4.7,0,0,0,.52.76c.38.5.81,1,1.15,1.5a3,3,0,0,1,.33,1c.09.39.18.47.51.27a13.62,13.62,0,0,0,1.33-1c.34-.27.62-.27.8.13a7.66,7.66,0,0,0,1.81,2.48,1,1,0,0,1,.29.72c0,.42.15.84.2,1.26a9.45,9.45,0,0,1,0,1.14c0,.2-.15.23-.29.12a9.83,9.83,0,0,1-.81-.64c-.25-.23-.09-.48.08-.65a.77.77,0,0,0,.13-1.07,1.92,1.92,0,0,0-.23-.25c-.08-.09-.24-.2-.23-.28.09-.48-.31-.67-.53-.94a3.51,3.51,0,0,0-.68-.59c-.08-.06-.28-.09-.34,0-.66.59-1.3,1.21-1.94,1.81l.07.14a5.51,5.51,0,0,0,.8-.07.64.64,0,0,1,.81.36A7.58,7.58,0,0,0,575.9,75a.93.93,0,0,1,.19.6,3.93,3.93,0,0,0,.37,1.58,5.22,5.22,0,0,1,.26,1.12c0,.2-.05.3-.26.21a10.45,10.45,0,0,1-1-.53.35.35,0,0,1-.1-.53,1.87,1.87,0,0,0,.17-.38,1,1,0,0,0-.25-1.14c-.23-.22-.44-.42-.28-.8,0-.1-.1-.33-.21-.45-.3-.32-.65-.6-.95-.92a.48.48,0,0,0-.62-.13c-.65.27-1.32.52-2,.8a7.46,7.46,0,0,1-3.25.84l1,1.27,0-.07.22.1-.3.18-.16-.2-5.2-6.93L555.82,59.2a3.33,3.33,0,0,0-.56-.57.33.33,0,0,0-.33,0c-.05.05,0,.23,0,.32a1.84,1.84,0,0,0,.29.33c-.19.18-.19.51,0,1l.12-.35.07,0,0,.65h0l.05-.19h0l.07.44.18-.3.08.5.17-.35.14.73h.06l.1-.65,12.84,16.77.09,0-.09-1c.09.14.19.15.35.09.47-.18.59-.1.76.36a7.33,7.33,0,0,0,.33.77.84.84,0,0,0,.61.44,1.16,1.16,0,0,1,.65.64,6.06,6.06,0,0,0,.85,1.54c.32.41.29.46-.22.6.06.29,0,.51-.36.54,0,0-.11.15-.11.23a1.73,1.73,0,0,1-.62,1.42c-.51.5-1,1-1.5,1.54a1.72,1.72,0,0,1-.34.24c-.17.1-.18.22-.05.37a.55.55,0,0,0,.75.13,1.46,1.46,0,0,1,1.43-.06,1.48,1.48,0,0,1,.61.53c.05.07-.05.26-.09.41-.15-.15-.24-.31-.37-.37a1.44,1.44,0,0,0-.47-.06c.17.66.16.76-.1,1a.57.57,0,0,0-.75-.41c-.41.11-.06.42-.14.62h-.06a1.36,1.36,0,0,0-1.61-.32,1.32,1.32,0,0,1-1.34-.06,2.24,2.24,0,0,0-1.64.44l-.06.08c-.29-.36-.07-.86.45-1.06.16-.06.33-.09.49-.14s.15-.1.15-.14a.3.3,0,0,0-.13-.2c-.28-.18-.28-.17-.23-.47a1.18,1.18,0,0,0-1.23.15c-.35.28-.35.28-.56-.14l0,0-.77-.08a4.73,4.73,0,0,0-.51-.06,1.94,1.94,0,0,1-1.27-.35.46.46,0,0,0-.71.06c-.15.23-.09.48.2.69s.56.45.95.18c.08-.05.25,0,.37,0a2.74,2.74,0,0,1,.25.14c.29.12.33.17.28.48-.13-.06-.28-.18-.41-.17a1.42,1.42,0,0,0-.56.2c.75.3.86.46.57.94,0-.34-.18-.26-.4-.24a4.59,4.59,0,0,1-1.14-.1,1.36,1.36,0,0,0-1,0l.18.62a5.76,5.76,0,0,1-.6-.1,1.29,1.29,0,0,1-.42-.19c-.14-.1-.25-.2-.46-.11s-.27-.07-.36-.16a.91.91,0,0,0-.43-.21,1.12,1.12,0,0,0-1.12.18.37.37,0,0,1-.34,0c-.33-.23-.53,0-.74.18,0,0-.06,0-.15,0a3,3,0,0,1,.3-.54,3.36,3.36,0,0,1,.62-.56.81.81,0,0,1,.42-.08c.27,0,.54,0,.8,0s.43-.28.21-.54a2.24,2.24,0,0,0-.36-.36.39.39,0,0,1-.1-.59,3.69,3.69,0,0,1,.46-.53c.27-.27.27-.4,0-.71a.8.8,0,0,1-.11-.45c0-.2-.06-.32-.26-.32h-.78c.07.45.17.85.2,1.26a1.08,1.08,0,0,1-.57,1,2.3,2.3,0,0,1-2.07.37,1.53,1.53,0,0,1-1.09-1.53c0-.3,0-.6.06-.9,0-.15,0-.27-.19-.3-.63-.09-1.26-.19-1.94-.3a1.14,1.14,0,0,0,.08,1c.35.56.67,1.14,1,1.72a2.59,2.59,0,0,1,.14.45,3.21,3.21,0,0,1-1.54-.17.39.39,0,0,1-.17-.28,1.6,1.6,0,0,1,0-.57,1.41,1.41,0,0,0-.41-1.54c-.44-.42-.44-.45-.05-.91.18-.22.18-.36,0-.55a2.41,2.41,0,0,1-.53-3c.21-.48.5-.92.74-1.39a1.77,1.77,0,0,0-.08-1.86,2,2,0,0,0-.21-.24c-.52.5-1.19.76-1.51,1.44a5.35,5.35,0,0,0-.55,2,2.4,2.4,0,0,1-.16-.27,5.23,5.23,0,0,1-.46-2.51,1.48,1.48,0,0,1,.44-.87,4.33,4.33,0,0,0,.54-.85c.11-.21,0-.36-.22-.49a6.74,6.74,0,0,1-1.09-.72,1.12,1.12,0,0,1-.2-1.37,1,1,0,0,1,1.06-.72c.36,0,.36,0,.3-.54.39.18.52.81.34,1.47l-.6-.51.07-.13c-.5-.1-.8.11-.84.58a1,1,0,0,0,.54,1.08c.24.13.49.24.77.38a5.41,5.41,0,0,1,.87-2.36A6.27,6.27,0,0,1,551.35,69a2.47,2.47,0,0,1,2.57-.09c.49.22.92.54,1.39.8a.6.6,0,0,0,.38.06c.6-.12,1.19-.25,1.78-.38.1,0,.26-.11.25-.15a.44.44,0,0,0-.17-.3.34.34,0,0,1-.25-.36c0-.06-.13-.15-.22-.19a2.77,2.77,0,0,1-.54-.24,4.62,4.62,0,0,0-4.84-.69l-.38.13-.1-.07c.09-.19.16-.39.27-.57s.56-.52.51-1c0-.06.11-.15.18-.21s.42-.4.62-.61a.53.53,0,0,0,.09-.65c-.35-.73-.15-1.15.62-1.38a9.54,9.54,0,0,0,1-.34.87.87,0,0,0,.42-.33.67.67,0,0,0,0-.5c0-.08-.24-.13-.37-.14s-.55,0-.88.05a.74.74,0,0,1,.07-.25l.94-1.08c.08-.09.19-.21.18-.31,0-.35-.1-.7-.16-1a.2.2,0,0,0,0-.09c-.32-.4-.64-.81-1-1.19a.66.66,0,0,1-.2-.63,1,1,0,0,0-.18-.64c-.36-.53-.77-1-1.15-1.55a1,1,0,0,1-.16-.27.67.67,0,0,1,0-.24l.23.1c-.3,0-.12.15-.06.23.38.52.78,1,1.17,1.54.08.11.18.2.26.29.32-.17.07-.32,0-.47.11.07.21.19.32.19.64,0,.79.49,1,.94a.52.52,0,0,0,.25.26.77.77,0,0,1,.55.78c0,.39.29.61.53.84.06.05.27,0,.37-.06.3-.19.57-.42.86-.62a.76.76,0,0,1,1.14.11c-.16,0-.31-.06-.47-.07a.77.77,0,0,0-.77.4c.56,0,1.12-.13,1.54.31,0,0,.11-.1.14-.08.21.09.41.2.61.3a4.61,4.61,0,0,0,.61.31,1.62,1.62,0,0,0,.49,0l-2.15-1.2.38,0a1.53,1.53,0,0,1,.47,0c.65.22.89.06,1-.64a3.93,3.93,0,0,1,.09-.83,7.53,7.53,0,0,1,.44-.94l.19-.41a3.6,3.6,0,0,1-2.49-.22v-.09l.66-.07c-.33-.29-.72-.44-.92-.93.17.06.27.08.36.12a1.78,1.78,0,0,0,1.78-.15l.6-.38a.79.79,0,0,1,1,.09,1,1,0,0,0-1.17.12,5.15,5.15,0,0,1-.47.27,2,2,0,0,1-1.26.31,6.62,6.62,0,0,1-.67-.17,1.25,1.25,0,0,0,1.1.48l0,.1-.82.33a.93.93,0,0,0,.18.1,1.16,1.16,0,0,0,1.28-.44,1.32,1.32,0,0,1,1-.56c.42,0,.76,0,.92.48l.21-.16.43.13c0-.17.15-.36.12-.52a.4.4,0,0,0-.49-.34l0,.32Zm-2.09,16.86h0l.11-.71h-.1a7.78,7.78,0,0,0-.19,2.93,8.74,8.74,0,0,1,0-3,7.91,7.91,0,0,0-.37,3,9.38,9.38,0,0,1,.15-3,6.83,6.83,0,0,0-.38,3.08,8,8,0,0,1,.13-3.08,1.19,1.19,0,0,0-.18.36,8.27,8.27,0,0,0-.21,2.49c0,.59,0,.59.61.52h.13l1.57-.14c.14,0,.35-.09.18-.24s-.14-.31-.15-.48c0-.75,0-1.49,0-2.24h0L561.27,73V70.54a13.3,13.3,0,0,0-.27,2.71v-2.7h-.13v2.7h-.09V70.49a17.26,17.26,0,0,0-.2,2.73V70.5a8.76,8.76,0,0,0-.22,2.74V70.47l-.13.38Zm5.3-6.64-.08,0,.5,1.13-.36-.34-.06,0,.39.79,0,0-.35-.45-.06,0,.34.77,0,0-.31-.37-.05,0,.33.79,0,0-.42-.52,0,0,.44.89-.09.08-.43-.49v0l.45.77,0,0-.42-.34,0,0,.24.48,0,0-.42-.37-.06,0,.47.73-.27-.14-.26-.15c.17.48.17.49.59.55s1.06.13,1.6.18a20.89,20.89,0,0,0,3.49.33l-.3-.53.52.14L570,68l.52.14-.49-.73.35,0-.38-.54.44.13c-.09-.25-.15-.45-.23-.65l-1.37-3.49a.42.42,0,0,0-.13-.18,1,1,0,0,1-.36-1.25,2.2,2.2,0,0,0,.06-.25l.28.7.17-.29.15.59h.06l.06-.19c.16.16.29.39.49.45a15.18,15.18,0,0,0,1.54.43.61.61,0,0,0,.36,0c.29-.12.43-.07.55.22a.89.89,0,0,0,.22.34,1.13,1.13,0,0,0,.36.13l.1-.41-.13-.07-.12.24-.1,0c0-.12,0-.27.11-.34.24-.23.12-.39-.1-.46a1.6,1.6,0,0,1-1.05-1.12,1.57,1.57,0,0,0-.16-.28c-.13-.23-.28-.38-.49-.07l-.5-.43.44-.39a1,1,0,0,0-.17-.1,1.48,1.48,0,0,1-1.12-.78s-.1-.08-.16-.09a5.34,5.34,0,0,0-1-.16,1.54,1.54,0,0,0-.78.2c-.15.09-.19.36-.27.54l-.15-.18.09.7-.22-.36,0,0,.06.45h0l-.18-.39-.06,0,.15.74-.31-.5.14.71h-.05l-.24-.36,0,0,.15.73-.25-.29,0,0,.15.55-.05,0-.29-.35-.06,0,.25.61,0,0-.27-.31.19.67h0l-.24-.36,0,0,.27.7,0,0-.31-.44,0,0,.33.88,0,0-.32-.35-.06,0,.42.86,0,0-.36-.48-.05,0,.4.9,0,0-.37-.48-.06,0,.55,1.2-.06,0ZM550.81,82.47l0,0a5.36,5.36,0,0,1,.43.56,1.64,1.64,0,0,1,.25.64c0,.47.15.59.73.5l-.32-.59c-.15-.28-.43-.57-.41-.84a5.11,5.11,0,0,1,.43-1.49,12.5,12.5,0,0,1,.69-1.2c.05-.09.11-.27.07-.31s0-.29,0-.44.15-.45.2-.6l.35-.16.06.24.18-.35.13.16.19-.31.08.31.21-.39.12.3.24-.41.07.16.21-.27.05.23.34-.54,0,.38.28-.44,0,.37.27-.57.14.15.29-.45.07.13a2.9,2.9,0,0,1,.37-.3c.11-.07.27-.06.37-.12.39-.26.78-.53,1.15-.82s.46-.43.7-.66l.38-.08.18.32.09-.4.11.49h.06l.15-.46.18.39.11-.41.17.29.22-.47.09.36.19-.38.14.25.16-.71c-.76.1-1.47.17-2.18.29a.87.87,0,0,0-.48.26,6.28,6.28,0,0,1-3.23,2,3,3,0,0,1-.36,0l-.06-.11.52-.42.07.24.33-.63,0,.47.39-.67.05,0v.36h.05l.2-.63h0l0,.41h.07l.18-.62h0l0,.43.28-.88h0v.47h0l.17-.8h.06l0,.5h.09l.2-.88.06.65h.1l.09-.81h0l.12.52h.13c.07-1.18.13-2.35.19-3.53,0-.06-.16-.18-.23-.17-.43,0-.85.12-1.28.19l0-.05,1.5-.37a3.45,3.45,0,0,0-3.1,1.27,2.32,2.32,0,0,1,.86-1,3.17,3.17,0,0,1,1.88-.45,2.51,2.51,0,0,0,.45-.07l0-.12a4.16,4.16,0,0,0-2.29.36,3.67,3.67,0,0,0-1.45,1.84,2.48,2.48,0,0,1,1.66-2.14,9.31,9.31,0,0,1,1.77-.24l.45,0q-.08-.15-.16-.15a8.92,8.92,0,0,0-1.63,0c-1.78.34-2.59,1.76-2.76,3.55-.09,1-.1,2-.14,3a1.31,1.31,0,0,1-.56,1,7.34,7.34,0,0,1-.73.48.82.82,0,0,0-.4.68,5.11,5.11,0,0,1-.3,1.34C551.61,81,551.2,81.69,550.81,82.47Zm18.58-3.9a4.23,4.23,0,0,0-.33-1c-.45-.68-1-1.32-1.43-2a.27.27,0,0,0-.41-.07,12.29,12.29,0,0,1-5.51,1.56,1.17,1.17,0,0,0-1.09.52,5.71,5.71,0,0,1-1.2,1.2c-.77.65-.95.71-.12,1.69l0,0a.91.91,0,0,0,.3.07c.4,0,.79-.13,1.19-.15s.4-.11.26-.39a1.87,1.87,0,0,0-.94-1l-.3-.15,0-.1a5.57,5.57,0,0,1,.75.12,8.71,8.71,0,0,0,2.6.38.39.39,0,0,0,.3-.15c0-.09,0-.23-.08-.34s-.08-.09-.12-.14a1.11,1.11,0,0,0-.23-1.4l.21,0a5.91,5.91,0,0,1,2.1,1.14.37.37,0,0,0,.53.06,2.24,2.24,0,0,1,1.73-.27.91.91,0,0,1,.68,1.32,5.09,5.09,0,0,0-.19,1c0,.15,0,.33,0,.44a2.06,2.06,0,0,0-.15,1.22.84.84,0,0,0,.66.68,2.49,2.49,0,0,0,2-1.15.47.47,0,0,0,0-.32c-.06-.15-.15-.29-.22-.45a6.56,6.56,0,0,0-.34-.86c-.27-.45-.58-.87-.88-1.31a.43.43,0,0,1-.07-.11c0-.06,0-.15,0-.17a.3.3,0,0,1,.2-.05A.67.67,0,0,1,569.39,78.56Zm1.47-5.09,0,0,.71.18-.24-.34.66.17,0-.24.62.16-.09-.19a3.51,3.51,0,0,0,.65-.17c.32-.15.38-.17.62,0l.46.41a.65.65,0,0,0,0-.8.74.74,0,0,0-.71-.34c-1,.11-2,.18-3.07.24a.59.59,0,0,1-.43-.16c-.25-.29-.45-.63-.67-.94l.07-.06.3.07-.15-.38.31.06-.07-.38.34,0-.22-.46.3,0c0-.3-.24-.33-.43-.36-.73-.15-1.47-.28-2.21-.4-.5-.08-1-.13-1.5-.19a.5.5,0,0,0-.15,0l.08.31-.56-.33.24.41-.56-.37,0,0,.21.32,0,0-.48-.4,0,0,.41.6-.26,0,.14.38-.31-.06.13.29-.22,0,2.27,2.83,0-.36.74.69-.2-.5.06,0,.72.66-.22-.63.79.71.05-.07-.32-.49.05,0,.76.52,0-.06-.32-.43.86.53,0-.06-.31-.42,0,0,.83.48,0-.05-.35-.46.94.4,0-.06Zm-19.19,6.62h.12c.1-.49.22-1,.3-1.47a.61.61,0,0,1,.3-.45c.35-.25.67-.53,1-.81a1,1,0,0,0,.33-.81c0-.54,0-1.07,0-1.61s0-1.35.05-2a5,5,0,0,1,.68-2c.19-.35.15-.44-.25-.46a2,2,0,0,0-1.71.65,5.08,5.08,0,0,0-1.21,2.48.52.52,0,0,0,.18.53,2.31,2.31,0,0,1,.76,1.52,5,5,0,0,1-.37,2.3,9,9,0,0,0-.39,1.25A.88.88,0,0,0,551.67,80.09Zm.93-10.38a5,5,0,0,0-1.83,3.06c-.14.66.05,1.38-.4,2a1.46,1.46,0,0,0,.58-1,5.89,5.89,0,0,1,1.15-2.89,6,6,0,0,1,1-.85,1.32,1.32,0,0,1,.39-.12l-.87.6,0,.08.3-.16a2,2,0,0,1,1.39-.26,1,1,0,0,0,.32,0,1.45,1.45,0,0,0,.32-.13c0-.09-.06-.23-.14-.28A13.34,13.34,0,0,0,553.6,69a1.85,1.85,0,0,0-.74-.17,2.73,2.73,0,0,0-2.14,1,3.51,3.51,0,0,0-.89,1.55l.48-.61.08,0a4.26,4.26,0,0,0-.68,2,3.59,3.59,0,0,1-1,2.45,1.3,1.3,0,0,0-.18,1.3,3.8,3.8,0,0,1,.64-.84,3.29,3.29,0,0,0,1.3-2.61,4.41,4.41,0,0,1,1.74-3.24A2.38,2.38,0,0,1,552.6,69.71ZM558,80.42a1.88,1.88,0,0,0-.23-.36,5.75,5.75,0,0,0-.58-.46c-.28-.19-.29-.31-.07-.56s.5-.62.73-.94a.73.73,0,0,0,.11-.36c0-.17-.1-.24-.25-.17-.48.2-.95.44-1.43.62-.83.32-1.66.6-2.5.9-.15.05-.34.09-.42.21-.29.38-.53.79-.8,1.2a1.77,1.77,0,0,0,1,.29.39.39,0,0,1,.24.08.71.71,0,0,0,.63.16c.14,0,.27,0,.41,0a1.12,1.12,0,0,0,.4,0c.63-.24,1.31-.32,1.93-.6A2.35,2.35,0,0,1,558,80.42Zm-1.78-13.94.49-.36.05,0-.1.37.63-.52-.06.42.06,0,.53-.63.07.36.58-.93-.06-.09a5.29,5.29,0,0,1-3.28.25,3.29,3.29,0,0,1,.69-.41c.38-.17.84-.15,1.13-.53,0,0,.15,0,.24,0l.15-.33.1.22.24-.35c.25.29.31,0,.42-.1l-.18-.31-.4,0v-.19h-.83l.12-.25-.83.09,0-.08-.86.09v-.08l-.37.19.12-.26c-.3-.09-.52.27-.86.05-.12-.08-.43.12-.64.22a1.51,1.51,0,0,0-.46.33c-.15.17,0,.67.16.71l.12-.23.12.15.1-.17.15.17.09-.16.19.28,0-.32.15.21.12-.14.13.26.11-.3.14.22.15-.26,0,.43.21-.43.05.33.16-.26.07.36.25-.38.11.1.12-.18.09.25.55-.16a1.65,1.65,0,0,1-.49.42,5.86,5.86,0,0,1-1.89.46,8.52,8.52,0,0,0-1.4.42c-.17.07-.29.28-.45.45l.34.1.57-.28.07.2,1-.06v.16l.59-.11v.07l.53.06,0,.08h.71l0,.21.33-.18Zm10.1,16.73.07.07-.66,1.1.09.05a3.43,3.43,0,0,0,1.07-1.36,1,1,0,0,0-.14-1.26.88.88,0,0,1-.24-.94.94.94,0,0,0,0-.45c0-.28-.12-.56-.18-.84a.55.55,0,0,0-.61-.48,5.25,5.25,0,0,0-.67.1,10.18,10.18,0,0,1-3.43.17,2.51,2.51,0,0,0-.36,0l0,.1c.26.11.56.36.77.3s.62.16.95,0c.16-.07.41.1.62.12s.46-.09.64.12l0,0,0-.21.43.25-.06-.39.34.26,0-.33.28.34.06-.21h.09l.06,1.15.23-.64a1.26,1.26,0,0,1-.63,1.37,2.53,2.53,0,0,1-.52.19,3.27,3.27,0,0,0-.83.54c.78,0,1.34-.5,2-.69l.08.09-.4.48,0-.09-1.15.64a2,2,0,0,0,.81-.1c.4-.18.78-.42,1.19-.65l.18.62,0,0-.12-.16L566,83l-.13-.2-.08.67-.14-.21,0,.1-.4.2,0-.08-.26.58A2.7,2.7,0,0,0,566.35,83.21Zm-4.6-20.48a1.24,1.24,0,0,0,.09.16c0,.06.12.17.15.17s.2-.1.21-.16a4.9,4.9,0,0,0,0-1.15c0-.18-.29-.31-.48-.49l-.26.5-.29-.48-.25.45a.33.33,0,0,1-.11-.18l-.11-.27-.23.17a1,1,0,0,1-.16.07c0-.08-.08-.16-.06-.23s.08-.31-.11-.33a.39.39,0,0,0-.31.2,6.46,6.46,0,0,0-.37,1.06c-.1.41.1.56.49.43l.08.43c.45.11.19-.46.46-.48l.31.58.27-.38C561.37,63.1,561.37,63.1,561.76,62.73Zm-3.19,11.86.6-.07,2.12-.32c.24,0,.38-.17.34-.49l-2.61.22a.65.65,0,0,1,0-.12c0-.09,0-.17,0-.26a9,9,0,0,1,.33-3.12c0-.08,0-.17-.05-.26s-.2.06-.26.13a.87.87,0,0,0-.14.32A10.29,10.29,0,0,0,558.57,74.59Zm3.7-.93,0,0,.59-.52-.34,0,.48-.59,0,0-.22.12,0,0,.45-.62,0,0-.4.38,0,0,.46-.64-.4.25,0-.06.81-.89-.06-.05-.43.32,0,0,.5-.57a.64.64,0,0,0-.3.11c-.93.56-.9.56-1,1.62a2.76,2.76,0,0,1-.71,2.07c.2.22.5.39.56.63.15.6.5.61,1,.44H563c.21,0,.24-.16.11-.28a5.7,5.7,0,0,0-.57-.45l-.47-.36.31-.34-.17,0,.24-.35Zm-3.76-7.09-.05-.1c-.15.06-.31.1-.46.17a3.09,3.09,0,0,1-2.25.17,9.87,9.87,0,0,0-3.21-.36,1.11,1.11,0,0,0-.9.52.64.64,0,0,0-.05.23l.09,0,.2-.26.08.11.59-.19.06.13a3.26,3.26,0,0,1,.65-.26c.17,0,.41.13.53.06.27-.16.52,0,.77,0a3.55,3.55,0,0,1,1.11.35l.45.12,0,.19.31-.14v.25l.54-.43,0,.32.43-.38.1.29.26-.37.07.06,0,.29Zm4.43-9.08,0-.1c-.11-.07-.22-.2-.33-.21a7.69,7.69,0,0,0-1.2,0,.4.4,0,0,0-.22.33,8.85,8.85,0,0,0,.3,1.27.69.69,0,0,0,.33.37c.15.07.42.11.52,0a1.65,1.65,0,0,0,.59-1.31h-.58l0-.27Zm0,6.61a1.13,1.13,0,0,1,.63-.92,7,7,0,0,0,2.12-2.3,2.79,2.79,0,0,0,.21-.47l-.11-.08a3.67,3.67,0,0,0-.62.57A6.58,6.58,0,0,1,563.14,63,.76.76,0,0,0,563,64.1Zm.28,1.89.05.06a1.09,1.09,0,0,0-.63,1.27c.38-.74,1.33-.94,1.71-1.79l-.43.19c.24-.2.52-.36.61-.75l-.38.25.1-.62c-.33.28-.63.54-.94.79a1.86,1.86,0,0,0-.63,1Zm-4.12,15.67,0,0,.22-.2-.25,1.32.1,0c.07-.25.13-.51.22-.75a6.24,6.24,0,0,1,.34-.64l.09,0-.18.34,0,0,.7-.6,0,0-.54,1.06a5.51,5.51,0,0,0,.75-.9,6.45,6.45,0,0,0,.33-.61c-.24,0-.49-.08-.73-.1a11.36,11.36,0,0,1-1.17-.09c-.39-.07-.41-.1-.53.32h.87Zm5.49-12.8V69c.37,0,.75.08,1.12.14l4.34.68a4.42,4.42,0,0,0,.5.09c.06,0,.15-.1.18-.17a.22.22,0,0,0-.1-.2,1.48,1.48,0,0,0-.4-.1c-1.57-.21-3.14-.43-4.71-.62A7.54,7.54,0,0,0,564.64,68.85Zm7.81,11.73c-.08-.24-.17-.46-.24-.68a2.8,2.8,0,0,0-.13-.43.28.28,0,0,0-.23-.12,1.38,1.38,0,0,0-.34.22c-.23-.11-.27-.27-.08-.45a.37.37,0,0,0,0-.62c-.1-.1-.2-.27-.37-.11s0,.26.08.37,0,.07,0,.05l-.34.58-.3,0,.29.55c.17.1.34.14.41.24a3,3,0,0,1,.23.58l.16-.3.2.42,0-.54.38.57-.06-.48ZM563.17,74c.63-.17,1.25-.34,1.87-.53a.3.3,0,0,0,.13-.26,6.83,6.83,0,0,0-.29-1,3.76,3.76,0,0,0-.4-.61.86.86,0,0,0-.07.17c0,.15,0,.3,0,.45,0,.83,0,.83-.75,1l-.12,0C563.19,73.33,563.09,73.5,563.17,74Zm-.31-5.89a7.27,7.27,0,0,1,.71-.86,10.63,10.63,0,0,1,.9-.6,1.57,1.57,0,0,0,.45-1.88,2,2,0,0,0-.27.49,2.25,2.25,0,0,1-1.09,1.44,3.6,3.6,0,0,0-.73.75A.5.5,0,0,0,562.86,68.06Zm-1.59-7.73a3.55,3.55,0,0,1-1.81-.49,14.33,14.33,0,0,0-1.38-.51c-.49-.14-1.17-.12-1.41.23l.76.29-.17-.28.73.4-.13-.37.5.35-.05-.32.67.57V60c.13.07.33.21.35.19.17-.19.24,0,.34.07s.18.11.28.16v-.16A.94.94,0,0,0,561.27,60.33Zm.82,8.62c-.09,0-.2.07-.23,0-.3-.34-.54-.06-.76.1s-.33.43.06.63a2.75,2.75,0,0,0,1.65.28,1.71,1.71,0,0,0,.36-.16L562.07,69Zm.43,11.7,0,.26-.81-.11c0,.09,0,.1,0,.11l.11.06a4.41,4.41,0,0,0,2.91.19c.45-.11.5-.2.46-.74l-.2.47-.13-.27-.15.34-.08-.09-.11-.38-.2.46-.07-.29-.2.17-.06-.17-.17.19-.19-.39-.1.29-.63.1-.1-.14-.1.21Zm2.77-6.28c0-.18.08-.34.12-.49s0-.34-.25-.28c-.6.18-1.2.37-1.8.57a.29.29,0,0,0-.2.42l.28-.16,0,.29.27-.25.07.31.26-.35.05.5.22-.53,0,.42h.07l.16-.47.16.44.14-.48.15.26.13-.48.06.14Zm-1-13.82a1.67,1.67,0,0,1,1.28-1.05,5.2,5.2,0,0,1,.64,0c.44,0,.66-.35,1-.61C565.5,58.64,564.36,59.31,564.31,60.56Zm-6.16,7.71A2.52,2.52,0,0,0,561,67.6l-.43.06A1.68,1.68,0,0,0,560,68c-.21.2-.43-.1-.62,0l0-.23-.26.23.07-.3-.29.2.22-.58Zm-3.35-11-.6-.34.29-.05,0-.11a1.38,1.38,0,0,0-.51-.1c-.11,0-.2.2-.27.32s0,.13.06.24c-.3.35-.3.39.07.78a.44.44,0,0,0,.09.09l.35.17.08-.31.38-.32-.23-.19Zm9.71,6.68,0,.93c.49-.63.33-1.38.63-2-.76.4-1.51,1.15-1.34,1.85Zm.63-1.77-1.27,1c-.16.13-.32.25-.47.39a.94.94,0,0,0-.06,1.25,5.16,5.16,0,0,1,.45-1,4.5,4.5,0,0,1,.83-.79A1.19,1.19,0,0,0,565.13,62.17Zm-1.67.24c1-.71,1.57-1.84,2.67-2.43a1.21,1.21,0,0,0-1,.39c-.42.38-.85.75-1.26,1.14A1.27,1.27,0,0,0,563.47,62.41Zm-8.23-.62.17.4c.14-.61,0-1.09-.38-1.21s-1,.26-1.14.77c1.06-.08,1.06-.08,1.25.33Zm15.45-2.55a1.13,1.13,0,0,0-1.83-.41,1.1,1.1,0,0,1,1,.65l.21-.27.19.54h.09l0-.58.12,0ZM563,62.12c.17.1.24.08.23-.2s.1-.64-.41-.52c0,0,0,0,0,0-.24-.16-.39-.1-.44.18a1,1,0,0,0,0,.44,2.46,2.46,0,0,0,.25.47Zm-2.41,6.68s0,0,0-.07c0-.21-.07-.37-.28-.11,0,0-.08,0-.12,0-.26,0-.2.18-.15.32a3,3,0,0,0,.23.41,1.77,1.77,0,0,0,.24-.13c.25-.18.48-.38.74-.55s.34-.16.5-.26,0-.15,0-.23a.68.68,0,0,0-.23,0c-.05,0-.08.12-.13.15ZM570.56,79a.25.25,0,0,0,.11,0,.8.8,0,0,0,0-.82,1.86,1.86,0,0,1-.33-.57c0-.15,0-.3-.19-.24a.39.39,0,0,0-.19.33,3.16,3.16,0,0,0,.27.67C570.31,78.59,570.44,78.8,570.56,79Zm-2.89,1.13a1.92,1.92,0,0,0,.17-.38c0-.16,0-.33,0-.49.08-.36,0-.52-.29-.62v1l-.43-.36c.08.25.19.42.17.57s0,.46.25.58l0-.36ZM562,55a2.38,2.38,0,0,0-.94.08,3.09,3.09,0,0,0-.69.78l.06.08a3.05,3.05,0,0,0,.48-.2C561.29,55.56,561.63,55.32,562,55Zm9,12.26.12,2.21C571.46,69.32,571.41,67.62,571,67.3Zm-7.85-7.64.56,0,1.3-.83a1,1,0,0,0-.91.16C563.76,59.19,563.45,59.43,563.15,59.66ZM554.68,59c0-.57.29-.78.81-.74-.1-.27-.26-.38-.49-.35a.6.6,0,0,0-.58.43A.52.52,0,0,0,554.68,59Zm16.7,11.36-.1,0s0,.06,0,.08c.07.57.15,1.14.23,1.71,0,.05.09.09.14.14s.12-.13.11-.19c0-.43-.1-.87-.18-1.29A2.8,2.8,0,0,0,571.38,70.36ZM557.86,81.19l.1,0a1.15,1.15,0,0,0,.14-.45c0-.08-.22-.16-.35-.19a1,1,0,0,0-.45,0c-.27.07-.6.09-.67.46.33,0,.65-.39,1,0l.41-.24Zm6-5a.9.9,0,0,0-1.31-.46A1.47,1.47,0,0,0,563.86,76.16Zm2.48-16.45a1.28,1.28,0,0,0-1.75.92A3.07,3.07,0,0,1,566.34,59.7Zm-4.77-2.77c.77.09.9,0,.78-.5-.06-.24-.25-.33-.41-.15A3.42,3.42,0,0,0,561.57,56.93Zm2,11.28a2.46,2.46,0,0,1,.19-.41c.08-.11.23-.18.29-.29a4.65,4.65,0,0,0,.24-.61A.91.91,0,0,0,563.6,68.2Zm12.59,9.25-.48-.38c-.41.45-.36.71.14,1Zm-20,3.6c-.51-.19-1.15.2-1.09.62l.28-.2.24.29,0-.27C556.07,81.59,556,81.22,556.21,81.06Zm11.61,3.84c.4-.36.3-.88-.26-1.42l-.18.38.27.09-.13.25C568,84.29,567.67,84.66,567.82,84.9Zm-8.6-22.78a1.23,1.23,0,0,0,.29-1.24A1.12,1.12,0,0,0,559.22,62.12Zm.54,22.61c-.34.42-.34.55,0,.79a.9.9,0,0,0,.29.08c0-.11.09-.24.06-.32A4.18,4.18,0,0,0,559.76,84.73Zm2-9.23c.15-.51.1-.61-.37-.86C561.16,75.11,561.2,75.2,561.8,75.51Zm6.76,10.36c0-.42-.22-.72-.38-.64s-.35.31-.31.4C568,85.95,568.29,85.83,568.56,85.87Zm-7.69-27.92a1.62,1.62,0,0,0,.88,1.46ZM552,84.77c-.07-.09-.15-.22-.25-.33a.86.86,0,0,0-.2-.13.76.76,0,0,0-.12.23c0,.36.12.54.45.56Zm11.84-8.43a2.29,2.29,0,0,1-1.56-.61A1.18,1.18,0,0,0,563.89,76.33Zm-1.42-20.08c0,.21,0,.42.07.62a.24.24,0,0,0,.17.15.27.27,0,0,0,.2-.12A.48.48,0,0,0,562.47,56.25Zm-7.79,25.87a.63.63,0,0,0-.48.75l.35,0,0-.27.18.05Zm15.06-5.53a.66.66,0,0,0-.13,1,1.66,1.66,0,0,0,.25-.47A1.49,1.49,0,0,0,569.74,76.59Zm1-6.68c.18.15.32.31.35.29a.69.69,0,0,0,.29-.32c0-.06-.15-.27-.18-.26A2.3,2.3,0,0,0,570.79,69.92Zm-1.3,7.89-.11,0a2.84,2.84,0,0,0,.07.3,2.59,2.59,0,0,0,.19.48.41.41,0,0,0,.46.26Zm-2.24-19.66,0,.08.34.37v-.07l.74.06v0Zm-5.4-2c.49.07.5,0,.32-.56A.47.47,0,0,0,561.85,56.1ZM559.95,87l.09-.11-.4-.5-.33.19Zm8.47-.68a.4.4,0,0,0-.54-.14c-.06,0-.1.13-.14.2a.82.82,0,0,0,.25,0A3.71,3.71,0,0,0,568.42,86.37Zm-12.63-3.31-.3.46c.08,0,.18.1.25.08C556,83.52,555.93,83.35,555.79,83.06Zm13.48,3.1.62.06C569.87,85.86,569.75,85.83,569.27,86.15Zm-5.76-24.79.12-.07a.38.38,0,0,0-.31-.49l-.1.06Zm8.4,2.54.13-.15-.47-.37-.1.12Zm-12.53-5-.06.08.7.27C559.94,59,559.77,58.92,559.39,58.9Zm-5.24,24.81.07.57C554.5,84,554.49,83.86,554.14,83.71Zm6.67-25.93c.36-.26.39-.44.15-.61Z" style="fill: #aaa"/>
        <path d="M571.91,63.91l-.44-.4.1-.12.47.37Z" style="fill: #aaa"/>
        <path d="M560.13,71.18c0,.36,0,.72,0,1.08s0,.7,0,1.05a6.24,6.24,0,0,1-.06-2.13Z" style="fill: #aaa"/>
        <path d="M561.47,57.74l.13-.42.65.23-.08.28Z" style="fill: #aaa"/>
        <path d="M562.42,58.7a.76.76,0,0,1,0,.12l-.49,0v-.14Z" style="fill: #aaa"/>
        <path d="M571.2,79.85c.26,0,.48.12.67-.15l-.24.53Z" style="fill: #aaa"/>
      </g>
      <path d="M562.8,96.49a.39.39,0,0,1-.2-.05l-2.84-1.68a6.45,6.45,0,0,0-3.27-.89h-7.42A6.84,6.84,0,0,1,542.23,87V51.69A2.71,2.71,0,0,1,544.94,49h35.73a2.71,2.71,0,0,1,2.71,2.71V87a6.84,6.84,0,0,1-6.84,6.84h-7.42a6.45,6.45,0,0,0-3.27.89L563,96.44A.39.39,0,0,1,562.8,96.49ZM544.94,49.76A1.94,1.94,0,0,0,543,51.69V87a6.07,6.07,0,0,0,6.06,6.06h7.42a7.22,7.22,0,0,1,3.67,1l2.65,1.56,2.65-1.56a7.22,7.22,0,0,1,3.67-1h7.42A6.07,6.07,0,0,0,582.6,87V51.69a1.94,1.94,0,0,0-1.93-1.93Z" style="fill: #aaa"/>
    </g>
  </g>
  <g>
    <polygon points="436.73 54.67 458.38 67.09 469.19 60.85 436.73 54.67" style="fill: #aaa;opacity: 0.55"/>
    <polygon points="447.58 85.78 458.39 79.55 425.93 73.36 447.58 85.78" style="fill: #aaa;opacity: 0.35000000000000003"/>
    <polygon points="425.92 60.91 436.73 54.68 404.66 48.71 425.92 60.91" style="fill: #aaa;opacity: 0.75"/>
    <polygon points="425.93 73.36 436.73 54.67 425.92 60.91 425.93 73.36" style="fill: #aaa"/>
    <polygon points="458.39 79.54 469.19 60.85 458.38 67.09 458.39 79.54" style="fill: #aaa"/>
    <polygon points="447.58 98.27 458.38 79.57 447.57 85.81 447.58 98.27" style="fill: #aaa"/>
  </g>
</svg>
