<svg xmlns="http://www.w3.org/2000/svg" xmlns:xlink="http://www.w3.org/1999/xlink" width="411mm" height="307.35mm" viewBox="0 0 1165.04 871.23">
  <defs>
    <mask id="a" x="92.96" y="93.64" width="74.21" height="55.84" maskUnits="userSpaceOnUse">
      <path d="M142.38,122.58,95.62,95.76l70.12,13.34-23.33,40.39Z" style="fill: #71b4e1"/>
    </mask>
    <mask id="b" x="70.48" y="134.12" width="74.21" height="55.75" maskUnits="userSpaceOnUse">
      <path d="M119.05,163,72.29,136.13l70.12,13.36-23.33,40.39Z" style="fill: #c5cac6"/>
    </mask>
    <mask id="c" x="23.25" y="80.15" width="74.21" height="55.98" maskUnits="userSpaceOnUse">
      <path d="M72.26,109.22,25.5,82.4,95.62,95.76,72.29,136.13Z" style="fill: #f73624"/>
    </mask>
  </defs>
  <title>8</title>
  <g>
    <path d="M1012.49,101.75v3h25.78c1.71,0,4.3,0,6,1.71s1.72,4.3,1.72,6v25.78c0,1.72,0,4.3-1.72,6s-4.3,1.72-6,1.72h-12.43c-2.15,0-4.95,0-6-2.36s.43-4.51,1.73-6.23l16.75-22.31h-25.78l-10.34,13.74c-1.73,2.3-3.22,4.3-3.22,6.87s1.39,4.44,3.22,6.87l2.58,3.43c2.58,3.43,5.16,6.87,8.57,8.57s7.52,1.71,13.08,1.71h11.19c6.45,0,16.09,0,22.57-6.44s6.44-15.9,6.44-19.3V120.21c0-3.44,0-12.89-6.44-19.3s-16.09-6.43-22.57-6.44H1019.8c-1.71,0-3.87,0-5.59,1.72s-1.71,3.87-1.71,5.59" style="fill: #aaa"/>
    <polygon points="981.74 115.03 1007.25 115.03 976.51 156.25 950.34 156.25 981.74 115.03" style="fill: #aaa"/>
    <path d="M881,122.36c0-1.71,0-3.87,1.72-5.59s3.87-1.71,5.59-1.71h43.18c5.58,0,9.68,0,13.08,1.71s6,5.16,8.57,8.57l2.58,3.43c1.84,2.44,3.23,4.3,3.23,6.87s-1.5,4.57-3.23,6.87l-10.34,13.74H919.61l16.75-22.31c1.29-1.72,2.8-3.86,1.72-6.23s-3.86-2.36-6-2.36H911.85v51.55H891.25V125.36H880.91v-3" style="fill: #aaa"/>
  </g>
  <g>
    <path d="M234.85,407.4l9.57-7.15H212.36v42.86h32.06v-7.16h-22.9V425h19.57v-7.15H221.52V407.4Z" style="fill: #aaa"/>
    <path d="M188.14,416.94H177V407.4H194.8l9.58-7.15H167.87v42.86H187c10.69,0,16.87-4.91,16.87-13.47C203.82,421.43,198.27,416.94,188.14,416.94Zm-1.53,19H177V424.09h9.58c5.83,0,8.53,2,8.53,6S192.23,435.95,186.61,435.95Z" style="fill: #aaa"/>
    <path d="M270.38,400.25H253v42.86h9.16V431h8.33c11.1,0,18-5.89,18-15.36S281.55,400.25,270.38,400.25Zm-.21,23.57h-8.12V407.4h8.12c5.9,0,9.09,2.95,9.09,8.21S276.07,423.81,270.17,423.81Z" style="fill: #aaa"/>
    <path d="M152.18,433.84a16.35,16.35,0,0,1-7.91,2c-8.26,0-14.23-6-14.23-14.17s6-14.17,14.23-14.17a13.75,13.75,0,0,1,8.33,2.67l6.6-4.91-.42-.42c-3.82-3.44-9-5.19-14.79-5.19a23.43,23.43,0,0,0-16.24,6.1,21.25,21.25,0,0,0-6.39,15.65,22.25,22.25,0,0,0,6.39,15.92,22.82,22.82,0,0,0,16.17,6.32c6.59,0,12.35-2.32,16.24-6.52l-5.9-4.42Z" style="fill: #aaa"/>
    <path d="M92.71,400A38.05,38.05,0,0,1,96.94,407L64.88,431l-13.47-8.56V412.17l13.39,8.49Z" style="fill: #aaa"/>
    <path d="M37.74,421.71a9.24,9.24,0,0,1,.07-1.4l-8.12-.42c0,.56-.07,1.19-.07,1.75A35.73,35.73,0,0,0,40,446.82L45.72,441A27.1,27.1,0,0,1,37.74,421.71Z" style="fill: #aaa"/>
    <path d="M64.81,394.35a9.09,9.09,0,0,1,1.39.07l.42-8.21c-.56,0-1.18-.07-1.74-.07A35,35,0,0,0,40,396.6l5.76,5.82A26.67,26.67,0,0,1,64.81,394.35Z" style="fill: #aaa"/>
    <path d="M64.81,449.07a9.09,9.09,0,0,1-1.39-.07L63,457.21c.56,0,1.18.07,1.74.07a35,35,0,0,0,24.92-10.45L83.9,441A26.27,26.27,0,0,1,64.81,449.07Z" style="fill: #aaa"/>
    <path d="M80.08,399.12,86.95,394a35,35,0,0,0-22.14-7.93v8.21A27.07,27.07,0,0,1,80.08,399.12Z" style="fill: #aaa"/>
    <path d="M100.07,421.71a38.55,38.55,0,0,0-.56-6.38L91.94,421v.7A27.32,27.32,0,0,1,83,442l5.48,6.1A35.7,35.7,0,0,0,100.07,421.71Z" style="fill: #aaa"/>
    <path d="M64.81,449.07A26.75,26.75,0,0,1,44.75,440l-6,5.54a34.85,34.85,0,0,0,26.09,11.71Z" style="fill: #aaa"/>
    <path d="M46.7,401.43l-5.49-6.1a35.57,35.57,0,0,0-11.59,26.38h8.12A27.43,27.43,0,0,1,46.7,401.43Z" style="fill: #aaa"/>
  </g>
  <g>
    <g>
      <path d="M995.78,677.27H996l5.2,12.82h2.45l5.2-12.79h.18v12.84h3.27V671.46h-4.18L1002.51,685h-.23l-5.59-13.54h-4.18v18.69h3.27Z" style="fill: #aaa"/>
      <path d="M1018.07,689.52a6.81,6.81,0,0,0,3.58.9,6.91,6.91,0,0,0,3.6-.9,6.22,6.22,0,0,0,2.35-2.53,8.11,8.11,0,0,0,.83-3.8,8.32,8.32,0,0,0-.83-3.8,6,6,0,0,0-2.35-2.53,7.57,7.57,0,0,0-7.18,0,6.23,6.23,0,0,0-2.36,2.53,8.13,8.13,0,0,0-.83,3.8,8.35,8.35,0,0,0,.83,3.8A6.11,6.11,0,0,0,1018.07,689.52Zm.56-8.66a3.77,3.77,0,0,1,1.13-1.66,2.92,2.92,0,0,1,1.91-.62,2.83,2.83,0,0,1,1.87.62,3.77,3.77,0,0,1,1.13,1.66,6.93,6.93,0,0,1,.36,2.33,6.84,6.84,0,0,1-.36,2.32,3.77,3.77,0,0,1-1.13,1.66,2.85,2.85,0,0,1-1.87.61,2.94,2.94,0,0,1-1.91-.61,3.64,3.64,0,0,1-1.13-1.66,6.83,6.83,0,0,1-.38-2.32A7,7,0,0,1,1018.64,680.86Z" style="fill: #aaa"/>
      <path d="M1033.6,689.5a7.71,7.71,0,0,0,6.73.28,5,5,0,0,0,2.07-1.79,5.4,5.4,0,0,0,.88-2.63h-3.18a3,3,0,0,1-.55,1.28,2.69,2.69,0,0,1-1,.81,3.08,3.08,0,0,1-1.33.28,3,3,0,0,1-1.81-.56,3.47,3.47,0,0,1-1.19-1.58,6.51,6.51,0,0,1-.43-2.47,6.28,6.28,0,0,1,.43-2.43,3.42,3.42,0,0,1,1.21-1.56,3,3,0,0,1,1.79-.54,2.74,2.74,0,0,1,1.92.67,3.11,3.11,0,0,1,.91,1.69h3.18a5.26,5.26,0,0,0-.89-2.65,5.17,5.17,0,0,0-2.12-1.76,7.21,7.21,0,0,0-3-.62,6.83,6.83,0,0,0-3.58.92,6.13,6.13,0,0,0-2.34,2.55,8.3,8.3,0,0,0-.83,3.78,8.16,8.16,0,0,0,.81,3.75,6.19,6.19,0,0,0,2.32,2.55Z" style="fill: #aaa"/>
      <path d="M1049.14,684.85h1.63l3.88,5.29h4l-5.29-7.13,5.24-6.89h-4l-4.26,5.65h-1.21v-5.65h-3.33v14h3.33Z" style="fill: #aaa"/>
      <path d="M1062.33,689.52a6.81,6.81,0,0,0,3.58.9,6.91,6.91,0,0,0,3.6-.9,6.23,6.23,0,0,0,2.36-2.53,8.13,8.13,0,0,0,.83-3.8,8.35,8.35,0,0,0-.83-3.8,6,6,0,0,0-2.36-2.53,7.57,7.57,0,0,0-7.18,0,6.22,6.22,0,0,0-2.35,2.53,8.11,8.11,0,0,0-.83,3.8,8.32,8.32,0,0,0,.83,3.8A6.11,6.11,0,0,0,1062.33,689.52Zm.56-8.66a3.77,3.77,0,0,1,1.13-1.66,2.92,2.92,0,0,1,1.91-.62,2.83,2.83,0,0,1,1.87.62,3.77,3.77,0,0,1,1.13,1.66,6.88,6.88,0,0,1,.36,2.33,6.78,6.78,0,0,1-.36,2.32,3.77,3.77,0,0,1-1.13,1.66,2.85,2.85,0,0,1-1.87.61,3,3,0,0,1-1.91-.61,3.64,3.64,0,0,1-1.13-1.66,6.83,6.83,0,0,1-.38-2.32A7,7,0,0,1,1062.89,680.86Z" style="fill: #aaa"/>
      <path d="M1086.77,688.35a3.31,3.31,0,0,0,.61-2,3.24,3.24,0,0,0-.48-1.74,3.37,3.37,0,0,0-1.33-1.22,4.84,4.84,0,0,0-2-.56,4.39,4.39,0,0,0,2.24-1,2.47,2.47,0,0,0,.83-1.92,3.18,3.18,0,0,0-1.46-2.78,7,7,0,0,0-4-1h-5.94v14h6.85a7.54,7.54,0,0,0,2.82-.48,3.81,3.81,0,0,0,1.77-1.33Zm-8.32-9.58h2.82a2.82,2.82,0,0,1,1.64.41,1.32,1.32,0,0,1,.6,1.13,1.35,1.35,0,0,1-.26.85,1.63,1.63,0,0,1-.75.56,3.06,3.06,0,0,1-1.16.2h-2.88Zm5.17,8.33a2.16,2.16,0,0,1-1.44.43h-3.73v-3.47h3.73a2,2,0,0,1,1.44.49,1.8,1.8,0,0,1,.53,1.36A1.44,1.44,0,0,1,1083.62,687.1Z" style="fill: #aaa"/>
      <path d="M1101.19,688a5.4,5.4,0,0,0,.88-2.63h-3.18a3,3,0,0,1-.55,1.28,2.7,2.7,0,0,1-1,.81,3.08,3.08,0,0,1-1.33.28,3,3,0,0,1-1.81-.56,3.46,3.46,0,0,1-1.19-1.58,6.51,6.51,0,0,1-.43-2.47,6.28,6.28,0,0,1,.43-2.43,3.42,3.42,0,0,1,1.21-1.56,3,3,0,0,1,1.79-.54,2.73,2.73,0,0,1,1.92.67,3.1,3.1,0,0,1,.91,1.69H1102a5.26,5.26,0,0,0-.89-2.65,5.18,5.18,0,0,0-2.12-1.76,7.21,7.21,0,0,0-3-.62,6.82,6.82,0,0,0-3.58.92,6.11,6.11,0,0,0-2.34,2.55,8.3,8.3,0,0,0-.83,3.78,8.16,8.16,0,0,0,.81,3.75,6.2,6.2,0,0,0,2.32,2.55,7.71,7.71,0,0,0,6.73.28,5,5,0,0,0,2.07-1.79Z" style="fill: #aaa"/>
      <path d="M1117.4,676.12h-4l-4.26,5.65h-1.21v-5.65h-3.33v14h3.33v-5.29h1.62l3.88,5.29h4l-5.29-7.13Z" style="fill: #aaa"/>
      <path d="M1128.37,680.59v9.55h3.22v-14h-3.41l-5.65,9.55v-9.55h-3.22v14h3.43Z" style="fill: #aaa"/>
      <path d="M1143.72,676.12l-5.65,9.55v-9.55h-3.22v14h3.43l5.63-9.55v9.55h3.22v-14Z" style="fill: #aaa"/>
      <path d="M1141,674.89a4.71,4.71,0,0,0,3.15-1,3.23,3.23,0,0,0,1.16-2.58h-2.49a1.83,1.83,0,0,1-.43,1.18,1.7,1.7,0,0,1-1.39.51,1.73,1.73,0,0,1-1.41-.51,1.8,1.8,0,0,1-.41-1.17h-2.47a3.2,3.2,0,0,0,1.16,2.58,4.69,4.69,0,0,0,3.13,1Z" style="fill: #aaa"/>
      <path d="M1003.72,720.32a4.88,4.88,0,0,0,2.14-1.82,5,5,0,0,0,.71-2.61,4.65,4.65,0,0,0-.6-2.43,4.43,4.43,0,0,0-1.51-1.56,4.19,4.19,0,0,0-1.92-.61v-.18a5,5,0,0,0,1.66-.72,3.67,3.67,0,0,0,1.19-1.31,4,4,0,0,0,.45-2,4.43,4.43,0,0,0-2.72-4.21,8,8,0,0,0-3.4-.64h-7.21v18.69h7.63a8.18,8.18,0,0,0,3.58-.67Zm-7.81-15.24h3.45a3.18,3.18,0,0,1,2.27.71,2.3,2.3,0,0,1,.76,1.79A2.37,2.37,0,0,1,1002,709a2.7,2.7,0,0,1-1.13.92,3.77,3.77,0,0,1-1.59.33h-3.38v-5.16Zm0,13.07v-5.47h3.76a3.92,3.92,0,0,1,1.82.39,2.92,2.92,0,0,1,1.18,1.05,2.75,2.75,0,0,1,.41,1.5,2.32,2.32,0,0,1-.83,1.82,4.06,4.06,0,0,1-2.69.71Z" style="fill: #aaa"/>
      <path d="M1018.3,720.75a5.33,5.33,0,0,0,2.11-1.41,4.65,4.65,0,0,0,1.11-2.14l-3.12-.35a2.75,2.75,0,0,1-.64,1,2.8,2.8,0,0,1-1,.61,4.14,4.14,0,0,1-1.31.2,3.65,3.65,0,0,1-1.89-.46,3.16,3.16,0,0,1-1.26-1.33,4.63,4.63,0,0,1-.45-2h9.85v-1a8.7,8.7,0,0,0-.51-3.17,6.09,6.09,0,0,0-1.41-2.2,5.83,5.83,0,0,0-2.06-1.28,7.27,7.27,0,0,0-2.47-.41,6.72,6.72,0,0,0-3.53.92,6.35,6.35,0,0,0-2.34,2.55,9.15,9.15,0,0,0,0,7.61,5.87,5.87,0,0,0,2.37,2.5,7.23,7.23,0,0,0,3.66.89,8.18,8.18,0,0,0,2.93-.49Zm-4.86-10.91a3.25,3.25,0,0,1,1.79-.49,3.29,3.29,0,0,1,1.67.43,3,3,0,0,1,1.13,1.17,3.52,3.52,0,0,1,.41,1.69h-6.63a3.68,3.68,0,0,1,.41-1.53,3.41,3.41,0,0,1,1.19-1.28Z" style="fill: #aaa"/>
      <path d="M1033,715.31V721h3.2V707H1033v5.64h-5.47V707h-3.22v14h3.22v-5.67Z" style="fill: #aaa"/>
      <path d="M1042.46,713.07a2.84,2.84,0,0,1-.32-1.45V707H1039v4.67a4.65,4.65,0,0,0,1.64,3.94,7.19,7.19,0,0,0,4.48,1.27,9.33,9.33,0,0,0,1.51-.12c.35,0,.65-.13,1-.2V721h3.2V707h-3.2v6.82l-.38.12a9.6,9.6,0,0,1-2.1.21,4.67,4.67,0,0,1-1.64-.25,1.83,1.83,0,0,1-1-.81Z" style="fill: #aaa"/>
      <path d="M1059.65,717.54h-.15L1056.23,707h-3.53l5.12,14.31-.28.76a2.52,2.52,0,0,1-.75,1.13,1.6,1.6,0,0,1-1,.35,5,5,0,0,1-1.29-.2l-.78,2.58a5.37,5.37,0,0,0,.91.25,6,6,0,0,0,1.26.1,5.51,5.51,0,0,0,2.25-.43,4.29,4.29,0,0,0,1.59-1.22,6.41,6.41,0,0,0,1-1.91l5.65-15.71h-3.55l-3.26,10.58Z" style="fill: #aaa"/>
      <path d="M1078.92,707.6a5.55,5.55,0,0,0-3-.82,4.36,4.36,0,0,0-2,.41,4,4,0,0,0-1.28,1,6.84,6.84,0,0,0-.73,1.08h-.2V707h-3.28v19.28h3.33v-7.46h.13a6.47,6.47,0,0,0,.75,1.08,4,4,0,0,0,1.29,1,4.55,4.55,0,0,0,2,.39,5.32,5.32,0,0,0,3-.85,5.68,5.68,0,0,0,2.07-2.47,10.42,10.42,0,0,0,0-7.87,5.57,5.57,0,0,0-2.1-2.43Zm-.89,8.71a3.52,3.52,0,0,1-1.13,1.61,2.88,2.88,0,0,1-1.86.59,2.83,2.83,0,0,1-1.81-.58,3.39,3.39,0,0,1-1.13-1.59,7,7,0,0,1-.4-2.38,6.85,6.85,0,0,1,.38-2.37,3.36,3.36,0,0,1,1.13-1.56,2.91,2.91,0,0,1,1.81-.56,3.07,3.07,0,0,1,1.86.58,3.46,3.46,0,0,1,1.13,1.59,6.64,6.64,0,0,1,.38,2.32,6.74,6.74,0,0,1-.38,2.33Z" style="fill: #aaa"/>
      <path d="M1093.18,712.59h-5.47V707h-3.21v14h3.21v-5.67h5.47V721h3.2V707h-3.2Z" style="fill: #aaa"/>
      <path d="M1116.8,707h-3.33v14h3.33Z" style="fill: #aaa"/>
      <path d="M1106,711.52h-3.22V707h-3.21v14H1106a6.94,6.94,0,0,0,3.07-.61,4.41,4.41,0,0,0,2.62-4.13,4.32,4.32,0,0,0-1.49-3.42A6.15,6.15,0,0,0,1106,711.52Zm1.79,6.2a2.83,2.83,0,0,1-1.79.56h-3.22v-4H1106a2.75,2.75,0,0,1,1.79.58,1.82,1.82,0,0,1,.7,1.5,1.65,1.65,0,0,1-.7,1.41Z" style="fill: #aaa"/>
      <path d="M1127.59,703.32a1.7,1.7,0,0,1-1.39.51,1.73,1.73,0,0,1-1.41-.51,1.8,1.8,0,0,1-.41-1.17h-2.47a3.2,3.2,0,0,0,1.16,2.58,4.69,4.69,0,0,0,3.13,1,4.75,4.75,0,0,0,3.15-1,3.23,3.23,0,0,0,1.16-2.58H1128a1.83,1.83,0,0,1-.43,1.18Z" style="fill: #aaa"/>
      <path d="M1123.28,716.5V707h-3.22v14h3.43l5.64-9.55V721h3.23V707h-3.43Z" style="fill: #aaa"/>
      <path d="M1007.37,736.14a8,8,0,0,0-3.91-.94h-.27v-2.42h-3.28v2.42h-.27a8,8,0,0,0-3.91.94,6.94,6.94,0,0,0-2.7,2.65,7.74,7.74,0,0,0-1,4,7.62,7.62,0,0,0,1,3.91,6.63,6.63,0,0,0,2.69,2.58,8.24,8.24,0,0,0,3.93.92h.27v2.38h3.28v-2.38h.27a8.13,8.13,0,0,0,3.91-.92,6.77,6.77,0,0,0,2.69-2.6,7.64,7.64,0,0,0,1-3.9,8,8,0,0,0-1-4A6.79,6.79,0,0,0,1007.37,736.14Zm-7.72,11.18a4.86,4.86,0,0,1-2.3-.53,3.72,3.72,0,0,1-1.53-1.54,5.12,5.12,0,0,1-.55-2.47,5.93,5.93,0,0,1,.53-2.58,3.72,3.72,0,0,1,1.51-1.59,4.7,4.7,0,0,1,2.32-.54h.27v9.25h-.25Zm7.63-2.09a3.55,3.55,0,0,1-1.49,1.54,4.63,4.63,0,0,1-2.3.53h-.27v-9.25h.27a4.63,4.63,0,0,1,2.3.54,3.67,3.67,0,0,1,1.49,1.59,5.63,5.63,0,0,1,.53,2.55,5.23,5.23,0,0,1-.53,2.47Z" style="fill: #aaa"/>
      <path d="M1023.54,738.51a7.58,7.58,0,0,0-7.18,0A6.22,6.22,0,0,0,1014,741a8.11,8.11,0,0,0-.83,3.8,8.32,8.32,0,0,0,.83,3.8,6.12,6.12,0,0,0,2.35,2.53,6.81,6.81,0,0,0,3.58.9,6.92,6.92,0,0,0,3.6-.9,6.23,6.23,0,0,0,2.35-2.53,8.11,8.11,0,0,0,.83-3.8,8.32,8.32,0,0,0-.83-3.8A6,6,0,0,0,1023.54,738.51Zm-.56,8.64a3.76,3.76,0,0,1-1.13,1.66,2.85,2.85,0,0,1-1.87.61,2.94,2.94,0,0,1-1.91-.61,3.64,3.64,0,0,1-1.13-1.66,6.83,6.83,0,0,1-.38-2.32,7,7,0,0,1,.38-2.33,3.67,3.67,0,0,1,1.13-1.66,2.92,2.92,0,0,1,1.91-.62,2.83,2.83,0,0,1,1.87.62,3.76,3.76,0,0,1,1.13,1.66,6.88,6.88,0,0,1,.37,2.33A6.78,6.78,0,0,1,1023,747.16Z" style="fill: #aaa"/>
      <path d="M1038,743.43h-5.47v-5.64h-3.22v14h3.22v-5.67H1038v5.67h3.2v-14H1038Z" style="fill: #aaa"/>
      <path d="M1056.81,737.79H1046.6l-.4,4.91c-.07.79-.15,1.51-.23,2.2a16.56,16.56,0,0,1-.33,1.84,6.75,6.75,0,0,1-.5,1.41,2.54,2.54,0,0,1-.76.94h-1.13v6.79h3.28v-4.08h9.25v4.08H1059V749.1h-2.19V737.79Zm-3.18,11.29h-5.82a6.73,6.73,0,0,0,1-2.58,36.78,36.78,0,0,0,.48-3.81l.22-2.25h4.14v8.64Z" style="fill: #aaa"/>
    </g>
    <path d="M860.47,733.94l-21.71-31.39H800.38l16.48-31h38.39L877,702.95l-16.48,31Zm93.27-31L932,671.56H893.65l-16.48,31h38.39l21.71,31.37,16.48-31Z" style="fill: #aaa"/>
  </g>
  <g>
    <g>
      <path d="M452.08,667.77a6,6,0,0,1-.65,2.82,6.79,6.79,0,0,1-1.52,2l-2,1.3a7.82,7.82,0,0,1-2.39.43v2h-3.69v-2a12.4,12.4,0,0,1-3-.87,4.73,4.73,0,0,1-2-1.52,6.83,6.83,0,0,1-1.09-2.17,11.09,11.09,0,0,1-.43-2.82v-8a6,6,0,0,1,.65-2.82,5.2,5.2,0,0,1,1.3-1.74,7.17,7.17,0,0,1,2.17-1.3,4.66,4.66,0,0,1,2.39-.43v-1.3h3.91v1.3a9.25,9.25,0,0,1,2.39.43,5.12,5.12,0,0,1,2,1.3,6.73,6.73,0,0,1,1.52,2,6,6,0,0,1,.65,2.82v8.68Zm-10.2-12.15a6.5,6.5,0,0,0-2.17.87,3.67,3.67,0,0,0-.65,2.17v9.55a2.75,2.75,0,0,0,.22,1.3,3,3,0,0,0,.65.87c.22.22.65.43.87.65a2,2,0,0,0,1.09.22Zm6.73,3a2.79,2.79,0,0,0-.87-2.17,4.1,4.1,0,0,0-2-.87V671c.22,0,.65-.22.87-.22a3.84,3.84,0,0,0,1.52-1.52,2,2,0,0,0,.22-1.09v-9.55Z" style="fill: #aaa"/>
      <path d="M471.4,669.73c0,2.17-.43,3.91-1.52,5a6.22,6.22,0,0,1-4.56,1.74c-2.17,0-3.69-.43-4.56-1.52a7.18,7.18,0,0,1-1.52-4.56V657.79a9.4,9.4,0,0,1,.43-2.6,6.88,6.88,0,0,1,1.09-2.17,3.16,3.16,0,0,1,2-1.3,11,11,0,0,1,2.82-.43,9.61,9.61,0,0,1,2.82.43,2.21,2.21,0,0,1,1.74,1.09,6.79,6.79,0,0,1,1.09,2.17,11.47,11.47,0,0,1,.22,2.82Zm-3.91-12.37a6.34,6.34,0,0,0-.43-2c-.22-.65-.87-.87-1.74-.87a1.63,1.63,0,0,0-1.09.22c-.43.43-.65.65-.65,1.09a1.64,1.64,0,0,0-.22,1.09V670.6a4.06,4.06,0,0,0,.43,1.74,1.94,1.94,0,0,0,1.74.87,1.76,1.76,0,0,0,1.73-.87c.44-.43.44-1.09.44-2v-13Z" style="fill: #aaa"/>
      <polygon points="487.02 676.24 487.02 665.39 482.46 665.39 482.46 676.24 478.77 676.24 478.77 651.28 482.68 651.28 482.68 661.7 487.24 661.7 487.24 651.28 491.15 651.28 491.15 676.24 487.02 676.24" style="fill: #aaa"/>
      <path d="M500.26,676.24V681H497v-8l1.52-.22a5.17,5.17,0,0,0,1.3-2.39,15.48,15.48,0,0,0,.43-3.69l.44-15.19H512V673h1.52v8.25h-3.26v-4.78h-10Zm3.47-9.77c0,1.52-.22,2.6-.22,3.69a7.32,7.32,0,0,1-.87,2.6h5.43V655h-3.91Z" style="fill: #aaa"/>
      <path d="M536.94,651.06a8.11,8.11,0,0,1,2.6.43,8.79,8.79,0,0,1,2,1.09,4.73,4.73,0,0,1,1.09,1.74,7.87,7.87,0,0,1,.43,2.39l-3.69.87a5.41,5.41,0,0,0-.44-2.17,1.76,1.76,0,0,0-1.73-.87,1.63,1.63,0,0,0-1.09.22l-.65.65a1.31,1.31,0,0,0-.22.87v14.54c0,.22.22.65.22.87l.65.65a1.63,1.63,0,0,0,1.09.22c1.52,0,2.17-1.09,2.17-3a6,6,0,0,0,2,.22c.65,0,1.3.22,2,.22a7.15,7.15,0,0,1-1.52,4.56,5.71,5.71,0,0,1-4.34,1.73c-2.17,0-3.69-.43-4.56-1.52a6.12,6.12,0,0,1-1.52-4.56V657.79a10.57,10.57,0,0,1,.22-2.6A6.87,6.87,0,0,1,532.6,653a4.73,4.73,0,0,1,2-1.52,4.42,4.42,0,0,1,2.39-.43" style="fill: #aaa"/>
      <path d="M561.25,669.73c0,2.17-.43,3.91-1.52,5a6.22,6.22,0,0,1-4.56,1.74c-2.17,0-3.69-.43-4.56-1.52a7.18,7.18,0,0,1-1.52-4.56V657.79a9.4,9.4,0,0,1,.43-2.6,6.83,6.83,0,0,1,1.09-2.17,3.17,3.17,0,0,1,2-1.3,11,11,0,0,1,2.82-.43,9.63,9.63,0,0,1,2.82.43,3.9,3.9,0,0,1,2,1.3,6.79,6.79,0,0,1,1.09,2.17v14.54Zm-3.91-12.37a6.34,6.34,0,0,0-.43-2c-.22-.65-.87-.87-1.74-.87a1.63,1.63,0,0,0-1.09.22l-.65.65c-.22.22-.22.65-.43,1.09v13.67a4.12,4.12,0,0,0,.43,1.74,2.26,2.26,0,0,0,1.74.87,1.76,1.76,0,0,0,1.74-.87c.43-.43.43-1.09.43-2Z" style="fill: #aaa"/>
      <path d="M570.37,676.24V681h-3.26v-8l1.52-.22a5.18,5.18,0,0,0,1.3-2.39,15.48,15.48,0,0,0,.43-3.69l.44-15.19h11.29V673h1.52v8.25h-3.25v-4.78h-10Zm3.47-9.77c0,1.52-.22,2.6-.22,3.69a7.32,7.32,0,0,1-.87,2.6h5.43V655h-3.91Z" style="fill: #aaa"/>
      <polygon points="589.9 676.24 589.9 651.28 600.97 651.28 600.97 654.97 593.81 654.97 593.81 661.7 600.1 661.7 600.1 665.39 593.81 665.39 593.81 672.55 600.97 672.55 600.97 676.24 589.9 676.24" style="fill: #aaa"/>
      <path d="M616.38,660.61l-5.21,15.63h-3.69v-25h3.69v15.84l5.21-15.84h3.69v25h-3.91Zm-4.77-15a1.64,1.64,0,0,0,.22.87c.22.22.22.43.43.87l.65.65a1.3,1.3,0,0,0,.87.22c.43,0,.65,0,.87-.22l.65-.65a1.12,1.12,0,0,0,.44-.87c0-.22.22-.43.22-.87h2.82a6.79,6.79,0,0,1-.43,1.74c.22.43-.22,1.09-.65,1.52a9.44,9.44,0,0,1-1.52,1.3,6.42,6.42,0,0,1-2.17.43,7.8,7.8,0,0,1-2.39-.43,2.92,2.92,0,0,1-1.52-1.3,5.49,5.49,0,0,1-.87-1.52,6.71,6.71,0,0,1-.43-1.74Z" style="fill: #aaa"/>
      <path d="M633.53,651.06a8.08,8.08,0,0,1,2.6.43,8.81,8.81,0,0,1,2,1.09,4.75,4.75,0,0,1,1.09,1.74,7.87,7.87,0,0,1,.43,2.39l-3.69.87a5.41,5.41,0,0,0-.44-2.17,1.76,1.76,0,0,0-1.73-.87,1.62,1.62,0,0,0-1.09.22l-.65.65a1.31,1.31,0,0,0-.22.87v14.54c0,.22.22.65.22.87l.65.65a1.62,1.62,0,0,0,1.09.22c1.52,0,2.17-1.09,2.17-3a6,6,0,0,0,2,.22c.65,0,1.3.22,2,.22a7.15,7.15,0,0,1-1.52,4.56,5.71,5.71,0,0,1-4.34,1.73c-2.17,0-3.69-.43-4.56-1.52a6.12,6.12,0,0,1-1.52-4.56V657.79a10.57,10.57,0,0,1,.22-2.6,6.83,6.83,0,0,1,1.09-2.17,4.73,4.73,0,0,1,2-1.52,5.08,5.08,0,0,1,2.39-.43" style="fill: #aaa"/>
      <polygon points="652.19 654.97 652.19 676.24 648.29 676.24 648.29 654.97 644.16 654.97 644.16 651.28 656.1 651.28 656.1 654.97 652.19 654.97" style="fill: #aaa"/>
      <path d="M671.29,663.22a3.29,3.29,0,0,1,2.17,2,9,9,0,0,1,.65,3.47c0,2.6-.65,4.56-1.74,5.64-1.09,1.3-2.82,1.74-5.21,1.74H662V651.28h5.43c2.17,0,3.9.65,4.77,1.74,1.09,1.09,1.52,2.82,1.52,5a7,7,0,0,1-.65,3c0,.87-.87,1.52-1.74,2.17m-1.08-5a3.49,3.49,0,0,0-.65-2.39,3.24,3.24,0,0,0-2.17-.65h-1.3v6.51h1.3a2.28,2.28,0,0,0,2.17-.87,5.76,5.76,0,0,0,.65-2.6m.22,10a4.63,4.63,0,0,0-.65-2.6,2.29,2.29,0,0,0-2.17-.87h-1.52v7.81h1.52a3.14,3.14,0,0,0,1.52-.43,1.7,1.7,0,0,0,.87-.87,3.09,3.09,0,0,0,.43-1.3Z" style="fill: #aaa"/>
      <polygon points="690.39 660.61 685.19 676.24 681.5 676.24 681.5 651.28 685.19 651.28 685.19 667.13 685.4 667.13 690.61 651.28 694.3 651.28 694.3 676.24 690.39 676.24 690.39 660.61" style="fill: #aaa"/>
      <path d="M700.81,676.24l1.3-7.81a6.5,6.5,0,0,1,.87-2.17,3.42,3.42,0,0,1,1.52-1.52,4.7,4.7,0,0,1-2.39-2.17,8.22,8.22,0,0,1-.65-3.47,8.76,8.76,0,0,1,1.74-5.64,6.22,6.22,0,0,1,5-2h5.64v25h-3.91V665.6h-1.09a2.65,2.65,0,0,0-2,.87c-.65.43-.87,1.52-1.3,2.82l-1.09,6.95Zm7.6-21.27a2.8,2.8,0,0,0-2.39,1.09,4.93,4.93,0,0,0-.65,2.82,3.17,3.17,0,0,0,.87,2.6,3.67,3.67,0,0,0,2.17.65h1.52V655Z" style="fill: #aaa"/>
      <polygon points="447.09 696.86 440.58 716.18 436.02 716.18 436.02 685.36 440.79 685.36 440.79 704.89 441.01 704.89 447.52 685.36 452.29 685.36 452.29 716.18 447.3 716.18 447.09 696.86" style="fill: #aaa"/>
      <polygon points="475.52 716.18 475.52 702.72 470.09 702.72 470.09 716.18 465.32 716.18 465.32 685.36 470.09 685.36 470.09 698.16 475.74 698.16 475.74 685.36 480.51 685.36 480.51 716.18 475.52 716.18" style="fill: #aaa"/>
      <polygon points="504.17 716.18 504.17 702.72 498.52 702.72 498.52 716.18 493.75 716.18 493.75 685.36 498.52 685.36 498.52 698.16 504.17 698.16 504.17 685.36 508.94 685.36 508.94 716.18 504.17 716.18" style="fill: #aaa"/>
      <path d="M537.16,708.36a9.65,9.65,0,0,1-1.74,6.08c-1.3,1.3-3,2-5.86,2-2.6,0-4.56-.65-5.64-2a8.75,8.75,0,0,1-1.73-5.64V693.39a13,13,0,0,1,.43-3.26,5,5,0,0,1,1.3-2.6,6.78,6.78,0,0,1,2.39-1.73,8.27,8.27,0,0,1,3.47-.65,9.36,9.36,0,0,1,3.69.65,8.94,8.94,0,0,1,2.39,1.52,5,5,0,0,1,1.3,2.6,16.73,16.73,0,0,1,.43,3.47v15ZM532.39,693a5,5,0,0,0-.65-2.39,2.4,2.4,0,0,0-2.17-1.09,1.83,1.83,0,0,0-1.3.43c-.44.22-.65.65-.87.87a3.11,3.11,0,0,0-.43,1.3c0,.43-.22.87-.22,1.3V709a3.67,3.67,0,0,0,.65,2.17,2.29,2.29,0,0,0,2.17.87,2.4,2.4,0,0,0,2.17-1.09,4.38,4.38,0,0,0,.65-2.39Z" style="fill: #aaa"/>
      <path d="M561.69,700.11a4.24,4.24,0,0,1,2.82,2.6,12.89,12.89,0,0,1,.87,4.34c0,3.26-.65,5.64-2.17,7.16-1.3,1.52-3.47,2.17-6.29,2.17H550.4v-31h6.73c2.82,0,4.78.65,5.86,2.17a9.12,9.12,0,0,1,2,6.3,9.35,9.35,0,0,1-.65,3.69,4.08,4.08,0,0,1-2.6,2.39Zm-1.3-6.29c0-1.52-.22-2.39-.87-3a3.68,3.68,0,0,0-2.82-.87h-1.52v7.81h1.52a3.75,3.75,0,0,0,2.82-1.09c.65-.43.87-1.52.87-2.82m.22,12.59c0-1.52-.22-2.6-.87-3.26a3.43,3.43,0,0,0-2.82-1.09h-1.74v9.55h2a5.18,5.18,0,0,0,2-.43,2.62,2.62,0,0,0,1.09-1.09,4.12,4.12,0,0,0,.43-1.74Z" style="fill: #aaa"/>
      <path d="M589.68,716.18l-1.3-6.51h-5.64l-.65,3.26-.65,3.25h-5c1.09-5.21,2.17-10.42,3-15.41,1.09-5.21,2.17-10.2,3-15.41h5.42l6.3,30.82Zm-4.34-23.66c-.22,2.17-.65,4.34-.87,6.3-.44,2.17-.65,4.34-1.09,6.51h4.34l-2-12.81Z" style="fill: #aaa"/>
      <polygon points="621.16 685.36 621.16 711.84 623.11 711.84 623.11 722.25 618.99 722.25 618.99 716.39 605.96 716.39 605.96 685.36 610.74 685.36 610.74 711.84 616.16 711.84 616.16 685.36 621.16 685.36" style="fill: #aaa"/>
      <polygon points="645.68 696.86 639.17 716.18 634.61 716.18 634.61 685.36 639.39 685.36 639.39 704.89 645.9 685.36 650.67 685.36 650.67 716.18 645.9 716.18 645.68 696.86" style="fill: #aaa"/>
      <path d="M662.61,716.18l1.74-9.77a6.42,6.42,0,0,1,1.09-2.82,4.26,4.26,0,0,1,2-2,6.11,6.11,0,0,1-3-2.6,12.82,12.82,0,0,1-.87-4.34c0-3,.65-5.43,2.17-6.95a8.17,8.17,0,0,1,6.08-2.39h7.16v30.82h-4.78V702.94h-1.3a3.62,3.62,0,0,0-2.39.87,5.78,5.78,0,0,0-1.52,3.47L667.39,716h-4.78Zm9.55-26.26a3.37,3.37,0,0,0-3,1.3,5.49,5.49,0,0,0-.87,3.47c0,1.52.43,2.6,1.09,3a4,4,0,0,0,2.82.87h2v-8.68Z" style="fill: #aaa"/>
      <polygon points="701.25 709.45 699.08 703.8 697.12 698.38 696.91 698.38 696.91 716.18 692.13 716.18 692.13 685.36 696.91 685.36 700.38 694.04 702.76 700.77 702.98 700.77 705.59 693.82 708.84 685.14 713.4 685.14 713.4 715.96 708.62 715.96 708.62 698.16 708.41 698.16 706.46 703.59 704.28 709.23 701.25 709.23 701.25 709.45" style="fill: #aaa"/>
    </g>
    <g>
      <path d="M706.75,734.86a138.94,138.94,0,0,1-34.12,25c-28,14.86-60.12,21.2-89,21.67h-3.27c-3.29,0-6.77,0-10.28-.24-44.57-2-97.49-16.83-134.66-55.95h27.12l.46.54c23.83,26.62,69.57,44.15,119.38,45.81,2.64.08,5.26.13,7.89.13C635.87,771.85,677.26,758.64,706.75,734.86Z" style="fill: #aaa"/>
      <path d="M709.9,730c-31,27.19-76.95,41.69-127.43,40-49-1.65-94-18.74-117.67-44.72h26.32l.62.62c22.11,21,58.31,33.92,99.33,35.42,2.67.1,5.33.15,8,.15C639.07,761.53,678,750.48,709.9,730Z" style="fill: #aaa"/>
      <path d="M711.66,726.9c-34.12,22.76-76.95,34.41-120.55,32.81-40.24-1.46-75.77-14-97.61-34.36h28.07c16,15.3,45.69,25.58,83.5,25.58h1.53c27.55-.22,59-5.91,92.46-18.81C703.16,730.44,707.4,728.73,711.66,726.9Z" style="fill: #aaa"/>
    </g>
  </g>
  <g>
    <g style="mask: url(#a)">
      <g>
        <rect x="92.96" y="93.64" width="74.21" height="31.48" style="fill: #aaa"/>
        <path d="M142.41,149.49l23.33-40.39-23.36,13.48Z" style="fill: #aaa"/>
      </g>
    </g>
    <g style="mask: url(#b)">
      <g>
        <rect x="70.48" y="134.12" width="74.21" height="31.48" style="fill: #aaa"/>
        <path d="M119.08,189.87l23.33-40.39L119.05,163Z" style="fill: #aaa"/>
      </g>
    </g>
    <g style="mask: url(#c)">
      <g>
        <rect x="23.25" y="80.15" width="74.21" height="31.48" style="fill: #aaa"/>
        <path d="M72.29,136.13,95.62,95.76,72.26,109.22Z" style="fill: #aaa"/>
      </g>
    </g>
    <path d="M166.33,174.24h9.14l-2.24-7.35-2.14-8.38h-.34l-2.21,8.38Zm11.23,7.35H164.24L162,188.94c-.22.76-.51,1.1-1.63,1.1h-6.81c-.8,0-1-.59-.8-1.15l12.15-36.74c.8-2.69,1.85-3.16,4.23-3.21h3.5c2.63,0,3.6.34,4.52,3.21l12.15,36.74a.81.81,0,0,1-.75,1.15H181.6c-.87,0-1.43,0-1.68-.93Z" style="fill: #aaa"/>
    <path d="M217.69,181.07c1.09-.47,1.43-.17,1.8.71l2,4.21c.54,1.1.37,1.52-.34,1.94a25.32,25.32,0,0,1-13.44,3.28c-12.67,0-18.33-7.91-18.33-20.92S196.92,149,208.08,149a23,23,0,0,1,11.4,2.45c.87.49,1,.78.46,2.06l-1.8,4c-.41,1.05-.63,1.3-1.75.88a21.72,21.72,0,0,0-7.9-1.52c-6.42,0-9.85,5.73-9.85,13.37s2.43,12.81,10.06,12.81a24.16,24.16,0,0,0,9-2" style="fill: #aaa"/>
    <path d="M250.65,162.6l-5.18,8.79-9.72,16c-1.34,2.18-2,2.45-4.38,2.45h-2.31c-3,0-3.79-1.57-3.79-4V150.06c0-.83.37-1.13,1.22-1.13h6.22c1.07,0,1.24.24,1.24,1.13v26.43h.34l4.86-8.21,10.07-16.63c1.34-2.23,2-2.65,4.3-2.65h2.43c2.84,0,3.77,1.05,3.77,4.12V189c0,.81-.34,1.1-1.22,1.1h-6.22c-1,0-1.29-.22-1.29-1.1V162.6Z" style="fill: #aaa"/>
  </g>
  <g>
    <path d="M547.22,406.87V386h4.06l5.87,13.35h1.26L564.29,386h4.06v20.82h-2.52V388.72h-.05l-5.71,13.09h-4.62l-5.67-13.09h-.06v18.14Z" style="fill: #aaa"/>
    <path d="M575,404.88a7.12,7.12,0,0,1-1.82-2.39,6.29,6.29,0,0,1-.58-2.82,6.5,6.5,0,0,1,.63-2.81,7.37,7.37,0,0,1,1.82-2.39,8.61,8.61,0,0,1,2.73-1.6,9.62,9.62,0,0,1,6.46,0,8.64,8.64,0,0,1,2.75,1.58,7.36,7.36,0,0,1,1.84,2.38,6.53,6.53,0,0,1,.66,2.81,6.8,6.8,0,0,1-1.5,4,8.44,8.44,0,0,1-3.78,2.66,9.74,9.74,0,0,1-4.83.44,9.07,9.07,0,0,1-4.33-1.92Zm1.84-9a5.12,5.12,0,0,0-1.26,1.72,4.57,4.57,0,0,0-.4,2,4.62,4.62,0,0,0,.4,2,5.16,5.16,0,0,0,1.25,1.72,6.72,6.72,0,0,0,8.36,0,5.11,5.11,0,0,0,1.26-1.72,5.34,5.34,0,0,0,0-4,5.08,5.08,0,0,0-1.25-1.72,6.65,6.65,0,0,0-8.36,0Z" style="fill: #aaa"/>
    <path d="M593.72,404.82a7.15,7.15,0,0,1-1.64-2.42,8.07,8.07,0,0,1,0-5.63,7.13,7.13,0,0,1,1.64-2.39,7.69,7.69,0,0,1,2.6-1.59,8.07,8.07,0,0,1,6.07.21,7.58,7.58,0,0,1,2.47,1.77,7,7,0,0,1,1.35,2.44h-2.37a4.59,4.59,0,0,0-1-1.4,5.08,5.08,0,0,0-1.74-1.08,5.32,5.32,0,0,0-2.06-.33,5,5,0,0,0-2,.37,4.74,4.74,0,0,0-1.64,1.12,5.08,5.08,0,0,0-1.5,3.69,5,5,0,0,0,1.5,3.71,4.79,4.79,0,0,0,1.62,1.1,5,5,0,0,0,2,.38,5.27,5.27,0,0,0,2.16-.35,5,5,0,0,0,1.79-1.19,4.57,4.57,0,0,0,1-1.54h2.37a6.86,6.86,0,0,1-2.69,3.81,7.64,7.64,0,0,1-4.63,1.38,7.51,7.51,0,0,1-2.89-.5A7.12,7.12,0,0,1,593.72,404.82Z" style="fill: #aaa"/>
    <path d="M608.47,406.86V392.29h2.6v5.83h3.28l5.25-5.83h3.15l-6.06,6.85,6.56,7.69H620l-5.59-6.52h-3.28v6.55Z" style="fill: #aaa"/>
    <path d="M625.35,404.85a7,7,0,0,1-1.59-2.35,6.85,6.85,0,0,1-.51-2.77,7.08,7.08,0,0,1,.49-2.83,7.18,7.18,0,0,1,1.59-2.42,7.4,7.4,0,0,1,2.43-1.62,7.57,7.57,0,0,1,5.77,0,7.39,7.39,0,0,1,2.42,1.62,7.22,7.22,0,0,1,1.59,2.42,7,7,0,0,1,.49,2.83,7.2,7.2,0,0,1-1.31,4,7.48,7.48,0,0,1-3.32,2.62,7.68,7.68,0,0,1-4.24.43A7.57,7.57,0,0,1,625.35,404.85ZM627,396a5.06,5.06,0,0,0-1.1,1.69,5.82,5.82,0,0,0,0,3.94,5,5,0,0,0,1.1,1.69,5.4,5.4,0,0,0,7.33,0,5.12,5.12,0,0,0,1.1-1.69,5.24,5.24,0,0,0-1.1-5.63,5.35,5.35,0,0,0-7.33,0Z" style="fill: #aaa"/>
    <path d="M642.26,406.86V392.3h7.48a5.12,5.12,0,0,1,3.36,1,3.36,3.36,0,0,1,.92,1.18,3.22,3.22,0,0,1,.3,1.44,4.07,4.07,0,0,1-.21,1.32,2.83,2.83,0,0,1-.52.93,3.08,3.08,0,0,1-.65.55,2.57,2.57,0,0,1-.58.29,1.31,1.31,0,0,1-.32.07,1.47,1.47,0,0,1,.36.08,3.21,3.21,0,0,1,.72.32,5.25,5.25,0,0,1,.85.6,2.9,2.9,0,0,1,.69,1,4.31,4.31,0,0,1,0,3.18,3.89,3.89,0,0,1-1,1.39,5.64,5.64,0,0,1-3.8,1.17Zm2.42-8.59h4.88c1.52,0,2.29-.63,2.29-1.9s-.76-1.89-2.29-1.89h-4.88Zm0,6.41h5a3.16,3.16,0,0,0,2-.58,2,2,0,0,0,.54-.72,2,2,0,0,0,.16-.88,1.92,1.92,0,0,0-.16-.88,2,2,0,0,0-.54-.73,3.16,3.16,0,0,0-2-.58h-5Z" style="fill: #aaa"/>
    <path d="M659.18,404.74a7.1,7.1,0,0,1-1.63-2.39,7.86,7.86,0,0,1,0-5.59,7.13,7.13,0,0,1,1.63-2.39,7.66,7.66,0,0,1,2.6-1.59,8,8,0,0,1,6.06.21,7.59,7.59,0,0,1,2.46,1.77,6.91,6.91,0,0,1,1.34,2.44h-2.36a4.45,4.45,0,0,0-1-1.4,5,5,0,0,0-1.73-1.08,5.29,5.29,0,0,0-2.05-.33,5,5,0,0,0-2,.37,4.72,4.72,0,0,0-1.64,1.11,5.09,5.09,0,0,0-1.44,3.7,5,5,0,0,0,1.49,3.7,4.8,4.8,0,0,0,1.62,1.1,5,5,0,0,0,2,.38,5.24,5.24,0,0,0,2.15-.35,5,5,0,0,0,1.78-1.19,4.33,4.33,0,0,0,1-1.54h2.36a6.83,6.83,0,0,1-1.37,2.61,7.29,7.29,0,0,1-2.64,1.95,7.72,7.72,0,0,1-3.29.63,7.47,7.47,0,0,1-2.91-.53A7.09,7.09,0,0,1,659.18,404.74Z" style="fill: #aaa"/>
    <path d="M673.93,406.86V392.29h2.61v5.83h3.28l5.26-5.83h3.13l-6.08,6.85,6.58,7.69h-3.29l-5.58-6.52h-3.28v6.55Z" style="fill: #aaa"/>
    <path d="M690.83,406.87V392.29h2.28v11.22h.05l7.75-11.22h2.59v14.58h-2.28V395.64h-.06l-7.74,11.22Z" style="fill: #aaa"/>
    <path d="M707.72,406.87V392H710v11.45h.05L717.8,392h2.59v14.88h-2.28V395.41H718l-7.74,11.45ZM709.79,386h2.14a1.71,1.71,0,0,0,.13.71,1.66,1.66,0,0,0,.42.58,3,3,0,0,0,3.26,0,1.67,1.67,0,0,0,.54-1.3h2.16a3.47,3.47,0,0,1-.29,1.48,3.38,3.38,0,0,1-.88,1.2,5.36,5.36,0,0,1-6.34,0,3.41,3.41,0,0,1-.85-1.21,3.51,3.51,0,0,1-.27-1.47Z" style="fill: #aaa"/>
    <path d="M547.22,431.85V417.28h2.28V428.5h.06l7.74-11.23h2.59v14.58h-2.28V420.63h-.05l-7.74,11.23Z" style="fill: #aaa"/>
    <path d="M564.12,431.85V417.28h2.29v6h8.09v-6h2.29v14.58H574.5v-6.41h-8.07v6.41Z" style="fill: #aaa"/>
    <path d="M581,431.85V417.28h2.29v6h8.09v-6h2.29v14.58h-2.29v-6.41H583.3v6.41Z" style="fill: #aaa"/>
    <path d="M600,429.84a7,7,0,0,1-1.59-2.35,6.85,6.85,0,0,1-.51-2.77,7,7,0,0,1,.49-2.83,7.18,7.18,0,0,1,1.59-2.42,7.39,7.39,0,0,1,2.42-1.62,7.56,7.56,0,0,1,5.77,0,7.4,7.4,0,0,1,2.43,1.62,7.18,7.18,0,0,1,1.59,2.42,7.08,7.08,0,0,1,.49,2.83,7.19,7.19,0,0,1-1.31,4,7.46,7.46,0,0,1-3.32,2.62,7.68,7.68,0,0,1-4.24.43A7.57,7.57,0,0,1,600,429.84Zm1.62-8.84a5,5,0,0,0-1.11,1.69,5.83,5.83,0,0,0,0,3.95,5,5,0,0,0,1.11,1.69,5.35,5.35,0,0,0,7.33,0,5,5,0,0,0,1.1-1.69,5.83,5.83,0,0,0,0-3.95A5,5,0,0,0,609,421a5.35,5.35,0,0,0-7.33,0Z" style="fill: #aaa"/>
    <path d="M616.91,431.85V417.29h7.49a5.12,5.12,0,0,1,3.37,1,3.33,3.33,0,0,1,.92,1.18,3.18,3.18,0,0,1,.3,1.44,4,4,0,0,1-.21,1.32,2.65,2.65,0,0,1-1.18,1.49,2.63,2.63,0,0,1-.58.29,1.11,1.11,0,0,1-.32.08,1.94,1.94,0,0,1,.37.07,3.11,3.11,0,0,1,.72.32,5,5,0,0,1,.81.59,2.88,2.88,0,0,1,.69,1,3.68,3.68,0,0,1,.29,1.49,3.77,3.77,0,0,1-.32,1.68,4,4,0,0,1-1,1.4,5.71,5.71,0,0,1-3.82,1.16Zm2.43-8.6h4.89c1.53,0,2.3-.63,2.3-1.89s-.74-1.87-2.27-1.87h-4.89Zm0,6.41h5a3.14,3.14,0,0,0,2.05-.58,2.28,2.28,0,0,0,.52-.73,2.16,2.16,0,0,0,0-1.74,2.28,2.28,0,0,0-.52-.73,3.14,3.14,0,0,0-2.05-.58h-5Z" style="fill: #aaa"/>
    <path d="M633.78,429.78a7.55,7.55,0,0,1,0-10.4,6.68,6.68,0,0,1,2.29-1.56,7,7,0,0,1,2.77-.53A6.74,6.74,0,0,1,642,418a5.37,5.37,0,0,1,1.88,1.49l.27.42v-2.33h2.36v14.07h-2.36v-2.27l-.27.39a5.13,5.13,0,0,1-1.84,1.45,6.84,6.84,0,0,1-3.21.69,7,7,0,0,1-2.75-.52A6.69,6.69,0,0,1,633.78,429.78Zm1.77-9a5.53,5.53,0,0,0,0,7.43,5,5,0,0,0,1.65,1.08,5.26,5.26,0,0,0,3.93,0,5,5,0,0,0,1.65-1.08,5.52,5.52,0,0,0,0-7.43,5,5,0,0,0-1.65-1.08,5.26,5.26,0,0,0-3.93,0A5,5,0,0,0,635.54,420.82Z" style="fill: #aaa"/>
    <path d="M650.7,432.52V417.28h2.4v13H661v-13h2.4v13h2.12V436h-2.4v-3.5Z" style="fill: #aaa"/>
    <path d="M667.6,431.85V417.28h2.28V428.5h.05l7.75-11.23h2.59v14.58H678V420.63h-.05l-7.75,11.23Z" style="fill: #aaa"/>
    <path d="M686.6,429.84a7,7,0,0,1-1.59-2.35,6.88,6.88,0,0,1-.51-2.77,7.08,7.08,0,0,1,.49-2.83,7.18,7.18,0,0,1,1.59-2.42,7.4,7.4,0,0,1,2.43-1.62,7.56,7.56,0,0,1,5.77,0,7.41,7.41,0,0,1,2.42,1.62,7.18,7.18,0,0,1,1.59,2.42,7,7,0,0,1,.49,2.83,7.2,7.2,0,0,1-1.31,4,7.48,7.48,0,0,1-3.32,2.62,7.68,7.68,0,0,1-4.24.43A7.57,7.57,0,0,1,686.6,429.84Zm1.62-8.84a5,5,0,0,0-1.1,1.69,5.83,5.83,0,0,0,0,3.95,5,5,0,0,0,1.1,1.69,5.35,5.35,0,0,0,7.33,0,5,5,0,0,0,1.1-1.69,5.85,5.85,0,0,0,0-3.95,5,5,0,0,0-1.11-1.69,5.35,5.35,0,0,0-7.33,0Z" style="fill: #aaa"/>
    <path d="M703.5,431.85V417.28h2.29v6h8.09v-6h2.29v14.58h-2.29v-6.41h-8.07v6.41Z" style="fill: #aaa"/>
    <path d="M720.39,431.85V417.28h2.29v6h8.09v-6h2.29v14.58h-2.29v-6.41h-8.09v6.41Z" style="fill: #aaa"/>
    <path d="M737.29,431.85V417.28h2.51v4.95h3.8a6.61,6.61,0,0,1,4.34,1.39,4.63,4.63,0,0,1,1.24,1.55,4.24,4.24,0,0,1,0,3.76,4.63,4.63,0,0,1-1.24,1.55,6.61,6.61,0,0,1-4.34,1.39Zm2.51-2.19h3.8a4,4,0,0,0,2.57-.73,2.55,2.55,0,0,0,.68-.86,2.36,2.36,0,0,0,0-2.07,2.55,2.55,0,0,0-.68-.86,4.05,4.05,0,0,0-2.57-.77h-3.8Zm11.88,2.19V417.28h2.51v14.57Z" style="fill: #aaa"/>
    <path d="M758.4,431.85V417h2.28v11.45h.05L768.48,417h2.59v14.87h-2.28V420.4h-.06L761,431.85ZM760.48,411h2.16a1.68,1.68,0,0,0,.13.71,1.63,1.63,0,0,0,.42.58,2.87,2.87,0,0,0,3.22,0,1.61,1.61,0,0,0,.42-.58A1.65,1.65,0,0,0,767,411h2.16a3.47,3.47,0,0,1-.28,1.49,3.4,3.4,0,0,1-.88,1.22,5.32,5.32,0,0,1-6.33,0,3.39,3.39,0,0,1-.88-1.22A3.49,3.49,0,0,1,760.48,411Z" style="fill: #aaa"/>
    <path d="M547.22,456.84V442.27h2.23v5.83h2.82l4.51-5.83h2.67l-5.21,6.85,5.64,7.7h-2.8l-4.8-6.56h-2.82v6.56Z" style="fill: #aaa"/>
    <path d="M559.9,456.84l4.21-14.58h6.36l4.21,14.58h-2.59l-3.47-12.39h-2.71l-3.46,12.39Z" style="fill: #aaa"/>
    <path d="M578.86,454.75a7.56,7.56,0,0,1,0-10.39,6.68,6.68,0,0,1,2.29-1.56,7,7,0,0,1,2.77-.53,6.86,6.86,0,0,1,3.14.68,5.64,5.64,0,0,1,1.89,1.48l.27.42v-2.34h2.36v14.05h-2.36v-2.23l-.27.39a5.15,5.15,0,0,1-1.8,1.42,6.92,6.92,0,0,1-3.22.68,7,7,0,0,1-2.78-.53A6.68,6.68,0,0,1,578.86,454.75Zm1.74-8.95a5.58,5.58,0,0,0,0,7.48,5,5,0,0,0,1.65,1.08,5.29,5.29,0,0,0,3.93,0,5.06,5.06,0,0,0,1.65-1.08,5.55,5.55,0,0,0,0-7.48,5,5,0,0,0-1.65-1.08,5.28,5.28,0,0,0-3.93,0A5,5,0,0,0,580.59,445.8Z" style="fill: #aaa"/>
    <path d="M598,454.76a7.37,7.37,0,0,1,0-10.42,7.69,7.69,0,0,1,2.6-1.59,8.1,8.1,0,0,1,6.08.21,7.59,7.59,0,0,1,2.47,1.77,6.87,6.87,0,0,1,1.35,2.43h-2.37a4.56,4.56,0,0,0-1-1.43,5.09,5.09,0,0,0-1.74-1.08,5.35,5.35,0,0,0-2.06-.33,5,5,0,0,0-2,.37,4.74,4.74,0,0,0-1.64,1.11,5,5,0,0,0-1.45,3.7,5,5,0,0,0,1.5,3.7,4.79,4.79,0,0,0,1.62,1.1,5.07,5.07,0,0,0,2,.38,5.29,5.29,0,0,0,2.16-.35,5,5,0,0,0,1.79-1.19,4.34,4.34,0,0,0,1-1.49h2.37a6.8,6.8,0,0,1-1.37,2.6,7.32,7.32,0,0,1-2.64,1.94,7.78,7.78,0,0,1-3.29.64,7.53,7.53,0,0,1-2.9-.51A7.12,7.12,0,0,1,598,454.76Z" style="fill: #aaa"/>
    <path d="M610.58,444.45v-2.19h12.67v2.19h-5.16v12.39h-2.33V444.45Z" style="fill: #aaa"/>
    <path d="M627.47,454.76a7.48,7.48,0,0,1,0-10.41,7.12,7.12,0,0,1,2.41-1.57,7.32,7.32,0,0,1,2.86-.51,7.47,7.47,0,0,1,2.86.5,7.25,7.25,0,0,1,2.42,1.55,7,7,0,0,1,1.6,2.35,6.77,6.77,0,0,1,.51,2.77v.81H627.69a5,5,0,0,0,5.07,4.48,5.6,5.6,0,0,0,3.68-1.26,4.44,4.44,0,0,0,1.1-1.26h2.3a7.17,7.17,0,0,1-2.78,3.41,7.56,7.56,0,0,1-4.31,1.22,7.33,7.33,0,0,1-2.86-.51A7.13,7.13,0,0,1,627.47,454.76Zm.26-6.46h10a4.49,4.49,0,0,0-1.58-2.79,5,5,0,0,0-3.34-1.14,5.09,5.09,0,0,0-3.36,1.14A4.59,4.59,0,0,0,627.73,448.3Z" style="fill: #aaa"/>
    <path d="M644.37,463.09v-20.5h2.35v2.35l.3-.45a5.12,5.12,0,0,1,1.81-1.5,6.49,6.49,0,0,1,3.21-.73,6.69,6.69,0,0,1,5.05,2.21,8.35,8.35,0,0,1,0,11,7.11,7.11,0,0,1-8.28,1.49,4.62,4.62,0,0,1-1.8-1.53l-.3-.42v8.08Zm3.82-17a6.13,6.13,0,0,0,0,7.91,5,5,0,0,0,7.22,0,6.13,6.13,0,0,0,0-7.91,5,5,0,0,0-7.22,0Z" style="fill: #aaa"/>
    <g>
      <path d="M527,375.67v90.59H492v-18a90.66,90.66,0,0,0,8.41-7.53A92.78,92.78,0,0,0,527,375.67Z" style="fill: #aaa"/>
      <path d="M471.24,375.67v44a55,55,0,0,1-17,9.52A92.93,92.93,0,0,0,471.24,375.67Z" style="fill: #aaa"/>
      <path d="M527,375.67a92.78,92.78,0,0,1-26.63,65,90.67,90.67,0,0,1-64.22,27V448.26a90.17,90.17,0,0,1-55.8,19.46V432.24a55.52,55.52,0,0,0,39.46-16.6,57,57,0,0,0,16.34-40h35a92.93,92.93,0,0,1-17,53.49,55,55,0,0,0,17-9.52,52.05,52.05,0,0,0,4.41-4,57,57,0,0,0,16.34-40Z" style="fill: #aaa;opacity: 0.6000000000000001"/>
      <path d="M471.24,375.63v0h-35v0Z" style="fill: #aaa"/>
      <path d="M527,375.63v0H492v0Z" style="fill: #aaa"/>
    </g>
  </g>
  <g>
    <path d="M95.26,760.72c-.49-1.8-1.47-5.3-6.62-5.3-3,0-7.52,2.14-7.52,10.57,0,5.35,2.26,10.31,7.52,10.31,3.46,0,5.89-2.09,6.62-5.75h6.22c-1.23,6.5-5.47,11-13,11-7.93,0-13.61-5.4-13.61-15.67,0-10.45,6-15.75,13.69-15.75,8.93,0,12.54,6.16,12.88,10.56H95.26Z" style="fill: #aaa"/>
    <path d="M109.09,767.06l7.31-8.39h7.12l-7.77,8.55,8,13.58h-7l-5.27-9.5-2.41,2.52v7h-5.8V758.66h5.8v8.39Z" style="fill: #aaa"/>
    <path d="M144.95,769.68c0,8-5.35,11.69-11.27,11.69s-11.31-3.66-11.31-11.64,5.39-11.65,11.31-11.65,11.27,3.62,11.27,11.6m-16.62,0c0,2.83.86,6.78,5.34,6.78s5.31-3.9,5.31-6.73-.82-6.75-5.31-6.75-5.34,3.86-5.34,6.7" style="fill: #aaa"/>
    <path d="M166.75,758.66v22.13h-5.8V763.32h-6.21v6.82c0,8.46-2.55,11.13-6.62,11.13a12.53,12.53,0,0,1-3.53-.48v-4.33a5.76,5.76,0,0,0,1.72.17c1.74,0,2.64-.86,2.64-7.6V758.66h17.8Z" style="fill: #aaa"/>
    <path d="M175.51,767.06l7.31-8.39h7.12l-7.78,8.55,8,13.58h-7l-5.26-9.5-2.42,2.52v7h-5.8V758.66h5.8Z" style="fill: #aaa"/>
    <path d="M211.37,769.68c0,8-5.34,11.69-11.26,11.69s-11.31-3.66-11.31-11.64,5.38-11.65,11.31-11.65,11.26,3.62,11.26,11.6m-16.6,0c0,2.83.86,6.78,5.34,6.78s5.32-3.9,5.32-6.73-.85-6.75-5.32-6.75-5.34,3.86-5.34,6.7" style="fill: #aaa"/>
    <path d="M213.25,758.66h10c4.94,0,8.56,2,8.56,5.72,0,2.55-1.81,4.19-4.12,4.77,2.26.54,4.78,2,4.78,5.6,0,4.1-3.1,6-8.11,6H213.25Zm5.79,9h3.78c1.93,0,3.29-.77,3.29-2.51s-1.31-2.46-3.24-2.46H219Zm0,9.18h4.27c2.14,0,3.47-.66,3.47-2.85,0-1.93-1.4-2.83-3.54-2.83H219Z" style="fill: #aaa"/>
    <path d="M255.68,769.68c0,8-5.33,11.69-11.26,11.69s-11.32-3.66-11.32-11.64,5.4-11.65,11.32-11.65,11.26,3.62,11.26,11.6m-16.61,0c0,2.83.87,6.78,5.35,6.78s5.3-3.9,5.3-6.73-.82-6.75-5.3-6.75-5.35,3.86-5.35,6.7" style="fill: #aaa"/>
    <path d="M117.08,745.15c4.94,0,17.12-.87,26.21-7.51v5h18.35l0-22.15,7.66-7.93L186,742.68h22l-25.27-43,24.62-27.1H184.84l-23.17,26.59V648.11H143.29v8.08c-5.59-6-14.66-10.55-28.81-10.55-30.61,0-36.36,18.62-36.36,29,0,14.32,7.7,22.28,21.11,25.54l19,4.68c10,2.48,17.2,4.3,17.2,11.72,0,9.9-10.43,12.24-19.81,12.24-17.2,0-20.06-10-20.06-15.36H76.7c0,11.72,6,31.65,40.38,31.65m12.51-56.4-23-5.61c-3.92-.91-10-2.48-10-9.89,0-8.47,9-11.34,16.55-11.34,17.19,0,18.76,10,19.28,14.33h11v17.63a52.81,52.81,0,0,0-13.7-5.12" style="fill: #aaa"/>
  </g>
  <g>
    <g>
      <path d="M480.69,107v-4.93h.93c.94-.64,1.2-1.69,1.32-3.49l.45-7.53h9.54v11h1.67V107h-2.52v-2.63h-8.85V107Zm4-5.08v.15h5.49V93.37h-4.29l-.35,5.43A5.41,5.41,0,0,1,484.65,101.94Z" style="fill: #aaa"/>
      <path d="M496.85,91.07h8.82v2.3h-6v3.21h5.7v2.14h-5.7v3.37h6v2.3h-8.82Z" style="fill: #aaa"/>
      <path d="M517.47,104.39v-11h-6v11h-2.78V91.07h11.53v13.32Z" style="fill: #aaa"/>
      <path d="M527.25,91.07h3.28l4.63,13.32h-2.93l-1-3.23h-4.69l-1,3.23h-2.92Zm-.07,8h3.43L529,93.73h-.17Z" style="fill: #aaa"/>
      <path d="M537.53,91.07H543a4.35,4.35,0,0,1,4.67,4.55v0a4.35,4.35,0,0,1-4.67,4.55h-2.71v4.2h-2.78Zm2.78,2.2V98h2a2.23,2.23,0,0,0,2.53-2.36v0a2.23,2.23,0,0,0-2.53-2.35Z" style="fill: #aaa"/>
      <path d="M553.28,93.37h-4v-2.3h10.78v2.3h-4v11h-2.78Z" style="fill: #aaa"/>
      <path d="M565,91.07h3.28l4.63,13.32H570l-1-3.23h-4.69l-1,3.23h-2.92Zm-.07,8h3.43l-1.62-5.34h-.17Z" style="fill: #aaa"/>
      <path d="M575.25,91.07h3.2l3.68,9.75h.16L586,91.07h3.2v13.32h-2.49V95.33h-.18l-3.42,9.07h-1.74l-3.42-9.07h-.19v9.07h-2.48Z" style="fill: #aaa"/>
      <path d="M592.47,91.07h8.82v2.3h-6v3.21H601v2.14h-5.7v3.37h6v2.3h-8.82Z" style="fill: #aaa"/>
      <path d="M604.34,91.07h2.78v5.41h6V91.07h2.78v13.32h-2.78V98.78h-6v5.61h-2.78Z" style="fill: #aaa"/>
      <path d="M622.48,93.37h-4v-2.3h10.78v2.3h-4v11h-2.78Z" style="fill: #aaa"/>
      <path d="M490.76,126.94v-11h-5.95v11H482V113.62h11.53v13.32Z" style="fill: #aaa"/>
      <path d="M496.88,113.62h5.49a4.36,4.36,0,0,1,4.68,4.55v0a4.36,4.36,0,0,1-4.68,4.55h-2.7v4.2h-2.78Zm2.78,2.2v4.74h2a2.23,2.23,0,0,0,2.53-2.36v0a2.23,2.23,0,0,0-2.53-2.35Z" style="fill: #aaa"/>
      <path d="M509.73,113.62h8.82v2.29h-6v3.22h5.7v2.14h-5.7v3.37h6v2.3h-8.82Z" style="fill: #aaa"/>
      <path d="M520.26,129.57v-4.93h.93c.94-.64,1.2-1.69,1.32-3.49l.45-7.53h9.54v11h1.67v4.93h-2.52v-2.63h-8.85v2.63Zm4-5.09v.16h5.49v-8.72h-4.29l-.35,5.44A5.38,5.38,0,0,1,524.22,124.48Z" style="fill: #aaa"/>
      <path d="M545.17,126.94v-11h-6v11h-2.78V113.62H548v13.32Z" style="fill: #aaa"/>
      <path d="M551.28,113.62h5.5a4.35,4.35,0,0,1,4.67,4.55v0a4.35,4.35,0,0,1-4.67,4.55h-2.71v4.2h-2.78Zm2.78,2.2v4.74h2a2.23,2.23,0,0,0,2.53-2.36v0a2.23,2.23,0,0,0-2.53-2.35Z" style="fill: #aaa"/>
      <path d="M564.12,113.62h2.77v8.91h.19l6-8.91h2.67v13.32H573V118h-.17l-6,8.9h-2.68Z" style="fill: #aaa"/>
      <path d="M579.07,113.62h2.78V119h6v-5.41h2.78v13.32h-2.78v-5.61h-6v5.61h-2.78Z" style="fill: #aaa"/>
      <path d="M594,113.62h2.77v8.91h.19l6-8.91h2.66v13.32H602.8V118h-.18l-6,8.9H594Z" style="fill: #aaa"/>
      <path d="M608.91,113.62h3.2l3.68,9.75H616l3.67-9.75h3.19v13.32h-2.48v-9.06h-.18l-3.42,9.06H615l-3.41-9.06h-.19v9.06h-2.48Z" style="fill: #aaa"/>
      <path d="M629.81,113.62h3.28l4.63,13.32h-2.93l-1-3.23H629.1l-1,3.23h-2.92Zm-.07,8h3.43l-1.62-5.34h-.17Z" style="fill: #aaa"/>
      <path d="M642,115.92h-4v-2.29h10.78v2.29h-4v11H642Z" style="fill: #aaa"/>
      <path d="M651.34,113.62h8.82v2.29h-6v3.22h5.7v2.14h-5.7v3.37h6v2.3h-8.82Z" style="fill: #aaa"/>
      <path d="M661.88,126.94V124.5a3.35,3.35,0,0,0,.61.06c1.36,0,1.68-1.32,1.76-3.07l.4-7.87h9.26v13.32h-2.78v-11h-4l-.32,5.76c-.18,3.28-1.18,5.39-3.95,5.39A3.77,3.77,0,0,1,661.88,126.94Z" style="fill: #aaa"/>
      <path d="M676.93,113.62h2.78v4.47h2.58c2.81,0,4.76,1.78,4.76,4.41v0a4.29,4.29,0,0,1-4.62,4.42h-5.51Zm2.78,6.66v4.43h2c1.59,0,2.51-.78,2.51-2.19v0c0-1.43-.93-2.22-2.51-2.22Z" style="fill: #aaa"/>
      <path d="M689.44,120.28v0c0-4.32,2.38-7,6.24-7,3.16,0,5.53,2,5.78,4.83v.11h-2.71v-.06a3,3,0,0,0-3.07-2.51c-2.09,0-3.4,1.76-3.4,4.63v0c0,2.86,1.31,4.64,3.41,4.64a2.94,2.94,0,0,0,3-2.36l0-.07h2.71v.11c-.28,2.78-2.56,4.69-5.78,4.69C691.82,127.28,689.44,124.6,689.44,120.28Z" style="fill: #aaa"/>
      <path d="M706.87,115.92h-4v-2.29h10.78v2.29h-4v11h-2.78Z" style="fill: #aaa"/>
      <path d="M716.22,113.62H722c2.58,0,4.12,1.26,4.12,3.31v0a2.88,2.88,0,0,1-2.41,2.84V120a3.17,3.17,0,0,1,3,3.17v0c0,2.34-1.76,3.8-4.6,3.8h-6Zm2.78,2.07v3.47h2.1c1.5,0,2.32-.63,2.32-1.72v0c0-1.08-.76-1.72-2.09-1.72Zm0,5.31v3.87h2.48c1.61,0,2.48-.68,2.48-1.95v0c0-1.24-.9-1.9-2.54-1.9Z" style="fill: #aaa"/>
      <path d="M733,113.62h3.28l4.63,13.32H738l-1-3.23h-4.69l-1,3.23h-2.92Zm-.07,8h3.43l-1.62-5.34h-.17Z" style="fill: #aaa"/>
      <path d="M482,136.17h2.77v8.9H485l6-8.9h2.67v13.32h-2.78v-8.9h-.17l-6,8.9H482Z" style="fill: #aaa"/>
      <path d="M501.82,136.17h2.77v8.9h.19l6-8.9h2.67v13.32h-2.78v-8.9h-.17l-6,8.9h-2.68Z" style="fill: #aaa"/>
      <path d="M516.77,136.17h2.78v5.41h6v-5.41h2.78v13.32h-2.78v-5.61h-6v5.61h-2.78Z" style="fill: #aaa"/>
      <path d="M531.66,136.17h2.78v5.41h6v-5.41h2.78v13.32h-2.78v-5.61h-6v5.61h-2.78Z" style="fill: #aaa"/>
      <path d="M546,142.83v0c0-4.31,2.49-7,6.41-7s6.4,2.68,6.4,7v0c0,4.3-2.47,7-6.4,7S546,147.14,546,142.83Zm10,0v0c0-2.83-1.4-4.63-3.57-4.63s-3.58,1.8-3.58,4.63v0c0,2.82,1.38,4.64,3.58,4.64S556,145.65,556,142.83Z" style="fill: #aaa"/>
      <path d="M561.52,136.17h5.82c2.58,0,4.12,1.27,4.12,3.31v0a2.88,2.88,0,0,1-2.41,2.83v.16a3.17,3.17,0,0,1,3,3.16v0c0,2.34-1.77,3.8-4.61,3.8h-6Zm2.78,2.07v3.47h2.1c1.5,0,2.32-.63,2.32-1.73v0c0-1.08-.76-1.72-2.09-1.72Zm0,5.31v3.87h2.49c1.6,0,2.47-.68,2.47-1.95v0c0-1.23-.9-1.9-2.54-1.9Z" style="fill: #aaa"/>
      <path d="M578.28,136.17h3.28l4.63,13.32h-2.93l-1-3.23h-4.69l-1,3.23h-2.92Zm-.07,8h3.43L580,138.83h-.17Z" style="fill: #aaa"/>
      <path d="M599.24,149.49H588.55V136.17h2.78v11h5.95v-11h2.8v11h1.68v4.93h-2.52Z" style="fill: #aaa"/>
      <path d="M604,136.17h2.77v8.9H607l6-8.9h2.67v13.32h-2.78v-8.9h-.17l-6,8.9H604Z" style="fill: #aaa"/>
      <path d="M618.37,142.83v0c0-4.31,2.49-7,6.41-7s6.4,2.68,6.4,7v0c0,4.3-2.47,7-6.4,7S618.37,147.14,618.37,142.83Zm10,0v0c0-2.83-1.4-4.63-3.57-4.63s-3.58,1.8-3.58,4.63v0c0,2.82,1.38,4.64,3.58,4.64S628.35,145.65,628.35,142.83Z" style="fill: #aaa"/>
      <path d="M633.92,136.17h2.78v5.41h6v-5.41h2.78v13.32h-2.78v-5.61h-6v5.61h-2.78Z" style="fill: #aaa"/>
      <path d="M648.83,136.17h2.78v5.41h6v-5.41h2.78v13.32h-2.78v-5.61h-6v5.61h-2.78Z" style="fill: #aaa"/>
      <path d="M663.13,142.83v0c0-4.31,2.49-7,6.41-7s6.4,2.68,6.4,7v0c0,4.3-2.47,7-6.4,7S663.13,147.14,663.13,142.83Zm10,0v0c0-2.83-1.4-4.63-3.57-4.63S666,140,666,142.82v0c0,2.82,1.38,4.64,3.58,4.64S673.11,145.65,673.11,142.83Z" style="fill: #aaa"/>
      <path d="M678.69,149.49V136.17h8.59v2.3h-5.8v11Z" style="fill: #aaa"/>
      <path d="M688.79,142.83v0c0-4.31,2.49-7,6.41-7s6.4,2.68,6.4,7v0c0,4.3-2.47,7-6.4,7S688.79,147.14,688.79,142.83Zm10,0v0c0-2.83-1.4-4.63-3.57-4.63s-3.58,1.8-3.58,4.63v0c0,2.82,1.38,4.64,3.58,4.64S698.76,145.65,698.76,142.83Z" style="fill: #aaa"/>
      <path d="M709.19,136.17h5.49a4.36,4.36,0,0,1,4.68,4.55v0a4.36,4.36,0,0,1-4.68,4.55H712v4.2h-2.78Zm2.78,2.2v4.74h2a2.23,2.23,0,0,0,2.53-2.36v0a2.23,2.23,0,0,0-2.53-2.35Z" style="fill: #aaa"/>
      <path d="M724.6,136.17h3.28l4.63,13.32h-2.93l-1-3.23h-4.69l-1,3.23H720Zm-.07,8H728l-1.62-5.34h-.17Z" style="fill: #aaa"/>
      <path d="M737.26,141.64H739c1.38,0,2.25-.72,2.25-1.83v0c0-1-.82-1.65-2.19-1.65s-2.27.63-2.35,1.72v0h-2.6v-.1c.13-2.44,2.06-4,5-4s4.79,1.45,4.79,3.62v0a3.08,3.08,0,0,1-2.51,3v.16a3.08,3.08,0,0,1,3,3.17v0c0,2.35-2.29,4-5.33,4s-5.15-1.66-5.24-4.06v-.06h2.68v0c.08,1.11,1.09,1.76,2.58,1.76s2.46-.74,2.46-1.88v0c0-1.11-.93-1.8-2.51-1.8h-1.79Z" style="fill: #aaa"/>
      <path d="M747.06,136.17h5.82c2.58,0,4.12,1.27,4.12,3.31v0a2.88,2.88,0,0,1-2.41,2.83v.16a3.17,3.17,0,0,1,3,3.16v0c0,2.34-1.77,3.8-4.61,3.8h-6Zm2.78,2.07v3.47h2.1c1.5,0,2.32-.63,2.32-1.73v0c0-1.08-.76-1.72-2.09-1.72Zm0,5.31v3.87h2.49c1.6,0,2.47-.68,2.47-1.95v0c0-1.23-.9-1.9-2.54-1.9Z" style="fill: #aaa"/>
      <path d="M760.26,136.17H763v8.9h.19l6-8.9h2.67v13.32H769.1v-8.9h-.17l-6,8.9h-2.68Z" style="fill: #aaa"/>
      <path d="M778.44,138.47h-4v-2.3h10.78v2.3h-4v11h-2.78Z" style="fill: #aaa"/>
      <path d="M787.8,136.17h2.77v8.9h.19l6-8.9h2.67v13.32h-2.78v-8.9h-.17l-6,8.9H787.8Z" style="fill: #aaa"/>
      <path d="M810,149.49v-4.81h-1.87l-3.16,4.81h-3.08l3.5-5.2a3.92,3.92,0,0,1-2.87-3.81v0c0-2.56,1.86-4.29,4.83-4.29h5.41v13.32Zm0-11.12H807.7c-1.48,0-2.38.8-2.38,2.1v0c0,1.33.89,2.12,2.39,2.12H810Z" style="fill: #aaa"/>
      <path d="M482.11,172V158.72H490v1.49h-6.24V172Z" style="fill: #aaa"/>
      <path d="M491.6,165.38v0c0-4.28,2.34-7,6.11-7s6.11,2.7,6.11,7v0c0,4.25-2.31,7-6.11,7S491.6,169.64,491.6,165.38Zm10.52,0v0c0-3.32-1.69-5.43-4.41-5.43s-4.41,2.1-4.41,5.43v0c0,3.3,1.65,5.44,4.41,5.44S502.11,168.68,502.11,165.38Z" style="fill: #aaa"/>
      <path d="M506.8,158.72h5a4.07,4.07,0,0,1,4.27,4.26v0a4.11,4.11,0,0,1-4.27,4.29h-3.37V172H506.8Zm1.66,1.48v5.61h2.94c1.9,0,3-1,3-2.8v0c0-1.76-1.1-2.8-3-2.8Z" style="fill: #aaa"/>
      <path d="M518.39,165.38v0c0-4.28,2.34-7,6.11-7s6.11,2.7,6.11,7v0c0,4.25-2.31,7-6.11,7S518.39,169.64,518.39,165.38Zm10.52,0v0c0-3.32-1.69-5.43-4.41-5.43s-4.41,2.1-4.41,5.43v0c0,3.3,1.65,5.44,4.41,5.44S528.91,168.68,528.91,165.38Z" style="fill: #aaa"/>
      <path d="M531.8,174.67v-4.13h1c1-.52,1.33-1.7,1.42-3.44l.51-8.38h8.43v11.82h1.67v4.13h-1.54V172h-9.94v2.63Zm3-4.24v.11h6.65V160.21h-5.28l-.43,6.93A5.4,5.4,0,0,1,534.85,170.43Z" style="fill: #aaa"/>
      <path d="M551,158.72h1.64L557.57,172h-1.74l-1.34-3.81h-5.31L547.85,172H546.1Zm-1.34,8.1H554l-2.09-5.95h-.15Z" style="fill: #aaa"/>
      <path d="M565.3,158.72h1.93l4.56,11.11h.15l4.56-11.11h1.93V172h-1.55V161.87h-.11L572.56,172h-1.4l-4.21-10.17h-.09V172H565.3Z" style="fill: #aaa"/>
      <path d="M581.39,165.38v0c0-4.28,2.34-7,6.11-7s6.11,2.7,6.11,7v0c0,4.25-2.31,7-6.11,7S581.39,169.64,581.39,165.38Zm10.52,0v0c0-3.32-1.69-5.43-4.41-5.43s-4.41,2.1-4.41,5.43v0c0,3.3,1.65,5.44,4.41,5.44S591.9,168.68,591.9,165.38Z" style="fill: #aaa"/>
      <path d="M596.07,165.39v0c0-4.29,2.25-7,5.87-7a5.19,5.19,0,0,1,5.39,4.32v0h-1.67v0a3.66,3.66,0,0,0-3.7-2.78c-2.55,0-4.16,2.1-4.16,5.43v0c0,3.33,1.6,5.43,4.17,5.43a3.54,3.54,0,0,0,3.68-2.48l0,0h1.68v0c-.44,2.44-2.54,4-5.38,4C598.33,172.35,596.07,169.67,596.07,165.39Z" style="fill: #aaa"/>
      <path d="M610.22,172V158.72h1.66v5.85h.49l5.5-5.85h2.09l-6.15,6.4,6.69,6.92h-2.2l-5.92-6.14h-.49V172Z" style="fill: #aaa"/>
      <path d="M622.78,158.72h5.1c2.45,0,3.93,1.28,3.93,3.31v0a2.94,2.94,0,0,1-2.29,2.86v.15a3.15,3.15,0,0,1,3,3.23v0c0,2.34-1.68,3.73-4.51,3.73h-5.19Zm1.66,1.47v4.27h2.66c2,0,3-.72,3-2.12v0c0-1.34-1-2.13-2.62-2.13Zm0,5.7v4.68h3.29c2,0,3-.81,3-2.35v0c0-1.53-1.09-2.32-3.21-2.32Z" style="fill: #aaa"/>
      <path d="M635.31,158.72H637v4.94h3.26a4.07,4.07,0,0,1,4.28,4.19v0a4,4,0,0,1-4.26,4.17h-4.94Zm1.66,6.43v5.39h2.85c1.91,0,3-1,3-2.67v0c0-1.72-1.1-2.7-3-2.7Zm10-6.43h1.66V172H647Z" style="fill: #aaa"/>
    </g>
    <g>
      <g>
        <path d="M421.73,98.64a3.8,3.8,0,0,0,.82.12,1,1,0,0,1,1.13.91c.18.86,0,1.38-.63,1.65l-.38.14a2.51,2.51,0,0,0,.31.89,3.54,3.54,0,0,1,.63,2.93c-.07,1-.06,2-.07,3a1.66,1.66,0,0,0,.15.43c.31-.2.57-.37.82-.55a3.52,3.52,0,0,1,3.18-.71,13.84,13.84,0,0,0,3.61.07c.35,0,.36-.24.2-.5s-.37-.56-.65-1a8.87,8.87,0,0,1,1.29.18c.6.18.92,0,.92-.9a22.79,22.79,0,0,1,1.78,1.49.9.9,0,0,0,1.06.3,2.5,2.5,0,0,1,3.23,1.74l-.49.09c.51,1.82,1.73,3.24,2.66,4.82a3.72,3.72,0,0,0,1.24,1.09.93.93,0,0,1,.54.86,10,10,0,0,1,.06,1.22,1.23,1.23,0,0,1-.44.77c-.13.09-.48-.08-.71-.19a4.15,4.15,0,0,1-.6-.43l.21.88a3.72,3.72,0,0,1-1-.19,9,9,0,0,1-1.23-.84,5,5,0,0,0-3-.75c-.52,0-.57.35-.48.7a13.92,13.92,0,0,0,.62,1.89c.58,1.37,1.17,2.73,1.82,4.07a9.45,9.45,0,0,0,1,1.53c.77,1,1.62,2,2.32,3a6,6,0,0,1,.66,1.93c.18.78.35,1,1,.54A27.39,27.39,0,0,0,446,128c.68-.54,1.25-.55,1.61.25a15.41,15.41,0,0,0,3.63,5,2,2,0,0,1,.59,1.45c.06.85.31,1.68.4,2.53a19,19,0,0,1,.07,2.3c0,.41-.3.45-.58.25a19.78,19.78,0,0,1-1.62-1.28c-.51-.46-.19-1,.15-1.3a1.56,1.56,0,0,0,.26-2.15,3.86,3.86,0,0,0-.46-.49c-.16-.18-.48-.41-.45-.56.18-1-.62-1.34-1.07-1.89a7.06,7.06,0,0,0-1.36-1.19c-.17-.12-.56-.18-.68-.08-1.32,1.19-2.61,2.43-3.9,3.65l.14.28a11.07,11.07,0,0,0,1.62-.15,1.28,1.28,0,0,1,1.62.73,15.25,15.25,0,0,0,3.24,4.86,1.88,1.88,0,0,1,.37,1.2,7.9,7.9,0,0,0,.75,3.18,10.49,10.49,0,0,1,.53,2.25c.08.39-.11.61-.51.42a21,21,0,0,1-2-1.07.7.7,0,0,1-.2-1.07,3.76,3.76,0,0,0,.34-.77,2,2,0,0,0-.5-2.3c-.47-.44-.89-.85-.56-1.62.09-.21-.2-.67-.42-.91-.61-.64-1.31-1.2-1.91-1.85a1,1,0,0,0-1.25-.27c-1.31.55-2.65,1-3.95,1.61a15,15,0,0,1-6.54,1.69l2,2.56.07-.14.44.2-.6.36-.32-.4L424.5,129.28q-7.82-10.41-15.65-20.81a6.7,6.7,0,0,0-1.12-1.15.67.67,0,0,0-.65.07c-.11.11-.07.47,0,.65a3.71,3.71,0,0,0,.58.67c-.39.36-.37,1,0,1.94l.24-.71.13,0,.08,1.3h.09l.11-.37h.1l.14.89.37-.61.16,1,.34-.69.28,1.47h.12l.19-1.31,25.82,33.73.18-.09-.18-2c.18.27.38.3.71.18.95-.36,1.19-.21,1.53.73a14.75,14.75,0,0,0,.65,1.55,1.69,1.69,0,0,0,1.22.89,2.33,2.33,0,0,1,1.3,1.28A12.18,12.18,0,0,0,443,151c.64.82.59.92-.44,1.21.13.59,0,1-.73,1.09-.09,0-.23.31-.22.46a3.47,3.47,0,0,1-1.24,2.86c-1,1-2,2.07-3,3.1a3.46,3.46,0,0,1-.69.47c-.35.21-.35.45-.1.74a1.11,1.11,0,0,0,1.52.27c1-.74,1.95-.4,2.88-.12a3,3,0,0,1,1.23,1.07c.11.13-.11.53-.18.82-.29-.31-.48-.61-.75-.75a2.89,2.89,0,0,0-.94-.12c.34,1.33.31,1.54-.21,2a1.14,1.14,0,0,0-1.51-.81c-.82.22-.12.84-.29,1.25,0,0-.1,0-.12,0a2.73,2.73,0,0,0-3.24-.64,2.66,2.66,0,0,1-2.7-.12c-.48-.37-2.94.37-3.29.89l-.12.15c-.57-.72-.15-1.72.9-2.13.32-.12.67-.17,1-.29.12,0,.3-.19.29-.28a.61.61,0,0,0-.26-.4c-.57-.35-.57-.34-.46-.95a2.37,2.37,0,0,0-2.47.31c-.7.56-.7.56-1.13-.27,0,0-.06-.06,0,0l-1.54-.17a9.51,9.51,0,0,0-1-.12,3.89,3.89,0,0,1-2.55-.7.92.92,0,0,0-1.43.12c-.29.46-.19,1,.39,1.4s1.13.9,1.91.35c.16-.11.5,0,.75.08a5.52,5.52,0,0,1,.5.27c.59.23.66.35.56,1-.27-.12-.55-.36-.83-.34a2.85,2.85,0,0,0-1.12.41c1.51.61,1.72.92,1.14,1.89,0-.68-.36-.53-.81-.49a9.24,9.24,0,0,1-2.29-.2,2.74,2.74,0,0,0-1.94.05l.37,1.24a11.58,11.58,0,0,1-1.21-.19,2.59,2.59,0,0,1-.84-.38c-.29-.21-.51-.4-.92-.22-.17.07-.55-.14-.72-.32a1.82,1.82,0,0,0-.86-.42,2.26,2.26,0,0,0-2.26.36.75.75,0,0,1-.69,0c-.66-.46-1.07,0-1.5.36-.06.05-.13.09-.31.06a6,6,0,0,1,.61-1.09,6.77,6.77,0,0,1,1.24-1.12,1.62,1.62,0,0,1,.85-.17c.54,0,1.08.08,1.61,0,.68-.07.85-.56.43-1.09a4.5,4.5,0,0,0-.73-.73.78.78,0,0,1-.2-1.18,7.43,7.43,0,0,1,.92-1.07c.54-.53.55-.81.1-1.42a1.6,1.6,0,0,1-.21-.9c0-.4-.12-.64-.53-.65s-1.1,0-1.57,0c.15.9.33,1.72.39,2.54a2.17,2.17,0,0,1-1.14,2.1,4.62,4.62,0,0,1-4.17.74,3.08,3.08,0,0,1-2.2-3.08c0-.6.07-1.2.11-1.8,0-.29,0-.54-.38-.59-1.27-.17-2.54-.39-3.9-.6a2.3,2.3,0,0,0,.16,2.07c.7,1.14,1.35,2.3,2,3.46a5.22,5.22,0,0,1,.29.91,6.46,6.46,0,0,1-3.1-.34.79.79,0,0,1-.34-.57,3.22,3.22,0,0,1,.08-1.15A2.84,2.84,0,0,0,399,156c-.89-.85-.88-.9-.11-1.83.37-.45.36-.73-.08-1.12-1.92-1.69-2-3.83-1.07-6.07.42-1,1-1.86,1.5-2.79a3.56,3.56,0,0,0-.17-3.75,4.07,4.07,0,0,0-.41-.48c-1,1-2.4,1.54-3,2.9a10.76,10.76,0,0,0-1.11,4,4.84,4.84,0,0,1-.33-.54,10.53,10.53,0,0,1-.93-5,3,3,0,0,1,.88-1.75,8.7,8.7,0,0,0,1.09-1.71c.22-.43,0-.73-.45-1a13.55,13.55,0,0,1-2.19-1.46,2.26,2.26,0,0,1-.4-2.75,2,2,0,0,1,2.13-1.45c.73,0,.73,0,.6-1.08.78.36,1.05,1.62.67,3l-1.21-1,.15-.25c-1-.2-1.6.22-1.69,1.17a2,2,0,0,0,1.09,2.17c.48.26,1,.48,1.55.76a10.89,10.89,0,0,1,1.74-4.76,12.6,12.6,0,0,1,2.65-2.88,5,5,0,0,1,5.18-.18c1,.44,1.85,1.1,2.8,1.62a1.21,1.21,0,0,0,.76.11c1.2-.23,2.39-.5,3.58-.77.19,0,.52-.23.51-.29a.88.88,0,0,0-.34-.6.68.68,0,0,1-.51-.71c0-.13-.26-.3-.44-.39a5.58,5.58,0,0,1-1.09-.49c-3-2.5-6.25-2.61-9.73-1.39l-.77.26-.19-.14c.18-.38.33-.78.54-1.14.36-.63,1.12-1,1-1.94,0-.13.23-.3.36-.43.41-.41.85-.8,1.25-1.22a1.07,1.07,0,0,0,.18-1.31c-.71-1.46-.31-2.31,1.25-2.77a19.18,19.18,0,0,0,2-.69,1.75,1.75,0,0,0,.84-.66,1.35,1.35,0,0,0,0-1c-.06-.17-.49-.27-.75-.27-.56,0-1.11.06-1.76.11a1.5,1.5,0,0,1,.15-.5c.62-.73,1.27-1.44,1.89-2.17.15-.18.37-.42.36-.61-.06-.7-.21-1.4-.33-2.1a.4.4,0,0,0-.08-.17c-.65-.8-1.28-1.63-2-2.4a1.33,1.33,0,0,1-.4-1.26,2,2,0,0,0-.36-1.29c-.73-1.07-1.54-2.08-2.32-3.12a2.09,2.09,0,0,1-.33-.55,1.36,1.36,0,0,1,0-.49l.45.21c-.6,0-.25.31-.13.47.77,1,1.56,2.07,2.35,3.09.16.21.36.4.53.59.64-.35.14-.65.07-.95.21.14.42.39.64.39,1.28,0,1.59,1,2,1.89a1.05,1.05,0,0,0,.5.52,1.55,1.55,0,0,1,1.11,1.57c0,.79.59,1.22,1.07,1.69.11.11.54,0,.74-.11.6-.38,1.14-.85,1.73-1.25a1.52,1.52,0,0,1,2.29.22c-.31,0-.63-.12-.95-.14a1.54,1.54,0,0,0-1.55.8c1.12.07,2.26-.26,3.1.63.09-.06.22-.19.29-.17.42.18.82.4,1.22.61a9.27,9.27,0,0,0,1.22.63,3.27,3.27,0,0,0,1,0l-4.33-2.41c.25,0,.51,0,.76,0a3.08,3.08,0,0,1,.94.06c1.3.44,1.8.12,1.93-1.29a7.91,7.91,0,0,1,.19-1.67,15.13,15.13,0,0,1,.89-1.89l.38-.82c-1.83.28-3.49.46-5-.44v-.19l1.33-.13c-.66-.57-1.45-.89-1.86-1.88.34.12.54.17.72.25a3.58,3.58,0,0,0,3.57-.29l1.2-.76a1.59,1.59,0,0,1,2.11.19,2.06,2.06,0,0,0-2.35.24,10.36,10.36,0,0,1-1,.55,4,4,0,0,1-2.53.62,13.31,13.31,0,0,1-1.34-.34,2.51,2.51,0,0,0,2.21,1l0,.21-1.64.67a1.86,1.86,0,0,0,.36.2,2.33,2.33,0,0,0,2.58-.89,2.65,2.65,0,0,1,1.95-1.12c.84-.1,1.54,0,1.85,1l.42-.32.86.27c.09-.35.31-.73.23-1a.81.81,0,0,0-1-.67l.09.63Zm-4.21,33.91h0l.22-1.44-.2,0a15.65,15.65,0,0,0-.39,5.9,17.57,17.57,0,0,1,0-6,15.9,15.9,0,0,0-.74,6.07,18.87,18.87,0,0,1,.31-6.13c-1,2-.73,4.1-.76,6.19a16.09,16.09,0,0,1,.26-6.2,2.4,2.4,0,0,0-.35.72,16.63,16.63,0,0,0-.41,5c0,1.19,0,1.19,1.23,1.06H417c1.05-.09,2.1-.18,3.15-.28.28,0,.71-.18.36-.48s-.29-.63-.29-1c0-1.5,0-3,0-4.5l-.1,0-.28,4.69v-4.9c-.68,1.78-.23,3.64-.54,5.45V131.3H419v5.42h-.18v-5.53a34.72,34.72,0,0,0-.41,5.5v-5.48c-.78,1.8-.24,3.68-.44,5.52v-5.59l-.26.76Zm10.66-13.35-.15.07,1,2.27-.73-.68-.12.09.79,1.59-.09.05-.7-.91-.12.07.68,1.55-.07,0-.62-.74-.1.06.66,1.59-.08,0-.84-1-.09,0,.88,1.8-.17.16-.87-1,0,0,.91,1.54-.06.06-.84-.68-.07.06.48,1-.09.05-.85-.74-.12.08.94,1.47-.54-.29-.52-.3c.34,1,.34,1,1.18,1.1,1.07.15,2.14.26,3.21.36,2.34.23,4.64.83,7,.67l-.61-1.07,1,.28-1.1-1.69,1,.28-1-1.46.71.05-.76-1.08.88.27c-.18-.51-.3-.91-.45-1.3q-1.37-3.52-2.75-7a.85.85,0,0,0-.27-.36,2,2,0,0,1-.72-2.51,4.43,4.43,0,0,0,.13-.49l.57,1.41.33-.59.31,1.19.13,0,.11-.38c.32.31.59.77,1,.92a30.53,30.53,0,0,0,3.1.86,1.23,1.23,0,0,0,.73,0c.58-.25.86-.15,1.11.44a1.79,1.79,0,0,0,.44.68,2.28,2.28,0,0,0,.71.26l.19-.82-.27-.14-.24.48-.2-.09c.07-.23.07-.54.23-.69.48-.46.24-.77-.2-.93a3.22,3.22,0,0,1-2.12-2.25,3.15,3.15,0,0,0-.32-.56c-.27-.47-.56-.77-1-.15l-1-.86.88-.78a1.94,1.94,0,0,0-.34-.21,3,3,0,0,1-2.26-1.57c0-.09-.21-.16-.32-.18a10.73,10.73,0,0,0-1.94-.31,3.09,3.09,0,0,0-1.57.39c-.3.18-.37.73-.54,1.09l-.31-.37.18,1.4-.45-.72-.1,0,.13.9-.08,0-.36-.78-.13,0,.3,1.48-.63-1,.28,1.42-.11,0-.48-.73-.09,0,.3,1.47-.51-.57-.08,0,.3,1.11-.1,0-.57-.7-.12.07.5,1.22-.09,0-.55-.63.39,1.35-.07,0-.49-.72-.08,0,.54,1.4-.09,0-.62-.89-.08,0,.66,1.78-.09,0-.64-.7-.13.09.84,1.72-.09,0-.72-1-.11.06.8,1.81-.09,0-.75-1-.12.06,1.1,2.4-.11.05Zm-29.4,36.05a.4.4,0,0,0,.06.09,10.77,10.77,0,0,1,.86,1.13,3.3,3.3,0,0,1,.5,1.28c.08,1,.31,1.18,1.46,1l-.64-1.18c-.3-.56-.87-1.15-.83-1.69a10.28,10.28,0,0,1,.85-3,25.13,25.13,0,0,1,1.38-2.41c.11-.19.23-.54.14-.63-.31-.33-.1-.59,0-.89.16-.45.3-.9.4-1.21l.71-.32.12.48.36-.71.27.31.38-.62.15.62.43-.79.24.61.49-.83.14.32.42-.54.11.46.69-1.09.08.76.55-.88.08.74.55-1.14.27.31.58-.9.14.25a5.83,5.83,0,0,1,.74-.61c.22-.13.53-.11.74-.25.79-.53,1.57-1.07,2.32-1.65.49-.39.92-.86,1.41-1.33l.77-.16.36.64.18-.81.23,1,.11,0,.3-.92.36.77.22-.83.35.58.45-1,.17.73.39-.77.27.5.33-1.43c-1.53.19-3,.35-4.38.58a1.75,1.75,0,0,0-1,.53,12.63,12.63,0,0,1-6.49,3.92,5.94,5.94,0,0,1-.72.1l-.12-.22,1.05-.84.13.48.67-1.27.06.94.78-1.35.11,0V143l.11,0,.41-1.28.1,0,0,.83.13,0,.37-1.24.08,0,.09.87.55-1.76h.08v.95h.1l.35-1.61.12,0,0,1,.18,0,.41-1.77.12,1.31h.2l.19-1.62h.08l.24,1h.26c.13-2.37.27-4.73.37-7.1,0-.11-.31-.35-.46-.34-.86.1-1.72.25-2.58.39l0-.11,3-.75a6.94,6.94,0,0,0-6.23,2.55,4.66,4.66,0,0,1,1.74-2.08,6.38,6.38,0,0,1,3.78-.9,5.05,5.05,0,0,0,.9-.14l-.05-.25a8.38,8.38,0,0,0-4.6.72,7.39,7.39,0,0,0-2.91,3.7A5,5,0,0,1,410,131.2a18.73,18.73,0,0,1,3.56-.47l.9-.08q-.17-.31-.33-.31a18,18,0,0,0-3.28.07c-3.57.69-5.21,3.54-5.54,7.13-.19,2-.2,4.05-.28,6.08a2.63,2.63,0,0,1-1.12,2.08,14.76,14.76,0,0,1-1.46,1,1.64,1.64,0,0,0-.8,1.37,10.27,10.27,0,0,1-.6,2.69C400.39,152.24,399.57,153.69,398.78,155.26Zm37.37-7.85a8.52,8.52,0,0,0-.67-2c-.9-1.37-1.92-2.65-2.88-4a.54.54,0,0,0-.83-.14,24.71,24.71,0,0,1-11.09,3.14,2.35,2.35,0,0,0-2.2,1,11.48,11.48,0,0,1-2.42,2.41c-1.55,1.31-1.9,1.42-.25,3.4,0,0,0,0,0,0a1.83,1.83,0,0,0,.6.14c.8-.09,1.6-.26,2.4-.31.61,0,.81-.22.52-.79a3.77,3.77,0,0,0-1.9-2c-.21-.08-.41-.2-.61-.3l0-.2a11.2,11.2,0,0,1,1.52.24,17.52,17.52,0,0,0,5.23.76.78.78,0,0,0,.61-.3c.07-.17-.08-.46-.17-.68s-.16-.18-.25-.28a2.23,2.23,0,0,0-.47-2.81,3.06,3.06,0,0,1,.41.06,11.89,11.89,0,0,1,4.23,2.29.75.75,0,0,0,1.06.12,4.5,4.5,0,0,1,3.48-.55,1.83,1.83,0,0,1,1.37,2.65,10.23,10.23,0,0,0-.38,1.94c0,.3.07.67-.07.89a4.15,4.15,0,0,0-.31,2.45,1.69,1.69,0,0,0,1.33,1.38,5,5,0,0,0,4-2.32,1,1,0,0,0,0-.63c-.11-.31-.31-.59-.43-.9a13.2,13.2,0,0,0-.69-1.72c-.54-.91-1.18-1.76-1.77-2.63a.86.86,0,0,1-.14-.21c0-.11-.08-.3,0-.34a.61.61,0,0,1,.39-.1A1.34,1.34,0,0,1,436.15,147.41Zm3-10.23.05-.09,1.42.37-.48-.68,1.33.34-.06-.48,1.25.32-.19-.37a7.06,7.06,0,0,0,1.31-.35c.65-.31.77-.34,1.25.08l.92.83a1.3,1.3,0,0,0-.1-1.61,1.48,1.48,0,0,0-1.43-.68c-2.06.22-4.12.36-6.18.49a1.19,1.19,0,0,1-.87-.31c-.5-.59-.91-1.26-1.35-1.9l.14-.12.61.13-.29-.77.61.13-.14-.76.68.07-.45-.93.6-.08c0-.6-.49-.65-.86-.73-1.48-.29-3-.56-4.44-.8-1-.16-2-.26-3-.38a1,1,0,0,0-.31.07l.16.62-1.13-.66.48.82L427.5,129l-.07.1.42.64-.09.06-1-.8-.08.08.82,1.21-.52.07.29.75-.62-.12.26.59-.45,0,4.56,5.69.08-.72,1.5,1.39-.39-1,.12-.08,1.45,1.33-.43-1.26,1.58,1.42.11-.13-.65-1,.11-.09,1.54,1,.09-.11-.65-.87,1.72,1.08.09-.12-.63-.84.07-.09,1.66,1,.07-.11-.7-.92,1.89.8.06-.12Zm-38.59,13.31.24,0c.21-1,.45-2,.61-3a1.23,1.23,0,0,1,.61-.9c.7-.5,1.35-1.07,2-1.63a2,2,0,0,0,.67-1.62c0-1.08-.08-2.16-.07-3.24,0-1.36,0-2.72.1-4.08a10,10,0,0,1,1.37-4c.38-.69.29-.88-.5-.92a4.09,4.09,0,0,0-3.45,1.31,10.22,10.22,0,0,0-2.44,5,1,1,0,0,0,.36,1.08,4.65,4.65,0,0,1,1.53,3.05,10.15,10.15,0,0,1-.74,4.62,18.07,18.07,0,0,0-.79,2.51A1.77,1.77,0,0,0,400.51,150.49Zm1.86-20.89a10.07,10.07,0,0,0-3.68,6.16c-.28,1.33.11,2.78-.8,4a2.93,2.93,0,0,0,1.17-2,11.85,11.85,0,0,1,2.31-5.82,12,12,0,0,1,2-1.72,2.65,2.65,0,0,1,.79-.24l-1.75,1.2.1.16c.2-.1.4-.2.59-.31a4.09,4.09,0,0,1,2.8-.53,2.1,2.1,0,0,0,.64.07,2.91,2.91,0,0,0,.64-.26c-.09-.19-.13-.45-.28-.56a26.83,26.83,0,0,0-2.51-1.58,3.73,3.73,0,0,0-1.49-.35,5.5,5.5,0,0,0-4.31,2,7.05,7.05,0,0,0-1.8,3.12l1-1.23.15.08a8.58,8.58,0,0,0-1.37,4.11,7.22,7.22,0,0,1-2.07,4.93,2.61,2.61,0,0,0-.36,2.62,7.65,7.65,0,0,1,1.29-1.68,6.62,6.62,0,0,0,2.62-5.24,8.87,8.87,0,0,1,3.49-6.52A4.8,4.8,0,0,1,402.38,129.6Zm10.95,21.53a3.78,3.78,0,0,0-.47-.72,11.56,11.56,0,0,0-1.16-.92c-.56-.39-.58-.62-.15-1.14s1-1.24,1.46-1.89a1.48,1.48,0,0,0,.23-.73c0-.35-.21-.47-.51-.35-1,.41-1.91.88-2.89,1.25-1.66.63-3.35,1.21-5,1.82-.3.11-.68.19-.85.41-.58.77-1.07,1.59-1.61,2.41a3.56,3.56,0,0,0,2,.58.79.79,0,0,1,.48.17,1.43,1.43,0,0,0,1.26.32c.27,0,.55.07.83.07a2.25,2.25,0,0,0,.81-.06c1.27-.48,2.63-.64,3.89-1.21A4.72,4.72,0,0,1,413.33,151.13Zm-3.59-28,1-.73.11.1-.19.75,1.28-1-.12.84.12.09,1.07-1.28.15.73,1.18-1.87-.12-.17c-2.15.69-4.31,1.22-6.59.51a6.61,6.61,0,0,1,1.39-.82c.76-.35,1.69-.31,2.28-1.06.06-.07.31,0,.48,0l.31-.67.2.45.48-.7c.5.58.62,0,.85-.21l-.37-.63-.8.1,0-.39h-1.68l.24-.5-1.68.19,0-.17-1.72.18v-.15l-.74.38.24-.52c-.61-.18-1,.54-1.73.1-.24-.15-.87.24-1.3.45a3,3,0,0,0-.93.66c-.31.35-.07,1.34.32,1.42l.25-.46.24.31.2-.35.29.33.19-.33.39.55.06-.64.3.41.24-.28.27.52.21-.61.28.44.31-.52.07.87.42-.86.11.67.32-.51.14.73.5-.76.23.19.25-.35.19.5,1.1-.33a3.31,3.31,0,0,1-1,.84,11.78,11.78,0,0,1-3.8.93,17.14,17.14,0,0,0-2.81.85c-.34.13-.57.56-.9.9l.68.2,1.15-.57.14.41,2-.12,0,.32,1.2-.22v.15l1.07.12-.07.17H409l-.07.42.67-.37ZM430,156.75l.15.14-1.33,2.21.19.11a6.9,6.9,0,0,0,2.16-2.74,2,2,0,0,0-.29-2.53,1.76,1.76,0,0,1-.49-1.89,1.89,1.89,0,0,0,0-.9c-.1-.57-.24-1.13-.37-1.7a1.11,1.11,0,0,0-1.24-1,10.56,10.56,0,0,0-1.34.2,20.47,20.47,0,0,1-6.89.33,5,5,0,0,0-.72,0l0,.2c.52.22,1.13.72,1.55.6.68-.2,1.24.31,1.9,0,.33-.13.82.2,1.25.24s.92-.17,1.3.23l.05,0-.09-.41.87.5-.13-.79.68.51,0-.67.56.68.12-.43h.19l.13,2.32.45-1.3a2.54,2.54,0,0,1-1.26,2.75,5.08,5.08,0,0,1-1,.37,6.58,6.58,0,0,0-1.67,1.08c1.56.06,2.7-1,4-1.38l.15.18-.81,1-.09-.18-2.31,1.28a4,4,0,0,0,1.62-.21c.81-.35,1.57-.84,2.39-1.3l.35,1.24-.07,0-.24-.33-.41,1.19-.26-.4-.17,1.36-.29-.42,0,.2-.81.41-.09-.17-.52,1.16A5.43,5.43,0,0,0,430,156.75Zm-9.24-41.18a2.5,2.5,0,0,0,.18.33c.09.13.24.35.31.33s.41-.2.41-.32a9.85,9.85,0,0,0,0-2.3c-.06-.35-.59-.62-1-1l-.53,1-.58-1-.5.91a.66.66,0,0,1-.23-.36c-.07-.18-.15-.36-.22-.54-.15.11-.3.24-.46.34a2,2,0,0,1-.32.14c0-.15-.16-.33-.12-.45.09-.3.16-.61-.22-.66a.79.79,0,0,0-.62.39,13,13,0,0,0-.74,2.13c-.19.82.19,1.12,1,.86l.17.86c.9.22.38-.93.93-1l.62,1.16.55-.76C420,116.3,420,116.3,420.8,115.56Zm-6.42,23.86c.45-.05.83-.09,1.21-.15l4.27-.65c.49-.08.76-.34.68-1l-5.25.43a1.32,1.32,0,0,1-.09-.24c0-.17,0-.34,0-.52a18.15,18.15,0,0,1,.66-6.27c0-.15-.07-.35-.1-.52-.18.08-.4.12-.51.26a1.74,1.74,0,0,0-.28.65A20.7,20.7,0,0,0,414.39,139.42Zm7.45-1.87,0-.1,1.19-1-.68.08,1-1.19-.09-.07-.45.24,0-.07.9-1.24-.09-.06-.8.76-.09-.09.93-1.28-.81.51-.1-.12,1.62-1.78-.12-.1-.86.64-.07-.09,1-1.16a1.29,1.29,0,0,0-.6.21c-1.86,1.13-1.81,1.13-2,3.26-.14,1.48-.13,3.05-1.43,4.17.41.44,1,.79,1.12,1.26.31,1.21,1,1.23,1.93.88a.59.59,0,0,1,.13,0c.42-.05.48-.32.23-.57a11.47,11.47,0,0,0-1.15-.91l-.94-.72.63-.69-.34-.1.49-.7Zm-7.57-14.27-.1-.21c-.31.11-.63.2-.93.34a6.21,6.21,0,0,1-4.53.33,19.85,19.85,0,0,0-6.45-.72,2.22,2.22,0,0,0-1.81,1.05,1.28,1.28,0,0,0-.11.47l.17.08.4-.52.16.22,1.19-.39.13.26a6.56,6.56,0,0,1,1.3-.52c.34-.06.82.27,1.06.13.55-.32,1,0,1.55,0a7.15,7.15,0,0,1,2.22.7c.29.1.6.16.91.24l0,.37.63-.28v.5l1.09-.86-.07.63.87-.76.21.58.53-.75.14.11.08.58ZM423.18,105l0-.2c-.22-.15-.44-.41-.66-.42a15.46,15.46,0,0,0-2.41.06.81.81,0,0,0-.45.66,17.81,17.81,0,0,0,.61,2.56,1.39,1.39,0,0,0,.67.75c.3.14.84.23,1,.06a3.31,3.31,0,0,0,1.18-2.63H422l0-.54Zm.09,13.29a2.27,2.27,0,0,1,1.27-1.85,14,14,0,0,0,4.26-4.62,5.61,5.61,0,0,0,.42-1l-.22-.17a7.39,7.39,0,0,0-1.24,1.15,13.23,13.23,0,0,1-4.18,4.17A1.53,1.53,0,0,0,423.27,118.32Zm.57,3.79.11.12a2.2,2.2,0,0,0-1.27,2.56c.77-1.5,2.68-1.89,3.43-3.59l-.87.38c.48-.41,1-.72,1.22-1.51l-.76.5.21-1.25c-.66.56-1.26,1.09-1.89,1.59a3.75,3.75,0,0,0-1.26,1.92Zm-8.29,31.51.08,0,.43-.4-.5,2.65.2,0c.14-.5.25-1,.45-1.51a12.54,12.54,0,0,1,.68-1.28l.17.09-.36.68.1.05,1.4-1.21.06.08L417.16,155a11.09,11.09,0,0,0,1.5-1.8,13,13,0,0,0,.66-1.23c-.49-.07-1-.16-1.47-.2a22.84,22.84,0,0,1-2.36-.17c-.78-.15-.83-.19-1.07.64h1.75Zm11-25.75v.37c.75.09,1.51.16,2.26.28l8.73,1.38a8.9,8.9,0,0,0,1,.19c.12,0,.31-.2.36-.34a.45.45,0,0,0-.19-.4,3,3,0,0,0-.81-.2c-3.16-.43-6.32-.86-9.48-1.26A15.17,15.17,0,0,0,426.59,127.87Zm15.7,23.59c-.17-.47-.33-.92-.48-1.37a5.63,5.63,0,0,0-.26-.86.56.56,0,0,0-.47-.25,2.78,2.78,0,0,0-.68.44c-.46-.23-.54-.55-.16-.9a.74.74,0,0,0,0-1.24c-.2-.2-.41-.54-.74-.22s-.09.53.17.73c.06,0,.08.14.06.11l-.69,1.17-.6.09.59,1.1c.35.2.68.27.82.48a6,6,0,0,1,.47,1.16l.32-.61.4.84.07-1.09.76,1.15-.13-1Zm-18.65-13.32c1.26-.35,2.52-.69,3.77-1.07a.61.61,0,0,0,.27-.52,13.73,13.73,0,0,0-.59-2,7.57,7.57,0,0,0-.8-1.23,1.74,1.74,0,0,0-.13.34c0,.3,0,.6,0,.91.09,1.67.09,1.67-1.5,2.06l-.25.07C423.68,136.88,423.48,137.22,423.64,138.14ZM423,126.29a14.61,14.61,0,0,1,1.43-1.73,21.38,21.38,0,0,1,1.82-1.22,3.16,3.16,0,0,0,.91-3.77,3.93,3.93,0,0,0-.54,1,4.53,4.53,0,0,1-2.19,2.89A7.25,7.25,0,0,0,423,125,1,1,0,0,0,423,126.29Zm-3.21-15.55c-1.36.18-2.47-.5-3.64-1a28.83,28.83,0,0,0-2.78-1c-1-.28-2.35-.24-2.84.46l1.53.58-.34-.57,1.46.81-.27-.74,1,.71-.11-.65,1.34,1.14,0-.34c.25.14.66.42.7.38.34-.38.47,0,.67.13s.36.21.56.33l0-.33A1.89,1.89,0,0,0,419.82,110.74Zm1.65,17.35c-.19,0-.41.14-.45.09-.61-.69-1.08-.12-1.52.2-.69.5-.65.86.12,1.27a5.54,5.54,0,0,0,3.31.56,3.43,3.43,0,0,0,.73-.31l-2.22-1.68Zm.87,23.54-.07.52-1.63-.22c.07.18.08.21.09.22l.22.12a8.88,8.88,0,0,0,5.86.39c.91-.23,1-.4.92-1.49l-.39.94-.26-.55-.3.69-.16-.17-.23-.77-.39.92-.14-.59-.39.34-.12-.34L425,152l-.37-.79-.2.59-1.27.19-.2-.29-.2.42ZM427.9,139c.09-.37.16-.68.25-1,.14-.47,0-.69-.5-.55-1.21.36-2.42.75-3.62,1.14a.58.58,0,0,0-.41.85l.56-.32.09.58.54-.49.13.62.53-.7.1,1,.45-1.07.07.85.14,0,.32-.94.31.88.27-1,.29.53.26-1,.12.28Zm-2-27.79a3.36,3.36,0,0,1,2.57-2.11,10.45,10.45,0,0,1,1.29-.07c.89,0,1.32-.71,2.06-1.22C428.33,107.34,426,108.68,425.94,111.2Zm-12.4,15.52c1.33,1,4.35.19,5.68-1.37l-.85.12a3.37,3.37,0,0,0-1.15.66c-.42.4-.86-.21-1.25.1l.07-.46-.53.45.14-.6-.58.4.45-1.17Zm-6.74-22.16-1.22-.68.59-.11,0-.22a2.77,2.77,0,0,0-1-.2c-.22,0-.4.4-.54.65,0,.09.06.27.12.47-.6.71-.59.79.15,1.56a.89.89,0,0,0,.18.18c.23.12.46.23.7.35l.16-.63.76-.65-.46-.38ZM426.33,118l-.08,1.88c1-1.26.66-2.77,1.26-4-1.53.81-3,2.31-2.69,3.72Zm1.26-3.56L425,116.5c-.32.26-.65.5-.94.79a1.9,1.9,0,0,0-.12,2.52,10.39,10.39,0,0,1,.9-2,9,9,0,0,1,1.67-1.59A2.4,2.4,0,0,0,427.59,114.43Zm-3.35.48c2-1.44,3.16-3.7,5.37-4.89a2.42,2.42,0,0,0-2,.78c-.85.77-1.71,1.52-2.54,2.29A2.56,2.56,0,0,0,424.24,114.92Zm-16.55-1.25.34.81c.29-1.22,0-2.19-.76-2.42s-1.92.53-2.29,1.54c2.14-.15,2.14-.15,2.52.67Zm31.07-5.13a2.28,2.28,0,0,0-3.69-.82,2.22,2.22,0,0,1,2.09,1.3l.42-.55.38,1.08h.18l.06-1.18.24,0Zm-15.36,5.81c.34.2.49.15.45-.4s.19-1.28-.82-1c0,0-.06-.06-.09-.08-.49-.31-.78-.21-.89.36a2,2,0,0,0,0,.89,4.94,4.94,0,0,0,.49.94Zm-4.84,13.43s-.09-.07-.1-.13c-.06-.42-.15-.74-.57-.21,0,.05-.16.05-.24.06-.52,0-.4.36-.3.64a6,6,0,0,0,.46.82,3.55,3.55,0,0,0,.48-.26c.5-.36,1-.76,1.48-1.1.31-.21.69-.31,1-.52.08-.05,0-.3,0-.46a1.37,1.37,0,0,0-.47,0c-.11,0-.15.24-.26.3C419.61,127.21,419.12,127.46,418.55,127.77Zm20,20.58a.51.51,0,0,0,.21-.08,1.61,1.61,0,0,0,0-1.65,3.74,3.74,0,0,1-.67-1.15c-.07-.3,0-.61-.39-.49a.79.79,0,0,0-.38.67,6.36,6.36,0,0,0,.55,1.36C438,147.46,438.25,147.88,438.5,148.35Zm-5.81,2.26a3.85,3.85,0,0,0,.34-.76c.07-.32,0-.67.07-1,.16-.73,0-1-.59-1.25v1.93l-.87-.72c.15.49.39.85.34,1.15-.11.6-.05.92.5,1.17l-.09-.73ZM421.35,100.1a4.79,4.79,0,0,0-1.89.16,6.22,6.22,0,0,0-1.38,1.56l.13.17a6.13,6.13,0,0,0,1-.41C419.87,101.14,420.53,100.66,421.35,100.1Zm18,24.66.23,4.44C440.32,128.82,440.21,125.4,439.38,124.76Zm-15.78-15.37,1.13-.07,2.61-1.67a2.08,2.08,0,0,0-1.83.31C424.84,108.44,424.2,108.93,423.59,109.39Zm-17-1.33c0-1.16.59-1.57,1.63-1.5-.21-.55-.53-.76-1-.7a1.21,1.21,0,0,0-1.16.86A1.05,1.05,0,0,0,406.57,108.06Zm33.59,22.86-.2.06c0,.05-.08.11-.08.16.15,1.15.29,2.3.46,3.44,0,.1.19.18.29.27.08-.13.24-.27.23-.39-.1-.87-.21-1.74-.36-2.6A5.63,5.63,0,0,0,440.16,130.92ZM413,152.68l.2.08a2.31,2.31,0,0,0,.27-.91c0-.16-.44-.32-.71-.38a2,2,0,0,0-.9,0c-.55.14-1.21.19-1.34.93.67,0,1.3-.79,1.92,0l.83-.49ZM425,142.57a1.82,1.82,0,0,0-2.63-.92A3,3,0,0,0,425,142.57Zm5-33.09c-1.54-.63-3.5.43-3.53,1.84A6.17,6.17,0,0,1,430,109.48Zm-9.6-5.58c1.54.18,1.81,0,1.57-1-.12-.49-.5-.67-.83-.3A6.89,6.89,0,0,0,420.43,103.9Zm4.07,22.68a5,5,0,0,1,.38-.83c.16-.22.45-.36.59-.59a9.34,9.34,0,0,0,.48-1.22C424.52,124.32,424,125.37,424.5,126.57Zm25.32,18.61-1-.76c-.81.91-.72,1.43.28,1.93Zm-40.18,7.24c-1-.38-2.31.41-2.2,1.24l.57-.41.48.59.09-.54C409.35,153.5,409.26,152.76,409.64,152.43ZM433,160.15c.79-.73.6-1.76-.52-2.86l-.36.76.55.19-.27.49C433.32,158.92,432.69,159.68,433,160.15ZM415.7,114.34a2.47,2.47,0,0,0,.59-2.5A2.24,2.24,0,0,0,415.7,114.34Zm1.09,45.48c-.68.84-.67,1.1,0,1.59a1.8,1.8,0,0,0,.58.16c0-.22.19-.47.12-.64A8.41,8.41,0,0,0,416.78,159.81Zm4.09-18.56c.29-1,.21-1.23-.75-1.73C419.6,140.45,419.68,140.65,420.88,141.26Zm13.6,20.84c-.07-.85-.44-1.45-.76-1.29s-.69.62-.63.81C433.29,162.26,433.93,162,434.48,162.1ZM419,105.94a3.26,3.26,0,0,0,1.76,2.94Zm-17.73,53.94c-.14-.19-.31-.44-.51-.66a1.73,1.73,0,0,0-.41-.25,1.52,1.52,0,0,0-.25.47c-.09.73.24,1.08.9,1.13Zm23.82-17a4.61,4.61,0,0,1-3.13-1.23A2.37,2.37,0,0,0,425.09,142.92Zm-2.85-40.39c0,.42.06.84.14,1.25a.48.48,0,0,0,.35.3.54.54,0,0,0,.4-.24A1,1,0,0,0,422.24,102.53Zm-15.67,52a1.28,1.28,0,0,0-1,1.5l.7.08-.09-.54.35.1Zm30.3-11.12a1.33,1.33,0,0,0-.27,2,3.35,3.35,0,0,0,.5-.94A3,3,0,0,0,436.86,143.44ZM439,130c.36.31.64.62.71.59a1.39,1.39,0,0,0,.58-.64c0-.12-.3-.55-.37-.52A4.63,4.63,0,0,0,439,130Zm-2.62,15.88-.21.06a5.71,5.71,0,0,0,.14.6,5.21,5.21,0,0,0,.38,1,.83.83,0,0,0,.93.52Zm-4.51-39.54-.08.16.68.74,0-.13,1.49.12,0-.08ZM421,102.24c1,.14,1,.1.65-1.13A.94.94,0,0,0,421,102.24Zm-3.83,62.23.18-.22-.81-1-.66.38Zm17-1.37a.8.8,0,0,0-1.09-.28c-.13,0-.19.27-.29.41a1.66,1.66,0,0,0,.5.09A7.45,7.45,0,0,0,434.2,163.1Zm-25.4-6.65-.6.92c.17.06.36.2.5.15C409.16,157.37,409.09,157,408.8,156.45Zm27.11,6.23,1.25.11C437.13,162.08,436.87,162,435.91,162.68Zm-11.58-49.85.25-.14a.76.76,0,0,0-.63-1l-.19.11Zm16.9,5.12.26-.31-.94-.75-.21.25ZM416,107.86l-.11.16,1.4.55C417.15,108.07,416.79,107.9,416,107.86Zm-10.55,49.9.14,1.14C406.2,158.26,406.18,158.05,405.48,157.76Zm13.41-52.15c.72-.53.78-.88.3-1.24Z" style="fill: #aaa"/>
        <path d="M441.23,117.94l-.88-.81.21-.25.94.75Z" style="fill: #aaa"/>
        <path d="M417.52,132.55c0,.72,0,1.45.07,2.17s.07,1.41.07,2.11a12.55,12.55,0,0,1-.12-4.27Z" style="fill: #aaa"/>
        <path d="M420.23,105.54l.26-.85,1.3.47-.17.56Z" style="fill: #aaa"/>
        <path d="M422.14,107.46a1.53,1.53,0,0,1-.08.23l-1,.06c0-.1,0-.28,0-.28Z" style="fill: #aaa"/>
        <path d="M439.79,150c.53.08,1,.25,1.35-.3l-.47,1.07Z" style="fill: #aaa"/>
      </g>
      <path d="M422.9,183.46a.78.78,0,0,1-.4-.11L416.79,180a13,13,0,0,0-6.58-1.8H395.27a13.76,13.76,0,0,1-13.75-13.75V93.36A5.45,5.45,0,0,1,387,87.92h71.86a5.45,5.45,0,0,1,5.44,5.44v71.08a13.76,13.76,0,0,1-13.75,13.75H435.59A13,13,0,0,0,429,180l-5.72,3.37A.78.78,0,0,1,422.9,183.46ZM387,89.48a3.89,3.89,0,0,0-3.89,3.89v71.08a12.21,12.21,0,0,0,12.19,12.19h14.93a14.52,14.52,0,0,1,7.37,2l5.32,3.14,5.32-3.14a14.52,14.52,0,0,1,7.37-2h14.93a12.21,12.21,0,0,0,12.19-12.19V93.36a3.89,3.89,0,0,0-3.89-3.89Z" style="fill: #aaa"/>
    </g>
  </g>
  <g>
    <path d="M1000.47,427.84l0-.2h-5.26A36.2,36.2,0,0,0,940.35,391l2.93,4.68a30.68,30.68,0,0,1,46.34,32H979.12V409.76l-9.72,13.33V409.81l-9.67,13.24V400.13l-13.27,21v-21l-22.21,35a37.82,37.82,0,0,0,2.23,4.79L942,415.56v19.9l13.28-21.06v21L965,422.16v13.27l9.68-13.27v10.29h13.57a30.68,30.68,0,0,1-44.94,15.26l-2.92,4.68a36.21,36.21,0,0,0,53.71-19.94h5.42S1000.24,429.34,1000.47,427.84Z" style="fill: #aaa"/>
    <path d="M1001.43,422.18a35,35,0,0,1-.42,5.45l0,.21h5.86v12.68l9.66-13.24v13.24l9.7-13.3v20h3.28a61.43,61.43,0,1,0-2.26,4.43h-5.06V438.81l-9.68,13.27V438.81l-9.7,13.28V432.26h-2.72l0,.2a41.9,41.9,0,1,1,1.41-10.78Z" style="fill: #aaa"/>
  </g>
</svg>
