<svg xmlns="http://www.w3.org/2000/svg" xmlns:xlink="http://www.w3.org/1999/xlink" width="272.2mm" height="75.03mm" viewBox="0 0 771.59 212.69">
  <defs>
    <mask id="a" x="461.7" y="29.65" width="41.34" height="31.11" maskUnits="userSpaceOnUse">
      <path d="M489.22,45.77l-26-14.94,39.06,7.43-13,22.5Z" style="fill: #71b4e1"/>
    </mask>
    <mask id="b" x="449.17" y="52.2" width="41.34" height="31.05" maskUnits="userSpaceOnUse">
      <path d="M476.23,68.26l-26-14.94,39.06,7.44-13,22.5Z" style="fill: #c5cac6"/>
    </mask>
    <mask id="c" x="422.87" y="22.14" width="41.34" height="31.18" maskUnits="userSpaceOnUse">
      <path d="M450.17,38.33l-26-14.94,39.06,7.44-13,22.49Z" style="fill: #f73624"/>
    </mask>
  </defs>
  <title>8</title>
  <path d="M474.74,149.48c-.72-3.12,2.4-5.87,6.42-5.87,3.62,0,7.26.81,8.63,5.86h4.64v7.71C488.64,152.42,476.12,155.4,474.74,149.48Zm48.16-2.13H512.46l-10,10.89V136.48h-8v5.34c-.27-.35-.55-.68-.85-1-3-3.16-7.22-4.74-12.63-4.74a14.23,14.23,0,0,0-11.69,5.15,12.55,12.55,0,0,0-2.67,10.14c1.89,8.38,9.67,9.71,15.39,10.46,4.51.59,8.83,1.4,8.71,5.43s-4.83,5.2-7.92,5.2c-8,0-8.31-5.94-8.31-5.94h-8.64a14.55,14.55,0,0,0,3.55,8.9c3,3.35,7.51,5.07,13.42,5.07a17.41,17.41,0,0,0,11.59-4.08V180h8V169.69l2.85-3.12,8.15,13.34h9.34L511,160.34Z" style="fill: #d2d2d2"/>
  <g>
    <path d="M113.63,140.08v1.61h13.8a3.45,3.45,0,0,1,4.14,4.14v13.8a3.45,3.45,0,0,1-4.14,4.14h-6.66c-1.15,0-2.65,0-3.22-1.26s.23-2.42.92-3.34l9-11.95h-13.8l-5.54,7.36c-.92,1.23-1.72,2.3-1.72,3.68s.74,2.38,1.72,3.68l1.38,1.84c1.38,1.84,2.76,3.68,4.59,4.59s4,.91,7,.91h6c3.45,0,8.62,0,12.09-3.45s3.45-8.51,3.45-10.34V150c0-1.84,0-6.9-3.45-10.34s-8.62-3.44-12.09-3.45h-9.53a3.34,3.34,0,0,0-3.91,3.91" style="fill: #d2d2d2"/>
    <polygon points="97.16 147.2 110.83 147.2 94.36 169.27 80.35 169.27 97.16 147.2" style="fill: #d2d2d2"/>
    <path d="M43.21,151.12a3.34,3.34,0,0,1,3.91-3.91H70.25c3,0,5.19,0,7,.92s3.22,2.76,4.59,4.59l1.38,1.84c1,1.31,1.73,2.3,1.73,3.68s-.81,2.45-1.73,3.68l-5.54,7.36H63.89l9-11.95c.69-.92,1.5-2.07.92-3.34s-2.07-1.26-3.22-1.26H59.74v27.61h-11V152.73H43.16v-1.61" style="fill: #d2d2d2"/>
  </g>
  <g>
    <path d="M706.84,50.54l5-3.73H695.11V69.18h16.73V65.44h-12V59.73H710.1V56H699.89V50.54Z" style="fill: #d2d2d2"/>
    <path d="M682.47,55.52h-5.8v-5h9.27l5-3.73H671.89V69.18h10c5.58,0,8.8-2.56,8.8-7C690.65,57.86,687.75,55.52,682.47,55.52Zm-.8,9.92h-5V59.25h5c3,0,4.45,1,4.45,3.11S684.6,65.44,681.67,65.44Z" style="fill: #d2d2d2"/>
    <path d="M725.39,46.81H716.3V69.18h4.78V62.84h4.35c5.79,0,9.42-3.07,9.42-8S731.22,46.81,725.39,46.81Zm-.11,12.3H721V50.54h4.24c3.08,0,4.75,1.54,4.75,4.28S728.36,59.11,725.28,59.11Z" style="fill: #d2d2d2"/>
    <path d="M663.7,64.34a8.53,8.53,0,0,1-4.13,1.06A7.4,7.4,0,1,1,663.92,52l3.44-2.56-.22-.22a11.29,11.29,0,0,0-7.72-2.71A12.23,12.23,0,0,0,651,49.7a11.09,11.09,0,0,0-3.33,8.17A11.61,11.61,0,0,0,651,66.17a11.91,11.91,0,0,0,8.44,3.3,11.31,11.31,0,0,0,8.47-3.41l-3.08-2.31Z" style="fill: #d2d2d2"/>
    <path d="M632.66,46.66a19.86,19.86,0,0,1,2.21,3.7L618.14,62.84l-7-4.47V53l7,4.43Z" style="fill: #d2d2d2"/>
    <path d="M604,58a4.82,4.82,0,0,1,0-.73l-4.24-.22c0,.29,0,.62,0,.91a18.65,18.65,0,0,0,5.4,13.14l3-3A14.15,14.15,0,0,1,604,58Z" style="fill: #d2d2d2"/>
    <path d="M618.1,43.73a4.74,4.74,0,0,1,.73,0l.22-4.28c-.29,0-.62,0-.91,0a18.25,18.25,0,0,0-13,5.46l3,3A13.92,13.92,0,0,1,618.1,43.73Z" style="fill: #d2d2d2"/>
    <path d="M618.1,72.29a4.74,4.74,0,0,1-.73,0l-.22,4.28c.29,0,.62,0,.91,0a18.25,18.25,0,0,0,13-5.46l-3-3A13.71,13.71,0,0,1,618.1,72.29Z" style="fill: #d2d2d2"/>
    <path d="M626.07,46.22l3.59-2.67a18.28,18.28,0,0,0-11.55-4.14v4.28A14.13,14.13,0,0,1,626.07,46.22Z" style="fill: #d2d2d2"/>
    <path d="M636.5,58a20.12,20.12,0,0,0-.29-3.33l-3.95,3V58a14.26,14.26,0,0,1-4.67,10.58l2.86,3.19A18.63,18.63,0,0,0,636.5,58Z" style="fill: #d2d2d2"/>
    <path d="M618.1,72.29a14,14,0,0,1-10.47-4.72l-3.15,2.89a18.19,18.19,0,0,0,13.62,6.11Z" style="fill: #d2d2d2"/>
    <path d="M608.64,47.43l-2.86-3.19a18.56,18.56,0,0,0-6,13.77H604A14.32,14.32,0,0,1,608.64,47.43Z" style="fill: #d2d2d2"/>
  </g>
  <g>
    <g>
      <path d="M305.76,142.7h.1l2.72,6.69h1.28l2.72-6.67h.1v6.7h1.7v-9.75h-2.18l-2.92,7.07h-.12l-2.92-7.07h-2.18v9.75h1.7Z" style="fill: #d2d2d2"/>
      <path d="M317.4,149.09a3.55,3.55,0,0,0,1.87.47,3.61,3.61,0,0,0,1.88-.47,3.25,3.25,0,0,0,1.23-1.32,4.23,4.23,0,0,0,.43-2,4.34,4.34,0,0,0-.43-2,3.14,3.14,0,0,0-1.23-1.32,4,4,0,0,0-3.75,0,3.25,3.25,0,0,0-1.23,1.32,4.25,4.25,0,0,0-.43,2,4.36,4.36,0,0,0,.43,2A3.19,3.19,0,0,0,317.4,149.09Zm.29-4.52a2,2,0,0,1,.59-.87,1.52,1.52,0,0,1,1-.33,1.48,1.48,0,0,1,1,.33,2,2,0,0,1,.59.87,3.62,3.62,0,0,1,.19,1.22,3.57,3.57,0,0,1-.19,1.21,2,2,0,0,1-.59.87,1.49,1.49,0,0,1-1,.32,1.54,1.54,0,0,1-1-.32,1.9,1.9,0,0,1-.59-.87,3.57,3.57,0,0,1-.2-1.21A3.65,3.65,0,0,1,317.69,144.57Z" style="fill: #d2d2d2"/>
      <path d="M325.5,149.08a4,4,0,0,0,3.51.15,2.6,2.6,0,0,0,1.08-.93,2.82,2.82,0,0,0,.46-1.37h-1.66a1.58,1.58,0,0,1-.29.67,1.4,1.4,0,0,1-.51.42,1.61,1.61,0,0,1-.69.15,1.54,1.54,0,0,1-.94-.29,1.81,1.81,0,0,1-.62-.82,3.4,3.4,0,0,1-.23-1.29,3.28,3.28,0,0,1,.23-1.27,1.78,1.78,0,0,1,.63-.81,1.58,1.58,0,0,1,.93-.28,1.43,1.43,0,0,1,1,.35,1.62,1.62,0,0,1,.48.88h1.66a2.74,2.74,0,0,0-.47-1.38,2.7,2.7,0,0,0-1.11-.92,3.76,3.76,0,0,0-1.59-.33,3.56,3.56,0,0,0-1.87.48,3.2,3.2,0,0,0-1.22,1.33,4.33,4.33,0,0,0-.43,2,4.26,4.26,0,0,0,.42,2,3.23,3.23,0,0,0,1.21,1.33Z" style="fill: #d2d2d2"/>
      <path d="M333.61,146.65h.85l2,2.76h2.1l-2.76-3.72,2.73-3.59h-2.09l-2.22,3h-.63v-3h-1.74v7.32h1.74Z" style="fill: #d2d2d2"/>
      <path d="M340.49,149.09a3.55,3.55,0,0,0,1.87.47,3.61,3.61,0,0,0,1.88-.47,3.25,3.25,0,0,0,1.23-1.32,4.25,4.25,0,0,0,.43-2,4.36,4.36,0,0,0-.43-2,3.14,3.14,0,0,0-1.23-1.32,4,4,0,0,0-3.75,0,3.25,3.25,0,0,0-1.23,1.32,4.23,4.23,0,0,0-.43,2,4.34,4.34,0,0,0,.43,2A3.19,3.19,0,0,0,340.49,149.09Zm.29-4.52a2,2,0,0,1,.59-.87,1.53,1.53,0,0,1,1-.33,1.47,1.47,0,0,1,1,.33,2,2,0,0,1,.59.87,3.59,3.59,0,0,1,.19,1.22,3.54,3.54,0,0,1-.19,1.21,2,2,0,0,1-.59.87,1.49,1.49,0,0,1-1,.32,1.54,1.54,0,0,1-1-.32,1.9,1.9,0,0,1-.59-.87,3.57,3.57,0,0,1-.2-1.21A3.65,3.65,0,0,1,340.79,144.57Z" style="fill: #d2d2d2"/>
      <path d="M353.25,148.48a1.73,1.73,0,0,0,.32-1,1.69,1.69,0,0,0-.25-.91,1.76,1.76,0,0,0-.69-.63,2.53,2.53,0,0,0-1-.29,2.29,2.29,0,0,0,1.17-.52,1.29,1.29,0,0,0,.43-1,1.66,1.66,0,0,0-.76-1.45,3.65,3.65,0,0,0-2.08-.51h-3.1v7.32h3.57a3.93,3.93,0,0,0,1.47-.25,2,2,0,0,0,.93-.69Zm-4.34-5h1.47a1.47,1.47,0,0,1,.86.21.69.69,0,0,1,.31.59.71.71,0,0,1-.14.45.85.85,0,0,1-.39.29,1.59,1.59,0,0,1-.61.1H348.9Zm2.7,4.35a1.12,1.12,0,0,1-.75.22H348.9v-1.81h1.95a1.05,1.05,0,0,1,.75.26.94.94,0,0,1,.28.71A.75.75,0,0,1,351.6,147.83Z" style="fill: #d2d2d2"/>
      <path d="M360.77,148.29a2.82,2.82,0,0,0,.46-1.37h-1.66a1.58,1.58,0,0,1-.28.67,1.41,1.41,0,0,1-.51.42,1.61,1.61,0,0,1-.69.15,1.54,1.54,0,0,1-.94-.29,1.81,1.81,0,0,1-.62-.82,3.4,3.4,0,0,1-.23-1.29,3.28,3.28,0,0,1,.23-1.27,1.78,1.78,0,0,1,.63-.81,1.58,1.58,0,0,1,.93-.28,1.43,1.43,0,0,1,1,.35,1.62,1.62,0,0,1,.48.88h1.66a2.74,2.74,0,0,0-.47-1.38,2.7,2.7,0,0,0-1.11-.92,3.77,3.77,0,0,0-1.59-.33,3.56,3.56,0,0,0-1.87.48,3.19,3.19,0,0,0-1.22,1.33,4.33,4.33,0,0,0-.43,2,4.26,4.26,0,0,0,.42,2,3.24,3.24,0,0,0,1.21,1.33,4,4,0,0,0,3.51.15,2.6,2.6,0,0,0,1.08-.93Z" style="fill: #d2d2d2"/>
      <path d="M369.23,142.1h-2.09l-2.22,3h-.63v-3h-1.74v7.32h1.74v-2.76h.85l2,2.76h2.1l-2.76-3.72Z" style="fill: #d2d2d2"/>
      <path d="M375,144.43v5h1.68V142.1h-1.78l-2.95,5v-5h-1.68v7.32H372Z" style="fill: #d2d2d2"/>
      <path d="M383,142.1l-2.95,5v-5h-1.68v7.32h1.79l2.94-5v5h1.68V142.1Z" style="fill: #d2d2d2"/>
      <path d="M381.54,141.46a2.46,2.46,0,0,0,1.64-.51,1.68,1.68,0,0,0,.61-1.35h-1.3a1,1,0,0,1-.23.62.89.89,0,0,1-.73.27.9.9,0,0,1-.73-.27.94.94,0,0,1-.22-.61H379.3a1.67,1.67,0,0,0,.61,1.35,2.45,2.45,0,0,0,1.63.51Z" style="fill: #d2d2d2"/>
      <path d="M309.9,165.16a2.54,2.54,0,0,0,1.12-1,2.6,2.6,0,0,0,.37-1.36,2.43,2.43,0,0,0-.31-1.27,2.31,2.31,0,0,0-.79-.81,2.19,2.19,0,0,0-1-.32v-.09a2.62,2.62,0,0,0,.87-.38,1.91,1.91,0,0,0,.62-.69,2.07,2.07,0,0,0,.23-1,2.31,2.31,0,0,0-1.42-2.2,4.16,4.16,0,0,0-1.77-.33h-3.76v9.75h4a4.27,4.27,0,0,0,1.87-.35Zm-4.07-8h1.8a1.66,1.66,0,0,1,1.19.37,1.2,1.2,0,0,1,.4.94,1.24,1.24,0,0,1-.22.74,1.41,1.41,0,0,1-.59.48,2,2,0,0,1-.83.17h-1.76v-2.69Zm0,6.82v-2.86h2a2,2,0,0,1,1,.21,1.52,1.52,0,0,1,.61.55,1.44,1.44,0,0,1,.22.78,1.21,1.21,0,0,1-.43,1,2.12,2.12,0,0,1-1.4.37Z" style="fill: #d2d2d2"/>
      <path d="M317.52,165.39a2.78,2.78,0,0,0,1.1-.74,2.43,2.43,0,0,0,.58-1.12l-1.63-.18a1.44,1.44,0,0,1-.34.52,1.46,1.46,0,0,1-.54.32,2.16,2.16,0,0,1-.68.1,1.9,1.9,0,0,1-1-.24,1.65,1.65,0,0,1-.66-.69,2.42,2.42,0,0,1-.23-1h5.14v-.53a4.54,4.54,0,0,0-.27-1.66,3.18,3.18,0,0,0-.74-1.15,3,3,0,0,0-1.07-.67,3.8,3.8,0,0,0-1.29-.21,3.51,3.51,0,0,0-1.84.48,3.31,3.31,0,0,0-1.22,1.33,4.77,4.77,0,0,0,0,4,3.07,3.07,0,0,0,1.24,1.3,3.78,3.78,0,0,0,1.91.46,4.27,4.27,0,0,0,1.53-.26Zm-2.53-5.7a1.7,1.7,0,0,1,.93-.26,1.72,1.72,0,0,1,.87.22,1.55,1.55,0,0,1,.59.61,1.84,1.84,0,0,1,.22.88h-3.46a1.92,1.92,0,0,1,.22-.8,1.78,1.78,0,0,1,.62-.67Z" style="fill: #d2d2d2"/>
      <path d="M325.19,162.55v3h1.67v-7.32h-1.67v2.94h-2.85v-2.94h-1.68v7.32h1.68v-3Z" style="fill: #d2d2d2"/>
      <path d="M330.12,161.38a1.48,1.48,0,0,1-.16-.75v-2.44H328.3v2.44a2.43,2.43,0,0,0,.86,2.06,3.75,3.75,0,0,0,2.34.66,4.87,4.87,0,0,0,.79-.06c.18,0,.34-.07.51-.1v2.32h1.67v-7.32h-1.67v3.56l-.2.06a5,5,0,0,1-1.1.11,2.44,2.44,0,0,1-.86-.13,1,1,0,0,1-.51-.42Z" style="fill: #d2d2d2"/>
      <path d="M339.09,163.72H339l-1.7-5.52h-1.84l2.67,7.47-.15.39a1.32,1.32,0,0,1-.39.59.84.84,0,0,1-.53.18,2.59,2.59,0,0,1-.67-.1l-.41,1.35a2.8,2.8,0,0,0,.48.13,3.15,3.15,0,0,0,.66.05,2.87,2.87,0,0,0,1.18-.22,2.24,2.24,0,0,0,.83-.63,3.35,3.35,0,0,0,.55-1l2.95-8.2h-1.85l-1.7,5.52Z" style="fill: #d2d2d2"/>
      <path d="M349.15,158.53a2.9,2.9,0,0,0-1.55-.43,2.28,2.28,0,0,0-1.06.21,2.07,2.07,0,0,0-.67.52,3.57,3.57,0,0,0-.38.57h-.1v-1.21h-1.71v10.06h1.74v-3.89h.07a3.38,3.38,0,0,0,.39.57,2.07,2.07,0,0,0,.68.51,2.38,2.38,0,0,0,1.05.21,2.78,2.78,0,0,0,1.56-.45,3,3,0,0,0,1.08-1.29,5.44,5.44,0,0,0,0-4.11,2.91,2.91,0,0,0-1.1-1.27Zm-.47,4.55a1.84,1.84,0,0,1-.59.84,1.5,1.5,0,0,1-1,.31,1.48,1.48,0,0,1-.94-.3,1.77,1.77,0,0,1-.59-.83,3.66,3.66,0,0,1-.21-1.24,3.58,3.58,0,0,1,.2-1.24,1.75,1.75,0,0,1,.59-.81,1.52,1.52,0,0,1,.94-.29,1.6,1.6,0,0,1,1,.3,1.81,1.81,0,0,1,.59.83,3.47,3.47,0,0,1,.2,1.21,3.52,3.52,0,0,1-.2,1.22Z" style="fill: #d2d2d2"/>
      <path d="M356.59,161.13h-2.86v-2.94h-1.68v7.32h1.68v-3h2.86v3h1.67v-7.32h-1.67Z" style="fill: #d2d2d2"/>
      <path d="M368.92,158.19h-1.74v7.32h1.74Z" style="fill: #d2d2d2"/>
      <path d="M363.3,160.58h-1.68v-2.38h-1.68v7.32h3.36a3.62,3.62,0,0,0,1.6-.32,2.3,2.3,0,0,0,1.37-2.15,2.26,2.26,0,0,0-.78-1.78A3.21,3.21,0,0,0,363.3,160.58Zm.93,3.23a1.48,1.48,0,0,1-.93.29h-1.68V162h1.68a1.43,1.43,0,0,1,.93.3,1,1,0,0,1,.36.78.86.86,0,0,1-.36.74Z" style="fill: #d2d2d2"/>
      <path d="M374.55,156.3a.89.89,0,0,1-.73.27.9.9,0,0,1-.73-.27.94.94,0,0,1-.22-.61h-1.29a1.67,1.67,0,0,0,.61,1.35,2.45,2.45,0,0,0,1.63.51,2.48,2.48,0,0,0,1.64-.51,1.68,1.68,0,0,0,.61-1.35h-1.3a1,1,0,0,1-.23.62Z" style="fill: #d2d2d2"/>
      <path d="M372.31,163.17v-5h-1.68v7.32h1.79l2.94-5v5H377v-7.32h-1.79Z" style="fill: #d2d2d2"/>
      <path d="M311.81,173.43a4.2,4.2,0,0,0-2-.49h-.14v-1.26h-1.71v1.26h-.14a4.2,4.2,0,0,0-2,.49,3.62,3.62,0,0,0-1.41,1.38,4,4,0,0,0-.51,2.08,4,4,0,0,0,.51,2,3.46,3.46,0,0,0,1.4,1.35,4.3,4.3,0,0,0,2.05.48h.14V182h1.71v-1.24h.14a4.24,4.24,0,0,0,2-.48,3.54,3.54,0,0,0,1.4-1.36,4,4,0,0,0,.51-2,4.17,4.17,0,0,0-.51-2.08A3.54,3.54,0,0,0,311.81,173.43Zm-4,5.83a2.54,2.54,0,0,1-1.2-.27,1.94,1.94,0,0,1-.8-.81,2.67,2.67,0,0,1-.29-1.29,3.09,3.09,0,0,1,.28-1.35,1.94,1.94,0,0,1,.79-.83,2.45,2.45,0,0,1,1.21-.28h.14v4.83h-.13Zm4-1.09a1.85,1.85,0,0,1-.78.81,2.42,2.42,0,0,1-1.2.27h-.14v-4.83h.14a2.42,2.42,0,0,1,1.2.28,1.92,1.92,0,0,1,.78.83,2.94,2.94,0,0,1,.28,1.33,2.73,2.73,0,0,1-.28,1.29Z" style="fill: #d2d2d2"/>
      <path d="M320.25,174.66a4,4,0,0,0-3.75,0,3.25,3.25,0,0,0-1.23,1.32,4.23,4.23,0,0,0-.43,2,4.34,4.34,0,0,0,.43,2,3.2,3.2,0,0,0,1.23,1.32,3.56,3.56,0,0,0,1.87.47,3.61,3.61,0,0,0,1.88-.47,3.25,3.25,0,0,0,1.23-1.32,4.23,4.23,0,0,0,.43-2,4.34,4.34,0,0,0-.43-2A3.14,3.14,0,0,0,320.25,174.66Zm-.29,4.51a2,2,0,0,1-.59.87,1.49,1.49,0,0,1-1,.32,1.53,1.53,0,0,1-1-.32,1.9,1.9,0,0,1-.59-.87,3.56,3.56,0,0,1-.2-1.21,3.65,3.65,0,0,1,.2-1.22,1.91,1.91,0,0,1,.59-.87,1.52,1.52,0,0,1,1-.33,1.47,1.47,0,0,1,1,.33,2,2,0,0,1,.59.87,3.59,3.59,0,0,1,.19,1.22A3.54,3.54,0,0,1,320,179.17Z" style="fill: #d2d2d2"/>
      <path d="M327.81,177.23H325v-2.94h-1.68v7.32H325v-3h2.85v3h1.67v-7.32h-1.67Z" style="fill: #d2d2d2"/>
      <path d="M337.61,174.28h-5.33l-.21,2.56c0,.41-.08.79-.12,1.15a8.64,8.64,0,0,1-.17,1,3.52,3.52,0,0,1-.26.74,1.33,1.33,0,0,1-.4.49h-.59v3.54h1.71V181.6h4.83v2.13h1.68v-3.54h-1.14v-5.89ZM336,180.18h-3a3.51,3.51,0,0,0,.51-1.35,19.2,19.2,0,0,0,.25-2l.11-1.18H336v4.5Z" style="fill: #d2d2d2"/>
    </g>
    <path d="M235.14,172.28,223.8,155.89h-20l8.6-16.17h20l11.33,16.38-8.6,16.18Zm48.68-16.18-11.32-16.38h-20l-8.6,16.18h20l11.33,16.37,8.6-16.18Z" style="fill: #d2d2d2"/>
  </g>
  <g>
    <g>
      <path d="M606.69,135.38a3,3,0,0,1-.32,1.4,3.36,3.36,0,0,1-.75,1l-1,.64a3.87,3.87,0,0,1-1.18.21v1h-1.83v-1a6.13,6.13,0,0,1-1.5-.43,2.34,2.34,0,0,1-1-.75,3.38,3.38,0,0,1-.54-1.07,5.48,5.48,0,0,1-.21-1.4v-4a3,3,0,0,1,.32-1.4,2.57,2.57,0,0,1,.64-.86,3.55,3.55,0,0,1,1.07-.64,2.31,2.31,0,0,1,1.18-.21v-.64h1.93v.64a4.57,4.57,0,0,1,1.18.21,2.53,2.53,0,0,1,1,.64,3.33,3.33,0,0,1,.75,1,3,3,0,0,1,.32,1.4v4.29Zm-5-6a3.21,3.21,0,0,0-1.07.43,1.81,1.81,0,0,0-.32,1.07v4.72a1.36,1.36,0,0,0,.11.64,1.5,1.5,0,0,0,.32.43c.11.11.32.21.43.32a1,1,0,0,0,.54.11Zm3.33,1.5a1.38,1.38,0,0,0-.43-1.07,2,2,0,0,0-1-.43V137c.11,0,.32-.11.43-.11a1.9,1.9,0,0,0,.75-.75,1,1,0,0,0,.11-.54v-4.72Z" style="fill: #d2d2d2"/>
      <path d="M616.25,136.35a3.41,3.41,0,0,1-.75,2.47,3.08,3.08,0,0,1-2.25.86,2.73,2.73,0,0,1-2.25-.75,3.55,3.55,0,0,1-.75-2.25v-6.23a4.65,4.65,0,0,1,.21-1.29,3.4,3.4,0,0,1,.54-1.07,1.56,1.56,0,0,1,1-.64,5.43,5.43,0,0,1,1.4-.21,4.75,4.75,0,0,1,1.39.21,1.09,1.09,0,0,1,.86.54,3.36,3.36,0,0,1,.54,1.07,5.67,5.67,0,0,1,.11,1.4Zm-1.93-6.12a3.13,3.13,0,0,0-.21-1c-.11-.32-.43-.43-.86-.43a.81.81,0,0,0-.54.11c-.21.21-.32.32-.32.54a.81.81,0,0,0-.11.54v6.76a2,2,0,0,0,.21.86,1,1,0,0,0,.86.43.87.87,0,0,0,.86-.43c.22-.21.22-.54.22-1v-6.44Z" style="fill: #d2d2d2"/>
      <polygon points="623.98 139.57 623.98 134.2 621.72 134.2 621.72 139.57 619.9 139.57 619.9 127.22 621.83 127.22 621.83 132.38 624.08 132.38 624.08 127.22 626.01 127.22 626.01 139.57 623.98 139.57" style="fill: #d2d2d2"/>
      <path d="M630.52,139.57v2.36h-1.61v-4l.75-.11a2.56,2.56,0,0,0,.64-1.18,7.66,7.66,0,0,0,.21-1.83l.22-7.51h5.58V138h.75V142h-1.61v-2.36h-4.94Zm1.72-4.83c0,.75-.11,1.29-.11,1.83a3.62,3.62,0,0,1-.43,1.29h2.68v-8.8h-1.93Z" style="fill: #d2d2d2"/>
      <path d="M648.66,127.12a4,4,0,0,1,1.29.21,4.35,4.35,0,0,1,1,.54,2.34,2.34,0,0,1,.54.86,3.89,3.89,0,0,1,.21,1.18l-1.83.43a2.67,2.67,0,0,0-.22-1.07.87.87,0,0,0-.86-.43.8.8,0,0,0-.54.11l-.32.32a.65.65,0,0,0-.11.43v7.19c0,.11.11.32.11.43l.32.32a.8.8,0,0,0,.54.11c.75,0,1.07-.54,1.07-1.5a3,3,0,0,0,1,.11c.32,0,.64.11,1,.11a3.54,3.54,0,0,1-.75,2.25,2.82,2.82,0,0,1-2.15.86,2.73,2.73,0,0,1-2.25-.75,3,3,0,0,1-.75-2.25v-6.12a5.23,5.23,0,0,1,.11-1.29,3.4,3.4,0,0,1,.54-1.07,2.34,2.34,0,0,1,1-.75,2.19,2.19,0,0,1,1.18-.21" style="fill: #d2d2d2"/>
      <path d="M660.69,136.35a3.41,3.41,0,0,1-.75,2.47,3.08,3.08,0,0,1-2.25.86,2.73,2.73,0,0,1-2.25-.75,3.55,3.55,0,0,1-.75-2.25v-6.23a4.65,4.65,0,0,1,.21-1.29,3.38,3.38,0,0,1,.54-1.07,1.57,1.57,0,0,1,1-.64,5.43,5.43,0,0,1,1.4-.21,4.76,4.76,0,0,1,1.39.21,1.93,1.93,0,0,1,1,.64,3.36,3.36,0,0,1,.54,1.07v7.19Zm-1.93-6.12a3.13,3.13,0,0,0-.21-1c-.11-.32-.43-.43-.86-.43a.81.81,0,0,0-.54.11l-.32.32c-.11.11-.11.32-.21.54v6.76a2,2,0,0,0,.21.86,1.12,1.12,0,0,0,.86.43.87.87,0,0,0,.86-.43c.21-.21.21-.54.21-1Z" style="fill: #d2d2d2"/>
      <path d="M665.19,139.57v2.36h-1.61v-4l.75-.11a2.56,2.56,0,0,0,.64-1.18,7.66,7.66,0,0,0,.21-1.83l.22-7.51H671V138h.75V142h-1.61v-2.36h-4.94Zm1.72-4.83c0,.75-.11,1.29-.11,1.83a3.62,3.62,0,0,1-.43,1.29h2.68v-8.8h-1.93Z" style="fill: #d2d2d2"/>
      <polygon points="674.86 139.57 674.86 127.22 680.33 127.22 680.33 129.05 676.79 129.05 676.79 132.38 679.9 132.38 679.9 134.2 676.79 134.2 676.79 137.74 680.33 137.74 680.33 139.57 674.86 139.57" style="fill: #d2d2d2"/>
      <path d="M688,131.84l-2.58,7.73h-1.82V127.23h1.82v7.84l2.58-7.84h1.83v12.34h-1.93Zm-2.36-7.41a.81.81,0,0,0,.11.43c.11.11.11.21.21.43l.32.32a.64.64,0,0,0,.43.11c.21,0,.32,0,.43-.11l.32-.32a.56.56,0,0,0,.22-.43c0-.11.11-.21.11-.43h1.4a3.36,3.36,0,0,1-.21.86c.11.21-.11.54-.32.75a4.67,4.67,0,0,1-.75.64,3.18,3.18,0,0,1-1.07.21,3.86,3.86,0,0,1-1.18-.21,1.44,1.44,0,0,1-.75-.64,2.72,2.72,0,0,1-.43-.75,3.32,3.32,0,0,1-.21-.86Z" style="fill: #d2d2d2"/>
      <path d="M696.43,127.12a4,4,0,0,1,1.29.21,4.36,4.36,0,0,1,1,.54,2.35,2.35,0,0,1,.54.86,3.89,3.89,0,0,1,.21,1.18l-1.82.43a2.67,2.67,0,0,0-.22-1.07.87.87,0,0,0-.86-.43.8.8,0,0,0-.54.11l-.32.32a.65.65,0,0,0-.11.43v7.19c0,.11.11.32.11.43l.32.32a.8.8,0,0,0,.54.11c.75,0,1.07-.54,1.07-1.5a3,3,0,0,0,1,.11c.32,0,.65.11,1,.11a3.54,3.54,0,0,1-.75,2.25,2.82,2.82,0,0,1-2.15.86,2.73,2.73,0,0,1-2.25-.75,3,3,0,0,1-.75-2.25v-6.12a5.23,5.23,0,0,1,.11-1.29,3.38,3.38,0,0,1,.54-1.07,2.34,2.34,0,0,1,1-.75,2.51,2.51,0,0,1,1.18-.21" style="fill: #d2d2d2"/>
      <polygon points="705.66 129.05 705.66 139.57 703.73 139.57 703.73 129.05 701.69 129.05 701.69 127.22 707.6 127.22 707.6 129.05 705.66 129.05" style="fill: #d2d2d2"/>
      <path d="M715.11,133.13a1.63,1.63,0,0,1,1.07,1,4.43,4.43,0,0,1,.32,1.72,3.94,3.94,0,0,1-.86,2.79,3.13,3.13,0,0,1-2.58.86h-2.58V127.23h2.68a3,3,0,0,1,2.36.86,4.12,4.12,0,0,1,.43,4c0,.43-.43.75-.86,1.07m-.54-2.47a1.73,1.73,0,0,0-.32-1.18,1.6,1.6,0,0,0-1.07-.32h-.65v3.22h.65a1.13,1.13,0,0,0,1.07-.43,2.85,2.85,0,0,0,.32-1.29m.11,4.94a2.29,2.29,0,0,0-.32-1.29,1.13,1.13,0,0,0-1.07-.43h-.75v3.86h.75a1.55,1.55,0,0,0,.75-.21.84.84,0,0,0,.43-.43,1.53,1.53,0,0,0,.21-.64Z" style="fill: #d2d2d2"/>
      <polygon points="724.55 131.84 721.98 139.57 720.15 139.57 720.15 127.22 721.98 127.22 721.98 135.06 722.09 135.06 724.66 127.22 726.49 127.22 726.49 139.57 724.55 139.57 724.55 131.84" style="fill: #d2d2d2"/>
      <path d="M729.71,139.57l.64-3.86a3.21,3.21,0,0,1,.43-1.07,1.69,1.69,0,0,1,.75-.75,2.33,2.33,0,0,1-1.18-1.07,4.06,4.06,0,0,1-.32-1.72,4.33,4.33,0,0,1,.86-2.79,3.08,3.08,0,0,1,2.47-1h2.79v12.34h-1.93v-5.37h-.54a1.31,1.31,0,0,0-1,.43c-.32.21-.43.75-.64,1.4l-.54,3.44ZM733.46,129a1.39,1.39,0,0,0-1.18.54A2.44,2.44,0,0,0,732,131a1.57,1.57,0,0,0,.43,1.29,1.82,1.82,0,0,0,1.07.32h.75V129Z" style="fill: #d2d2d2"/>
      <polygon points="604.22 149.77 601 159.32 598.75 159.32 598.75 144.08 601.11 144.08 601.11 153.74 601.22 153.74 604.44 144.08 606.8 144.08 606.8 159.32 604.33 159.32 604.22 149.77" style="fill: #d2d2d2"/>
      <polygon points="618.28 159.32 618.28 152.67 615.6 152.67 615.6 159.32 613.24 159.32 613.24 144.08 615.6 144.08 615.6 150.41 618.39 150.41 618.39 144.08 620.75 144.08 620.75 159.32 618.28 159.32" style="fill: #d2d2d2"/>
      <polygon points="632.46 159.32 632.46 152.67 629.66 152.67 629.66 159.32 627.3 159.32 627.3 144.08 629.66 144.08 629.66 150.41 632.46 150.41 632.46 144.08 634.82 144.08 634.82 159.32 632.46 159.32" style="fill: #d2d2d2"/>
      <path d="M648.77,155.46a4.77,4.77,0,0,1-.86,3,3.77,3.77,0,0,1-2.9,1,3.51,3.51,0,0,1-2.79-1,4.33,4.33,0,0,1-.86-2.79V148a6.45,6.45,0,0,1,.21-1.61,2.45,2.45,0,0,1,.64-1.29,3.35,3.35,0,0,1,1.18-.86,4.09,4.09,0,0,1,1.72-.32,4.63,4.63,0,0,1,1.83.32,4.42,4.42,0,0,1,1.18.75,2.45,2.45,0,0,1,.64,1.29A8.28,8.28,0,0,1,649,148v7.41Zm-2.36-7.62a2.45,2.45,0,0,0-.32-1.18,1.18,1.18,0,0,0-1.07-.54.9.9,0,0,0-.64.21c-.22.11-.32.32-.43.43a1.54,1.54,0,0,0-.21.64c0,.21-.11.43-.11.64v7.73a1.81,1.81,0,0,0,.32,1.07,1.13,1.13,0,0,0,1.07.43,1.18,1.18,0,0,0,1.07-.54,2.16,2.16,0,0,0,.32-1.18Z" style="fill: #d2d2d2"/>
      <path d="M660.9,151.38a2.1,2.1,0,0,1,1.4,1.29,6.38,6.38,0,0,1,.43,2.15,4.83,4.83,0,0,1-1.07,3.54,3.92,3.92,0,0,1-3.11,1.07h-3.22V144.08h3.33a3.31,3.31,0,0,1,2.9,1.07,4.51,4.51,0,0,1,1,3.11,4.63,4.63,0,0,1-.32,1.83,2,2,0,0,1-1.29,1.18Zm-.65-3.11a1.94,1.94,0,0,0-.43-1.5,1.82,1.82,0,0,0-1.4-.43h-.75v3.86h.75a1.85,1.85,0,0,0,1.4-.54c.32-.21.43-.75.43-1.4m.11,6.23a2.23,2.23,0,0,0-.43-1.61,1.7,1.7,0,0,0-1.4-.54h-.86v4.72h1a2.56,2.56,0,0,0,1-.21,1.29,1.29,0,0,0,.54-.54,2,2,0,0,0,.21-.86Z" style="fill: #d2d2d2"/>
      <path d="M674.75,159.32l-.64-3.22h-2.79l-.32,1.61-.32,1.61H668.2c.54-2.58,1.07-5.15,1.5-7.62s1.07-5,1.5-7.62h2.68L677,159.32Zm-2.15-11.7c-.11,1.07-.32,2.15-.43,3.11s-.32,2.15-.54,3.22h2.15l-1-6.33Z" style="fill: #d2d2d2"/>
      <polygon points="690.31 144.08 690.31 157.17 691.28 157.17 691.28 162.33 689.24 162.33 689.24 159.43 682.8 159.43 682.8 144.08 685.16 144.08 685.16 157.17 687.84 157.17 687.84 144.08 690.31 144.08" style="fill: #d2d2d2"/>
      <polygon points="702.44 149.77 699.22 159.32 696.97 159.32 696.97 144.08 699.33 144.08 699.33 153.74 702.55 144.08 704.91 144.08 704.91 159.32 702.55 159.32 702.44 149.77" style="fill: #d2d2d2"/>
      <path d="M710.81,159.32l.86-4.83a3.18,3.18,0,0,1,.54-1.4,2.11,2.11,0,0,1,1-1,3,3,0,0,1-1.5-1.29,6.34,6.34,0,0,1-.43-2.15,4.72,4.72,0,0,1,1.07-3.44,4,4,0,0,1,3-1.18h3.54v15.24H716.5v-6.55h-.64a1.79,1.79,0,0,0-1.18.43,2.86,2.86,0,0,0-.75,1.72l-.75,4.29h-2.36Zm4.72-13a1.67,1.67,0,0,0-1.5.64,2.72,2.72,0,0,0-.43,1.72,1.79,1.79,0,0,0,.54,1.5,2,2,0,0,0,1.4.43h1v-4.29Z" style="fill: #d2d2d2"/>
      <polygon points="729.92 155.99 728.85 153.2 727.88 150.52 727.78 150.52 727.78 159.32 725.41 159.32 725.41 144.08 727.78 144.08 729.49 148.37 730.67 151.7 730.78 151.7 732.07 148.26 733.68 143.97 735.93 143.97 735.93 159.21 733.57 159.21 733.57 150.41 733.47 150.41 732.5 153.09 731.42 155.89 729.92 155.89 729.92 155.99" style="fill: #d2d2d2"/>
    </g>
    <g>
      <path d="M732.64,168.56a68.71,68.71,0,0,1-16.88,12.39c-13.84,7.35-29.73,10.48-44,10.72h-1.62c-1.63,0-3.35,0-5.08-.12-22-1-48.22-8.32-66.6-27.67h13.41l.23.27c11.79,13.16,34.41,21.84,59,22.66,1.3,0,2.6.06,3.9.06C697.59,186.86,718.06,180.32,732.64,168.56Z" style="fill: #d2d2d2"/>
      <path d="M734.2,166.18c-15.31,13.45-38.06,20.62-63,19.8-24.24-.82-46.5-9.27-58.2-22.12h13l.31.31c10.93,10.39,28.84,16.78,49.13,17.52,1.32,0,2.64.07,3.95.07C699.17,181.75,718.44,176.28,734.2,166.18Z" style="fill: #d2d2d2"/>
      <path d="M735.07,164.63c-16.88,11.25-38.06,17-59.62,16.23-19.9-.72-37.47-6.91-48.27-17h13.88c7.9,7.57,22.6,12.65,41.3,12.65h.76c13.63-.11,29.19-2.92,45.73-9.3C730.87,166.37,733,165.53,735.07,164.63Z" style="fill: #d2d2d2"/>
    </g>
  </g>
  <g>
    <g>
      <path d="M92,31.5a3,3,0,0,0,.64.09.77.77,0,0,1,.88.71c.14.67,0,1.08-.49,1.29l-.29.11a2,2,0,0,0,.24.69,2.77,2.77,0,0,1,.49,2.29c-.05.77,0,1.54-.06,2.32a1.3,1.3,0,0,0,.12.34l.64-.43a2.75,2.75,0,0,1,2.49-.55,10.81,10.81,0,0,0,2.82.05c.27,0,.29-.19.16-.39l-.51-.76a6.93,6.93,0,0,1,1,.14c.47.14.72,0,.72-.7a17.81,17.81,0,0,1,1.39,1.17.7.7,0,0,0,.83.24,2,2,0,0,1,2.52,1.36l-.39.07a16.5,16.5,0,0,0,2.08,3.77,2.9,2.9,0,0,0,1,.85.73.73,0,0,1,.42.67,7.8,7.8,0,0,1,0,1,1,1,0,0,1-.35.6c-.1.07-.38-.07-.56-.15a3.24,3.24,0,0,1-.47-.33l.17.69a2.91,2.91,0,0,1-.8-.15,7,7,0,0,1-1-.65,3.87,3.87,0,0,0-2.31-.59c-.41,0-.44.28-.37.55a10.88,10.88,0,0,0,.48,1.48c.45,1.07.92,2.14,1.42,3.18a7.38,7.38,0,0,0,.82,1.2c.6.79,1.27,1.54,1.81,2.36a4.66,4.66,0,0,1,.52,1.51c.14.61.28.75.79.42A21.4,21.4,0,0,0,111,54.41c.53-.42,1-.43,1.26.2a12,12,0,0,0,2.84,3.9,1.6,1.6,0,0,1,.46,1.13c0,.66.24,1.31.31,2a14.85,14.85,0,0,1,.05,1.8c0,.32-.23.36-.46.19a15.46,15.46,0,0,1-1.27-1c-.4-.36-.15-.75.12-1a1.22,1.22,0,0,0,.21-1.68,3,3,0,0,0-.36-.39c-.13-.14-.38-.32-.35-.44.14-.75-.49-1-.84-1.48a5.52,5.52,0,0,0-1.07-.93c-.13-.09-.44-.14-.53-.06-1,.93-2,1.89-3,2.85l.11.22a8.65,8.65,0,0,0,1.26-.12,1,1,0,0,1,1.27.57,11.91,11.91,0,0,0,2.53,3.8,1.47,1.47,0,0,1,.29.94,6.18,6.18,0,0,0,.59,2.48,8.2,8.2,0,0,1,.42,1.76c.06.31-.09.48-.4.33a16.42,16.42,0,0,1-1.59-.83.54.54,0,0,1-.15-.83,2.94,2.94,0,0,0,.27-.6,1.54,1.54,0,0,0-.39-1.8c-.37-.34-.69-.66-.44-1.26.07-.16-.15-.52-.33-.71-.47-.5-1-.94-1.49-1.44a.76.76,0,0,0-1-.21c-1,.43-2.07.81-3.09,1.26a11.72,11.72,0,0,1-5.11,1.32l1.57,2,.06-.11.34.15-.47.28-.25-.32L94.14,55.44Q88,47.3,81.91,39.17a5.23,5.23,0,0,0-.88-.9.52.52,0,0,0-.51.05c-.08.09-.05.36,0,.51a2.9,2.9,0,0,0,.45.53c-.31.28-.29.8,0,1.51l.18-.56.1,0,.06,1h.07l.08-.29h.07l.11.69.29-.47.13.78.27-.54.22,1.15h.1l.15-1L103,68l.14-.07L103,66.35c.14.21.3.24.55.14.74-.28.93-.16,1.19.57a11.52,11.52,0,0,0,.51,1.21,1.32,1.32,0,0,0,1,.69,1.82,1.82,0,0,1,1,1,9.52,9.52,0,0,0,1.34,2.42c.5.64.46.72-.35.94.1.46,0,.8-.57.85-.07,0-.18.24-.17.36a2.71,2.71,0,0,1-1,2.23c-.81.78-1.56,1.62-2.35,2.42a2.71,2.71,0,0,1-.54.37c-.27.16-.28.35-.08.58a.87.87,0,0,0,1.18.21,2.29,2.29,0,0,1,2.25-.09,2.33,2.33,0,0,1,1,.84c.08.1-.08.41-.14.64-.23-.24-.37-.48-.58-.59a2.26,2.26,0,0,0-.74-.1c.26,1,.24,1.2-.16,1.56a.89.89,0,0,0-1.18-.64c-.64.17-.09.66-.22,1,0,0-.08,0-.09,0a2.13,2.13,0,0,0-2.53-.5,2.08,2.08,0,0,1-2.11-.09c-.37-.29-2.3.29-2.57.7l-.1.12c-.45-.56-.11-1.35.7-1.66.25-.1.52-.14.77-.23.1,0,.24-.15.23-.22a.48.48,0,0,0-.2-.31c-.44-.28-.45-.27-.36-.74a1.85,1.85,0,0,0-1.93.24c-.55.44-.55.44-.89-.21,0,0,0,0,0,0L94.67,80a7.43,7.43,0,0,0-.8-.1,3,3,0,0,1-2-.54.72.72,0,0,0-1.12.09c-.23.36-.15.75.31,1.09s.88.7,1.49.28c.12-.09.39,0,.59.06a4.31,4.31,0,0,1,.39.21c.46.18.51.27.43.75-.21-.09-.43-.28-.65-.27a2.22,2.22,0,0,0-.88.32c1.18.48,1.35.72.89,1.47,0-.54-.28-.41-.63-.38a7.22,7.22,0,0,1-1.79-.16,2.14,2.14,0,0,0-1.52,0l.29,1a9.05,9.05,0,0,1-.95-.15,2,2,0,0,1-.65-.3c-.23-.16-.4-.31-.72-.17-.14.06-.43-.11-.57-.25a1.43,1.43,0,0,0-.67-.33,1.77,1.77,0,0,0-1.77.28.59.59,0,0,1-.54,0c-.52-.36-.83,0-1.17.28,0,0-.1.07-.24,0a4.68,4.68,0,0,1,.47-.85,5.29,5.29,0,0,1,1-.88,1.27,1.27,0,0,1,.66-.13c.42,0,.85.07,1.26,0s.67-.44.33-.85a3.52,3.52,0,0,0-.57-.57A.61.61,0,0,1,85.4,79a5.8,5.8,0,0,1,.72-.84c.43-.42.43-.63.07-1.11a1.25,1.25,0,0,1-.17-.7c0-.31-.09-.5-.41-.51s-.86,0-1.23,0c.11.71.26,1.34.31,2a1.7,1.7,0,0,1-.89,1.64,3.61,3.61,0,0,1-3.26.58,2.41,2.41,0,0,1-1.72-2.41c0-.47.06-.94.09-1.41,0-.23,0-.42-.3-.46-1-.13-2-.3-3-.47a1.8,1.8,0,0,0,.12,1.62c.55.89,1.06,1.79,1.57,2.7a4.08,4.08,0,0,1,.23.71,5,5,0,0,1-2.42-.27.61.61,0,0,1-.26-.44,2.51,2.51,0,0,1,.06-.9,2.22,2.22,0,0,0-.65-2.43c-.7-.66-.69-.7-.09-1.43.29-.35.28-.57-.06-.87a3.79,3.79,0,0,1-.84-4.74c.33-.75.79-1.45,1.17-2.18a2.78,2.78,0,0,0-.13-2.93,3.18,3.18,0,0,0-.32-.37c-.81.78-1.87,1.2-2.38,2.27a8.41,8.41,0,0,0-.87,3.15,3.78,3.78,0,0,1-.26-.42,8.23,8.23,0,0,1-.73-3.94,2.32,2.32,0,0,1,.69-1.37,6.8,6.8,0,0,0,.85-1.34c.17-.34,0-.57-.35-.76a10.59,10.59,0,0,1-1.71-1.14,1.76,1.76,0,0,1-.32-2.15,1.59,1.59,0,0,1,1.66-1.14c.57,0,.57,0,.47-.84.61.28.82,1.27.53,2.31l-.95-.8.12-.2c-.78-.16-1.25.17-1.32.91A1.59,1.59,0,0,0,70.25,60c.38.2.77.38,1.21.6a8.51,8.51,0,0,1,1.36-3.72,9.85,9.85,0,0,1,2.07-2.25,3.88,3.88,0,0,1,4-.14c.76.34,1.45.86,2.18,1.26a.94.94,0,0,0,.59.09c.94-.18,1.87-.39,2.8-.6.15,0,.4-.18.39-.23a.68.68,0,0,0-.26-.47.53.53,0,0,1-.4-.56c0-.1-.21-.23-.34-.3a4.36,4.36,0,0,1-.85-.38c-2.31-2-4.88-2-7.6-1.09l-.6.21-.15-.11c.14-.3.26-.61.42-.89.28-.49.87-.82.8-1.51,0-.1.18-.23.28-.34.32-.32.67-.62,1-1a.84.84,0,0,0,.14-1c-.55-1.14-.24-1.8,1-2.17a15,15,0,0,0,1.57-.54,1.37,1.37,0,0,0,.66-.52,1.05,1.05,0,0,0,0-.79c-.05-.13-.38-.21-.59-.21-.43,0-.87,0-1.38.08a1.17,1.17,0,0,1,.12-.39c.49-.57,1-1.12,1.48-1.69.12-.14.29-.33.28-.48,0-.55-.16-1.09-.26-1.64a.31.31,0,0,0-.07-.14c-.51-.63-1-1.27-1.54-1.88a1,1,0,0,1-.31-1,1.54,1.54,0,0,0-.28-1c-.57-.84-1.21-1.63-1.81-2.44a1.63,1.63,0,0,1-.26-.43,1.06,1.06,0,0,1,0-.38l.36.16c-.47,0-.19.24-.1.36.6.81,1.22,1.62,1.84,2.42.13.17.28.31.41.46.5-.27.11-.5.06-.74.17.11.33.3.5.31,1,0,1.25.77,1.58,1.48a.82.82,0,0,0,.39.41,1.21,1.21,0,0,1,.87,1.22c0,.61.46,1,.84,1.32.09.09.42,0,.58-.09.47-.3.89-.67,1.35-1a1.19,1.19,0,0,1,1.79.17c-.25,0-.49-.09-.74-.11a1.2,1.2,0,0,0-1.21.62c.88.06,1.77-.21,2.43.49.07,0,.18-.15.22-.13.32.14.64.31,1,.48a7.24,7.24,0,0,0,1,.49,2.55,2.55,0,0,0,.76,0l-3.38-1.88c.2,0,.4,0,.59,0a2.41,2.41,0,0,1,.74,0c1,.35,1.41.1,1.51-1a6.18,6.18,0,0,1,.15-1.3,11.83,11.83,0,0,1,.7-1.48l.3-.64a5.65,5.65,0,0,1-3.91-.35v-.15l1-.1C87,33,86.37,32.76,86,32c.27.09.42.13.56.19A2.8,2.8,0,0,0,89.4,32l.94-.59a1.24,1.24,0,0,1,1.65.15,1.61,1.61,0,0,0-1.83.19,8.09,8.09,0,0,1-.74.43,3.13,3.13,0,0,1-2,.48,10.4,10.4,0,0,1-1-.26,2,2,0,0,0,1.73.76l0,.16-1.29.52a1.45,1.45,0,0,0,.28.15,1.82,1.82,0,0,0,2-.69,2.07,2.07,0,0,1,1.52-.87c.65-.08,1.2,0,1.45.76l.33-.25.67.21c.07-.27.24-.57.18-.82a.63.63,0,0,0-.77-.53l.07.5ZM88.68,58h0l.17-1.12H88.7a12.23,12.23,0,0,0-.3,4.61,13.73,13.73,0,0,1,0-4.67,12.43,12.43,0,0,0-.58,4.75,14.74,14.74,0,0,1,.24-4.79c-.77,1.55-.57,3.2-.6,4.83a12.58,12.58,0,0,1,.21-4.85,1.87,1.87,0,0,0-.28.56,13,13,0,0,0-.32,3.91c0,.93,0,.93,1,.82h.2l2.46-.22c.22,0,.55-.14.28-.37s-.23-.49-.23-.76c0-1.17,0-2.34,0-3.51H90.7l-.22,3.66V57c-.53,1.39-.18,2.84-.42,4.26V57h-.2v4.24h-.14V56.92a27.13,27.13,0,0,0-.32,4.3V56.93c-.61,1.4-.19,2.88-.34,4.31V56.88l-.2.59ZM97,47.56l-.12.06.78,1.78-.57-.53-.09.07.62,1.25-.07,0L97,49.5l-.09.06.53,1.21-.05,0-.49-.58-.08,0,.51,1.24-.06,0-.66-.81-.07,0,.68,1.41-.13.12-.68-.77,0,0,.71,1.21,0,0-.65-.53-.05,0,.38.76-.07,0L96,52.54l-.09.07.73,1.15-.42-.22-.4-.23c.27.75.27.77.93.86.83.11,1.67.2,2.51.28a32.83,32.83,0,0,0,5.49.52l-.47-.83.82.22L104.22,53l.82.22-.77-1.14.55,0-.6-.85.69.21c-.14-.39-.24-.71-.36-1q-1.07-2.75-2.15-5.49a.66.66,0,0,0-.21-.28,1.55,1.55,0,0,1-.56-2,3.46,3.46,0,0,0,.1-.39l.44,1.1.26-.46.24.93h.1l.09-.29c.25.24.46.61.76.72a23.85,23.85,0,0,0,2.42.67,1,1,0,0,0,.57,0c.46-.19.67-.12.86.34a1.4,1.4,0,0,0,.35.53,1.78,1.78,0,0,0,.56.21l.15-.64-.21-.11-.19.37-.15-.07c.06-.18.06-.42.18-.54.37-.36.19-.61-.15-.72a2.52,2.52,0,0,1-1.66-1.76,2.46,2.46,0,0,0-.25-.44c-.21-.37-.44-.6-.77-.12l-.78-.67.69-.61a1.52,1.52,0,0,0-.26-.16,2.32,2.32,0,0,1-1.76-1.22c0-.07-.16-.12-.25-.14a8.39,8.39,0,0,0-1.52-.25,2.42,2.42,0,0,0-1.23.31c-.23.14-.29.57-.42.85l-.24-.29.14,1.1-.35-.57-.08,0,.1.7-.06,0L99,40.53l-.1,0,.24,1.16-.49-.79L98.9,42l-.08,0-.37-.57-.07,0,.23,1.15-.4-.45-.06,0,.24.87-.08,0-.45-.54-.09.05.39,1-.07,0-.43-.49L98,44.2l-.05,0-.38-.56-.06,0,.42,1.1-.07,0-.49-.7-.06,0,.52,1.39-.07,0-.5-.55-.1.07.66,1.35-.07,0-.57-.76-.08,0,.62,1.41-.07,0L97,46.46l-.1,0,.86,1.88-.09,0ZM74,75.73l0,.07a8.42,8.42,0,0,1,.67.89,2.58,2.58,0,0,1,.39,1c.07.75.24.92,1.14.79l-.5-.92c-.23-.44-.68-.9-.65-1.32a8,8,0,0,1,.67-2.35A19.64,19.64,0,0,1,76.89,72c.08-.15.18-.42.11-.49-.24-.26-.08-.46,0-.69s.23-.7.31-.94l.55-.25L78,70l.28-.55.21.25.3-.48.12.48.33-.62.18.48.38-.65.11.25.33-.42.08.36.54-.85.06.6.43-.68.06.58.43-.89.21.24.46-.7.11.2a4.56,4.56,0,0,1,.58-.47c.17-.1.42-.09.58-.2.62-.41,1.23-.83,1.81-1.29.39-.3.72-.67,1.1-1l.6-.12.28.5.14-.63.18.77.09,0,.23-.72.28.61.17-.65.27.45.35-.74.14.57.3-.6.21.39.26-1.12c-1.19.15-2.31.27-3.42.45a1.37,1.37,0,0,0-.75.41,9.87,9.87,0,0,1-5.07,3.06,4.64,4.64,0,0,1-.56.08l-.09-.17.82-.66.1.37.52-1,0,.74.61-1.05.08,0v.57h.08l.32-1,.07,0,0,.65.1,0,.29-1h.06l.07.68.43-1.38H84v.74h.08l.27-1.26h.09l0,.79.14,0,.32-1.39.09,1h.15l.15-1.27h.06l.19.82h.2c.1-1.85.21-3.7.29-5.54,0-.09-.25-.28-.36-.26-.67.08-1.34.2-2,.3l0-.08L86,57.49a5.42,5.42,0,0,0-4.87,2,3.64,3.64,0,0,1,1.36-1.63,5,5,0,0,1,3-.71,4,4,0,0,0,.7-.11l0-.19a6.54,6.54,0,0,0-3.6.56,5.77,5.77,0,0,0-2.28,2.89,3.9,3.9,0,0,1,2.61-3.37,14.63,14.63,0,0,1,2.78-.37l.7-.06q-.13-.24-.26-.24a14,14,0,0,0-2.56.05c-2.79.54-4.07,2.76-4.33,5.57-.15,1.58-.16,3.17-.22,4.75A2.05,2.05,0,0,1,78,68.27a11.53,11.53,0,0,1-1.14.75,1.29,1.29,0,0,0-.62,1.07,8,8,0,0,1-.47,2.1C75.3,73.38,74.66,74.51,74,75.73Zm29.2-6.13a6.65,6.65,0,0,0-.52-1.55c-.7-1.07-1.5-2.07-2.25-3.11a.42.42,0,0,0-.65-.11,19.31,19.31,0,0,1-8.66,2.45,1.83,1.83,0,0,0-1.72.82A9,9,0,0,1,87.54,70c-1.21,1-1.49,1.11-.19,2.65,0,0,0,0,0,0a1.43,1.43,0,0,0,.47.11c.63-.07,1.25-.21,1.87-.24s.64-.17.4-.61a3,3,0,0,0-1.48-1.53c-.16-.06-.32-.15-.48-.23l0-.16a8.75,8.75,0,0,1,1.19.19,13.69,13.69,0,0,0,4.08.59.61.61,0,0,0,.48-.24c.06-.13-.06-.36-.13-.53s-.13-.14-.2-.22a1.74,1.74,0,0,0-.36-2.19,2.39,2.39,0,0,1,.32.05,9.29,9.29,0,0,1,3.31,1.79.58.58,0,0,0,.83.09,3.51,3.51,0,0,1,2.72-.43,1.43,1.43,0,0,1,1.07,2.07,8,8,0,0,0-.29,1.51c0,.23.06.53-.06.69a3.24,3.24,0,0,0-.24,1.92,1.32,1.32,0,0,0,1,1.08,3.92,3.92,0,0,0,3.1-1.81.74.74,0,0,0,0-.5c-.09-.24-.24-.46-.34-.7a10.31,10.31,0,0,0-.54-1.35c-.42-.71-.92-1.37-1.38-2.06a.67.67,0,0,1-.11-.17c0-.09-.07-.23,0-.27a.47.47,0,0,1,.31-.08A1.05,1.05,0,0,1,103.24,69.6Zm2.31-8,0-.07,1.11.29-.37-.53,1,.26,0-.38,1,.25-.15-.29a5.52,5.52,0,0,0,1-.27c.51-.24.6-.27,1,.06l.72.65a1,1,0,0,0-.08-1.26,1.16,1.16,0,0,0-1.12-.53c-1.61.17-3.22.28-4.83.38a.93.93,0,0,1-.68-.24c-.39-.46-.71-1-1.05-1.48l.11-.09.48.1-.23-.6.48.1-.11-.6.53.06-.35-.73.47-.06c0-.47-.38-.51-.67-.57-1.15-.23-2.31-.44-3.47-.63-.78-.13-1.57-.2-2.36-.3a.79.79,0,0,0-.24.06l.12.48L97,55.16l.37.64-.89-.59-.05.08.32.5-.07,0-.75-.62-.06.06.64.94-.4.05.22.59-.49-.09.21.46-.35,0,3.57,4.45.07-.56,1.17,1.08-.31-.79.1-.07,1.13,1-.34-1,1.24,1.11.08-.1-.51-.76.08-.07,1.2.81.07-.09-.51-.68,1.35.84.07-.1-.49-.65.06-.07,1.3.76.06-.08-.55-.72,1.47.63,0-.09ZM75.4,72h.18c.16-.77.35-1.53.47-2.31a1,1,0,0,1,.48-.7c.55-.39,1.06-.83,1.57-1.28a1.55,1.55,0,0,0,.52-1.27c0-.84-.06-1.69-.05-2.53,0-1.06,0-2.13.08-3.18a7.83,7.83,0,0,1,1.07-3.13c.3-.54.23-.69-.39-.72a3.19,3.19,0,0,0-2.69,1,8,8,0,0,0-1.91,3.9.82.82,0,0,0,.28.84A3.64,3.64,0,0,1,76.21,65a7.93,7.93,0,0,1-.58,3.61,14.12,14.12,0,0,0-.62,2A1.38,1.38,0,0,0,75.4,72Zm1.46-16.32A7.87,7.87,0,0,0,74,60.5c-.22,1,.09,2.17-.62,3.12a2.29,2.29,0,0,0,.91-1.54,9.26,9.26,0,0,1,1.81-4.55,9.41,9.41,0,0,1,1.55-1.34,2.07,2.07,0,0,1,.61-.18l-1.37.94.07.13.46-.25a3.2,3.2,0,0,1,2.19-.41,1.64,1.64,0,0,0,.5.06,2.28,2.28,0,0,0,.5-.21c-.07-.15-.1-.36-.22-.43a21,21,0,0,0-2-1.23,2.92,2.92,0,0,0-1.16-.27,4.29,4.29,0,0,0-3.37,1.57,5.51,5.51,0,0,0-1.4,2.44l.76-1,.12.07a6.7,6.7,0,0,0-1.07,3.21,5.64,5.64,0,0,1-1.62,3.85,2,2,0,0,0-.28,2,6,6,0,0,1,1-1.31,5.17,5.17,0,0,0,2-4.09A6.93,6.93,0,0,1,76.17,56,3.75,3.75,0,0,1,76.85,55.69Zm8.55,16.82A3,3,0,0,0,85,72a9,9,0,0,0-.91-.72c-.44-.3-.45-.48-.11-.89s.78-1,1.14-1.47a1.15,1.15,0,0,0,.18-.57c0-.27-.16-.37-.4-.27-.75.32-1.49.69-2.26,1-1.3.5-2.62.94-3.92,1.42-.23.08-.53.15-.66.32-.45.6-.84,1.24-1.26,1.88a2.78,2.78,0,0,0,1.6.45.61.61,0,0,1,.37.13,1.12,1.12,0,0,0,1,.25c.21,0,.43.05.65.06a1.76,1.76,0,0,0,.63,0c1-.37,2.06-.5,3-.95A3.69,3.69,0,0,1,85.41,72.51ZM82.6,50.6l.76-.57.09.08-.15.59,1-.82-.09.66.09.07.84-1,.12.57.92-1.46-.09-.14a8.32,8.32,0,0,1-5.15.4A5.17,5.17,0,0,1,82,48.34c.59-.27,1.32-.24,1.78-.83,0-.06.24,0,.38,0l.24-.52.16.35L85,46.8c.39.45.48,0,.66-.16l-.29-.49-.63.08,0-.31H83.42l.19-.39-1.31.15,0-.13-1.35.14v-.12l-.58.3.19-.4c-.47-.14-.82.42-1.35.08-.19-.12-.68.19-1,.35a2.38,2.38,0,0,0-.72.52c-.24.27-.06,1,.25,1.11l.19-.36.19.24.15-.27.23.26.15-.26.31.43,0-.5.24.32.18-.22.21.41.17-.47.22.35.24-.4.05.68.33-.67.09.53.25-.4.11.57.39-.59.18.15L81.8,47l.15.39.86-.26a2.59,2.59,0,0,1-.77.65,9.21,9.21,0,0,1-3,.73,13.39,13.39,0,0,0-2.2.66c-.27.11-.45.44-.7.7l.53.16.9-.44.11.32,1.54-.09v.25l.93-.17V50l.83.09-.05.13h1.11L82,50.6l.52-.29ZM98.47,76.9l.12.11-1,1.73.15.09a5.39,5.39,0,0,0,1.68-2.14,1.6,1.6,0,0,0-.23-2,1.38,1.38,0,0,1-.38-1.48,1.47,1.47,0,0,0,0-.7c-.08-.44-.19-.88-.29-1.33a.86.86,0,0,0-1-.76,8.25,8.25,0,0,0-1,.15,16,16,0,0,1-5.38.26,3.94,3.94,0,0,0-.56,0l0,.15c.41.17.88.56,1.21.47.53-.16,1,.24,1.49,0,.26-.1.64.16,1,.18s.72-.14,1,.18l0,0-.07-.32.68.39-.1-.62.53.4,0-.52.43.53.09-.33h.15l.1,1.81.35-1a2,2,0,0,1-1,2.15,4,4,0,0,1-.81.29,5.14,5.14,0,0,0-1.31.85c1.22,0,2.11-.79,3.16-1.08l.12.14-.63.76-.07-.14-1.81,1A3.11,3.11,0,0,0,96.34,76c.63-.28,1.22-.66,1.87-1l.28,1-.06,0-.19-.26-.32.93-.2-.31-.13,1.06L97.36,77l0,.16-.63.32-.07-.13-.4.91A4.24,4.24,0,0,0,98.47,76.9ZM91.25,44.72a2,2,0,0,0,.14.26c.07.1.19.27.24.26S92,45.08,92,45a7.69,7.69,0,0,0,0-1.8c-.05-.28-.46-.48-.76-.77l-.42.79-.45-.75-.39.71a.51.51,0,0,1-.18-.28c-.05-.14-.12-.28-.17-.42-.12.09-.23.19-.36.27a1.55,1.55,0,0,1-.25.11c0-.12-.13-.26-.1-.36S89,42,88.72,42a.61.61,0,0,0-.48.31,10.16,10.16,0,0,0-.58,1.66c-.15.64.15.88.77.67l.13.67c.71.17.29-.73.73-.76l.49.91.43-.59C90.65,45.3,90.65,45.3,91.25,44.72Zm-5,18.64.94-.11,3.34-.5c.38-.06.6-.26.53-.77l-4.1.34a1,1,0,0,1-.07-.19c0-.13,0-.27,0-.4a14.18,14.18,0,0,1,.52-4.9c0-.12-.05-.27-.08-.41-.14.06-.32.1-.4.2a1.36,1.36,0,0,0-.22.51A16.18,16.18,0,0,0,86.24,63.36Zm5.82-1.46,0-.08L93,61l-.53.07.76-.93-.07-.06-.35.19,0-.06.7-1-.07-.05-.63.6-.07-.07.73-1-.64.4L92.67,59l1.27-1.39-.09-.08-.67.5L93.13,58l.78-.9a1,1,0,0,0-.47.17c-1.46.88-1.42.89-1.57,2.55-.11,1.16-.1,2.38-1.12,3.26.32.34.78.62.88,1,.24.95.78,1,1.51.69h.1c.33,0,.37-.25.18-.44a9,9,0,0,0-.9-.71L91.79,63l.49-.54L92,62.38l.38-.55ZM86.14,50.75l-.08-.16c-.24.09-.49.16-.72.26a4.85,4.85,0,0,1-3.54.26,15.51,15.51,0,0,0-5-.56,1.74,1.74,0,0,0-1.42.82,1,1,0,0,0-.08.36l.13.06.31-.4.12.17.93-.3.1.2a5.12,5.12,0,0,1,1-.41c.27,0,.64.21.83.1.43-.25.82,0,1.21,0a5.58,5.58,0,0,1,1.74.54c.23.08.47.13.71.19l0,.29.49-.22v.39l.85-.67-.06.5.68-.59.16.45.42-.58.11.09L85,52Zm7-14.27,0-.16c-.17-.11-.34-.32-.52-.33a12.08,12.08,0,0,0-1.88,0,.64.64,0,0,0-.35.52,13.91,13.91,0,0,0,.47,2,1.09,1.09,0,0,0,.53.59c.24.11.66.18.81,0a2.59,2.59,0,0,0,.93-2.05h-.92l0-.42Zm.07,10.39a1.77,1.77,0,0,1,1-1.44,10.94,10.94,0,0,0,3.33-3.61,4.38,4.38,0,0,0,.33-.74l-.17-.13a5.77,5.77,0,0,0-1,.9,10.34,10.34,0,0,1-3.26,3.26A1.2,1.2,0,0,0,93.17,46.87Zm.45,3,.08.1a1.72,1.72,0,0,0-1,2c.6-1.17,2.1-1.48,2.68-2.81l-.68.3c.37-.32.82-.56,1-1.18l-.6.39.16-1c-.51.44-1,.85-1.48,1.24a2.93,2.93,0,0,0-1,1.5ZM87.14,74.45l.06,0,.34-.31-.39,2.07.16,0c.11-.39.2-.8.35-1.18a9.8,9.8,0,0,1,.53-1l.13.07-.28.53.08,0,1.09-.94,0,.06-.85,1.67a8.66,8.66,0,0,0,1.17-1.41,10.13,10.13,0,0,0,.52-1c-.38-.05-.76-.12-1.15-.16a17.85,17.85,0,0,1-1.84-.13c-.61-.12-.65-.15-.84.5h1.37Zm8.63-20.12v.29c.59.07,1.18.12,1.76.21l6.82,1.08a7,7,0,0,0,.79.15c.09,0,.24-.15.28-.27a.35.35,0,0,0-.15-.31,2.33,2.33,0,0,0-.63-.16c-2.47-.33-4.94-.67-7.41-1A11.85,11.85,0,0,0,95.77,54.33ZM108,72.77c-.13-.37-.26-.72-.37-1.07a4.4,4.4,0,0,0-.2-.67.43.43,0,0,0-.37-.2,2.17,2.17,0,0,0-.53.34c-.36-.18-.42-.43-.13-.71a.58.58,0,0,0,0-1c-.15-.15-.32-.42-.58-.17s-.07.41.13.57c0,0,.06.11,0,.08l-.54.92L105,71l.46.86c.27.15.53.21.64.37a4.65,4.65,0,0,1,.37.91l.25-.48.31.66.05-.85.59.9-.1-.76ZM93.47,62.36c1-.27,2-.54,2.95-.83a.47.47,0,0,0,.21-.41,10.73,10.73,0,0,0-.46-1.6,5.91,5.91,0,0,0-.62-1,1.36,1.36,0,0,0-.1.27c0,.24,0,.47,0,.71.07,1.3.07,1.3-1.17,1.61l-.19.06C93.5,61.37,93.34,61.64,93.47,62.36ZM93,53.1a11.42,11.42,0,0,1,1.11-1.35,16.71,16.71,0,0,1,1.42-.95,2.47,2.47,0,0,0,.71-2.95,3.07,3.07,0,0,0-.42.77,3.54,3.54,0,0,1-1.71,2.26A5.66,5.66,0,0,0,93,52.06.79.79,0,0,0,93,53.1ZM90.48,40.95a5.58,5.58,0,0,1-2.85-.76,22.52,22.52,0,0,0-2.17-.8c-.77-.22-1.83-.18-2.22.36l1.2.45-.27-.44,1.14.63-.21-.58.78.56-.08-.51,1,.89,0-.26c.2.11.51.33.54.29.26-.3.37,0,.53.1s.29.17.44.26l0-.25A1.48,1.48,0,0,0,90.48,40.95ZM91.77,54.5c-.15,0-.32.11-.36.07-.48-.54-.85-.09-1.19.15-.54.39-.51.67.09,1a4.33,4.33,0,0,0,2.59.44,2.68,2.68,0,0,0,.57-.24L91.73,54.6Zm.68,18.39-.06.4-1.27-.17c.06.14.06.16.07.17l.17.09a6.93,6.93,0,0,0,4.58.3c.71-.18.79-.32.72-1.16l-.31.73-.2-.43-.24.54-.13-.14-.18-.6-.31.72-.11-.46-.31.27-.09-.26-.26.3-.29-.62-.15.46-1,.15L92.95,73l-.16.33ZM96.8,63c.07-.29.13-.53.19-.77s0-.54-.39-.43c-.95.28-1.89.59-2.83.89a.46.46,0,0,0-.32.66l.44-.25.07.45.42-.39.1.48.41-.54.08.79.35-.83.05.66.11,0,.25-.73.25.69.21-.75.23.42.2-.75.1.22ZM95.27,41.31a2.63,2.63,0,0,1,2-1.65,8.17,8.17,0,0,1,1-.06c.69,0,1-.56,1.61-1C97.13,38.29,95.33,39.34,95.27,41.31ZM85.58,53.43c1,.76,3.4.15,4.44-1.07l-.67.09a2.63,2.63,0,0,0-.9.52c-.33.31-.67-.16-1,.08l.06-.36-.41.35.11-.47-.45.32.35-.91ZM80.31,36.12l-1-.53.46-.08,0-.17a2.16,2.16,0,0,0-.79-.16c-.17,0-.31.31-.42.51s.05.21.1.37c-.47.56-.46.62.11,1.22a.7.7,0,0,0,.14.14l.55.27.13-.49.59-.51-.36-.29Zm15.25,10.5-.07,1.47c.77-1,.52-2.16,1-3.13-1.2.64-2.38,1.8-2.1,2.91Zm1-2.78-2,1.61c-.25.2-.51.39-.73.62a1.48,1.48,0,0,0-.09,2,8.12,8.12,0,0,1,.7-1.56,7.07,7.07,0,0,1,1.3-1.24A1.87,1.87,0,0,0,96.55,43.84Zm-2.62.38c1.56-1.12,2.47-2.89,4.2-3.82a1.89,1.89,0,0,0-1.57.61c-.66.6-1.33,1.18-2,1.79A2,2,0,0,0,93.93,44.21ZM81,43.23l.27.64c.22-1,0-1.72-.59-1.89s-1.5.41-1.79,1.2c1.67-.12,1.67-.12,2,.52Zm24.28-4a1.78,1.78,0,0,0-2.88-.64,1.73,1.73,0,0,1,1.64,1l.33-.43.3.85h.14l0-.92.19,0Zm-12,4.54c.27.16.38.12.35-.31s.15-1-.64-.82c0,0,0,0-.07-.06-.38-.24-.61-.16-.7.28a1.54,1.54,0,0,0,0,.7,3.86,3.86,0,0,0,.39.73ZM89.49,54.26s-.07-.05-.08-.11c-.05-.33-.12-.58-.45-.17,0,0-.12,0-.19,0-.4,0-.31.28-.23.5a4.65,4.65,0,0,0,.36.64,2.77,2.77,0,0,0,.38-.2c.39-.28.76-.59,1.16-.86.24-.16.54-.24.78-.4.06,0,0-.24,0-.36a1.07,1.07,0,0,0-.36,0c-.09,0-.12.19-.21.24C90.31,53.82,89.93,54,89.49,54.26Zm15.59,16.08a.4.4,0,0,0,.17-.06,1.26,1.26,0,0,0,0-1.29,2.93,2.93,0,0,1-.52-.9c-.05-.23,0-.48-.31-.38a.61.61,0,0,0-.3.52,5,5,0,0,0,.43,1.06C104.69,69.64,104.89,70,105.08,70.34Zm-4.54,1.77a3,3,0,0,0,.26-.59c.05-.25,0-.52.06-.77.13-.57,0-.81-.46-1v1.51l-.68-.56c.12.39.31.67.26.9-.09.47,0,.72.39.91L100.3,72ZM91.68,32.63a3.74,3.74,0,0,0-1.48.12A4.86,4.86,0,0,0,89.12,34l.1.13a4.79,4.79,0,0,0,.76-.32C90.52,33.45,91,33.07,91.68,32.63ZM105.76,51.9l.18,3.47C106.5,55.08,106.42,52.4,105.76,51.9Zm-12.33-12,.88-.05,2-1.3a1.63,1.63,0,0,0-1.43.24C94.4,39.15,93.9,39.54,93.43,39.89Zm-13.3-1c0-.9.46-1.22,1.27-1.17-.16-.43-.42-.59-.76-.55a.94.94,0,0,0-.91.67A.82.82,0,0,0,80.13,38.86Zm26.25,17.86-.16,0s-.06.09-.06.13c.11.9.23,1.79.36,2.69,0,.08.15.14.23.21.06-.1.19-.21.18-.3-.08-.68-.16-1.36-.28-2A4.4,4.4,0,0,0,106.37,56.72Zm-21.25,17,.15.06a1.8,1.8,0,0,0,.21-.71c0-.13-.35-.25-.55-.3a1.58,1.58,0,0,0-.7,0c-.43.11-.94.15-1,.73.53,0,1-.61,1.5,0l.64-.38Zm9.43-7.9a1.42,1.42,0,0,0-2.06-.72A2.31,2.31,0,0,0,94.55,65.82ZM98.46,40c-1.2-.49-2.73.34-2.76,1.44A4.82,4.82,0,0,1,98.46,40ZM91,35.6c1.21.14,1.41,0,1.23-.79-.09-.38-.39-.52-.65-.23A5.38,5.38,0,0,0,91,35.6Zm3.18,17.72a3.87,3.87,0,0,1,.29-.65c.12-.17.35-.28.46-.46a7.3,7.3,0,0,0,.38-1A1.43,1.43,0,0,0,94.14,53.32Zm19.78,14.54-.76-.59c-.64.71-.57,1.12.22,1.51Zm-31.4,5.66c-.8-.3-1.8.32-1.72,1l.44-.32.38.46.07-.42C82.3,74.36,82.23,73.78,82.53,73.52Zm18.24,6c.62-.57.47-1.38-.41-2.23l-.28.6.43.15-.21.39C101,78.59,100.54,79.19,100.77,79.56ZM87.26,43.76a1.93,1.93,0,0,0,.46-2A1.75,1.75,0,0,0,87.26,43.76Zm.85,35.53c-.53.66-.53.86,0,1.24a1.41,1.41,0,0,0,.45.13c0-.17.15-.37.09-.5A6.57,6.57,0,0,0,88.11,79.29Zm3.2-14.5c.23-.8.16-1-.58-1.35C90.31,64.17,90.37,64.32,91.31,64.79Zm10.63,16.29c-.06-.66-.34-1.13-.6-1s-.54.48-.49.64C101,81.21,101.51,81,101.93,81.08ZM89.84,37.2a2.55,2.55,0,0,0,1.38,2.3ZM76,79.35c-.11-.15-.24-.34-.4-.51a1.35,1.35,0,0,0-.32-.2,1.19,1.19,0,0,0-.19.37c-.07.57.19.85.7.88ZM94.6,66.09a3.6,3.6,0,0,1-2.45-1A1.86,1.86,0,0,0,94.6,66.09ZM92.37,34.53c0,.33,0,.66.11,1a.37.37,0,0,0,.27.23.42.42,0,0,0,.31-.19A.75.75,0,0,0,92.37,34.53ZM80.13,75.19a1,1,0,0,0-.75,1.18l.55.06L79.85,76l.28.08ZM103.8,66.5a1,1,0,0,0-.21,1.54,2.61,2.61,0,0,0,.39-.73A2.34,2.34,0,0,0,103.8,66.5ZM105.44,56c.28.24.5.49.55.46a1.09,1.09,0,0,0,.45-.5c0-.1-.24-.43-.29-.41A3.61,3.61,0,0,0,105.44,56Zm-2,12.4-.17,0a4.47,4.47,0,0,0,.11.47,4.07,4.07,0,0,0,.3.75.65.65,0,0,0,.73.4Zm-3.52-30.9-.06.13.53.58,0-.1,1.16.09,0-.07ZM91.4,34.3c.77.11.79.08.51-.88A.73.73,0,0,0,91.4,34.3Zm-3,48.63.14-.17L87.91,82l-.52.3Zm13.31-1.07a.62.62,0,0,0-.85-.22c-.1,0-.15.21-.22.32A1.29,1.29,0,0,0,101,82,5.82,5.82,0,0,0,101.72,81.86Zm-19.84-5.2-.47.72c.13,0,.28.16.39.12C82.15,77.39,82.1,77.12,81.87,76.66Zm21.18,4.87,1,.09C104,81.06,103.8,81,103.05,81.53ZM94,42.58l.19-.11a.59.59,0,0,0-.49-.76l-.15.09Zm13.21,4,.2-.24-.73-.59-.16.19ZM87.52,38.7l-.09.13,1.09.43C88.39,38.86,88.12,38.73,87.52,38.7Zm-8.24,39,.11.89C79.84,78.08,79.83,77.92,79.28,77.69ZM89.76,36.94c.56-.42.61-.68.24-1Z" style="fill: #d2d2d2"/>
      <path d="M107.21,46.58l-.69-.63.16-.19.73.59Z" style="fill: #d2d2d2"/>
      <path d="M88.68,58c0,.57,0,1.13.05,1.7s.05,1.1.05,1.65a9.8,9.8,0,0,1-.1-3.34Z" style="fill: #d2d2d2"/>
      <path d="M90.8,36.88l.2-.66,1,.37-.13.43Z" style="fill: #d2d2d2"/>
      <path d="M92.3,38.38a1.2,1.2,0,0,1-.07.18l-.78,0c0-.08,0-.22,0-.22Z" style="fill: #d2d2d2"/>
      <path d="M106.09,71.62c.42.06.76.19,1.05-.23l-.37.83Z" style="fill: #d2d2d2"/>
    </g>
    <path d="M92.89,97.77a.61.61,0,0,1-.31-.08l-4.47-2.63A10.13,10.13,0,0,0,83,93.65H71.3A10.75,10.75,0,0,1,60.56,82.91V27.37a4.26,4.26,0,0,1,4.25-4.25H121a4.26,4.26,0,0,1,4.25,4.25V82.91a10.75,10.75,0,0,1-10.74,10.74H102.8a10.13,10.13,0,0,0-5.14,1.4L93.2,97.69A.61.61,0,0,1,92.89,97.77ZM64.81,24.33a3,3,0,0,0-3,3V82.91a9.54,9.54,0,0,0,9.53,9.53H83A11.35,11.35,0,0,1,88.73,94l4.16,2.45L97,94a11.35,11.35,0,0,1,5.76-1.57h11.67A9.54,9.54,0,0,0,124,82.91V27.37a3,3,0,0,0-3-3Z" style="fill: #d2d2d2"/>
  </g>
  <g>
    <g style="mask: url(#a)">
      <g>
        <rect x="461.7" y="29.65" width="41.34" height="17.54" style="fill: #d2d2d2"/>
        <path d="M489.24,60.76l13-22.5-13,7.51Z" style="fill: #d2d2d2"/>
      </g>
    </g>
    <g style="mask: url(#b)">
      <g>
        <rect x="449.17" y="52.2" width="41.34" height="17.54" style="fill: #d2d2d2"/>
        <path d="M476.25,83.25l13-22.5-13,7.5Z" style="fill: #d2d2d2"/>
      </g>
    </g>
    <g style="mask: url(#c)">
      <g>
        <rect x="422.87" y="22.14" width="41.34" height="17.54" style="fill: #d2d2d2"/>
        <path d="M450.18,53.32l13-22.49-13,7.5Z" style="fill: #d2d2d2"/>
      </g>
    </g>
    <path d="M502.56,74.55h5.09l-1.25-4.09-1.19-4.67H505l-1.23,4.67Zm6.26,4.09H501.4l-1.27,4.09c-.12.42-.28.61-.91.61h-3.79c-.45,0-.54-.33-.45-.64l6.77-20.47c.45-1.5,1-1.76,2.36-1.79h1.95c1.46,0,2,.19,2.52,1.79l6.77,20.47a.45.45,0,0,1-.42.64h-3.86c-.49,0-.8,0-.93-.52Z" style="fill: #d2d2d2"/>
    <path d="M531.17,78.35c.61-.26.8-.1,1,.4l1.1,2.35c.3.61.2.85-.19,1.08A14.11,14.11,0,0,1,525.59,84c-7.05,0-10.21-4.41-10.21-11.65s4.22-11.88,10.44-11.88a12.78,12.78,0,0,1,6.35,1.36c.49.27.55.44.26,1.15l-1,2.25c-.23.59-.35.72-1,.49a12.1,12.1,0,0,0-4.4-.85c-3.58,0-5.48,3.19-5.48,7.45s1.35,7.14,5.61,7.14a13.46,13.46,0,0,0,5-1.13" style="fill: #d2d2d2"/>
    <path d="M549.53,68.07,546.65,73l-5.42,8.94a2.18,2.18,0,0,1-2.44,1.36h-1.29c-1.69,0-2.11-.87-2.11-2.25V61.08c0-.46.2-.63.68-.63h3.47c.6,0,.69.14.69.63V75.8h.19l2.71-4.57L548.73,62c.74-1.24,1.11-1.47,2.4-1.47h1.35c1.58,0,2.1.59,2.1,2.29v20c0,.45-.19.61-.68.61h-3.47c-.58,0-.72-.12-.72-.61V68.07Z" style="fill: #d2d2d2"/>
  </g>
  <g>
    <path d="M279.15,52.56V41.48h2.16l3.13,7.11h.67l3.13-7.11h2.16V52.56H289V42.91h0l-3,7h-2.46l-3-7h0v9.66Z" style="fill: #d2d2d2"/>
    <path d="M293.92,51.51a3.79,3.79,0,0,1-1-1.27,3.35,3.35,0,0,1-.31-1.5,3.46,3.46,0,0,1,.33-1.5,3.92,3.92,0,0,1,1-1.27,4.58,4.58,0,0,1,1.45-.85,5.12,5.12,0,0,1,3.44,0,4.6,4.6,0,0,1,1.46.84,3.92,3.92,0,0,1,1,1.27,3.48,3.48,0,0,1,.35,1.5,3.62,3.62,0,0,1-.8,2.14,4.49,4.49,0,0,1-2,1.42,5.19,5.19,0,0,1-2.57.24,4.83,4.83,0,0,1-2.31-1Zm1-4.79a2.72,2.72,0,0,0-.67.91A2.43,2.43,0,0,0,294,48.7a2.46,2.46,0,0,0,.21,1.07,2.75,2.75,0,0,0,.67.91,3.58,3.58,0,0,0,4.45,0,2.72,2.72,0,0,0,.67-.91,2.84,2.84,0,0,0,0-2.14,2.71,2.71,0,0,0-.67-.91,3.54,3.54,0,0,0-4.45,0Z" style="fill: #d2d2d2"/>
    <path d="M303.89,51.47a3.81,3.81,0,0,1-.87-1.29,4.29,4.29,0,0,1,0-3,3.79,3.79,0,0,1,.87-1.27,4.09,4.09,0,0,1,1.38-.85,4.29,4.29,0,0,1,3.23.11,4,4,0,0,1,1.31.94,3.75,3.75,0,0,1,.72,1.3h-1.26a2.44,2.44,0,0,0-.52-.75,2.7,2.7,0,0,0-.93-.58,2.83,2.83,0,0,0-1.09-.17,2.66,2.66,0,0,0-1.06.2,2.52,2.52,0,0,0-.87.59,2.7,2.7,0,0,0-.8,2,2.67,2.67,0,0,0,.8,2,2.55,2.55,0,0,0,.86.59,2.69,2.69,0,0,0,1,.2,2.81,2.81,0,0,0,1.15-.19,2.65,2.65,0,0,0,1-.63,2.43,2.43,0,0,0,.54-.82h1.26a3.65,3.65,0,0,1-1.43,2,4.07,4.07,0,0,1-2.47.74,4,4,0,0,1-1.54-.26A3.79,3.79,0,0,1,303.89,51.47Z" style="fill: #d2d2d2"/>
    <path d="M311.74,52.56V44.81h1.38v3.1h1.75l2.79-3.1h1.68l-3.23,3.64,3.49,4.09h-1.75l-3-3.47h-1.75v3.49Z" style="fill: #d2d2d2"/>
    <path d="M320.73,51.49a3.71,3.71,0,0,1-.85-1.25,3.65,3.65,0,0,1-.27-1.48,3.77,3.77,0,0,1,.26-1.51,3.82,3.82,0,0,1,.84-1.29,3.94,3.94,0,0,1,1.29-.86,4,4,0,0,1,3.07,0,3.93,3.93,0,0,1,1.29.86,3.84,3.84,0,0,1,.84,1.29,3.75,3.75,0,0,1,.26,1.51,3.83,3.83,0,0,1-.7,2.11A4,4,0,0,1,325,52.27a4.09,4.09,0,0,1-2.26.23A4,4,0,0,1,320.73,51.49Zm.86-4.7a2.69,2.69,0,0,0-.59.9,3.09,3.09,0,0,0,0,2.1,2.68,2.68,0,0,0,.59.9,2.88,2.88,0,0,0,3.9,0,2.72,2.72,0,0,0,.58-.9,2.79,2.79,0,0,0-.58-3,2.85,2.85,0,0,0-3.9,0Z" style="fill: #d2d2d2"/>
    <path d="M329.72,52.56V44.81h4a2.73,2.73,0,0,1,1.79.54A1.79,1.79,0,0,1,336,46a1.71,1.71,0,0,1,.16.77,2.16,2.16,0,0,1-.11.7,1.51,1.51,0,0,1-.28.5,1.64,1.64,0,0,1-.35.29,1.37,1.37,0,0,1-.31.16l-.17,0,.19,0a1.71,1.71,0,0,1,.38.17,2.8,2.8,0,0,1,.45.32,1.54,1.54,0,0,1,.36.54,2.29,2.29,0,0,1,0,1.69,2.07,2.07,0,0,1-.56.74,3,3,0,0,1-2,.62ZM331,48h2.6c.81,0,1.22-.34,1.22-1s-.41-1-1.22-1H331Zm0,3.41h2.68a1.68,1.68,0,0,0,1.09-.31,1.08,1.08,0,0,0,.29-.39,1,1,0,0,0,.08-.47,1,1,0,0,0-.08-.47,1.07,1.07,0,0,0-.29-.39,1.68,1.68,0,0,0-1.09-.31H331Z" style="fill: #d2d2d2"/>
    <path d="M338.73,51.43a3.78,3.78,0,0,1-.87-1.27,4.18,4.18,0,0,1,0-3,3.79,3.79,0,0,1,.87-1.27,4.08,4.08,0,0,1,1.38-.85,4.28,4.28,0,0,1,3.23.11,4,4,0,0,1,1.31.94,3.68,3.68,0,0,1,.71,1.3h-1.26a2.37,2.37,0,0,0-.52-.74,2.68,2.68,0,0,0-.92-.58,2.81,2.81,0,0,0-1.09-.17,2.65,2.65,0,0,0-1.06.2,2.51,2.51,0,0,0-.87.59,2.71,2.71,0,0,0-.77,2,2.67,2.67,0,0,0,.79,2,2.55,2.55,0,0,0,.86.58,2.69,2.69,0,0,0,1,.2,2.79,2.79,0,0,0,1.15-.19,2.65,2.65,0,0,0,.95-.63,2.3,2.3,0,0,0,.54-.82h1.26a3.63,3.63,0,0,1-.73,1.39,3.88,3.88,0,0,1-1.41,1,4.11,4.11,0,0,1-1.75.34,4,4,0,0,1-1.55-.28A3.78,3.78,0,0,1,338.73,51.43Z" style="fill: #d2d2d2"/>
    <path d="M346.58,52.56V44.81H348v3.1h1.75l2.8-3.1h1.66l-3.24,3.64,3.5,4.09H352.7l-3-3.47H348v3.49Z" style="fill: #d2d2d2"/>
    <path d="M355.57,52.56V44.81h1.21v6h0l4.12-6h1.38v7.76H361.1v-6h0l-4.12,6Z" style="fill: #d2d2d2"/>
    <path d="M364.56,52.56V44.65h1.21v6.1h0l4.12-6.1h1.38v7.92h-1.21v-6.1h0l-4.12,6.1Zm1.1-11.08h1.14a.91.91,0,0,0,.07.38.88.88,0,0,0,.22.31,1.58,1.58,0,0,0,1.73,0,.89.89,0,0,0,.29-.69h1.15a1.85,1.85,0,0,1-.16.79,1.8,1.8,0,0,1-.47.64,2.85,2.85,0,0,1-3.37,0,1.82,1.82,0,0,1-.45-.64,1.87,1.87,0,0,1-.14-.78Z" style="fill: #d2d2d2"/>
    <path d="M279.15,65.86V58.1h1.21v6h0l4.12-6h1.38v7.76h-1.21v-6h0l-4.12,6Z" style="fill: #d2d2d2"/>
    <path d="M288.14,65.86V58.1h1.22v3.18h4.31V58.1h1.22v7.76h-1.22V62.45h-4.3v3.41Z" style="fill: #d2d2d2"/>
    <path d="M297.13,65.86V58.1h1.22v3.18h4.31V58.1h1.22v7.76h-1.22V62.45h-4.31v3.41Z" style="fill: #d2d2d2"/>
    <path d="M307.24,64.79a3.7,3.7,0,0,1-.85-1.25,3.64,3.64,0,0,1-.27-1.48,3.73,3.73,0,0,1,.26-1.51,3.82,3.82,0,0,1,.84-1.29,3.93,3.93,0,0,1,1.29-.86,4,4,0,0,1,3.07,0,3.94,3.94,0,0,1,1.29.86,3.82,3.82,0,0,1,.84,1.29,3.77,3.77,0,0,1,.26,1.51,3.83,3.83,0,0,1-.7,2.11,4,4,0,0,1-1.76,1.39,4.09,4.09,0,0,1-2.26.23A4,4,0,0,1,307.24,64.79Zm.86-4.7a2.67,2.67,0,0,0-.59.9,3.1,3.1,0,0,0,0,2.1,2.68,2.68,0,0,0,.59.9,2.85,2.85,0,0,0,3.9,0,2.66,2.66,0,0,0,.59-.9,3.1,3.1,0,0,0,0-2.1,2.66,2.66,0,0,0-.59-.9,2.85,2.85,0,0,0-3.9,0Z" style="fill: #d2d2d2"/>
    <path d="M316.24,65.86V58.11h4a2.73,2.73,0,0,1,1.79.54,1.77,1.77,0,0,1,.49.63,1.69,1.69,0,0,1,.16.77,2.14,2.14,0,0,1-.11.7,1.41,1.41,0,0,1-.63.79,1.4,1.4,0,0,1-.31.16l-.17,0,.2,0a1.66,1.66,0,0,1,.38.17,2.67,2.67,0,0,1,.43.32,1.53,1.53,0,0,1,.37.54,2,2,0,0,1,.15.79,2,2,0,0,1-.17.9,2.1,2.1,0,0,1-.55.74,3,3,0,0,1-2,.62Zm1.29-4.57h2.6c.82,0,1.22-.34,1.22-1s-.39-1-1.21-1h-2.6Zm0,3.41h2.68a1.67,1.67,0,0,0,1.09-.31,1.21,1.21,0,0,0,.28-.39,1.15,1.15,0,0,0,0-.92,1.21,1.21,0,0,0-.28-.39,1.67,1.67,0,0,0-1.09-.31h-2.68Z" style="fill: #d2d2d2"/>
    <path d="M325.21,64.76a4,4,0,0,1,0-5.54,3.56,3.56,0,0,1,1.22-.83,3.73,3.73,0,0,1,1.47-.28,3.59,3.59,0,0,1,1.67.36,2.86,2.86,0,0,1,1,.79l.14.22V58.24H332v7.49h-1.25V64.51l-.14.21a2.73,2.73,0,0,1-1,.77,3.64,3.64,0,0,1-1.71.37,3.73,3.73,0,0,1-1.46-.28A3.56,3.56,0,0,1,325.21,64.76Zm.94-4.77a2.94,2.94,0,0,0,0,4,2.68,2.68,0,0,0,.88.58,2.8,2.8,0,0,0,2.09,0,2.66,2.66,0,0,0,.88-.58,2.94,2.94,0,0,0,0-4,2.66,2.66,0,0,0-.88-.58,2.8,2.8,0,0,0-2.09,0A2.68,2.68,0,0,0,326.15,60Z" style="fill: #d2d2d2"/>
    <path d="M334.22,66.21V58.1h1.28V65h4.19V58.1H341V65h1.13v3.08h-1.28V66.21Z" style="fill: #d2d2d2"/>
    <path d="M343.21,65.86V58.1h1.21v6h0l4.12-6H350v7.76h-1.21v-6h0l-4.12,6Z" style="fill: #d2d2d2"/>
    <path d="M353.32,64.79a3.73,3.73,0,0,1-.85-1.25,3.66,3.66,0,0,1-.27-1.48,3.77,3.77,0,0,1,.26-1.51,3.82,3.82,0,0,1,.84-1.29,3.94,3.94,0,0,1,1.29-.86,4,4,0,0,1,3.07,0,3.94,3.94,0,0,1,1.29.86,3.82,3.82,0,0,1,.84,1.29,3.73,3.73,0,0,1,.26,1.51,3.83,3.83,0,0,1-.7,2.11,4,4,0,0,1-1.76,1.39,4.09,4.09,0,0,1-2.26.23A4,4,0,0,1,353.32,64.79Zm.86-4.7a2.66,2.66,0,0,0-.59.9,3.1,3.1,0,0,0,0,2.1,2.66,2.66,0,0,0,.59.9,2.85,2.85,0,0,0,3.9,0,2.66,2.66,0,0,0,.59-.9,3.11,3.11,0,0,0,0-2.1,2.67,2.67,0,0,0-.59-.9,2.85,2.85,0,0,0-3.9,0Z" style="fill: #d2d2d2"/>
    <path d="M362.32,65.86V58.1h1.22v3.18h4.31V58.1h1.22v7.76h-1.22V62.45h-4.3v3.41Z" style="fill: #d2d2d2"/>
    <path d="M371.31,65.86V58.1h1.22v3.18h4.31V58.1h1.22v7.76h-1.22V62.45h-4.31v3.41Z" style="fill: #d2d2d2"/>
    <path d="M380.3,65.86V58.1h1.34v2.63h2a3.52,3.52,0,0,1,2.31.74,2.47,2.47,0,0,1,.66.82,2.26,2.26,0,0,1,0,2,2.46,2.46,0,0,1-.66.82,3.52,3.52,0,0,1-2.31.74Zm1.34-1.16h2a2.13,2.13,0,0,0,1.37-.39,1.36,1.36,0,0,0,.36-.46,1.25,1.25,0,0,0,0-1.1,1.36,1.36,0,0,0-.36-.46,2.16,2.16,0,0,0-1.37-.41h-2ZM388,65.86V58.1h1.34v7.75Z" style="fill: #d2d2d2"/>
    <path d="M391.54,65.86V57.95h1.21V64h0l4.12-6.1h1.38v7.91h-1.21v-6.1h0l-4.12,6.1Zm1.1-11.08h1.15a.89.89,0,0,0,.07.38.87.87,0,0,0,.22.31,1.53,1.53,0,0,0,1.72,0,.86.86,0,0,0,.22-.31.88.88,0,0,0,.07-.38h1.15a1.85,1.85,0,0,1-.15.79,1.81,1.81,0,0,1-.47.65,2.83,2.83,0,0,1-3.37,0,1.8,1.8,0,0,1-.47-.65A1.86,1.86,0,0,1,392.64,54.78Z" style="fill: #d2d2d2"/>
    <path d="M279.15,79.16V71.4h1.19v3.1h1.5l2.4-3.1h1.42L282.89,75l3,4.1H284.4l-2.55-3.49h-1.5v3.49Z" style="fill: #d2d2d2"/>
    <path d="M285.89,79.16l2.24-7.76h3.38l2.24,7.76h-1.38l-1.84-6.59h-1.44l-1.84,6.59Z" style="fill: #d2d2d2"/>
    <path d="M296,78a4,4,0,0,1,0-5.53,3.55,3.55,0,0,1,1.22-.83,3.73,3.73,0,0,1,1.47-.28,3.65,3.65,0,0,1,1.67.36,3,3,0,0,1,1,.79l.14.23V71.53h1.26V79h-1.26V77.83l-.14.21a2.74,2.74,0,0,1-1,.76,3.68,3.68,0,0,1-1.71.36,3.74,3.74,0,0,1-1.48-.28A3.56,3.56,0,0,1,296,78Zm.93-4.76a3,3,0,0,0,0,4,2.68,2.68,0,0,0,.88.57,2.82,2.82,0,0,0,2.09,0,2.69,2.69,0,0,0,.88-.57,3,3,0,0,0,0-4,2.68,2.68,0,0,0-.88-.57,2.81,2.81,0,0,0-2.09,0A2.66,2.66,0,0,0,296.91,73.28Z" style="fill: #d2d2d2"/>
    <path d="M306.15,78.05a3.92,3.92,0,0,1,0-5.54,4.09,4.09,0,0,1,1.38-.85,4.31,4.31,0,0,1,3.24.11,4,4,0,0,1,1.31.94,3.66,3.66,0,0,1,.72,1.3h-1.26a2.43,2.43,0,0,0-.54-.76,2.71,2.71,0,0,0-.93-.57,2.85,2.85,0,0,0-1.1-.17,2.67,2.67,0,0,0-1.06.2,2.52,2.52,0,0,0-.87.59,2.69,2.69,0,0,0-.77,2,2.66,2.66,0,0,0,.8,2,2.55,2.55,0,0,0,.86.58,2.7,2.7,0,0,0,1,.2,2.81,2.81,0,0,0,1.15-.19,2.65,2.65,0,0,0,1-.63,2.31,2.31,0,0,0,.53-.8h1.26a3.62,3.62,0,0,1-.73,1.39,3.89,3.89,0,0,1-1.41,1,4.14,4.14,0,0,1-1.75.34,4,4,0,0,1-1.54-.27A3.79,3.79,0,0,1,306.15,78.05Z" style="fill: #d2d2d2"/>
    <path d="M312.86,72.57V71.4h6.74v1.16h-2.74v6.59h-1.24V72.57Z" style="fill: #d2d2d2"/>
    <path d="M321.86,78.05a4,4,0,0,1,0-5.54,3.79,3.79,0,0,1,1.28-.84,3.89,3.89,0,0,1,1.52-.27,4,4,0,0,1,1.52.27,3.86,3.86,0,0,1,1.29.83,3.72,3.72,0,0,1,.85,1.25,3.6,3.6,0,0,1,.27,1.47v.43H322a2.66,2.66,0,0,0,2.7,2.38,3,3,0,0,0,2-.67,2.36,2.36,0,0,0,.59-.67h1.22A3.82,3.82,0,0,1,327,78.51a4,4,0,0,1-2.29.65,3.9,3.9,0,0,1-1.52-.27A3.79,3.79,0,0,1,321.86,78.05Zm.14-3.44h5.3a2.39,2.39,0,0,0-.84-1.48,2.64,2.64,0,0,0-1.78-.61,2.71,2.71,0,0,0-1.79.61A2.44,2.44,0,0,0,322,74.61Z" style="fill: #d2d2d2"/>
    <path d="M330.85,82.49V71.58h1.25v1.25l.16-.24a2.72,2.72,0,0,1,1-.8,3.45,3.45,0,0,1,1.71-.39,3.56,3.56,0,0,1,2.69,1.18,4.44,4.44,0,0,1,0,5.84,3.78,3.78,0,0,1-4.4.79,2.46,2.46,0,0,1-1-.81l-.16-.22v4.3Zm2-9.06a3.26,3.26,0,0,0,0,4.21,2.66,2.66,0,0,0,3.84,0,3.26,3.26,0,0,0,0-4.21,2.65,2.65,0,0,0-3.84,0Z" style="fill: #d2d2d2"/>
    <g>
      <path d="M268.41,36V84.17H249.75V74.58a48.25,48.25,0,0,0,4.48-4A49.38,49.38,0,0,0,268.41,36Z" style="fill: #d2d2d2"/>
      <path d="M238.71,36v23.4a29.25,29.25,0,0,1-9,5.07A49.46,49.46,0,0,0,238.71,36Z" style="fill: #d2d2d2"/>
      <path d="M268.41,36a49.38,49.38,0,0,1-14.17,34.62,48.26,48.26,0,0,1-34.18,14.37V74.59a48,48,0,0,1-29.7,10.36V66.07a29.55,29.55,0,0,0,21-8.84A30.34,30.34,0,0,0,220.06,36h18.65a49.46,49.46,0,0,1-9,28.47,29.25,29.25,0,0,0,9-5.07,27.7,27.7,0,0,0,2.35-2.13A30.34,30.34,0,0,0,249.75,36Z" style="fill: #d2d2d2;opacity: 0.6"/>
      <path d="M238.71,35.94v0H220.06v0Z" style="fill: #d2d2d2"/>
      <path d="M268.41,35.94v0H249.75v0Z" style="fill: #d2d2d2"/>
    </g>
  </g>
</svg>
