<?xml version="1.0" encoding="utf-8"?>
<!-- Generator: Adobe Illustrator 19.2.1, SVG Export Plug-In . SVG Version: 6.00 Build 0)  -->
<svg version="1.1" id="Layer_1" xmlns="http://www.w3.org/2000/svg"  x="0px" y="0px"
	 viewBox="0 0 300 170" style="enable-background:new 0 0 300 170;" xml:space="preserve">
<style type="text/css">
	.st0{fill:#FFFFFF;stroke:#3A2D79;stroke-width:2;stroke-miterlimit:10;}
	.st1{fill:none;stroke:#3A2D79;stroke-width:2;stroke-miterlimit:10;}
	.st2{fill:#FFFFFF;stroke:#3A2D79;stroke-width:2;stroke-linejoin:round;stroke-miterlimit:10;}
	.st3{fill:none;stroke:#FFFFFF;stroke-width:3;stroke-miterlimit:10;}
	.st4{fill:none;stroke:#FFFFFF;stroke-width:2;stroke-miterlimit:10;}
	.st5{fill:#3A2D79;}
	.st6{fill:#FFFFFF;}
</style>
<g>
	<path class="st0" d="M162,77c-16.6,0-30,12-30,30h60C192,89,178.6,77,162,77z"/>
	<g>
		<line class="st0" x1="231.6" y1="42.6" x2="238.6" y2="42.6"/>
		<path class="st0" d="M144.6,40.6h9.5c0.3-4.3,3.9-8.5,9.5-8.5c0.7-2.4,2.5-6.6,4.8-7.6c0-0.2,0-0.5,0-0.8
			c0-7.6,6.1-13.8,13.7-13.8c7.6,0,13.7,6.1,13.7,13.7c0,1.6-0.3,3.2-0.8,4.6c1.7,1,3,2.5,3.7,4.3c0.7-0.2,1.5-0.4,2.3-0.4
			c3.4,0,6.2,2,7.6,4.8c0.8-0.3,1.7-0.2,2.6-0.2c2.7,0,6.4,2.7,6.4,5.8h10.9"/>
		<line class="st0" x1="190.5" y1="48.5" x2="211.2" y2="48.5"/>
	</g>
	<g>
		<path class="st0" d="M61.2,41.5H49.5c0,0,0.5-3-3.5-3.8c0.7-1.3,1.1-2.8,1.1-4.4c0-5.2-4.2-9.4-9.4-9.4c-3.8,0-7.1,2.3-8.6,5.5
			c-0.3,0-0.7-0.1-1-0.1c-3.8,0-6.8,3.1-6.8,6.8c0,0.3,0,0.5,0,0.8c-0.1,0-0.2,0-0.2,0c-1.7,0-3.1,1.3-3.1,3.3h0h-0.4
			c-1.5,0-2.7,1.2-2.7,2.7H5"/>
	</g>
	<line class="st1" x1="300" y1="115" x2="1" y2="115"/>
	<polyline class="st1" points="32,101 51,101 51,89 67,89 67,99 72,99 72,104 75,104 75,93 80,93 80,84 95,84 95,93 100,93 100,107 
		144,107 144,102 159,102 159,92 207,92 207,97 221,97 221,86 228,86 228,81 235,81 235,93 243,93 243,105 281,105 281,109 300,109 
			"/>
	<g>
		<g>
			<line class="st1" x1="262" y1="53" x2="262" y2="47"/>
			<line class="st1" x1="262.2" y1="52.8" x2="266.4" y2="47.9"/>
			<line class="st1" x1="262.2" y1="52.8" x2="268.5" y2="50.7"/>
			<line class="st1" x1="262.2" y1="52.8" x2="258" y2="47.9"/>
			<line class="st1" x1="262.2" y1="52.8" x2="255.9" y2="50.7"/>
			<path class="st0" d="M251.5,25.5c-1.4,1.7-2.5,4.5-1.1,6.2c0.3,0.3,1.1,0.9,1.1,0.9s0.8-0.5,1.1-0.9
				C254,30,252.9,27.2,251.5,25.5z"/>
			<line class="st0" x1="246.8" y1="37.5" x2="255.9" y2="37.5"/>
			<g>
				<rect x="248" y="115" class="st0" width="25" height="5"/>
				<rect x="251" y="103" class="st0" width="20" height="12"/>
			</g>
			<polygon class="st0" points="272,70.3 262,78.7 262,83.6 272,75.3 			"/>
			<polygon class="st0" points="263.3,59 259.6,59 255.2,53.2 252.9,58.9 255.1,64.5 256.5,71.4 254,87.5 254,104 268,104 268,66.1 
							"/>
			<line class="st1" x1="254.1" y1="93" x2="264.3" y2="89.3"/>
			<line class="st1" x1="254.1" y1="87.9" x2="263.7" y2="79.5"/>
			<g>
				<g>
					<path class="st2" d="M253.6,48.6L253,42h-2.6c0,0-0.3,6.5,0,8.2c0.4,2,2.6,8.7,2.6,8.7l3.1-4.1L253.6,48.6z"/>
				</g>
				<g>
					<path class="st0" d="M253,37h-2.1c-0.5,0-0.9-0.4-0.9,0.1V41c0,0.5,0.4,1,0.9,1.2l2.2,0.2c0,0-0.1,0.1-0.1,0.1v-5.5
						C253,36.8,253,37,253,37z"/>
				</g>
			</g>
			<line class="st1" x1="256.4" y1="71.1" x2="261.5" y2="64"/>
			<g>
				<g>
					<path class="st0" d="M265,53.4c0-1.3-1.1-2.4-2.4-2.4h-1.3c-1.3,0-2.4,1.1-2.4,2.4v3.3c0,1.3,1.1,2.4,2.4,2.4h1.3
						c1.3,0,2.4-1.1,2.4-2.4V53.4z"/>
				</g>
				<line class="st0" x1="259.4" y1="53.5" x2="265" y2="53.5"/>
			</g>
			<rect x="266" y="64" class="st0" width="7" height="10"/>
			<g>
				<path class="st0" d="M275,74.8c0,0.7-0.5,1.2-1.2,1.2h-1.6c-0.7,0-1.2-0.5-1.2-1.2v-3.6c0-0.7,0.5-1.2,1.2-1.2h1.6
					c0.7,0,1.2,0.5,1.2,1.2V74.8z"/>
			</g>
			<rect x="248" y="35" class="st0" width="7" height="3"/>
			<rect x="249" y="32" class="st0" width="5" height="3"/>
			<polyline class="st0" points="277,128 277,123 274.2,120 246.9,120 244,123 244,128 			"/>
			<line class="st1" x1="244" y1="124" x2="277" y2="124"/>
			<line class="st1" x1="241" y1="128" x2="280" y2="128"/>
			<rect x="249" y="102" class="st0" width="25" height="3"/>
			<rect x="251" y="99" class="st0" width="21" height="3"/>
		</g>
		<line class="st1" x1="261" y1="108" x2="261" y2="112"/>
		<line class="st1" x1="266" y1="108" x2="266" y2="112"/>
		<line class="st1" x1="256" y1="108" x2="256" y2="112"/>
	</g>
	<g>
		<g>
			<g>
				<polyline class="st1" points="14,169 14,165 0,165 				"/>
				<polyline class="st0" points="0,165 14,165 14,159 1,159 				"/>
			</g>
			<g>
				<polyline class="st1" points="39,169 39,165 14,165 14,169 				"/>
				<rect x="14" y="159" class="st0" width="25" height="6"/>
			</g>
			<g>
				<polyline class="st1" points="64,169 64,165 39,165 39,169 				"/>
				<rect x="39" y="159" class="st0" width="25" height="6"/>
			</g>
			<g>
				<polyline class="st1" points="89,169 89,165 64,165 64,169 				"/>
				<rect x="64" y="159" class="st0" width="25" height="6"/>
			</g>
			<g>
				<polyline class="st1" points="114,169 114,165 89,165 89,169 				"/>
				<rect x="89" y="159" class="st0" width="25" height="6"/>
			</g>
			<g>
				<polyline class="st1" points="139,169 139,165 114,165 114,169 				"/>
				<rect x="114" y="159" class="st0" width="25" height="6"/>
			</g>
			<g>
				<polyline class="st1" points="164,169 164,165 139,165 139,169 				"/>
				<rect x="139" y="159" class="st0" width="25" height="6"/>
			</g>
			<g>
				<polyline class="st1" points="189,169 189,165 164,165 164,169 				"/>
				<rect x="164" y="159" class="st0" width="25" height="6"/>
			</g>
			<g>
				<polyline class="st1" points="214,169 214,165 189,165 189,169 				"/>
				<rect x="189" y="159" class="st0" width="25" height="6"/>
			</g>
			<g>
				<polyline class="st1" points="239,169 239,165 214,165 214,169 				"/>
				<rect x="214" y="159" class="st0" width="25" height="6"/>
			</g>
			<g>
				<polyline class="st1" points="264,169 264,165 239,165 239,169 				"/>
				<rect x="239" y="159" class="st0" width="25" height="6"/>
			</g>
			<g>
				<polyline class="st1" points="289,169 289,165 264,165 264,169 				"/>
				<rect x="264" y="159" class="st0" width="25" height="6"/>
			</g>
			<g>
				<polyline class="st1" points="300,165 289,165 289,169 				"/>
				<polyline class="st0" points="300,159 289,159 289,165 300,165 				"/>
			</g>
		</g>
		<line class="st1" x1="0" y1="169" x2="300" y2="169"/>
	</g>
	<g>
		<g>
			<line class="st1" x1="271.5" y1="138.5" x2="292" y2="138.5"/>
			<line class="st1" x1="153.5" y1="123.5" x2="160" y2="123.5"/>
			<line class="st1" x1="213" y1="139" x2="240" y2="139"/>
			<line class="st1" x1="231.5" y1="133" x2="258.5" y2="133"/>
			<line class="st1" x1="93.5" y1="127" x2="114.5" y2="127"/>
			<line class="st1" x1="290" y1="127" x2="300" y2="127"/>
			<line class="st1" x1="253" y1="147" x2="283.5" y2="147"/>
			<line class="st1" x1="183" y1="120" x2="213.5" y2="120"/>
			<line class="st1" x1="281" y1="119" x2="293.5" y2="119"/>
			<line class="st1" x1="233" y1="120" x2="224" y2="120"/>
			<line class="st1" x1="155" y1="133" x2="146" y2="133"/>
			<line class="st1" x1="91" y1="119" x2="82" y2="119"/>
		</g>
		<g>
			<line class="st1" x1="15" y1="72.9" x2="15" y2="66.5"/>
			<line class="st1" x1="25.2" y1="72.9" x2="25.2" y2="66.5"/>
			<line class="st1" x1="19.9" y1="67.1" x2="19.9" y2="58.9"/>
			<g>
				<g>
					<line class="st1" x1="15" y1="72.9" x2="15" y2="66.5"/>
					<line class="st1" x1="25.2" y1="72.9" x2="25.2" y2="66.5"/>
					<line class="st1" x1="34.5" y1="77.4" x2="34.5" y2="70.9"/>
					<rect x="18" y="66.5" class="st0" width="3.8" height="6.5"/>
					<rect x="22" y="75" class="st0" width="21" height="24"/>
					<polygon class="st0" points="46,122 46,98 38,98 38,83 6,83 6,159 51,159 51,122 					"/>
					<polygon class="st0" points="31,115 31,103 23,103 23,92 1,92 1,159 36,159 36,115 					"/>
					<line class="st1" x1="11" y1="121.5" x2="11" y2="130.9"/>
					<line class="st1" x1="16" y1="121.5" x2="16" y2="130.9"/>
					<line class="st1" x1="26" y1="121.5" x2="26" y2="130.9"/>
					<line class="st1" x1="20.5" y1="121.5" x2="20.5" y2="130.9"/>
					<line class="st1" x1="31" y1="121.5" x2="31" y2="130.9"/>
					<line class="st1" x1="6" y1="121.5" x2="6" y2="130.9"/>
					<rect x="11" y="75" class="st0" width="18" height="7"/>
					<rect x="13" y="70" class="st0" width="14" height="5"/>
					<rect x="6" y="89" class="st0" width="17" height="3"/>
					<rect x="6" y="80" class="st0" width="32" height="3"/>
					<g>
						<line class="st1" x1="6" y1="95.2" x2="6" y2="99.1"/>
						<line class="st1" x1="11" y1="95.2" x2="11" y2="99.1"/>
						<line class="st1" x1="16" y1="95.2" x2="16" y2="99.1"/>
					</g>
					<g>
						<line class="st1" x1="46" y1="125.2" x2="46" y2="138.6"/>
						<line class="st1" x1="41" y1="125.2" x2="41" y2="138.6"/>
					</g>
					<line class="st1" x1="33" y1="87" x2="33" y2="94"/>
					<line class="st1" x1="28" y1="87" x2="28" y2="94"/>
					<line class="st1" x1="36" y1="101.5" x2="36" y2="111.2"/>
					<line class="st1" x1="41" y1="101.5" x2="41" y2="117.5"/>
					<line class="st0" x1="37" y1="122" x2="47" y2="122"/>
					<line class="st1" x1="39" y1="98" x2="23" y2="98"/>
					<line class="st1" x1="11" y1="118.9" x2="11" y2="101.6"/>
					<line class="st1" x1="16" y1="118.9" x2="16" y2="101.6"/>
					<line class="st1" x1="26" y1="118.9" x2="26" y2="106.1"/>
					<line class="st1" x1="20.5" y1="118.9" x2="20.5" y2="106.1"/>
					<line class="st1" x1="6" y1="118.9" x2="6" y2="101.6"/>
				</g>
				<g>
					<g>
						<g>
							<rect x="6" y="134" class="st0" width="22" height="25"/>
							<line class="st1" x1="5" y1="137.6" x2="28.6" y2="137.6"/>
						</g>
						<rect x="10" y="153" class="st0" width="14" height="6"/>
						<line class="st1" x1="10.3" y1="155.4" x2="22.7" y2="155.4"/>
						<rect x="6" y="153" class="st0" width="4" height="6"/>
						<g>
							<rect x="12" y="142" class="st0" width="10" height="11"/>
						</g>
						<rect x="24" y="153" class="st0" width="4" height="6"/>
					</g>
				</g>
			</g>
			<line class="st3" x1="33" y1="106.5" x2="44" y2="106.5"/>
			<line class="st3" x1="39" y1="113.5" x2="43" y2="113.5"/>
			<line class="st3" x1="4" y1="112.5" x2="27" y2="112.5"/>
			<line class="st4" x1="8" y1="87" x2="37" y2="87"/>
		</g>
		<g>
			<path class="st0" d="M238.9,154.1c-0.7,0-1.5,0-2.1,0.3c-2.8-1.9-6.9-3.6-10.9-3.6v0c0-3-2.9-5.2-5.9-5.2c-2.7,0-5,1.8-5.8,4.2
				c-0.2,0-0.4,0.3-0.6,0.3c-3.9-0.3-5.3,0.9-6.9,2.9h-0.4c-0.5-1-2.5-2.6-4.5-2.6v8.6h42h0C244,156,241.7,154.1,238.9,154.1z"/>
		</g>
		<g>
			<g>
				<g>
					<path class="st0" d="M143,145v14h38v-11.2c-2,0.1-3.7,2.2-3.7,3.5c-0.9,0.1-1.6,0.4-2.3,0.9c-0.7-0.5-1.4-0.7-2.3-0.8
						c-0.8-4-5.5-3-5.5-3c-1-2.5-3-2.9-5.5-2.9c-1.5,0-2.9,0.4-4,1.3c-1.8-1.2-4.3-0.6-6,0.5c-0.5-1-2.2-2.3-5.3-2.3H143z"/>
				</g>
			</g>
		</g>
		<path class="st0" d="M134.7,153.7c0-3.2-2.8-5.4-6-5.4c-1.4,0-2.7,0.7-3.7,1.7h-0.2c0-1-1.8-3-4.8-3h-1.2c-1-3-3.1-3.8-5.5-3.8
			c-1.4,0-2.7-1.2-3.7,0.8h-0.5c-1.8-2-5.1-2-6.9,0H102c-1.3-2-6-3-7,0h0c-1.4-2-4.6-4.8-9.7-2.9c-0.8-2.4-3.1-4.1-5.8-4.1H77v22
			h62.1C138.5,157,137.1,154.2,134.7,153.7z"/>
		<path class="st0" d="M68.9,145.9c-0.4-1.8-2-3.2-3.9-3.2c-1.4,0-2.6,0.7-3.3,1.8c0,0-0.1,0-0.1,0c-0.2,0-0.4,0-0.6,0.1
			c-0.8-2.4-3.2-4.2-5.9-4.2c-3,0-6.1,2.2-6.1,5.2v0c-3,0-5.1,1.8-6.4,4.4c-1.9-0.4-3.5,1.1-3.5,3.1h-1.7c-3.2,0-6.4,1.9-6.4,5v1h41
			v-11.6C71,146.8,70,146.2,68.9,145.9z"/>
		<g>
			<line class="st1" x1="70" y1="45.5" x2="74" y2="45.5"/>
			<g>
				<line class="st1" x1="72.1" y1="69.3" x2="72.1" y2="34.2"/>
				<path class="st0" d="M72.3,50h-0.5c-1.1,0-1.8,0.2-1.8,1.3V59h4v-7.7C74,50.2,73.4,50,72.3,50z"/>
				<g>
					<path class="st0" d="M69,63v-5.3c0-1.4,1.4-1.7,2.8-1.7h0.6c1.4,0,2.6,0.3,2.6,1.7V63"/>
				</g>
				<rect x="64" y="70" class="st0" width="16" height="64"/>
				<polygon class="st0" points="70,94 70,123 74,123 74,94 86,94 86,159 58,159 58,94 				"/>
				<rect x="62" y="79" class="st0" width="8" height="15"/>
				<rect x="54" y="136" class="st0" width="12" height="23"/>
				<line class="st1" x1="62" y1="97.2" x2="62" y2="132.1"/>
				<line class="st1" x1="66.3" y1="97.2" x2="66.3" y2="132.1"/>
				<line class="st1" x1="66.3" y1="81.3" x2="66.3" y2="90.9"/>
				<line class="st1" x1="68.2" y1="72.4" x2="68.2" y2="75.6"/>
				<line class="st1" x1="62" y1="139.1" x2="62" y2="155"/>
				<rect x="67" y="62" class="st0" width="10" height="5"/>
				<rect x="74" y="79" class="st0" width="8" height="15"/>
				<rect x="78" y="136" class="st0" width="12" height="23"/>
				<line class="st1" x1="82" y1="97.2" x2="82" y2="132.1"/>
				<line class="st1" x1="77.8" y1="97.2" x2="77.8" y2="132.1"/>
				<line class="st1" x1="77.8" y1="81.3" x2="77.8" y2="90.9"/>
				<line class="st1" x1="72" y1="72.4" x2="72" y2="75.6"/>
				<line class="st1" x1="86" y1="139.1" x2="86" y2="155"/>
				<line class="st1" x1="81.6" y1="139.1" x2="81.6" y2="155"/>
				<line class="st1" x1="58" y1="139.1" x2="58" y2="155"/>
				<rect x="70" y="133" class="st0" width="4" height="26"/>
				<rect x="66" y="66" class="st0" width="12" height="4"/>
			</g>
			<line class="st1" x1="76" y1="72.4" x2="76" y2="75.6"/>
		</g>
		<g>
			<polygon class="st2" points="131,35 111,35 103,137 139,137 			"/>
			<g>
				<g>
					<line class="st1" x1="105" y1="101.4" x2="137" y2="101.4"/>
					<line class="st1" x1="106.3" y1="91.6" x2="136.2" y2="91.6"/>
					<line class="st0" x1="107" y1="75" x2="135" y2="75"/>
					<line class="st1" x1="103.7" y1="117.7" x2="138.1" y2="117.7"/>
					<g>
						<line class="st1" x1="103" y1="131.1" x2="138.7" y2="131.1"/>
					</g>
				</g>
			</g>
			<rect x="99" y="140" class="st0" width="44" height="19"/>
			<rect x="103" y="136" class="st0" width="36" height="4"/>
			<g>
				<rect x="111" y="151" class="st0" width="20" height="8"/>
				<line class="st1" x1="110.7" y1="154.4" x2="131.1" y2="154.4"/>
				<rect x="131" y="151" class="st0" width="4" height="8"/>
				<rect x="107" y="151" class="st0" width="4" height="8"/>
				<g>
					<rect x="111" y="132" class="st0" width="20" height="19"/>
					<rect x="115" y="136" class="st1" width="12" height="15"/>
					<line class="st1" x1="121" y1="136.1" x2="121" y2="150.3"/>
				</g>
			</g>
			<polygon class="st2" points="117,132 125,132 132,39 110,39 			"/>
			<rect x="110" y="35" class="st2" width="22" height="4"/>
			<line class="st1" x1="132" y1="53" x2="109" y2="53"/>
			<line class="st1" x1="113.3" y1="66.7" x2="129" y2="66.7"/>
			<line class="st0" x1="129" y1="85" x2="113" y2="85"/>
			<g>
				<rect x="103" y="144" class="st0" width="4" height="15"/>
			</g>
			<g>
				<rect x="135" y="144" class="st0" width="4" height="15"/>
			</g>
			<line class="st1" x1="109" y1="35" x2="133" y2="35"/>
			<g>
				<polygon class="st0" points="121,11.6 114.9,33.2 127.1,33.2 				"/>
				<rect x="116" y="29" class="st0" width="10" height="3"/>
				<line class="st1" x1="121" y1="27.4" x2="121" y2="0"/>
				<rect x="114" y="32" class="st0" width="14" height="3"/>
			</g>
		</g>
		<g>
			<g>
				<path class="st5" d="M200,139v-8h2v-2h-2h-4v-26h2v-2h-2h-4V82h-1V71.6c0-2.6-1.2-5-3-6.7v-0.6c0-2.7-0.8-5.1-2.1-6.7
					c0.3-0.8,0.4-1.6,0.4-2.6c0-3.1-1.9-5.7-4.3-6.1V37h-2v12c-2.4,0.3-4.3,2.9-4.3,6.1c0,0.9,0.2,1.8,0.4,2.6
					c-1.3,1.6-2.1,4-2.1,6.7v0.6c-1.8,1.7-3,4.1-3,6.7V82h-1v19h-4h-2v2h2v26h-4h-2v2h2v8h-5v21h23h2h23v-21H200z"/>
				<g>
					<rect x="159" y="141" class="st6" width="3" height="17"/>
					<polygon class="st6" points="170,158 168,158 168,134 166,134 166,158 165,158 164,158 164,139.5 164,138.5 164,131 166,131 
						170,131 					"/>
					<rect x="168" y="103" class="st6" width="2" height="26"/>
					<polygon class="st6" points="176,85.5 176,87.5 176,89.5 176,94.5 176,96.5 176,100.5 176,102.5 176,106.5 176,108.5 
						176,113.5 176,115.5 176,119.5 176,121.5 176,126.5 176,128.5 176,130.5 176,132.5 176,134.5 176,138.5 176,140.5 176,145.5 
						176,147.5 176,158 174,158 172,158 172,148 174,148 174,146 172,146 172,141 174,141 174,139 172,139 172,135 174,135 174,133 
						172,133 172,130.5 172,129 174,129 174,127 172,127 172,122 174,122 174,120 172,120 172,116 174,116 174,114 172,114 172,109 
						174,109 174,107 172,107 172,103 174,103 174,101 172,101 172,97 174,97 174,95 172,95 172,90 174,90 174,88 172,88 172,84 
						173,84 176,84 					"/>
					<rect x="178" y="148" class="st6" width="2" height="10"/>
					<rect x="178" y="141" class="st6" width="2" height="5"/>
					<rect x="178" y="135" class="st6" width="2" height="4"/>
					<polygon class="st6" points="180,130.5 180,133 178,133 178,130.5 178,129 180,129 					"/>
					<rect x="178" y="122" class="st6" width="2" height="5"/>
					<rect x="178" y="116" class="st6" width="2" height="4"/>
					<rect x="178" y="109" class="st6" width="2" height="5"/>
					<rect x="178" y="103" class="st6" width="2" height="4"/>
					<rect x="178" y="97" class="st6" width="2" height="4"/>
					<rect x="178" y="90" class="st6" width="2" height="5"/>
				</g>
				<g>
					<rect x="200" y="141" class="st6" width="3" height="17"/>
					<polygon class="st6" points="192,131 196,131 198,131 198,138.5 198,139.5 198,158 197,158 196,158 196,134 194,134 194,158 
						192,158 					"/>
					<rect x="192" y="103" class="st6" width="2" height="26"/>
					<polygon class="st6" points="186,84 189,84 190,84 190,88 188,88 188,90 190,90 190,95 188,95 188,97 190,97 190,101 188,101 
						188,103 190,103 190,107 188,107 188,109 190,109 190,114 188,114 188,116 190,116 190,120 188,120 188,122 190,122 190,127 
						188,127 188,129 190,129 190,130.5 190,133 188,133 188,135 190,135 190,139 188,139 188,141 190,141 190,146 188,146 188,148 
						190,148 190,158 188,158 186,158 186,147.5 186,145.5 186,140.5 186,138.5 186,134.5 186,132.5 186,130.5 186,128.5 186,126.5 
						186,121.5 186,119.5 186,115.5 186,113.5 186,108.5 186,106.5 186,102.5 186,100.5 186,96.5 186,94.5 186,89.5 186,87.5 
						186,85.5 					"/>
					<rect x="182" y="148" class="st6" width="2" height="10"/>
					<rect x="182" y="141" class="st6" width="2" height="5"/>
					<rect x="182" y="135" class="st6" width="2" height="4"/>
					<polygon class="st6" points="182,129 184,129 184,130.5 184,133 182,133 182,130.5 					"/>
					<rect x="182" y="122" class="st6" width="2" height="5"/>
					<rect x="182" y="116" class="st6" width="2" height="4"/>
					<rect x="182" y="109" class="st6" width="2" height="5"/>
					<rect x="182" y="103" class="st6" width="2" height="4"/>
					<rect x="182" y="97" class="st6" width="2" height="4"/>
					<rect x="182" y="90" class="st6" width="2" height="5"/>
				</g>
			</g>
			<g>
				<path class="st6" d="M180,63h2h0.1c1.4,0,2.7,0.1,3.9,0.7c-0.1-1.6-0.5-3.1-1.2-4.1c-0.2-0.3-0.4-0.6-0.6-0.9
					c-0.2-0.3-0.5-0.2-0.7-0.4C183,58,182.5,58,182,58h-2c-0.5,0-1,0-1.4,0.3c-0.3,0.2-0.5,0.3-0.7,0.5c-0.2,0.2-0.4,0.4-0.6,0.7
					c-0.6,1.1-1.1,2.7-1.2,4.2c1.2-0.6,2.5-0.8,3.9-0.8H180z"/>
				<path class="st6" d="M180,56h2c0.8,0,1.5,0,2.2,0.4c0.1-0.3,0.1-0.4,0.1-0.7c0-2-1-3.7-2.3-3.7h-2c-1.3,0-2.3,1.6-2.3,3.5
					c0,0.4,0,0.8,0.1,1.1C178.5,56.3,179.2,56,180,56z"/>
				<path class="st6" d="M188,68.1c-0.3-0.5-0.6-0.9-1-1.3c-0.3-0.3-0.6-0.6-1-0.9c-0.9-0.7-1.9-0.9-3-1l-0.9,0.2h-2.2l-0.9-0.2
					c-1.1,0.2-2.1,0.5-3,1.2c-0.4,0.3-0.7,0.5-1,0.8c-0.4,0.4-0.7,0.8-1,1.3c-0.6,1.1-1,2.2-1,3.5V82h3v-4.2v-1.9v-1.4
					c0-0.5,0.1-0.7,0.2-1.1c0.5-1.9,2-3.4,3.8-3.4h2c1.8,0,3.3,1.5,3.8,3.4c0.1,0.4,0.2,0.6,0.2,1.1v1.4v1.9V82h3V71.6
					C189,70.4,188.6,69.2,188,68.1z"/>
			</g>
			<g>
				<path class="st6" d="M178,75.5V159h2V72.5C178.9,72.8,178,74,178,75.5z"/>
				<path class="st6" d="M182,72.5V159h2V75.5C184,74,183.1,72.8,182,72.5z"/>
			</g>
		</g>
		<g>
			<g>
				<rect x="146" y="149.5" class="st5" width="2" height="2"/>
			</g>
			<g>
				<rect x="42" y="153.5" class="st5" width="2" height="2"/>
			</g>
			<g>
				<rect x="152" y="153.5" class="st5" width="2" height="2"/>
			</g>
			<g>
				<rect x="211" y="153.5" class="st5" width="2" height="2"/>
			</g>
			<g>
				<rect x="219" y="150.5" class="st5" width="2" height="2"/>
			</g>
			<g>
				<rect x="226" y="153.5" class="st5" width="2" height="2"/>
			</g>
			<g>
				<rect x="48" y="148.5" class="st5" width="2" height="2"/>
			</g>
			<g>
				<rect x="93" y="151.5" class="st5" width="2" height="2"/>
			</g>
		</g>
	</g>
	<rect x="247" y="132" class="st6" width="4" height="4"/>
</g>
</svg>
