<svg xmlns="http://www.w3.org/2000/svg" width="32" height="40.5" viewBox="0 0 37.75 41">

  <title>logo_final_1</title>

    <path d="M18.72,39.29a1.78,1.78,0,0,1-1.27-.53l-1.93-2.29s-.06,0-.22-.08A17.52,17.52,0,0,1,1.1,19.11a17.76,17.76,0,0,1,5.65-13A17.47,17.47,0,0,1,14.25,2h.09a.37.37,0,0,1,.38.38V4a.38.38,0,0,1-.27.36A14.73,14.73,0,0,0,8.29,7.78,15.5,15.5,0,0,0,3.35,19.11,15.29,15.29,0,0,0,15.79,34.19a2.38,2.38,0,0,1,1.53.93l1.42,1.69L20.23,35a3.67,3.67,0,0,1,1.31-.79l.11,0A15.28,15.28,0,0,0,33.53,23.42a.38.38,0,0,1,.36-.27h1.56a.37.37,0,0,1,.36.47A17.71,17.71,0,0,1,22.16,36.4a1.16,1.16,0,0,0-.26.14l-1.81,2.15A1.88,1.88,0,0,1,18.72,39.29Z" style="fill: white;stroke: white;stroke-linejoin: round;stroke-width: 0.7px"/>
    
   
 <path d="M34.51,18.87a.5.5,0,0,1-.5-.48A15.38,15.38,0,0,0,19.49,3.87a.5.5,0,0,1-.48-.5V1.87a.5.5,0,0,1,.5-.5h0a17.86,17.86,0,0,1,17,17,.5.5,0,0,1-.5.52Z" style="fill: #d2d2d2;stroke: #d2d2d2;stroke-linejoin: round;stroke-width: 0.4px"/>
   
       

<path d="M27,18.87a.5.5,0,0,1-.5-.45,7.74,7.74,0,0,0-7-7,.5.5,0,0,1-.45-.5V9.41a.5.5,0,0,1,.5-.5h0A10.29,10.29,0,0,1,29,18.33a.5.5,0,0,1-.5.54Z" style="fill: #d2d2d2;stroke: #d2d2d2;stroke-linejoin: round;stroke-width: 0.4px"/>
    
    

<circle cx="18.76" cy="19.12" r="2.5" style="fill: #d2d2d2"/>
    
    

</svg>
