<?xml version="1.0" standalone="no"?>
<!DOCTYPE svg PUBLIC "-//W3C//DTD SVG 20010904//EN"
 "http://www.w3.org/TR/2001/REC-SVG-20010904/DTD/svg10.dtd">
<svg version="1.0" xmlns="http://www.w3.org/2000/svg"
 width="200.000000pt" height="200.000000pt" viewBox="0 0 200.000000 200.000000"
 preserveAspectRatio="xMidYMid meet">
<metadata>
Created by potrace 1.11, written by Peter Selinger 2001-2013
</metadata>
<g transform="translate(0.000000,200.000000) scale(0.100000,-0.100000)"
fill="#000000" stroke="none">
<path d="M310 1000 l0 -690 690 0 690 0 0 78 0 79 -602 -1 -603 0 0 229 0 229
482 -1 482 0 3 36 c2 20 1 55 -1 79 l-3 42 -484 0 -484 0 2 227 3 227 602 0
603 0 0 78 0 78 -690 0 -690 0 0 -690z"/>
</g>
</svg>
