<?xml version="1.0" encoding="UTF-8" standalone="no"?>
<svg
   xmlns:dc="http://purl.org/dc/elements/1.1/"
   xmlns:cc="http://creativecommons.org/ns#"
   xmlns:rdf="http://www.w3.org/1999/02/22-rdf-syntax-ns#"
   xmlns:svg="http://www.w3.org/2000/svg"
   xmlns="http://www.w3.org/2000/svg"
   xmlns:sodipodi="http://sodipodi.sourceforge.net/DTD/sodipodi-0.dtd"
   xmlns:inkscape="http://www.inkscape.org/namespaces/inkscape"
   viewBox="0 0 57.058 13.683"
   height="51.717"
   width="215.653"
   version="1.1"
   id="svg901"
   sodipodi:docname="sdk1.svg"
   inkscape:version="1.0 (4035a4fb49, 2020-05-01)">
  <metadata
     id="metadata907">
    <rdf:RDF>
      <cc:Work
         rdf:about="">
        <dc:format>image/svg+xml</dc:format>
        <dc:type
           rdf:resource="http://purl.org/dc/dcmitype/StillImage" />
        <dc:title />
      </cc:Work>
    </rdf:RDF>
  </metadata>
  <defs
     id="defs905" />
  <sodipodi:namedview
     inkscape:document-rotation="0"
     pagecolor="#ffffff"
     bordercolor="#666666"
     borderopacity="1"
     objecttolerance="10"
     gridtolerance="10"
     guidetolerance="10"
     inkscape:pageopacity="0"
     inkscape:pageshadow="2"
     inkscape:window-width="1920"
     inkscape:window-height="1046"
     id="namedview903"
     showgrid="false"
     inkscape:zoom="4.0855219"
     inkscape:cx="136.42371"
     inkscape:cy="8.7216142"
     inkscape:window-x="-11"
     inkscape:window-y="-11"
     inkscape:window-maximized="1"
     inkscape:current-layer="svg901" />
  <g
     style="fill:#ffffff;fill-opacity:1"
     stroke-width=".16"
     fill="#fff"
     id="g879">
    <path
       style="fill:#ffffff;fill-opacity:1"
       d="M49.779 7.354a.115.115 0 0 1-.115-.114 2.93 2.93 0 0 0-2.743-2.901.115.115 0 1 1 .014-.229 3.16 3.16 0 0 1 2.959 3.129.115.115 0 0 1-.114.116h-.001z"
       id="path873">
      <animate
         dur="5s"
         values="white; #4e86b1; #d7d7d7; white"
         keyTimes="0; 0.5; 0.7; 1"
         attributeName="fill"
         repeatCount="indefinite" />
    </path>
    <path
       style="fill:#ffffff;fill-opacity:1"
       d="M48.838 7.354a.115.115 0 0 1-.115-.114 1.975 1.975 0 0 0-1.806-1.958.115.115 0 1 1 .02-.229 2.204 2.204 0 0 1 2.015 2.185.115.115 0 0 1-.114.116z"
       id="path875">
      <animate
         dur="4s"
         values="white; #4e86b1; #d7d7d7; white"
         keyTimes="0; 0.5; 0.7; 1"
         attributeName="fill"
         repeatCount="indefinite" />
    </path>
    <path
       style="fill:#ffffff;fill-opacity:1"
       d="M47.948 7.354a.115.115 0 0 1-.115-.113 1.09 1.09 0 0 0-.923-1.064.115.115 0 0 1 .036-.227 1.32 1.32 0 0 1 1.117 1.287.115.115 0 0 1-.113.117z"
       id="path877">
      <animate
         dur="2s"
         values="white; #4e86b1; #d7d7d7; white"
         keyTimes="0; 0.5; 0.7; 1"
         attributeName="fill"
         repeatCount="indefinite" />
    </path>
  </g>
  <path
     style="fill:#ffffff;fill-opacity:1"
     d="M46.785 6.617a.568.568 0 0 0-.567.567.568.568 0 0 0 .567.567.568.568 0 0 0 .567-.567.568.568 0 0 0-.567-.567zm0 .214a.352.352 0 1 1-.353.353c0-.195.157-.352.352-.352z"
     font-family="sans-serif"
     fill="#fff"
     id="path881">
    <animate
       dur="3s"
       values="white; #4e86b1; #d7d7d7; white"
       keyTimes="0; 0.5; 0.7; 1"
       attributeName="fill"
       repeatCount="indefinite" />
  </path>
  <g
     style="fill:#ffffff;fill-opacity:1"
     stroke-width=".16"
     fill="#fff"
     id="g891">
    <path
       style="fill:#ffffff;fill-opacity:1"
       d="M43.635 7.088a.115.115 0 0 1 .114.115 2.93 2.93 0 0 0 2.731 2.912.115.115 0 1 1-.015.229 3.16 3.16 0 0 1-2.946-3.141.115.115 0 0 1 .115-.115z"
       id="path885">
      <animate
         dur="5s"
         values="white; #4e86b1; #d7d7d7; white"
         keyTimes="0; 0.5; 0.7; 1"
         attributeName="fill"
         repeatCount="indefinite" />
    </path>
    <path
       style="fill:#ffffff;fill-opacity:1"
       d="M44.575 7.092a.115.115 0 0 1 .114.114 1.975 1.975 0 0 0 1.798 1.965.115.115 0 1 1-.021.229 2.204 2.204 0 0 1-2.006-2.193.115.115 0 0 1 .114-.115z"
       id="path887">
      <animate
         dur="4s"
         values="white; #4e86b1; #d7d7d7; white"
         keyTimes="0; 0.5; 0.7; 1"
         attributeName="fill"
         repeatCount="indefinite" />
    </path>
    <path
       style="fill:#ffffff;fill-opacity:1"
       d="M45.465 7.096a.115.115 0 0 1 .114.114 1.09 1.09 0 0 0 .919 1.067.115.115 0 0 1-.036.227 1.32 1.32 0 0 1-1.112-1.291.115.115 0 0 1 .114-.116h.002z"
       id="path889">
      <animate
         dur="2s"
         values="white; #4e86b1; #d7d7d7; white"
         keyTimes="0; 0.5; 0.7; 1"
         attributeName="fill"
         repeatCount="indefinite" />
    </path>
  </g>
  <rect
     rx="2.328"
     ry="2.506"
     y="1.838"
     x="23.486"
     height="10.532"
     width="10.627"
     fill="none"
     stroke="#fff"
     stroke-width=".198"
     stroke-linejoin="round"
     stroke-dashoffset=".337"
     id="rect893"
     style="stroke-width:0.19799934;stroke-miterlimit:4;stroke-dasharray:none;stroke:#ffffff;stroke-opacity:1" />
  <rect
     style="stroke:#ffffff;stroke-width:0.197999;stroke-miterlimit:4;stroke-dasharray:none;stroke-opacity:1"
     id="rect893-6"
     stroke-dashoffset="0.337"
     stroke-linejoin="round"
     stroke-width=".198"
     stroke="#fff"
     fill="none"
     width="10.627"
     height="10.532"
     x="5.5495906"
     y="2.1064579"
     ry="2.506"
     rx="2.3280001" />
  <g
     style="font-size:17.6388px;line-height:1.25;font-family:sans-serif;stroke-width:0.264582;fill:#ffffff;fill-opacity:1"
     id="text944"
     aria-label="API">
    <path
       id="path848"
       style="font-style:normal;font-variant:normal;font-weight:normal;font-stretch:normal;font-size:2.82221px;font-family:Orbitron;-inkscape-font-specification:Orbitron;stroke-width:0.264582;fill:#ffffff;fill-opacity:1"
       d="m 8.8366677,4.7604167 h 1.3546613 q 0.14111,0 0.239887,0.098777 0.09878,0.098777 0.09878,0.2398878 V 6.792408 H 10.301395 V 6.0501667 H 8.7266015 V 6.792408 H 8.4980025 V 5.0990819 q 0,-0.1411105 0.098777,-0.2398878 0.098777,-0.098777 0.2398878,-0.098777 z M 8.7266015,5.8215677 H 10.301395 V 5.0990819 q 0,-0.045155 -0.03387,-0.0762 -0.03104,-0.033867 -0.0762,-0.033867 H 8.8366677 q -0.045155,0 -0.079022,0.033867 -0.031044,0.031044 -0.031044,0.0762 z" />
    <path
       id="path850"
       style="font-style:normal;font-variant:normal;font-weight:normal;font-stretch:normal;font-size:2.82221px;font-family:Orbitron;-inkscape-font-specification:Orbitron;stroke-width:0.264582;fill:#ffffff;fill-opacity:1"
       d="m 10.851549,4.7632389 h 1.693326 q 0.141111,0 0.239888,0.098777 0.09878,0.098777 0.09878,0.2398879 v 0.5954863 q 0,0.1411105 -0.09878,0.2398878 -0.09878,0.098777 -0.239888,0.098777 h -1.354661 q -0.0254,0 -0.110066,-0.011289 V 6.792408 h -0.228599 z m 1.803393,0.9341516 V 5.1019042 q 0,-0.045155 -0.03387,-0.0762 -0.03104,-0.033866 -0.0762,-0.033866 h -1.354661 q -0.04515,0 -0.07902,0.033866 -0.03105,0.031044 -0.03105,0.0762 v 0.5954863 q 0,0.045155 0.03105,0.0762 0.03387,0.031044 0.07902,0.031044 h 1.354661 q 0.04516,0 0.0762,-0.031044 0.03387,-0.031044 0.03387,-0.0762 z" />
    <path
       id="path852"
       style="font-style:normal;font-variant:normal;font-weight:normal;font-stretch:normal;font-size:2.82221px;font-family:Orbitron;-inkscape-font-specification:Orbitron;stroke-width:0.264582;fill:#ffffff;fill-opacity:1"
       d="M 13.086784,6.792408 V 4.7604167 h 0.228599 V 6.792408 Z" />
  </g>
  <g
     style="font-size:17.6388px;line-height:1.25;font-family:sans-serif;stroke-width:0.264582;fill:#ffffff;fill-opacity:1"
     id="text948"
     aria-label="SDK">
    <path
       id="path855"
       style="font-style:normal;font-variant:normal;font-weight:normal;font-stretch:normal;font-size:2.82221px;font-family:Orbitron;-inkscape-font-specification:Orbitron;stroke-width:0.264582;fill:#ffffff;fill-opacity:1"
       d="m 9.7775513,8.8591938 v 0.079022 h -0.228599 v -0.079022 q 0,-0.045155 -0.033867,-0.0762 -0.031044,-0.033867 -0.0762,-0.033867 H 8.0842253 q -0.045155,0 -0.079022,0.033867 -0.031044,0.031044 -0.031044,0.0762 v 0.4543758 q 0,0.045155 0.031044,0.0762 0.033867,0.031044 0.079022,0.031044 h 1.3546608 q 0.1411105,0 0.2398879,0.098777 0.098777,0.098777 0.098777,0.2398879 v 0.4543762 q 0,0.14111 -0.098777,0.239887 -0.098777,0.09878 -0.2398879,0.09878 H 8.0842253 q -0.1411105,0 -0.2398879,-0.09878 -0.098777,-0.09878 -0.098777,-0.239887 v -0.07902 h 0.228599 v 0.07902 q 0,0.04515 0.031044,0.07902 0.033867,0.03105 0.079022,0.03105 h 1.3546608 q 0.045155,0 0.0762,-0.03105 0.033867,-0.03387 0.033867,-0.07902 V 9.7594788 q 0,-0.045155 -0.033867,-0.0762 -0.031044,-0.031044 -0.0762,-0.031044 H 8.0842253 q -0.1411105,0 -0.2398879,-0.098777 -0.098777,-0.098777 -0.098777,-0.2398878 V 8.8591938 q 0,-0.1411105 0.098777,-0.2398879 0.098777,-0.098777 0.2398879,-0.098777 h 1.3546608 q 0.1411105,0 0.2398879,0.098777 0.098777,0.098777 0.098777,0.2398879 z" />
    <path
       id="path857"
       style="font-style:normal;font-variant:normal;font-weight:normal;font-stretch:normal;font-size:2.82221px;font-family:Orbitron;-inkscape-font-specification:Orbitron;stroke-width:0.264582;fill:#ffffff;fill-opacity:1"
       d="m 10.085922,8.5205285 h 1.693326 q 0.14111,0 0.239888,0.098777 0.09878,0.098777 0.09878,0.2398879 v 1.3546612 q 0,0.14111 -0.09878,0.239887 -0.09878,0.09878 -0.239888,0.09878 h -1.693326 z m 1.803392,1.6933265 V 8.8591938 q 0,-0.045155 -0.03387,-0.0762 -0.03104,-0.033867 -0.0762,-0.033867 h -1.354661 q -0.04516,0 -0.07902,0.033867 -0.03104,0.031044 -0.03104,0.0762 v 1.3546612 q 0,0.04515 0.03104,0.07902 0.03387,0.03105 0.07902,0.03105 h 1.354661 q 0.04515,0 0.0762,-0.03105 0.03387,-0.03387 0.03387,-0.07902 z" />
    <path
       id="path859"
       style="font-style:normal;font-variant:normal;font-weight:normal;font-stretch:normal;font-size:2.82221px;font-family:Orbitron;-inkscape-font-specification:Orbitron;stroke-width:0.264582;fill:#ffffff;fill-opacity:1"
       d="m 14.079305,8.5205285 h 0.29351 L 13.52333,9.5365242 14.375637,10.55252 H 14.079305 L 13.322953,9.6522348 H 12.6682 V 10.55252 H 12.436779 V 8.5205285 H 12.6682 v 0.9002851 h 0.654753 z" />
  </g>
  <rect
     style="stroke:#ffffff;stroke-width:0.197999;stroke-miterlimit:4;stroke-dasharray:none;stroke-opacity:1"
     id="rect893-1"
     stroke-dashoffset="0.337"
     stroke-linejoin="round"
     stroke-width=".198"
     stroke="#fff"
     fill="none"
     width="10.627"
     height="10.532"
     x="41.461472"
     y="1.8774756"
     ry="2.506"
     rx="2.3280001" />
  <g
     transform="translate(-1.8780688,16.060726)"
     style="font-size:24.2348px;line-height:1.25;font-family:sans-serif;stroke-width:0.363522;fill:#ffffff;fill-opacity:1"
     id="text864"
     aria-label="E">
    <path
       id="path866"
       style="font-style:normal;font-variant:normal;font-weight:normal;font-stretch:normal;font-size:7.27046px;font-family:Orbitron;-inkscape-font-specification:Orbitron;stroke-width:0.363522;fill:#ffffff;fill-opacity:1"
       d="m 33.125116,-11.32247 v 0.588907 h -4.187785 v 1.73037 h 3.366223 v 0.5961777 h -3.366223 v 1.7303695 h 4.187785 v 0.5889073 H 28.348424 V -11.32247 Z" />
  </g>
</svg>
