<?xml version="1.0" encoding="iso-8859-1"?>
<!-- Generator: Adobe Illustrator 21.1.0, SVG Export Plug-In . SVG Version: 6.00 Build 0)  -->
<svg version="1.1" id="Layer_2" xmlns="http://www.w3.org/2000/svg" xmlns:xlink="http://www.w3.org/1999/xlink" x="0px" y="0px" width="215.653"
   height="51.717"
	 viewBox="0 0 215.653 51.717" style="enable-background:new 0 0 215.653 51.717;" xml:space="preserve">
<g>
	<g>
		<path style="fill:#FFFFFF;" d="M52.042,48.143l-21.808-0.001c-5.244,0-9.51-4.266-9.51-9.509V16.901
			c-0.042-5.241,4.188-9.542,9.432-9.585h21.848c5.244,0,9.509,4.266,9.509,9.509v21.77c0.011,2.535-0.97,4.926-2.761,6.731
			C56.963,47.132,54.58,48.132,52.042,48.143L52.042,48.143z M30.159,8.156c-4.782,0-8.705,3.89-8.744,8.672V38.67
			c0,4.821,3.923,8.745,8.745,8.746l21.846-0.001c4.822,0,8.745-3.923,8.745-8.745v-21.77c0-4.822-3.923-8.745-8.745-8.745H30.159z"
			/>
	</g>
</g>
<g>
	<g>
		<path style="fill:#FFFFFF;" d="M119.769,48.143l-21.808-0.001c-5.244,0-9.51-4.266-9.51-9.509V16.901
			c-0.042-5.241,4.188-9.542,9.432-9.585h21.848c5.244,0,9.509,4.266,9.509,9.509v21.77c0.011,2.535-0.97,4.926-2.761,6.731
			C124.69,47.132,122.306,48.132,119.769,48.143L119.769,48.143z M97.886,8.156c-4.782,0-8.705,3.89-8.744,8.672V38.67
			c0,4.821,3.923,8.745,8.745,8.746l21.846-0.001c4.822,0,8.745-3.923,8.745-8.745v-21.77c0-4.822-3.923-8.745-8.745-8.745H97.886z"
			/>
	</g>
</g>
<g>
	<g>
		<path style="fill:#FFFFFF;" d="M187.704,48.143l-21.808-0.001c-5.244,0-9.51-4.266-9.51-9.509V16.901
			c-0.042-5.241,4.188-9.542,9.432-9.585h21.848c5.244,0,9.509,4.266,9.509,9.509v21.77c0.011,2.535-0.97,4.926-2.761,6.731
			C192.625,47.132,190.241,48.132,187.704,48.143L187.704,48.143z M165.821,8.156c-4.782,0-8.705,3.89-8.744,8.672V38.67
			c0,4.821,3.923,8.745,8.745,8.746l21.846-0.001c4.822,0,8.745-3.923,8.745-8.745v-21.77c0-4.822-3.923-8.745-8.745-8.745H165.821z
			"/>
	</g>
</g>
<path style="fill:#FFFFFF;" d="M32.843,16.75h5.291c0.731,0,1.323,0.592,1.323,1.323l0,0v6.614H38.55v-2.91h-6.123v2.91H31.52
	v-6.614C31.52,17.342,32.112,16.75,32.843,16.75L32.843,16.75z M32.427,20.87h6.123v-2.797c0.038-0.097,0.038-0.205,0-0.302
	c-0.097-0.038-0.205-0.038-0.302,0h-5.367c-0.097-0.038-0.205-0.038-0.302,0c-0.038,0.097-0.038,0.205,0,0.302L32.427,20.87z"/>
<path style="fill:#FFFFFF;" d="M40.704,16.75h6.614c0.731,0,1.323,0.592,1.323,1.323l0,0v2.343c0,0.731-0.592,1.323-1.323,1.323l0,0
	h-5.745v2.986h-0.907L40.704,16.75z M47.734,20.53v-2.419c0-0.23-0.186-0.416-0.416-0.416h-5.291c-0.23,0-0.416,0.186-0.416,0.416
	v2.305c-0.042,0.096-0.042,0.206,0,0.302c0.097,0.038,0.205,0.038,0.302,0h5.253c0.097,0.038,0.205,0.038,0.302,0
	c0.139-0.042,0.242-0.159,0.265-0.302v0.114H47.734z"/>
<path style="fill:#FFFFFF;" d="M49.435,24.687V16.75h0.907v7.937H49.435z"/>
<path style="fill:#FFFFFF;" d="M36.056,32.283v0.302h-0.907v-0.302c0.038-0.097,0.038-0.205,0-0.302
	c-0.097-0.038-0.205-0.038-0.302,0H29.48c-0.23,0-0.416,0.186-0.416,0.416v1.625c-0.042,0.096-0.042,0.206,0,0.302
	c0.097,0.038,0.205,0.038,0.302,0h5.291c0.731,0,1.323,0.592,1.323,1.323l0,0v1.776c0,0.731-0.592,1.323-1.323,1.323l0,0h-5.216
	c-0.354,0.009-0.695-0.127-0.945-0.378c-0.251-0.25-0.387-0.591-0.378-0.945v-0.151h0.907v0.302c0.082,0.17,0.268,0.263,0.454,0.227
	h5.253c0.23,0,0.416-0.186,0.416-0.416v-1.587c0.042-0.096,0.042-0.206,0-0.302c-0.097-0.038-0.205-0.038-0.302,0h-5.405
	c-0.73-0.016-1.309-0.621-1.293-1.352c0.001-0.041,0.004-0.082,0.008-0.122v-1.739c0-0.731,0.592-1.323,1.323-1.323l0,0h5.291
	c0.731,0,1.323,0.592,1.323,1.323l0,0C36.093,32.283,36.056,32.283,36.056,32.283z"/>
<path style="fill:#FFFFFF;" d="M37.265,30.961h6.614c0.731,0,1.323,0.592,1.323,1.323l0,0v5.291c0,0.731-0.592,1.323-1.323,1.323
	l0,0h-6.614V30.961z M44.295,37.537v-5.253c0-0.23-0.186-0.416-0.416-0.416h-5.291c-0.23,0-0.416,0.186-0.416,0.416v5.291
	c0,0.23,0.186,0.416,0.416,0.416h5.253c0.23,0,0.416-0.186,0.416-0.416L44.295,37.537z"/>
<path style="fill:#FFFFFF;" d="M52.912,30.961h1.134L50.72,34.74l3.326,3.779h-1.134l-2.948-3.515h-2.57v3.515h-0.907V30.96h0.907
	v3.515h2.57L52.912,30.961z"/>
<path style="fill:#FFFFFF;" d="M117.955,17.922v2.268h-15.911v6.576h12.812v2.268h-12.812v6.538h15.949v2.23H99.739v-19.88
	C99.739,17.922,117.955,17.922,117.955,17.922z"/>
<path id="wifi2" style="fill:#FFFFFF;fill-opacity:0.3;" d="M176.763,19.811c3.688-0.004,7.25,1.34,10.015,3.779
	c0.449,0.407,0.483,1.101,0.076,1.55s-1.101,0.483-1.55,0.076l0,0c-4.864-4.35-12.219-4.35-17.083,0
	c-0.449,0.407-1.143,0.373-1.55-0.076s-0.373-1.143,0.076-1.55l0,0C169.513,21.152,173.075,19.808,176.763,19.811">
<animate  accumulate="none" additive="replace" attributeName="fill-opacity" begin="three.end+0.08s" calcMode="linear" dur="0.1ms" fill="remove" id="four" restart="always" values="0.5;1;0.5">
		</animate>
	
		<animate  accumulate="none" additive="replace" attributeName="fill-opacity" begin="two.end+0.05s" calcMode="linear" dur="400ms" fill="remove" id="three" restart="always" values="0.5;1;0.5">
		</animate>
</path>
<path id="wifi1" style="fill:#FFFFFF;fill-opacity:0.3;" d="M176.763,26.463c2.097,0,4.118,0.782,5.669,2.192
	c0.449,0.407,0.483,1.101,0.076,1.55s-1.101,0.483-1.55,0.076l0,0c-2.385-2.145-6.005-2.145-8.39,0
	c-0.449,0.407-1.143,0.373-1.55-0.076s-0.373-1.143,0.076-1.55C172.647,27.248,174.667,26.467,176.763,26.463">
<animate  accumulate="none" additive="replace" attributeName="fill-opacity" begin="one.end+0.05s" calcMode="linear" dur="400ms" fill="remove" id="two" restart="always" values="0.5;1;0.5">
		</animate>
</path>
<path id="wifi1_1_" style="fill:#FFFFFF;fill-opacity:0.3;" d="M176.763,33.115c0.939,0,1.701,0.761,1.701,1.701
	c0,0.939-0.761,1.701-1.701,1.701c-0.939,0-1.701-0.761-1.701-1.701S175.824,33.115,176.763,33.115L176.763,33.115">
<animate  accumulate="none" additive="replace" attributeName="fill-opacity" begin="0s;four.end+0.05s" calcMode="linear" dur="400ms" fill="remove" id="one" restart="always" values="0.5;1;0.5">
		</animate>
</path>
</svg>
