<svg xmlns="http://www.w3.org/2000/svg" id="svg901" version="1.1" width="215.653" height="51.717" viewBox="0 0 57.058 13.683"><path d="M49.625 6.619a.207.207 0 01-.29.014 3.552 3.552 0 00-4.791.015.207.207 0 11-.28-.305 3.963 3.963 0 015.346-.016.207.207 0 01.015.292z" id="path875" fill="white" fill-opacity="1" stroke="white" stroke-width=".208" stroke-miterlimit="4" stroke-dasharray="none" stroke-opacity="1"/>


<path d="M48.544 7.799a.207.207 0 01-.29.015 1.96 1.96 0 00-2.532-.07.207.207 0 01-.257-.323 2.374 2.374 0 013.063.083.207.207 0 01.018.292z" id="path877" fill="white" fill-opacity="1" stroke="white" stroke-width=".208" stroke-miterlimit="4" stroke-dasharray="none" stroke-opacity="1"/><rect id="rect893" stroke-dashoffset=".337" stroke-linejoin="round" stroke-width=".198" stroke="white" fill="none" width="10.627" height="10.532" x="23.486" y="2.113" ry="2.506" rx="2.328" fill-opacity="1" stroke-miterlimit="4" stroke-dasharray="none" stroke-opacity="1"/><rect rx="2.328" ry="2.506" y="2.106" x="5.55" height="10.532" width="10.627" fill="none" stroke="white" stroke-width=".198" stroke-linejoin="round" stroke-dashoffset=".337" id="rect893-6" stroke-miterlimit="4" stroke-dasharray="none" stroke-opacity="1" fill-opacity="1"/>

<g aria-label="API" id="text944" style="line-height:1.25" font-size="2.822" font-family="Orbitron" stroke-width=".265" fill="white" fill-opacity="1" stroke="none" stroke-opacity="1" font-style="normal" font-variant="normal" font-weight="400" font-stretch="normal">


<path d="M8.837 4.76h1.354q.141 0 .24.1.099.098.099.24v1.692h-.229V6.05H8.727v.742h-.229V5.1q0-.141.099-.24t.24-.099zm-.11 1.062H10.3v-.723q0-.045-.033-.076-.032-.034-.077-.034H8.837q-.045 0-.08.034-.03.03-.03.076z" style="-inkscape-font-specification:Orbitron" id="path848"/>



<path d="M10.852 4.763h1.693q.141 0 .24.099t.099.24v.595q0 .142-.1.24-.098.1-.24.1H11.19q-.025 0-.11-.012v.767h-.228zm1.803.934v-.595q0-.045-.034-.076-.031-.034-.076-.034H11.19q-.045 0-.079.034-.03.03-.03.076v.595q0 .046.03.077.034.03.08.03h1.354q.045 0 .076-.03.034-.031.034-.077z" style="-inkscape-font-specification:Orbitron" id="path850"/>



<path d="M13.087 6.792V4.76h.228v2.032z" style="-inkscape-font-specification:Orbitron" id="path852"/></g><g aria-label="SDK" id="text948" style="line-height:1.25" font-size="2.822" font-family="Orbitron" stroke-width=".265" fill="white" fill-opacity="1" stroke="none" stroke-opacity="1" font-style="normal" font-variant="normal" font-weight="400" font-stretch="normal">


<path d="M9.778 8.86v.078h-.229V8.86q0-.045-.034-.076-.031-.034-.076-.034H8.084q-.045 0-.079.034-.03.031-.03.076v.455q0 .045.03.076.034.03.08.03h1.354q.141 0 .24.1.099.098.099.24v.454q0 .141-.1.24-.098.099-.24.099H8.085q-.14 0-.24-.1-.098-.098-.098-.24v-.078h.228v.079q0 .045.031.079.034.03.08.03h1.354q.045 0 .076-.03.034-.034.034-.08V9.76q0-.045-.034-.076-.031-.03-.076-.03H8.084q-.14 0-.24-.1-.098-.098-.098-.24V8.86q0-.14.098-.24.1-.098.24-.098H9.44q.141 0 .24.098.099.1.099.24z" style="-inkscape-font-specification:Orbitron" id="path855"/>


<path d="M10.086 8.52h1.693q.141 0 .24.1.099.098.099.24v1.354q0 .141-.099.24t-.24.099h-1.693zm1.803 1.694V8.859q0-.045-.034-.076-.03-.034-.076-.034h-1.354q-.046 0-.08.034-.03.031-.03.076v1.355q0 .045.03.079.034.03.08.03h1.354q.045 0 .076-.03.034-.034.034-.08z" style="-inkscape-font-specification:Orbitron" id="path857"/>


<path d="M14.08 8.52h.293l-.85 1.017.853 1.016h-.297l-.756-.9h-.655v.9h-.231V8.52h.231v.9h.655z" style="-inkscape-font-specification:Orbitron" id="path859"/></g>


<rect rx="2.328" ry="2.506" y="2.015" x="41.461" height="10.532" width="10.627" fill="none" stroke="white" stroke-width=".198" stroke-linejoin="round" stroke-dashoffset=".337" id="rect893-1" fill-opacity="1" stroke-miterlimit="4" stroke-dasharray="none" stroke-opacity="1"/>


<g aria-label="E" id="text864" style="line-height:1.25" transform="translate(-1.878 16.244)" font-size="24.235" font-family="sans-serif" fill="white" fill-opacity="1" stroke="none" stroke-width=".364" stroke-opacity="1"><path d="M33.125-11.322v.588h-4.188v1.73h3.367v.597h-3.367v1.73h4.188v.59h-4.777v-5.235z" style="-inkscape-font-specification:Orbitron" id="path866" font-style="normal" font-variant="normal" font-weight="400" font-stretch="normal" font-size="7.27" font-family="Orbitron" fill="white" fill-opacity="1" stroke="none" stroke-width=".364" stroke-opacity="1"/></g><circle r=".397" cy="8.907" cx="46.984" id="path854" fill="white" fill-opacity="1" stroke="white" stroke-width=".256" stroke-linecap="round" stroke-linejoin="round" stroke-miterlimit="4" stroke-dasharray="none" stroke-opacity="1" paint-order="markers fill stroke"/>



<path id="path856" d="M16.635 5.68h6.658" fill="none" stroke="white" stroke-width=".254" stroke-linecap="round" stroke-linejoin="round" stroke-miterlimit="4" stroke-dasharray=".25381,.507621" stroke-dashoffset="0" stroke-opacity="1">
	 <animate id="p1" attributeName="stroke-dashoffset" begin="0s;f1.end+0s" values="2000;0;2000" dur="1000s" 
	 calcMode="linear"/>
     </path>
     

<path d="M16.563 9.342h6.658" id="path856-9" fill="none" stroke="white" stroke-width=".254" stroke-linecap="round" stroke-linejoin="round" stroke-miterlimit="4" stroke-dasharray=".25381,.50762" stroke-dashoffset="0" stroke-opacity="1">
<animate id="p1" attributeName="stroke-dashoffset" begin="0s;f1.end+0s" values="-2000;0;-2000" dur="1000s" 
	 calcMode="linear"/>
     </path>



<path d="M34.585 5.403h6.658" id="path856-1" fill="none" stroke="white" stroke-width=".254" stroke-linecap="round" stroke-linejoin="round" stroke-miterlimit="4" stroke-dasharray=".25381,.50762" stroke-dashoffset="0" stroke-opacity="1">
	 <animate id="p1" attributeName="stroke-dashoffset" begin="0s;f1.end+0s" values="-2000;0;-2000" dur="1000s" 
	 calcMode="linear"/>
     </path>
     

<path id="path856-9-5" d="M34.554 9.342h6.658" fill="none" stroke="white" stroke-width=".254" stroke-linecap="round" stroke-linejoin="round" stroke-miterlimit="4" stroke-dasharray=".25381,.50762" stroke-dashoffset="0" stroke-opacity="1">
<animate id="p1" attributeName="stroke-dashoffset" begin="0s;f1.end+0s" values="2000;0;2000" dur="1000s" 
	 calcMode="linear"/>
     </path>






</svg>
