<svg xmlns="http://www.w3.org/2000/svg" viewBox="0 0 57.058 13.683" height="51.717" width="215.653" version="1.1" id="svg901"><path stroke-opacity="1" stroke-dasharray="none" stroke-miterlimit="4" stroke-width=".208" stroke="#fff" fill-opacity="1" fill="#fff" id="path875" d="M49.625 6.619a.207.207 0 01-.29.014 3.552 3.552 0 00-4.791.015.207.207 0 11-.28-.305 3.963 3.963 0 015.346-.016.207.207 0 01.015.292z"/><path stroke-opacity="1" stroke-dasharray="none" stroke-miterlimit="4" stroke-width=".208" stroke="#fff" fill-opacity="1" fill="#fff" id="path877" d="M48.544 7.799a.207.207 0 01-.29.015 1.96 1.96 0 00-2.532-.07.207.207 0 01-.257-.323 2.374 2.374 0 013.063.083.207.207 0 01.018.292z"/><rect stroke-opacity="1" stroke-dasharray="none" stroke-miterlimit="4" fill-opacity="1" rx="2.328" ry="2.506" y="2.113" x="23.486" height="10.532" width="10.627" fill="none" stroke="#fff" stroke-width=".198" stroke-linejoin="round" stroke-dashoffset=".337" id="rect893"/><rect fill-opacity="1" stroke-opacity="1" stroke-dasharray="none" stroke-miterlimit="4" id="rect893-6" stroke-dashoffset=".337" stroke-linejoin="round" stroke-width=".198" stroke="#fff" fill="none" width="10.627" height="10.532" x="5.55" y="2.106" ry="2.506" rx="2.328"/><g font-stretch="normal" font-weight="400" font-variant="normal" font-style="normal" stroke-opacity="1" stroke="none" fill-opacity="1" fill="#fff" stroke-width=".265" font-family="Orbitron" font-size="2.822" style="line-height:1.25" id="text944" aria-label="API"><path id="path848" style="-inkscape-font-specification:Orbitron" d="M8.837 4.76h1.354q.141 0 .24.1.099.098.099.24v1.692h-.229V6.05H8.727v.742h-.229V5.1q0-.141.099-.24t.24-.099zm-.11 1.062H10.3v-.723q0-.045-.033-.076-.032-.034-.077-.034H8.837q-.045 0-.08.034-.03.03-.03.076z"/><path id="path850" style="-inkscape-font-specification:Orbitron" d="M10.852 4.763h1.693q.141 0 .24.099t.099.24v.595q0 .142-.1.24-.098.1-.24.1H11.19q-.025 0-.11-.012v.767h-.228zm1.803.934v-.595q0-.045-.034-.076-.031-.034-.076-.034H11.19q-.045 0-.079.034-.03.03-.03.076v.595q0 .046.03.077.034.03.08.03h1.354q.045 0 .076-.03.034-.031.034-.077z"/><path id="path852" style="-inkscape-font-specification:Orbitron" d="M13.087 6.792V4.76h.228v2.032z"/></g><g font-stretch="normal" font-weight="400" font-variant="normal" font-style="normal" stroke-opacity="1" stroke="none" fill-opacity="1" fill="#fff" stroke-width=".265" font-family="Orbitron" font-size="2.822" style="line-height:1.25" id="text948" aria-label="SDK"><path id="path855" style="-inkscape-font-specification:Orbitron" d="M9.778 8.86v.078h-.229V8.86q0-.045-.034-.076-.031-.034-.076-.034H8.084q-.045 0-.079.034-.03.031-.03.076v.455q0 .045.03.076.034.03.08.03h1.354q.141 0 .24.1.099.098.099.24v.454q0 .141-.1.24-.098.099-.24.099H8.085q-.14 0-.24-.1-.098-.098-.098-.24v-.078h.228v.079q0 .045.031.079.034.03.08.03H9.44q.045 0 .076-.03.034-.034.034-.08V9.76q0-.045-.034-.076-.031-.03-.076-.03H8.084q-.14 0-.24-.1-.098-.098-.098-.24V8.86q0-.14.098-.24.1-.098.24-.098H9.44q.141 0 .24.098.099.1.099.24z"/><path id="path857" style="-inkscape-font-specification:Orbitron" d="M10.086 8.52h1.693q.141 0 .24.1.099.098.099.24v1.354q0 .141-.099.24t-.24.099h-1.693zm1.803 1.694V8.859q0-.045-.034-.076-.03-.034-.076-.034h-1.354q-.046 0-.08.034-.03.031-.03.076v1.355q0 .045.03.079.034.03.08.03h1.354q.045 0 .076-.03.034-.034.034-.08z"/><path id="path859" style="-inkscape-font-specification:Orbitron" d="M14.08 8.52h.293l-.85 1.017.853 1.016h-.297l-.756-.9h-.655v.9h-.231V8.52h.231v.9h.655z"/></g><rect stroke-opacity="1" stroke-dasharray="none" stroke-miterlimit="4" fill-opacity="1" id="rect893-1" stroke-dashoffset=".337" stroke-linejoin="round" stroke-width=".198" stroke="#fff" fill="none" width="10.627" height="10.532" x="41.461" y="2.015" ry="2.506" rx="2.328"/><g stroke-opacity="1" stroke-width=".364" stroke="none" fill-opacity="1" fill="#fff" font-family="sans-serif" font-size="24.235" transform="translate(-1.878 16.244)" style="line-height:1.25" id="text864" aria-label="E"><path stroke-opacity="1" stroke-width=".364" stroke="none" fill-opacity="1" fill="#fff" font-family="Orbitron" font-size="7.27" font-stretch="normal" font-weight="400" font-variant="normal" font-style="normal" id="path866" style="-inkscape-font-specification:Orbitron" d="M33.125-11.322v.588h-4.188v1.73h3.367v.597h-3.367v1.73h4.188v.59h-4.777v-5.235z"/></g><circle paint-order="markers fill stroke" stroke-opacity="1" stroke-dasharray="none" stroke-miterlimit="4" stroke-linejoin="round" stroke-linecap="round" stroke-width=".256" stroke="#fff" fill-opacity="1" fill="#fff" id="path854" cx="46.984" cy="8.907" r=".397"/><path stroke-opacity="1" stroke-dashoffset="0" stroke-dasharray="0.25381, 0.507621" stroke-miterlimit="4" stroke-linejoin="round" stroke-linecap="round" stroke-width=".254" stroke="#fff" fill="none" d="M16.541 7.274H23.2" id="path856"><animate calcMode="linear" dur="1000s" values="2000;0;2000" repeatCount="indefinite" begin="0s;f1.end+0s" attributeName="stroke-dashoffset" id="p1"/></path><path stroke-opacity="1" stroke-dashoffset="0" stroke-dasharray="0.25381, 0.50762" stroke-miterlimit="4" stroke-linejoin="round" stroke-linecap="round" stroke-width=".254" stroke="#fff" fill="none" id="path856-1" d="M34.491 7.346h6.658"><animate calcMode="linear" dur="1000s" values="-2000;0;-2000" repeatCount="indefinite" begin="0s;f1.end+0s" attributeName="stroke-dashoffset" id="p1"/></path></svg>
