<?xml version="1.0" encoding="UTF-8" standalone="no"?>
<svg
   xmlns:dc="http://purl.org/dc/elements/1.1/"
   xmlns:cc="http://creativecommons.org/ns#"
   xmlns:rdf="http://www.w3.org/1999/02/22-rdf-syntax-ns#"
   xmlns:svg="http://www.w3.org/2000/svg"
   xmlns="http://www.w3.org/2000/svg"
   xmlns:inkscape="http://www.inkscape.org/namespaces/inkscape"
   inkscape:version="1.0 (4035a4fb49, 2020-05-01)"
   sodipodi:docname="sdk1.svg"
   id="svg901"
   version="1.1"
   width="215.653"
   height="51.717"
   viewBox="0 0 57.058 13.683">
   
   
   
   
   
   
   
   






	<g>
	<path style="fill:#FFFFFF;" d="M51.938,47.892H30.18c-5.098,0-9.246-4.147-9.246-9.246V16.888c0-5.098,4.148-9.246,9.246-9.246
		h21.758c5.098,0,9.246,4.148,9.246,9.246v21.758C61.184,43.744,57.036,47.892,51.938,47.892z M30.18,7.892
		c-4.96,0-8.996,4.036-8.996,8.996v21.758c0,4.961,4.036,8.996,8.996,8.996h21.758c4.96,0,8.996-4.035,8.996-8.996V16.888
		c0-4.96-4.036-8.996-8.996-8.996H30.18z"/>
</g>
<g>
	<path style="fill:#FFFFFF;" d="M119.728,47.892H97.97c-5.099,0-9.247-4.147-9.247-9.246V16.888c0-5.098,4.148-9.246,9.247-9.246
		h21.757c5.099,0,9.246,4.148,9.246,9.246v21.758C128.974,43.744,124.826,47.892,119.728,47.892z M97.97,7.892
		c-4.961,0-8.997,4.036-8.997,8.996v21.758c0,4.961,4.036,8.996,8.997,8.996h21.757c4.961,0,8.996-4.035,8.996-8.996V16.888
		c0-4.96-4.035-8.996-8.996-8.996H97.97z"/>
</g>
<g>
	<path style="fill:white;" d="M187.665,47.892h-21.758c-5.099,0-9.246-4.147-9.246-9.246V16.888c0-5.098,4.147-9.246,9.246-9.246
		h21.758c5.099,0,9.246,4.148,9.246,9.246v21.758C196.911,43.744,192.764,47.892,187.665,47.892z M165.907,7.892
		c-4.961,0-8.996,4.036-8.996,8.996v21.758c0,4.961,4.035,8.996,8.996,8.996h21.758c4.961,0,8.996-4.035,8.996-8.996V16.888
		c0-4.96-4.035-8.996-8.996-8.996H165.907z"/>
</g>
<text transform="matrix(1 0 0 1 30.9005 24.6713)" style="fill:#FFFFFF; font-family:'Orbitron-Regular'; font-size:11px;">API</text>
<g>
	<path style="fill:white;" d="M36.071,32.287v0.308h-0.902v-0.304c0-0.115-0.042-0.215-0.126-0.298
		c-0.084-0.083-0.185-0.124-0.302-0.124H29.47c-0.117,0-0.218,0.042-0.302,0.126c-0.084,0.084-0.126,0.184-0.126,0.301v1.764
		c0,0.117,0.042,0.216,0.126,0.296s0.185,0.12,0.303,0.12h5.28c0.367,0,0.678,0.129,0.935,0.385
		c0.257,0.257,0.385,0.568,0.385,0.936v1.771c0,0.367-0.129,0.679-0.386,0.936c-0.257,0.257-0.569,0.385-0.937,0.385h-5.287
		c-0.367,0-0.679-0.13-0.937-0.39c-0.257-0.26-0.385-0.573-0.385-0.941v-0.308h0.902v0.308c0,0.117,0.042,0.219,0.126,0.303
		c0.084,0.084,0.185,0.126,0.302,0.126h5.271c0.117,0,0.218-0.042,0.302-0.126c0.084-0.084,0.126-0.185,0.126-0.301v-1.764
		c0-0.117-0.042-0.215-0.126-0.296c-0.084-0.08-0.185-0.12-0.302-0.12h-5.28c-0.367,0-0.678-0.129-0.935-0.385
		c-0.256-0.257-0.385-0.568-0.385-0.936v-1.771c0-0.367,0.128-0.679,0.385-0.936c0.257-0.257,0.569-0.385,0.937-0.385h5.287
		c0.367,0,0.679,0.128,0.937,0.385C35.942,31.608,36.071,31.92,36.071,32.287z"/>
	<path style="fill:#FFFFFF;" d="M37.259,30.967h6.609c0.367,0,0.679,0.128,0.937,0.385c0.257,0.257,0.385,0.568,0.385,0.936v5.279
		c0,0.367-0.128,0.679-0.385,0.936c-0.257,0.257-0.569,0.385-0.937,0.385h-6.609V30.967z M44.288,37.558v-5.262
		c0-0.116-0.042-0.217-0.126-0.301c-0.084-0.084-0.185-0.126-0.302-0.126h-5.271c-0.117,0-0.218,0.042-0.302,0.126
		c-0.084,0.084-0.126,0.185-0.126,0.301v5.262c0,0.116,0.042,0.217,0.126,0.301c0.084,0.084,0.185,0.126,0.302,0.126h5.271
		c0.117,0,0.218-0.042,0.302-0.126C44.246,37.774,44.288,37.674,44.288,37.558z"/>
	<path style="fill:#FFFFFF;" d="M52.823,30.967h1.144l-3.311,3.96l3.322,3.96h-1.155l-2.948-3.509h-2.552v3.509h-0.902v-7.92h0.902
		v3.509h2.552L52.823,30.967z"/>
</g>
<g>
	<path style="fill:#FFFFFF;" d="M117.955,17.926v2.27h-15.942v6.559h12.814v2.27h-12.814v6.56h15.942v2.27H99.743V17.926H117.955z"
		/>
</g>

















	<path d="M176.782,33.1c0.935,0,1.693,0.758,1.693,1.693s-0.758,1.693-1.693,1.693s-1.693-0.758-1.693-1.693
		S175.847,33.1,176.782,33.1z"
        

     id="dot"
     
     
     

     
     
     
     fill="white"
     fill-opacity="0.3"
     stroke="white"
     stroke-width="0.0"
     stroke-miterlimit="5"
     stroke-dasharray="none"
     stroke-opacity="0"
     
     
     >
     
    
    
    
    <animate
        id="one"
        

        attributeName="fill-opacity"
        dur="400ms"
        values="0.5;1;0.5"
        calcMode="linear"
        begin="0s;four.end+0.05s"/> 
    
    
        </path>  
        
        
        
        
        
        

		<path  d="M176.787,26.297c2.104,0,4.117,0.777,5.669,2.186c0.45,0.408,0.483,1.104,0.075,1.554
			c-0.218,0.24-0.517,0.361-0.816,0.361c-0.264,0-0.528-0.095-0.738-0.286c-1.146-1.041-2.635-1.615-4.19-1.615
			c-1.554,0-3.047,0.575-4.204,1.618c-0.21,0.189-0.474,0.282-0.736,0.282c-0.301,0-0.6-0.122-0.817-0.363
			c-0.406-0.451-0.37-1.146,0.081-1.554C172.671,27.073,174.687,26.297,176.787,26.297z" 
            

     
     
          
          fill="white"
     fill-opacity="0.3"
     stroke="white"
     stroke-width="0.0"
     stroke-miterlimit="5"
     stroke-dasharray="none"
     stroke-opacity="0" 
    
     >
     
     
     
     
    		<animate
        id="two"
        attributeName="fill-opacity"
        dur="400ms"
        values="0.5;1;0.5"
        calcMode="linear"
        begin="one.end+0.05s"/>                
 

  </path> 
    
    
 
 
    
    

		<path  d="M176.787,19.807c3.707,0,7.264,1.361,10.015,3.832c0.452,0.406,0.489,1.102,0.083,1.554
			c-0.218,0.242-0.518,0.365-0.818,0.365c-0.263,0-0.525-0.093-0.735-0.282c-2.346-2.108-5.38-3.269-8.544-3.269
			s-6.199,1.161-8.545,3.269c-0.21,0.188-0.473,0.281-0.735,0.281c-0.301,0-0.601-0.123-0.818-0.364
			c-0.406-0.452-0.369-1.147,0.083-1.554C169.522,21.168,173.079,19.807,176.787,19.807z"
            
 
 
 
 
 id="wifi2"
     fill="white"
     fill-opacity="0.3"
     stroke="white"
     stroke-width="0.0"
     stroke-miterlimit="5"
     stroke-dasharray="none"
     stroke-opacity="0" >
     
     
     
       <animate
        id="four"
        attributeName="fill-opacity"
        dur="0.1ms"
        values="0.5;1;0.5"
        calcMode="linear"
        begin="three.end+0.08s"/> 
        
        
		<animate
        id="three"
        attributeName="fill-opacity"
        dur="400ms"
        values="0.5;1;0.5"
        calcMode="linear"
        begin="two.end+0.05s"/>   
     
     
    </path> 
     
     
    
    
    
    
    
    
    

</svg>
