<?xml version="1.0" encoding="iso-8859-1"?>
<!-- Generator: Adobe Illustrator 21.1.0, SVG Export Plug-In . SVG Version: 6.00 Build 0)  -->
<svg version="1.1" id="Layer_2" xmlns="http://www.w3.org/2000/svg" xmlns:xlink="http://www.w3.org/1999/xlink" x="0px" y="0px"
	 viewBox="0 0 215.653 51.717" style="enable-background:new 0 0 215.653 51.717;" xml:space="preserve">
<title>3 signs</title>
<g>
	<path style="fill:#FFFFFF;" d="M52.043,48.018l-0.114-0.001H30.235c-5.175,0-9.385-4.21-9.385-9.384V16.901
		c-0.042-5.173,4.133-9.417,9.308-9.46h21.847c5.174,0,9.384,4.21,9.384,9.384v21.77C61.411,43.769,57.218,47.996,52.043,48.018z
		 M30.159,8.031c-4.857,0-8.829,3.93-8.869,8.796l0,0.075V38.67c0,4.891,3.979,8.87,8.87,8.871l21.846-0.001
		c4.891,0,8.87-3.979,8.87-8.87V16.901c0-4.891-3.979-8.87-8.87-8.87H30.234C30.209,8.031,30.184,8.031,30.159,8.031z"/>
</g>
<g>
	<path style="fill:#FFFFFF;" d="M119.771,48.018l-0.114-0.001H97.962c-5.175,0-9.385-4.21-9.385-9.384V16.901
		c-0.042-5.173,4.133-9.417,9.308-9.46h21.847c5.174,0,9.384,4.21,9.384,9.384v21.77C129.138,43.769,124.945,47.996,119.771,48.018z
		 M97.886,8.031c-4.857,0-8.829,3.93-8.869,8.796l0,0.075V38.67c0,4.891,3.979,8.87,8.87,8.871l21.846-0.001
		c4.891,0,8.87-3.979,8.87-8.87V16.901c0-4.891-3.979-8.87-8.87-8.87H97.961C97.937,8.031,97.911,8.031,97.886,8.031z"/>
</g>
<g>
	<path style="fill:#FFFFFF;" d="M187.705,48.018l-0.114-0.001h-21.694c-5.175,0-9.385-4.21-9.385-9.384V16.901
		c-0.042-5.173,4.133-9.417,9.308-9.46h21.847c5.174,0,9.384,4.21,9.384,9.384v21.77C197.073,43.769,192.88,47.996,187.705,48.018z
		 M165.821,8.031c-4.857,0-8.829,3.93-8.869,8.796l0,0.075V38.67c0,4.891,3.979,8.87,8.87,8.871l21.846-0.001
		c4.891,0,8.87-3.979,8.87-8.87V16.901c0-4.891-3.979-8.87-8.87-8.87h-21.771C165.871,8.031,165.846,8.031,165.821,8.031z"/>
</g>
<path style="fill:#FFFFFF;" d="M32.843,16.75h5.291c0.731,0,1.323,0.592,1.323,1.323c0,0,0,0,0,0v6.614H38.55v-2.91h-6.123v2.91
	H31.52v-6.614C31.52,17.342,32.112,16.75,32.843,16.75C32.843,16.75,32.843,16.75,32.843,16.75z M32.427,20.87h6.123v-2.797
	c0.038-0.097,0.038-0.205,0-0.302c-0.097-0.038-0.205-0.038-0.302,0h-5.367c-0.097-0.038-0.205-0.038-0.302,0
	c-0.038,0.097-0.038,0.205,0,0.302L32.427,20.87z"/>
<path style="fill:#FFFFFF;" d="M40.704,16.75h6.614c0.731,0,1.323,0.592,1.323,1.323c0,0,0,0,0,0v2.343
	c0,0.731-0.592,1.323-1.323,1.323l0,0h-5.745v2.986h-0.907L40.704,16.75z M47.734,20.53v-2.419c0-0.23-0.186-0.416-0.416-0.416
	h-5.291c-0.23,0-0.416,0.186-0.416,0.416v2.305c-0.042,0.096-0.042,0.206,0,0.302c0.097,0.038,0.205,0.038,0.302,0h5.253
	c0.097,0.038,0.205,0.038,0.302,0c0.139-0.042,0.242-0.159,0.265-0.302V20.53z"/>
<path style="fill:#FFFFFF;" d="M49.435,24.687V16.75h0.907v7.937L49.435,24.687z"/>
<path style="fill:#FFFFFF;" d="M36.056,32.283v0.302h-0.907v-0.302c0.038-0.097,0.038-0.205,0-0.302
	c-0.097-0.038-0.205-0.038-0.302,0h-5.367c-0.23,0-0.416,0.186-0.416,0.416v1.625c-0.042,0.096-0.042,0.206,0,0.302
	c0.097,0.038,0.205,0.038,0.302,0h5.291c0.731,0,1.323,0.592,1.323,1.323v0v1.776c0,0.731-0.592,1.323-1.323,1.323h0h-5.216
	c-0.354,0.009-0.695-0.127-0.945-0.378c-0.251-0.25-0.387-0.591-0.378-0.945v-0.151h0.907v0.302c0.082,0.17,0.268,0.263,0.454,0.227
	h5.253c0.23,0,0.416-0.186,0.416-0.416v-1.587c0.042-0.096,0.042-0.206,0-0.302c-0.097-0.038-0.205-0.038-0.302,0h-5.405
	c-0.73-0.016-1.309-0.621-1.293-1.352c0.001-0.041,0.004-0.082,0.008-0.122v-1.739c0-0.731,0.592-1.323,1.323-1.323c0,0,0,0,0,0
	h5.291c0.731,0,1.323,0.592,1.323,1.323v0H36.056z"/>
<path style="fill:#FFFFFF;" d="M37.265,30.961h6.614c0.731,0,1.323,0.592,1.323,1.323v0v5.291c0,0.731-0.592,1.323-1.323,1.323l0,0
	h-6.614V30.961z M44.295,37.537v-5.253c0-0.23-0.186-0.416-0.416-0.416h-5.291c-0.23,0-0.416,0.186-0.416,0.416v5.291
	c0,0.23,0.186,0.416,0.416,0.416h5.253c0.23,0,0.416-0.186,0.416-0.416L44.295,37.537z"/>
<path style="fill:#FFFFFF;" d="M52.912,30.961h1.134L50.72,34.74l3.326,3.779h-1.134l-2.948-3.515h-2.57v3.515h-0.907v-7.559h0.907
	v3.515h2.57L52.912,30.961z"/>
<path style="fill:#FFFFFF;" d="M117.955,17.922v2.268h-15.911v6.576h12.812v2.268h-12.812v6.538h15.949v2.23H99.739v-19.88H117.955z
	"/>
<path id="wifi2" style="fill:#FFFFFF;fill-opacity:0.3;" d="M176.763,19.811c3.688-0.004,7.25,1.34,10.015,3.779
	c0.449,0.407,0.483,1.101,0.076,1.55c-0.407,0.449-1.101,0.483-1.55,0.076l0,0c-4.864-4.35-12.219-4.35-17.083,0
	c-0.449,0.407-1.143,0.373-1.55-0.076c-0.407-0.449-0.373-1.143,0.076-1.55l0,0C169.513,21.152,173.075,19.808,176.763,19.811">
<animate  accumulate="none" additive="replace" attributeName="fill-opacity" begin="three.end+0.08s" calcMode="linear" dur="0.1ms" fill="remove" id="four" restart="always" values="0.5;1;0.5">
		</animate>
	
		<animate  accumulate="none" additive="replace" attributeName="fill-opacity" begin="two.end+0.05s" calcMode="linear" dur="400ms" fill="remove" id="three" restart="always" values="0.5;1;0.5">
		</animate>
</path>
<path id="wifi1" style="fill:#FFFFFF;fill-opacity:0.3;" d="M176.763,26.463c2.097,0,4.118,0.782,5.669,2.192
	c0.449,0.407,0.483,1.101,0.076,1.55c-0.407,0.449-1.101,0.483-1.55,0.076l0,0c-2.385-2.145-6.005-2.145-8.39,0
	c-0.449,0.407-1.143,0.373-1.55-0.076s-0.373-1.143,0.076-1.55C172.647,27.248,174.667,26.467,176.763,26.463">
<animate  accumulate="none" additive="replace" attributeName="fill-opacity" begin="one.end+0.05s" calcMode="linear" dur="400ms" fill="remove" id="two" restart="always" values="0.5;1;0.5">
		</animate>
</path>
<path id="wifi1_1_" style="fill:#FFFFFF;fill-opacity:0.3;" d="M176.763,33.115c0.939,0,1.701,0.761,1.701,1.701
	c0,0.939-0.761,1.701-1.701,1.701c-0.939,0-1.701-0.761-1.701-1.701S175.824,33.115,176.763,33.115L176.763,33.115">
<animate  accumulate="none" additive="replace" attributeName="fill-opacity" begin="0s;four.end+0.05s" calcMode="linear" dur="400ms" fill="remove" id="one" restart="always" values="0.5;1;0.5">
		</animate>
</path>
</svg>
