<svg id="Layer_2" data-name="Layer 2" xmlns="http://www.w3.org/2000/svg"     width="215.653"
   height="51.717" viewBox="0 0 57.06 13.68">




<title>3 signs</title>




<path d="M13.74,12.67H8a2.45,2.45,0,0,1-2.45-2.45V4.47A2.45,2.45,0,0,1,8,2h5.76a2.45,2.45,0,0,1,2.45,2.45v5.76A2.45,2.45,0,0,1,13.74,12.67ZM8,2.09A2.38,2.38,0,0,0,5.6,4.47v5.76A2.38,2.38,0,0,0,8,12.61h5.76a2.38,2.38,0,0,0,2.38-2.38V4.47a2.38,2.38,0,0,0-2.38-2.38Z" style="fill:#fff"/><path d="M31.68,12.67H25.92a2.45,2.45,0,0,1-2.45-2.45V4.47A2.45,2.45,0,0,1,25.92,2h5.76a2.45,2.45,0,0,1,2.45,2.45v5.76A2.45,2.45,0,0,1,31.68,12.67ZM25.92,2.09a2.38,2.38,0,0,0-2.38,2.38v5.76a2.38,2.38,0,0,0,2.38,2.38h5.76a2.38,2.38,0,0,0,2.38-2.38V4.47a2.38,2.38,0,0,0-2.38-2.38Z" style="fill:#fff"/><path d="M49.65,12.67H43.9a2.45,2.45,0,0,1-2.45-2.45V4.47A2.45,2.45,0,0,1,43.9,2h5.76A2.45,2.45,0,0,1,52.1,4.47v5.76A2.45,2.45,0,0,1,49.65,12.67ZM43.9,2.09a2.38,2.38,0,0,0-2.38,2.38v5.76a2.38,2.38,0,0,0,2.38,2.38h5.76A2.38,2.38,0,0,0,52,10.22V4.47a2.38,2.38,0,0,0-2.38-2.38Z" style="fill:#fff"/><path d="M8.69,4.43h1.4a.35.35,0,0,1,.35.35V6.53H10.2V5.76H8.58v.77H8.34V4.78a.35.35,0,0,1,.35-.35ZM8.58,5.52H10.2V4.78a.11.11,0,0,0,0-.08.11.11,0,0,0-.08,0H8.7a.11.11,0,0,0-.08,0,.11.11,0,0,0,0,.08Z" style="fill:#fff"/><path d="M10.77,4.43h1.75a.35.35,0,0,1,.35.35V5.4a.35.35,0,0,1-.35.35H11v.79h-.24Zm1.86,1V4.79a.11.11,0,0,0-.11-.11H11.12a.11.11,0,0,0-.11.11V5.4a.1.1,0,0,0,0,.08.11.11,0,0,0,.08,0h1.39a.11.11,0,0,0,.08,0A.1.1,0,0,0,12.63,5.4Z" style="fill:#fff"/><path d="M13.08,6.53V4.43h.24v2.1Z" style="fill:#fff"/><path d="M9.54,8.54v.08H9.3V8.54a.11.11,0,0,0,0-.08.11.11,0,0,0-.08,0H7.8a.11.11,0,0,0-.11.11V9a.1.1,0,0,0,0,.08.11.11,0,0,0,.08,0h1.4a.35.35,0,0,1,.35.35v.47a.35.35,0,0,1-.35.35H7.79a.34.34,0,0,1-.25-.1.34.34,0,0,1-.1-.25V9.86h.24v.08A.11.11,0,0,0,7.8,10H9.19a.11.11,0,0,0,.11-.11V9.47a.1.1,0,0,0,0-.08.11.11,0,0,0-.08,0H7.79A.35.35,0,0,1,7.45,9V8.54a.35.35,0,0,1,.35-.35h1.4a.35.35,0,0,1,.35.35Z" style="fill:#fff"/><path d="M9.86,8.19h1.75a.35.35,0,0,1,.35.35v1.4a.35.35,0,0,1-.35.35H9.86Zm1.86,1.74V8.54a.11.11,0,0,0-.11-.11H10.21a.11.11,0,0,0-.11.11V9.94a.11.11,0,0,0,.11.11H11.6a.11.11,0,0,0,.11-.11Z" style="fill:#fff"/><path d="M14,8.19h.3l-.88,1,.88,1H14l-.78-.93h-.68v.93h-.24V8.19h.24v.93h.68Z" style="fill:#fff"/><path d="M31.21,4.74v.6H27V7.08h3.39v.6H27V9.41h4.22V10H26.39V4.74Z" style="fill:#fff"/>



















<path d="M46.77,5.24a4,4,0,0,1,2.65,1,.29.29,0,0,1-.39.43,3.39,3.39,0,0,0-4.52,0,.29.29,0,0,1-.39-.43,4,4,0,0,1,2.65-1" 

id="wifi2"
     fill="white"
     fill-opacity="0.3"
     stroke="white"
     stroke-width="0.0"
     stroke-miterlimit="5"
     stroke-dasharray="none"
     stroke-opacity="0" >
     
     
     
       <animate
        id="four"
        attributeName="fill-opacity"
        dur="0.1ms"
        values="0.5;1;0.5"
        calcMode="linear"
        begin="three.end+0.08s"/> 
        
        
		<animate
        id="three"
        attributeName="fill-opacity"
        dur="400ms"
        values="0.5;1;0.5"
        calcMode="linear"
        begin="two.end+0.05s"/>   
     
     
    </path> 
     





<path d="M46.77,7a2.23,2.23,0,0,1,1.5.58.29.29,0,1,1-.39.43,1.66,1.66,0,0,0-2.22,0,.29.29,0,0,1-.39-.43A2.24,2.24,0,0,1,46.77,7" 


     id="wifi1"
     fill="white"
     fill-opacity="0.3"
     stroke="white"
     stroke-width="0.00"
     stroke-miterlimit="5"
     stroke-dasharray="none"
     stroke-opacity="1" >
     
     
     
     
    		<animate
        id="two"
        attributeName="fill-opacity"
        dur="400ms"
        values="0.5;1;0.5"
        calcMode="linear"
        begin="one.end+0.05s"/>   

  </path>



<path d="M46.77,8.76a.45.45,0,1,1-.45.45.45.45,0,0,1,.45-.45" 

     id="wifi1"
     fill="white"
     fill-opacity="0.3"
     stroke="white"
     stroke-width="0.00"
     stroke-miterlimit="5"
     stroke-dasharray="none"
     stroke-opacity="1" >



    <animate
        id="one"
        attributeName="fill-opacity"
        dur="400ms"
        values="0.5;1;0.5"
        calcMode="linear"
        begin="0s;four.end+0.05s"/> 



</path> 




</svg>
