<svg id="Layer_2" data-name="Layer 2" xmlns="http://www.w3.org/2000/svg" width="220.89" height="218.49" viewBox="0 0 220.89 218.49">
  <title>svg-path-original3</title>
  
  <path d="M110.44,1a1.5,1.5,0,0,1,1.5,1.5V62.38a1.5,1.5,0,1,1-3,0V2.5a1.5,1.5,0,0,1,1.5-1.5"/>
 
 
  <path d="M110.44,155.61a1.5,1.5,0,0,1,1.5,1.5V216a1.5,1.5,0,0,1-3,0V157.11a1.5,1.5,0,0,1,1.5-1.5"/>
  
  
  
  
   <path d="M62.88,108a1.5,1.5,0,0,1-1.5,1.5H2.5a1.5,1.5,0,0,1,0-3H61.38a1.5,1.5,0,0,1,1.5,1.5"/>
  
  
  <path d="M219.89,108a1.5,1.5,0,0,1-1.5,1.5H159.51a1.5,1.5,0,0,1,0-3h58.88a1.5,1.5,0,0,1,1.5,1.5"/>
</svg>
