<svg id="Layer_2" data-name="Layer 2" xmlns="http://www.w3.org/2000/svg" width="220.89" height="218.49" viewBox="0 0 220.89 218.49">
  <title>svg-path-original3</title>
  
  <path d="M110.44,1a1.5,1.5,0,0,1,1.5,1.5V62.38a1.5,1.5,0,1,1-3,0V2.5a1.5,1.5,0,0,1,1.5-1.5"/>
 
 
  <path d="M110.44,155.61a1.5,1.5,0,0,1,1.5,1.5V216a1.5,1.5,0,0,1-3,0V157.11a1.5,1.5,0,0,1,1.5-1.5"/>
  
  
  
  
   <path d="M62.88,108a1.5,1.5,0,0,1-1.5,1.5H2.5a1.5,1.5,0,0,1,0-3H61.38a1.5,1.5,0,0,1,1.5,1.5"/>
  
  
  <path d="M219.89,108a1.5,1.5,0,0,1-1.5,1.5H159.51a1.5,1.5,0,0,1,0-3h58.88a1.5,1.5,0,0,1,1.5,1.5"/>
  
  
  
  
  
  
  
  
  
  <path d="M206,7.71a12.18,12.18,0,0,1,12.17,12.17V51.46a4,4,0,0,1-8,0V19.88A4.17,4.17,0,0,0,206,15.71H174.44a4,4,0,1,1,0-8H206" style="fill: #1d1d1b"/>
  <path d="M52.36,7.71a4,4,0,1,1,0,8H20.78a4.17,4.17,0,0,0-4.17,4.17V51.46a4,4,0,0,1-8,0V19.88A12.18,12.18,0,0,1,20.78,7.71H52.36" style="fill: #1d1d1b"/>
  <path d="M12.61,169.54a4,4,0,0,1,4,4v31.58a4.17,4.17,0,0,0,4.17,4.17H52.36a4,4,0,1,1,0,8H20.78A12.18,12.18,0,0,1,8.61,205.13V173.54a4,4,0,0,1,4-4" style="fill: #1d1d1b"/>
  <path d="M214.19,169.54a4,4,0,0,1,4,4v31.58A12.18,12.18,0,0,1,206,217.29H174.44a4,4,0,0,1,0-8H206a4.17,4.17,0,0,0,4.17-4.17V173.54a4,4,0,0,1,4-4" style="fill: #1d1d1b"/>
  <path d="M113.4,89a3,3,0,0,1,3,3v17.5h17.5a3,3,0,0,1,0,6H116.4V133a3,3,0,0,1-6,0V115.5H92.9a3,3,0,0,1,0-6h17.5V92a3,3,0,0,1,3-3" style="fill: #1d1d1b"/>
  
  
  
  
  
  
  
  
</svg>
