<svg version="1.1" viewBox="0.0 0.0 2040.0 1100.0" fill="none" stroke="none" stroke-linecap="square" stroke-miterlimit="10" xmlns:xlink="http://www.w3.org/1999/xlink" xmlns="http://www.w3.org/2000/svg"><clipPath id="p.0"><path d="m0 0l2040.0 0l0 1100.0l-2040.0 0l0 -1100.0z" clip-rule="nonzero"/></clipPath><g clip-path="url(#p.0)"><path fill="#f8f9fa" d="m0 0l2040.0 0l0 1100.0l-2040.0 0z" fill-rule="evenodd"/><path fill="#000000" fill-opacity="0.0" d="m466.0315 379.5118l1107.937 0l0 340.97635l-1107.937 0z" fill-rule="evenodd"/><path fill="#3d85c6" d="m555.3151 439.93994l32.484375 0l0 9.984375l-32.484375 0l0 -9.984375zm0.9375 28.0l36.859375 0l0 10.171875l-49.0 0l0 -65.328125l47.703125 0l0 10.171875l-35.5625 0l0 44.984375zm50.389282 10.171875l0 -65.328125l10.0 0l28.546875 47.6875l-5.21875 0l28.09375 -47.6875l9.984375 0l0.09375 65.328125l-11.484375 0l-0.09375 -47.3125l2.421875 0l-23.890625 39.84375l-5.40625 0l-24.265625 -39.84375l2.796875 0l0 47.3125l-11.578125 0zm89.12848 0l0 -65.328125l12.140625 0l0 65.328125l-12.140625 0zm29.771667 0l0 -65.328125l12.140625 0l0 65.328125l-12.140625 0zm20.537354 0l29.40625 -65.328125l11.9375 0l29.5 65.328125l-12.703125 0l-25.28125 -58.890625l4.84375 0l-25.1875 58.890625l-12.515625 0zm13.53125 -15.125l3.265625 -9.515625l35.28125 0l3.265625 9.515625l-41.8125 0zm71.310974 15.78125q-3.171875 0 -5.421875 -2.1875q-2.234375 -2.203125 -2.234375 -5.5625q0 -3.546875 2.234375 -5.640625q2.25 -2.109375 5.421875 -2.109375q3.171875 0 5.40625 2.109375q2.234375 2.09375 2.234375 5.640625q0 3.359375 -2.234375 5.5625q-2.234375 2.1875 -5.40625 2.1875zm13.992737 -0.65625l29.40625 -65.328125l11.9375 0l29.5 65.328125l-12.703125 0l-25.28125 -58.890625l4.84375 0l-25.1875 58.890625l-12.515625 0zm13.53125 -15.125l3.265625 -9.515625l35.28125 0l3.265625 9.515625l-41.8125 0zm65.60596 15.125l0 -65.328125l12.140625 0l0 65.328125l-12.140625 0zm85.780334 0.9375q-7.46875 0 -13.859375 -2.46875q-6.390625 -2.484375 -11.109375 -7.0q-4.71875 -4.53125 -7.328125 -10.6875q-2.609375 -6.171875 -2.609375 -13.453125q0 -7.265625 2.609375 -13.421875q2.609375 -6.171875 7.375 -10.6875q4.765625 -4.53125 11.109375 -7.0q6.34375 -2.484375 13.90625 -2.484375q8.015625 0 14.640625 2.765625q6.640625 2.75 11.203125 8.15625l-7.84375 7.375q-3.53125 -3.828125 -7.921875 -5.734375q-4.390625 -1.921875 -9.515625 -1.921875q-5.140625 0 -9.390625 1.6875q-4.25 1.671875 -7.375 4.75q-3.125 3.078125 -4.859375 7.28125q-1.71875 4.203125 -1.71875 9.234375q0 5.046875 1.71875 9.25q1.734375 4.203125 4.859375 7.28125q3.125 3.078125 7.375 4.765625q4.25 1.671875 9.390625 1.671875q5.125 0 9.515625 -1.90625q4.390625 -1.921875 7.921875 -5.84375l7.84375 7.46875q-4.5625 5.3125 -11.203125 8.125q-6.625 2.796875 -14.734375 2.796875zm37.59961 -0.9375l0 -65.328125l12.140625 0l0 55.0625l34.15625 0l0 10.265625l-46.296875 0zm85.315186 0.9375q-7.65625 0 -14.09375 -2.515625q-6.4375 -2.53125 -11.203125 -7.046875q-4.765625 -4.53125 -7.375 -10.640625q-2.609375 -6.125 -2.609375 -13.40625q0 -7.265625 2.609375 -13.375q2.609375 -6.125 7.375 -10.640625q4.765625 -4.53125 11.203125 -7.046875q6.4375 -2.53125 14.0 -2.53125q7.640625 0 14.03125 2.53125q6.40625 2.515625 11.15625 7.046875q4.765625 4.515625 7.375 10.640625q2.609375 6.109375 2.609375 13.375q0 7.28125 -2.609375 13.453125q-2.609375 6.15625 -7.375 10.640625q-4.75 4.46875 -11.15625 7.0q-6.390625 2.515625 -13.9375 2.515625zm-0.09375 -10.640625q4.9375 0 9.140625 -1.671875q4.203125 -1.6875 7.28125 -4.8125q3.078125 -3.125 4.796875 -7.28125q1.734375 -4.15625 1.734375 -9.203125q0 -5.03125 -1.734375 -9.1875q-1.71875 -4.15625 -4.796875 -7.28125q-3.078125 -3.125 -7.28125 -4.796875q-4.203125 -1.6875 -9.140625 -1.6875q-4.953125 0 -9.109375 1.6875q-4.15625 1.671875 -7.28125 4.796875q-3.125 3.125 -4.859375 7.28125q-1.71875 4.15625 -1.71875 9.1875q0 4.953125 1.71875 9.15625q1.734375 4.203125 4.8125 7.328125q3.078125 3.125 7.28125 4.8125q4.203125 1.671875 9.15625 1.671875zm76.1449 10.640625q-13.4375 0 -21.046875 -7.5625q-7.59375 -7.5625 -7.59375 -21.84375l0 -36.859375l12.125 0l0 36.390625q0 10.078125 4.34375 14.65625q4.34375 4.578125 12.265625 4.578125q7.9375 0 12.234375 -4.578125q4.296875 -4.578125 4.296875 -14.65625l0 -36.390625l11.9375 0l0 36.859375q0 14.28125 -7.609375 21.84375q-7.609375 7.5625 -20.953125 7.5625zm45.542236 -0.9375l0 -65.328125l28.5625 0q10.640625 0 18.65625 4.109375q8.03125 4.109375 12.515625 11.390625q4.484375 7.265625 4.484375 17.15625q0 9.8125 -4.484375 17.140625q-4.484375 7.3125 -12.515625 11.421875q-8.015625 4.109375 -18.65625 4.109375l-28.5625 0zm12.140625 -10.265625l15.859375 0q7.375 0 12.734375 -2.796875q5.375 -2.796875 8.3125 -7.828125q2.9375 -5.046875 2.9375 -11.78125q0 -6.8125 -2.9375 -11.796875q-2.9375 -5.0 -8.3125 -7.796875q-5.359375 -2.796875 -12.734375 -2.796875l-15.859375 0l0 44.796875zm110.97278 11.203125q-7.65625 0 -14.65625 -2.1875q-7.0 -2.203125 -11.109375 -5.65625l4.203125 -9.421875q3.921875 3.078125 9.703125 5.140625q5.78125 2.046875 11.859375 2.046875q5.125 0 8.296875 -1.125q3.171875 -1.125 4.65625 -3.03125q1.5 -1.921875 1.5 -4.34375q0 -2.984375 -2.140625 -4.796875q-2.140625 -1.828125 -5.546875 -2.890625q-3.40625 -1.078125 -7.5625 -2.015625q-4.15625 -0.9375 -8.3125 -2.1875q-4.15625 -1.265625 -7.5625 -3.265625q-3.40625 -2.015625 -5.546875 -5.375q-2.140625 -3.359375 -2.140625 -8.578125q0 -5.328125 2.84375 -9.75q2.84375 -4.4375 8.671875 -7.09375q5.84375 -2.671875 14.796875 -2.671875q5.875 0 11.65625 1.5q5.796875 1.484375 10.09375 4.28125l-3.828125 9.4375q-4.390625 -2.609375 -9.0625 -3.875q-4.65625 -1.265625 -8.953125 -1.265625q-5.03125 0 -8.171875 1.21875q-3.125 1.21875 -4.578125 3.171875q-1.4375 1.953125 -1.4375 4.484375q0 2.984375 2.09375 4.8125q2.109375 1.8125 5.515625 2.84375q3.40625 1.015625 7.609375 2.0q4.203125 0.984375 8.34375 2.203125q4.15625 1.203125 7.5625 3.171875q3.40625 1.953125 5.5 5.3125q2.109375 3.359375 2.109375 8.484375q0 5.234375 -2.84375 9.671875q-2.84375 4.421875 -8.734375 7.09375q-5.875 2.65625 -14.828125 2.65625zm38.437744 -0.9375l0 -65.328125l12.140625 0l0 65.328125l-12.140625 0zm29.771729 0l0 -65.328125l26.890625 0q8.671875 0 14.875 2.796875q6.21875 2.796875 9.578125 8.03125q3.359375 5.21875 3.359375 12.40625q0 7.1875 -3.359375 12.421875q-3.359375 5.21875 -9.578125 8.015625q-6.203125 2.796875 -14.875 2.796875l-20.15625 0l5.40625 -5.6875l0 24.546875l-12.140625 0zm12.140625 -23.234375l-5.40625 -5.890625l19.59375 0q8.03125 0 12.078125 -3.40625q4.0625 -3.40625 4.0625 -9.5625q0 -6.25 -4.0625 -9.609375q-4.046875 -3.359375 -12.078125 -3.359375l-19.59375 0l5.40625 -5.96875l0 37.796875z" fill-rule="nonzero"/><path fill="#383838" d="m486.19934 572.5118l0 -28.0l23.5625 0l0 28.0l-2.921875 0l0 -26.234375l0.765625 0.796875l-19.25 0l0.765625 -0.796875l0 26.234375l-2.921875 0zm28.484375 -0.046875l0.203125 -2.4375q0.28125 0.046875 0.53125 0.109375q0.265625 0.0625 0.46875 0.0625q1.28125 0 2.046875 -0.953125q0.78125 -0.96875 1.1875 -2.5625q0.40625 -1.609375 0.5625 -3.625q0.15625 -2.03125 0.28125 -4.0625l0.359375 -7.484375l15.390625 0l0 21.0l-2.828125 0l0 -19.359375l0.71875 0.84375l-11.4375 0l0.671875 -0.890625l-0.3125 6.09375q-0.125 2.71875 -0.4375 5.203125q-0.296875 2.46875 -0.921875 4.359375q-0.609375 1.875 -1.6875 2.9375q-1.078125 1.046875 -2.765625 1.046875q-0.46875 0 -0.96875 -0.078125q-0.5 -0.078125 -1.0625 -0.203125zm42.15497 0.046875l0 -4.640625l-0.125 -0.765625l0 -7.75q0 -2.6875 -1.5 -4.125q-1.5 -1.4375 -4.453125 -1.4375q-2.046875 0 -3.890625 0.6875q-1.84375 0.671875 -3.109375 1.796875l-1.28125 -2.125q1.59375 -1.359375 3.828125 -2.09375q2.25 -0.75 4.71875 -0.75q4.09375 0 6.3125 2.03125q2.21875 2.015625 2.21875 6.125l0 13.046875l-2.71875 0zm-7.25 0.203125q-2.359375 0 -4.09375 -0.78125q-1.734375 -0.78125 -2.65625 -2.15625q-0.921875 -1.390625 -0.921875 -3.1875q0 -1.640625 0.78125 -2.96875q0.78125 -1.34375 2.546875 -2.15625q1.78125 -0.828125 4.78125 -0.828125l7.25 0l0 2.109375l-7.15625 0q-3.046875 0 -4.234375 1.09375q-1.171875 1.078125 -1.171875 2.671875q0 1.796875 1.390625 2.875q1.40625 1.078125 3.921875 1.078125q2.40625 0 4.140625 -1.09375q1.75 -1.09375 2.546875 -3.171875l0.640625 1.953125q-0.796875 2.078125 -2.78125 3.328125q-1.984375 1.234375 -4.984375 1.234375zm21.538696 -0.203125l0 -19.28125l0.71875 0.765625l-8.6875 0l0 -2.484375l18.765625 0l0 2.484375l-8.6875 0l0.71875 -0.765625l0 19.28125l-2.828125 0zm25.756897 0.234375q0 0 -0.171875 0q-0.15625 0 -0.296875 0q-0.140625 0 -0.21875 0q-6.234375 -0.03125 -9.71875 -2.828125q-3.484375 -2.8125 -3.484375 -7.96875q0 -5.078125 3.5 -7.859375q3.5 -2.78125 9.859375 -2.8125q0.046875 0 0.1875 0q0.140625 0 0.25 0q0.125 0 0.171875 0q6.390625 0.03125 9.953125 2.8125q3.5625 2.78125 3.5625 7.859375q0 5.203125 -3.578125 8.0q-3.578125 2.796875 -10.015625 2.796875zm-0.046875 -2.46875q3.5625 0 5.953125 -0.984375q2.40625 -0.984375 3.640625 -2.8125q1.25 -1.84375 1.25 -4.53125q0 -2.59375 -1.25 -4.40625q-1.234375 -1.828125 -3.640625 -2.78125q-2.390625 -0.96875 -5.953125 -0.96875q-0.03125 0 -0.21875 0q-0.171875 0 -0.21875 0q-3.484375 0 -5.84375 0.984375q-2.359375 0.96875 -3.5625 2.78125q-1.1875 1.796875 -1.1875 4.390625q0 2.640625 1.21875 4.484375q1.21875 1.84375 3.578125 2.828125q2.359375 0.96875 5.796875 1.015625q0.078125 0 0.234375 0q0.171875 0 0.203125 0zm-1.515625 10.0l0 -37.453125l2.765625 0l0 37.453125l-2.765625 0zm29.790588 -7.5625q-3.03125 0 -5.453125 -1.375q-2.421875 -1.390625 -3.828125 -3.8125q-1.390625 -2.421875 -1.390625 -5.53125q0 -3.171875 1.390625 -5.5625q1.40625 -2.40625 3.796875 -3.765625q2.40625 -1.359375 5.484375 -1.359375q3.125 0 5.546875 1.359375q2.421875 1.359375 3.796875 3.765625q1.375 2.390625 1.375 5.5625q0 3.109375 -1.375 5.53125q-1.375 2.421875 -3.828125 3.8125q-2.4375 1.375 -5.515625 1.375zm0 -2.515625q2.28125 0 4.03125 -1.015625q1.765625 -1.03125 2.78125 -2.890625q1.03125 -1.859375 1.03125 -4.296875q0 -2.484375 -1.03125 -4.328125q-1.015625 -1.84375 -2.78125 -2.859375q-1.75 -1.015625 -3.984375 -1.015625q-2.25 0 -4.015625 1.015625q-1.75 1.015625 -2.796875 2.859375q-1.03125 1.84375 -1.03125 4.328125q0 2.4375 1.03125 4.296875q1.046875 1.859375 2.796875 2.890625q1.765625 1.015625 3.96875 1.015625zm27.643066 2.515625q-2.71875 0 -4.921875 -1.25q-2.1875 -1.265625 -3.5 -3.640625q-1.296875 -2.390625 -1.296875 -5.828125q0 -3.4375 1.28125 -5.8125q1.28125 -2.390625 3.484375 -3.625q2.203125 -1.25 4.953125 -1.25q3.0 0 5.375 1.34375q2.390625 1.34375 3.75 3.765625q1.359375 2.40625 1.359375 5.578125q0 3.203125 -1.359375 5.609375q-1.359375 2.390625 -3.75 3.75q-2.375 1.359375 -5.375 1.359375zm-10.84375 7.5625l0 -28.765625l2.734375 0l0 6.3125l-0.28125 4.203125l0.390625 4.25l0 14.0l-2.84375 0zm10.640625 -10.078125q2.25 0 4.0 -1.015625q1.765625 -1.03125 2.796875 -2.890625q1.046875 -1.859375 1.046875 -4.296875q0 -2.4375 -1.046875 -4.28125q-1.03125 -1.84375 -2.796875 -2.875q-1.75 -1.046875 -4.0 -1.046875q-2.234375 0 -4.015625 1.046875q-1.78125 1.03125 -2.796875 2.875q-1.015625 1.84375 -1.015625 4.28125q0 2.4375 1.015625 4.296875q1.015625 1.859375 2.796875 2.890625q1.78125 1.015625 4.015625 1.015625zm16.815002 2.3125l0 -21.0l2.875 0l9.515625 16.125l-1.203125 0l9.6875 -16.125l2.640625 0l0 21.0l-2.609375 0l0 -17.765625l0.53125 0.25l-9.046875 14.953125l-1.28125 0l-9.109375 -15.125l0.59375 -0.109375l0 17.796875l-2.59375 0zm44.631226 0l0 -4.640625l-0.125 -0.765625l0 -7.75q0 -2.6875 -1.5 -4.125q-1.5 -1.4375 -4.453125 -1.4375q-2.046875 0 -3.890625 0.6875q-1.84375 0.671875 -3.109375 1.796875l-1.28125 -2.125q1.59375 -1.359375 3.828125 -2.09375q2.25 -0.75 4.71875 -0.75q4.09375 0 6.3125 2.03125q2.21875 2.015625 2.21875 6.125l0 13.046875l-2.71875 0zm-7.25 0.203125q-2.359375 0 -4.09375 -0.78125q-1.734375 -0.78125 -2.65625 -2.15625q-0.921875 -1.390625 -0.921875 -3.1875q0 -1.640625 0.78125 -2.96875q0.78125 -1.34375 2.546875 -2.15625q1.78125 -0.828125 4.78125 -0.828125l7.25 0l0 2.109375l-7.15625 0q-3.046875 0 -4.234375 1.09375q-1.171875 1.078125 -1.171875 2.671875q0 1.796875 1.390625 2.875q1.40625 1.078125 3.921875 1.078125q2.40625 0 4.140625 -1.09375q1.75 -1.09375 2.546875 -3.171875l0.640625 1.953125q-0.796875 2.078125 -2.78125 3.328125q-1.984375 1.234375 -4.984375 1.234375zm36.81555 0q-3.125 0 -5.59375 -1.375q-2.453125 -1.390625 -3.859375 -3.8125q-1.390625 -2.421875 -1.390625 -5.53125q0 -3.171875 1.390625 -5.5625q1.40625 -2.40625 3.859375 -3.765625q2.46875 -1.359375 5.59375 -1.359375q2.671875 0 4.828125 1.046875q2.171875 1.03125 3.40625 3.109375l-2.125 1.453125q-1.078125 -1.609375 -2.6875 -2.359375q-1.59375 -0.765625 -3.46875 -0.765625q-2.234375 0 -4.046875 1.015625q-1.796875 1.015625 -2.84375 2.859375q-1.03125 1.84375 -1.03125 4.328125q0 2.46875 1.03125 4.3125q1.046875 1.84375 2.84375 2.875q1.8125 1.015625 4.046875 1.015625q1.875 0 3.46875 -0.765625q1.609375 -0.765625 2.6875 -2.328125l2.125 1.453125q-1.234375 2.03125 -3.40625 3.09375q-2.15625 1.0625 -4.828125 1.0625zm39.59375 -0.203125l-8.640625 -10.40625l2.359375 -1.390625l9.640625 11.796875l-3.359375 0zm-15.390625 0l0 -21.0l2.828125 0l0 21.0l-2.828125 0zm1.953125 -9.359375l0 -2.4375l6.765625 0l0 2.4375l-6.765625 0zm7.40625 -0.84375l-2.640625 -0.390625l8.359375 -10.40625l3.078125 0l-8.796875 10.796875zm21.745605 10.40625q-3.03125 0 -5.453125 -1.375q-2.421875 -1.390625 -3.828125 -3.8125q-1.390625 -2.421875 -1.390625 -5.53125q0 -3.171875 1.390625 -5.5625q1.40625 -2.40625 3.796875 -3.765625q2.40625 -1.359375 5.484375 -1.359375q3.125 0 5.546875 1.359375q2.421875 1.359375 3.796875 3.765625q1.375 2.390625 1.375 5.5625q0 3.109375 -1.375 5.53125q-1.375 2.421875 -3.828125 3.8125q-2.4375 1.375 -5.515625 1.375zm0 -2.515625q2.28125 0 4.03125 -1.015625q1.765625 -1.03125 2.78125 -2.890625q1.03125 -1.859375 1.03125 -4.296875q0 -2.484375 -1.03125 -4.328125q-1.015625 -1.84375 -2.78125 -2.859375q-1.75 -1.015625 -3.984375 -1.015625q-2.25 0 -4.015625 1.015625q-1.75 1.015625 -2.796875 2.859375q-1.03125 1.84375 -1.03125 4.328125q0 2.4375 1.03125 4.296875q1.046875 1.859375 2.796875 2.890625q1.765625 1.015625 3.96875 1.015625zm16.815002 2.3125l0 -21.0l2.875 0l9.515625 16.125l-1.203125 0l9.6875 -16.125l2.640625 0l0 21.0l-2.609375 0l0 -17.765625l0.53125 0.25l-9.046875 14.953125l-1.28125 0l-9.109375 -15.125l0.59375 -0.109375l0 17.796875l-2.59375 0zm31.599976 0l0 -21.0l18.875 0l0 21.0l-2.84375 0l0 -19.28125l0.71875 0.765625l-14.640625 0l0.71875 -0.765625l0 19.28125l-2.828125 0zm23.11621 -0.046875l0.203125 -2.4375q0.28125 0.046875 0.53125 0.109375q0.265625 0.0625 0.46875 0.0625q1.28125 0 2.046875 -0.953125q0.78125 -0.96875 1.1875 -2.5625q0.40625 -1.609375 0.5625 -3.625q0.15625 -2.03125 0.28125 -4.0625l0.359375 -7.484375l15.390625 0l0 21.0l-2.828125 0l0 -19.359375l0.71875 0.84375l-11.4375 0l0.671875 -0.890625l-0.3125 6.09375q-0.125 2.71875 -0.4375 5.203125q-0.296875 2.46875 -0.921875 4.359375q-0.609375 1.875 -1.6875 2.9375q-1.078125 1.046875 -2.765625 1.046875q-0.46875 0 -0.96875 -0.078125q-0.5 -0.078125 -1.0625 -0.203125zm38.108093 0.25q-3.28125 0 -5.765625 -1.375q-2.46875 -1.390625 -3.875 -3.8125q-1.390625 -2.421875 -1.390625 -5.53125q0 -3.125 1.328125 -5.515625q1.34375 -2.40625 3.6875 -3.78125q2.34375 -1.390625 5.265625 -1.390625q2.953125 0 5.25 1.34375q2.3125 1.34375 3.625 3.765625q1.3125 2.40625 1.3125 5.578125q0 0.203125 -0.015625 0.421875q-0.015625 0.21875 -0.015625 0.453125l-18.28125 0l0 -2.125l16.765625 0l-1.125 0.84375q0 -2.28125 -0.984375 -4.0625q-0.96875 -1.78125 -2.65625 -2.78125q-1.6875 -1.0 -3.875 -1.0q-2.171875 0 -3.890625 1.0q-1.71875 1.0 -2.6875 2.8125q-0.953125 1.796875 -0.953125 4.109375l0 0.4375q0 2.40625 1.0625 4.234375q1.0625 1.8125 2.953125 2.84375q1.90625 1.015625 4.34375 1.015625q1.921875 0 3.578125 -0.6875q1.671875 -0.6875 2.875 -2.078125l1.59375 1.84375q-1.40625 1.671875 -3.5 2.5625q-2.09375 0.875 -4.625 0.875zm31.12622 -0.203125l-8.640625 -10.40625l2.359375 -1.390625l9.640625 11.796875l-3.359375 0zm-15.390625 0l0 -21.0l2.828125 0l0 21.0l-2.828125 0zm1.953125 -9.359375l0 -2.4375l6.765625 0l0 2.4375l-6.765625 0zm7.40625 -0.84375l-2.640625 -0.390625l8.359375 -10.40625l3.078125 0l-8.796875 10.796875zm21.91748 10.40625q-3.125 0 -5.59375 -1.375q-2.453125 -1.390625 -3.859375 -3.8125q-1.390625 -2.421875 -1.390625 -5.53125q0 -3.171875 1.390625 -5.5625q1.40625 -2.40625 3.859375 -3.765625q2.46875 -1.359375 5.59375 -1.359375q2.671875 0 4.828125 1.046875q2.171875 1.03125 3.40625 3.109375l-2.125 1.453125q-1.078125 -1.609375 -2.6875 -2.359375q-1.59375 -0.765625 -3.46875 -0.765625q-2.234375 0 -4.046875 1.015625q-1.796875 1.015625 -2.84375 2.859375q-1.03125 1.84375 -1.03125 4.328125q0 2.46875 1.03125 4.3125q1.046875 1.84375 2.84375 2.875q1.8125 1.015625 4.046875 1.015625q1.875 0 3.46875 -0.765625q1.609375 -0.765625 2.6875 -2.328125l2.125 1.453125q-1.234375 2.03125 -3.40625 3.09375q-2.15625 1.0625 -4.828125 1.0625zm13.7230835 -0.203125l0 -21.0l2.828125 0l0 9.28125l13.25 0l0 -9.28125l2.828125 0l0 21.0l-2.828125 0l0 -9.28125l-13.25 0l0 9.28125l-2.828125 0zm47.46869 0l0 -21.0l2.84375 0l0 21.0l-2.84375 0zm-11.640625 -13.59375q3.96875 0.03125 6.046875 1.75q2.078125 1.71875 2.078125 4.96875q0 3.359375 -2.25 5.15625q-2.234375 1.796875 -6.390625 1.765625l-8.3125 -0.046875l0 -21.0l2.828125 0l0 7.3125l6.0 0.09375zm-0.71875 11.46875q2.96875 0.046875 4.46875 -1.171875q1.5 -1.21875 1.5 -3.578125q0 -2.359375 -1.484375 -3.453125q-1.484375 -1.109375 -4.484375 -1.15625l-5.28125 -0.078125l0 9.359375l5.28125 0.078125zm23.29065 2.125l0 -21.0l2.875 0l9.515625 16.125l-1.203125 0l9.6875 -16.125l2.640625 0l0 21.0l-2.609375 0l0 -17.765625l0.53125 0.25l-9.046875 14.953125l-1.28125 0l-9.109375 -15.125l0.59375 -0.109375l0 17.796875l-2.59375 0zm42.079956 0l0 -21.0l2.828125 0l0 9.28125l13.25 0l0 -9.28125l2.828125 0l0 21.0l-2.828125 0l0 -9.28125l-13.25 0l0 9.28125l-2.828125 0zm40.03125 0l0 -4.640625l-0.125 -0.765625l0 -7.75q0 -2.6875 -1.5 -4.125q-1.5 -1.4375 -4.453125 -1.4375q-2.046875 0 -3.890625 0.6875q-1.84375 0.671875 -3.109375 1.796875l-1.28125 -2.125q1.59375 -1.359375 3.828125 -2.09375q2.25 -0.75 4.71875 -0.75q4.09375 0 6.3125 2.03125q2.21875 2.015625 2.21875 6.125l0 13.046875l-2.71875 0zm-7.25 0.203125q-2.359375 0 -4.09375 -0.78125q-1.734375 -0.78125 -2.65625 -2.15625q-0.921875 -1.390625 -0.921875 -3.1875q0 -1.640625 0.78125 -2.96875q0.78125 -1.34375 2.546875 -2.15625q1.78125 -0.828125 4.78125 -0.828125l7.25 0l0 2.109375l-7.15625 0q-3.046875 0 -4.234375 1.09375q-1.171875 1.078125 -1.171875 2.671875q0 1.796875 1.390625 2.875q1.40625 1.078125 3.921875 1.078125q2.40625 0 4.140625 -1.09375q1.75 -1.09375 2.546875 -3.171875l0.640625 1.953125q-0.796875 2.078125 -2.78125 3.328125q-1.984375 1.234375 -4.984375 1.234375zm26.976196 0.03125q-2.5625 0 -4.546875 -0.828125q-1.984375 -0.84375 -3.390625 -2.5625q-1.390625 -1.71875 -2.109375 -4.25q-0.71875 -2.546875 -0.71875 -5.90625q0 -3.0 0.5625 -5.265625q0.5625 -2.265625 1.5625 -3.90625q1.0 -1.640625 2.328125 -2.78125q1.34375 -1.140625 2.921875 -1.828125q1.59375 -0.703125 3.265625 -1.0625l9.4375 -2.203125l0.484375 2.640625l-8.875 2.0q-0.84375 0.203125 -2.03125 0.5625q-1.171875 0.359375 -2.390625 1.078125q-1.21875 0.71875 -2.265625 2.0q-1.03125 1.28125 -1.65625 3.296875q-0.625 2.015625 -0.625 5.015625q0 0.640625 0.03125 1.03125q0.046875 0.375 0.109375 0.796875q0.0625 0.421875 0.109375 1.21875l-1.25 -1.046875q0.4375 -2.4375 1.796875 -4.25q1.359375 -1.828125 3.421875 -2.84375q2.0625 -1.015625 4.578125 -1.015625q2.921875 0 5.203125 1.265625q2.28125 1.25 3.578125 3.5q1.296875 2.234375 1.296875 5.1875q0 2.921875 -1.34375 5.25q-1.328125 2.3125 -3.765625 3.609375q-2.4375 1.296875 -5.71875 1.296875zm0.3125 -2.359375q2.25 0 3.96875 -1.015625q1.71875 -1.015625 2.6875 -2.78125q0.984375 -1.765625 0.984375 -3.953125q0 -2.171875 -0.984375 -3.84375q-0.96875 -1.6875 -2.6875 -2.65625q-1.71875 -0.984375 -4.0 -0.984375q-2.25 0 -3.96875 0.9375q-1.71875 0.9375 -2.703125 2.625q-0.96875 1.671875 -0.96875 3.875q0 2.203125 0.96875 3.96875q0.984375 1.75 2.71875 2.796875q1.75 1.03125 3.984375 1.03125zm25.234985 2.328125q-3.03125 0 -5.453125 -1.375q-2.421875 -1.390625 -3.828125 -3.8125q-1.390625 -2.421875 -1.390625 -5.53125q0 -3.171875 1.390625 -5.5625q1.40625 -2.40625 3.796875 -3.765625q2.40625 -1.359375 5.484375 -1.359375q3.125 0 5.546875 1.359375q2.421875 1.359375 3.796875 3.765625q1.375 2.390625 1.375 5.5625q0 3.109375 -1.375 5.53125q-1.375 2.421875 -3.828125 3.8125q-2.4375 1.375 -5.515625 1.375zm0 -2.515625q2.28125 0 4.03125 -1.015625q1.765625 -1.03125 2.78125 -2.890625q1.03125 -1.859375 1.03125 -4.296875q0 -2.484375 -1.03125 -4.328125q-1.015625 -1.84375 -2.78125 -2.859375q-1.75 -1.015625 -3.984375 -1.015625q-2.25 0 -4.015625 1.015625q-1.75 1.015625 -2.796875 2.859375q-1.03125 1.84375 -1.03125 4.328125q0 2.4375 1.03125 4.296875q1.046875 1.859375 2.796875 2.890625q1.765625 1.015625 3.96875 1.015625zm27.643066 2.515625q-2.71875 0 -4.921875 -1.25q-2.1875 -1.265625 -3.5 -3.640625q-1.296875 -2.390625 -1.296875 -5.828125q0 -3.4375 1.28125 -5.8125q1.28125 -2.390625 3.484375 -3.625q2.203125 -1.25 4.953125 -1.25q3.0 0 5.375 1.34375q2.390625 1.34375 3.75 3.765625q1.359375 2.40625 1.359375 5.578125q0 3.203125 -1.359375 5.609375q-1.359375 2.390625 -3.75 3.75q-2.375 1.359375 -5.375 1.359375zm-10.84375 7.5625l0 -28.765625l2.734375 0l0 6.3125l-0.28125 4.203125l0.390625 4.25l0 14.0l-2.84375 0zm10.640625 -10.078125q2.25 0 4.0 -1.015625q1.765625 -1.03125 2.796875 -2.890625q1.046875 -1.859375 1.046875 -4.296875q0 -2.4375 -1.046875 -4.28125q-1.03125 -1.84375 -2.796875 -2.875q-1.75 -1.046875 -4.0 -1.046875q-2.234375 0 -4.015625 1.046875q-1.78125 1.03125 -2.796875 2.875q-1.015625 1.84375 -1.015625 4.28125q0 2.4375 1.015625 4.296875q1.015625 1.859375 2.796875 2.890625q1.78125 1.015625 4.015625 1.015625zm25.439941 2.515625q-3.03125 0 -5.453125 -1.375q-2.421875 -1.390625 -3.828125 -3.8125q-1.390625 -2.421875 -1.390625 -5.53125q0 -3.171875 1.390625 -5.5625q1.40625 -2.40625 3.796875 -3.765625q2.40625 -1.359375 5.484375 -1.359375q3.125 0 5.546875 1.359375q2.421875 1.359375 3.796875 3.765625q1.375 2.390625 1.375 5.5625q0 3.109375 -1.375 5.53125q-1.375 2.421875 -3.828125 3.8125q-2.4375 1.375 -5.515625 1.375zm0 -2.515625q2.28125 0 4.03125 -1.015625q1.765625 -1.03125 2.78125 -2.890625q1.03125 -1.859375 1.03125 -4.296875q0 -2.484375 -1.03125 -4.328125q-1.015625 -1.84375 -2.78125 -2.859375q-1.75 -1.015625 -3.984375 -1.015625q-2.25 0 -4.015625 1.015625q-1.75 1.015625 -2.796875 2.859375q-1.03125 1.84375 -1.03125 4.328125q0 2.4375 1.03125 4.296875q1.046875 1.859375 2.796875 2.890625q1.765625 1.015625 3.96875 1.015625zm16.814941 2.3125l0 -21.0l2.875 0l9.515625 16.125l-1.203125 0l9.6875 -16.125l2.640625 0l0 21.0l-2.609375 0l0 -17.765625l0.53125 0.25l-9.046875 14.953125l-1.28125 0l-9.109375 -15.125l0.59375 -0.109375l0 17.796875l-2.59375 0zm42.079956 0l0 -21.0l2.828125 0l0 16.6875l14.046875 -16.6875l2.515625 0l0 21.0l-2.84375 0l0 -16.71875l-14.0 16.71875l-2.546875 0zm27.52002 0l0 -21.0l2.828125 0l0 9.28125l13.25 0l0 -9.28125l2.828125 0l0 21.0l-2.828125 0l0 -9.28125l-13.25 0l0 9.28125l-2.828125 0zm35.796753 0.203125q-3.125 0 -5.59375 -1.375q-2.453125 -1.390625 -3.859375 -3.8125q-1.390625 -2.421875 -1.390625 -5.53125q0 -3.171875 1.390625 -5.5625q1.40625 -2.40625 3.859375 -3.765625q2.46875 -1.359375 5.59375 -1.359375q2.671875 0 4.828125 1.046875q2.171875 1.03125 3.40625 3.109375l-2.125 1.453125q-1.078125 -1.609375 -2.6875 -2.359375q-1.59375 -0.765625 -3.46875 -0.765625q-2.234375 0 -4.046875 1.015625q-1.796875 1.015625 -2.84375 2.859375q-1.03125 1.84375 -1.03125 4.328125q0 2.46875 1.03125 4.3125q1.046875 1.84375 2.84375 2.875q1.8125 1.015625 4.046875 1.015625q1.875 0 3.46875 -0.765625q1.609375 -0.765625 2.6875 -2.328125l2.125 1.453125q-1.234375 2.03125 -3.40625 3.09375q-2.15625 1.0625 -4.828125 1.0625zm17.32312 -0.203125l0 -19.28125l0.71875 0.765625l-8.6875 0l0 -2.484375l18.765625 0l0 2.484375l-8.6875 0l0.71875 -0.765625l0 19.28125l-2.828125 0zm25.748169 0.203125q-2.71875 0 -4.921875 -1.25q-2.1875 -1.265625 -3.5 -3.640625q-1.296875 -2.390625 -1.296875 -5.828125q0 -3.4375 1.28125 -5.8125q1.28125 -2.390625 3.484375 -3.625q2.203125 -1.25 4.953125 -1.25q3.0 0 5.375 1.34375q2.390625 1.34375 3.75 3.765625q1.359375 2.40625 1.359375 5.578125q0 3.203125 -1.359375 5.609375q-1.359375 2.390625 -3.75 3.75q-2.375 1.359375 -5.375 1.359375zm-10.84375 7.5625l0 -28.765625l2.734375 0l0 6.3125l-0.28125 4.203125l0.390625 4.25l0 14.0l-2.84375 0zm10.640625 -10.078125q2.25 0 4.0 -1.015625q1.765625 -1.03125 2.796875 -2.890625q1.046875 -1.859375 1.046875 -4.296875q0 -2.4375 -1.046875 -4.28125q-1.03125 -1.84375 -2.796875 -2.875q-1.75 -1.046875 -4.0 -1.046875q-2.234375 0 -4.015625 1.046875q-1.78125 1.03125 -2.796875 2.875q-1.015625 1.84375 -1.015625 4.28125q0 2.4375 1.015625 4.296875q1.015625 1.859375 2.796875 2.890625q1.78125 1.015625 4.015625 1.015625zm16.57434 10.265625q-1.484375 0 -2.828125 -0.484375q-1.34375 -0.46875 -2.296875 -1.421875l1.3125 -2.125q0.8125 0.765625 1.75 1.171875q0.9375 0.421875 2.09375 0.421875q1.40625 0 2.421875 -0.78125q1.015625 -0.78125 1.9375 -2.734375l1.359375 -3.078125l0.328125 -0.4375l8.640625 -19.484375l2.796875 0l-10.515625 23.515625q-0.890625 2.046875 -1.953125 3.234375q-1.046875 1.203125 -2.296875 1.703125q-1.234375 0.5 -2.75 0.5zm5.59375 -7.359375l-9.671875 -21.59375l2.953125 0l8.5625 19.28125l-1.84375 2.3125zm16.366821 -0.59375l0 -21.0l2.875 0l9.515625 16.125l-1.203125 0l9.6875 -16.125l2.640625 0l0 21.0l-2.609375 0l0 -17.765625l0.53125 0.25l-9.046875 14.953125l-1.28125 0l-9.109375 -15.125l0.59375 -0.109375l0 17.796875l-2.59375 0zm40.58435 0.203125q-3.28125 0 -5.765625 -1.375q-2.46875 -1.390625 -3.875 -3.8125q-1.390625 -2.421875 -1.390625 -5.53125q0 -3.125 1.328125 -5.515625q1.34375 -2.40625 3.6875 -3.78125q2.34375 -1.390625 5.265625 -1.390625q2.953125 0 5.25 1.34375q2.3125 1.34375 3.625 3.765625q1.3125 2.40625 1.3125 5.578125q0 0.203125 -0.015625 0.421875q-0.015625 0.21875 -0.015625 0.453125l-18.28125 0l0 -2.125l16.765625 0l-1.125 0.84375q0 -2.28125 -0.984375 -4.0625q-0.96875 -1.78125 -2.65625 -2.78125q-1.6875 -1.0 -3.875 -1.0q-2.171875 0 -3.890625 1.0q-1.71875 1.0 -2.6875 2.8125q-0.953125 1.796875 -0.953125 4.109375l0 0.4375q0 2.40625 1.0625 4.234375q1.0625 1.8125 2.953125 2.84375q1.90625 1.015625 4.34375 1.015625q1.921875 0 3.578125 -0.6875q1.671875 -0.6875 2.875 -2.078125l1.59375 1.84375q-1.40625 1.671875 -3.5 2.5625q-2.09375 0.875 -4.625 0.875zm15.735596 -0.203125l0 -21.0l2.828125 0l0 9.28125l13.25 0l0 -9.28125l2.828125 0l0 21.0l-2.828125 0l0 -9.28125l-13.25 0l0 9.28125l-2.828125 0zm31.0 0l0 -19.28125l0.71875 0.765625l-8.6875 0l0 -2.484375l18.765625 0l0 2.484375l-8.6875 0l0.71875 -0.765625l0 19.28125l-2.828125 0zm22.58496 0.203125q-3.03125 0 -5.453125 -1.375q-2.421875 -1.390625 -3.828125 -3.8125q-1.390625 -2.421875 -1.390625 -5.53125q0 -3.171875 1.390625 -5.5625q1.40625 -2.40625 3.796875 -3.765625q2.40625 -1.359375 5.484375 -1.359375q3.125 0 5.546875 1.359375q2.421875 1.359375 3.796875 3.765625q1.375 2.390625 1.375 5.5625q0 3.109375 -1.375 5.53125q-1.375 2.421875 -3.828125 3.8125q-2.4375 1.375 -5.515625 1.375zm0 -2.515625q2.28125 0 4.03125 -1.015625q1.765625 -1.03125 2.78125 -2.890625q1.03125 -1.859375 1.03125 -4.296875q0 -2.484375 -1.03125 -4.328125q-1.015625 -1.84375 -2.78125 -2.859375q-1.75 -1.015625 -3.984375 -1.015625q-2.25 0 -4.015625 1.015625q-1.75 1.015625 -2.796875 2.859375q-1.03125 1.84375 -1.03125 4.328125q0 2.4375 1.03125 4.296875q1.046875 1.859375 2.796875 2.890625q1.765625 1.015625 3.96875 1.015625zm16.814941 2.3125l0 -21.0l9.265625 0q3.5625 0 5.625 1.359375q2.0625 1.359375 2.0625 4.0q0 2.5625 -1.96875 3.953125q-1.953125 1.375 -5.15625 1.375l0.5625 -0.84375q3.765625 0 5.515625 1.40625q1.765625 1.390625 1.765625 4.03125q0 2.71875 -1.984375 4.21875q-1.96875 1.5 -6.140625 1.5l-9.546875 0zm2.75 -2.234375l6.6875 0q2.671875 0 4.046875 -0.859375q1.390625 -0.859375 1.390625 -2.78125q0 -1.921875 -1.25 -2.796875q-1.234375 -0.890625 -3.90625 -0.890625l-6.96875 0l0 7.328125zm0 -9.453125l6.328125 0q2.4375 0 3.734375 -0.90625q1.296875 -0.921875 1.296875 -2.6875q0 -1.765625 -1.296875 -2.640625q-1.296875 -0.875 -3.734375 -0.875l-6.328125 0l0 7.109375z" fill-rule="nonzero"/><path fill="#383838" d="m492.98743 634.9118l0 -21.0l2.828125 0l0 16.6875l14.046875 -16.6875l2.515625 0l0 21.0l-2.84375 0l0 -16.71875l-14.0 16.71875l-2.546875 0zm46.796875 0.203125q-3.125 0 -5.59375 -1.375q-2.453125 -1.390625 -3.859375 -3.8125q-1.390625 -2.421875 -1.390625 -5.53125q0 -3.171875 1.390625 -5.5625q1.40625 -2.40625 3.859375 -3.765625q2.46875 -1.359375 5.59375 -1.359375q2.671875 0 4.828125 1.046875q2.171875 1.03125 3.40625 3.109375l-2.125 1.453125q-1.078125 -1.609375 -2.6875 -2.359375q-1.59375 -0.765625 -3.46875 -0.765625q-2.234375 0 -4.046875 1.015625q-1.796875 1.015625 -2.84375 2.859375q-1.03125 1.84375 -1.03125 4.328125q0 2.46875 1.03125 4.3125q1.046875 1.84375 2.84375 2.875q1.8125 1.015625 4.046875 1.015625q1.875 0 3.46875 -0.765625q1.609375 -0.765625 2.6875 -2.328125l2.125 1.453125q-1.234375 2.03125 -3.40625 3.09375q-2.15625 1.0625 -4.828125 1.0625zm22.347473 0q-3.28125 0 -5.765625 -1.375q-2.46875 -1.390625 -3.875 -3.8125q-1.390625 -2.421875 -1.390625 -5.53125q0 -3.125 1.328125 -5.515625q1.34375 -2.40625 3.6875 -3.78125q2.34375 -1.390625 5.265625 -1.390625q2.953125 0 5.25 1.34375q2.3125 1.34375 3.625 3.765625q1.3125 2.40625 1.3125 5.578125q0 0.203125 -0.015625 0.421875q-0.015625 0.21875 -0.015625 0.453125l-18.28125 0l0 -2.125l16.765625 0l-1.125 0.84375q0 -2.28125 -0.984375 -4.0625q-0.96875 -1.78125 -2.65625 -2.78125q-1.6875 -1.0 -3.875 -1.0q-2.171875 0 -3.890625 1.0q-1.71875 1.0 -2.6875 2.8125q-0.953125 1.796875 -0.953125 4.109375l0 0.4375q0 2.40625 1.0625 4.234375q1.0625 1.8125 2.953125 2.84375q1.90625 1.015625 4.34375 1.015625q1.921875 0 3.578125 -0.6875q1.671875 -0.6875 2.875 -2.078125l1.59375 1.84375q-1.40625 1.671875 -3.5 2.5625q-2.09375 0.875 -4.625 0.875zm26.56372 0q-2.71875 0 -4.921875 -1.25q-2.1875 -1.265625 -3.5 -3.640625q-1.296875 -2.390625 -1.296875 -5.828125q0 -3.4375 1.28125 -5.8125q1.28125 -2.390625 3.484375 -3.625q2.203125 -1.25 4.953125 -1.25q3.0 0 5.375 1.34375q2.390625 1.34375 3.75 3.765625q1.359375 2.40625 1.359375 5.578125q0 3.203125 -1.359375 5.609375q-1.359375 2.390625 -3.75 3.75q-2.375 1.359375 -5.375 1.359375zm-10.84375 7.5625l0 -28.765625l2.734375 0l0 6.3125l-0.28125 4.203125l0.390625 4.25l0 14.0l-2.84375 0zm10.640625 -10.078125q2.25 0 4.0 -1.015625q1.765625 -1.03125 2.796875 -2.890625q1.046875 -1.859375 1.046875 -4.296875q0 -2.4375 -1.046875 -4.28125q-1.03125 -1.84375 -2.796875 -2.875q-1.75 -1.046875 -4.0 -1.046875q-2.234375 0 -4.015625 1.046875q-1.78125 1.03125 -2.796875 2.875q-1.015625 1.84375 -1.015625 4.28125q0 2.4375 1.015625 4.296875q1.015625 1.859375 2.796875 2.890625q1.78125 1.015625 4.015625 1.015625zm16.814941 2.3125l0 -21.0l9.265625 0q3.5625 0 5.625 1.359375q2.0625 1.359375 2.0625 4.0q0 2.5625 -1.96875 3.953125q-1.953125 1.375 -5.15625 1.375l0.5625 -0.84375q3.765625 0 5.515625 1.40625q1.765625 1.390625 1.765625 4.03125q0 2.71875 -1.984375 4.21875q-1.96875 1.5 -6.140625 1.5l-9.546875 0zm2.75 -2.234375l6.6875 0q2.671875 0 4.046875 -0.859375q1.390625 -0.859375 1.390625 -2.78125q0 -1.921875 -1.25 -2.796875q-1.234375 -0.890625 -3.90625 -0.890625l-6.96875 0l0 7.328125zm0 -9.453125l6.328125 0q2.4375 0 3.734375 -0.90625q1.296875 -0.921875 1.296875 -2.6875q0 -1.765625 -1.296875 -2.640625q-1.296875 -0.875 -3.734375 -0.875l-6.328125 0l0 7.109375zm21.570007 11.6875l0 -21.0l2.828125 0l0 16.6875l14.046875 -16.6875l2.515625 0l0 21.0l-2.84375 0l0 -16.71875l-14.0 16.71875l-2.546875 0zm36.316833 0.203125q-3.125 0 -5.59375 -1.375q-2.453125 -1.390625 -3.859375 -3.8125q-1.390625 -2.421875 -1.390625 -5.53125q0 -3.171875 1.390625 -5.5625q1.40625 -2.40625 3.859375 -3.765625q2.46875 -1.359375 5.59375 -1.359375q2.671875 0 4.828125 1.046875q2.171875 1.03125 3.40625 3.109375l-2.125 1.453125q-1.078125 -1.609375 -2.6875 -2.359375q-1.59375 -0.765625 -3.46875 -0.765625q-2.234375 0 -4.046875 1.015625q-1.796875 1.015625 -2.84375 2.859375q-1.03125 1.84375 -1.03125 4.328125q0 2.46875 1.03125 4.3125q1.046875 1.84375 2.84375 2.875q1.8125 1.015625 4.046875 1.015625q1.875 0 3.46875 -0.765625q1.609375 -0.765625 2.6875 -2.328125l2.125 1.453125q-1.234375 2.03125 -3.40625 3.09375q-2.15625 1.0625 -4.828125 1.0625zm21.988098 0q-3.03125 0 -5.453125 -1.375q-2.421875 -1.390625 -3.828125 -3.8125q-1.390625 -2.421875 -1.390625 -5.53125q0 -3.171875 1.390625 -5.5625q1.40625 -2.40625 3.796875 -3.765625q2.40625 -1.359375 5.484375 -1.359375q3.125 0 5.546875 1.359375q2.421875 1.359375 3.796875 3.765625q1.375 2.390625 1.375 5.5625q0 3.109375 -1.375 5.53125q-1.375 2.421875 -3.828125 3.8125q-2.4375 1.375 -5.515625 1.375zm0 -2.515625q2.28125 0 4.03125 -1.015625q1.765625 -1.03125 2.78125 -2.890625q1.03125 -1.859375 1.03125 -4.296875q0 -2.484375 -1.03125 -4.328125q-1.015625 -1.84375 -2.78125 -2.859375q-1.75 -1.015625 -3.984375 -1.015625q-2.25 0 -4.015625 1.015625q-1.75 1.015625 -2.796875 2.859375q-1.03125 1.84375 -1.03125 4.328125q0 2.4375 1.03125 4.296875q1.046875 1.859375 2.796875 2.890625q1.765625 1.015625 3.96875 1.015625zm16.814941 2.3125l0 -21.0l9.265625 0q3.5625 0 5.625 1.359375q2.0625 1.359375 2.0625 4.0q0 2.5625 -1.96875 3.953125q-1.953125 1.375 -5.15625 1.375l0.5625 -0.84375q3.765625 0 5.515625 1.40625q1.765625 1.390625 1.765625 4.03125q0 2.71875 -1.984375 4.21875q-1.96875 1.5 -6.140625 1.5l-9.546875 0zm2.75 -2.234375l6.6875 0q2.671875 0 4.046875 -0.859375q1.390625 -0.859375 1.390625 -2.78125q0 -1.921875 -1.25 -2.796875q-1.234375 -0.890625 -3.90625 -0.890625l-6.96875 0l0 7.328125zm0 -9.453125l6.328125 0q2.4375 0 3.734375 -0.90625q1.296875 -0.921875 1.296875 -2.6875q0 -1.765625 -1.296875 -2.640625q-1.296875 -0.875 -3.734375 -0.875l-6.328125 0l0 7.109375zm46.440613 10.328125l0 -17.15625l-10.125 0l-0.234375 4.671875q-0.078125 2.125 -0.265625 4.171875q-0.171875 2.03125 -0.59375 3.734375q-0.421875 1.703125 -1.1875 2.765625q-0.75 1.046875 -1.953125 1.21875l-2.84375 -0.53125q1.25 0.046875 2.046875 -0.890625q0.796875 -0.9375 1.234375 -2.578125q0.4375 -1.640625 0.640625 -3.734375q0.203125 -2.109375 0.328125 -4.3125l0.28125 -7.0l15.515625 0l0 19.640625l-2.84375 0zm-18.078125 6.4375l0 -7.5625l24.203125 0l0 7.5625l-2.6875 0l0 -5.078125l-18.828125 0l0 5.078125l-2.6875 0zm25.883728 -5.125l0.203125 -2.4375q0.28125 0.046875 0.53125 0.109375q0.265625 0.0625 0.46875 0.0625q1.28125 0 2.046875 -0.953125q0.78125 -0.96875 1.1875 -2.5625q0.40625 -1.609375 0.5625 -3.625q0.15625 -2.03125 0.28125 -4.0625l0.359375 -7.484375l15.390625 0l0 21.0l-2.828125 0l0 -19.359375l0.71875 0.84375l-11.4375 0l0.671875 -0.890625l-0.3125 6.09375q-0.125 2.71875 -0.4375 5.203125q-0.296875 2.46875 -0.921875 4.359375q-0.609375 1.875 -1.6875 2.9375q-1.078125 1.046875 -2.765625 1.046875q-0.46875 0 -0.96875 -0.078125q-0.5 -0.078125 -1.0625 -0.203125zm42.670593 0.046875l0 -7.5625l0.53125 0.609375l-7.125 0q-4.046875 0 -6.328125 -1.765625q-2.265625 -1.765625 -2.265625 -5.125q0 -3.59375 2.4375 -5.375q2.4375 -1.78125 6.515625 -1.78125l8.84375 0l0 21.0l-2.609375 0zm-15.359375 0l5.765625 -8.078125l2.953125 0l-5.640625 8.078125l-3.078125 0zm15.359375 -8.40625l0 -10.953125l0.53125 0.84375l-6.6875 0q-2.921875 0 -4.546875 1.125q-1.609375 1.109375 -1.609375 3.625q0 4.6875 5.953125 4.6875l6.890625 0l-0.53125 0.671875zm29.96997 8.609375q-3.125 0 -5.59375 -1.375q-2.453125 -1.390625 -3.859375 -3.8125q-1.390625 -2.421875 -1.390625 -5.53125q0 -3.171875 1.390625 -5.5625q1.40625 -2.40625 3.859375 -3.765625q2.46875 -1.359375 5.59375 -1.359375q2.671875 0 4.828125 1.046875q2.171875 1.03125 3.40625 3.109375l-2.125 1.453125q-1.078125 -1.609375 -2.6875 -2.359375q-1.59375 -0.765625 -3.46875 -0.765625q-2.234375 0 -4.046875 1.015625q-1.796875 1.015625 -2.84375 2.859375q-1.03125 1.84375 -1.03125 4.328125q0 2.46875 1.03125 4.3125q1.046875 1.84375 2.84375 2.875q1.8125 1.015625 4.046875 1.015625q1.875 0 3.46875 -0.765625q1.609375 -0.765625 2.6875 -2.328125l2.125 1.453125q-1.234375 2.03125 -3.40625 3.09375q-2.15625 1.0625 -4.828125 1.0625zm21.988098 0q-3.03125 0 -5.453125 -1.375q-2.421875 -1.390625 -3.828125 -3.8125q-1.390625 -2.421875 -1.390625 -5.53125q0 -3.171875 1.390625 -5.5625q1.40625 -2.40625 3.796875 -3.765625q2.40625 -1.359375 5.484375 -1.359375q3.125 0 5.546875 1.359375q2.421875 1.359375 3.796875 3.765625q1.375 2.390625 1.375 5.5625q0 3.109375 -1.375 5.53125q-1.375 2.421875 -3.828125 3.8125q-2.4375 1.375 -5.515625 1.375zm0 -2.515625q2.28125 0 4.03125 -1.015625q1.765625 -1.03125 2.78125 -2.890625q1.03125 -1.859375 1.03125 -4.296875q0 -2.484375 -1.03125 -4.328125q-1.015625 -1.84375 -2.78125 -2.859375q-1.75 -1.015625 -3.984375 -1.015625q-2.25 0 -4.015625 1.015625q-1.75 1.015625 -2.796875 2.859375q-1.03125 1.84375 -1.03125 4.328125q0 2.4375 1.03125 4.296875q1.046875 1.859375 2.796875 2.890625q1.765625 1.015625 3.96875 1.015625zm16.815002 2.3125l0 -21.0l9.265625 0q3.5625 0 5.625 1.359375q2.0625 1.359375 2.0625 4.0q0 2.5625 -1.96875 3.953125q-1.953125 1.375 -5.15625 1.375l0.5625 -0.84375q3.765625 0 5.515625 1.40625q1.765625 1.390625 1.765625 4.03125q0 2.71875 -1.984375 4.21875q-1.96875 1.5 -6.140625 1.5l-9.546875 0zm2.75 -2.234375l6.6875 0q2.671875 0 4.046875 -0.859375q1.390625 -0.859375 1.390625 -2.78125q0 -1.921875 -1.25 -2.796875q-1.234375 -0.890625 -3.90625 -0.890625l-6.96875 0l0 7.328125zm0 -9.453125l6.328125 0q2.4375 0 3.734375 -0.90625q1.296875 -0.921875 1.296875 -2.6875q0 -1.765625 -1.296875 -2.640625q-1.296875 -0.875 -3.734375 -0.875l-6.328125 0l0 7.109375zm21.569946 11.6875l0 -21.0l2.875 0l9.515625 16.125l-1.203125 0l9.6875 -16.125l2.640625 0l0 21.0l-2.609375 0l0 -17.765625l0.53125 0.25l-9.046875 14.953125l-1.28125 0l-9.109375 -15.125l0.59375 -0.109375l0 17.796875l-2.59375 0zm40.58435 0.203125q-3.28125 0 -5.765625 -1.375q-2.46875 -1.390625 -3.875 -3.8125q-1.390625 -2.421875 -1.390625 -5.53125q0 -3.125 1.328125 -5.515625q1.34375 -2.40625 3.6875 -3.78125q2.34375 -1.390625 5.265625 -1.390625q2.953125 0 5.25 1.34375q2.3125 1.34375 3.625 3.765625q1.3125 2.40625 1.3125 5.578125q0 0.203125 -0.015625 0.421875q-0.015625 0.21875 -0.015625 0.453125l-18.28125 0l0 -2.125l16.765625 0l-1.125 0.84375q0 -2.28125 -0.984375 -4.0625q-0.96875 -1.78125 -2.65625 -2.78125q-1.6875 -1.0 -3.875 -1.0q-2.171875 0 -3.890625 1.0q-1.71875 1.0 -2.6875 2.8125q-0.953125 1.796875 -0.953125 4.109375l0 0.4375q0 2.40625 1.0625 4.234375q1.0625 1.8125 2.953125 2.84375q1.90625 1.015625 4.34375 1.015625q1.921875 0 3.578125 -0.6875q1.671875 -0.6875 2.875 -2.078125l1.59375 1.84375q-1.40625 1.671875 -3.5 2.5625q-2.09375 0.875 -4.625 0.875zm24.53247 0q-3.125 0 -5.59375 -1.375q-2.453125 -1.390625 -3.859375 -3.8125q-1.390625 -2.421875 -1.390625 -5.53125q0 -3.171875 1.390625 -5.5625q1.40625 -2.40625 3.859375 -3.765625q2.46875 -1.359375 5.59375 -1.359375q2.671875 0 4.828125 1.046875q2.171875 1.03125 3.40625 3.109375l-2.125 1.453125q-1.078125 -1.609375 -2.6875 -2.359375q-1.59375 -0.765625 -3.46875 -0.765625q-2.234375 0 -4.046875 1.015625q-1.796875 1.015625 -2.84375 2.859375q-1.03125 1.84375 -1.03125 4.328125q0 2.46875 1.03125 4.3125q1.046875 1.84375 2.84375 2.875q1.8125 1.015625 4.046875 1.015625q1.875 0 3.46875 -0.765625q1.609375 -0.765625 2.6875 -2.328125l2.125 1.453125q-1.234375 2.03125 -3.40625 3.09375q-2.15625 1.0625 -4.828125 1.0625zm17.32312 -0.203125l0 -19.28125l0.71875 0.765625l-8.6875 0l0 -2.484375l18.765625 0l0 2.484375l-8.6875 0l0.71875 -0.765625l0 19.28125l-2.828125 0zm14.919983 0l0 -21.0l2.828125 0l0 9.28125l13.25 0l0 -9.28125l2.828125 0l0 21.0l-2.828125 0l0 -9.28125l-13.25 0l0 9.28125l-2.828125 0zm35.625 0.203125q-3.03125 0 -5.453125 -1.375q-2.421875 -1.390625 -3.828125 -3.8125q-1.390625 -2.421875 -1.390625 -5.53125q0 -3.171875 1.390625 -5.5625q1.40625 -2.40625 3.796875 -3.765625q2.40625 -1.359375 5.484375 -1.359375q3.125 0 5.546875 1.359375q2.421875 1.359375 3.796875 3.765625q1.375 2.390625 1.375 5.5625q0 3.109375 -1.375 5.53125q-1.375 2.421875 -3.828125 3.8125q-2.4375 1.375 -5.515625 1.375zm0 -2.515625q2.28125 0 4.03125 -1.015625q1.765625 -1.03125 2.78125 -2.890625q1.03125 -1.859375 1.03125 -4.296875q0 -2.484375 -1.03125 -4.328125q-1.015625 -1.84375 -2.78125 -2.859375q-1.75 -1.015625 -3.984375 -1.015625q-2.25 0 -4.015625 1.015625q-1.75 1.015625 -2.796875 2.859375q-1.03125 1.84375 -1.03125 4.328125q0 2.4375 1.03125 4.296875q1.046875 1.859375 2.796875 2.890625q1.765625 1.015625 3.96875 1.015625zm16.814941 2.3125l0 -21.0l2.828125 0l0 16.6875l14.046875 -16.6875l2.515625 0l0 21.0l-2.84375 0l0 -16.71875l-14.0 16.71875l-2.546875 0zm9.515625 -24.046875q-2.640625 0 -4.265625 -1.328125q-1.609375 -1.34375 -1.6875 -3.859375l2.03125 0q0.046875 1.59375 1.125 2.515625q1.078125 0.921875 2.796875 0.921875q1.71875 0 2.8125 -0.921875q1.109375 -0.921875 1.15625 -2.515625l2.03125 0q-0.03125 2.515625 -1.671875 3.859375q-1.640625 1.328125 -4.328125 1.328125zm39.3125 24.25q-2.71875 0 -4.921875 -1.25q-2.1875 -1.265625 -3.5 -3.640625q-1.296875 -2.390625 -1.296875 -5.828125q0 -3.4375 1.28125 -5.8125q1.28125 -2.390625 3.484375 -3.625q2.203125 -1.25 4.953125 -1.25q3.0 0 5.375 1.34375q2.390625 1.34375 3.75 3.765625q1.359375 2.40625 1.359375 5.578125q0 3.203125 -1.359375 5.609375q-1.359375 2.390625 -3.75 3.75q-2.375 1.359375 -5.375 1.359375zm-10.84375 7.5625l0 -28.765625l2.734375 0l0 6.3125l-0.28125 4.203125l0.390625 4.25l0 14.0l-2.84375 0zm10.640625 -10.078125q2.25 0 4.0 -1.015625q1.765625 -1.03125 2.796875 -2.890625q1.046875 -1.859375 1.046875 -4.296875q0 -2.4375 -1.046875 -4.28125q-1.03125 -1.84375 -2.796875 -2.875q-1.75 -1.046875 -4.0 -1.046875q-2.234375 0 -4.015625 1.046875q-1.78125 1.03125 -2.796875 2.875q-1.015625 1.84375 -1.015625 4.28125q0 2.4375 1.015625 4.296875q1.015625 1.859375 2.796875 2.890625q1.78125 1.015625 4.015625 1.015625zm29.726196 2.3125l0 -4.640625l-0.125 -0.765625l0 -7.75q0 -2.6875 -1.5 -4.125q-1.5 -1.4375 -4.453125 -1.4375q-2.046875 0 -3.890625 0.6875q-1.84375 0.671875 -3.109375 1.796875l-1.28125 -2.125q1.59375 -1.359375 3.828125 -2.09375q2.25 -0.75 4.71875 -0.75q4.09375 0 6.3125 2.03125q2.21875 2.015625 2.21875 6.125l0 13.046875l-2.71875 0zm-7.25 0.203125q-2.359375 0 -4.09375 -0.78125q-1.734375 -0.78125 -2.65625 -2.15625q-0.921875 -1.390625 -0.921875 -3.1875q0 -1.640625 0.78125 -2.96875q0.78125 -1.34375 2.546875 -2.15625q1.78125 -0.828125 4.78125 -0.828125l7.25 0l0 2.109375l-7.15625 0q-3.046875 0 -4.234375 1.09375q-1.171875 1.078125 -1.171875 2.671875q0 1.796875 1.390625 2.875q1.40625 1.078125 3.921875 1.078125q2.40625 0 4.140625 -1.09375q1.75 -1.09375 2.546875 -3.171875l0.640625 1.953125q-0.796875 2.078125 -2.78125 3.328125q-1.984375 1.234375 -4.984375 1.234375zm22.73938 0.03125q2.59375 0 4.6875 -0.796875q2.109375 -0.796875 3.34375 -2.21875q1.234375 -1.421875 1.234375 -3.296875q0 -2.40625 -2.015625 -3.796875q-2.015625 -1.40625 -5.625 -1.40625l-0.109375 0.765625q2.03125 0 3.625 -0.640625q1.609375 -0.640625 2.5625 -1.796875q0.96875 -1.171875 0.96875 -2.734375q0 -1.75 -1.203125 -3.0q-1.203125 -1.265625 -3.21875 -1.9375q-2.015625 -0.6875 -4.53125 -0.609375q-1.84375 0 -3.671875 0.5q-1.8125 0.5 -3.65625 1.453125l0.796875 2.203125q1.640625 -0.84375 3.3125 -1.265625q1.6875 -0.421875 3.25 -0.453125q1.71875 0 3.078125 0.40625q1.359375 0.390625 2.140625 1.1875q0.78125 0.796875 0.78125 1.921875q0 1.046875 -0.65625 1.8125q-0.65625 0.75 -1.859375 1.15625q-1.203125 0.390625 -2.765625 0.390625l-3.390625 0l0 2.078125l3.59375 0q2.640625 0 4.15625 0.953125q1.53125 0.9375 1.53125 2.609375q0 1.15625 -0.8125 2.078125q-0.796875 0.921875 -2.234375 1.453125q-1.4375 0.515625 -3.40625 0.546875q-1.953125 0 -3.953125 -0.578125q-2.0 -0.578125 -3.515625 -1.703125l-0.921875 2.125q1.71875 1.3125 3.953125 1.953125q2.25 0.640625 4.53125 0.640625zm26.547485 -0.03125q-2.71875 0 -4.921875 -1.25q-2.1875 -1.265625 -3.5 -3.640625q-1.296875 -2.390625 -1.296875 -5.828125q0 -3.4375 1.28125 -5.8125q1.28125 -2.390625 3.484375 -3.625q2.203125 -1.25 4.953125 -1.25q3.0 0 5.375 1.34375q2.390625 1.34375 3.75 3.765625q1.359375 2.40625 1.359375 5.578125q0 3.203125 -1.359375 5.609375q-1.359375 2.390625 -3.75 3.75q-2.375 1.359375 -5.375 1.359375zm-10.84375 7.5625l0 -28.765625l2.734375 0l0 6.3125l-0.28125 4.203125l0.390625 4.25l0 14.0l-2.84375 0zm10.640625 -10.078125q2.25 0 4.0 -1.015625q1.765625 -1.03125 2.796875 -2.890625q1.046875 -1.859375 1.046875 -4.296875q0 -2.4375 -1.046875 -4.28125q-1.03125 -1.84375 -2.796875 -2.875q-1.75 -1.046875 -4.0 -1.046875q-2.234375 0 -4.015625 1.046875q-1.78125 1.03125 -2.796875 2.875q-1.015625 1.84375 -1.015625 4.28125q0 2.4375 1.015625 4.296875q1.015625 1.859375 2.796875 2.890625q1.78125 1.015625 4.015625 1.015625zm29.726196 2.3125l0 -4.640625l-0.125 -0.765625l0 -7.75q0 -2.6875 -1.5 -4.125q-1.5 -1.4375 -4.453125 -1.4375q-2.046875 0 -3.890625 0.6875q-1.84375 0.671875 -3.109375 1.796875l-1.28125 -2.125q1.59375 -1.359375 3.828125 -2.09375q2.25 -0.75 4.71875 -0.75q4.09375 0 6.3125 2.03125q2.21875 2.015625 2.21875 6.125l0 13.046875l-2.71875 0zm-7.25 0.203125q-2.359375 0 -4.09375 -0.78125q-1.734375 -0.78125 -2.65625 -2.15625q-0.921875 -1.390625 -0.921875 -3.1875q0 -1.640625 0.78125 -2.96875q0.78125 -1.34375 2.546875 -2.15625q1.78125 -0.828125 4.78125 -0.828125l7.25 0l0 2.109375l-7.15625 0q-3.046875 0 -4.234375 1.09375q-1.171875 1.078125 -1.171875 2.671875q0 1.796875 1.390625 2.875q1.40625 1.078125 3.921875 1.078125q2.40625 0 4.140625 -1.09375q1.75 -1.09375 2.546875 -3.171875l0.640625 1.953125q-0.796875 2.078125 -2.78125 3.328125q-1.984375 1.234375 -4.984375 1.234375zm26.976196 0.03125q-2.5625 0 -4.546875 -0.828125q-1.984375 -0.84375 -3.390625 -2.5625q-1.390625 -1.71875 -2.109375 -4.25q-0.71875 -2.546875 -0.71875 -5.90625q0 -3.0 0.5625 -5.265625q0.5625 -2.265625 1.5625 -3.90625q1.0 -1.640625 2.328125 -2.78125q1.34375 -1.140625 2.921875 -1.828125q1.59375 -0.703125 3.265625 -1.0625l9.4375 -2.203125l0.484375 2.640625l-8.875 2.0q-0.84375 0.203125 -2.03125 0.5625q-1.171875 0.359375 -2.390625 1.078125q-1.21875 0.71875 -2.265625 2.0q-1.03125 1.28125 -1.65625 3.296875q-0.625 2.015625 -0.625 5.015625q0 0.640625 0.03125 1.03125q0.046875 0.375 0.109375 0.796875q0.0625 0.421875 0.109375 1.21875l-1.25 -1.046875q0.4375 -2.4375 1.796875 -4.25q1.359375 -1.828125 3.421875 -2.84375q2.0625 -1.015625 4.578125 -1.015625q2.921875 0 5.203125 1.265625q2.28125 1.25 3.578125 3.5q1.296875 2.234375 1.296875 5.1875q0 2.921875 -1.34375 5.25q-1.328125 2.3125 -3.765625 3.609375q-2.4375 1.296875 -5.71875 1.296875zm0.3125 -2.359375q2.25 0 3.96875 -1.015625q1.71875 -1.015625 2.6875 -2.78125q0.984375 -1.765625 0.984375 -3.953125q0 -2.171875 -0.984375 -3.84375q-0.96875 -1.6875 -2.6875 -2.65625q-1.71875 -0.984375 -4.0 -0.984375q-2.25 0 -3.96875 0.9375q-1.71875 0.9375 -2.703125 2.625q-0.96875 1.671875 -0.96875 3.875q0 2.203125 0.96875 3.96875q0.984375 1.75 2.71875 2.796875q1.75 1.03125 3.984375 1.03125zm25.234985 2.328125q-3.03125 0 -5.453125 -1.375q-2.421875 -1.390625 -3.828125 -3.8125q-1.390625 -2.421875 -1.390625 -5.53125q0 -3.171875 1.390625 -5.5625q1.40625 -2.40625 3.796875 -3.765625q2.40625 -1.359375 5.484375 -1.359375q3.125 0 5.546875 1.359375q2.421875 1.359375 3.796875 3.765625q1.375 2.390625 1.375 5.5625q0 3.109375 -1.375 5.53125q-1.375 2.421875 -3.828125 3.8125q-2.4375 1.375 -5.515625 1.375zm0 -2.515625q2.28125 0 4.03125 -1.015625q1.765625 -1.03125 2.78125 -2.890625q1.03125 -1.859375 1.03125 -4.296875q0 -2.484375 -1.03125 -4.328125q-1.015625 -1.84375 -2.78125 -2.859375q-1.75 -1.015625 -3.984375 -1.015625q-2.25 0 -4.015625 1.015625q-1.75 1.015625 -2.796875 2.859375q-1.03125 1.84375 -1.03125 4.328125q0 2.4375 1.03125 4.296875q1.046875 1.859375 2.796875 2.890625q1.765625 1.015625 3.96875 1.015625zm20.015015 2.3125l0 -19.28125l0.71875 0.765625l-8.6875 0l0 -2.484375l18.765625 0l0 2.484375l-8.6875 0l0.71875 -0.765625l0 19.28125l-2.828125 0zm30.310547 0l-8.640625 -10.40625l2.359375 -1.390625l9.640625 11.796875l-3.359375 0zm-15.390625 0l0 -21.0l2.828125 0l0 21.0l-2.828125 0zm1.953125 -9.359375l0 -2.4375l6.765625 0l0 2.4375l-6.765625 0zm7.40625 -0.84375l-2.640625 -0.390625l8.359375 -10.40625l3.078125 0l-8.796875 10.796875zm13.880615 10.203125l0 -21.0l2.828125 0l0 16.6875l14.046875 -16.6875l2.515625 0l0 21.0l-2.84375 0l0 -16.71875l-14.0 16.71875l-2.546875 0zm38.0 0l0 -21.0l2.828125 0l0 18.515625l12.84375 0l0 -18.515625l2.84375 0l0 21.0l-18.515625 0zm19.234375 5.078125l0 -5.3125l0.71875 0.234375l-4.28125 0l0 -2.484375l6.234375 0l0 7.5625l-2.671875 0zm8.12561 -5.078125l0 -21.0l2.828125 0l0 16.6875l14.046875 -16.6875l2.515625 0l0 21.0l-2.84375 0l0 -16.71875l-14.0 16.71875l-2.546875 0zm39.316772 0.234375q0 0 -0.171875 0q-0.15625 0 -0.296875 0q-0.140625 0 -0.21875 0q-6.234375 -0.03125 -9.71875 -2.828125q-3.484375 -2.8125 -3.484375 -7.96875q0 -5.078125 3.5 -7.859375q3.5 -2.78125 9.859375 -2.8125q0.046875 0 0.1875 0q0.140625 0 0.25 0q0.125 0 0.171875 0q6.390625 0.03125 9.953125 2.8125q3.5625 2.78125 3.5625 7.859375q0 5.203125 -3.578125 8.0q-3.578125 2.796875 -10.015625 2.796875zm-0.046875 -2.46875q3.5625 0 5.953125 -0.984375q2.40625 -0.984375 3.640625 -2.8125q1.25 -1.84375 1.25 -4.53125q0 -2.59375 -1.25 -4.40625q-1.234375 -1.828125 -3.640625 -2.78125q-2.390625 -0.96875 -5.953125 -0.96875q-0.03125 0 -0.21875 0q-0.171875 0 -0.21875 0q-3.484375 0 -5.84375 0.984375q-2.359375 0.96875 -3.5625 2.78125q-1.1875 1.796875 -1.1875 4.390625q0 2.640625 1.21875 4.484375q1.21875 1.84375 3.578125 2.828125q2.359375 0.96875 5.796875 1.015625q0.078125 0 0.234375 0q0.171875 0 0.203125 0zm-1.515625 10.0l0 -37.453125l2.765625 0l0 37.453125l-2.765625 0zm31.993774 -7.5625q-2.71875 0 -4.921875 -1.25q-2.1875 -1.265625 -3.5 -3.640625q-1.296875 -2.390625 -1.296875 -5.828125q0 -3.4375 1.28125 -5.8125q1.28125 -2.390625 3.484375 -3.625q2.203125 -1.25 4.953125 -1.25q3.0 0 5.375 1.34375q2.390625 1.34375 3.75 3.765625q1.359375 2.40625 1.359375 5.578125q0 3.203125 -1.359375 5.609375q-1.359375 2.390625 -3.75 3.75q-2.375 1.359375 -5.375 1.359375zm-10.84375 7.5625l0 -28.765625l2.734375 0l0 6.3125l-0.28125 4.203125l0.390625 4.25l0 14.0l-2.84375 0zm10.640625 -10.078125q2.25 0 4.0 -1.015625q1.765625 -1.03125 2.796875 -2.890625q1.046875 -1.859375 1.046875 -4.296875q0 -2.4375 -1.046875 -4.28125q-1.03125 -1.84375 -2.796875 -2.875q-1.75 -1.046875 -4.0 -1.046875q-2.234375 0 -4.015625 1.046875q-1.78125 1.03125 -2.796875 2.875q-1.015625 1.84375 -1.015625 4.28125q0 2.4375 1.015625 4.296875q1.015625 1.859375 2.796875 2.890625q1.78125 1.015625 4.015625 1.015625zm25.439941 2.515625q-3.03125 0 -5.453125 -1.375q-2.421875 -1.390625 -3.828125 -3.8125q-1.390625 -2.421875 -1.390625 -5.53125q0 -3.171875 1.390625 -5.5625q1.40625 -2.40625 3.796875 -3.765625q2.40625 -1.359375 5.484375 -1.359375q3.125 0 5.546875 1.359375q2.421875 1.359375 3.796875 3.765625q1.375 2.390625 1.375 5.5625q0 3.109375 -1.375 5.53125q-1.375 2.421875 -3.828125 3.8125q-2.4375 1.375 -5.515625 1.375zm0 -2.515625q2.28125 0 4.03125 -1.015625q1.765625 -1.03125 2.78125 -2.890625q1.03125 -1.859375 1.03125 -4.296875q0 -2.484375 -1.03125 -4.328125q-1.015625 -1.84375 -2.78125 -2.859375q-1.75 -1.015625 -3.984375 -1.015625q-2.25 0 -4.015625 1.015625q-1.75 1.015625 -2.796875 2.859375q-1.03125 1.84375 -1.03125 4.328125q0 2.4375 1.03125 4.296875q1.046875 1.859375 2.796875 2.890625q1.765625 1.015625 3.96875 1.015625zm16.814941 2.3125l0 -21.0l9.265625 0q3.5625 0 5.625 1.359375q2.0625 1.359375 2.0625 4.0q0 2.5625 -1.96875 3.953125q-1.953125 1.375 -5.15625 1.375l0.5625 -0.84375q3.765625 0 5.515625 1.40625q1.765625 1.390625 1.765625 4.03125q0 2.71875 -1.984375 4.21875q-1.96875 1.5 -6.140625 1.5l-9.546875 0zm2.75 -2.234375l6.6875 0q2.671875 0 4.046875 -0.859375q1.390625 -0.859375 1.390625 -2.78125q0 -1.921875 -1.25 -2.796875q-1.234375 -0.890625 -3.90625 -0.890625l-6.96875 0l0 7.328125zm0 -9.453125l6.328125 0q2.4375 0 3.734375 -0.90625q1.296875 -0.921875 1.296875 -2.6875q0 -1.765625 -1.296875 -2.640625q-1.296875 -0.875 -3.734375 -0.875l-6.328125 0l0 7.109375zm30.194946 11.890625q-3.03125 0 -5.453125 -1.375q-2.421875 -1.390625 -3.828125 -3.8125q-1.390625 -2.421875 -1.390625 -5.53125q0 -3.171875 1.390625 -5.5625q1.40625 -2.40625 3.796875 -3.765625q2.40625 -1.359375 5.484375 -1.359375q3.125 0 5.546875 1.359375q2.421875 1.359375 3.796875 3.765625q1.375 2.390625 1.375 5.5625q0 3.109375 -1.375 5.53125q-1.375 2.421875 -3.828125 3.8125q-2.4375 1.375 -5.515625 1.375zm0 -2.515625q2.28125 0 4.03125 -1.015625q1.765625 -1.03125 2.78125 -2.890625q1.03125 -1.859375 1.03125 -4.296875q0 -2.484375 -1.03125 -4.328125q-1.015625 -1.84375 -2.78125 -2.859375q-1.75 -1.015625 -3.984375 -1.015625q-2.25 0 -4.015625 1.015625q-1.75 1.015625 -2.796875 2.859375q-1.03125 1.84375 -1.03125 4.328125q0 2.4375 1.03125 4.296875q1.046875 1.859375 2.796875 2.890625q1.765625 1.015625 3.96875 1.015625zm16.814941 2.3125l0 -21.0l2.828125 0l0 16.6875l14.046875 -16.6875l2.515625 0l0 21.0l-2.84375 0l0 -16.71875l-14.0 16.71875l-2.546875 0zm9.515625 -24.046875q-2.640625 0 -4.265625 -1.328125q-1.609375 -1.34375 -1.6875 -3.859375l2.03125 0q0.046875 1.59375 1.125 2.515625q1.078125 0.921875 2.796875 0.921875q1.71875 0 2.8125 -0.921875q1.109375 -0.921875 1.15625 -2.515625l2.03125 0q-0.03125 2.515625 -1.671875 3.859375q-1.640625 1.328125 -4.328125 1.328125z" fill-rule="nonzero"/><path fill="#383838" d="m514.4474 697.31177l0 -21.0l2.828125 0l0 16.6875l14.046875 -16.6875l2.515625 0l0 21.0l-2.84375 0l0 -16.71875l-14.0 16.71875l-2.546875 0zm27.519958 0l0 -21.0l2.828125 0l0 9.28125l13.25 0l0 -9.28125l2.828125 0l0 21.0l-2.828125 0l0 -9.28125l-13.25 0l0 9.28125l-2.828125 0zm38.796875 0.234375q0 0 -0.171875 0q-0.15625 0 -0.296875 0q-0.140625 0 -0.21875 0q-6.234375 -0.03125 -9.71875 -2.828125q-3.484375 -2.8125 -3.484375 -7.96875q0 -5.078125 3.5 -7.859375q3.5 -2.78125 9.859375 -2.8125q0.046875 0 0.1875 0q0.140625 0 0.25 0q0.125 0 0.171875 0q6.390625 0.03125 9.953125 2.8125q3.5625 2.78125 3.5625 7.859375q0 5.203125 -3.578125 8.0q-3.578125 2.796875 -10.015625 2.796875zm-0.046875 -2.46875q3.5625 0 5.953125 -0.984375q2.40625 -0.984375 3.640625 -2.8125q1.25 -1.84375 1.25 -4.53125q0 -2.59375 -1.25 -4.40625q-1.234375 -1.828125 -3.640625 -2.78125q-2.390625 -0.96875 -5.953125 -0.96875q-0.03125 0 -0.21875 0q-0.171875 0 -0.21875 0q-3.484375 0 -5.84375 0.984375q-2.359375 0.96875 -3.5625 2.78125q-1.1875 1.796875 -1.1875 4.390625q0 2.640625 1.21875 4.484375q1.21875 1.84375 3.578125 2.828125q2.359375 0.96875 5.796875 1.015625q0.078125 0 0.234375 0q0.171875 0 0.203125 0zm-1.515625 10.0l0 -37.453125l2.765625 0l0 37.453125l-2.765625 0zm31.993713 -7.5625q-2.71875 0 -4.921875 -1.25q-2.1875 -1.265625 -3.5 -3.640625q-1.296875 -2.390625 -1.296875 -5.828125q0 -3.4375 1.28125 -5.8125q1.28125 -2.390625 3.484375 -3.625q2.203125 -1.25 4.953125 -1.25q3.0 0 5.375 1.34375q2.390625 1.34375 3.75 3.765625q1.359375 2.40625 1.359375 5.578125q0 3.203125 -1.359375 5.609375q-1.359375 2.390625 -3.75 3.75q-2.375 1.359375 -5.375 1.359375zm-10.84375 7.5625l0 -28.765625l2.734375 0l0 6.3125l-0.28125 4.203125l0.390625 4.25l0 14.0l-2.84375 0zm10.640625 -10.078125q2.25 0 4.0 -1.015625q1.765625 -1.03125 2.796875 -2.890625q1.046875 -1.859375 1.046875 -4.296875q0 -2.4375 -1.046875 -4.28125q-1.03125 -1.84375 -2.796875 -2.875q-1.75 -1.046875 -4.0 -1.046875q-2.234375 0 -4.015625 1.046875q-1.78125 1.03125 -2.796875 2.875q-1.015625 1.84375 -1.015625 4.28125q0 2.4375 1.015625 4.296875q1.015625 1.859375 2.796875 2.890625q1.78125 1.015625 4.015625 1.015625zm29.726196 2.3125l0 -4.640625l-0.125 -0.765625l0 -7.75q0 -2.6875 -1.5 -4.125q-1.5 -1.4375 -4.453125 -1.4375q-2.046875 0 -3.890625 0.6875q-1.84375 0.671875 -3.109375 1.796875l-1.28125 -2.125q1.59375 -1.359375 3.828125 -2.09375q2.25 -0.75 4.71875 -0.75q4.09375 0 6.3125 2.03125q2.21875 2.015625 2.21875 6.125l0 13.046875l-2.71875 0zm-7.25 0.203125q-2.359375 0 -4.09375 -0.78125q-1.734375 -0.78125 -2.65625 -2.15625q-0.921875 -1.390625 -0.921875 -3.1875q0 -1.640625 0.78125 -2.96875q0.78125 -1.34375 2.546875 -2.15625q1.78125 -0.828125 4.78125 -0.828125l7.25 0l0 2.109375l-7.15625 0q-3.046875 0 -4.234375 1.09375q-1.171875 1.078125 -1.171875 2.671875q0 1.796875 1.390625 2.875q1.40625 1.078125 3.921875 1.078125q2.40625 0 4.140625 -1.09375q1.75 -1.09375 2.546875 -3.171875l0.640625 1.953125q-0.796875 2.078125 -2.78125 3.328125q-1.984375 1.234375 -4.984375 1.234375zm26.335632 0q-3.125 0 -5.59375 -1.375q-2.453125 -1.390625 -3.859375 -3.8125q-1.390625 -2.421875 -1.390625 -5.53125q0 -3.171875 1.390625 -5.5625q1.40625 -2.40625 3.859375 -3.765625q2.46875 -1.359375 5.59375 -1.359375q2.671875 0 4.828125 1.046875q2.171875 1.03125 3.40625 3.109375l-2.125 1.453125q-1.078125 -1.609375 -2.6875 -2.359375q-1.59375 -0.765625 -3.46875 -0.765625q-2.234375 0 -4.046875 1.015625q-1.796875 1.015625 -2.84375 2.859375q-1.03125 1.84375 -1.03125 4.328125q0 2.46875 1.03125 4.3125q1.046875 1.84375 2.84375 2.875q1.8125 1.015625 4.046875 1.015625q1.875 0 3.46875 -0.765625q1.609375 -0.765625 2.6875 -2.328125l2.125 1.453125q-1.234375 2.03125 -3.40625 3.09375q-2.15625 1.0625 -4.828125 1.0625zm17.32312 -0.203125l0 -19.28125l0.71875 0.765625l-8.6875 0l0 -2.484375l18.765625 0l0 2.484375l-8.6875 0l0.71875 -0.765625l0 19.28125l-2.828125 0zm25.748108 0.203125q-2.71875 0 -4.921875 -1.25q-2.1875 -1.265625 -3.5 -3.640625q-1.296875 -2.390625 -1.296875 -5.828125q0 -3.4375 1.28125 -5.8125q1.28125 -2.390625 3.484375 -3.625q2.203125 -1.25 4.953125 -1.25q3.0 0 5.375 1.34375q2.390625 1.34375 3.75 3.765625q1.359375 2.40625 1.359375 5.578125q0 3.203125 -1.359375 5.609375q-1.359375 2.390625 -3.75 3.75q-2.375 1.359375 -5.375 1.359375zm-10.84375 7.5625l0 -28.765625l2.734375 0l0 6.3125l-0.28125 4.203125l0.390625 4.25l0 14.0l-2.84375 0zm10.640625 -10.078125q2.25 0 4.0 -1.015625q1.765625 -1.03125 2.796875 -2.890625q1.046875 -1.859375 1.046875 -4.296875q0 -2.4375 -1.046875 -4.28125q-1.03125 -1.84375 -2.796875 -2.875q-1.75 -1.046875 -4.0 -1.046875q-2.234375 0 -4.015625 1.046875q-1.78125 1.03125 -2.796875 2.875q-1.015625 1.84375 -1.015625 4.28125q0 2.4375 1.015625 4.296875q1.015625 1.859375 2.796875 2.890625q1.78125 1.015625 4.015625 1.015625zm16.57434 10.265625q-1.484375 0 -2.828125 -0.484375q-1.34375 -0.46875 -2.296875 -1.421875l1.3125 -2.125q0.8125 0.765625 1.75 1.171875q0.9375 0.421875 2.09375 0.421875q1.40625 0 2.421875 -0.78125q1.015625 -0.78125 1.9375 -2.734375l1.359375 -3.078125l0.328125 -0.4375l8.640625 -19.484375l2.796875 0l-10.515625 23.515625q-0.890625 2.046875 -1.953125 3.234375q-1.046875 1.203125 -2.296875 1.703125q-1.234375 0.5 -2.75 0.5zm5.59375 -7.359375l-9.671875 -21.59375l2.953125 0l8.5625 19.28125l-1.84375 2.3125zm31.757446 -0.59375l-8.640625 -10.40625l2.359375 -1.390625l9.640625 11.796875l-3.359375 0zm-15.390625 0l0 -21.0l2.828125 0l0 21.0l-2.828125 0zm1.953125 -9.359375l0 -2.4375l6.765625 0l0 2.4375l-6.765625 0zm7.40625 -0.84375l-2.640625 -0.390625l8.359375 -10.40625l3.078125 0l-8.796875 10.796875zm17.440613 10.203125l0 -19.28125l0.71875 0.765625l-8.6875 0l0 -2.484375l18.765625 0l0 2.484375l-8.6875 0l0.71875 -0.765625l0 19.28125l-2.828125 0zm15.279358 7.953125q-1.484375 0 -2.828125 -0.484375q-1.34375 -0.46875 -2.296875 -1.421875l1.3125 -2.125q0.8125 0.765625 1.75 1.171875q0.9375 0.421875 2.09375 0.421875q1.40625 0 2.421875 -0.78125q1.015625 -0.78125 1.9375 -2.734375l1.359375 -3.078125l0.328125 -0.4375l8.640625 -19.484375l2.796875 0l-10.515625 23.515625q-0.890625 2.046875 -1.953125 3.234375q-1.046875 1.203125 -2.296875 1.703125q-1.234375 0.5 -2.75 0.5zm5.59375 -7.359375l-9.671875 -21.59375l2.953125 0l8.5625 19.28125l-1.84375 2.3125zm27.195007 -0.390625q-2.71875 0 -4.921875 -1.25q-2.1875 -1.265625 -3.5 -3.640625q-1.296875 -2.390625 -1.296875 -5.828125q0 -3.4375 1.28125 -5.8125q1.28125 -2.390625 3.484375 -3.625q2.203125 -1.25 4.953125 -1.25q3.0 0 5.375 1.34375q2.390625 1.34375 3.75 3.765625q1.359375 2.40625 1.359375 5.578125q0 3.203125 -1.359375 5.609375q-1.359375 2.390625 -3.75 3.75q-2.375 1.359375 -5.375 1.359375zm-10.84375 7.5625l0 -28.765625l2.734375 0l0 6.3125l-0.28125 4.203125l0.390625 4.25l0 14.0l-2.84375 0zm10.640625 -10.078125q2.25 0 4.0 -1.015625q1.765625 -1.03125 2.796875 -2.890625q1.046875 -1.859375 1.046875 -4.296875q0 -2.4375 -1.046875 -4.28125q-1.03125 -1.84375 -2.796875 -2.875q-1.75 -1.046875 -4.0 -1.046875q-2.234375 0 -4.015625 1.046875q-1.78125 1.03125 -2.796875 2.875q-1.015625 1.84375 -1.015625 4.28125q0 2.4375 1.015625 4.296875q1.015625 1.859375 2.796875 2.890625q1.78125 1.015625 4.015625 1.015625zm37.28369 2.3125l0 -21.0l2.84375 0l0 21.0l-2.84375 0zm-11.640625 -13.59375q3.96875 0.03125 6.046875 1.75q2.078125 1.71875 2.078125 4.96875q0 3.359375 -2.25 5.15625q-2.234375 1.796875 -6.390625 1.765625l-8.3125 -0.046875l0 -21.0l2.828125 0l0 7.3125l6.0 0.09375zm-0.71875 11.46875q2.96875 0.046875 4.46875 -1.171875q1.5 -1.21875 1.5 -3.578125q0 -2.359375 -1.484375 -3.453125q-1.484375 -1.109375 -4.484375 -1.15625l-5.28125 -0.078125l0 9.359375l5.28125 0.078125zm33.77057 2.125l0 -21.0l18.875 0l0 21.0l-2.84375 0l0 -19.28125l0.71875 0.765625l-14.640625 0l0.71875 -0.765625l0 19.28125l-2.828125 0zm37.788086 0.203125q-2.71875 0 -4.921875 -1.25q-2.1875 -1.265625 -3.5 -3.640625q-1.296875 -2.390625 -1.296875 -5.828125q0 -3.4375 1.28125 -5.8125q1.28125 -2.390625 3.484375 -3.625q2.203125 -1.25 4.953125 -1.25q3.0 0 5.375 1.34375q2.390625 1.34375 3.75 3.765625q1.359375 2.40625 1.359375 5.578125q0 3.203125 -1.359375 5.609375q-1.359375 2.390625 -3.75 3.75q-2.375 1.359375 -5.375 1.359375zm-10.84375 7.5625l0 -28.765625l2.734375 0l0 6.3125l-0.28125 4.203125l0.390625 4.25l0 14.0l-2.84375 0zm10.640625 -10.078125q2.25 0 4.0 -1.015625q1.765625 -1.03125 2.796875 -2.890625q1.046875 -1.859375 1.046875 -4.296875q0 -2.4375 -1.046875 -4.28125q-1.03125 -1.84375 -2.796875 -2.875q-1.75 -1.046875 -4.0 -1.046875q-2.234375 0 -4.015625 1.046875q-1.78125 1.03125 -2.796875 2.875q-1.015625 1.84375 -1.015625 4.28125q0 2.4375 1.015625 4.296875q1.015625 1.859375 2.796875 2.890625q1.78125 1.015625 4.015625 1.015625zm25.440002 2.515625q-3.03125 0 -5.453125 -1.375q-2.421875 -1.390625 -3.828125 -3.8125q-1.390625 -2.421875 -1.390625 -5.53125q0 -3.171875 1.390625 -5.5625q1.40625 -2.40625 3.796875 -3.765625q2.40625 -1.359375 5.484375 -1.359375q3.125 0 5.546875 1.359375q2.421875 1.359375 3.796875 3.765625q1.375 2.390625 1.375 5.5625q0 3.109375 -1.375 5.53125q-1.375 2.421875 -3.828125 3.8125q-2.4375 1.375 -5.515625 1.375zm0 -2.515625q2.28125 0 4.03125 -1.015625q1.765625 -1.03125 2.78125 -2.890625q1.03125 -1.859375 1.03125 -4.296875q0 -2.484375 -1.03125 -4.328125q-1.015625 -1.84375 -2.78125 -2.859375q-1.75 -1.015625 -3.984375 -1.015625q-2.25 0 -4.015625 1.015625q-1.75 1.015625 -2.796875 2.859375q-1.03125 1.84375 -1.03125 4.328125q0 2.4375 1.03125 4.296875q1.046875 1.859375 2.796875 2.890625q1.765625 1.015625 3.96875 1.015625zm25.611816 2.515625q-3.125 0 -5.59375 -1.375q-2.453125 -1.390625 -3.859375 -3.8125q-1.390625 -2.421875 -1.390625 -5.53125q0 -3.171875 1.390625 -5.5625q1.40625 -2.40625 3.859375 -3.765625q2.46875 -1.359375 5.59375 -1.359375q2.671875 0 4.828125 1.046875q2.171875 1.03125 3.40625 3.109375l-2.125 1.453125q-1.078125 -1.609375 -2.6875 -2.359375q-1.59375 -0.765625 -3.46875 -0.765625q-2.234375 0 -4.046875 1.015625q-1.796875 1.015625 -2.84375 2.859375q-1.03125 1.84375 -1.03125 4.328125q0 2.46875 1.03125 4.3125q1.046875 1.84375 2.84375 2.875q1.8125 1.015625 4.046875 1.015625q1.875 0 3.46875 -0.765625q1.609375 -0.765625 2.6875 -2.328125l2.125 1.453125q-1.234375 2.03125 -3.40625 3.09375q-2.15625 1.0625 -4.828125 1.0625zm17.32312 -0.203125l0 -19.28125l0.71875 0.765625l-8.6875 0l0 -2.484375l18.765625 0l0 2.484375l-8.6875 0l0.71875 -0.765625l0 19.28125l-2.828125 0zm25.748108 0.203125q-2.71875 0 -4.921875 -1.25q-2.1875 -1.265625 -3.5 -3.640625q-1.296875 -2.390625 -1.296875 -5.828125q0 -3.4375 1.28125 -5.8125q1.28125 -2.390625 3.484375 -3.625q2.203125 -1.25 4.953125 -1.25q3.0 0 5.375 1.34375q2.390625 1.34375 3.75 3.765625q1.359375 2.40625 1.359375 5.578125q0 3.203125 -1.359375 5.609375q-1.359375 2.390625 -3.75 3.75q-2.375 1.359375 -5.375 1.359375zm-10.84375 7.5625l0 -28.765625l2.734375 0l0 6.3125l-0.28125 4.203125l0.390625 4.25l0 14.0l-2.84375 0zm10.640625 -10.078125q2.25 0 4.0 -1.015625q1.765625 -1.03125 2.796875 -2.890625q1.046875 -1.859375 1.046875 -4.296875q0 -2.4375 -1.046875 -4.28125q-1.03125 -1.84375 -2.796875 -2.875q-1.75 -1.046875 -4.0 -1.046875q-2.234375 0 -4.015625 1.046875q-1.78125 1.03125 -2.796875 2.875q-1.015625 1.84375 -1.015625 4.28125q0 2.4375 1.015625 4.296875q1.015625 1.859375 2.796875 2.890625q1.78125 1.015625 4.015625 1.015625zm29.726196 2.3125l0 -4.640625l-0.125 -0.765625l0 -7.75q0 -2.6875 -1.5 -4.125q-1.5 -1.4375 -4.453125 -1.4375q-2.046875 0 -3.890625 0.6875q-1.84375 0.671875 -3.109375 1.796875l-1.28125 -2.125q1.59375 -1.359375 3.828125 -2.09375q2.25 -0.75 4.71875 -0.75q4.09375 0 6.3125 2.03125q2.21875 2.015625 2.21875 6.125l0 13.046875l-2.71875 0zm-7.25 0.203125q-2.359375 0 -4.09375 -0.78125q-1.734375 -0.78125 -2.65625 -2.15625q-0.921875 -1.390625 -0.921875 -3.1875q0 -1.640625 0.78125 -2.96875q0.78125 -1.34375 2.546875 -2.15625q1.78125 -0.828125 4.78125 -0.828125l7.25 0l0 2.109375l-7.15625 0q-3.046875 0 -4.234375 1.09375q-1.171875 1.078125 -1.171875 2.671875q0 1.796875 1.390625 2.875q1.40625 1.078125 3.921875 1.078125q2.40625 0 4.140625 -1.09375q1.75 -1.09375 2.546875 -3.171875l0.640625 1.953125q-0.796875 2.078125 -2.78125 3.328125q-1.984375 1.234375 -4.984375 1.234375zm17.538818 -0.203125l0 -21.0l2.828125 0l0 9.28125l13.25 0l0 -9.28125l2.828125 0l0 21.0l-2.828125 0l0 -9.28125l-13.25 0l0 9.28125l-2.828125 0zm35.796753 0.203125q-3.125 0 -5.59375 -1.375q-2.453125 -1.390625 -3.859375 -3.8125q-1.390625 -2.421875 -1.390625 -5.53125q0 -3.171875 1.390625 -5.5625q1.40625 -2.40625 3.859375 -3.765625q2.46875 -1.359375 5.59375 -1.359375q2.671875 0 4.828125 1.046875q2.171875 1.03125 3.40625 3.109375l-2.125 1.453125q-1.078125 -1.609375 -2.6875 -2.359375q-1.59375 -0.765625 -3.46875 -0.765625q-2.234375 0 -4.046875 1.015625q-1.796875 1.015625 -2.84375 2.859375q-1.03125 1.84375 -1.03125 4.328125q0 2.46875 1.03125 4.3125q1.046875 1.84375 2.84375 2.875q1.8125 1.015625 4.046875 1.015625q1.875 0 3.46875 -0.765625q1.609375 -0.765625 2.6875 -2.328125l2.125 1.453125q-1.234375 2.03125 -3.40625 3.09375q-2.15625 1.0625 -4.828125 1.0625zm17.32312 -0.203125l0 -19.28125l0.71875 0.765625l-8.6875 0l0 -2.484375l18.765625 0l0 2.484375l-8.6875 0l0.71875 -0.765625l0 19.28125l-2.828125 0zm14.920044 0l0 -21.0l9.265625 0q3.5625 0 5.625 1.359375q2.0625 1.359375 2.0625 4.0q0 2.5625 -1.96875 3.953125q-1.953125 1.375 -5.15625 1.375l0.5625 -0.84375q3.765625 0 5.515625 1.40625q1.765625 1.390625 1.765625 4.03125q0 2.71875 -1.984375 4.21875q-1.96875 1.5 -6.140625 1.5l-9.546875 0zm2.75 -2.234375l6.6875 0q2.671875 0 4.046875 -0.859375q1.390625 -0.859375 1.390625 -2.78125q0 -1.921875 -1.25 -2.796875q-1.234375 -0.890625 -3.90625 -0.890625l-6.96875 0l0 7.328125zm0 -9.453125l6.328125 0q2.4375 0 3.734375 -0.90625q1.296875 -0.921875 1.296875 -2.6875q0 -1.765625 -1.296875 -2.640625q-1.296875 -0.875 -3.734375 -0.875l-6.328125 0l0 7.109375zm30.554321 11.890625q-3.28125 0 -5.765625 -1.375q-2.46875 -1.390625 -3.875 -3.8125q-1.390625 -2.421875 -1.390625 -5.53125q0 -3.125 1.328125 -5.515625q1.34375 -2.40625 3.6875 -3.78125q2.34375 -1.390625 5.265625 -1.390625q2.953125 0 5.25 1.34375q2.3125 1.34375 3.625 3.765625q1.3125 2.40625 1.3125 5.578125q0 0.203125 -0.015625 0.421875q-0.015625 0.21875 -0.015625 0.453125l-18.28125 0l0 -2.125l16.765625 0l-1.125 0.84375q0 -2.28125 -0.984375 -4.0625q-0.96875 -1.78125 -2.65625 -2.78125q-1.6875 -1.0 -3.875 -1.0q-2.171875 0 -3.890625 1.0q-1.71875 1.0 -2.6875 2.8125q-0.953125 1.796875 -0.953125 4.109375l0 0.4375q0 2.40625 1.0625 4.234375q1.0625 1.8125 2.953125 2.84375q1.90625 1.015625 4.34375 1.015625q1.921875 0 3.578125 -0.6875q1.671875 -0.6875 2.875 -2.078125l1.59375 1.84375q-1.40625 1.671875 -3.5 2.5625q-2.09375 0.875 -4.625 0.875zm15.735596 -0.203125l0 -21.0l2.828125 0l0 9.28125l13.25 0l0 -9.28125l2.828125 0l0 21.0l-2.828125 0l0 -9.28125l-13.25 0l0 9.28125l-2.828125 0zm27.0 0l0 -21.0l2.828125 0l0 9.28125l13.25 0l0 -9.28125l2.828125 0l0 21.0l-2.828125 0l0 -9.28125l-13.25 0l0 9.28125l-2.828125 0zm35.625 0.203125q-3.03125 0 -5.453125 -1.375q-2.421875 -1.390625 -3.828125 -3.8125q-1.390625 -2.421875 -1.390625 -5.53125q0 -3.171875 1.390625 -5.5625q1.40625 -2.40625 3.796875 -3.765625q2.40625 -1.359375 5.484375 -1.359375q3.125 0 5.546875 1.359375q2.421875 1.359375 3.796875 3.765625q1.375 2.390625 1.375 5.5625q0 3.109375 -1.375 5.53125q-1.375 2.421875 -3.828125 3.8125q-2.4375 1.375 -5.515625 1.375zm0 -2.515625q2.28125 0 4.03125 -1.015625q1.765625 -1.03125 2.78125 -2.890625q1.03125 -1.859375 1.03125 -4.296875q0 -2.484375 -1.03125 -4.328125q-1.015625 -1.84375 -2.78125 -2.859375q-1.75 -1.015625 -3.984375 -1.015625q-2.25 0 -4.015625 1.015625q-1.75 1.015625 -2.796875 2.859375q-1.03125 1.84375 -1.03125 4.328125q0 2.4375 1.03125 4.296875q1.046875 1.859375 2.796875 2.890625q1.765625 1.015625 3.96875 1.015625zm16.814941 2.3125l0 -21.0l14.875 0l0 2.484375l-12.765625 0l0.71875 -0.71875l0 19.234375l-2.828125 0zm26.66504 0.203125q-3.03125 0 -5.453125 -1.375q-2.421875 -1.390625 -3.828125 -3.8125q-1.390625 -2.421875 -1.390625 -5.53125q0 -3.171875 1.390625 -5.5625q1.40625 -2.40625 3.796875 -3.765625q2.40625 -1.359375 5.484375 -1.359375q3.125 0 5.546875 1.359375q2.421875 1.359375 3.796875 3.765625q1.375 2.390625 1.375 5.5625q0 3.109375 -1.375 5.53125q-1.375 2.421875 -3.828125 3.8125q-2.4375 1.375 -5.515625 1.375zm0 -2.515625q2.28125 0 4.03125 -1.015625q1.765625 -1.03125 2.78125 -2.890625q1.03125 -1.859375 1.03125 -4.296875q0 -2.484375 -1.03125 -4.328125q-1.015625 -1.84375 -2.78125 -2.859375q-1.75 -1.015625 -3.984375 -1.015625q-2.25 0 -4.015625 1.015625q-1.75 1.015625 -2.796875 2.859375q-1.03125 1.84375 -1.03125 4.328125q0 2.4375 1.03125 4.296875q1.046875 1.859375 2.796875 2.890625q1.765625 1.015625 3.96875 1.015625zm27.294922 2.3125l0 -21.0l2.828125 0l0 16.6875l14.046875 -16.6875l2.515625 0l0 21.0l-2.84375 0l0 -16.71875l-14.0 16.71875l-2.546875 0zm27.52002 0l0 -21.0l2.828125 0l0 9.28125l13.25 0l0 -9.28125l2.828125 0l0 21.0l-2.828125 0l0 -9.28125l-13.25 0l0 9.28125l-2.828125 0zm30.999878 0l0 -19.28125l0.71875 0.765625l-8.6875 0l0 -2.484375l18.765625 0l0 2.484375l-8.6875 0l0.71875 -0.765625l0 19.28125l-2.828125 0zm22.944336 0.203125q-3.28125 0 -5.765625 -1.375q-2.46875 -1.390625 -3.875 -3.8125q-1.390625 -2.421875 -1.390625 -5.53125q0 -3.125 1.328125 -5.515625q1.34375 -2.40625 3.6875 -3.78125q2.34375 -1.390625 5.265625 -1.390625q2.953125 0 5.25 1.34375q2.3125 1.34375 3.625 3.765625q1.3125 2.40625 1.3125 5.578125q0 0.203125 -0.015625 0.421875q-0.015625 0.21875 -0.015625 0.453125l-18.28125 0l0 -2.125l16.765625 0l-1.125 0.84375q0 -2.28125 -0.984375 -4.0625q-0.96875 -1.78125 -2.65625 -2.78125q-1.6875 -1.0 -3.875 -1.0q-2.171875 0 -3.890625 1.0q-1.71875 1.0 -2.6875 2.8125q-0.953125 1.796875 -0.953125 4.109375l0 0.4375q0 2.40625 1.0625 4.234375q1.0625 1.8125 2.953125 2.84375q1.90625 1.015625 4.34375 1.015625q1.921875 0 3.578125 -0.6875q1.671875 -0.6875 2.875 -2.078125l1.59375 1.84375q-1.40625 1.671875 -3.5 2.5625q-2.09375 0.875 -4.625 0.875zm11.451904 -0.25l0.203125 -2.4375q0.28125 0.046875 0.53125 0.109375q0.265625 0.0625 0.46875 0.0625q1.28125 0 2.046875 -0.953125q0.78125 -0.96875 1.1875 -2.5625q0.40625 -1.609375 0.5625 -3.625q0.15625 -2.03125 0.28125 -4.0625l0.359375 -7.484375l15.390625 0l0 21.0l-2.828125 0l0 -19.359375l0.71875 0.84375l-11.4375 0l0.671875 -0.890625l-0.3125 6.09375q-0.125 2.71875 -0.4375 5.203125q-0.296875 2.46875 -0.921875 4.359375q-0.609375 1.875 -1.6875 2.9375q-1.078125 1.046875 -2.765625 1.046875q-0.46875 0 -0.96875 -0.078125q-0.5 -0.078125 -1.0625 -0.203125zm25.279907 0l0.203125 -2.4375q0.28125 0.046875 0.53125 0.109375q0.265625 0.0625 0.46875 0.0625q1.28125 0 2.046875 -0.953125q0.78125 -0.96875 1.1875 -2.5625q0.40625 -1.609375 0.5625 -3.625q0.15625 -2.03125 0.28125 -4.0625l0.359375 -7.484375l15.390625 0l0 21.0l-2.828125 0l0 -19.359375l0.71875 0.84375l-11.4375 0l0.671875 -0.890625l-0.3125 6.09375q-0.125 2.71875 -0.4375 5.203125q-0.296875 2.46875 -0.921875 4.359375q-0.609375 1.875 -1.6875 2.9375q-1.078125 1.046875 -2.765625 1.046875q-0.46875 0 -0.96875 -0.078125q-0.5 -0.078125 -1.0625 -0.203125zm38.108154 0.25q-3.28125 0 -5.765625 -1.375q-2.46875 -1.390625 -3.875 -3.8125q-1.390625 -2.421875 -1.390625 -5.53125q0 -3.125 1.328125 -5.515625q1.34375 -2.40625 3.6875 -3.78125q2.34375 -1.390625 5.265625 -1.390625q2.953125 0 5.25 1.34375q2.3125 1.34375 3.625 3.765625q1.3125 2.40625 1.3125 5.578125q0 0.203125 -0.015625 0.421875q-0.015625 0.21875 -0.015625 0.453125l-18.28125 0l0 -2.125l16.765625 0l-1.125 0.84375q0 -2.28125 -0.984375 -4.0625q-0.96875 -1.78125 -2.65625 -2.78125q-1.6875 -1.0 -3.875 -1.0q-2.171875 0 -3.890625 1.0q-1.71875 1.0 -2.6875 2.8125q-0.953125 1.796875 -0.953125 4.109375l0 0.4375q0 2.40625 1.0625 4.234375q1.0625 1.8125 2.953125 2.84375q1.90625 1.015625 4.34375 1.015625q1.921875 0 3.578125 -0.6875q1.671875 -0.6875 2.875 -2.078125l1.59375 1.84375q-1.40625 1.671875 -3.5 2.5625q-2.09375 0.875 -4.625 0.875zm31.12622 -0.203125l-8.640625 -10.40625l2.359375 -1.390625l9.640625 11.796875l-3.359375 0zm-15.390625 0l0 -21.0l2.828125 0l0 21.0l-2.828125 0zm1.953125 -9.359375l0 -2.4375l6.765625 0l0 2.4375l-6.765625 0zm7.40625 -0.84375l-2.640625 -0.390625l8.359375 -10.40625l3.078125 0l-8.796875 10.796875zm17.440552 10.203125l0 -19.28125l0.71875 0.765625l-8.6875 0l0 -2.484375l18.765625 0l0 2.484375l-8.6875 0l0.71875 -0.765625l0 19.28125l-2.828125 0zm27.951294 0l0 -4.640625l-0.125 -0.765625l0 -7.75q0 -2.6875 -1.5 -4.125q-1.5 -1.4375 -4.453125 -1.4375q-2.046875 0 -3.890625 0.6875q-1.84375 0.671875 -3.109375 1.796875l-1.28125 -2.125q1.59375 -1.359375 3.828125 -2.09375q2.25 -0.75 4.71875 -0.75q4.09375 0 6.3125 2.03125q2.21875 2.015625 2.21875 6.125l0 13.046875l-2.71875 0zm-7.25 0.203125q-2.359375 0 -4.09375 -0.78125q-1.734375 -0.78125 -2.65625 -2.15625q-0.921875 -1.390625 -0.921875 -3.1875q0 -1.640625 0.78125 -2.96875q0.78125 -1.34375 2.546875 -2.15625q1.78125 -0.828125 4.78125 -0.828125l7.25 0l0 2.109375l-7.15625 0q-3.046875 0 -4.234375 1.09375q-1.171875 1.078125 -1.171875 2.671875q0 1.796875 1.390625 2.875q1.40625 1.078125 3.921875 1.078125q2.40625 0 4.140625 -1.09375q1.75 -1.09375 2.546875 -3.171875l0.640625 1.953125q-0.796875 2.078125 -2.78125 3.328125q-1.984375 1.234375 -4.984375 1.234375z" fill-rule="nonzero"/></g></svg>