<svg id="рисунки" xmlns="http://www.w3.org/2000/svg" width="173.67" height="47.67" viewBox="0 0 173.67 47.67">
  <title>лого Keras, Tensor и тд</title>
  <path d="M55.87,18.35a9.53,9.53,0,0,0-3.95-6.22l-1.35-.91-.9,1.36a10.77,10.77,0,0,0-1.54,6.54,8.39,8.39,0,0,0,1.18,3.58,9.44,9.44,0,0,1-4.66,1H2.8l-.08.49A20.88,20.88,0,0,0,7,39.56C10.61,43.84,16,46,22.95,46,38.12,46,49.32,39,54.59,26.09c2.06,0,6.52,0,8.8-4.41.06-.1.2-.37.59-1.21l.22-.46-1.28-.87c-1.4-.91-4.59-1.26-7.06-.79ZM36.26,2.67H29.9V8.52h6.36Zm0,7H29.9v5.86h6.36Zm-7.53,0H22.37v5.86h6.36Zm-7.51,0H14.86v5.86h6.36Zm-7.53,7H7.33v5.86H13.7Zm7.53,0H14.86v5.86h6.36Zm7.51,0H22.37v5.86h6.36Zm7.53,0H29.9v5.86h6.36Zm7.53,0H37.43v5.86h6.36Zm38.67-1.32a1.53,1.53,0,0,0-1.15.46,1.62,1.62,0,0,0-.46,1.18V25a8.58,8.58,0,0,0-11.61.66,9.06,9.06,0,0,0,0,12.58,8.55,8.55,0,0,0,12.3,0,8.6,8.6,0,0,0,2.54-6.29V17.07a1.56,1.56,0,0,0-.48-1.18A1.46,1.46,0,0,0,82.46,15.42Zm-2,18.69a5.62,5.62,0,0,1-1.17,1.77,5.55,5.55,0,0,1-1.73,1.21,5.19,5.19,0,0,1-2.13.45,5.08,5.08,0,0,1-2.15-.45,5.68,5.68,0,0,1-2.88-7.3,5.53,5.53,0,0,1,2.88-3,5.21,5.21,0,0,1,2.15-.45,5,5,0,0,1,2.13.45A5.55,5.55,0,0,1,79.26,28a5.62,5.62,0,0,1,1.17,1.77,5.53,5.53,0,0,1,.42,2.15,5.67,5.67,0,0,1-.42,2.18Zm73.18-8.45a8.55,8.55,0,0,0-12.3,0,9.06,9.06,0,0,0,0,12.58,8.55,8.55,0,0,0,11.84.45,1.68,1.68,0,0,0,.46-1.19,1.62,1.62,0,0,0-.46-1.18,1.56,1.56,0,0,0-1.15-.46,1.6,1.6,0,0,0-1.07.42,5.15,5.15,0,0,1-1.59,1,5.55,5.55,0,0,1-3.61,0,5.8,5.8,0,0,1-1.52-.8A5.93,5.93,0,0,1,143,35.23a5.29,5.29,0,0,1-.77-1.6h12.3A1.61,1.61,0,0,0,156.16,32a9.12,9.12,0,0,0-.63-3.43,8.75,8.75,0,0,0-1.92-2.91ZM142.2,30.3a5.59,5.59,0,0,1,.76-1.6,5.31,5.31,0,0,1,1.21-1.24,5.57,5.57,0,0,1,1.54-.8,5.18,5.18,0,0,1,1.73-.28,5.41,5.41,0,0,1,1.71.28,5.55,5.55,0,0,1,2.72,2,5.32,5.32,0,0,1,.79,1.6Zm28.44-6.14a3.28,3.28,0,0,0-1.1-.67,5.74,5.74,0,0,0-1.45-.34,11,11,0,0,0-1.47-.1,8.35,8.35,0,0,0-2.92.51A8.79,8.79,0,0,0,161.17,25v-.31a1.57,1.57,0,0,0-.48-1.17,1.58,1.58,0,0,0-2.29,0,1.59,1.59,0,0,0-.48,1.17V39.21a1.65,1.65,0,0,0,1.63,1.66,1.52,1.52,0,0,0,1.14-.49,1.59,1.59,0,0,0,.48-1.17V32A5.58,5.58,0,0,1,162.76,28a5.51,5.51,0,0,1,1.73-1.19,5.18,5.18,0,0,1,2.13-.44,5.94,5.94,0,0,1,2.13.39,1.8,1.8,0,0,0,.69.18,1.59,1.59,0,0,0,.63-.13,1.88,1.88,0,0,0,.52-.35,1.76,1.76,0,0,0,.35-.53,1.66,1.66,0,0,0,.13-.65,1.49,1.49,0,0,0-.44-1.14ZM100.8,25.65a8.55,8.55,0,0,0-12.3,0,9.06,9.06,0,0,0,0,12.58,8.55,8.55,0,0,0,12.3,0,8.6,8.6,0,0,0,2.54-6.29,9.28,9.28,0,0,0-.65-3.41A9,9,0,0,0,100.8,25.65Zm-1.12,8.45a5.62,5.62,0,0,1-1.17,1.77,5.55,5.55,0,0,1-1.73,1.21,5.19,5.19,0,0,1-2.13.45,5.08,5.08,0,0,1-2.15-.45,5.68,5.68,0,0,1-2.88-7.3,5.53,5.53,0,0,1,2.88-3,5.21,5.21,0,0,1,2.15-.45,5,5,0,0,1,2.13.45A5.55,5.55,0,0,1,98.51,28a5.62,5.62,0,0,1,1.17,1.77,5.53,5.53,0,0,1,.42,2.15,5.67,5.67,0,0,1-.42,2.18ZM137,24.7a1.59,1.59,0,0,0-.13-.63,1.68,1.68,0,0,0-.35-.53,1.31,1.31,0,0,0-.52-.35,1.59,1.59,0,0,0-.63-.13,1.54,1.54,0,0,0-.87.25l-9.3,6.18V17.09a1.6,1.6,0,0,0-.48-1.18,1.58,1.58,0,0,0-2.29,0,1.6,1.6,0,0,0-.48,1.18V39.18a1.6,1.6,0,0,0,.48,1.18,1.57,1.57,0,0,0,1.15.49,1.52,1.52,0,0,0,1.14-.49,1.6,1.6,0,0,0,.48-1.18V33.43l1.9-1.28,7.18,8.24a1.52,1.52,0,0,0,1.08.42,1.59,1.59,0,0,0,.63-.13,1.88,1.88,0,0,0,.52-.35,1.76,1.76,0,0,0,.35-.53,1.64,1.64,0,0,0,.13-.63,1.76,1.76,0,0,0-.45-1.17l-6.66-7.68L136.37,26a1.47,1.47,0,0,0,.6-1.31ZM110,28a5.57,5.57,0,0,1,1.74-1.19,5.18,5.18,0,0,1,2.13-.44,4.9,4.9,0,0,1,1.9.35,6.1,6.1,0,0,1,1.66,1,1.62,1.62,0,0,0,1.05.38,1.49,1.49,0,0,0,1.15-.48,1.65,1.65,0,0,0,.46-1.19,1.63,1.63,0,0,0-.56-1.25A8.16,8.16,0,0,0,113.86,23a8.28,8.28,0,0,0-6.15,2.61,9.06,9.06,0,0,0,0,12.58,8.28,8.28,0,0,0,6.15,2.61,8.19,8.19,0,0,0,5.67-2.16,1.73,1.73,0,0,0,.52-1.22,1.62,1.62,0,0,0-.46-1.18,1.56,1.56,0,0,0-1.15-.46,1.74,1.74,0,0,0-1,.35,5.42,5.42,0,0,1-1.64,1,5.17,5.17,0,0,1-1.9.34,5.23,5.23,0,0,1-2.13-.44A5.57,5.57,0,0,1,110,35.91a5.74,5.74,0,0,1-1.18-1.77,5.83,5.83,0,0,1,0-4.35A6,6,0,0,1,110,28Z" style="fill: #c6c5c5"/>
</svg>
