# File produced by Open Asset Import Library (http://www.assimp.sf.net)
# (assimp v5.0.2399955716)

mtllib FACTORY_RENGA_2D_5.05_OBJ.mtl

# 144 vertex positions
v  -18.723298828125 10.8269521484375 5.01
v  -18.723298828125 10.8269521484375 5.005
v  19.259626953125 10.9266884765625 5.005
v  19.259626953125 10.9266884765625 5.01
v  19.459626953125 11.12721484375 5.005
v  19.459626953125 11.12721484375 5.01
v  -18.723822265625 11.026951171875 5.005
v  -18.723822265625 11.026951171875 5.01
v  19.259626953125 -29.207759765625 5.005
v  19.259626953125 -29.207759765625 5.01
v  19.459626953125 -29.407759765625 5.005
v  19.459626953125 -29.407759765625 5.01
v  -18.523560546875 -29.207759765625 5.005
v  -18.523560546875 -29.207759765625 5.01
v  -18.723560546875 -29.407759765625 5.005
v  -18.723560546875 -29.407759765625 5.01
v  -18.723560546875 10.9269521484375 5.005
v  -18.523560546875 10.8274765625 5.005
v  -18.723560546875 11.0269521484375 5.005
v  -18.723560546875 11.02721484375 5.005
v  -18.623560546875 11.02721484375 5.005
v  -18.523560546875 10.8274765625 5.01
v  -18.723560546875 10.9269521484375 5.01
v  -18.723560546875 11.0269521484375 5.01
v  -18.623560546875 11.02721484375 5.01
v  -18.723560546875 11.02721484375 5.01
v  -0.8171409912109375 -29.207759765625 5.01
v  -0.8171409912109375 -29.207759765625 5.005
v  -0.8171409912109375 -20.274755859375 5.005
v  -0.8171409912109375 -20.274755859375 5.01
v  -1.017140991210937 -20.274755859375 5.005
v  -1.017140991210937 -20.274755859375 5.01
v  -1.017140991210937 -29.207759765625 5.005
v  -1.017140991210937 -29.207759765625 5.01
v  -4.053947265625 -5.19757861328125 5.01
v  -4.053947265625 -5.19757861328125 5.005
v  11.3645703125 -5.19757861328125 5.005
v  11.3645703125 -5.19757861328125 5.01
v  11.3645703125 -4.997578613281251 5.005
v  11.3645703125 -4.997578613281251 5.01
v  -4.053947265625 -4.997578613281251 5.005
v  -4.053947265625 -4.997578613281251 5.01
v  -9.425642578125 -4.997578613281251 5.01
v  -9.425642578125 -4.997578613281251 5.005
v  -18.523560546875 -4.997578613281251 5.005
v  -18.523560546875 -4.997578613281251 5.01
v  -18.523560546875 -5.19757861328125 5.005
v  -18.523560546875 -5.19757861328125 5.01
v  -9.425642578125 -5.19757861328125 5.005
v  -9.425642578125 -5.19757861328125 5.01
v  -6.07663037109375 -24.024529296875 5.01
v  -6.07663037109375 -24.024529296875 5.005
v  -6.07663037109375 -29.207759765625 5.005
v  -6.07663037109375 -29.207759765625 5.01
v  -5.87663037109375 -29.207759765625 5.005
v  -5.87663037109375 -29.207759765625 5.01
v  -5.87663037109375 -24.024529296875 5.005
v  -5.87663037109375 -24.024529296875 5.01
v  -12.9861513671875 -21.99779296875 5.01
v  -12.9861513671875 -21.99779296875 5.005
v  -0.9974059448242187 -21.99779296875 5.005
v  -0.9974059448242187 -21.99779296875 5.01
v  -0.9974059448242187 -21.79779296875 5.005
v  -0.9974059448242187 -21.79779296875 5.01
v  -12.9861513671875 -21.79779296875 5.005
v  -12.9861513671875 -21.79779296875 5.01
v  2.056206298828125 1.992245971679688 5.01
v  2.056206298828125 1.992245971679688 5.005
v  19.259626953125 1.992245971679688 5.005
v  19.259626953125 1.992245971679688 5.01
v  19.259626953125 2.192245849609375 5.005
v  19.259626953125 2.192245849609375 5.01
v  2.056206298828125 2.192245849609375 5.005
v  2.056206298828125 2.192245849609375 5.01
v  -0.9223395996093751 -19.074755859375 5.01
v  -0.9223395996093751 -19.074755859375 5.005
v  -0.9223395996093751 -9.6898466796875 5.005
v  -0.9223395996093751 -9.6898466796875 5.01
v  -1.122339599609375 -9.6898466796875 5.005
v  -1.122339599609375 -9.6898466796875 5.01
v  -1.122339599609375 -19.074755859375 5.005
v  -1.122339599609375 -19.074755859375 5.01
v  -0.9223403930664062 -8.4854462890625 5.005
v  -1.122338745117188 -8.484632812500001 5.005
v  -1.108975463867188 -5.19757861328125 5.005
v  -0.9089737548828125 -5.19757861328125 5.005
v  -1.04379296875 10.8357470703125 5.005
v  -0.8437945556640625 10.83493359375 5.005
v  -0.9081607055664063 -4.997578613281251 5.005
v  -1.108162353515625 -4.997578613281251 5.005
v  -0.9223403930664062 -8.4854462890625 5.01
v  -0.9089737548828125 -5.19757861328125 5.01
v  -1.108975463867188 -5.19757861328125 5.01
v  -1.122338745117188 -8.484632812500001 5.01
v  -1.04379296875 10.8357470703125 5.01
v  -1.108162353515625 -4.997578613281251 5.01
v  -0.9081607055664063 -4.997578613281251 5.01
v  -0.8437945556640625 10.83493359375 5.01
v  12.6012529296875 -29.207759765625 5.01
v  12.6012529296875 -29.207759765625 5.005
v  12.6012529296875 -23.67586328125 5.005
v  12.6012529296875 -23.67586328125 5.01
v  12.4012529296875 -23.67586328125 5.005
v  12.4012529296875 -23.67586328125 5.01
v  12.4012529296875 -29.207759765625 5.005
v  12.4012529296875 -29.207759765625 5.01
v  19.259626953125 -23.67586328125 5.005
v  19.259626953125 -23.67586328125 5.01
v  19.259626953125 -23.47586328125 5.005
v  19.259626953125 -23.47586328125 5.01
v  12.4012529296875 -23.47586328125 5.005
v  12.4012529296875 -23.47586328125 5.01
v  16.838609375 -23.47586328125 5.01
v  16.838609375 -23.47586328125 5.005
v  16.838609375 -20.853853515625 5.005
v  16.838609375 -20.853853515625 5.01
v  16.638609375 -20.853853515625 5.005
v  16.638609375 -20.853853515625 5.01
v  16.638609375 -23.47586328125 5.005
v  16.638609375 -23.47586328125 5.01
v  19.259626953125 -20.855408203125 5.01
v  19.259626953125 -20.855408203125 5.005
v  16.838609375 -20.855408203125 5.005
v  16.838609375 -20.855408203125 5.01
v  16.838609375 -21.055408203125 5.005
v  16.838609375 -21.055408203125 5.01
v  19.259626953125 -21.055408203125 5.005
v  19.259626953125 -21.055408203125 5.01
v  -9.425642578125 10.8513662109375 5.01
v  -9.425642578125 10.8513662109375 5.005
v  -9.425642578125 -21.79779296875 5.005
v  -9.425642578125 -21.79779296875 5.01
v  -9.225642578125001 -21.79779296875 5.005
v  -9.225642578125001 -21.79779296875 5.01
v  -9.225642578125001 10.8518916015625 5.005
v  -9.225642578125001 10.8518916015625 5.01
v  16.31571875 -14.1775244140625 5.01
v  16.31571875 -14.1775244140625 5.005
v  19.259626953125 -14.1775244140625 5.005
v  19.259626953125 -14.1775244140625 5.01
v  19.259626953125 -13.6775244140625 5.005
v  19.259626953125 -13.6775244140625 5.01
v  16.31571875 -13.6775244140625 5.005
v  16.31571875 -13.6775244140625 5.01

# 166 UV coordinates
vt 0 0.005 0
vt 0 0 0
vt 37.9830546875 0 0
vt 37.9830546875 0.005 0
vt 0.2832147827148437 0 0
vt 0.2832147827148437 0.005 0
vt 38.18358203125 0 0
vt 38.18358203125 0.005 0
vt 0.2 0 0
vt 0.2 0.005 0
vt -18.694802734375 11.076078125 0
vt -18.6948046875 10.8760791015625 0
vt 19.288251953125 10.876078125 0
vt 19.48877734375 11.0760791015625 0
vt 40.13444921875 0 0
vt 40.13444921875 0.005 0
vt 0.2828427124023438 0 0
vt 0.2828427124023438 0.005 0
vt 40.5349765625 0 0
vt 40.5349765625 0.005 0
vt -10.9266884765625 19.259626953125 0
vt 29.207759765625 19.259626953125 0
vt 29.407759765625 19.459626953125 0
vt -11.12721484375 19.459626953125 0
vt 37.7831875 0 0
vt 37.7831875 0.005 0
vt 38.1831875 0 0
vt 38.1831875 0.005 0
vt -19.459626953125 29.407759765625 0
vt -19.259626953125 29.207759765625 0
vt 18.523560546875 29.207759765625 0
vt 18.723560546875 29.407759765625 0
vt 10.9269521484375 18.723560546875 0
vt 10.8269521484375 18.723298828125 0
vt -29.407759765625 18.723560546875 0
vt 10.8274765625 18.523560546875 0
vt -29.207759765625 18.523560546875 0
vt 11.0269521484375 18.723560546875 0
vt 11.02721484375 18.723560546875 0
vt 11.02721484375 18.623560546875 0
vt 0.0002625830471515656 0 0
vt 0.0002625830471515656 0.005 0
vt 40.4349765625 0.005 0
vt 0.1002629241943359 0.005 0
vt 0.1002629241943359 0 0
vt 40.4349765625 0 0
vt 0.1 0.005 0
vt 0.1 0 0
vt 40.03523828125 0 0
vt 40.03523828125 0.005 0
vt 38.1833203125 0.005 0
vt 38.1833203125 0 0
vt 38.0833203125 0 0
vt 38.0833203125 0.005 0
vt 0.1997381134033203 0.005 0
vt 0.1997381134033203 0 0
vt 8.933004882812501 0 0
vt 8.933004882812501 0.005 0
vt -29.207759765625 1.017140991210937 0
vt -29.207759765625 0.8171409912109375 0
vt -20.274755859375 0.8171409912109375 0
vt -20.274755859375 1.017140991210937 0
vt 15.4185185546875 0 0
vt 15.4185185546875 0.005 0
vt -4.053947265625 -4.997578613281251 0
vt -4.053947265625 -5.19757861328125 0
vt 11.3645703125 -5.19757861328125 0
vt 11.3645703125 -4.997578613281251 0
vt 9.09791796875 0 0
vt 9.09791796875 0.005 0
vt 9.425642578125 5.19757861328125 0
vt 9.425642578125 4.997578613281251 0
vt 18.523560546875 4.997578613281251 0
vt 18.523560546875 5.19757861328125 0
vt 5.1832314453125 0 0
vt 5.1832314453125 0.005 0
vt 24.024529296875 -5.87663037109375 0
vt 24.024529296875 -6.07663037109375 0
vt 29.207759765625 -6.07663037109375 0
vt 29.207759765625 -5.87663037109375 0
vt 11.9887451171875 0 0
vt 11.9887451171875 0.005 0
vt -12.9861513671875 -21.79779296875 0
vt -12.9861513671875 -21.99779296875 0
vt -0.9974059448242187 -21.99779296875 0
vt -0.9974059448242187 -21.79779296875 0
vt 17.203421875 0 0
vt 17.203421875 0.005 0
vt 2.056206298828125 2.192245849609375 0
vt 2.056206298828125 1.992245971679688 0
vt 19.259626953125 1.992245971679688 0
vt 19.259626953125 2.192245849609375 0
vt 9.384908203125001 0 0
vt 9.384908203125001 0.005 0
vt -19.074755859375 1.122339599609375 0
vt -19.074755859375 0.9223395996093751 0
vt -9.6898466796875 0.9223395996093751 0
vt -9.6898466796875 1.122339599609375 0
vt -8.4891259765625 0.8878359985351563 0
vt -8.489125 1.0878359375 0
vt -5.2020439453125 1.087836059570312 0
vt -5.20123095703125 0.8878359985351563 0
vt 10.8314140625 1.087836059570312 0
vt 10.8314140625 0.8878359985351563 0
vt -5.0012294921875 0.8878359985351563 0
vt -5.00204248046875 1.087836059570312 0
vt 16.0334580078125 0.005 0
vt 16.0334580078125 0 0
vt 19.3205390625 0 0
vt 19.3205390625 0.005 0
vt 15.8334560546875 0 0
vt 15.8334560546875 0.005 0
vt 3.28789501953125 0 0
vt 3.28789501953125 0.005 0
vt 3.487896484375 0.005 0
vt 3.487896484375 0 0
vt 12.4727333984375 0 0
vt 12.2727314453125 0 0
vt 12.2727314453125 0.005 0
vt 12.4727333984375 0.005 0
vt 2.944971923828125 0.005 0
vt 3.1449736328125 0.005 0
vt 3.1449736328125 0 0
vt 2.944971923828125 0 0
vt 5.531896484375 0 0
vt 5.531896484375 0.005 0
vt -29.207759765625 -12.4012529296875 0
vt -29.207759765625 -12.6012529296875 0
vt -23.67586328125 -12.6012529296875 0
vt -23.67586328125 -12.4012529296875 0
vt 6.8583740234375 0 0
vt 6.8583740234375 0.005 0
vt 12.4012529296875 -23.47586328125 0
vt 12.4012529296875 -23.67586328125 0
vt 19.259626953125 -23.67586328125 0
vt 19.259626953125 -23.47586328125 0
vt 2.622010009765625 0 0
vt 2.622010009765625 0.005 0
vt -23.47586328125 -16.638609375 0
vt -23.47586328125 -16.838609375 0
vt -20.853853515625 -16.838609375 0
vt -20.853853515625 -16.638609375 0
vt 2.421018798828125 0 0
vt 2.421018798828125 0.005 0
vt -19.259626953125 20.855408203125 0
vt -16.838609375 20.855408203125 0
vt -16.838609375 21.055408203125 0
vt -19.259626953125 21.055408203125 0
vt 32.649158203125 0 0
vt 32.649158203125 0.005 0
vt 32.64968359375 0 0
vt 32.64968359375 0.005 0
vt 0.2000006866455078 0 0
vt 0.2000006866455078 0.005 0
vt -10.8513662109375 -9.425642578125 0
vt 21.79779296875 -9.425642578125 0
vt 21.79779296875 -9.225642578125001 0
vt -10.8518916015625 -9.225642578125001 0
vt 2.943908935546875 0 0
vt 2.943908935546875 0.005 0
vt 0.5 0 0
vt 0.5 0.005 0
vt 16.31571875 -13.6775244140625 0
vt 16.31571875 -14.1775244140625 0
vt 19.259626953125 -14.1775244140625 0
vt 19.259626953125 -13.6775244140625 0

# 30 vertex normals
vn 0.002625821623951197 -0.999996542930603 0
vn 0.7080345153808594 -0.706177830696106 0
vn -0.002625821623951197 0.999996542930603 0
vn -0.999996542930603 -0.002625821623951197 0
vn 0 0 1
vn -0 -0 -1
vn -1 0 0
vn -0.7071067690849304 -0.7071067690849304 0
vn 1 0 0
vn -0.7080345153808594 0.706177830696106 0
vn -9.628564971596494e-17 1 0
vn -0.7071067690849304 0.7071067690849304 0
vn -9.527697905957288e-17 -1 0
vn 0.7071067690849304 0.7071067690849304 0
vn 0 1 0
vn 0.999996542930603 0.002625821623951197 0
vn 0.7071067690849304 -0.7071067690849304 0
vn 0 -1 0
vn 1.179743386119951e-16 -1 0
vn -1.179743386119951e-16 1 0
vn 1 -6.366462939515552e-14 0
vn -0.9999917149543762 0.004065405577421188 0
vn 0.9999917149543762 -0.004065405577421188 0
vn -0.004065405577421188 -0.9999917149543762 0
vn 0.004065405577421188 0.9999917149543762 0
vn -1 3.288184018823562e-16 0
vn 1.502664400516388e-15 1 0
vn -1 -5.571320829384738e-17 0
vn 1 5.571231493878582e-17 0
vn 1 -7.275957959772868e-15 0

# Mesh 'mesh_0' with 240 faces
g mesh_0
usemtl mtl_18446744072175111671
f  1/1/1 2/2/1 3/3/1
f  1/1/1 3/3/1 4/4/1
f  4/1/2 3/2/2 5/5/2
f  4/1/2 5/5/2 6/6/2
f  6/1/3 5/2/3 7/7/3
f  6/1/3 7/7/3 8/8/3
f  8/1/4 7/2/4 2/9/4
f  8/1/4 2/9/4 1/10/4
f  8/11/5 1/12/5 4/13/5
f  8/11/5 4/13/5 6/14/5
f  3/13/6 2/12/6 7/11/6
f  5/14/6 3/13/6 7/11/6
f  4/1/7 3/2/7 9/15/7
f  4/1/7 9/15/7 10/16/7
f  10/1/8 9/2/8 11/17/8
f  10/1/8 11/17/8 12/18/8
f  12/1/9 11/2/9 5/19/9
f  12/1/9 5/19/9 6/20/9
f  6/1/10 5/2/10 3/5/10
f  6/1/10 3/5/10 4/6/10
f  4/21/5 10/22/5 12/23/5
f  4/21/5 12/23/5 6/24/5
f  11/23/6 9/22/6 3/21/6
f  5/24/6 11/23/6 3/21/6
f  10/1/11 9/2/11 13/25/11
f  10/1/11 13/25/11 14/26/11
f  14/1/12 13/2/12 15/17/12
f  14/1/12 15/17/12 16/18/12
f  16/1/13 15/2/13 11/27/13
f  16/1/13 11/27/13 12/28/13
f  12/1/14 11/2/14 9/17/14
f  12/1/14 9/17/14 10/18/14
f  12/29/5 10/30/5 14/31/5
f  12/29/5 14/31/5 16/32/5
f  13/31/6 9/30/6 11/29/6
f  15/32/6 13/31/6 11/29/6
f  17/33/6 2/34/6 15/35/6
f  2/34/6 18/36/6 15/35/6
f  15/35/6 18/36/6 13/37/6
f  19/38/6 20/39/6 21/40/6
f  14/37/5 22/36/5 16/35/5
f  22/36/5 1/34/5 16/35/5
f  16/35/5 1/34/5 23/33/5
f  24/38/5 25/40/5 26/39/5
f  20/2/7 19/41/7 24/42/7
f  20/2/7 24/42/7 26/1/7
f  16/43/7 23/44/7 17/45/7
f  16/43/7 17/45/7 15/46/7
f  26/10/15 25/47/15 21/48/15
f  26/10/15 21/48/15 20/9/15
f  13/2/9 18/49/9 22/50/9
f  13/2/9 22/50/9 14/1/9
f  2/9/16 17/48/16 23/47/16
f  1/10/16 2/9/16 23/47/16
f  24/51/1 19/52/1 21/53/1
f  25/54/1 24/51/1 21/53/1
f  1/1/3 22/55/3 18/56/3
f  2/2/3 1/1/3 18/56/3
f  16/1/17 15/2/17 13/17/17
f  16/1/17 13/17/17 14/18/17
f  27/1/9 28/2/9 29/57/9
f  27/1/9 29/57/9 30/58/9
f  30/1/15 29/2/15 31/9/15
f  30/1/15 31/9/15 32/10/15
f  32/1/7 31/2/7 33/57/7
f  32/1/7 33/57/7 34/58/7
f  34/1/18 33/2/18 28/9/18
f  34/1/18 28/9/18 27/10/18
f  34/59/5 27/60/5 30/61/5
f  34/59/5 30/61/5 32/62/5
f  29/61/6 28/60/6 33/59/6
f  31/62/6 29/61/6 33/59/6
f  35/1/19 36/2/19 37/63/19
f  35/1/19 37/63/19 38/64/19
f  38/1/9 37/2/9 39/9/9
f  38/1/9 39/9/9 40/10/9
f  40/1/20 39/2/20 41/63/20
f  40/1/20 41/63/20 42/64/20
f  42/1/7 41/2/7 36/9/7
f  42/1/7 36/9/7 35/10/7
f  42/65/5 35/66/5 38/67/5
f  42/65/5 38/67/5 40/68/5
f  37/67/6 36/66/6 41/65/6
f  39/68/6 37/67/6 41/65/6
f  43/1/15 44/2/15 45/69/15
f  43/1/15 45/69/15 46/70/15
f  46/1/7 45/2/7 47/9/7
f  46/1/7 47/9/7 48/10/7
f  48/1/18 47/2/18 49/69/18
f  48/1/18 49/69/18 50/70/18
f  50/1/21 49/2/21 44/9/21
f  50/1/21 44/9/21 43/10/21
f  50/71/5 43/72/5 46/73/5
f  50/71/5 46/73/5 48/74/5
f  45/73/6 44/72/6 49/71/6
f  47/74/6 45/73/6 49/71/6
f  51/1/7 52/2/7 53/75/7
f  51/1/7 53/75/7 54/76/7
f  54/1/18 53/2/18 55/9/18
f  54/1/18 55/9/18 56/10/18
f  56/1/9 55/2/9 57/75/9
f  56/1/9 57/75/9 58/76/9
f  58/1/15 57/2/15 52/9/15
f  58/1/15 52/9/15 51/10/15
f  58/77/5 51/78/5 54/79/5
f  58/77/5 54/79/5 56/80/5
f  53/79/6 52/78/6 57/77/6
f  55/80/6 53/79/6 57/77/6
f  59/1/18 60/2/18 61/81/18
f  59/1/18 61/81/18 62/82/18
f  62/1/9 61/2/9 63/9/9
f  62/1/9 63/9/9 64/10/9
f  64/1/15 63/2/15 65/81/15
f  64/1/15 65/81/15 66/82/15
f  66/1/7 65/2/7 60/9/7
f  66/1/7 60/9/7 59/10/7
f  66/83/5 59/84/5 62/85/5
f  66/83/5 62/85/5 64/86/5
f  61/85/6 60/84/6 65/83/6
f  63/86/6 61/85/6 65/83/6
f  67/1/18 68/2/18 69/87/18
f  67/1/18 69/87/18 70/88/18
f  70/1/9 69/2/9 71/9/9
f  70/1/9 71/9/9 72/10/9
f  72/1/15 71/2/15 73/87/15
f  72/1/15 73/87/15 74/88/15
f  74/1/7 73/2/7 68/9/7
f  74/1/7 68/9/7 67/10/7
f  74/89/5 67/90/5 70/91/5
f  74/89/5 70/91/5 72/92/5
f  69/91/6 68/90/6 73/89/6
f  71/92/6 69/91/6 73/89/6
f  75/1/9 76/2/9 77/93/9
f  75/1/9 77/93/9 78/94/9
f  78/1/15 77/2/15 79/9/15
f  78/1/15 79/9/15 80/10/15
f  80/1/7 79/2/7 81/93/7
f  80/1/7 81/93/7 82/94/7
f  82/1/18 81/2/18 76/9/18
f  82/1/18 76/9/18 75/10/18
f  82/95/5 75/96/5 78/97/5
f  82/95/5 78/97/5 80/98/5
f  77/97/6 76/96/6 81/95/6
f  79/98/6 77/97/6 81/95/6
f  83/99/6 84/100/6 85/101/6
f  86/102/6 83/99/6 85/101/6
f  87/103/6 88/104/6 89/105/6
f  90/106/6 87/103/6 89/105/6
f  91/99/5 92/102/5 93/101/5
f  91/99/5 93/101/5 94/100/5
f  95/103/5 96/106/5 97/105/5
f  95/103/5 97/105/5 98/104/5
f  93/107/22 85/108/22 84/109/22
f  93/107/22 84/109/22 94/110/22
f  87/2/22 90/111/22 96/112/22
f  87/2/22 96/112/22 95/1/22
f  83/2/23 86/113/23 92/114/23
f  83/2/23 92/114/23 91/1/23
f  98/110/23 97/115/23 89/116/23
f  98/110/23 89/116/23 88/109/23
f  90/117/19 89/118/19 97/119/19
f  96/120/19 90/117/19 97/119/19
f  93/121/20 92/122/20 86/123/20
f  85/124/20 93/121/20 86/123/20
f  94/1/24 84/2/24 83/9/24
f  94/1/24 83/9/24 91/10/24
f  98/1/25 88/2/25 87/9/25
f  98/1/25 87/9/25 95/10/25
f  99/1/9 100/2/9 101/125/9
f  99/1/9 101/125/9 102/126/9
f  102/1/15 101/2/15 103/9/15
f  102/1/15 103/9/15 104/10/15
f  104/1/26 103/2/26 105/125/26
f  104/1/26 105/125/26 106/126/26
f  106/1/18 105/2/18 100/9/18
f  106/1/18 100/9/18 99/10/18
f  106/127/5 99/128/5 102/129/5
f  106/127/5 102/129/5 104/130/5
f  101/129/6 100/128/6 105/127/6
f  103/130/6 101/129/6 105/127/6
f  104/1/18 103/2/18 107/131/18
f  104/1/18 107/131/18 108/132/18
f  108/1/9 107/2/9 109/9/9
f  108/1/9 109/9/9 110/10/9
f  110/1/15 109/2/15 111/131/15
f  110/1/15 111/131/15 112/132/15
f  112/1/7 111/2/7 103/9/7
f  112/1/7 103/9/7 104/10/7
f  112/133/5 104/134/5 108/135/5
f  112/133/5 108/135/5 110/136/5
f  107/135/6 103/134/6 111/133/6
f  109/136/6 107/135/6 111/133/6
f  113/1/9 114/2/9 115/137/9
f  113/1/9 115/137/9 116/138/9
f  116/1/15 115/2/15 117/9/15
f  116/1/15 117/9/15 118/10/15
f  118/1/7 117/2/7 119/137/7
f  118/1/7 119/137/7 120/138/7
f  120/1/18 119/2/18 114/9/18
f  120/1/18 114/9/18 113/10/18
f  120/139/5 113/140/5 116/141/5
f  120/139/5 116/141/5 118/142/5
f  115/141/6 114/140/6 119/139/6
f  117/142/6 115/141/6 119/139/6
f  121/1/27 122/2/27 123/143/27
f  121/1/27 123/143/27 124/144/27
f  124/1/7 123/2/7 125/9/7
f  124/1/7 125/9/7 126/10/7
f  126/1/18 125/2/18 127/143/18
f  126/1/18 127/143/18 128/144/18
f  128/1/9 127/2/9 122/9/9
f  128/1/9 122/9/9 121/10/9
f  121/145/5 124/146/5 126/147/5
f  121/145/5 126/147/5 128/148/5
f  125/147/6 123/146/6 122/145/6
f  127/148/6 125/147/6 122/145/6
f  129/1/28 130/2/28 131/149/28
f  129/1/28 131/149/28 132/150/28
f  132/1/18 131/2/18 133/9/18
f  132/1/18 133/9/18 134/10/18
f  134/1/29 133/2/29 135/151/29
f  134/1/29 135/151/29 136/152/29
f  136/1/3 135/2/3 130/153/3
f  136/1/3 130/153/3 129/154/3
f  129/155/5 132/156/5 134/157/5
f  129/155/5 134/157/5 136/158/5
f  133/157/6 131/156/6 130/155/6
f  135/158/6 133/157/6 130/155/6
f  137/1/18 138/2/18 139/159/18
f  137/1/18 139/159/18 140/160/18
f  140/1/30 139/2/30 141/161/30
f  140/1/30 141/161/30 142/162/30
f  142/1/15 141/2/15 143/159/15
f  142/1/15 143/159/15 144/160/15
f  144/1/7 143/2/7 138/161/7
f  144/1/7 138/161/7 137/162/7
f  144/163/5 137/164/5 140/165/5
f  144/163/5 140/165/5 142/166/5
f  139/165/6 138/164/6 143/163/6
f  141/166/6 139/165/6 143/163/6

