<svg id="рисунки" xmlns="http://www.w3.org/2000/svg" width="216" height="39" viewBox="0 0 216 39">
  <title>лого Keras, Tensor и тд</title>
  <path d="M34.44,8.71,19.63,1.57,4.81,8.71l-3.66,16L11.41,37.59H27.85L38.1,24.74Zm-.86,15.14a.79.79,0,0,1-.88.57l-3.17-.48a10.39,10.39,0,0,1-4.95,6l1.11,3a.79.79,0,0,1-1.45.62l-1.43-2.88A10.37,10.37,0,0,1,16,30.59l-1.54,2.82a.78.78,0,0,1-1.41-.67l1.22-3a10.36,10.36,0,0,1-4.48-5.5l-3.16.6a.79.79,0,0,1-.37-1.53l3.08-.93a10.56,10.56,0,0,1-.11-1.52,10.26,10.26,0,0,1,1.37-5.14l-2.53-2A.79.79,0,0,1,9,12.46l2.74,1.7a10.32,10.32,0,0,1,6.92-3.6l.18-3.21a.79.79,0,0,1,1.57,0l.18,3.21a10.35,10.35,0,0,1,6.7,3.34L30,12.11a.79.79,0,0,1,.94,1.26l-2.46,2.07A10.26,10.26,0,0,1,30,20.87,10,10,0,0,1,29.92,22l3.1.83A.78.78,0,0,1,33.58,23.84Z" style="fill: #c6c5c5"/>
  <g>
    <path d="M25.63,15,21,18.12l-.31-5.57A8.38,8.38,0,0,1,25.63,15Z" style="fill: #c6c5c5"/>
    <path d="M28,20.87a5.52,5.52,0,0,1,0,.66l-5.15-1.37,4.08-3.44A8.32,8.32,0,0,1,28,20.87Z" style="fill: #c6c5c5"/>
    <path d="M27.56,23.62a8.41,8.41,0,0,1-3.66,4.48l-2-5.33Z" style="fill: #c6c5c5"/>
    <path d="M21.93,28.95a8.37,8.37,0,0,1-2.3.32A8.25,8.25,0,0,1,17,28.85l2.55-4.68Z" style="fill: #c6c5c5"/>
    <path d="M17.15,22.89l-2.07,5a8.38,8.38,0,0,1-3.28-4Z" style="fill: #c6c5c5"/>
    <path d="M16.39,20.26l-5.1,1.54a7.41,7.41,0,0,1-.06-.94,8.26,8.26,0,0,1,1-3.91Z" style="fill: #c6c5c5"/>
    <path d="M18.55,12.55l-.31,5.67-4.81-3A8.31,8.31,0,0,1,18.55,12.55Z" style="fill: #c6c5c5"/>
  </g>
  <circle cx="19.63" cy="20.87" r="1.62" style="fill: #c6c5c5"/>
  <g>
    <path d="M56.15,25.11l-2.08,2V31H49.76V10.41h4.32V22l6.31-6h5.15l-6.2,6.31L66.09,31H60.86Z" style="fill: #c6c5c5"/>
    <path d="M82.75,16.06V31h-4.1V29.18a5.73,5.73,0,0,1-2,1.48,6.44,6.44,0,0,1-2.57.51,6.34,6.34,0,0,1-4.65-1.69,6.73,6.73,0,0,1-1.72-5V16.06H72v7.78q0,3.6,3,3.6a3.25,3.25,0,0,0,2.49-1,4.27,4.27,0,0,0,.94-3V16.06Z" style="fill: #c6c5c5"/>
    <path d="M99.35,16.79A6.87,6.87,0,0,1,102,19.48a8.1,8.1,0,0,1,1,4,8.11,8.11,0,0,1-1,4,6.86,6.86,0,0,1-2.67,2.68,7.59,7.59,0,0,1-3.78,1,5.73,5.73,0,0,1-4.68-1.94V31H86.77V10.41h4.32v7.22a5.75,5.75,0,0,1,4.48-1.8A7.59,7.59,0,0,1,99.35,16.79Zm-1.8,9.72a4.18,4.18,0,0,0,1.07-3,4.18,4.18,0,0,0-1.07-3,3.87,3.87,0,0,0-5.45,0,4.18,4.18,0,0,0-1.07,3,4.18,4.18,0,0,0,1.07,3,3.88,3.88,0,0,0,5.45,0Z" style="fill: #c6c5c5"/>
    <path d="M120.37,24.72H109.1a3.51,3.51,0,0,0,1.44,2.19,4.76,4.76,0,0,0,2.82.8,5.72,5.72,0,0,0,2.06-.35,5,5,0,0,0,1.67-1.09l2.3,2.49a7.72,7.72,0,0,1-6.14,2.41,9.72,9.72,0,0,1-4.46-1,7.2,7.2,0,0,1-3-2.73,7.51,7.51,0,0,1-1.05-4,7.62,7.62,0,0,1,1-3.94,7.27,7.27,0,0,1,2.85-2.74,8.82,8.82,0,0,1,8,0,6.88,6.88,0,0,1,2.78,2.7,8.05,8.05,0,0,1,1,4.08Q120.45,23.64,120.37,24.72Zm-10.1-4.79A3.53,3.53,0,0,0,109,22.2h7.33a3.57,3.57,0,0,0-1.22-2.26,3.64,3.64,0,0,0-2.44-.84A3.72,3.72,0,0,0,110.26,19.93Z" style="fill: #c6c5c5"/>
    <path d="M129.54,16.39a7.76,7.76,0,0,1,3-.55v4l-1-.05a4,4,0,0,0-2.91,1,4.19,4.19,0,0,0-1.05,3.11v7h-4.32V16.06h4.12v2A4.8,4.8,0,0,1,129.54,16.39Z" style="fill: #c6c5c5"/>
    <path d="M148.67,17.5a6.59,6.59,0,0,1,1.7,4.93V31h-4.32V23.09a3.89,3.89,0,0,0-.78-2.64,2.84,2.84,0,0,0-2.24-.87,3.43,3.43,0,0,0-2.6,1,4.18,4.18,0,0,0-1,3V31h-4.32V16.06h4.12V17.8a5.73,5.73,0,0,1,2.13-1.45,7.43,7.43,0,0,1,2.8-.51A6.13,6.13,0,0,1,148.67,17.5Z" style="fill: #c6c5c5"/>
    <path d="M168.95,24.72H157.68a3.51,3.51,0,0,0,1.44,2.19,4.76,4.76,0,0,0,2.82.8,5.72,5.72,0,0,0,2.06-.35,5,5,0,0,0,1.67-1.09l2.3,2.49a7.72,7.72,0,0,1-6.14,2.41,9.72,9.72,0,0,1-4.46-1,7.2,7.2,0,0,1-3-2.73,7.51,7.51,0,0,1-1.05-4,7.62,7.62,0,0,1,1-3.94,7.27,7.27,0,0,1,2.85-2.74,8.82,8.82,0,0,1,8,0,6.88,6.88,0,0,1,2.78,2.7,8.05,8.05,0,0,1,1,4.08Q169,23.64,168.95,24.72Zm-10.1-4.79a3.53,3.53,0,0,0-1.22,2.27H165a3.57,3.57,0,0,0-1.22-2.26,3.64,3.64,0,0,0-2.44-.84A3.72,3.72,0,0,0,158.84,19.93Z" style="fill: #c6c5c5"/>
    <path d="M181.51,30.23a4.44,4.44,0,0,1-1.56.71,7.93,7.93,0,0,1-2,.24,5.8,5.8,0,0,1-4.11-1.36,5.19,5.19,0,0,1-1.45-4V19.71h-2.3V16.39h2.3V12.77h4.32v3.63h3.71v3.32h-3.71v6.06a2,2,0,0,0,.48,1.45,1.79,1.79,0,0,0,1.37.51,2.78,2.78,0,0,0,1.74-.55Z" style="fill: #c6c5c5"/>
    <path d="M198,24.72H186.72a3.51,3.51,0,0,0,1.44,2.19,4.76,4.76,0,0,0,2.82.8,5.72,5.72,0,0,0,2.06-.35,5,5,0,0,0,1.67-1.09l2.3,2.49a7.72,7.72,0,0,1-6.14,2.41,9.72,9.72,0,0,1-4.46-1,7.2,7.2,0,0,1-3-2.73,7.51,7.51,0,0,1-1.05-4,7.62,7.62,0,0,1,1-3.94,7.27,7.27,0,0,1,2.85-2.74,8.82,8.82,0,0,1,8,0,6.88,6.88,0,0,1,2.78,2.7,8.05,8.05,0,0,1,1,4.08Q198.06,23.64,198,24.72Zm-10.1-4.79a3.53,3.53,0,0,0-1.22,2.27H194a3.57,3.57,0,0,0-1.22-2.26,3.64,3.64,0,0,0-2.44-.84A3.72,3.72,0,0,0,187.88,19.93Z" style="fill: #c6c5c5"/>
    <path d="M202.33,30.72a9.48,9.48,0,0,1-2.82-1.15l1.44-3.1a9,9,0,0,0,2.41,1,10.09,10.09,0,0,0,2.77.4q2.74,0,2.74-1.36a1,1,0,0,0-.75-.91,11.08,11.08,0,0,0-2.3-.47,22,22,0,0,1-3-.64,4.68,4.68,0,0,1-2.06-1.27,3.62,3.62,0,0,1-.87-2.6,4.08,4.08,0,0,1,.82-2.51,5.25,5.25,0,0,1,2.38-1.7,10.17,10.17,0,0,1,3.7-.61,14.54,14.54,0,0,1,3.14.35,8.81,8.81,0,0,1,2.59,1L211,20.21a8.6,8.6,0,0,0-4.29-1.11,4.37,4.37,0,0,0-2.08.39,1.14,1.14,0,0,0-.69,1,1,1,0,0,0,.75,1,13.21,13.21,0,0,0,2.38.53,25.52,25.52,0,0,1,3,.65,4.49,4.49,0,0,1,2,1.26,3.57,3.57,0,0,1,.86,2.55,3.93,3.93,0,0,1-.83,2.46,5.3,5.3,0,0,1-2.42,1.67,10.79,10.79,0,0,1-3.78.6A14.48,14.48,0,0,1,202.33,30.72Z" style="fill: #c6c5c5"/>
  </g>
</svg>
