<svg id="рус" xmlns="http://www.w3.org/2000/svg" width="251.15" height="66.32" viewBox="0 0 251.15 66.32">
  <title>logo rus</title>
  <path d="M40.29,0V5H5V19.49H33.36v5H5V39H40.29v5H0V0ZM70.17,21.75,88.5,0h6.81V44h-5V5.62L70.17,29.52,50,5.62V44H45V0h6.8ZM102,44V0h5V44Zm13.53,0V0h5V44Zm21-44h29.43a7.11,7.11,0,0,1,5.22,2.14,7.06,7.06,0,0,1,2.14,5.19V44h-5V27.93H134.07V44h-5V7.33a7.06,7.06,0,0,1,2.15-5.19A7.1,7.1,0,0,1,136.46,0Zm-2.39,23h34.22V7.33a2.15,2.15,0,0,0-.73-1.65A2.17,2.17,0,0,0,165.89,5H136.46a2.35,2.35,0,0,0-1.72.73,2.23,2.23,0,0,0-.68,1.65Zm51.08,16v5h-5V39ZM200.89,0h29.43a7.11,7.11,0,0,1,5.22,2.14,7.06,7.06,0,0,1,2.14,5.19V44h-5V27.93H198.5V44h-5V7.33a7.06,7.06,0,0,1,2.15-5.19A7.11,7.11,0,0,1,200.89,0ZM198.5,23h34.22V7.33A2.15,2.15,0,0,0,232,5.68,2.16,2.16,0,0,0,230.33,5H200.89a2.35,2.35,0,0,0-1.72.73,2.23,2.23,0,0,0-.68,1.65Zm46.23,21V0h5V44Z" transform="translate(0.33 0)" style="fill: #6b6b6b"/>
  <g>
    <path d="M7.77,56.82v9.4H6.45V58H1v8.23H-.33v-9.4Z" transform="translate(0.33 0)" style="fill: #446bb6"/>
    <path d="M17.24,57.69a3.28,3.28,0,0,1,0,4.81,4.35,4.35,0,0,1-2.87.87H12v2.85H10.7v-9.4h3.67A4.35,4.35,0,0,1,17.24,57.69Zm-1,4a2.16,2.16,0,0,0,0-3.13A3,3,0,0,0,14.32,58H12V62.2h2.28A3,3,0,0,0,16.27,61.66Z" transform="translate(0.33 0)" style="fill: #446bb6"/>
    <path d="M22,65.7A4.62,4.62,0,0,1,20.16,64a5,5,0,0,1,0-4.92A4.63,4.63,0,0,1,22,57.33a5.56,5.56,0,0,1,5.12,0,4.59,4.59,0,0,1,1.79,1.72,5,5,0,0,1,0,4.93,4.58,4.58,0,0,1-1.79,1.72,5.56,5.56,0,0,1-5.12,0Zm4.43-1a3.45,3.45,0,0,0,1.3-1.3,3.81,3.81,0,0,0,0-3.69,3.45,3.45,0,0,0-1.3-1.3,3.69,3.69,0,0,0-1.86-.47,3.76,3.76,0,0,0-1.87.47,3.42,3.42,0,0,0-1.32,1.3,3.82,3.82,0,0,0,0,3.69,3.42,3.42,0,0,0,1.32,1.3,3.76,3.76,0,0,0,1.87.47A3.69,3.69,0,0,0,26.38,64.66Z" transform="translate(0.33 0)" style="fill: #446bb6"/>
    <path d="M33.33,65.7A4.59,4.59,0,0,1,31.55,64a5,5,0,0,1,0-4.93,4.59,4.59,0,0,1,1.79-1.72,5.23,5.23,0,0,1,2.55-.62,5.33,5.33,0,0,1,2,.37,4.12,4.12,0,0,1,1.56,1.09l-.87.85a3.5,3.5,0,0,0-2.65-1.11,3.83,3.83,0,0,0-1.89.47,3.41,3.41,0,0,0-1.32,1.3,3.82,3.82,0,0,0,0,3.69,3.41,3.41,0,0,0,1.32,1.3,3.83,3.83,0,0,0,1.89.47A3.51,3.51,0,0,0,38.59,64l.87.85a4.19,4.19,0,0,1-1.56,1.1,5.29,5.29,0,0,1-2,.38A5.19,5.19,0,0,1,33.33,65.7Z" transform="translate(0.33 0)" style="fill: #446bb6"/>
    <path d="M47.67,58H44.45v8.23H43.13V58H39.92V56.82h7.75Z" transform="translate(0.33 0)" style="fill: #446bb6"/>
    <path d="M55.85,57.69a3.28,3.28,0,0,1,0,4.81,4.35,4.35,0,0,1-2.87.87H50.65v2.85H49.31v-9.4H53A4.35,4.35,0,0,1,55.85,57.69Zm-1,4a2.16,2.16,0,0,0,0-3.13A3,3,0,0,0,52.93,58H50.65V62.2h2.28A3,3,0,0,0,54.88,61.66Z" transform="translate(0.33 0)" style="fill: #446bb6"/>
    <path d="M64.4,63.87h-5l-1,2.35H57l4.26-9.4h1.33l4.27,9.4H65.44Zm-.47-1.07-2-4.61-2,4.61Z" transform="translate(0.33 0)" style="fill: #446bb6"/>
    <path d="M76.56,56.82v9.4H75.21V62h-5.4v4.19H68.47v-9.4h1.34v4h5.4v-4Z" transform="translate(0.33 0)" style="fill: #446bb6"/>
    <path d="M81.14,65.7A4.59,4.59,0,0,1,79.36,64a5,5,0,0,1,0-4.93,4.59,4.59,0,0,1,1.79-1.72,5.23,5.23,0,0,1,2.55-.62,5.33,5.33,0,0,1,2,.37,4.12,4.12,0,0,1,1.56,1.09L86.4,59a3.5,3.5,0,0,0-2.65-1.11,3.83,3.83,0,0,0-1.89.47,3.41,3.41,0,0,0-1.32,1.3,3.82,3.82,0,0,0,0,3.69,3.41,3.41,0,0,0,1.32,1.3,3.83,3.83,0,0,0,1.89.47A3.51,3.51,0,0,0,86.4,64l.87.85a4.19,4.19,0,0,1-1.56,1.1,5.29,5.29,0,0,1-2,.38A5.19,5.19,0,0,1,81.14,65.7Z" transform="translate(0.33 0)" style="fill: #446bb6"/>
    <path d="M95.48,58H92.25v8.23H90.94V58H87.73V56.82h7.75Z" transform="translate(0.33 0)" style="fill: #446bb6"/>
    <path d="M104.41,62.15a2.49,2.49,0,0,1-.4,3.39,4.27,4.27,0,0,1-2.6.67h-4.3v-9.4h4a4.06,4.06,0,0,1,2.41.62,2.08,2.08,0,0,1,.87,1.79,2.18,2.18,0,0,1-.38,1.3,2.29,2.29,0,0,1-1.08.81A2.61,2.61,0,0,1,104.41,62.15Zm-6-1.2h2.62a2.46,2.46,0,0,0,1.5-.39,1.52,1.52,0,0,0,0-2.29,2.43,2.43,0,0,0-1.49-.4H98.44Zm5.1,2.59a1.35,1.35,0,0,0-.54-1.19,2.82,2.82,0,0,0-1.62-.38H98.44v3.18h2.94Q103.55,65.16,103.55,63.54Z" transform="translate(0.33 0)" style="fill: #446bb6"/>
    <path d="M114,65v1.17h-6.82v-9.4h6.63V58h-5.29v2.89h4.71V62h-4.71v3Z" transform="translate(0.33 0)" style="fill: #446bb6"/>
    <path d="M124.16,56.82v9.4h-1.34V62h-5.4v4.19h-1.34v-9.4h1.34v4h5.4v-4Z" transform="translate(0.33 0)" style="fill: #446bb6"/>
    <path d="M135.17,56.82v9.4h-1.34V62h-5.4v4.19h-1.34v-9.4h1.34v4h5.4v-4Z" transform="translate(0.33 0)" style="fill: #446bb6"/>
    <path d="M144.8,60.84a2.73,2.73,0,0,1,.89,2.22,2.89,2.89,0,0,1-1,2.35,4.16,4.16,0,0,1-2.75.81H138.1v-9.4h1.33v3.28h2.79A3.89,3.89,0,0,1,144.8,60.84Zm-1.07,3.78a1.91,1.91,0,0,0,.62-1.54q0-1.93-2.42-1.93h-2.5v4h2.5A2.69,2.69,0,0,0,143.72,64.62Zm3.46-7.81h1.33v9.4h-1.33Z" transform="translate(0.33 0)" style="fill: #446bb6"/>
    <path d="M151.44,56.82h1.33v7.25l5.56-7.25h1.24v9.4h-1.32V59l-5.57,7.24h-1.24Zm2.34-1.13a1.68,1.68,0,0,1-.61-1.36h1a1,1,0,0,0,.37.81,1.81,1.81,0,0,0,2,0,1,1,0,0,0,.38-.81h.94a1.68,1.68,0,0,1-.61,1.36,2.62,2.62,0,0,1-1.69.48A2.66,2.66,0,0,1,153.78,55.68Z" transform="translate(0.33 0)" style="fill: #446bb6"/>
    <path d="M166.1,56.82h1.33v7.25L173,56.82h1.24v9.4h-1.32V59l-5.57,7.24H166.1Z" transform="translate(0.33 0)" style="fill: #446bb6"/>
    <path d="M185.24,56.82v9.4H183.9V62h-5.4v4.19h-1.34v-9.4h1.34v4h5.4v-4Z" transform="translate(0.33 0)" style="fill: #446bb6"/>
    <path d="M194.63,58H191.4v8.23h-1.32V58h-3.21V56.82h7.75Z" transform="translate(0.33 0)" style="fill: #446bb6"/>
    <path d="M203.09,65v1.17h-6.82v-9.4h6.63V58h-5.29v2.89h4.71V62h-4.71v3Z" transform="translate(0.33 0)" style="fill: #446bb6"/>
    <path d="M212.88,56.82v9.4h-1.32V58H207.4l-.09,2.75a19.67,19.67,0,0,1-.32,3.16,3.93,3.93,0,0,1-.79,1.82,1.83,1.83,0,0,1-1.45.61,3.49,3.49,0,0,1-.85-.11L204,65a1.75,1.75,0,0,0,.43.05,1.11,1.11,0,0,0,.93-.46,3.37,3.37,0,0,0,.52-1.39,17,17,0,0,0,.23-2.44l.15-4Z" transform="translate(0.33 0)" style="fill: #446bb6"/>
    <path d="M223.36,56.82v9.4H222V58h-4.16l-.09,2.75a19.67,19.67,0,0,1-.32,3.16,3.93,3.93,0,0,1-.79,1.82,1.83,1.83,0,0,1-1.45.61,3.49,3.49,0,0,1-.85-.11l.09-1.2a1.75,1.75,0,0,0,.43.05,1.11,1.11,0,0,0,.93-.46,3.37,3.37,0,0,0,.52-1.39,17,17,0,0,0,.23-2.44l.15-4Z" transform="translate(0.33 0)" style="fill: #446bb6"/>
    <path d="M233.11,65v1.17h-6.82v-9.4h6.63V58h-5.29v2.89h4.71V62h-4.71v3Z" transform="translate(0.33 0)" style="fill: #446bb6"/>
    <path d="M238.5,62.08h-2v4.14h-1.32v-9.4h1.32V60.9h2l3-4.08h1.44l-3.36,4.55,3.52,4.85h-1.53Z" transform="translate(0.33 0)" style="fill: #446bb6"/>
    <path d="M250.83,58H247.6v8.23h-1.32V58h-3.21V56.82h7.75Z" transform="translate(0.33 0)" style="fill: #446bb6"/>
  </g>
</svg>
