<svg id="рус" xmlns="http://www.w3.org/2000/svg" width="251.08" height="66.2" viewBox="0 0 251.08 66.2">
  <title>logo rus</title>
  <path d="M40.29,0V5H5V19.49H33.36v5H5V39H40.29v5H0V0ZM70.17,21.75,88.5,0h6.81V44h-5V5.62L70.17,29.52,50,5.62V44H45V0h6.8ZM102,44V0h5V44Zm13.53,0V0h5V44Zm21-44h29.43a7.11,7.11,0,0,1,5.22,2.14,7.06,7.06,0,0,1,2.14,5.19V44h-5V27.93H134.07V44h-5V7.33a7.06,7.06,0,0,1,2.15-5.19A7.1,7.1,0,0,1,136.46,0Zm-2.39,23h34.22V7.33a2.15,2.15,0,0,0-.73-1.65A2.17,2.17,0,0,0,165.89,5H136.46a2.35,2.35,0,0,0-1.72.73,2.23,2.23,0,0,0-.68,1.65Zm51.08,16v5h-5V39ZM200.89,0h29.43a7.11,7.11,0,0,1,5.22,2.14,7.06,7.06,0,0,1,2.14,5.19V44h-5V27.93H198.5V44h-5V7.33a7.06,7.06,0,0,1,2.15-5.19A7.11,7.11,0,0,1,200.89,0ZM198.5,23h34.22V7.33A2.15,2.15,0,0,0,232,5.68,2.16,2.16,0,0,0,230.33,5H200.89a2.35,2.35,0,0,0-1.72.73,2.23,2.23,0,0,0-.68,1.65Zm46.23,21V0h5V44Z" transform="translate(0.35 0)" style="fill: #6b6b6b"/>
  <g>
    <path d="M7.89,56.74v9.32H6.19V58.21H1.36v7.86H-.35V56.74Z" transform="translate(0.35 0)" style="fill: #6c8196"/>
    <path d="M16.46,57.14a3.07,3.07,0,0,1,1.38,1.15,3.5,3.5,0,0,1,0,3.54A3.06,3.06,0,0,1,16.46,63a5.16,5.16,0,0,1-2.11.4h-2.1v2.69H10.52V56.74h3.83A5.17,5.17,0,0,1,16.46,57.14ZM16,61.43a1.9,1.9,0,0,0,0-2.74,2.66,2.66,0,0,0-1.72-.48h-2v3.7h2A2.65,2.65,0,0,0,16,61.43Z" transform="translate(0.35 0)" style="fill: #6c8196"/>
    <path d="M21.83,65.58A4.59,4.59,0,0,1,20,63.86a5,5,0,0,1,0-4.91,4.59,4.59,0,0,1,1.8-1.72,5.64,5.64,0,0,1,5.14,0,4.61,4.61,0,0,1,1.8,1.71,5,5,0,0,1,0,4.93A4.59,4.59,0,0,1,27,65.58a5.64,5.64,0,0,1-5.14,0Zm4.25-1.32a3,3,0,0,0,1.17-1.17,3.54,3.54,0,0,0,0-3.37,3,3,0,0,0-1.17-1.17,3.56,3.56,0,0,0-3.36,0,3,3,0,0,0-1.17,1.17,3.54,3.54,0,0,0,0,3.37,3,3,0,0,0,1.17,1.17,3.57,3.57,0,0,0,3.36,0Z" transform="translate(0.35 0)" style="fill: #6c8196"/>
    <path d="M33.08,65.58a4.55,4.55,0,0,1-1.78-1.71,5,5,0,0,1,0-4.93,4.62,4.62,0,0,1,1.79-1.71,5.24,5.24,0,0,1,2.55-.62,5.31,5.31,0,0,1,2.09.4,4.27,4.27,0,0,1,1.6,1.16l-1.12,1.05a3.26,3.26,0,0,0-2.49-1.09,3.48,3.48,0,0,0-1.72.42,3,3,0,0,0-1.19,1.17,3.57,3.57,0,0,0,0,3.38A3,3,0,0,0,34,64.26a3.49,3.49,0,0,0,1.72.42,3.24,3.24,0,0,0,2.49-1.11l1.12,1.07a4.25,4.25,0,0,1-1.6,1.16,5.36,5.36,0,0,1-2.1.4A5.24,5.24,0,0,1,33.08,65.58Z" transform="translate(0.35 0)" style="fill: #6c8196"/>
    <path d="M47.6,58.21H44.51v7.86H42.79V58.21H39.71V56.74H47.6Z" transform="translate(0.35 0)" style="fill: #6c8196"/>
    <path d="M55,57.14a3.07,3.07,0,0,1,1.38,1.15,3.5,3.5,0,0,1,0,3.54A3.06,3.06,0,0,1,55,63a5.16,5.16,0,0,1-2.11.4h-2.1v2.69H49.09V56.74h3.83A5.17,5.17,0,0,1,55,57.14Zm-.47,4.29a1.9,1.9,0,0,0,0-2.74,2.66,2.66,0,0,0-1.72-.48h-2v3.7h2A2.65,2.65,0,0,0,54.56,61.43Z" transform="translate(0.35 0)" style="fill: #6c8196"/>
    <path d="M64.24,63.91H59.58l-.92,2.16H56.88l4.19-9.32h1.7L67,66.06H65.17Zm-.57-1.36-1.76-4.07-1.74,4.07Z" transform="translate(0.35 0)" style="fill: #6c8196"/>
    <path d="M76.69,56.74v9.32H75v-4H70.14v4H68.41V56.74h1.73v3.85H75V56.74Z" transform="translate(0.35 0)" style="fill: #6c8196"/>
    <path d="M81,65.58a4.55,4.55,0,0,1-1.78-1.71,5,5,0,0,1,0-4.93A4.62,4.62,0,0,1,81,57.23a5.24,5.24,0,0,1,2.55-.62,5.31,5.31,0,0,1,2.09.4,4.27,4.27,0,0,1,1.6,1.16l-1.12,1.05a3.26,3.26,0,0,0-2.49-1.09,3.48,3.48,0,0,0-1.72.42,3,3,0,0,0-1.19,1.17,3.57,3.57,0,0,0,0,3.38A3,3,0,0,0,82,64.26a3.49,3.49,0,0,0,1.72.42,3.24,3.24,0,0,0,2.49-1.11l1.12,1.07a4.25,4.25,0,0,1-1.6,1.16,5.36,5.36,0,0,1-2.1.4A5.24,5.24,0,0,1,81,65.58Z" transform="translate(0.35 0)" style="fill: #6c8196"/>
    <path d="M95.55,58.21H92.46v7.86H90.75V58.21H87.67V56.74h7.88Z" transform="translate(0.35 0)" style="fill: #6c8196"/>
    <path d="M104.54,62a2.46,2.46,0,0,1-.44,3.35,4.32,4.32,0,0,1-2.62.68H97.06V56.74h4.17a4.17,4.17,0,0,1,2.45.63,2,2,0,0,1,.88,1.77,2.24,2.24,0,0,1-.35,1.27,2.21,2.21,0,0,1-1,.81A2.52,2.52,0,0,1,104.54,62Zm-5.78-1.31h2.32a2.09,2.09,0,0,0,1.28-.33,1.16,1.16,0,0,0,.44-1,1.18,1.18,0,0,0-.44-1,2.06,2.06,0,0,0-1.28-.34H98.76Zm4.5,2.62q0-1.36-1.84-1.36H98.76v2.74h2.66Q103.26,64.73,103.26,63.35Z" transform="translate(0.35 0)" style="fill: #6c8196"/>
    <path d="M114,64.61v1.45h-7V56.74h6.8v1.45h-5.07v2.42h4.5V62h-4.5v2.57Z" transform="translate(0.35 0)" style="fill: #6c8196"/>
    <path d="M124.18,56.74v9.32h-1.73v-4h-4.82v4H115.9V56.74h1.73v3.85h4.82V56.74Z" transform="translate(0.35 0)" style="fill: #6c8196"/>
    <path d="M135.07,56.74v9.32h-1.73v-4h-4.82v4h-1.73V56.74h1.73v3.85h4.82V56.74Z" transform="translate(0.35 0)" style="fill: #6c8196"/>
    <path d="M144.56,60.65a2.74,2.74,0,0,1,.9,2.23,2.9,2.9,0,0,1-1,2.36,4.21,4.21,0,0,1-2.77.82h-4V56.74h1.7V59.9H142A3.91,3.91,0,0,1,144.56,60.65Zm-1.38,3.61a1.69,1.69,0,0,0,.55-1.36q0-1.69-2.1-1.69H139.4v3.52h2.22A2.33,2.33,0,0,0,143.18,64.27Zm3.62-7.52h1.7v9.32h-1.7Z" transform="translate(0.35 0)" style="fill: #6c8196"/>
    <path d="M151.14,56.74h1.7v6.62l5-6.62h1.61v9.32h-1.7v-6.6l-5,6.6h-1.61Zm2.34-1.12a1.78,1.78,0,0,1-.62-1.44h1.21a1,1,0,0,0,.32.76,1.32,1.32,0,0,0,.89.27,1.38,1.38,0,0,0,.9-.27,1,1,0,0,0,.34-.76h1.2a1.77,1.77,0,0,1-.63,1.43,3.53,3.53,0,0,1-3.61,0Z" transform="translate(0.35 0)" style="fill: #6c8196"/>
    <path d="M165.76,56.74h1.7v6.62l5-6.62h1.61v9.32h-1.7v-6.6l-5,6.6h-1.61Z" transform="translate(0.35 0)" style="fill: #6c8196"/>
    <path d="M185,56.74v9.32h-1.73v-4h-4.82v4h-1.73V56.74h1.73v3.85h4.82V56.74Z" transform="translate(0.35 0)" style="fill: #6c8196"/>
    <path d="M194.34,58.21h-3.09v7.86h-1.72V58.21h-3.08V56.74h7.88Z" transform="translate(0.35 0)" style="fill: #6c8196"/>
    <path d="M202.83,64.61v1.45h-7V56.74h6.8v1.45h-5.07v2.42h4.5V62h-4.5v2.57Z" transform="translate(0.35 0)" style="fill: #6c8196"/>
    <path d="M212.72,56.74v9.32H211V58.21h-3.67l-.08,2.33a19.35,19.35,0,0,1-.32,3.18,4,4,0,0,1-.81,1.85,2,2,0,0,1-1.54.63,4.62,4.62,0,0,1-.95-.13l.12-1.5a1.34,1.34,0,0,0,.4.05,1.21,1.21,0,0,0,1.15-1,11.2,11.2,0,0,0,.42-3l.13-3.86Z" transform="translate(0.35 0)" style="fill: #6c8196"/>
    <path d="M223.21,56.74v9.32h-1.7V58.21h-3.67l-.08,2.33a19.35,19.35,0,0,1-.32,3.18,4,4,0,0,1-.81,1.85,2,2,0,0,1-1.54.63,4.62,4.62,0,0,1-.95-.13l.12-1.5a1.34,1.34,0,0,0,.4.05,1.21,1.21,0,0,0,1.15-1,11.2,11.2,0,0,0,.42-3l.13-3.86Z" transform="translate(0.35 0)" style="fill: #6c8196"/>
    <path d="M232.82,64.61v1.45h-7V56.74h6.8v1.45h-5.07v2.42h4.5V62h-4.5v2.57Z" transform="translate(0.35 0)" style="fill: #6c8196"/>
    <path d="M238.19,62.14h-1.73v3.93h-1.7V56.74h1.7v3.9h1.78l2.68-3.9h1.84l-3.18,4.51,3.3,4.81h-2Z" transform="translate(0.35 0)" style="fill: #6c8196"/>
    <path d="M250.73,58.21h-3.09v7.86h-1.72V58.21h-3.08V56.74h7.88Z" transform="translate(0.35 0)" style="fill: #6c8196"/>
  </g>
</svg>
