<svg id="eng" xmlns="http://www.w3.org/2000/svg" width="250.56" height="66.2" viewBox="0 0 250.56 66.2">
  <title>logo rus</title>
  <path d="M40.29,0V5H5V19.49H33.36v5H5V39H40.29v5H0V0ZM70.17,21.75,88.5,0h6.81V44h-5V5.62L70.17,29.52,50,5.62V44H45V0h6.8ZM102,44V0h5V44Zm13.53,0V0h5V44Zm21-44h29.43a7.11,7.11,0,0,1,5.22,2.14,7.06,7.06,0,0,1,2.14,5.19V44h-5V27.93H134.07V44h-5V7.33a7.06,7.06,0,0,1,2.15-5.19A7.1,7.1,0,0,1,136.46,0Zm-2.39,23h34.22V7.33a2.15,2.15,0,0,0-.73-1.65A2.17,2.17,0,0,0,165.89,5H136.46a2.35,2.35,0,0,0-1.72.73,2.23,2.23,0,0,0-.68,1.65Zm51.08,16v5h-5V39ZM200.89,0h29.43a7.11,7.11,0,0,1,5.22,2.14,7.06,7.06,0,0,1,2.14,5.19V44h-5V27.93H198.5V44h-5V7.33a7.06,7.06,0,0,1,2.15-5.19A7.11,7.11,0,0,1,200.89,0ZM198.5,23h34.22V7.33A2.15,2.15,0,0,0,232,5.68,2.16,2.16,0,0,0,230.33,5H200.89a2.35,2.35,0,0,0-1.72.73,2.23,2.23,0,0,0-.68,1.65Zm46.23,21V0h5V44Z" transform="translate(0 0)" style="fill: #6b6b6b"/>
  <g>
    <path d="M91.72,65.89a4.34,4.34,0,0,1-1.59-.81l.6-1.34a4.74,4.74,0,0,0,1.4.74,5.12,5.12,0,0,0,1.67.29,2.89,2.89,0,0,0,1.55-.33,1,1,0,0,0,.51-.88.85.85,0,0,0-.29-.66,2,2,0,0,0-.73-.41q-.44-.15-1.2-.33a14.15,14.15,0,0,1-1.72-.51,2.84,2.84,0,0,1-1.13-.79,2.13,2.13,0,0,1-.47-1.46,2.49,2.49,0,0,1,.42-1.4A2.83,2.83,0,0,1,92,57a5.11,5.11,0,0,1,2.07-.37,6.71,6.71,0,0,1,1.68.21,4.66,4.66,0,0,1,1.42.61l-.55,1.34a5.44,5.44,0,0,0-1.28-.55A4.8,4.8,0,0,0,94.07,58a2.7,2.7,0,0,0-1.52.35,1.07,1.07,0,0,0-.5.92.83.83,0,0,0,.29.65,2.08,2.08,0,0,0,.73.4q.44.15,1.2.33a12.59,12.59,0,0,1,1.7.5A2.92,2.92,0,0,1,97.1,62a2.09,2.09,0,0,1,.47,1.44,2.45,2.45,0,0,1-.42,1.4,2.86,2.86,0,0,1-1.27,1,5.18,5.18,0,0,1-2.08.37A7.11,7.11,0,0,1,91.72,65.89Z" transform="translate(0 0)" style="fill: #6c8196"/>
    <path d="M105.24,57.14a3.07,3.07,0,0,1,1.38,1.15,3.5,3.5,0,0,1,0,3.54A3.06,3.06,0,0,1,105.24,63a5.16,5.16,0,0,1-2.11.4H101v2.69H99.29V56.74h3.83A5.17,5.17,0,0,1,105.24,57.14Zm-.47,4.29a1.9,1.9,0,0,0,0-2.74,2.66,2.66,0,0,0-1.72-.48h-2v3.7h2A2.65,2.65,0,0,0,104.77,61.43Z" transform="translate(0 0)" style="fill: #6c8196"/>
    <path d="M114.41,63.91h-4.66l-.92,2.16H107l4.19-9.32h1.7l4.21,9.32h-1.81Zm-.57-1.36-1.76-4.07-1.74,4.07Z" transform="translate(0 0)" style="fill: #6c8196"/>
    <path d="M119.76,58.21h-3.09V56.74h7.91v1.46h-3.09v7.86h-1.73Z" transform="translate(0 0)" style="fill: #6c8196"/>
    <path d="M125.88,56.74h1.73v9.32h-1.73Z" transform="translate(0 0)" style="fill: #6c8196"/>
    <path d="M136.17,63.91h-4.66l-.92,2.16h-1.78L133,56.74h1.7l4.21,9.32h-1.81Zm-.57-1.36-1.76-4.07-1.74,4.07Z" transform="translate(0 0)" style="fill: #6c8196"/>
    <path d="M140.1,56.74h1.73V64.6h4.87v1.46h-6.6Z" transform="translate(0 0)" style="fill: #6c8196"/>
    <path d="M151.75,56.74h1.73v9.32h-1.73Z" transform="translate(0 0)" style="fill: #6c8196"/>
    <path d="M164.28,56.74v9.32h-1.42l-5.14-6.31v6.31H156V56.74h1.42l5.14,6.31V56.74Z" transform="translate(0 0)" style="fill: #6c8196"/>
    <path d="M168.67,58.21h-3.09V56.74h7.91v1.46H170.4v7.86h-1.73Z" transform="translate(0 0)" style="fill: #6c8196"/>
    <path d="M181.79,64.61v1.45h-7V56.74h6.8v1.45h-5.07v2.42H181V62h-4.5v2.57Z" transform="translate(0 0)" style="fill: #6c8196"/>
    <path d="M183.72,56.74h1.73V64.6h4.87v1.46h-6.6Z" transform="translate(0 0)" style="fill: #6c8196"/>
    <path d="M191.69,56.74h1.73V64.6h4.87v1.46h-6.6Z" transform="translate(0 0)" style="fill: #6c8196"/>
    <path d="M199.67,56.74h1.73v9.32h-1.73Z" transform="translate(0 0)" style="fill: #6c8196"/>
    <path d="M210.28,61.3h1.64V65a5.2,5.2,0,0,1-1.68.88,6.43,6.43,0,0,1-2,.31,5.31,5.31,0,0,1-2.57-.62,4.58,4.58,0,0,1-1.8-1.71,5,5,0,0,1,0-4.93,4.59,4.59,0,0,1,1.8-1.71,5.38,5.38,0,0,1,2.59-.62,5.66,5.66,0,0,1,2.13.39A4.18,4.18,0,0,1,212,58.13l-1.09,1.07a3.5,3.5,0,0,0-2.57-1.07,3.63,3.63,0,0,0-1.75.41,3,3,0,0,0-1.2,1.16,3.33,3.33,0,0,0-.43,1.7,3.28,3.28,0,0,0,.43,1.68,3.1,3.1,0,0,0,1.2,1.17,3.51,3.51,0,0,0,1.74.43,3.75,3.75,0,0,0,1.92-.48Z" transform="translate(0 0)" style="fill: #6c8196"/>
    <path d="M221.18,64.61v1.45h-7V56.74H221v1.45h-5.07v2.42h4.5V62h-4.5v2.57Z" transform="translate(0 0)" style="fill: #6c8196"/>
    <path d="M231.4,56.74v9.32H230l-5.14-6.31v6.31h-1.72V56.74h1.42l5.14,6.31V56.74Z" transform="translate(0 0)" style="fill: #6c8196"/>
    <path d="M235.66,65.58a4.56,4.56,0,0,1-1.78-1.71,5,5,0,0,1,0-4.93,4.62,4.62,0,0,1,1.79-1.71,5.24,5.24,0,0,1,2.55-.62,5.31,5.31,0,0,1,2.09.4,4.27,4.27,0,0,1,1.6,1.16l-1.12,1.05a3.26,3.26,0,0,0-2.49-1.09,3.48,3.48,0,0,0-1.72.42,3,3,0,0,0-1.19,1.17,3.57,3.57,0,0,0,0,3.38,3,3,0,0,0,1.19,1.17,3.49,3.49,0,0,0,1.72.42,3.24,3.24,0,0,0,2.49-1.11l1.12,1.07a4.24,4.24,0,0,1-1.6,1.16,5.36,5.36,0,0,1-2.1.4A5.24,5.24,0,0,1,235.66,65.58Z" transform="translate(0 0)" style="fill: #6c8196"/>
    <path d="M250.57,64.61v1.45h-7V56.74h6.8v1.45h-5.07v2.42h4.5V62h-4.5v2.57Z" transform="translate(0 0)" style="fill: #6c8196"/>
  </g>
</svg>
