<svg id="eng" xmlns="http://www.w3.org/2000/svg" width="251.36" height="69.57" viewBox="0 0 251.36 69.57">
  <title>logo eng</title>
  <path d="M40.29,0V5H5V19.49H33.36v5H5V39H40.29v5H0V0ZM70.17,21.75,88.5,0h6.81V44h-5V5.62L70.17,29.52,50,5.62V44H45V0h6.8ZM102,44V0h5V44Zm13.53,0V0h5V44Zm21-44h29.43a7.11,7.11,0,0,1,5.22,2.14,7.06,7.06,0,0,1,2.14,5.19V44h-5V27.93H134.07V44h-5V7.33a7.06,7.06,0,0,1,2.15-5.19A7.1,7.1,0,0,1,136.46,0Zm-2.39,23h34.22V7.33a2.15,2.15,0,0,0-.73-1.65A2.17,2.17,0,0,0,165.89,5H136.46a2.35,2.35,0,0,0-1.72.73,2.23,2.23,0,0,0-.68,1.65Zm51.08,16v5h-5V39ZM200.89,0h29.43a7.11,7.11,0,0,1,5.22,2.14,7.06,7.06,0,0,1,2.14,5.19V44h-5V27.93H198.5V44h-5V7.33a7.06,7.06,0,0,1,2.15-5.19A7.11,7.11,0,0,1,200.89,0ZM198.5,23h34.22V7.33A2.15,2.15,0,0,0,232,5.68,2.16,2.16,0,0,0,230.33,5H200.89a2.35,2.35,0,0,0-1.72.73,2.23,2.23,0,0,0-.68,1.65Zm46.23,21V0h5V44Z" transform="translate(0 0)" style="fill: #6b6b6b"/>
  <text transform="translate(90.06 66.04)" style="font-size: 13.42936897277832px;fill: #446bb6;font-family: Montserrat-Medium, Montserrat">S<tspan x="8.34" y="0" style="letter-spacing: -0.04497634307869056em">P</tspan><tspan x="17.43" y="0" style="letter-spacing: -0.03497756026006493em">A</tspan><tspan x="26.79" y="0">TIAL INTELLIGENCE</tspan></text>
</svg>
