<svg id="рус" xmlns="http://www.w3.org/2000/svg" width="249.7" height="66.49" viewBox="0 0 249.7 66.49">
  <title>logo rus</title>
  <path d="M40.29,0V5H5V19.49H33.36v5H5V39H40.29v5H0V0ZM70.17,21.75,88.5,0h6.81V44h-5V5.62L70.17,29.52,50,5.62V44H45V0h6.8ZM102,44V0h5V44Zm13.53,0V0h5V44Zm21-44h29.43a7.11,7.11,0,0,1,5.22,2.14,7.06,7.06,0,0,1,2.14,5.19V44h-5V27.93H134.07V44h-5V7.33a7.06,7.06,0,0,1,2.15-5.19A7.1,7.1,0,0,1,136.46,0Zm-2.39,23h34.22V7.33a2.15,2.15,0,0,0-.73-1.65A2.17,2.17,0,0,0,165.89,5H136.46a2.35,2.35,0,0,0-1.72.73,2.23,2.23,0,0,0-.68,1.65Zm51.08,16v5h-5V39ZM200.89,0h29.43a7.11,7.11,0,0,1,5.22,2.14,7.06,7.06,0,0,1,2.14,5.19V44h-5V27.93H198.5V44h-5V7.33a7.06,7.06,0,0,1,2.15-5.19A7.11,7.11,0,0,1,200.89,0ZM198.5,23h34.22V7.33A2.15,2.15,0,0,0,232,5.68,2.16,2.16,0,0,0,230.33,5H200.89a2.35,2.35,0,0,0-1.72.73,2.23,2.23,0,0,0-.68,1.65Zm46.23,21V0h5V44Z" transform="translate(0 0)" style="fill: #6b6b6b"/>
  <g>
    <path d="M7.92,57V66.4h-1V57.84H1V66.4H0V57Z" transform="translate(0 0)" style="fill: #446bb6"/>
    <path d="M17.45,57.84a3.25,3.25,0,0,1,0,4.73,4.28,4.28,0,0,1-2.83.85H12.1v3h-1V57h3.52A4.25,4.25,0,0,1,17.45,57.84Zm-.71,4.1a2.12,2.12,0,0,0,.74-1.73,2.15,2.15,0,0,0-.74-1.76,3.28,3.28,0,0,0-2.14-.61H12.1v4.71h2.5A3.27,3.27,0,0,0,16.74,61.94Z" transform="translate(0 0)" style="fill: #446bb6"/>
    <path d="M22.25,65.85a4.57,4.57,0,0,1-1.78-1.72,5,5,0,0,1,0-4.9,4.57,4.57,0,0,1,1.78-1.72,5.45,5.45,0,0,1,5.06,0,4.58,4.58,0,0,1,1.77,1.72,5,5,0,0,1,0,4.91,4.58,4.58,0,0,1-1.77,1.72,5.45,5.45,0,0,1-5.06,0Zm4.55-.77a3.65,3.65,0,0,0,1.41-1.4,4.16,4.16,0,0,0,0-4,3.64,3.64,0,0,0-1.41-1.4,4.3,4.3,0,0,0-4,0,3.68,3.68,0,0,0-1.43,1.4,4.11,4.11,0,0,0,0,4,3.68,3.68,0,0,0,1.43,1.4,4.3,4.3,0,0,0,4,0Z" transform="translate(0 0)" style="fill: #446bb6"/>
    <path d="M33.7,65.86a4.53,4.53,0,0,1-1.76-1.72,5,5,0,0,1,0-4.91,4.52,4.52,0,0,1,1.77-1.72,5.18,5.18,0,0,1,2.53-.62,5.25,5.25,0,0,1,1.94.35,4,4,0,0,1,1.51,1l-.63.63a3.75,3.75,0,0,0-2.78-1.12,4.1,4.1,0,0,0-2,.51,3.74,3.74,0,0,0-1.43,1.4,4.08,4.08,0,0,0,0,4,3.73,3.73,0,0,0,1.43,1.4,4.09,4.09,0,0,0,2,.51A3.7,3.7,0,0,0,39,64.46l.63.63a4.07,4.07,0,0,1-1.51,1,5.21,5.21,0,0,1-1.94.36A5.13,5.13,0,0,1,33.7,65.86Z" transform="translate(0 0)" style="fill: #446bb6"/>
    <path d="M47.77,57.84H44.46V66.4h-1V57.84H40.17V57h7.6Z" transform="translate(0 0)" style="fill: #446bb6"/>
    <path d="M55.87,57.84a3.25,3.25,0,0,1,0,4.73,4.28,4.28,0,0,1-2.83.85H50.52v3h-1V57H53A4.25,4.25,0,0,1,55.87,57.84Zm-.71,4.1a2.12,2.12,0,0,0,.74-1.73,2.15,2.15,0,0,0-.74-1.76A3.28,3.28,0,0,0,53,57.84h-2.5v4.71H53A3.27,3.27,0,0,0,55.16,61.94Z" transform="translate(0 0)" style="fill: #446bb6"/>
    <path d="M64.5,63.88H59.25L58.12,66.4h-1L61.39,57h1l4.31,9.42h-1Zm-.36-.81L61.87,58l-2.26,5.06Z" transform="translate(0 0)" style="fill: #446bb6"/>
    <path d="M76.35,57V66.4h-1V62.05H69.48V66.4h-1V57h1v4.2h5.89V57Z" transform="translate(0 0)" style="fill: #446bb6"/>
    <path d="M81.12,65.86a4.53,4.53,0,0,1-1.76-1.72,5,5,0,0,1,0-4.91,4.52,4.52,0,0,1,1.77-1.72,5.18,5.18,0,0,1,2.53-.62,5.25,5.25,0,0,1,1.94.35,4,4,0,0,1,1.51,1l-.63.63a3.75,3.75,0,0,0-2.78-1.12,4.1,4.1,0,0,0-2,.51,3.74,3.74,0,0,0-1.43,1.4,4.08,4.08,0,0,0,0,4,3.73,3.73,0,0,0,1.43,1.4,4.09,4.09,0,0,0,2,.51,3.7,3.7,0,0,0,2.78-1.13l.63.63a4.07,4.07,0,0,1-1.51,1,5.21,5.21,0,0,1-1.94.36A5.13,5.13,0,0,1,81.12,65.86Z" transform="translate(0 0)" style="fill: #446bb6"/>
    <path d="M95.2,57.84H91.89V66.4h-1V57.84H87.6V57h7.6Z" transform="translate(0 0)" style="fill: #446bb6"/>
    <path d="M104,62.33a2.5,2.5,0,0,1-.36,3.41,4.17,4.17,0,0,1-2.55.66H96.95V57h3.92a3.93,3.93,0,0,1,2.35.62,2.08,2.08,0,0,1,.85,1.79,2.19,2.19,0,0,1-.4,1.34,2.41,2.41,0,0,1-1.13.81A2.6,2.6,0,0,1,104,62.33Zm-6.09-1.08h2.88a2.73,2.73,0,0,0,1.67-.44,1.72,1.72,0,0,0,0-2.58,2.73,2.73,0,0,0-1.67-.44H97.93Zm5.62,2.54q0-1.78-2.44-1.78H97.93v3.59h3.19Q103.55,65.61,103.55,63.79Z" transform="translate(0 0)" style="fill: #446bb6"/>
    <path d="M113.69,65.54v.86H107V57h6.46v.86H108v3.35h4.87V62H108v3.5Z" transform="translate(0 0)" style="fill: #446bb6"/>
    <path d="M123.76,57V66.4h-1V62.05h-5.89V66.4h-1V57h1v4.2h5.89V57Z" transform="translate(0 0)" style="fill: #446bb6"/>
    <path d="M134.81,57V66.4h-1V62.05h-5.89V66.4h-1V57h1v4.2h5.89V57Z" transform="translate(0 0)" style="fill: #446bb6"/>
    <path d="M144.47,61.1a2.74,2.74,0,0,1,.88,2.21,2.85,2.85,0,0,1-.94,2.31,4.08,4.08,0,0,1-2.7.79H138V57h1v3.36h3A3.82,3.82,0,0,1,144.47,61.1ZM143.68,65a2.12,2.12,0,0,0,.68-1.71q0-2.17-2.66-2.17H139v4.45h2.73A3,3,0,0,0,143.68,65Zm3.3-8h1V66.4h-1Z" transform="translate(0 0)" style="fill: #446bb6"/>
    <path d="M151.14,57h1v7.8l6-7.8h.9V66.4h-1V58.61l-6,7.79h-.9Zm2.33-1.14a1.56,1.56,0,0,1-.6-1.28h.74a1.06,1.06,0,0,0,.4.85,1.92,1.92,0,0,0,2.09,0,1.05,1.05,0,0,0,.41-.85h.74a1.56,1.56,0,0,1-.61,1.28,3,3,0,0,1-3.18,0Z" transform="translate(0 0)" style="fill: #446bb6"/>
    <path d="M165.75,57h1v7.8l6-7.8h.9V66.4h-1V58.61l-6,7.79h-.9Z" transform="translate(0 0)" style="fill: #446bb6"/>
    <path d="M184.71,57V66.4h-1V62.05h-5.89V66.4h-1V57h1v4.2h5.89V57Z" transform="translate(0 0)" style="fill: #446bb6"/>
    <path d="M194,57.84h-3.31V66.4h-1V57.84h-3.31V57H194Z" transform="translate(0 0)" style="fill: #446bb6"/>
    <path d="M202.45,65.54v.86h-6.66V57h6.46v.86h-5.46v3.35h4.87V62h-4.87v3.5Z" transform="translate(0 0)" style="fill: #446bb6"/>
    <path d="M212,57V66.4h-1V57.84h-4.55L206.41,61a19.16,19.16,0,0,1-.32,3.14,3.89,3.89,0,0,1-.76,1.78,1.71,1.71,0,0,1-1.36.59,3.22,3.22,0,0,1-.75-.09l.08-.89a1.92,1.92,0,0,0,.44.05,1.17,1.17,0,0,0,1-.47,3.44,3.44,0,0,0,.56-1.46,18.76,18.76,0,0,0,.26-2.62l.13-4Z" transform="translate(0 0)" style="fill: #446bb6"/>
    <path d="M222.46,57V66.4h-1V57.84h-4.55L216.82,61a19.16,19.16,0,0,1-.32,3.14,3.89,3.89,0,0,1-.76,1.78,1.71,1.71,0,0,1-1.36.59,3.22,3.22,0,0,1-.75-.09l.08-.89a1.92,1.92,0,0,0,.44.05,1.17,1.17,0,0,0,1-.47,3.44,3.44,0,0,0,.56-1.46,18.76,18.76,0,0,0,.26-2.62l.13-4Z" transform="translate(0 0)" style="fill: #446bb6"/>
    <path d="M232.29,65.54v.86h-6.66V57h6.46v.86h-5.46v3.35h4.87V62h-4.87v3.5Z" transform="translate(0 0)" style="fill: #446bb6"/>
    <path d="M237.62,62.08h-2.15V66.4h-1V57h1v4.22h2.15L240.81,57h1.08l-3.5,4.57,3.7,4.84h-1.14Z" transform="translate(0 0)" style="fill: #446bb6"/>
    <path d="M249.7,57.84h-3.31V66.4h-1V57.84H242.1V57h7.6Z" transform="translate(0 0)" style="fill: #446bb6"/>
  </g>
</svg>
