<svg id="eng" xmlns="http://www.w3.org/2000/svg" width="249.69" height="66.12" viewBox="0 0 249.69 66.12">
  <title>logo eng</title>
  <path d="M40.29,0V5H5V19.49H33.36v5H5V39H40.29v5H0V0ZM70.17,21.75,88.5,0h6.81V44h-5V5.62L70.17,29.52,50,5.62V44H45V0h6.8ZM102,44V0h5V44Zm13.53,0V0h5V44Zm21-44h29.43a7.11,7.11,0,0,1,5.22,2.14,7.06,7.06,0,0,1,2.14,5.19V44h-5V27.93H134.07V44h-5V7.33a7.06,7.06,0,0,1,2.15-5.19A7.1,7.1,0,0,1,136.46,0Zm-2.39,23h34.22V7.33a2.15,2.15,0,0,0-.73-1.65A2.17,2.17,0,0,0,165.89,5H136.46a2.35,2.35,0,0,0-1.72.73,2.23,2.23,0,0,0-.68,1.65Zm51.08,16v5h-5V39ZM200.89,0h29.43a7.11,7.11,0,0,1,5.22,2.14,7.06,7.06,0,0,1,2.14,5.19V44h-5V27.93H198.5V44h-5V7.33a7.06,7.06,0,0,1,2.15-5.19A7.11,7.11,0,0,1,200.89,0ZM198.5,23h34.22V7.33A2.15,2.15,0,0,0,232,5.68,2.16,2.16,0,0,0,230.33,5H200.89a2.35,2.35,0,0,0-1.72.73,2.23,2.23,0,0,0-.68,1.65Zm46.23,21V0h5V44Z" transform="translate(0 0)" style="fill: #6b6b6b"/>
  <g>
    <path d="M92.76,65.79a3.69,3.69,0,0,1-1.48-.89l.39-.77A3.72,3.72,0,0,0,93,65a4.94,4.94,0,0,0,1.75.32,3.2,3.2,0,0,0,1.89-.46,1.43,1.43,0,0,0,.63-1.2,1.2,1.2,0,0,0-.34-.9,2.32,2.32,0,0,0-.84-.52,13.61,13.61,0,0,0-1.38-.4A14.36,14.36,0,0,1,93,61.28,2.77,2.77,0,0,1,92,60.52a2,2,0,0,1-.45-1.38,2.34,2.34,0,0,1,.38-1.3A2.57,2.57,0,0,1,93,56.91,4.73,4.73,0,0,1,95,56.56a5.71,5.71,0,0,1,1.58.22,4.52,4.52,0,0,1,1.34.61l-.34.79a4.62,4.62,0,0,0-1.26-.58A4.71,4.71,0,0,0,95,57.41a3,3,0,0,0-1.86.48,1.48,1.48,0,0,0-.62,1.23,1.22,1.22,0,0,0,.34.91,2.24,2.24,0,0,0,.86.52q.52.18,1.39.4a14.23,14.23,0,0,1,1.67.5,2.75,2.75,0,0,1,1.08.75,2,2,0,0,1,.44,1.36,2.31,2.31,0,0,1-.38,1.3,2.58,2.58,0,0,1-1.17.93,4.91,4.91,0,0,1-1.95.34A6,6,0,0,1,92.76,65.79Z" transform="translate(0 0)" style="fill: #446bb6"/>
    <path d="M106.77,57.5a3.24,3.24,0,0,1,0,4.72,4.27,4.27,0,0,1-2.82.85h-2.52v3h-1v-9.4H104A4.25,4.25,0,0,1,106.77,57.5Zm-.71,4.09a2.11,2.11,0,0,0,.74-1.73,2.15,2.15,0,0,0-.74-1.75,3.27,3.27,0,0,0-2.14-.61h-2.5v4.7h2.5A3.27,3.27,0,0,0,106.06,61.59Z" transform="translate(0 0)" style="fill: #446bb6"/>
    <path d="M115.37,63.53h-5.24L109,66h-1l4.3-9.4h1l4.3,9.4h-1Zm-.36-.81-2.26-5-2.26,5Z" transform="translate(0 0)" style="fill: #446bb6"/>
    <path d="M120.46,57.5h-3.3v-.86h7.6v.86h-3.3V66h-1Z" transform="translate(0 0)" style="fill: #446bb6"/>
    <path d="M126.34,56.64h1V66h-1Z" transform="translate(0 0)" style="fill: #446bb6"/>
    <path d="M136.29,63.53h-5.24L129.93,66h-1l4.3-9.4h1l4.3,9.4h-1Zm-.36-.81-2.26-5-2.26,5Z" transform="translate(0 0)" style="fill: #446bb6"/>
    <path d="M140,56.64h1v8.54h5.26V66H140Z" transform="translate(0 0)" style="fill: #446bb6"/>
    <path d="M151.45,56.64h1V66h-1Z" transform="translate(0 0)" style="fill: #446bb6"/>
    <path d="M163.37,56.64V66h-.82l-6-7.63V66h-1v-9.4h.82l6.06,7.63V56.64Z" transform="translate(0 0)" style="fill: #446bb6"/>
    <path d="M168.25,57.5H165v-.86h7.6v.86h-3.3V66h-1Z" transform="translate(0 0)" style="fill: #446bb6"/>
    <path d="M180.78,65.18V66h-6.65v-9.4h6.45v.86h-5.45v3.34H180v.85h-4.86v3.49Z" transform="translate(0 0)" style="fill: #446bb6"/>
    <path d="M183.12,56.64h1v8.54h5.26V66h-6.26Z" transform="translate(0 0)" style="fill: #446bb6"/>
    <path d="M191,56.64h1v8.54h5.26V66H191Z" transform="translate(0 0)" style="fill: #446bb6"/>
    <path d="M198.94,56.64h1V66h-1Z" transform="translate(0 0)" style="fill: #446bb6"/>
    <path d="M209.62,61.34h1v3.59a4.6,4.6,0,0,1-1.56.89,5.78,5.78,0,0,1-1.89.31,5.19,5.19,0,0,1-2.54-.62,4.56,4.56,0,0,1-1.77-1.71,5,5,0,0,1,0-4.9,4.56,4.56,0,0,1,1.77-1.71,5.22,5.22,0,0,1,2.55-.62,5.5,5.5,0,0,1,2,.34,3.92,3.92,0,0,1,1.52,1l-.62.63a3.86,3.86,0,0,0-2.83-1.1,4.22,4.22,0,0,0-2.06.5,3.7,3.7,0,0,0-1.44,1.4,4,4,0,0,0,0,4,3.78,3.78,0,0,0,1.44,1.4,4.46,4.46,0,0,0,4.51-.21Z" transform="translate(0 0)" style="fill: #446bb6"/>
    <path d="M220,65.18V66h-6.65v-9.4h6.45v.86h-5.45v3.34h4.86v.85h-4.86v3.49Z" transform="translate(0 0)" style="fill: #446bb6"/>
    <path d="M230.21,56.64V66h-.82l-6-7.63V66h-1v-9.4h.82l6.06,7.63V56.64Z" transform="translate(0 0)" style="fill: #446bb6"/>
    <path d="M234.84,65.51a4.53,4.53,0,0,1-1.76-1.71,5,5,0,0,1,0-4.9,4.52,4.52,0,0,1,1.77-1.71,5.16,5.16,0,0,1,2.52-.62,5.24,5.24,0,0,1,1.93.35,4,4,0,0,1,1.5,1l-.63.63a3.75,3.75,0,0,0-2.78-1.11,4.09,4.09,0,0,0-2,.51,3.73,3.73,0,0,0-1.43,1.4,4.08,4.08,0,0,0,0,4,3.72,3.72,0,0,0,1.43,1.4,4.08,4.08,0,0,0,2,.51,3.69,3.69,0,0,0,2.78-1.13l.63.63a4.05,4.05,0,0,1-1.51,1,5.19,5.19,0,0,1-1.94.36A5.13,5.13,0,0,1,234.84,65.51Z" transform="translate(0 0)" style="fill: #446bb6"/>
    <path d="M249.58,65.18V66h-6.65v-9.4h6.45v.86h-5.45v3.34h4.86v.85h-4.86v3.49Z" transform="translate(0 0)" style="fill: #446bb6"/>
  </g>
</svg>
