{"asset":{"generator":"3D Builder","version":"2.0"},"scene":0,"scenes":[{"nodes":[0]}],"nodes":[{"children":[1,2,3,4,5,6,7,8,9,10]},{"mesh":0,"matrix":[0.039370074868202209,0,0,0,0,-4.6932786545994531E-9,-0.039370071142911911,0,0,0.039370071142911911,-4.6932786545994531E-9,0,0,0.00064999988535419106,-7.7486031480056283E-11,1]},{"mesh":1,"matrix":[0.039370074868202209,0,0,0,0,-4.6932786545994531E-9,-0.039370071142911911,0,0,0.039370071142911911,-4.6932786545994531E-9,0,0,0.00064999988535419106,-7.7486031480056283E-11,1]},{"mesh":2,"matrix":[0.039370074868202209,0,0,0,0,-4.6932786545994531E-9,-0.039370071142911911,0,0,0.039370071142911911,-4.6932786545994531E-9,0,0,0.00064999988535419106,-7.7486031480056283E-11,1]},{"mesh":3,"matrix":[0.039370074868202209,0,0,0,0,-4.6932786545994531E-9,-0.039370071142911911,0,0,0.039370071142911911,-4.6932786545994531E-9,0,0,0.00064999988535419106,-7.7486031480056283E-11,1]},{"mesh":4,"matrix":[0.039370074868202209,0,0,0,0,-4.6932786545994531E-9,-0.039370071142911911,0,0,0.039370071142911911,-4.6932786545994531E-9,0,0,0.00064999988535419106,-7.7486031480056283E-11,1]},{"mesh":5,"matrix":[0.039370074868202209,0,0,0,0,-4.6932786545994531E-9,-0.039370071142911911,0,0,0.039370071142911911,-4.6932786545994531E-9,0,0,0.00064999988535419106,-7.7486031480056283E-11,1]},{"mesh":6,"matrix":[0.039370074868202209,0,0,0,0,-4.6932786545994531E-9,-0.039370071142911911,0,0,0.039370071142911911,-4.6932786545994531E-9,0,0,0.00064999988535419106,-7.7486031480056283E-11,1]},{"mesh":7,"matrix":[0.039370074868202209,0,0,0,0,-4.6932786545994531E-9,-0.039370071142911911,0,0,0.039370071142911911,-4.6932786545994531E-9,0,0,0.00064999988535419106,-7.7486031480056283E-11,1]},{"mesh":8,"matrix":[0.039370074868202209,0,0,0,0,-4.6932786545994531E-9,-0.039370071142911911,0,0,0.039370071142911911,-4.6932786545994531E-9,0,0,0.00064999988535419106,-7.7486031480056283E-11,1]},{"mesh":9,"matrix":[0.039370074868202209,0,0,0,0,-4.6932786545994531E-9,-0.039370071142911911,0,0,0.039370071142911911,-4.6932786545994531E-9,0,0,0.00064999988535419106,-7.7486031480056283E-11,1]}],"meshes":[{"primitives":[{"attributes":{"POSITION":0},"mode":4,"indices":1,"material":0}]},{"primitives":[{"attributes":{"POSITION":2},"mode":4,"indices":3,"material":0}]},{"primitives":[{"attributes":{"POSITION":4},"mode":4,"indices":5,"material":0}]},{"primitives":[{"attributes":{"POSITION":6},"mode":4,"indices":7,"material":0}]},{"primitives":[{"attributes":{"POSITION":8},"mode":4,"indices":23,"material":0},{"attributes":{"POSITION":9},"mode":4,"indices":24,"material":0},{"attributes":{"POSITION":10},"mode":4,"indices":25,"material":0},{"attributes":{"POSITION":11},"mode":4,"indices":26,"material":0},{"attributes":{"POSITION":12},"mode":4,"indices":27,"material":0},{"attributes":{"POSITION":13},"mode":4,"indices":28,"material":0},{"attributes":{"POSITION":14},"mode":4,"indices":29,"material":0},{"attributes":{"POSITION":15},"mode":4,"indices":30,"material":0},{"attributes":{"POSITION":16},"mode":4,"indices":31,"material":0},{"attributes":{"POSITION":17},"mode":4,"indices":32,"material":0},{"attributes":{"POSITION":18},"mode":4,"indices":33,"material":0},{"attributes":{"POSITION":19},"mode":4,"indices":34,"material":0},{"attributes":{"POSITION":20},"mode":4,"indices":35,"material":0},{"attributes":{"POSITION":21},"mode":4,"indices":36,"material":0},{"attributes":{"POSITION":22},"mode":4,"indices":37,"material":0}]},{"primitives":[{"attributes":{"POSITION":38},"mode":4,"indices":39,"material":0}]},{"primitives":[{"attributes":{"POSITION":40},"mode":4,"indices":41,"material":0}]},{"primitives":[{"attributes":{"POSITION":42},"mode":4,"indices":43,"material":0}]},{"primitives":[{"attributes":{"POSITION":44},"mode":4,"indices":45,"material":0}]},{"primitives":[{"attributes":{"POSITION":46},"mode":4,"indices":47,"material":0}]}],"materials":[{"name":"Default","pbrMetallicRoughness":{"baseColorFactor":[0.50288659334182739,0.50288659334182739,0.50288659334182739,1],"metallicFactor":0,"roughnessFactor":1},"alphaMode":"OPAQUE"}],"accessors":[{"bufferView":0,"byteOffset":0,"count":8,"componentType":5126,"type":"VEC3","min":[-0.060002539306879044,0.1446913480758667,-0.016509998589754105],"max":[-0.026982558891177177,0.15891535580158234,-0.015239998698234558]},{"bufferView":1,"byteOffset":0,"count":36,"componentType":5125,"type":"SCALAR"},{"bufferView":2,"byteOffset":0,"count":8,"componentType":5126,"type":"VEC3","min":[-0.060002539306879044,0.10207013785839081,-0.001320798066444695],"max":[-0.026982558891177177,0.11624335497617722,1.5139579589984464E-9]},{"bufferView":3,"byteOffset":0,"count":36,"componentType":5125,"type":"SCALAR"},{"bufferView":4,"byteOffset":0,"count":8,"componentType":5126,"type":"VEC3","min":[-0.060002539306879044,0.11624335497617722,-0.0063499989919364452],"max":[-0.026982558891177177,0.13046735525131226,-0.0051307990215718746]},{"bufferView":5,"byteOffset":0,"count":36,"componentType":5125,"type":"SCALAR"},{"bufferView":6,"byteOffset":0,"count":8,"componentType":5126,"type":"VEC3","min":[-0.060002539306879044,0.13046735525131226,-0.011480798944830894],"max":[-0.026982558891177177,0.1446913480758667,-0.010210799053311348]},{"bufferView":7,"byteOffset":0,"count":36,"componentType":5125,"type":"SCALAR"},{"bufferView":8,"byteOffset":0,"count":35,"componentType":5126,"type":"VEC3","min":[-1.0407474040985107,0.087846152484416962,-0.001320798066444695],"max":[-0.026982558891177177,0.12609854340553284,0.0050292019732296467]},{"bufferView":8,"byteOffset":420,"count":389,"componentType":5126,"type":"VEC3","min":[-1.0916489362716675,-0.048907455056905746,-0.00050799798918887973],"max":[0.19074630737304688,0.13823975622653961,0.053594004362821579]},{"bufferView":8,"byteOffset":5088,"count":563,"componentType":5126,"type":"VEC3","min":[-1.2870258092880249,-0.18332426249980927,-0.00050799798918887973],"max":[0.29834070801734924,0.21179816126823425,0.076149202883243561]},{"bufferView":8,"byteOffset":11844,"count":415,"componentType":5126,"type":"VEC3","min":[-1.0925633907318115,-0.0492122583091259,-0.00050799798918887973],"max":[0.19100025296211243,0.13849376142024994,0.05445760115981102]},{"bufferView":8,"byteOffset":16824,"count":187,"componentType":5126,"type":"VEC3","min":[-1.0907853841781616,-0.048907455056905746,-0.00050799798918887973],"max":[0.19074630737304688,0.13823975622653961,0.052679609507322311]},{"bufferView":8,"byteOffset":19068,"count":300,"componentType":5126,"type":"VEC3","min":[-1.0616261959075928,0.14514854550361633,0.0034036014694720507],"max":[-0.071584969758987427,0.16805934906005859,0.031242003664374352]},{"bufferView":8,"byteOffset":22668,"count":149,"componentType":5126,"type":"VEC3","min":[-1.014890193939209,-0.18332426249980927,0.0038100008387118578],"max":[-0.0061545660719275475,0.21037577092647552,0.067309997975826263]},{"bufferView":8,"byteOffset":24456,"count":2134,"componentType":5126,"type":"VEC3","min":[-1.2870258092880249,-0.18332426249980927,-0.00050799798918887973],"max":[0.29834070801734924,0.21179816126823425,0.076149202883243561]},{"bufferView":8,"byteOffset":50064,"count":346,"componentType":5126,"type":"VEC3","min":[-1.2870258092880249,-0.18332426249980927,-0.00050799798918887973],"max":[0.29834070801734924,0.21179816126823425,0.076149202883243561]},{"bufferView":8,"byteOffset":54216,"count":922,"componentType":5126,"type":"VEC3","min":[-1.2619813680648804,-0.18332426249980927,0.017221201211214066],"max":[0.29828983545303345,0.21154415607452393,0.058877207338809967]},{"bufferView":8,"byteOffset":65280,"count":158,"componentType":5126,"type":"VEC3","min":[-1.2443029880523682,-0.18332426249980927,0.017627602443099022],"max":[0.29828983545303345,0.20966456830501556,0.058420002460479736]},{"bufferView":8,"byteOffset":67176,"count":4319,"componentType":5126,"type":"VEC3","min":[-1.2619813680648804,-0.18205425143241882,0.0038100008387118578],"max":[0.2970198392868042,0.21027413010597229,0.067309997975826263]},{"bufferView":8,"byteOffset":119004,"count":172,"componentType":5126,"type":"VEC3","min":[-1.0569018125534058,0.14961895346641541,0.032512001693248749],"max":[-1.0516693592071533,0.15469895303249359,0.040690802037715912]},{"bufferView":8,"byteOffset":121068,"count":189,"componentType":5126,"type":"VEC3","min":[-1.0916489362716675,-0.047027859836816788,-0.00050799798918887973],"max":[0.1888158917427063,0.13636015355587006,0.053594004362821579]},{"bufferView":8,"byteOffset":123336,"count":112,"componentType":5126,"type":"VEC3","min":[-0.95601296424865723,0.11040133982896805,0.042367201298475266],"max":[-0.95489537715911865,0.11263654381036758,0.04450080543756485]},{"bufferView":9,"byteOffset":0,"count":129,"componentType":5125,"type":"SCALAR"},{"bufferView":9,"byteOffset":516,"count":1284,"componentType":5125,"type":"SCALAR"},{"bufferView":9,"byteOffset":5652,"count":1692,"componentType":5125,"type":"SCALAR"},{"bufferView":9,"byteOffset":12420,"count":1584,"componentType":5125,"type":"SCALAR"},{"bufferView":9,"byteOffset":18756,"count":459,"componentType":5125,"type":"SCALAR"},{"bufferView":9,"byteOffset":20592,"count":1728,"componentType":5125,"type":"SCALAR"},{"bufferView":9,"byteOffset":27504,"count":465,"componentType":5125,"type":"SCALAR"},{"bufferView":9,"byteOffset":29364,"count":9807,"componentType":5125,"type":"SCALAR"},{"bufferView":9,"byteOffset":68592,"count":795,"componentType":5125,"type":"SCALAR"},{"bufferView":9,"byteOffset":71772,"count":2757,"componentType":5125,"type":"SCALAR"},{"bufferView":9,"byteOffset":82800,"count":366,"componentType":5125,"type":"SCALAR"},{"bufferView":9,"byteOffset":84264,"count":24705,"componentType":5125,"type":"SCALAR"},{"bufferView":9,"byteOffset":183084,"count":984,"componentType":5125,"type":"SCALAR"},{"bufferView":9,"byteOffset":187020,"count":465,"componentType":5125,"type":"SCALAR"},{"bufferView":9,"byteOffset":188880,"count":618,"componentType":5125,"type":"SCALAR"},{"bufferView":10,"byteOffset":0,"count":8,"componentType":5126,"type":"VEC3","min":[-1.0407474040985107,0.15429255366325378,-0.016509998589754105],"max":[-1.0077273845672607,0.16836415231227875,-0.015239998698234558]},{"bufferView":11,"byteOffset":0,"count":36,"componentType":5125,"type":"SCALAR"},{"bufferView":12,"byteOffset":0,"count":8,"componentType":5126,"type":"VEC3","min":[-1.0407474040985107,0.14022095501422882,-0.011480798944830894],"max":[-1.0077273845672607,0.15429255366325378,-0.010210799053311348]},{"bufferView":13,"byteOffset":0,"count":36,"componentType":5125,"type":"SCALAR"},{"bufferView":14,"byteOffset":0,"count":8,"componentType":5126,"type":"VEC3","min":[-1.0407474040985107,0.12609854340553284,-0.0063499989919364452],"max":[-1.0077273845672607,0.14022095501422882,-0.0051307990215718746]},{"bufferView":15,"byteOffset":0,"count":36,"componentType":5125,"type":"SCALAR"},{"bufferView":16,"byteOffset":0,"count":165,"componentType":5126,"type":"VEC3","min":[-1.1030789613723755,0.15022855997085571,1.5139579589984464E-9],"max":[-1.0888549089431763,0.15988056361675262,0.017729202285408974]},{"bufferView":17,"byteOffset":0,"count":978,"componentType":5125,"type":"SCALAR"},{"bufferView":18,"byteOffset":0,"count":165,"componentType":5126,"type":"VEC3","min":[-0.12141972035169601,0.15454655885696411,1.5139579589984464E-9],"max":[-0.10719577968120575,0.16419856250286102,0.017729202285408974]},{"bufferView":19,"byteOffset":0,"count":978,"componentType":5125,"type":"SCALAR"}],"bufferViews":[{"buffer":0,"byteOffset":0,"byteLength":96,"byteStride":12,"target":34962},{"buffer":0,"byteOffset":96,"byteLength":144,"target":34963},{"buffer":0,"byteOffset":240,"byteLength":96,"byteStride":12,"target":34962},{"buffer":0,"byteOffset":336,"byteLength":144,"target":34963},{"buffer":0,"byteOffset":480,"byteLength":96,"byteStride":12,"target":34962},{"buffer":0,"byteOffset":576,"byteLength":144,"target":34963},{"buffer":0,"byteOffset":720,"byteLength":96,"byteStride":12,"target":34962},{"buffer":0,"byteOffset":816,"byteLength":144,"target":34963},{"buffer":0,"byteOffset":960,"byteLength":124680,"byteStride":12,"target":34962},{"buffer":0,"byteOffset":125640,"byteLength":191352,"target":34963},{"buffer":0,"byteOffset":316992,"byteLength":96,"byteStride":12,"target":34962},{"buffer":0,"byteOffset":317088,"byteLength":144,"target":34963},{"buffer":0,"byteOffset":317232,"byteLength":96,"byteStride":12,"target":34962},{"buffer":0,"byteOffset":317328,"byteLength":144,"target":34963},{"buffer":0,"byteOffset":317472,"byteLength":96,"byteStride":12,"target":34962},{"buffer":0,"byteOffset":317568,"byteLength":144,"target":34963},{"buffer":0,"byteOffset":317712,"byteLength":1980,"byteStride":12,"target":34962},{"buffer":0,"byteOffset":319692,"byteLength":3912,"target":34963},{"buffer":0,"byteOffset":323604,"byteLength":1980,"byteStride":12,"target":34962},{"buffer":0,"byteOffset":325584,"byteLength":3912,"target":34963}],"buffers":[{"byteLength":329496,"uri":"modeOBJ-2-GLTF.bin"}]}