<svg id="рисунки" xmlns="http://www.w3.org/2000/svg" width="192.58" height="36.75" viewBox="0 0 192.58 36.75">
  <title>лого Keras, Tensor и тд</title>
  <g>
    <path d="M35.42,18.33a17.12,17.12,0,0,1-8.84,15l-1.15-7.46a10.06,10.06,0,1,0-17.25-7,10,10,0,0,0,2.82,7L9.84,33.3a17.17,17.17,0,1,1,25.58-15Z" style="fill: #c6c5c5"/>
    <path d="M13.9,35.5,14,35l1.7-11a5.72,5.72,0,1,1,5,0l1.7,11,.08.52Z" style="fill: #c6c5c5"/>
    <g>
      <path d="M53.62,27.32a9.57,9.57,0,0,1-3.76-3.55,9.7,9.7,0,0,1-1.36-5.09,9.7,9.7,0,0,1,1.36-5.08A9.57,9.57,0,0,1,53.62,10a11.88,11.88,0,0,1,10.76,0,9.6,9.6,0,0,1,5.13,8.64,9.6,9.6,0,0,1-5.13,8.64,11.88,11.88,0,0,1-10.76,0ZM62.07,24a5.61,5.61,0,0,0,2.15-2.18A6.4,6.4,0,0,0,65,18.68a6.4,6.4,0,0,0-.78-3.18,5.61,5.61,0,0,0-2.15-2.18,6.43,6.43,0,0,0-6.14,0,5.61,5.61,0,0,0-2.15,2.18A6.4,6.4,0,0,0,53,18.68a6.4,6.4,0,0,0,.78,3.18A5.61,5.61,0,0,0,55.93,24a6.43,6.43,0,0,0,6.14,0Z" style="fill: #c6c5c5"/>
      <path d="M85.58,9.94a6.58,6.58,0,0,1,2.89,2.41,6.65,6.65,0,0,1,1,3.7,6.67,6.67,0,0,1-1,3.69,6.46,6.46,0,0,1-2.89,2.41,10.81,10.81,0,0,1-4.43.84H77.29v5.29H72.85V9.09h8.31A10.66,10.66,0,0,1,85.58,9.94ZM83.95,18.5a3,3,0,0,0,1-2.45,3,3,0,0,0-1-2.48,4.67,4.67,0,0,0-3-.86H77.29v6.66h3.62A4.67,4.67,0,0,0,83.95,18.5Z" style="fill: #c6c5c5"/>
      <path d="M107.5,24.71v3.56H92.64V9.09h14.5v3.56H97.05v4.17H106v3.45H97.05v4.44Z" style="fill: #c6c5c5"/>
      <path d="M128.63,9.09V28.28H125l-9.57-11.65V28.28H111V9.09h3.67l9.54,11.65V9.09Z" style="fill: #c6c5c5"/>
      <path d="M151.52,9.09l-8.31,19.19h-4.39L130.55,9.09h4.8l5.84,13.71,5.92-13.71Z" style="fill: #c6c5c5"/>
      <path d="M165.84,9.94a6.58,6.58,0,0,1,2.89,2.41,6.65,6.65,0,0,1,1,3.7,6.67,6.67,0,0,1-1,3.69,6.46,6.46,0,0,1-2.89,2.41,10.81,10.81,0,0,1-4.43.84h-3.87v5.29h-4.44V9.09h8.31A10.66,10.66,0,0,1,165.84,9.94Zm-1.63,8.57a3,3,0,0,0,1-2.45,3,3,0,0,0-1-2.48,4.67,4.67,0,0,0-3-.86h-3.62v6.66h3.62A4.67,4.67,0,0,0,164.21,18.5Z" style="fill: #c6c5c5"/>
      <path d="M190.5,9.09V28.28h-3.65l-9.57-11.65V28.28H172.9V9.09h3.67l9.54,11.65V9.09Z" style="fill: #c6c5c5"/>
    </g>
  </g>
</svg>
