<svg xmlns="http://www.w3.org/2000/svg" width="188.65" height="53.72" viewBox="0 0 188.65 53.72">
  <title>лого партнеров для сайта</title>
  <g>
    <g>
      <path d="M93.36,30.07V30H91.84a10.49,10.49,0,0,0-15.9-10.62l.85,1.35A8.89,8.89,0,0,1,90.21,30h-3V24.83l-2.82,3.86V24.85l-2.8,3.84V22l-3.84,6.1V22L71.28,32.18a11,11,0,0,0,.65,1.39l4.51-7.05v5.76l3.85-6.1v6.09l2.81-3.85v3.84l2.81-3.84v3h3.93a8.89,8.89,0,0,1-13,4.42l-.85,1.36a10.49,10.49,0,0,0,15.56-5.78h1.57S93.29,30.5,93.36,30.07Z" style="fill: #fff"/>
      <path d="M93.64,28.43A10.14,10.14,0,0,1,93.51,30v.06h1.7v3.67L98,29.91v3.84l2.81-3.85v5.8h.95a17.8,17.8,0,1,0-.65,1.28H99.64V33.25l-2.8,3.84V33.25L94,37.09V31.35h-.79v.06a12.14,12.14,0,1,1,.41-3.12Z" style="fill: #fff"/>
    </g>
    <g>
      <path d="M40.37,21.68v.74h6.35a2,2,0,0,1,1.48.42,2,2,0,0,1,.42,1.48v6.35a2,2,0,0,1-.42,1.48,2,2,0,0,1-1.48.42H43.66c-.53,0-1.22,0-1.48-.58a1.51,1.51,0,0,1,.43-1.54L46.73,25H40.38l-2.55,3.39A2.89,2.89,0,0,0,37,30a2.82,2.82,0,0,0,.79,1.69l.64.85a6.71,6.71,0,0,0,2.11,2.11,7.28,7.28,0,0,0,3.23.42h2.76c1.59,0,4,0,5.56-1.59a6.65,6.65,0,0,0,1.59-4.76V26.23a6.63,6.63,0,0,0-1.59-4.76c-1.59-1.59-4-1.59-5.56-1.59H42.17a1.54,1.54,0,0,0-1.8,1.8" style="fill: #fff"/>
      <polygon points="32.79 24.95 39.08 24.95 31.5 35.11 25.05 35.11 32.79 24.95" style="fill: #fff"/>
      <path d="M8,26.76a1.78,1.78,0,0,1,.42-1.38A1.78,1.78,0,0,1,9.76,25H20.4a7.22,7.22,0,0,1,3.23.42,6.78,6.78,0,0,1,2.11,2.11l.64.85a2.82,2.82,0,0,1,.8,1.69,2.89,2.89,0,0,1-.8,1.69l-2.55,3.39H17.48l4.13-5.5A1.51,1.51,0,0,0,22,28.08c-.26-.58-1-.58-1.48-.58h-5V40.2H10.48V27.5H7.94v-.74" style="fill: #fff"/>
    </g>
    <g>
      <path d="M167.09,24.67l2.42-1.81h-8.1V33.7h8.1V31.89h-5.79V29.13h4.95V27.32h-4.95V24.67Z" style="fill: #fff"/>
      <path d="M155.28,27.09h-2.81V24.67H157l2.42-1.81h-9.23V33.7H155c2.7,0,4.26-1.24,4.26-3.41S157.84,27.09,155.28,27.09Zm-.39,4.81h-2.42v-3h2.42c1.47,0,2.16.5,2.16,1.51S156.32,31.89,154.89,31.89Z" style="fill: #fff"/>
      <path d="M176.07,22.87h-4.4V33.7H174V30.63h2.11c2.81,0,4.56-1.49,4.56-3.88S178.89,22.87,176.07,22.87Zm-.05,6H174V24.67H176c1.49,0,2.3.75,2.3,2.07S177.51,28.82,176,28.82Z" style="fill: #fff"/>
      <path d="M146.19,31.36a4.13,4.13,0,0,1-2,.52,3.58,3.58,0,1,1,2.1-6.49L148,24.14l-.11-.11a5.47,5.47,0,0,0-3.74-1.31,5.92,5.92,0,0,0-4.1,1.54,5.37,5.37,0,0,0-1.61,4,5.63,5.63,0,0,0,1.61,4,5.77,5.77,0,0,0,4.09,1.6,5.48,5.48,0,0,0,4.1-1.65l-1.49-1.12Z" style="fill: #fff"/>
      <path d="M131.16,22.8a9.62,9.62,0,0,1,1.07,1.79l-8.1,6-3.4-2.16V25.88L124.1,28Z" style="fill: #fff"/>
      <path d="M117.26,28.29a2.34,2.34,0,0,1,0-.35l-2.05-.11c0,.14,0,.3,0,.44a9,9,0,0,0,2.61,6.37l1.46-1.47A6.85,6.85,0,0,1,117.26,28.29Z" style="fill: #fff"/>
      <path d="M124.1,21.38a2.3,2.3,0,0,1,.35,0l.11-2.07-.44,0a8.84,8.84,0,0,0-6.3,2.64l1.46,1.47A6.74,6.74,0,0,1,124.1,21.38Z" style="fill: #fff"/>
      <path d="M124.1,35.21a2.3,2.3,0,0,1-.35,0l-.11,2.07.44,0a8.84,8.84,0,0,0,6.3-2.64l-1.46-1.47A6.64,6.64,0,0,1,124.1,35.21Z" style="fill: #fff"/>
      <path d="M128,22.58l1.74-1.29a8.85,8.85,0,0,0-5.6-2v2.07A6.84,6.84,0,0,1,128,22.58Z" style="fill: #fff"/>
      <path d="M133,28.29a9.75,9.75,0,0,0-.14-1.61L131,28.11v.18a6.91,6.91,0,0,1-2.26,5.13L130.09,35A9,9,0,0,0,133,28.29Z" style="fill: #fff"/>
      <path d="M124.1,35.21A6.76,6.76,0,0,1,119,32.92l-1.53,1.4a8.81,8.81,0,0,0,6.6,3Z" style="fill: #fff"/>
      <path d="M119.52,23.17l-1.39-1.54a9,9,0,0,0-2.93,6.67h2.05A6.93,6.93,0,0,1,119.52,23.17Z" style="fill: #fff"/>
    </g>
  </g>
</svg>
