<svg xmlns="http://www.w3.org/2000/svg" width="188.65" height="53.72" viewBox="0 0 188.65 53.72">
  <title>лого партнеров для сайта</title>
  <g>
    <g>
      <path d="M93.36,30.07V30H91.84a10.49,10.49,0,0,0-15.9-10.62l.85,1.35A8.89,8.89,0,0,1,90.21,30h-3V24.83l-2.82,3.86V24.85l-2.8,3.84V22l-3.84,6.1V22L71.28,32.18a11,11,0,0,0,.65,1.39l4.51-7.05v5.76l3.85-6.1v6.09l2.81-3.85v3.84l2.81-3.84v3h3.93a8.89,8.89,0,0,1-13,4.42l-.85,1.36a10.49,10.49,0,0,0,15.56-5.78h1.57S93.29,30.5,93.36,30.07Z" style="fill: #d7d7d7"/>
      <path d="M93.64,28.43A10.14,10.14,0,0,1,93.51,30v.06h1.7v3.67L98,29.91v3.84l2.81-3.85v5.8h.95a17.8,17.8,0,1,0-.65,1.28H99.64V33.25l-2.8,3.84V33.25L94,37.09V31.35h-.79v.06a12.14,12.14,0,1,1,.41-3.12Z" style="fill: #d7d7d7"/>
    </g>
    <g>
      <path d="M40.37,21.68v.74h6.35a2,2,0,0,1,1.48.42,2,2,0,0,1,.42,1.48v6.35a2,2,0,0,1-.42,1.48,2,2,0,0,1-1.48.42H43.66c-.53,0-1.22,0-1.48-.58a1.51,1.51,0,0,1,.43-1.54L46.73,25H40.38l-2.55,3.39A2.89,2.89,0,0,0,37,30a2.82,2.82,0,0,0,.79,1.69l.64.85a6.71,6.71,0,0,0,2.11,2.11,7.28,7.28,0,0,0,3.23.42h2.76c1.59,0,4,0,5.56-1.59a6.65,6.65,0,0,0,1.59-4.76V26.23a6.63,6.63,0,0,0-1.59-4.76c-1.59-1.59-4-1.59-5.56-1.59H42.17a1.54,1.54,0,0,0-1.8,1.8" style="fill: #d7d7d7"/>
      <polygon points="32.79 24.95 39.08 24.95 31.5 35.11 25.05 35.11 32.79 24.95" style="fill: #d7d7d7"/>
      <path d="M8,26.76a1.78,1.78,0,0,1,.42-1.38A1.78,1.78,0,0,1,9.76,25H20.4a7.22,7.22,0,0,1,3.23.42,6.78,6.78,0,0,1,2.11,2.11l.64.85a2.82,2.82,0,0,1,.8,1.69,2.89,2.89,0,0,1-.8,1.69l-2.55,3.39H17.48l4.13-5.5A1.51,1.51,0,0,0,22,28.08c-.26-.58-1-.58-1.48-.58h-5V40.2H10.48V27.5H7.94v-.74" style="fill: #d7d7d7"/>
    </g>
    <g>
      <path d="M143.05,22.69c-3.26,0-4.42,1.74-4.42,3.35,0,2.34,2,2.82,3.83,3.25,1.26.3,2.34.57,2.34,1.45,0,.46-.27,1.22-2.09,1.22a6.28,6.28,0,0,1-3.48-1.12l-.8,1.81a7.38,7.38,0,0,0,4.26,1.22c2.7,0,4.45-1.31,4.45-3.33,0-2.29-2.06-2.77-3.85-3.19-1.26-.3-2.34-.55-2.34-1.44,0-1.17,1.44-1.29,2.07-1.29a4,4,0,0,1,2,.41l1.74-1.28a7.37,7.37,0,0,0-3.71-1.06Z" style="fill: #d7d7d7"/>
      <path d="M178.34,30.19a3.56,3.56,0,0,0,2.22-3.44c0-2.39-1.77-3.89-4.61-3.89h-4.47V33.7h2.34V30.63h2.32l2.07,3.07,2.5,0Zm-2.45-1.35h-2.08V24.69h2.08c1.51,0,2.32.75,2.32,2.07S177.4,28.84,175.89,28.84Z" style="fill: #d7d7d7"/>
      <polygon points="161.11 22.88 161.11 33.72 169.3 33.72 169.3 31.91 163.45 31.91 163.45 29.14 168.45 29.14 168.45 27.33 163.45 27.33 163.45 24.69 166.85 24.69 169.3 22.88 161.11 22.88 161.11 22.88" style="fill: #d7d7d7"/>
      <path d="M157,28.13l-.11,0L157,28a2.6,2.6,0,0,0,1.38-2.36c0-1.76-1.49-2.78-4-2.78h-5.12V33.73h5.42c2.7,0,4.19-1,4.19-2.93A2.65,2.65,0,0,0,157,28.13Zm-5.38-3.44h2.48c1.58,0,1.9.73,1.9,1.33,0,.87-.65,1.33-1.9,1.33h-2.48Zm2.91,7.22h-2.91V29.14h2.91c1.33,0,2,.46,2,1.38S155.91,31.91,154.56,31.91Z" style="fill: #d7d7d7"/>
      <path d="M131.33,22.79a9.62,9.62,0,0,1,1.08,1.79l-8.19,6-3.44-2.16V25.88L124.2,28Z" style="fill: #d7d7d7"/>
      <path d="M117.28,28.29a2.38,2.38,0,0,1,0-.35l-2.07-.11c0,.14,0,.3,0,.44a9,9,0,0,0,2.64,6.37l1.47-1.47a6.82,6.82,0,0,1-2-4.88Z" style="fill: #d7d7d7"/>
      <path d="M124.2,21.37a2.38,2.38,0,0,1,.35,0l.11-2.07-.44,0a9,9,0,0,0-6.37,2.64l1.47,1.47a6.85,6.85,0,0,1,4.88-2Z" style="fill: #d7d7d7"/>
      <path d="M124.2,35.21a2.38,2.38,0,0,1-.35,0l-.11,2.07.44,0a9,9,0,0,0,6.37-2.64l-1.47-1.47a6.75,6.75,0,0,1-4.88,2Z" style="fill: #d7d7d7"/>
      <path d="M128.1,22.58l1.76-1.29a9,9,0,0,0-5.66-2v2.07a7,7,0,0,1,3.9,1.22Z" style="fill: #d7d7d7"/>
      <path d="M133.21,28.29a9.75,9.75,0,0,0-.14-1.61l-1.93,1.44v.18a6.87,6.87,0,0,1-2.29,5.13l1.4,1.54a9,9,0,0,0,3-6.67Z" style="fill: #d7d7d7"/>
      <path d="M124.2,35.21a6.87,6.87,0,0,1-5.13-2.29l-1.54,1.4a9,9,0,0,0,6.67,3Z" style="fill: #d7d7d7"/>
      <path d="M119.57,23.17l-1.4-1.54a9,9,0,0,0-3,6.67h2.07a6.9,6.9,0,0,1,2.29-5.13Z" style="fill: #d7d7d7"/>
    </g>
  </g>
</svg>
