<svg id="в_кривых" data-name="в кривых" xmlns="http://www.w3.org/2000/svg" width="122.42" height="40.17" viewBox="0 0 122.42 40.17">
  <title>PharmEko</title>
  <path d="M24.3,8.75v1.8a1.93,1.93,0,0,0-1.34,0V9.42H17.31a4.48,4.48,0,0,0-.94-1.34h7.26A.67.67,0,0,1,24.3,8.75Z" style="fill: #00b25d"/>
  <path d="M26.88,23.27H9.54a1.88,1.88,0,0,0,0,3.77H26.88a1.88,1.88,0,0,0,0-3.77Zm-17.28,3a1.09,1.09,0,1,1,1.09-1.09A1.09,1.09,0,0,1,9.6,26.25Zm8.54,0a1.09,1.09,0,1,1,1.09-1.09A1.09,1.09,0,0,1,18.14,26.25Zm8.54,0a1.09,1.09,0,1,1,1.09-1.09A1.09,1.09,0,0,1,26.67,26.25Z" style="fill: #00b25d"/>
  <path d="M16.45,9.42a3.72,3.72,0,1,0,.5,1.87A3.71,3.71,0,0,0,16.45,9.42Zm-1.08,2.45a.29.29,0,0,1-.29.29h-1v1a.29.29,0,0,1-.29.29H12.64a.29.29,0,0,1-.29-.29v-1h-1a.29.29,0,0,1-.29-.29V10.7a.29.29,0,0,1,.29-.29h1v-1a.29.29,0,0,1,.29-.29h1.18a.29.29,0,0,1,.29.29v1h1a.29.29,0,0,1,.29.29Z" style="fill: #00b25d"/>
  <path d="M18.63,3.58a15.21,15.21,0,0,1,2.81,30.15,2.79,2.79,0,0,0-1.62.95L18.63,36.1l-1-1.23-.15-.18a2.79,2.79,0,0,0-1.63-1A15.21,15.21,0,0,1,18.63,3.58m0-2.79a18,18,0,0,0-3.32,35.68l1.86,2.21a1.91,1.91,0,0,0,2.93,0L22,36.48A18,18,0,0,0,18.63.8Z" style="fill: #00b25d"/>
  <g>
    <path d="M21.48,16.38a.76.76,0,1,1-1.2,1l-.88-1.1a.76.76,0,0,1,.08-1L21.81,13a2,2,0,0,0,1,1.12L21,15.82Z" style="fill: #00b25d"/>
    <path d="M28.06,16.22l-1,1.23a.76.76,0,0,1-.6.29.76.76,0,0,1-.6-1.24l.53-.66-1.95-1.72a2,2,0,0,0,1-1.15l2.5,2.2A.76.76,0,0,1,28.06,16.22Z" style="fill: #00b25d"/>
  </g>
  <path d="M14.3,19.05v3.37a.48.48,0,0,1-.48.48H11.1a.48.48,0,0,1-.48-.48V19.05a.48.48,0,0,1,.48-.48h.26l-.3-.52a.48.48,0,0,1,.41-.72h2a.48.48,0,0,1,.41.72l-.3.52h.26A.48.48,0,0,1,14.3,19.05Z" style="fill: #00b25d"/>
  <path d="M18.88,19.05v3.37a.48.48,0,0,1-.48.48H15.69a.48.48,0,0,1-.48-.48V19.05a.48.48,0,0,1,.48-.48h.26l-.3-.52a.48.48,0,0,1,.41-.72h2a.48.48,0,0,1,.41.72l-.3.52h.26A.48.48,0,0,1,18.88,19.05Z" style="fill: #00b25d"/>
  <path d="M25.5,17.14V20.5A.48.48,0,0,1,25,21H22.31a.48.48,0,0,1-.48-.48V17.14a.48.48,0,0,1,.48-.48h.26l-.3-.52a.48.48,0,0,1,.41-.72h2a.48.48,0,0,1,.41.72l-.3.52H25A.48.48,0,0,1,25.5,17.14Z" style="fill: #00b25d"/>
  <path d="M24.06,13.76a1.42,1.42,0,0,1-.43.06,1.46,1.46,0,0,1-1.43-1.17,1.41,1.41,0,0,1,0-.29A1.45,1.45,0,0,1,23,11.08a1.45,1.45,0,0,1,1.34,0,1.46,1.46,0,0,1,.79,1.29,1.41,1.41,0,0,1,0,.25A1.45,1.45,0,0,1,24.06,13.76Z" style="fill: #00b25d"/>
  <g>
    <path d="M47,23.4V14h7.62a1.77,1.77,0,0,1,.92.25,1.91,1.91,0,0,1,.67.66,1.74,1.74,0,0,1,.25.91v2.55a1.77,1.77,0,0,1-.25.92,1.84,1.84,0,0,1-.67.66,1.8,1.8,0,0,1-.92.24H48.74V23.4Zm1.89-5h5.65a.19.19,0,0,0,.12,0,.12.12,0,0,0,.05-.1V15.85a.14.14,0,0,0-.05-.11.17.17,0,0,0-.12,0H48.9a.16.16,0,0,0-.16.16v2.42a.13.13,0,0,0,0,.1A.16.16,0,0,0,48.9,18.41Z" style="fill: #00b25d"/>
    <path d="M57.37,23.4V13.29h1.72v2.49h4.2a1.7,1.7,0,0,1,.91.25,2,2,0,0,1,.66.66,1.69,1.69,0,0,1,.25.91v5.8H63.38V17.67a.16.16,0,0,0-.16-.16h-4a.16.16,0,0,0-.16.16V23.4Z" style="fill: #00b25d"/>
    <path d="M68,23.4a1.73,1.73,0,0,1-.91-.25,1.89,1.89,0,0,1-.66-.66,1.73,1.73,0,0,1-.24-.91V18.73h6V17.67a.16.16,0,0,0-.16-.16H66.14V15.79h5.92A1.74,1.74,0,0,1,73,16a1.89,1.89,0,0,1,.66.66,1.73,1.73,0,0,1,.24.91v5.8ZM68,21.68h4.14v-1.4H67.86v1.25a.15.15,0,0,0,0,.11A.15.15,0,0,0,68,21.68Z" style="fill: #00b25d"/>
    <path d="M75,23.4V17.6a1.69,1.69,0,0,1,.25-.91A1.94,1.94,0,0,1,75.9,16a1.71,1.71,0,0,1,.9-.25H81v1.72H76.87a.16.16,0,0,0-.16.16V23.4Z" style="fill: #00b25d"/>
    <path d="M81.87,23.4V15.79h9.44a1.73,1.73,0,0,1,.92.25,1.9,1.9,0,0,1,.65.66,1.73,1.73,0,0,1,.24.91v5.8H91.41V17.67a.15.15,0,0,0-.05-.11.18.18,0,0,0-.12,0H88.53a.15.15,0,0,0-.11,0,.15.15,0,0,0,0,.11V23.4H86.63V17.67a.16.16,0,0,0-.16-.16H83.75a.16.16,0,0,0-.16.16V23.4Z" style="fill: #00b25d"/>
    <path d="M94.76,23.4V14h8.71V15.7h-7v2.1h5.59v1.76H96.51v2.1h7V23.4Z" style="fill: #00b25d"/>
    <path d="M105.63,23.15a2,2,0,0,1-.66-.66,1.7,1.7,0,0,1-.25-.91v-4a1.7,1.7,0,0,1,.25-.91,2,2,0,0,1,.66-.66,1.7,1.7,0,0,1,.91-.25h5.91v1.72H106.6a.16.16,0,0,0-.16.16v3.86a.15.15,0,0,0,0,.11.15.15,0,0,0,.11,0h5.86V23.4h-5.92A1.7,1.7,0,0,1,105.63,23.15Z" style="fill: #00b25d"/>
    <path d="M114.67,23.15a2,2,0,0,1-.66-.66,1.7,1.7,0,0,1-.25-.91v-4a1.7,1.7,0,0,1,.25-.91,2,2,0,0,1,.66-.66,1.7,1.7,0,0,1,.91-.25h4.11a1.74,1.74,0,0,1,.91.25,1.89,1.89,0,0,1,.66.66,1.73,1.73,0,0,1,.24.91v4a1.73,1.73,0,0,1-.24.91,1.91,1.91,0,0,1-.65.66,1.72,1.72,0,0,1-.92.25h-4.11A1.7,1.7,0,0,1,114.67,23.15Zm1-1.47h4a.15.15,0,0,0,.11,0,.15.15,0,0,0,0-.11V17.67a.16.16,0,0,0-.16-.16h-4a.16.16,0,0,0-.16.16v3.86a.15.15,0,0,0,0,.11A.15.15,0,0,0,115.64,21.68Z" style="fill: #00b25d"/>
  </g>
</svg>
