<svg id="Layer_4" data-name="Layer 4" xmlns="http://www.w3.org/2000/svg" width="183.67" height="61.83" viewBox="0 0 183.67 61.83">
  <title>лого на сайт</title>
  <g>
    <path d="M9.88,29.35a2.86,2.86,0,0,0-3,2.51c0,.22-.08.44-.11.66A4.13,4.13,0,0,1,5.45,35c-.37.34-.77.64-1.16,1a13.53,13.53,0,0,0-1.15,1A4.12,4.12,0,0,0,2,40.82a6.3,6.3,0,0,0,1.58,2.82,4.14,4.14,0,0,0,.34.29c-.09-.29-.13-.47-.19-.65a4.85,4.85,0,0,1-.21-1.84,3,3,0,0,1,1.29-2.32,10.7,10.7,0,0,1,1.27-.7c.75-.39,1.52-.75,2.24-1.18a5.4,5.4,0,0,0,1.87-1.76s.09-.06.2-.14a12.59,12.59,0,0,0,.39,3.14c.12.54.19,1.09.27,1.63a3.36,3.36,0,0,1-1.37,3.5c-.08.06-.16.13-.24.2L7.31,45.57a.91.91,0,0,1-.21.08,3.44,3.44,0,0,1,.67-1.76c.25-.33.51-.65.73-1a3.15,3.15,0,0,0,.25-3.11c0-.1-.08-.23-.21-.23H8.48s0,.07,0,.1a1.94,1.94,0,0,0,.05.25,3,3,0,0,1-.66,2.9c-.21.25-.44.49-.64.75a4.29,4.29,0,0,0-1,2.87c0,.34-.06.68-.08,1a10.31,10.31,0,0,0,0,1.34,6.44,6.44,0,0,0,1.08,3,3.32,3.32,0,0,1,.57,2.7c-.12.49.1.71.61.71h.1c.48,0,1,0,1.45,0,.65,0,.84-.36.5-.92a11.38,11.38,0,0,0-2.1-2.68,4,4,0,0,1-1.26-2,6.41,6.41,0,0,1-.11-.75l.13,0,.23.2a3.78,3.78,0,0,0,2.56,1,4.08,4.08,0,0,0,.74-.07c.68-.12,1.35-.31,2-.38a6.25,6.25,0,0,1,.66,0,4.45,4.45,0,0,1,3.06,1.12,2.5,2.5,0,0,1,.37,3.61c-.11.14-.23.26-.34.39a2.93,2.93,0,0,0-.18.34,2.54,2.54,0,0,0,.42-.19A2.89,2.89,0,0,0,17.81,52,3.51,3.51,0,0,0,16,49.36a5.32,5.32,0,0,0-2.45-.75l-.52,0a9.69,9.69,0,0,0-2.15.28A5.1,5.1,0,0,1,9.76,49a3,3,0,0,1-.77-.1,2.4,2.4,0,0,1-1.76-1.65c.24-.32.46-.65.73-.94A7.4,7.4,0,0,1,9.6,45.09a13.89,13.89,0,0,0,1.64-1.16,4.14,4.14,0,0,0,1.51-3.38c0-.82-.15-1.65-.25-2.47a12.27,12.27,0,0,1-.16-3.25,3.16,3.16,0,0,1,2.76-3c.34-.07.68-.08,1-.12a1.5,1.5,0,0,0,.26-.08c0-.06,0-.08,0-.09a.61.61,0,0,0-.13-.08,8.18,8.18,0,0,0-3.1-.67,6.33,6.33,0,0,0-1.25.12,3.85,3.85,0,0,0-3,2.55c-.11.31-.23.61-.32.93a4.35,4.35,0,0,1-2.65,2.92,7.54,7.54,0,0,0-1.39.79A4,4,0,0,0,2.9,40.36c0,.17-.09.35-.13.52a1.19,1.19,0,0,1-.14-.5,3.49,3.49,0,0,1,.64-2.25,5.8,5.8,0,0,1,1.43-1.41c.45-.33.89-.65,1.31-1a5.49,5.49,0,0,0,1.9-3.3c0-.27.11-.54.18-.81a2.29,2.29,0,0,1,2.14-1.72h.34a5.89,5.89,0,0,1,1.51.2c.19,0,.38.08.57.12a.41.41,0,0,0-.22-.24A6.09,6.09,0,0,0,10,29.35Z" style="fill: #fff"/>
    <path d="M13.16,16.26a1,1,0,0,0-.83.87.91.91,0,0,0,.43,1l.63.45a.85.85,0,0,1-.53.68c-.72.37-1.45.73-2.17,1.1a8.09,8.09,0,0,0-.74.38,1,1,0,0,0-.46,1.38c.1.27.26.52.38.79s.2.47.31.74L9.71,24a5.93,5.93,0,0,0-.88.79A1.78,1.78,0,0,0,9,27.13l.46-.18a3.6,3.6,0,0,1,1.41-.31,3.2,3.2,0,0,1,2,.77c.35.28.67.6,1,.91a2.85,2.85,0,0,0,1.74.83l.39,0,.59,0h.19c.63,0,.84.16,1.11.83a3.63,3.63,0,0,1,.16,2.48A14.31,14.31,0,0,1,17.52,34a2.08,2.08,0,0,0,.08,2c.14.22.25.45.37.68a1.55,1.55,0,0,1,.13,1.39,1.32,1.32,0,0,0-.09.4c0,.46.16.74.52.74a.94.94,0,0,0,.26,0A6.73,6.73,0,0,1,20.63,39a1.3,1.3,0,0,0,1-.36.85.85,0,0,0-.6-.29c-.39-.07-.78-.13-1.17-.23a.9.9,0,0,1-.74-.83c0-.46-.14-.92-.16-1.39a6.16,6.16,0,0,1,.86-4,1.26,1.26,0,0,0,.1-.18,1.4,1.4,0,0,0-.06-1.43c-.13-.2-.27-.4-.41-.6L19,29.1l3.14-1.61a8.53,8.53,0,0,1,2,3.45,2.63,2.63,0,0,1-.24,2c0,.08-.08.17-.14.32a.83.83,0,0,0,.58-.47,3.14,3.14,0,0,0,.39-2.39,7.74,7.74,0,0,0-2.24-3.89s-.06,0-.15-.06A29.67,29.67,0,0,0,18.55,28L18.46,28l-.13-.16a1.34,1.34,0,0,0-1.18-.65l-.3,0a2.1,2.1,0,0,1-.31,0h0a1,1,0,0,1-.94-.55h.77A4.22,4.22,0,0,0,18.56,26a2,2,0,0,0,.92-1.55,1.49,1.49,0,0,0-.16-.84c-.1.26-.15.42-.22.57A1.33,1.33,0,0,1,18,25a4.71,4.71,0,0,1-.55,0A11,11,0,0,1,15,24.63a1.15,1.15,0,0,1,.2-.12A2.47,2.47,0,0,0,17.1,23a1.14,1.14,0,0,1,1.13-.69l.56,0a2.11,2.11,0,0,0-.23-.2,1.44,1.44,0,0,0-.73-.2,1.77,1.77,0,0,0-.85.24,3.07,3.07,0,0,1-1.48.4h0a4.43,4.43,0,0,1-2-.51,2.15,2.15,0,0,0-1-.26,1.65,1.65,0,0,0-1.18.53,2.28,2.28,0,0,1-.35.24c-.49-.44-.48-1,0-1.26a4.17,4.17,0,0,1,1-.39,13.78,13.78,0,0,1,3.43-.41h.11a12.52,12.52,0,0,1,1.69.17,7.31,7.31,0,0,1,.93.27c-.14-.18-.19-.3-.28-.35-.4-.23-.81-.45-1.23-.64s-.62-.2-.93-.31A1.06,1.06,0,0,1,15,18.54c0-.17,0-.34,0-.52,0-.53-.15-.76-.68-.86a4.68,4.68,0,0,0-.57,0l-.61,0v-.84Z" style="fill: #fff"/>
    <path d="M39.32,32.43a2.72,2.72,0,0,0,.94.9,2.36,2.36,0,0,0,0,1.14,3.75,3.75,0,0,1-.75.24,4.47,4.47,0,0,1-.88.09h-.33a2.82,2.82,0,0,0,1-2.36m-2.43-7.71c0,.17,0,.27.06.37a11.19,11.19,0,0,1,.28,3.65,10.35,10.35,0,0,0,.07,3.65.89.89,0,0,1-.48,1l-.67.39c-.35.19-.71.36-1.05.56s-.46.26-.51.57a1.36,1.36,0,0,0,.72.82,6.1,6.1,0,0,0,3.37,1,6.21,6.21,0,0,0,3.59-1.14.93.93,0,0,1,.5-.19c.2,0,.37.12.57.37a2.4,2.4,0,0,1,.34.58q.5,1.3,1,2.62a1.24,1.24,0,0,1,0,.56A1.68,1.68,0,0,0,45.09,41a1.71,1.71,0,0,1,.35,1.65c0,.13-.06.27-.1.4a.9.9,0,0,0,.21,1,14.59,14.59,0,0,0,1.15,1,2.94,2.94,0,0,0,.65.28,2.54,2.54,0,0,0,.16-.56,3.05,3.05,0,0,0-.07-.82,18.93,18.93,0,0,0-.63-2.13,47.68,47.68,0,0,1-1.67-5c-.19-.7-.42-1.39-.66-2.07S44,34,43.37,34h0c-.19,0-.38,0-.57.05l-.47,0a.42.42,0,0,1,.05-.6c.33-.33.64-.68,1-1a1,1,0,0,1,.62-.29.9.9,0,0,1,.66.42c.56.68,1.09,1.38,1.61,2.09a2.54,2.54,0,0,1,.43,2.12c0,.17-.05.34-.08.51a1.13,1.13,0,0,0,.46,1.14c.41.31.84.61,1.27.89a1.85,1.85,0,0,0,.51.15,1.44,1.44,0,0,0,0-1.12,34,34,0,0,0-3.45-7.79,3.54,3.54,0,0,0-.54-.69.82.82,0,0,0-1.31,0c-.31.3-.6.63-.89.94a6.47,6.47,0,0,1-.51.51,1,1,0,0,1-.59.27q-.38,0-.63-.56a7.37,7.37,0,0,1-.27-.84c-.13-.41-.21-.84-.38-1.23a12.22,12.22,0,0,0-3-4.15,1.32,1.32,0,0,0-.29-.15Z" style="fill: #fff"/>
    <path d="M33.62,12.76a7.3,7.3,0,0,0-1.21.1,7.56,7.56,0,0,0-6.32,5.07,10.41,10.41,0,0,0-.55,3.77A8.66,8.66,0,0,0,26,24.49a3.49,3.49,0,0,0,.22.41c.13-.48.06-.92.42-1.19l.18,0a.6.6,0,0,1,.52.34,1.84,1.84,0,0,1-.13,2.19,1.23,1.23,0,0,0,.52-.31,2.21,2.21,0,0,0,.4-1.77A3.5,3.5,0,0,1,29,25.56a2.84,2.84,0,0,1-.44,2.83,5,5,0,0,1-1.31,1.17,3,3,0,0,0-.31.27,2.34,2.34,0,0,0,.59.07,3.87,3.87,0,0,0,3.54-2.55,3.79,3.79,0,0,0,.11-.71,4.91,4.91,0,0,0-.38-2.18c-.23-.59-.5-1.18-.77-1.75a6.22,6.22,0,0,1,.54-6.26,4.78,4.78,0,0,1,4.08-2.23,4.91,4.91,0,0,1,2.62.75c.22.14.45.27.5.57s-.54.59-.5,1.07l1.06.48c.37.16.48.65.92.75a5.57,5.57,0,0,1-.9-1.9c-.16-.68-.27-1.38-.4-2.06l-1.44-.53a8.24,8.24,0,0,0-3-.57Z" style="fill: #fff"/>
    <path d="M20.4,42.06l.76.25c-.16.11-.32.24-.48.38a2.87,2.87,0,0,0-.17-.4l-.12-.23m-.83-2.29a2.23,2.23,0,0,0-.82.16,2.43,2.43,0,0,0-1.42,1.49c-.16.44-.3.88-.46,1.32a1.61,1.61,0,0,1-1.58,1.12h0c-.47,0-.94,0-1.41-.07H13.6a2.93,2.93,0,0,0-3,2.06A7.57,7.57,0,0,0,10.36,47a2,2,0,0,0,0,.43c.21-.32.36-.54.52-.76a2.38,2.38,0,0,1,2-1.12h.16c.65,0,1.31.07,2,.15l.39,0a2.63,2.63,0,0,0,2.15-1.09c.28-.35.54-.72.82-1.07a3.59,3.59,0,0,1,.35-.33.4.4,0,0,1,.06.34c-.22.45-.42.9-.68,1.33s-.46.56-.67.86a.49.49,0,0,0,.13.8,4.51,4.51,0,0,0,.44.27,12.17,12.17,0,0,1,1.06.64,2.91,2.91,0,0,1,.72.73.58.58,0,0,1-.52,1h0A6.45,6.45,0,0,1,18.1,49c-.44-.08-.87-.19-1.31-.29l-.21,0a.34.34,0,0,0-.29.13l1.79,1.59h.17l2.11-.22c.55-.06,1.1-.11,1.65-.18a.82.82,0,0,0,.72-.38c-.07-.29-.32-.43-.55-.57a6,6,0,0,1-1.69-1.66,1,1,0,0,1,0-1.37c.26-.35.57-.65.8-1a4.68,4.68,0,0,1,2-1.63A23.67,23.67,0,0,1,27.08,42c1.06-.3,2.14-.55,3.21-.83.16,0,.34,0,.4-.33l-.53,0h0c-1.47,0-2.94.09-4.42.09h-.5a13.38,13.38,0,0,1-2.56-.29,19.31,19.31,0,0,1-2.37-.73,2.1,2.1,0,0,0-.69-.12Z" style="fill: #fff"/>
    <path d="M10.05,7.16l-.39.3c.12.18.22.34.33.49l6.85,9.49L32.68,39.37a8.47,8.47,0,0,1,1.13,2.15,1.37,1.37,0,0,1,0,1,1,1,0,0,0,.41,1.26,2.73,2.73,0,0,0,.7.32A4.64,4.64,0,0,1,37,45.28a1.23,1.23,0,0,0,.72.44l.09-.09L10.05,7.16Z" style="fill: #fff"/>
    <path d="M28.26,42.59a2.23,2.23,0,0,0-1.17.31c.23.43.66.74.52,1.26a3,3,0,0,0-.56,1,3.75,3.75,0,0,0,.09,1.1.72.72,0,0,1-.52.21,1.07,1.07,0,0,1-.28,0,15.67,15.67,0,0,1-1.72-.53,4.72,4.72,0,0,0-1.76-.37l-.36,0c-.21,0-.42,0-.5.27a3.29,3.29,0,0,0,2,1.44c.21-.26-.1-.51,0-.81l.7.19c1,.26,2.07.54,3.11.75l.26,0c.42,0,.62-.27.64-.78,0-.24,0-.48,0-.72,0-.48.16-.71.45-.71a1.11,1.11,0,0,1,.48.14c.25.12.48.27.72.4a2.71,2.71,0,0,0,1.29.35,2.48,2.48,0,0,0,.66-.09l1-.28a1.23,1.23,0,0,1,.29,0,.63.63,0,0,1,.61.44,6.5,6.5,0,0,1,.31,1c.06.21.09.43.13.65h.11a.52.52,0,0,0,.08-.17c0-.7.1-1.41.11-2.11a1.91,1.91,0,0,0-.17-.7.93.93,0,0,0-.92-.65h0c-.33,0-.66,0-1,0l-.39,0a3.08,3.08,0,0,1-2.22-.88,2.53,2.53,0,0,0-1.27-.67,3.52,3.52,0,0,0-.69-.07Z" style="fill: #fff"/>
    <path d="M38.68,43.39a1.31,1.31,0,0,0-.58.19c.59,1.32,1.16,2.61,1.74,3.89a.62.62,0,0,0,.61.38h0a.83.83,0,0,1,.85.73,2.74,2.74,0,0,1,.11.56c0,.91.1,1.83.08,2.74a6.11,6.11,0,0,1-2,4.45,2.55,2.55,0,0,0-.19.22h0a.88.88,0,0,0,.51-.16,6.57,6.57,0,0,0,1.77-1.87,4.23,4.23,0,0,0,.56-2.81l.6-.13-.32-1,.6-.23c-.46-1.33-.9-2.63-1.37-3.93a.94.94,0,0,0-1-.6h0a1.05,1.05,0,0,1-1.2-.86c-.11-.31-.15-.63-.23-1s-.28-.62-.56-.62Z" style="fill: #fff"/>
    <path d="M18,13.49a3.47,3.47,0,0,0-1.29.25.74.74,0,0,0-.53.44,7.09,7.09,0,0,1,2.72,1c.41.23.79.5,1.2.7a12.35,12.35,0,0,0,1.8.76,3.84,3.84,0,0,0,1.1.17,3.38,3.38,0,0,0,2-.66,5.81,5.81,0,0,0,.46-.42l-.23-.07h-.47a6.68,6.68,0,0,1-3.34-.93c-.33-.19-.66-.38-1-.54a11.54,11.54,0,0,0-1.33-.56A3.56,3.56,0,0,0,18,13.49Z" style="fill: #fff"/>
    <path d="M36.64,45.85a.76.76,0,0,0-.42,1,1.94,1.94,0,0,0,.36.62,11.37,11.37,0,0,1,1.91,4,1.43,1.43,0,0,1-.89,1.85,5.44,5.44,0,0,1-.9.23c-.24,0-.49.07-.77.11a1.29,1.29,0,0,0,.74.52,2.07,2.07,0,0,0,.59.08,2.73,2.73,0,0,0,2.11-1.07,2,2,0,0,0,.21-2.33c-.28-.55-.55-1.11-.82-1.67A2.36,2.36,0,0,1,38.48,48a.86.86,0,0,0-.53-.87,2.47,2.47,0,0,1-1-.85,5.12,5.12,0,0,0-.36-.39Z" style="fill: #fff"/>
    <path d="M25.21,5.3a1.27,1.27,0,0,0-.43.09l-.43.18c-.6.25-1.2.52-1.81.76a5.83,5.83,0,0,1-2.21.41c-.25,0-.49,0-.74,0l-.69,0-.12.41,1.42.9-.24.4a3.74,3.74,0,0,0,.84.13,1,1,0,0,0,1-.59A4.66,4.66,0,0,1,20,7.28l4.16-.62c0,.17,0,.36,0,.54,0,.34,0,.69,0,1,0,.57.2.82.68.82H25a3.88,3.88,0,0,0,.53-.14,4.29,4.29,0,0,0,.21-.74c.07-.69.13-1.37.15-2.06,0-.52-.23-.8-.63-.8Z" style="fill: #fff"/>
    <path d="M34.18,17.06a1.78,1.78,0,0,0-.19.3,2.73,2.73,0,0,0,.6,3c.48.47.91,1,1.37,1.47h.09c.1-.49-.44-.87-.24-1.42a1.05,1.05,0,0,1,.66-.23,1.68,1.68,0,0,1,.64.14,6,6,0,0,1,1,.6c.33.22.62.49,1,.71a1.3,1.3,0,0,0,.71.23,1.32,1.32,0,0,0,1.23-1l-.26.07a2,2,0,0,1-.76.16,2,2,0,0,1-1.26-.5L38,20a2.53,2.53,0,0,0-1.59-.59h-.55a1.56,1.56,0,0,1-1.63-1.59c0-.2,0-.4,0-.71Z" style="fill: #fff"/>
    <path d="M2.65,33.32c0,.16,0,.27-.06.39a2,2,0,0,1-1.06,1.66,2.29,2.29,0,0,0-.61.47,1.27,1.27,0,0,0-.27,1.39.72.72,0,0,0,.56.51c0-.13,0-.21,0-.3a1,1,0,0,1,.71-1.17l.48-.18a1.34,1.34,0,0,0,.79-.77c0-.08.08-.16.15-.29l.19.56a1.53,1.53,0,0,0-.85-2.27Z" style="fill: #fff"/>
    <path d="M22.81,9.58h-.4l-.13.73c-.11.63-.2,1.26-.33,1.88s-.36.86-.87.86l-.34,0-2.46-.33h0a1.37,1.37,0,0,0-.19,0l0,.35a12.53,12.53,0,0,1,4.33,1.18l.34-.19a20.7,20.7,0,0,1-.21-2.26,20.13,20.13,0,0,1,.26-2.22Z" style="fill: #fff"/>
    <path d="M25.05,17.13c-.14.5-.25,1-.41,1.42a1.83,1.83,0,0,1-1.57,1.25c-.44.06-.89,0-1.34.07h-.41a1.9,1.9,0,0,0,.37.26c.41.13.82.26,1.24.36a1.81,1.81,0,0,0,.4,0A1.78,1.78,0,0,0,24.55,20a2.56,2.56,0,0,0,.66-2.67.88.88,0,0,0-.15-.23Z" style="fill: #fff"/>
    <path d="M24.72,9.82a1.63,1.63,0,0,0-1.17.42,1.13,1.13,0,0,0-.15.21A3.69,3.69,0,0,0,24,13.81a.89.89,0,0,0,.6.25,1,1,0,0,0,.65-.28L25,13.68a2,2,0,0,1-1.33-2,1.35,1.35,0,0,1,1.17-1.47c.25-.06.5-.08.77-.13a1.65,1.65,0,0,0-.89-.23Z" style="fill: #fff"/>
    <path d="M13.84,51.67a.82.82,0,0,0-.63,1,1.46,1.46,0,0,0,1.39,1.17h0a.93.93,0,0,0,.82-1.49,4.62,4.62,0,0,1-.66.47.92.92,0,0,1-.39.1c-.37,0-.61-.29-.58-.76,0-.15,0-.3.05-.46Z" style="fill: #fff"/>
  </g>
  <g id="g3826">
    <g id="g4151">
      <g id="path4104">
        <path d="M146.91,50.61c-14.92,0-16.08-9.73-16.08-12.71v-.5h8.29v.5c0,1.63.71,5.43,7.24,5.43,3.26,0,7.14-.73,7.14-4.22,0-2.38-2.15-3-6.26-4l-7.33-1.81c-5.66-1.37-8.53-4.85-8.53-10.34,0-5.66,3.82-11.71,14.53-11.71,4.48,0,8,1.14,10.61,3.39V12.18h8.09V31l8.21-9.42h10.05l-10,11,10,17h-9.67L167,38.39l-2.35,2.43v8.84h-8.08V48.16A19.58,19.58,0,0,1,146.91,50.61ZM131.84,38.41c.15,3.74,2.07,11.21,15.07,11.21,1.4,0,6.26-.2,9.82-2.8l.79-.58v2.43h6.08V40.41l3.57-3.69,6.62,11.94h7.33l-9.49-16.15,9-9.89h-7.34l-9.67,11.09V13.18h-6.09v3.89l-.87-.93c-2.42-2.6-6-3.91-10.75-3.91-12.55,0-13.53,8.19-13.53,10.71,0,5,2.54,8.1,7.76,9.37l7.34,1.81c3.92,1,7,1.73,7,5s-2.89,5.22-8.14,5.22c-6.94,0-8.07-4.05-8.22-5.93Zm25.68-7.2-.75-.44a19.46,19.46,0,0,0-5.15-1.92l-8.89-2.16c-1.38-.32-4.26-1-4.26-4.3,0-3.6,3.71-4.87,6.88-4.87,6.6,0,7.62,3.76,7.88,5.53h4.29ZM145.36,18.5c-2.71,0-5.88,1-5.88,3.87,0,2.33,1.72,2.92,3.49,3.33l8.9,2.17a22.72,22.72,0,0,1,4.66,1.62V24h-4.18l-.05-.44C152.11,22.07,151.69,18.5,145.36,18.5Z" style="fill: #fff"/>
      </g>
    </g>
  </g>
  <g>
    <path d="M71.23,46.28A2.33,2.33,0,0,1,69,45a1.68,1.68,0,0,1-.12-.43A1.92,1.92,0,0,1,69.45,43a2.81,2.81,0,0,1,1.66-.86,2.43,2.43,0,0,1,2.64,1.24,1.78,1.78,0,0,1,.12.43h0a2.36,2.36,0,0,1-2.2,2.42A3,3,0,0,1,71.23,46.28Zm.32-3.16-.3,0a1.81,1.81,0,0,0-1.07.54.94.94,0,0,0-.28.75.68.68,0,0,0,0,.18,1.45,1.45,0,0,0,1.57.65c.81-.12,1.43-.71,1.35-1.29a.76.76,0,0,0-.05-.18A1.35,1.35,0,0,0,71.56,43.12Z" style="fill: #fff"/>
    <path d="M73.68,47.83a2.33,2.33,0,0,1-2.2-1.28.92.92,0,0,1,0-.12.46.46,0,0,1,0-.39.49.49,0,0,1,.33-.23,2,2,0,0,0,1.67-1.67.5.5,0,0,1,.49-.47,2.38,2.38,0,0,1,2.23,1.28,1.73,1.73,0,0,1,.12.43h0a2.36,2.36,0,0,1-2.2,2.42A3,3,0,0,1,73.68,47.83Zm-1-1.28a1.8,1.8,0,0,0,1.26.25c.81-.12,1.43-.72,1.35-1.29a.72.72,0,0,0-.05-.18,1.18,1.18,0,0,0-.89-.63A3,3,0,0,1,72.71,46.56Z" style="fill: #fff"/>
    <path d="M76.18,45.19a.5.5,0,0,1-.43-.25,2,2,0,0,0-1.83-.87.51.51,0,0,1-.5-.36l0-.1a1.36,1.36,0,0,0-.34-.52.5.5,0,0,1,0-.66l.13-.17a2.81,2.81,0,0,1,1.66-.86,2.43,2.43,0,0,1,2.64,1.24,1.77,1.77,0,0,1,.12.43h0a2.09,2.09,0,0,1-1.14,2A.5.5,0,0,1,76.18,45.19Zm-1.91-2.11a3.05,3.05,0,0,1,2,.91.94.94,0,0,0,.31-.77.75.75,0,0,0-.05-.18A1.45,1.45,0,0,0,75,42.39a1.9,1.9,0,0,0-.87.36A2.37,2.37,0,0,1,74.27,43.08Z" style="fill: #fff"/>
    <path d="M101.14,19.43a4.54,4.54,0,0,0-2,1.18,3.46,3.46,0,0,1,1-.14,3,3,0,0,1,2,.7h0a2.23,2.23,0,0,0-1-1.73Z" style="fill: #fff"/>
    <path d="M87.57,16.74a3.54,3.54,0,0,1-1,.72,1,1,0,0,0-.23,1.66c1.56,1.35,3.51,4.52,3.89,9a1,1,0,0,0,.19.5H87.14a6.57,6.57,0,0,0,.12-5.27c-1-2.72-3.62-5.65-7.09-5.65a5.93,5.93,0,0,0-.88.07,3.16,3.16,0,0,0-.89.27v0c.2-1,2.44-1.13,4.72-1.13h1.33a28.67,28.67,0,0,0,3.13-.13m7.37,0a28.66,28.66,0,0,0,3.13.13H99.4c2.28,0,4.52.09,4.72,1.13v0a3.16,3.16,0,0,0-.89-.27,5.93,5.93,0,0,0-.88-.07c-3.47,0-6.11,2.93-7.09,5.65a6.57,6.57,0,0,0,.12,5.27H92.07a1,1,0,0,0,.19-.5c.38-4.48,2.33-7.65,3.89-9a1,1,0,0,0-.23-1.66,3.54,3.54,0,0,1-1-.72m-1.82-1.41c-.07.95,1.17,2.47,2.36,3-2,1.77-3.86,5.33-4.23,9.67-.37-4.35-2.2-7.91-4.23-9.67,1.19-.56,2.44-2.08,2.36-3a15.53,15.53,0,0,1-4.95.53H83.12c-2.83,0-5.36.12-5.7,1.95a2.7,2.7,0,0,0,.56,2,1.69,1.69,0,0,1,1.45-1.09,4.91,4.91,0,0,1,.73-.06c5,0,8.85,7.61,5,10.78a.08.08,0,0,0,.06.14h12a.08.08,0,0,0,.06-.14c-3.83-3.16,0-10.78,5-10.78a4.9,4.9,0,0,1,.73.06,1.69,1.69,0,0,1,1.45,1.09,2.69,2.69,0,0,0,.56-2c-.34-1.83-2.87-1.95-5.7-1.95H98.07a15.52,15.52,0,0,1-4.95-.53Z" style="fill: #fff"/>
    <path d="M105.84,9.14l.24.2-.2.1-.12-.16.08-.14m4.58,2.64.07,0-.07.08v-.09m-4.66-3.71c-.42,0-.81.38-1.15,1.43A2.48,2.48,0,0,1,102.95,14a2.69,2.69,0,0,0,0,.42c3-.14,4-2.31,3.44-4.05h0c0-.09.21-.15.56-.15.88,0,2.47.4,2.47,1.79s-1.87,1.93-1.87,3.29a1.26,1.26,0,0,0,.89,1.1c-.22-1,.07-1.3.51-1.3a3.23,3.23,0,0,1,1.54.66c-1.07-2.93,1.34-2.92,1.1-4.26-.16-.94-2.25-.66-3-1.13-.91-.57-1.94-2.28-2.83-2.28Z" style="fill: #fff"/>
    <path d="M76.61,9.14l.08.14-.12.16-.2-.11.24-.2M72,11.77v.09L72,11.79l.07,0m4.66-3.71c-.89,0-1.92,1.7-2.83,2.28-.76.48-2.84.19-3,1.13C70.62,12.82,73,12.8,72,15.74a3.23,3.23,0,0,1,1.54-.66c.43,0,.72.31.51,1.3a1.26,1.26,0,0,0,.89-1.1c0-1.36-1.87-2-1.87-3.29s1.59-1.79,2.47-1.79c.35,0,.59.06.56.15-.54,1.74.49,3.91,3.44,4.05a2.8,2.8,0,0,0,0-.42A2.48,2.48,0,0,1,77.84,9.5c-.34-1.05-.73-1.43-1.15-1.43Z" style="fill: #fff"/>
    <path d="M81.35,19.43a2.23,2.23,0,0,0-1,1.73,3,3,0,0,1,2-.7,3.46,3.46,0,0,1,1,.14,4.53,4.53,0,0,0-2-1.18Z" style="fill: #fff"/>
    <path d="M91.22,2.79l.16.19-.16.21L91.06,3l.16-.19m0-1.58L89.78,3l1.44,1.85L92.66,3h0L91.22,1.21Z" style="fill: #fff"/>
    <polygon points="99.86 7.03 98.83 8.28 99.86 9.5 100.88 8.28 99.86 7.03 99.86 7.03" style="fill: #fff"/>
    <polygon points="82.59 7.03 81.56 8.28 82.59 9.5 83.61 8.28 82.59 7.03 82.59 7.03" style="fill: #fff"/>
    <path d="M88.61,6.25l1.85,2.18a1,1,0,0,0,1.52,0l1.85-2.18a1,1,0,0,1,.71.34,1.87,1.87,0,0,1-.14,1.53,17,17,0,0,1-1,1.77,1,1,0,0,0-.56-.17H89.59a1,1,0,0,0-.56.17,16.8,16.8,0,0,1-1-1.77,1.87,1.87,0,0,1-.14-1.53,1,1,0,0,1,.71-.34m-4.24,5.47a.26.26,0,0,1,.13.08c.06.08.1.36-.1.89a3.85,3.85,0,0,1-.33.58l-.07.13H81.2a5,5,0,0,1-.42-.7c-.2-.53-.16-.81-.1-.89a.26.26,0,0,1,.13-.08l1.12,1a1,1,0,0,0,1.34,0l1.11-1m13.7,0,1.12,1a1,1,0,0,0,1.34,0l1.11-1a.26.26,0,0,1,.13.08c.06.08.1.36-.1.89a5,5,0,0,1-.42.7H98.45l-.07-.13a3.6,3.6,0,0,1-.34-.58c-.2-.53-.16-.81-.1-.89a.26.26,0,0,1,.13-.08M93.4,5.22,91.22,7.78,89,5.22c-1.69,0-2.84.95-1.94,3.26a21.81,21.81,0,0,0,1.25,2.23,4,4,0,0,1-3.47,3.1,4.64,4.64,0,0,0,.44-.78c.6-1.62-.17-2.37-1.29-2.37L82.59,12l-1.45-1.32c-1.13,0-1.89.75-1.29,2.37a8.61,8.61,0,0,0,.84,1.36H84.5a4.86,4.86,0,0,0,5.09-3.68h3.27a4.86,4.86,0,0,0,5.09,3.68h3.82A8.66,8.66,0,0,0,102.6,13c.6-1.62-.17-2.37-1.29-2.37L99.86,12,98.4,10.67c-1.12,0-1.9.75-1.29,2.37a4.74,4.74,0,0,0,.44.78,4,4,0,0,1-3.46-3.1,22,22,0,0,0,1.25-2.23c.9-2.31-.25-3.26-1.94-3.26ZM80.68,14.39h0Z" style="fill: #fff"/>
    <path d="M116.77,12.54A5,5,0,0,1,116,18c-1.07,1.37-3.41,3.1-6.78,5a1,1,0,0,0-.5,1c0,.28.06.56.08.84a1,1,0,0,0,1,1l.21,0a21,21,0,0,0,9.75-5.23,4,4,0,0,1-2,3.56c-1.6.89-4.22,1.53-8.23,2a1,1,0,0,0-.87.85q-.05.37-.13.73a1,1,0,0,0,.84,1.2A19.44,19.44,0,0,0,112,29a20.62,20.62,0,0,0,7.18-1.31,3.19,3.19,0,0,1-2.73,2.14,6.6,6.6,0,0,1-1,.07,35.16,35.16,0,0,1-6.33-.89l-.23,0a1,1,0,0,0-.92.6q-.14.33-.31.64A1,1,0,0,0,108,31.6a18.06,18.06,0,0,0,8.45,1.91,2.75,2.75,0,0,1-2.33.92,5.63,5.63,0,0,1-.76-.05,13.78,13.78,0,0,1-5.55-2.57,1,1,0,0,0-1.35.13c-.14.15-.3.31-.49.49a1,1,0,0,0-.18,1.26,10.41,10.41,0,0,0,5.64,4,2.61,2.61,0,0,1-.51,0,4,4,0,0,1-1.69-.43,9.83,9.83,0,0,1-3.41-3.51,1,1,0,0,0-1.3-.38,5.42,5.42,0,0,1-.64.26,1,1,0,0,0-.67.89,1,1,0,0,0-.93-.63,6.26,6.26,0,0,0-3.26,1V33a8.72,8.72,0,0,0,1.53.14,6.74,6.74,0,0,0,1.27-.11,4.7,4.7,0,0,0,4-4.54,4.4,4.4,0,0,0-.9-2.68c5.3-3.58,10.08-10.51,11.84-13.24m-13.33,23a9.86,9.86,0,0,0,3.39,4.63h0a2.54,2.54,0,0,1-1.9-.9,8.79,8.79,0,0,1-1.49-3.73M116.67,10.9h0a.09.09,0,0,0-.06,0c-.61,1-6.35,10.29-12.65,14.29l-.23.14a.3.3,0,0,0,0,.48,3.49,3.49,0,0,1,1.18,2.59A3.7,3.7,0,0,1,101.68,32a5.81,5.81,0,0,1-1.09.1,7.82,7.82,0,0,1-2.42-.39h0a.08.08,0,0,0-.09.08v5.6a.09.09,0,0,0,.17,0c.77-2,3.08-2.48,4.09-2.48a10.71,10.71,0,0,0,1.86,5,3.53,3.53,0,0,0,2.66,1.24,2.57,2.57,0,0,0,1.93-.78.08.08,0,0,0,0-.07.08.08,0,0,0,0-.06c-.57-.33-3.84-2.34-4.5-5.63a6.44,6.44,0,0,0,.75-.31,10.7,10.7,0,0,0,3.83,3.9,4.94,4.94,0,0,0,2.13.52,3,3,0,0,0,2.7-1.47.08.08,0,0,0-.07-.12c-1.29-.1-5.23-1.23-6.91-4,.19-.18.38-.36.56-.56a14.7,14.7,0,0,0,6,2.76,6.62,6.62,0,0,0,.89.06c1.81,0,3.56-.78,3.61-2.86a.09.09,0,0,0-.09-.09h0c-.17,0-.54,0-1.06,0a17.22,17.22,0,0,1-8.07-1.77q.18-.35.34-.7a36,36,0,0,0,6.56.92,7.58,7.58,0,0,0,1.21-.08,4,4,0,0,0,3.66-4.57.09.09,0,0,0-.09-.07h0A19,19,0,0,1,112,28a18.36,18.36,0,0,1-2.46-.16q.09-.4.15-.8c3.69-.44,6.68-1.07,8.59-2.13a4.87,4.87,0,0,0,2-6.26.09.09,0,0,0-.08,0,.09.09,0,0,0-.07,0,20.18,20.18,0,0,1-10.36,6.09q0-.46-.08-.92c2.9-1.64,5.73-3.54,7.07-5.27,2-2.62,1.85-6-.09-7.66l-.06,0Z" style="fill: #fff"/>
    <path d="M65.67,12.54c1.78,2.75,6.55,9.67,11.84,13.24a4.4,4.4,0,0,0-.9,2.68,4.7,4.7,0,0,0,4,4.54,6.76,6.76,0,0,0,1.28.11A8.74,8.74,0,0,0,83.39,33V34.9a6.27,6.27,0,0,0-3.26-1,1,1,0,0,0-.93.63,1,1,0,0,0-.67-.89,5.56,5.56,0,0,1-.64-.26,1,1,0,0,0-1.3.38,9.83,9.83,0,0,1-3.4,3.51,3.94,3.94,0,0,1-1.69.43,2.62,2.62,0,0,1-.51,0,10.41,10.41,0,0,0,5.64-4,1,1,0,0,0-.18-1.26c-.19-.17-.35-.33-.49-.49a1,1,0,0,0-1.35-.13,13.78,13.78,0,0,1-5.55,2.57,5.62,5.62,0,0,1-.75.05A2.76,2.76,0,0,1,66,33.51a18.06,18.06,0,0,0,8.45-1.91,1,1,0,0,0,.39-1.33q-.17-.31-.31-.64a1,1,0,0,0-.92-.6l-.23,0a35.16,35.16,0,0,1-6.33.89,6.59,6.59,0,0,1-1-.07,3.19,3.19,0,0,1-2.73-2.14A20.63,20.63,0,0,0,70.42,29a19.44,19.44,0,0,0,2.6-.17,1,1,0,0,0,.84-1.2q-.08-.36-.13-.73a1,1,0,0,0-.87-.85c-4-.48-6.62-1.12-8.23-2a4,4,0,0,1-2-3.56,21,21,0,0,0,9.75,5.23l.21,0a1,1,0,0,0,1-1c0-.28,0-.56.08-.84a1,1,0,0,0-.5-1c-3.37-1.91-5.71-3.64-6.78-5a5,5,0,0,1-.74-5.43M79,35.53a8.79,8.79,0,0,1-1.49,3.73,2.54,2.54,0,0,1-1.9.9h0A9.86,9.86,0,0,0,79,35.53M65.77,10.9l-.06,0c-1.93,1.7-2.12,5-.09,7.66,1.35,1.73,4.18,3.62,7.07,5.27q-.06.46-.08.92a20.19,20.19,0,0,1-10.35-6.09.09.09,0,0,0-.15,0,4.88,4.88,0,0,0,2,6.26C66.05,26,69,26.64,72.74,27.09q.06.4.15.8a18.37,18.37,0,0,1-2.46.16,19,19,0,0,1-8.14-1.81h0a.09.09,0,0,0-.09.07,4,4,0,0,0,3.66,4.56,7.58,7.58,0,0,0,1.21.08A36,36,0,0,0,73.58,30h0q.16.36.34.7a17.22,17.22,0,0,1-8.07,1.77c-.52,0-.9,0-1.07,0h0a.09.09,0,0,0-.09.09c.05,2.08,1.8,2.86,3.61,2.86a6.62,6.62,0,0,0,.89-.06,14.7,14.7,0,0,0,6-2.76c.18.2.36.38.56.56-1.68,2.75-5.62,3.88-6.91,4a.08.08,0,0,0-.07.12,3,3,0,0,0,2.7,1.47,5,5,0,0,0,2.13-.52,10.7,10.7,0,0,0,3.83-3.9,6.58,6.58,0,0,0,.75.31c-.65,3.29-3.92,5.3-4.5,5.63a.08.08,0,0,0,0,.12,2.57,2.57,0,0,0,1.93.78,3.53,3.53,0,0,0,2.66-1.24,10.71,10.71,0,0,0,1.86-5c1,0,3.32.43,4.09,2.48a.09.09,0,0,0,.08.05.08.08,0,0,0,.09-.08v-5.6a.08.08,0,0,0-.09-.08h0a7.82,7.82,0,0,1-2.41.39,5.8,5.8,0,0,1-1.09-.1,3.7,3.7,0,0,1-3.17-3.56,3.49,3.49,0,0,1,1.18-2.59.3.3,0,0,0,0-.48l-.23-.14c-6.3-4-12-13.27-12.65-14.29a.09.09,0,0,0-.08,0Z" style="fill: #fff"/>
    <path d="M91.73,34.56a1,1,0,0,0,.26.08h.17a1,1,0,0,0,.38-.08,2.74,2.74,0,0,0,.07,1.07c.08.29.15.58.23.9l.08.34a1.28,1.28,0,0,0-.26.26l-.94-2.58m-.22-3.17a.66.66,0,0,0-.67.71.71.71,0,0,0,.1.35l-.3,0a3.47,3.47,0,0,0-.72.07l3.86,10.58a3,3,0,0,0,1.91-2.33.46.46,0,0,0-.52-.49,1.81,1.81,0,0,0-1.2.58c-.18-1-.34-1.92-.52-2.85,0-.25.08-.35.29-.42h0a1.67,1.67,0,0,1,.57-.1c.59,0,1.18.3,1.15,1a.15.15,0,0,0,.15.17.18.18,0,0,0,.18-.17c.18-1.28-.54-1.77-1.42-1.77a2.61,2.61,0,0,0-.43,0c-.13-.51-.24-1-.36-1.4s-.13-1,.28-1c.22,0,.13.62.11.89s.07.38.26.38h0c.12,0,.26-.15.35-.25a1.52,1.52,0,0,0,0-2.23,1.32,1.32,0,0,0-.76-.2,2.23,2.23,0,0,0-1.7.69,2.76,2.76,0,0,0-.49-.77c-.14-.16-.17-.27,0-.41a.93.93,0,0,0,.36-.61.48.48,0,0,0-.53-.46Z" style="fill: #fff"/>
    <path d="M91.26,44.25a4.81,4.81,0,0,1-3-.88,2.07,2.07,0,0,1-1.39-.28,1.51,1.51,0,0,1-.71-1.31,2.38,2.38,0,0,1,.33-1.13.66.66,0,0,1,.66-.33,7.08,7.08,0,0,1,.51-1.49c-.27.09-.73.12-.9-.2a.5.5,0,0,1,0-.52c.12-.18.14-.29-.06-.58a1.33,1.33,0,0,1,.1-2,1.27,1.27,0,0,1,.82-.24,2.56,2.56,0,0,1-.38-.29A1.45,1.45,0,0,1,86.77,34c0-.83.89-1.38,1.66-1.67l-.63-1.76a.69.69,0,0,1,.41-.89.7.7,0,0,1,.89.41h0l4.77,13.09a.5.5,0,0,1-.25.62A5.78,5.78,0,0,1,91.26,44.25Zm-2.85-1.93a.5.5,0,0,1,.35.14c1,1,3,.89,4,.6l-2.48-6.8a.5.5,0,0,1-.38.17,1.77,1.77,0,0,0-.8.22.57.57,0,0,1-.3.14.5.5,0,0,1,0,.27,1.32,1.32,0,0,0,.08.69,1.14,1.14,0,0,1-.11,1.06c-.06.09-.12.21-.19.34.2-.23.45-.49.73-.77a.5.5,0,0,1,.82.52,1.89,1.89,0,0,0,.18,1.48.5.5,0,0,1-.33.87,3.37,3.37,0,0,0-1.64.33.51.51,0,0,1-.34.09.5.5,0,0,1-.49.43,2.53,2.53,0,0,1-.31,0,.54.54,0,0,0,.18.18,1,1,0,0,0,.76.12A.49.49,0,0,1,88.41,42.32Zm.77-2.26-.22.29.28,0Q89.2,40.18,89.17,40.05Zm-1.57-3.73a.28.28,0,0,0-.15,0c-.17.13,0,.42.11.59l.09.14a.79.79,0,0,1,.5-.6A1.2,1.2,0,0,0,87.61,36.33Zm1.54-3.2c-.75.19-1.38.61-1.38.84a.51.51,0,0,0,.19.33,2.74,2.74,0,0,0,1.76.57h.06Z" style="fill: #fff"/>
    <path d="M72.71,50.3a7.53,7.53,0,0,1-1.51-.15.5.5,0,0,1-.32-.22,8.07,8.07,0,0,1-.61-1.14,10.11,10.11,0,0,1-.69-2.57.5.5,0,0,1,.7-.53,2.38,2.38,0,0,0,1,.2.61.61,0,0,1,.57.36l-.42.35.46-.19a1.94,1.94,0,0,0,1.83,1h0a2.52,2.52,0,0,0,.38,0,2,2,0,0,0,1.86-2h0a.2.2,0,0,1,0-.07.5.5,0,0,1,.25-.53,2.22,2.22,0,0,0,.58-.46.5.5,0,0,1,.86.25,5.75,5.75,0,0,1,.09.79h0a10.51,10.51,0,0,0,.26,1.84.5.5,0,0,1,0,.32C77.18,49.2,75.09,50.3,72.71,50.3Zm-1.1-1.09c2.21.38,4.57-.49,5.32-1.9q-.09-.43-.15-.86a3.22,3.22,0,0,1-2.57,1.94,3.61,3.61,0,0,1-.53,0h0A2.93,2.93,0,0,1,71,46.87l-.26,0a8.17,8.17,0,0,0,.48,1.54A7.06,7.06,0,0,0,71.61,49.21Z" style="fill: #fff"/>
    <path d="M79.66,55.17a11,11,0,0,1-4.79-1.59.5.5,0,0,1,.21-.93,3.8,3.8,0,0,0,3.38-2.08.5.5,0,0,1,.88-.11A8.6,8.6,0,0,0,81,52.24.5.5,0,0,1,81,53a4.35,4.35,0,0,0-.69,1.65.48.48,0,0,1-.12.37.49.49,0,0,1-.35.17Zm-3-1.82a9.22,9.22,0,0,0,2.76.81A6,6,0,0,1,80,52.71a9.53,9.53,0,0,1-1-1A4.72,4.72,0,0,1,76.61,53.35Z" style="fill: #fff"/>
    <path d="M91.19,61.13a.51.51,0,0,1-.2,0c-.56-.25-2.41-1.19-2.41-2.68a20,20,0,0,1,.9-5.11,12.49,12.49,0,0,0-1.58,5.32.67.67,0,0,1-.24.43.59.59,0,0,1-.5.09c-1.26-.34-2.82-1.61-2.47-3.11a8.68,8.68,0,0,1,2-3.76,8,8,0,0,0-2.83,4.41.67.67,0,0,1-.26.39.59.59,0,0,1-.44.08A3.34,3.34,0,0,1,81,55.61a1.85,1.85,0,0,1-.21-1.53c.84-2.41,4.63-4.57,8-5.51a5.64,5.64,0,0,0-2-2.69,1.69,1.69,0,0,0-2-.08,1.6,1.6,0,0,0-.26,1.9.93.93,0,0,1-.07.88.92.92,0,0,1-.78.4A11.36,11.36,0,0,0,79,50a.35.35,0,0,1,0,.06c-.12,1.69-2,3-4.37,3l-.44,0a.5.5,0,0,1-.25-.09,11.47,11.47,0,0,1-2.59-2.39.5.5,0,0,1,.46-.8,7,7,0,0,0,.89.06,5.41,5.41,0,0,0,4.69-2.24.45.45,0,0,1,.46-.25,10.42,10.42,0,0,0,3.53-.57c-2.07-3.08-1.54-5.09-1-6a4.26,4.26,0,0,1,4.05-2,.5.5,0,0,1,.47.5v3.26a1.48,1.48,0,0,0,1.54,1.4h2.19a3.65,3.65,0,0,1,2.6,1.28,3.65,3.65,0,0,1,2.6-1.28H96a1.48,1.48,0,0,0,1.54-1.4V39.25a.5.5,0,0,1,.47-.5,4.27,4.27,0,0,1,4.05,2,3.59,3.59,0,0,1,.17.35,1.71,1.71,0,0,1,.18-.6l.11-.22a.5.5,0,0,1,.68-.21l3.9,2a1.7,1.7,0,0,1,.49.39,1.8,1.8,0,0,1,.11-.26,1.68,1.68,0,0,1,3,1.56,1.65,1.65,0,0,1-.15.24,1.71,1.71,0,0,1,.6.18h0l3.9,2a.5.5,0,0,1,.21.67l-.11.22a1.73,1.73,0,0,1-1.72.91,1.73,1.73,0,0,1-1.32.41,1.72,1.72,0,0,1-1.86.27,1.56,1.56,0,0,1-.12.31,1.58,1.58,0,0,1-1.58.75,2.12,2.12,0,0,1-.17,1.49,2.41,2.41,0,0,1-2.31,1.18A2.23,2.23,0,0,1,106,53.6a3.49,3.49,0,0,1-2.22,1.9l-1,1.42a.75.75,0,0,1-.94.22.74.74,0,0,1-.36-.86l.6-1.67a3.49,3.49,0,0,1,.3-2.91,2.23,2.23,0,0,1,.88-.71,2.77,2.77,0,0,1-.54-1.29A11.83,11.83,0,0,0,98.8,49a.92.92,0,0,1-.78-.4.93.93,0,0,1-.07-.87,1.6,1.6,0,0,0-.26-1.9,1.69,1.69,0,0,0-2,.08,5.63,5.63,0,0,0-2,2.69c3.35.94,7.13,3.1,8,5.51a1.84,1.84,0,0,1-.21,1.53,3.35,3.35,0,0,1-2.18,1.54.69.69,0,0,1-.43-.08.59.59,0,0,1-.26-.38,8,8,0,0,0-2.83-4.41,8.69,8.69,0,0,1,2,3.76c.35,1.51-1.21,2.78-2.47,3.11a.68.68,0,0,1-.5-.09.58.58,0,0,1-.24-.44A12.48,12.48,0,0,0,93,53.29a20,20,0,0,1,.9,5.11c0,1.72-2.49,2.69-2.51,2.7Zm-.88-10.27.16,0a.5.5,0,0,1,.33.4q.05.38.08.77a.49.49,0,0,1,0,.2,23,23,0,0,0-1.28,6.14c0,.69,1,1.35,1.63,1.68.54-.25,1.67-.94,1.67-1.68a23,23,0,0,0-1.28-6.14.49.49,0,0,1,0-.2c0-.26,0-.52.08-.77a.5.5,0,0,1,.33-.4.52.52,0,0,1,.21,0,.5.5,0,0,1-.23-.62l.17-.45a.5.5,0,0,1,.58-.31c2,.45,5.8,3,6.73,6.57a2.32,2.32,0,0,0,1.12-.94.88.88,0,0,0,.13-.7c-.73-2.1-4.63-4.24-7.81-5a.5.5,0,0,1-.35-.66A7.2,7.2,0,0,1,95.13,45l.23-.13H93.82a3.06,3.06,0,0,0-2.18,1.35.52.52,0,0,1-.84,0,3.06,3.06,0,0,0-2.18-1.35H87.09l.23.13a7.2,7.2,0,0,1,2.61,3.7.5.5,0,0,1-.35.66c-3.19.77-7.08,2.91-7.82,5a.88.88,0,0,0,.13.7,2.32,2.32,0,0,0,1.12.94c.93-3.57,4.75-6.12,6.73-6.57a.5.5,0,0,1,.58.31l.17.44a.5.5,0,0,1-.23.62Zm-3.41,7.7h0ZM92.51,51a12.1,12.1,0,0,1,3,7c.74-.35,1.44-1,1.28-1.74A8.41,8.41,0,0,0,92.51,51Zm-2.56,0a8.41,8.41,0,0,0-4.28,5.25c-.16.7.54,1.39,1.28,1.74A12.09,12.09,0,0,1,89.94,51Zm9.11,5.16h0Zm3.93-2c0,.12.05.25.08.38a.14.14,0,1,0,.2.1l.35-.14h0a.36.36,0,1,0-.64-.34Zm1.26-2.42,0,0a.32.32,0,1,0,.58.26h0a.5.5,0,0,1,.61-.63,1.67,1.67,0,0,0,2-.55,1.37,1.37,0,0,0-.16-1.36.5.5,0,0,1,0-.54l.05-.07-.3-.06-.14,0a.5.5,0,0,1-.35-.72l.65-1.24a.5.5,0,0,1,.69-.2,4.4,4.4,0,0,1,1.35,1.08.46.46,0,0,1,.1-.14.48.48,0,0,1,.55-.09l.69.36a.72.72,0,0,0,.9-.2.5.5,0,0,1,.54-.17.73.73,0,0,0,.78-.24.5.5,0,0,1,.54-.17.72.72,0,0,0,.69-.15l-3.42-1.79a.73.73,0,0,0-1,.31,1.22,1.22,0,0,1-1.31.63.5.5,0,0,1-.36-.72l.71-1.36a.62.62,0,0,1,.45-.27.7.7,0,0,0,.62-.36.68.68,0,1,0-1.16.08.5.5,0,0,1,0,.52L108,45.3a.5.5,0,0,1-.8.12A1.22,1.22,0,0,1,107,44a.73.73,0,0,0-.31-1l-3.42-1.79a.72.72,0,0,0,.27.65.5.5,0,0,1,.17.54.73.73,0,0,0,.24.78.5.5,0,0,1,.17.54.72.72,0,0,0,.35.85l.69.36a.5.5,0,0,1,.22.67,4.45,4.45,0,0,1,1.63.49.5.5,0,0,1,.23.68L106.56,48a.5.5,0,0,1-.36.26.51.51,0,0,1-.43-.13l-.11-.11-.21-.2,0,.08a.5.5,0,0,1-.44.32,1.89,1.89,0,0,0-.43.07.52.52,0,0,1-.18,0c-1.1.09-3.93-.39-4.38-1.1a.62.62,0,0,1,0-.68c1.5-2.12,1.93-4,1.2-5.32a3.14,3.14,0,0,0-2.65-1.5v2.76a2.37,2.37,0,0,1-1.23,2.05,2.23,2.23,0,0,1,1,.48A2.53,2.53,0,0,1,98.91,48a12.66,12.66,0,0,1,4.47.91.5.5,0,0,1,.31.48,1.94,1.94,0,0,0,.76,1.46l.08.09a.46.46,0,0,1,.11.48A.5.5,0,0,1,104.25,51.71ZM74.4,52.1h.23c1.71,0,3.17-.86,3.36-2L77.92,50a.5.5,0,0,1,.19-.66A11.86,11.86,0,0,1,83.53,48,2.53,2.53,0,0,1,84.12,45a2.23,2.23,0,0,1,1-.48,2.37,2.37,0,0,1-1.22-2.05V39.75a3.14,3.14,0,0,0-2.65,1.5c-.72,1.32-.3,3.2,1.19,5.3a.62.62,0,0,1,0,.67c-.42.73-3,1.15-4.36,1.16a6.41,6.41,0,0,1-5.19,2.49A11.25,11.25,0,0,0,74.4,52.1Zm33.42-4.17.39.07-.31-.23ZM101,46.8a10.06,10.06,0,0,0,2.91.56,1.54,1.54,0,0,1-.23-1.66,1.6,1.6,0,0,1,.18-.27,1.73,1.73,0,0,1-.84-1.68,1.74,1.74,0,0,1-.41-1.32l-.14-.18A7.07,7.07,0,0,1,101,46.8Zm4.66-.12L106,47l.09-.17Z" style="fill: #fff"/>
  </g>
</svg>
