<svg xmlns="http://www.w3.org/2000/svg" width="188.65" height="53.72" viewBox="0 0 188.65 53.72">
  <title>лого партнеров для сайта</title>
  <g>
    <path d="M82.17,35.89a.88.88,0,0,0-.06-.21A1.34,1.34,0,0,0,80.65,35a1.6,1.6,0,0,0-.95.48h0a1,1,0,0,0-.28.8h0a.82.82,0,0,0,.06.21,1.34,1.34,0,0,0,1.46.65,1.29,1.29,0,0,0,1.23-1.29" style="fill: #d2d2d2"/>
    <path d="M83.87,37a.86.86,0,0,0-.06-.21,1.27,1.27,0,0,0-1.22-.67,1.73,1.73,0,0,1-1.42,1.48v0a1.34,1.34,0,0,0,1.46.65A1.29,1.29,0,0,0,83.87,37" style="fill: #d2d2d2"/>
    <path d="M84.74,35.37a.88.88,0,0,0-.06-.21,1.34,1.34,0,0,0-1.46-.65,1.6,1.6,0,0,0-.95.49h0l-.07.09a1.33,1.33,0,0,1,.3.44,1.29,1.29,0,0,1,0,.15,1.75,1.75,0,0,1,1.58.78,1.11,1.11,0,0,0,.62-1.07" style="fill: #d2d2d2"/>
    <path d="M102.12,20.12a2.29,2.29,0,0,0-2.09-.39,3.15,3.15,0,0,1,1.39-.82,1.55,1.55,0,0,1,.7,1.2Z" style="fill: #d2d2d2"/>
    <path d="M104.17,17.8c-.42-2.25-5.66-.76-8.3-1.72-.05.66.81,1.71,1.64,2.1a10.25,10.25,0,0,0-2.93,6.71,10.25,10.25,0,0,0-2.93-6.71c.83-.39,1.69-1.44,1.64-2.1-2.64,1-7.88-.54-8.3,1.72a1.87,1.87,0,0,0,.39,1.41,1.17,1.17,0,0,1,1-.76c3.69-.56,6.77,5.13,4,7.43a.06.06,0,0,0,0,.1h8.34a.06.06,0,0,0,0-.1c-2.78-2.3.3-8,4-7.43a1.17,1.17,0,0,1,1,.76A1.87,1.87,0,0,0,104.17,17.8Z" style="fill: #d2d2d2"/>
    <path d="M105.06,12.62c-.07-.21,2.1-.22,2.1,1.14,0,.91-1.29,1.34-1.29,2.28a.87.87,0,0,0,.62.76c-.33-1.51,1-.72,1.42-.44-.74-2,.93-2,.76-3-.11-.65-1.56-.45-2.09-.79-.93-.59-2-2.86-2.76-.59a1.72,1.72,0,0,1-1.15,3.1,1.87,1.87,0,0,0,0,.29c2-.1,2.76-1.6,2.39-2.81Z" style="fill: #d2d2d2"/>
    <path d="M81.19,16.36c.37-.28,1.75-1.07,1.42.44a.87.87,0,0,0,.62-.76c0-.94-1.29-1.37-1.29-2.28,0-1.35,2.16-1.35,2.1-1.14-.37,1.2.34,2.71,2.39,2.81a1.94,1.94,0,0,0,0-.29A1.72,1.72,0,0,1,85.27,12c-.73-2.28-1.83,0-2.76.59-.52.33-2,.13-2.09.79C80.26,14.34,81.93,14.33,81.19,16.36Z" style="fill: #d2d2d2"/>
    <path d="M87,20.12a2.29,2.29,0,0,1,2.09-.39,3.14,3.14,0,0,0-1.39-.82A1.55,1.55,0,0,0,87,20.12Z" style="fill: #d2d2d2"/>
    <polygon points="95.54 7.51 94.54 6.29 93.55 7.51 94.54 8.79 95.54 7.51 95.54 7.51" style="fill: #d2d2d2"/>
    <polygon points="101.24 11.19 100.53 10.32 99.82 11.19 100.53 12.04 101.24 11.19" style="fill: #d2d2d2"/>
    <polygon points="89.27 11.19 88.56 10.32 87.85 11.19 88.56 12.04 89.27 11.19" style="fill: #d2d2d2"/>
    <path d="M87.23,15.43h2.65a3.37,3.37,0,0,0,3.53-2.55h2.27a3.37,3.37,0,0,0,3.53,2.55h2.65a6,6,0,0,0,.58-.94c.42-1.12-.12-1.64-.9-1.64l-1,.91-1-.91c-.78,0-1.31.52-.9,1.64a3.28,3.28,0,0,0,.3.54,2.75,2.75,0,0,1-2.4-2.15,15.26,15.26,0,0,0,.87-1.55c.63-1.6-.17-2.26-1.34-2.26l-1.51,1.77L93,9.07c-1.17,0-2,.66-1.34,2.26a15.12,15.12,0,0,0,.87,1.55A2.76,2.76,0,0,1,90.16,15a3.22,3.22,0,0,0,.3-.54c.42-1.12-.12-1.64-.9-1.64l-1,.91-1-.91c-.78,0-1.31.52-.9,1.64a6,6,0,0,0,.58.94Z" style="fill: #d2d2d2"/>
    <path d="M114.61,23.64a13.22,13.22,0,0,1-7.35,1.14q.06-.27.1-.55a17.41,17.41,0,0,0,6-1.48,3.38,3.38,0,0,0,1.41-4.34.06.06,0,0,0-.1,0,14,14,0,0,1-7.18,4.22q0-.32-.06-.64a18,18,0,0,0,4.9-3.65,3.9,3.9,0,0,0-.06-5.31h-.05l0,0c-.42.7-4.4,7.13-8.77,9.91l-.16.1a.21.21,0,0,0,0,.34,2.42,2.42,0,0,1,.82,1.8,2.57,2.57,0,0,1-2.19,2.47,5.1,5.1,0,0,1-2.43-.2.06.06,0,0,0-.08.05v3.88a.06.06,0,0,0,.12,0,3,3,0,0,1,2.84-1.72,7.42,7.42,0,0,0,1.29,3.45,2.2,2.2,0,0,0,3.18.32.05.05,0,0,0,0,0,.05.05,0,0,0,0,0,6.57,6.57,0,0,1-3.12-3.9,4.46,4.46,0,0,0,.52-.21,7.42,7.42,0,0,0,2.65,2.7c1.44.69,2.76.35,3.34-.66a.06.06,0,0,0,0-.08c-.89-.07-3.63-.86-4.79-2.76.13-.12.26-.25.39-.39A10.19,10.19,0,0,0,109.81,30c1.44.2,3.08-.26,3.12-1.94a.06.06,0,0,0-.06-.06,12.75,12.75,0,0,1-6.33-1.21q.13-.24.24-.49s3.66.86,5.39.58a2.8,2.8,0,0,0,2.54-3.16.06.06,0,0,0-.09,0Z" style="fill: #d2d2d2"/>
    <path d="M82.32,26.27q.11.25.24.49A12.75,12.75,0,0,1,76.22,28a.06.06,0,0,0-.07.06c0,1.68,1.67,2.14,3.12,1.94a10.19,10.19,0,0,0,4.17-1.91c.12.14.25.26.39.39-1.17,1.91-3.9,2.69-4.79,2.76a.06.06,0,0,0,0,.08c.58,1,1.9,1.35,3.34.66A7.42,7.42,0,0,0,85,29.24a4.56,4.56,0,0,0,.52.21,6.57,6.57,0,0,1-3.12,3.9.06.06,0,0,0,0,.08,2.2,2.2,0,0,0,3.18-.32,7.42,7.42,0,0,0,1.29-3.45,3,3,0,0,1,2.84,1.72.06.06,0,0,0,.12,0V27.49a.06.06,0,0,0-.08-.05,5.1,5.1,0,0,1-2.43.2,2.57,2.57,0,0,1-2.19-2.47,2.42,2.42,0,0,1,.82-1.8.21.21,0,0,0,0-.33l-.16-.1C81.36,20.17,77.38,13.74,77,13a.07.07,0,0,0-.1,0,3.9,3.9,0,0,0-.06,5.31A18,18,0,0,0,81.7,22q0,.32-.06.64a14,14,0,0,1-7.18-4.22.06.06,0,0,0-.1,0,3.38,3.38,0,0,0,1.41,4.34,17.41,17.41,0,0,0,6,1.48q0,.28.1.55a13.22,13.22,0,0,1-7.35-1.14.06.06,0,0,0-.09,0,2.8,2.8,0,0,0,2.54,3.16c1.73.29,5.39-.58,5.39-.58Z" style="fill: #d2d2d2"/>
    <path d="M96.28,31.5c.47-.18,1.22,0,1.19.65,0,.16.21.16.23,0,.14-1-.55-1.32-1.28-1.2-.09-.35-.16-.66-.25-1s-.09-.71.19-.71.09.43.08.62,0,.26.18.27.19-.1.25-.17a1.05,1.05,0,0,0,0-1.55,1.53,1.53,0,0,0-1.71.34,1.91,1.91,0,0,0-.34-.53c-.09-.11-.12-.19,0-.28a.65.65,0,0,0,.25-.42.34.34,0,0,0-.37-.32.46.46,0,0,0-.46.49.49.49,0,0,0,.07.24,2.47,2.47,0,0,0-.71,0l2.67,7.34a2,2,0,0,0,1.33-1.62c0-.55-.81-.37-1.2.06-.13-.69-.24-1.33-.36-2,0-.18.06-.24.2-.29Z" style="fill: #d2d2d2"/>
    <path d="M92.75,26.43a.13.13,0,1,0-.25.09h0l.56,1.56c-.48.11-1.25.47-1.25.93,0,.62,1.09,1,1.73,1a.42.42,0,0,0,.1.38,1.41,1.41,0,0,0-.8.26,1,1,0,0,0-1.11-.24c-.25.19-.26.52,0,.88a.62.62,0,0,1,0,.8c.76,0,.48-1,.78-1a1.25,1.25,0,0,0,.07.66.44.44,0,0,1,0,.44A4,4,0,0,0,92,34.29c-.25,0-.38-.06-.29-.4,0-.13,0-.22-.15-.06a1.31,1.31,0,0,0-.17.59c0,.73.87.87,1.2.72a3.58,3.58,0,0,0,3.47.37ZM92.38,34h0c-.07-.37.45-1,1.11-1.69a1.59,1.59,0,0,0,.22,1.39,2.63,2.63,0,0,0-1.34.29" style="fill: #d2d2d2"/>
    <path d="M80.73,39.88a4.84,4.84,0,0,0,1,.1A3.54,3.54,0,0,0,85,38.29a7,7,0,0,1-.19-1.36h0a3.48,3.48,0,0,0-.06-.47,1.9,1.9,0,0,1-.5.39s0,0,0,.07a1.7,1.7,0,0,1-1.58,1.75l-.32,0a1.68,1.68,0,0,1-1.59-.93,1.31,1.31,0,0,1,0-.15h-.06a2,2,0,0,1-.81-.17,6.73,6.73,0,0,0,.45,1.7,5.26,5.26,0,0,0,.4.74" style="fill: #d2d2d2"/>
    <path d="M86,40.63a3,3,0,0,1-2.64,1.67,6.93,6.93,0,0,0,3.25,1.05,3.08,3.08,0,0,1,.58-1.41A6.29,6.29,0,0,1,86,40.63" style="fill: #d2d2d2"/>
    <path d="M108.2,36.42a.85.85,0,0,0-1.14.36.5.5,0,0,1-.54.26l.49-.94a.82.82,0,1,0-.65-.34l-.49.94a.5.5,0,0,1-.1-.59.85.85,0,0,0-.36-1.14l-2.71-1.42-.08.15a.85.85,0,0,0,.23,1.06.85.85,0,0,0,.29.92.85.85,0,0,0,.42,1l.48.25h0a.73.73,0,0,0-.46.37c-.21.4.1.81.55,1.26a1.66,1.66,0,0,0-.38.06h0c-.8.11-3-.37-2.77-.69,2.4-3.37.56-5.37-1.64-5.26v2.26a1.37,1.37,0,0,1-1.42,1.32H96.34a2.46,2.46,0,0,0-1.8,1.1,2.46,2.46,0,0,0-1.8-1.1H91.22a1.37,1.37,0,0,1-1.41-1.32V32.66c-2.2-.11-4,1.89-1.64,5.26.2.3-1.8.77-2.91.71a4,4,0,0,1-3.55,1.73,5.26,5.26,0,0,1-.66,0,7.64,7.64,0,0,0,1.72,1.58H83c1.44,0,2.61-.79,2.68-1.77l-.1-.17a7.91,7.91,0,0,1,3.67-.92.28.28,0,0,0,.27-.4c-.62-1.49.71-2.56,2.09-1.69a4.61,4.61,0,0,1,1.67,2.39c-2.26.55-5.09,2.05-5.66,3.7-.22.63.51,1.5,1.39,1.67h0a.06.06,0,0,0,0,0,6.72,6.72,0,0,1,4.47-4.59l.12.31a6.24,6.24,0,0,0-3.36,4c-.19.81.72,1.54,1.46,1.74a.06.06,0,0,0,.08-.05,8.16,8.16,0,0,1,2-5q0,.25.05.51a16.21,16.21,0,0,0-.91,4.38c0,.86,1.28,1.46,1.47,1.54.24-.08,1.51-.68,1.51-1.54a16.21,16.21,0,0,0-.91-4.38q0-.26.06-.51a8.16,8.16,0,0,1,2,5,.06.06,0,0,0,.08.05c.75-.2,1.65-.93,1.46-1.74a6.24,6.24,0,0,0-3.36-4l.11-.31A6.72,6.72,0,0,1,100,44.68a.06.06,0,0,0,0,0h0c.88-.17,1.62-1,1.39-1.67-.57-1.64-3.41-3.15-5.66-3.7A4.61,4.61,0,0,1,97.44,37c1.37-.88,2.7.2,2.09,1.69a.28.28,0,0,0,.27.4,8.44,8.44,0,0,1,3,.61,1.68,1.68,0,0,0,.65,1.28h0a1.45,1.45,0,0,0-.95.53,2.19,2.19,0,0,0-.12,1.84L102,44.57a.16.16,0,0,0,.29.15l.76-1.07a2.19,2.19,0,0,0,1.43-1.15,1.45,1.45,0,0,0-.1-1.08,1.49,1.49,0,0,0,1.78-.55,1.29,1.29,0,0,0-.12-1.29c.62.11,1.13.12,1.34-.27a.73.73,0,0,0,0-.59l0,0,.48.25a11.31,11.31,0,0,0,2-.52.85.85,0,0,0,1-.42l.08-.15Zm-5.42,6.22a1.64,1.64,0,0,1,.21-.83.86.86,0,0,1,.37-.25Zm1.18-.32a1.66,1.66,0,0,1-.58.64l.59-1.11a1,1,0,0,1,0,.47m.92-3.73-.08-.07c-.26-.25-.87-.83-.8-1a.2.2,0,0,1,.14-.11,2.13,2.13,0,0,1,1.19.29Zm2,.47c-.07.14-.9,0-1.25-.11l-.1,0,.45-.86c.35.2.82.52.91.81a.2.2,0,0,1,0,.17" style="fill: #d2d2d2"/>
  </g>
  <g>
    <path d="M15.85,25.76a2.27,2.27,0,0,0-2.38,2,4,4,0,0,1-.09.52,3.28,3.28,0,0,1-1,2c-.29.27-.61.51-.92.79a10.74,10.74,0,0,0-.91.79,3.27,3.27,0,0,0-.9,3,5,5,0,0,0,1.25,2.24l.27.23c-.07-.23-.1-.37-.15-.52a3.85,3.85,0,0,1-.17-1.46,2.38,2.38,0,0,1,1-1.84,8.49,8.49,0,0,1,1-.56c.6-.31,1.21-.6,1.78-.94a4.29,4.29,0,0,0,1.48-1.4l.16-.11A10,10,0,0,0,16.57,33c.1.43.15.87.21,1.29a2.67,2.67,0,0,1-1.09,2.78l-.19.16-1.69,1.4-.17.06a2.73,2.73,0,0,1,.53-1.4c.2-.26.4-.52.58-.79A2.5,2.5,0,0,0,15,34a.18.18,0,0,0-.17-.18h0v.08a1.54,1.54,0,0,0,0,.2,2.38,2.38,0,0,1-.52,2.3c-.17.2-.35.39-.51.6A3.4,3.4,0,0,0,13,39.31c0,.27,0,.54-.06.79a8.18,8.18,0,0,0,0,1.06,5.11,5.11,0,0,0,.86,2.38,2.63,2.63,0,0,1,.45,2.14c-.1.39.08.56.48.56h1.23c.52,0,.67-.29.4-.73a9,9,0,0,0-1.67-2.13,3.17,3.17,0,0,1-1-1.59,5.09,5.09,0,0,1-.09-.6h.1l.18.16a3,3,0,0,0,2,.79,3.24,3.24,0,0,0,.59-.06c.54-.1,1.07-.25,1.59-.3h.52A3.53,3.53,0,0,1,21,42.7a2,2,0,0,1,.36,2.78l-.07.08c-.09.11-.18.21-.27.31a2.33,2.33,0,0,0-.14.27,2,2,0,0,0,.33-.15,2.29,2.29,0,0,0,.93-2.25,2.79,2.79,0,0,0-1.44-2.1,4.22,4.22,0,0,0-1.94-.6h-.41a7.69,7.69,0,0,0-1.71.22,4,4,0,0,1-.89.09,2.38,2.38,0,0,1-.61-.08A1.9,1.9,0,0,1,13.75,40a8.91,8.91,0,0,1,.58-.75,5.87,5.87,0,0,1,1.3-1,11,11,0,0,0,1.3-.92,3.29,3.29,0,0,0,1.2-2.68,16.4,16.4,0,0,0-.2-2,9.74,9.74,0,0,1-.13-2.58A2.51,2.51,0,0,1,20,27.73c.27-.06.54-.06.79-.1l.21-.06V27.5l-.1-.06a6.49,6.49,0,0,0-2.46-.53,5,5,0,0,0-1,.1,3.06,3.06,0,0,0-2.38,2c-.09.25-.18.48-.25.74a3.45,3.45,0,0,1-2.1,2.32,6,6,0,0,0-1.1.63,3.17,3.17,0,0,0-1.29,1.79,2,2,0,0,1-.1.41.94.94,0,0,1-.11-.4,2.77,2.77,0,0,1,.51-1.79,4.6,4.6,0,0,1,1.13-1.12c.36-.26.71-.52,1-.79a4.36,4.36,0,0,0,1.51-2.62,2.68,2.68,0,0,1,.14-.64,1.82,1.82,0,0,1,1.7-1.37h.27a4.67,4.67,0,0,1,1.2.16,2.3,2.3,0,0,1,.45.1.33.33,0,0,0-.17-.19,4.83,4.83,0,0,0-1.93-.49Z" style="fill: #d2d2d2"/>
    <path d="M18.46,15.37a.79.79,0,0,0-.66.69.72.72,0,0,0,.34.79l.5.36a.67.67,0,0,1-.42.54l-1.72.87a6.42,6.42,0,0,0-.59.3A.79.79,0,0,0,15.52,20l0,0c.08.21.21.41.3.63s.16.37.25.59l-.37.28a4.71,4.71,0,0,0-.7.63A1.41,1.41,0,0,0,15.15,24l.37-.14a2.86,2.86,0,0,1,1.12-.25,2.54,2.54,0,0,1,1.59.61c.28.22.53.48.79.72a2.26,2.26,0,0,0,1.38.66h.93c.5,0,.67.13.88.66a2.88,2.88,0,0,1,.13,2,11.36,11.36,0,0,1-.42,1.22A1.65,1.65,0,0,0,22,31c.11.17.2.36.29.54a1.23,1.23,0,0,1,.1,1.1,1,1,0,0,0-.07.32c0,.37.13.59.41.59h.21a5.34,5.34,0,0,1,1.46-.17,1,1,0,0,0,.79-.29.67.67,0,0,0-.48-.23c-.31-.06-.62-.1-.93-.18a.71.71,0,0,1-.59-.66c0-.37-.11-.73-.13-1.1a4.89,4.89,0,0,1,.68-3.17l.08-.14a1.11,1.11,0,0,0,0-1.13L23.45,26l-.36-.47,2.49-1.28A6.77,6.77,0,0,1,27.17,27,2.09,2.09,0,0,1,27,28.61c0,.06-.06.13-.11.25a.66.66,0,0,0,.46-.37,2.49,2.49,0,0,0,.31-1.9,6.14,6.14,0,0,0-1.78-3.09.24.24,0,0,1-.12,0,23.55,23.55,0,0,0-3,1.23h-.07l-.1-.13a1.06,1.06,0,0,0-.94-.52h-.48a.79.79,0,0,1-.75-.44H21a3.35,3.35,0,0,0,1.74-.51,1.59,1.59,0,0,0,.73-1.23,1.18,1.18,0,0,0-.13-.67c-.08.21-.12.33-.17.45a1.06,1.06,0,0,1-.87.65h-.44A8.73,8.73,0,0,1,19.92,22l.16-.1a2,2,0,0,0,1.51-1.2.9.9,0,0,1,.9-.55h.44L22.74,20a1.14,1.14,0,0,0-.58-.16,1.4,1.4,0,0,0-.67.19,2.44,2.44,0,0,1-1.17.32h0a3.52,3.52,0,0,1-1.59-.4,1.71,1.71,0,0,0-.79-.21,1.31,1.31,0,0,0-.94.42,1.81,1.81,0,0,1-.28.19c-.39-.35-.38-.79,0-1a3.31,3.31,0,0,1,.79-.31,10.94,10.94,0,0,1,2.72-.33h.09a9.94,9.94,0,0,1,1.34.13,5.8,5.8,0,0,1,.74.21c-.11-.14-.15-.24-.22-.28-.32-.18-.64-.36-1-.51a6.13,6.13,0,0,0-.74-.25.84.84,0,0,1-.55-.87v-.41c0-.42-.12-.6-.54-.68h-.94v-.67Z" style="fill: #d2d2d2"/>
    <path d="M39.22,28.2a2.16,2.16,0,0,0,.75.71,1.87,1.87,0,0,0,0,.9,3,3,0,0,1-.6.19,3.55,3.55,0,0,1-.7.07h-.26a2.24,2.24,0,0,0,.79-1.87m-1.93-6.12a.53.53,0,0,0,0,.29,8.88,8.88,0,0,1,.22,2.9,8.21,8.21,0,0,0,.06,2.9.71.71,0,0,1-.38.79l-.53.31c-.28.15-.56.29-.83.44s-.37.21-.4.45a1.08,1.08,0,0,0,.57.65,4.84,4.84,0,0,0,2.67.79,4.93,4.93,0,0,0,2.85-.9.74.74,0,0,1,.4-.15c.16,0,.29.1.45.29a1.9,1.9,0,0,1,.27.46l.79,2.08a1,1,0,0,1,0,.44A1.33,1.33,0,0,0,43.8,35a1.36,1.36,0,0,1,.28,1.31,1.16,1.16,0,0,1-.08.32.71.71,0,0,0,.17.79,11.58,11.58,0,0,0,.91.79,2.33,2.33,0,0,0,.52.22,2,2,0,0,0,.13-.44,2.42,2.42,0,0,0-.06-.65,15,15,0,0,0-.5-1.69,37.84,37.84,0,0,1-1.33-4c-.15-.56-.33-1.1-.52-1.64s-.38-.6-.88-.6h0a1.75,1.75,0,0,0-.45,0h-.37a.33.33,0,0,1,0-.47h0c.26-.26.51-.54.79-.79a.79.79,0,0,1,.49-.23.71.71,0,0,1,.52.33c.44.54.87,1.1,1.28,1.66a2,2,0,0,1,.34,1.68,2.38,2.38,0,0,1-.06.4.9.9,0,0,0,.37.9c.33.25.67.48,1,.71a1.47,1.47,0,0,0,.4.12,1.14,1.14,0,0,0,0-.89A27,27,0,0,0,44,26.73a2.81,2.81,0,0,0-.43-.55.65.65,0,0,0-1,0c-.25.24-.48.5-.71.75a5.13,5.13,0,0,1-.4.4.79.79,0,0,1-.47.21q-.3,0-.5-.44a5.85,5.85,0,0,1-.21-.67,9.94,9.94,0,0,0-.3-1,9.7,9.7,0,0,0-2.38-3.29,1,1,0,0,0-.23-.12Z" style="fill: #d2d2d2"/>
    <path d="M34.69,12.59a5.79,5.79,0,0,0-1,.08,6,6,0,0,0-5,4,8.26,8.26,0,0,0-.44,3,6.87,6.87,0,0,0,.37,2.21,2.77,2.77,0,0,0,.17.33c.1-.38,0-.73.33-.94h.14a.48.48,0,0,1,.41.27,1.46,1.46,0,0,1-.1,1.74A1,1,0,0,0,30,23a1.75,1.75,0,0,0,.32-1.4A2.78,2.78,0,0,1,31,22.75,2.25,2.25,0,0,1,30.68,25a4,4,0,0,1-1,.93l-.25.21a1.86,1.86,0,0,0,.47.06,3.07,3.07,0,0,0,2.81-2,3,3,0,0,0,.09-.56,3.9,3.9,0,0,0-.3-1.73c-.18-.47-.4-.94-.61-1.39a4.94,4.94,0,0,1,.43-5,3.79,3.79,0,0,1,3.24-1.77,3.9,3.9,0,0,1,2.08.6c.17.11.36.21.4.45s-.43.47-.4.85l.84.38c.29.13.38.52.73.6a4.42,4.42,0,0,1-.71-1.51c-.13-.54-.21-1.1-.32-1.63L37,13.06a6.54,6.54,0,0,0-2.38-.45Z" style="fill: #d2d2d2"/>
    <path d="M24.2,35.85l.6.2a4.22,4.22,0,0,0-.38.3,2.28,2.28,0,0,0-.13-.32l-.1-.18M23.53,34a1.77,1.77,0,0,0-.65.13,1.93,1.93,0,0,0-1.13,1.18c-.13.35-.24.7-.37,1a1.28,1.28,0,0,1-1.25.89h0A7.55,7.55,0,0,1,19,37.22H18.8a2.33,2.33,0,0,0-2.38,1.63,6,6,0,0,0-.19.91,1.59,1.59,0,0,0,0,.34c.17-.25.29-.43.41-.6a1.89,1.89,0,0,1,1.59-.89h.13a13.87,13.87,0,0,1,1.59.12h.31A2.09,2.09,0,0,0,22,37.87c.22-.28.43-.57.65-.85a2.85,2.85,0,0,1,.28-.26.32.32,0,0,1,0,.27c-.17.36-.33.71-.54,1.06a7.71,7.71,0,0,1-.53.68.39.39,0,0,0,.1.63l.35.21a9.66,9.66,0,0,1,.84.51,2.31,2.31,0,0,1,.57.58.46.46,0,0,1-.41.79h0a5.12,5.12,0,0,1-.94-.14c-.35-.06-.69-.15-1-.23h-.17a.27.27,0,0,0-.23.1l1.42,1.26h.13l1.67-.17,1.31-.14a.65.65,0,0,0,.57-.3c-.06-.23-.25-.34-.44-.45a4.76,4.76,0,0,1-1.34-1.32.79.79,0,0,1,0-1.09c.21-.28.45-.52.63-.79a3.71,3.71,0,0,1,1.59-1.29,18.79,18.79,0,0,1,3-1.13c.84-.24,1.7-.44,2.55-.66.13,0,.27,0,.32-.26h-.42c-1.17,0-2.33.07-3.51.07H28a10.62,10.62,0,0,1-2-.23,15.33,15.33,0,0,1-1.88-.58,1.67,1.67,0,0,0-.55-.1Z" style="fill: #d2d2d2"/>
    <path d="M16,8.15l-.31.24c.1.14.17.27.26.39l5.44,7.53,12.57,17.4a6.72,6.72,0,0,1,.9,1.71,1.09,1.09,0,0,1,0,.79.79.79,0,0,0,.33,1,2.17,2.17,0,0,0,.56.25,3.68,3.68,0,0,1,1.65.94,1,1,0,0,0,.57.35l.07-.07Z" style="fill: #d2d2d2"/>
    <path d="M30.44,36.27a1.77,1.77,0,0,0-.93.25c.18.34.52.59.41,1a2.38,2.38,0,0,0-.44.79,3,3,0,0,0,.07.87.57.57,0,0,1-.41.17h-.22a12.44,12.44,0,0,1-1.37-.42,3.75,3.75,0,0,0-1.4-.29h-.29c-.17,0-.33,0-.4.21A2.61,2.61,0,0,0,27.06,40c.17-.21-.08-.4,0-.64l.56.15c.79.21,1.64.43,2.47.6h.21c.33,0,.49-.21.51-.62V38.9c0-.38.13-.56.36-.56a.88.88,0,0,1,.38.11c.2.1.38.21.57.32a2.15,2.15,0,0,0,1,.28,2,2,0,0,0,.52-.07l.79-.22h.23a.5.5,0,0,1,.48.35,5.16,5.16,0,0,1,.25.79c0,.17.07.34.1.52h.09a.41.41,0,0,0,.06-.13c0-.56.08-1.12.09-1.67a1.52,1.52,0,0,0-.13-.56.74.74,0,0,0-.73-.52h-1.1a2.44,2.44,0,0,1-1.76-.7,2,2,0,0,0-1-.53,2.79,2.79,0,0,0-.55-.06Z" style="fill: #d2d2d2"/>
    <path d="M38.71,36.9a1,1,0,0,0-.46.15c.47,1,.92,2.07,1.38,3.09a.49.49,0,0,0,.48.3h0a.66.66,0,0,1,.67.58,2.17,2.17,0,0,1,.09.44c0,.72.08,1.45.06,2.17a4.85,4.85,0,0,1-1.59,3.53l-.15.17h0a.7.7,0,0,0,.4-.13A5.21,5.21,0,0,0,41,45.74a3.36,3.36,0,0,0,.44-2.23l.48-.1-.25-.79.48-.18c-.37-1.06-.71-2.09-1.09-3.12a.75.75,0,0,0-.79-.48h0a.83.83,0,0,1-1-.68,6.52,6.52,0,0,1-.18-.79c-.06-.29-.22-.49-.44-.49Z" style="fill: #d2d2d2"/>
    <path d="M22.3,13.17a2.75,2.75,0,0,0-1,.2.59.59,0,0,0-.42.35,5.63,5.63,0,0,1,2.16.79c.33.18.63.4,1,.56a9.8,9.8,0,0,0,1.43.6,3,3,0,0,0,.87.13,2.68,2.68,0,0,0,1.59-.52,4.61,4.61,0,0,0,.37-.33L28,14.9h-.37A5.3,5.3,0,0,1,25,14.16c-.26-.15-.52-.3-.79-.43a9.16,9.16,0,0,0-1.06-.44A2.83,2.83,0,0,0,22.3,13.17Z" style="fill: #d2d2d2"/>
    <path d="M37.09,38.85a.6.6,0,0,0-.34.78h0a1.54,1.54,0,0,0,.29.49,9,9,0,0,1,1.52,3.17,1.13,1.13,0,0,1-.67,1.46h0a4.32,4.32,0,0,1-.71.18,4.71,4.71,0,0,0-.61.09,1,1,0,0,0,.59.41,1.64,1.64,0,0,0,.47.06,2.17,2.17,0,0,0,1.67-.85,1.59,1.59,0,0,0,.17-1.85c-.22-.44-.44-.88-.65-1.33a1.87,1.87,0,0,1-.22-.94.68.68,0,0,0-.42-.69,2,2,0,0,1-.79-.67,4.06,4.06,0,0,0-.29-.31Z" style="fill: #d2d2d2"/>
    <path d="M28,6.67a1,1,0,0,0-.34.07l-.34.14c-.48.2-1,.41-1.44.6a4.63,4.63,0,0,1-1.75.33H23l-.1.33L24,8.86l-.19.32a3,3,0,0,0,.67.1.79.79,0,0,0,.79-.47,3.7,3.7,0,0,1-1.43-.56l3.3-.49V9c0,.45.16.65.54.65h.13a3.08,3.08,0,0,0,.42-.11,3.4,3.4,0,0,0,.17-.59c.06-.55.1-1.09.12-1.63s-.18-.63-.5-.63Z" style="fill: #d2d2d2"/>
    <path d="M35.14,16a1.41,1.41,0,0,0-.15.24,2.17,2.17,0,0,0,.48,2.38c.38.37.72.79,1.09,1.17h.07c.08-.39-.35-.69-.19-1.13a.83.83,0,0,1,.52-.18,1.33,1.33,0,0,1,.51.11,4.76,4.76,0,0,1,.79.48c.26.17.49.39.79.56a1,1,0,0,0,.56.18,1,1,0,0,0,1-.79l-.21.06a1.47,1.47,0,0,1-1.6-.27l-.61-.47a2,2,0,0,0-1.26-.47h-.44a1.24,1.24,0,0,1-1.29-1.18s0-.05,0-.08V16Z" style="fill: #d2d2d2"/>
    <path d="M10.11,28.91a.64.64,0,0,1,0,.31,1.59,1.59,0,0,1-.84,1.32,1.82,1.82,0,0,0-.48.37A1,1,0,0,0,8.53,32a.57.57,0,0,0,.44.4v-.24a.79.79,0,0,1,.56-.93l.38-.14a1.06,1.06,0,0,0,.63-.61c0-.06.06-.13.12-.23l.15.44a1.21,1.21,0,0,0-.67-1.8Z" style="fill: #d2d2d2"/>
    <path d="M26.11,10.07H25.8l-.1.58c-.09.5-.16,1-.26,1.49s-.29.68-.69.68h-.27l-2-.26h-.15v.28a9.94,9.94,0,0,1,3.44.94l.27-.15a16.43,16.43,0,0,1-.17-1.79A16,16,0,0,1,26.11,10.07Z" style="fill: #d2d2d2"/>
    <path d="M27.89,16.06c-.11.4-.2.79-.33,1.13a1.45,1.45,0,0,1-1.25,1c-.35,0-.71,0-1.06.06h-.33a1.51,1.51,0,0,0,.29.21c.33.1.65.21,1,.29a1.44,1.44,0,0,0,.32,0,1.41,1.41,0,0,0,1-.39A2,2,0,0,0,28,16.22.7.7,0,0,0,27.9,16Z" style="fill: #d2d2d2"/>
    <path d="M27.63,10.26a1.29,1.29,0,0,0-.93.33.9.9,0,0,0-.12.17,2.93,2.93,0,0,0,.48,2.67.71.71,0,0,0,.48.2.79.79,0,0,0,.52-.22l-.2-.08a1.59,1.59,0,0,1-1.06-1.59,1.07,1.07,0,0,1,.93-1.17c.2,0,.4-.06.61-.1a1.31,1.31,0,0,0-.71-.18Z" style="fill: #d2d2d2"/>
    <path d="M19,43.47a.65.65,0,0,0-.51.77v0a1.16,1.16,0,0,0,1.1.93h0A.74.74,0,0,0,20.25,44a3.67,3.67,0,0,1-.52.37.73.73,0,0,1-.31.08c-.29,0-.48-.23-.46-.6a1.17,1.17,0,0,1,0-.37Z" style="fill: #d2d2d2"/>
  </g>
  <path d="M150.33,21.31c-.46-2,1.52-3.72,4.07-3.72,2.29,0,4.6.52,5.47,3.71h2.94v4.89C159.15,23.17,151.2,25.07,150.33,21.31ZM180.87,20h-6.63l-6.31,6.9V13.06h-5.08v3.38c-.17-.22-.35-.43-.54-.64-1.9-2-4.58-3-8-3a9,9,0,0,0-7.41,3.27,8,8,0,0,0-1.69,6.43c1.2,5.31,6.13,6.16,9.76,6.63,2.86.37,5.6.89,5.53,3.44s-3.06,3.3-5,3.3c-5.08,0-5.27-3.77-5.27-3.77h-5.48A9.23,9.23,0,0,0,147,37.75c1.9,2.12,4.76,3.22,8.51,3.22a11,11,0,0,0,7.35-2.59v2.28h5.08V34.13l1.81-2,5.17,8.46h5.92L173.35,28.2Z" style="fill: #d2d2d2"/>
</svg>
