<svg xmlns="http://www.w3.org/2000/svg" width="188.65" height="53.72" viewBox="0 0 188.65 53.72">
  <title>лого партнеров для сайта</title>
  <g>
    <path d="M41.6,38.27c.82,0,3.11-1.14,4-1.14,0,.34-1.21.87-1.52,1a6.51,6.51,0,0,1-2.61.42c-.41,0-1.22-.13-1.22-.49s1.45-1.51,1.81-1.51-.31.79-.35.87-.6.84-.07.84ZM40,34.06c-.48,0-.48-1.25-.08-1.25.22,0,.43.35.47.58S40.25,34.06,40,34.06Zm12.38-1c.38.25,1.43,2.68.51,2.68-.09-1.08-.32.34-1.93.34-.28,0-.57,0-.57-.28,0-.4.54-.09.54-.57,0-.22-.4,0-.47,0a1.21,1.21,0,0,1-.86.19c-.48,0-.89-.56-.32-.73.16,0,.31,0,.46-.07-.07-.24-1-.34-1-.62s2-2.36,2.37-1.16c.09.29,0,.62.27.62.11,0,0-.06.17-.06s.14.3.19.43.34.28.52.28C52.79,34.17,52.28,33.3,52.39,33.09Zm-5.52-.43v.08c.87,0,.9.13.9.77,0,1.44-2.09,2.8-3.28,3.18a3.49,3.49,0,0,1-1.81.18,9.28,9.28,0,0,1,1.79-1.16,8.83,8.83,0,0,0,1.78-1.18c-.47,0-1.68.94-2.57.94,0-.52,2.95-1.57,2.95-2,0-.22-.72-.19-.77-.4.95,0,.81-.52-.31-.13a2.25,2.25,0,0,1-.88.19c0-.37.83-2.38.93-2.82a6.49,6.49,0,0,1,1.75,2c0,.12-.37.28-.48.31Zm-4.93.57c-.1,0-.08-.06-.08-.17,0-.55,1-2.28,1.59-2.42a4.13,4.13,0,0,1-.52,1.5C42.78,32.4,42.25,33.23,41.93,33.23Zm2.33-3.45c.05.25.05.62.09.91s.34,1.26,0,1.26-.7-1.77-.11-2.17Zm-6.26.6c.44,0,1.27,1.11,1.27,2a1.18,1.18,0,0,1-.32.84,1.75,1.75,0,0,1-.78.38c-.16,0-.2-.21-.18-.32.11-.46.69.21.69-1.18C38.68,31.33,38,30.89,38,30.38Zm2.46,1.48A4,4,0,0,1,41,30.32c.06-.11,1-1.67,1-1a2.23,2.23,0,0,1-.41,1,7.58,7.58,0,0,0-.75,2.1C40.63,33,40.46,32.26,40.46,31.86ZM40.12,29c0,1.07-.9-.24-.9.05a6.66,6.66,0,0,1,.62,2.11c0,.12,0,.4-.14.4a3.61,3.61,0,0,1-1.15-2.52c.15-1.16.44-1,.6-2.17a1.82,1.82,0,0,1,.19-.75,6.14,6.14,0,0,1,2.21,2.28c0,.23,0,.57-.32.61a.8.8,0,0,1-.54-.24c-.19-.18-.63-.79-.72-.85C40,28.28,40.12,28.62,40.12,29Zm5.2-2.19a.47.47,0,0,1,.07-.26,1.23,1.23,0,0,1,.07,1.75,3.44,3.44,0,0,1-.58.67c0-.3-.06-1.33.17-1.33s.16.08.25.08.06-.61,0-.91Zm-7.75,3.72a1.27,1.27,0,0,0,.25.91,1.22,1.22,0,0,1,0,1c-.29,0-.54-.55-.6-.82a8.11,8.11,0,0,1,.22-3.78,6.13,6.13,0,0,0,.53-1.6c0-.86.54-.59.54.4s-.38.88-.63,1.78a8.06,8.06,0,0,0-.31,2.14Zm3.2-4.29a2.1,2.1,0,0,1,.52.1c.46.07,0-.76,1.07.18a14.56,14.56,0,0,1,1.57,1.4c.1.15.1.34-.1.34-.37,0-.52-.35-.77-.37a3.3,3.3,0,0,0,.28.83c.07.16.49,1.15,0,1.15-.11,0-.12-.12-.15-.22-.2-.77-2.41-2.89-2.43-3.42Zm-4.42,2.41L36.51,30a1.06,1.06,0,0,1-.89,1.14c-.2,0-.4,0-.4-.25,0-.47.55.1.51-.82,0-.35-.07-.41-.06-.82a7.16,7.16,0,0,1,.6-2.42c.16-.41.79-1.74,1.27-1.74s.28.34.28.57a3.6,3.6,0,0,1-.64,1.63c-.28.41-.83.81-.83,1.44ZM42,24.49c0-.52,0-1.27.46-1.51.47.25-.13.6.74,1.56.21.22.4.35.61.55s.49.39.49.67a3.56,3.56,0,0,1-1.45-.22c.05.19,1.33,1,1.36,1.36a3,3,0,0,1-1.52-.77A2.63,2.63,0,0,1,42,24.49Zm-2.43-.71c.4,0,1.55.07,1.55.4a1.07,1.07,0,0,1-.61.8c-.19.06-.41,0-.52.19s0,.4-.31.4-.25-.13-.29-.33-.23-.06-.4-.08a1.52,1.52,0,0,1-.76-.54c-.29-.36-.31-.54.19-.68A4.53,4.53,0,0,1,39.53,23.78Zm-4.84,4.35c0,.76.4.55.4,1,0,.24-.94.33-.94-.4a8.59,8.59,0,0,1,.95-3c.1-.22.2-.43.29-.64a5.83,5.83,0,0,1,.71-1.2c.34-.34.8-.24,1.23-.19,0,.31-.4.4-.66,1.1A2.62,2.62,0,0,1,36.12,26C35.74,26.54,34.69,27.6,34.69,28.14Zm9.17-6.32a4.83,4.83,0,0,1,1.49,1.84.9.9,0,0,1-.13.87c-.39.37-.35-.49-1.05-1-.35-.25-1.1-.56-1.1-1.14.37,0,.93.59.93.23S43.86,22.19,43.86,21.82Zm.83-1.11a5.32,5.32,0,0,1,.4-1.54c0,.46,0,2.48.65,2.48.21,0,.2-.1.4-.12,0,0,.11.13.11.17a2,2,0,0,1-.26.82c-.19.25-.49-.18-.59-.33A3.6,3.6,0,0,1,44.69,20.71Zm-9-.31c0,.46.46.61.71.8.48.37,0,.63-.51.62a1.93,1.93,0,0,0-1.18.33,1.89,1.89,0,0,0-.6,1c0,.42.88-.82,1.44-.82.34,0,1,.32,1.05.57-.79.42-1.09.53-1.43,1.45-.19.5-.45,2-1,2-.33,0-.35-.63-.57-.69-.1.44.3,2.77.08,2.77-.75,0-1-2.4-.4-3.45.17-.3.77-.73.77-1.08s-.6.3-.64.35a6.25,6.25,0,0,0-.94,1.5,2.47,2.47,0,0,0-.12,1.11,3.22,3.22,0,0,1-.4-1.57,6.53,6.53,0,0,1,.51-2,4.39,4.39,0,0,1,.4-.87c.28-.4.5.13.81.16.12-.18.08-.22.09-.49a2.9,2.9,0,0,1,1.87-2.11A1.87,1.87,0,0,1,35.7,20.39Zm6.69-2.87c.14-.27.4-.22.71-.22a1.62,1.62,0,0,1,.75.21c.4.25.5,1.15.45,1.51s-.06.73-.32.73,0-.34,0-.51a1.71,1.71,0,0,0-.51-1.14.82.82,0,0,0-.54-.28C42.6,17.79,42.49,17.76,42.39,17.52Zm-10,3.24c-.42,0,.07-1.79.15-2,.13-.38.57-1.45,1-1.45,0,.11,0,.07,0,.14A6.57,6.57,0,0,1,33,19.15a6.21,6.21,0,0,0-.27.87,1.46,1.46,0,0,1-.1.46c0,.07-.18.29-.28.29Zm-.59.57,0,1.25c.14-.15.14-.31.43-.31.11.49-.81,1.9-1.08,2.21-.07.07-.36.4-.25.51s.34-.08.41.46-.5,1-.5,1.15.54,0,.54.31c0,.7-1.85,1.83-2.43,2.11a8.85,8.85,0,0,1-4.51.87c-1,0-1.93-.12-2.89-.11-2.44,0-3,1.51-4.12,3-.22.29-.41.53-.64.8a2.3,2.3,0,0,1-2,1.06c-.29,0-.74-.14-.74-.4a16.19,16.19,0,0,1,2.13-2.69c.59-.59,1.92-2.21,1.92-2.94v-.28a2.77,2.77,0,0,0-.79-1.46c-1.22-1.41-3.92-.76-5.43-.46a9.49,9.49,0,0,0-1.75.48c-.28.14-.52.46.07.22a8.37,8.37,0,0,1,1.9-.34l1-.16a11.44,11.44,0,0,1,1.9-.34,2.31,2.31,0,0,1,2.55,2.39c0,.9-.76,1.57-1.32,2.14l-1.76,1.73a9.63,9.63,0,0,0-1.2,1.39.63.63,0,0,0-.07.67c.34,1.19,2.09.52,2.68.81a3.63,3.63,0,0,1-2.22.92c-.52-.19-1.55-1-1.55-1.69,0-.37.16-1.14.11-1.25-.35.1-.71,1-.73,1.4,0,.18,0,.56-.09.65s-.42-.62-.45-.83c-.21-1.36,2-3,2.9-3.73a5.72,5.72,0,0,1,1.66-1c0,.23-.4.51-.4.82,0,.58,1.61-1.7,1.61-2.28v-.17a1.17,1.17,0,0,0-1.07-1,2.82,2.82,0,0,0-.57,0c0,.14.57.4.74.62s.11.29-.09.29a5.49,5.49,0,0,0-2.21-.37,7.32,7.32,0,0,0-1,.07,1.25,1.25,0,0,0-.42.12c-.15.1,0,.15-.31.25a7.4,7.4,0,0,1-2.25.29c-.28,0-.69-.07-.74-.28s.4-.24.4-.43-.34-.23-.34-.43.08-.31-.07-.45-.5-.3-.5-.12.08.19.08.37-.28.19-.28.54.51.83.73,1a2.32,2.32,0,0,0,1.22.56h.31c1,0,2.37-1.25,3.57-1.25.46,0,1.24,0,1.38.49.2.64-.87,1.4-1.29,1.7-1.22.85-3.51,2.5-3.51,4.2,0,1.33,1.86,2.68,3.23,2.68.5,0,1.64-.16,1.64.37s-.87,1.07-1.14,1.61a7.63,7.63,0,0,0-.34,2.43,19.14,19.14,0,0,1-.23,2.52c-.06.39-.13.82-.22,1.18a4.23,4.23,0,0,0-.26,1.42,1.67,1.67,0,0,0,.52,1.1,3.22,3.22,0,0,0,1.41.21h4.67v-.91c0-.64,0-1.24-.42-1.46a4.41,4.41,0,0,0-1.48-.33c0,.31.48.52.74.59s.91-.08.79,1.43c-.26-.07-.34-.66-.58,0,0,.11-.14.28-.16.35-.49,0-.67-.64-1.07-.68-.18.33.33,1.07-2,.64a1.66,1.66,0,0,1-.92-.41,2.58,2.58,0,0,1-.85-1.87,3.25,3.25,0,0,1,.28-1,15.76,15.76,0,0,0,.2-3.57,2.55,2.55,0,0,1,.62-1.89c1.45-1.66.66-1.62,1.49-2.29.51-.41.25.08.16.45a3.86,3.86,0,0,1-1.32,2.46,2,2,0,0,0-.54.7,2.69,2.69,0,0,0,.06,1.09,8.25,8.25,0,0,0,.22,1c.1-.45.22-.93.35-1.38s.21-.83.6-1.13a3.82,3.82,0,0,1,.52-.33,6.17,6.17,0,0,0,.49-.38,2.09,2.09,0,0,0,.72-1.1c0-.34-.65.22-.65-.08s1.21-1.49,1.51-1.9c.43-.57-.06-.24-.46-.24,0-.32.62-.69.92-.87s.76-.37,1.13-.59c.08-.05.6-.3.31-.33-.54-.06-1.76.37-2.28.25.09-.33,1.53-.7,1.7-.94-.42,0-.9.17-1.42.17.16-.23.63-.42.66-.68l-.23-.06c0-.07,0-.05,0-.11a2.85,2.85,0,0,1,1.32-1.69,7.45,7.45,0,0,1,2.61-.48c.57,0,.94.17,1.48.17a16.07,16.07,0,0,0,5.57-1.18c.4-.17,1.1-.7,1.57-.7s.46.43.88.43-.07-.47-.08-.6c.65.15,2.07,2.36,3.14,2.76.31.11.72,0,.91.28s0,.46.49.7c.25.12.66.22.66.55,0,.18-.3.16-.46.2,0,.34.43.64.69.73s.77.06,1.19.22A2.59,2.59,0,0,1,40,35.7c0,.29-1-.16-1,.51a10.53,10.53,0,0,0,.11,1.2,13.64,13.64,0,0,1-.65,3.36A20.9,20.9,0,0,0,38.1,43a8.5,8.5,0,0,1-.34,1.65c-.21.6-.76.71,1.83.7a.8.8,0,0,1,.76.37c.19.25.57,1.08.06,1.3-.27.12-.29,0-.54,0-.45,0-.1.74-.46.74s-.68-1-1.13-1-.31.65-.31.94.43.44.8.4c.19,0,.4,0,.6,0,.47-.07,1.22,0,1.5-.4a2.13,2.13,0,0,0,.33-1.15c0-.49-.85-1.54-1.25-1.54s-1.34-.22-1.34-.91.78-4.59,1.22-4.81A17.28,17.28,0,0,0,44,38.58c1.13-.43,2.12-1.09,3.22-1.54a3.66,3.66,0,0,1,2-.31c1.75.13,2.16.22,3.25,1.52.21.25.95,1.09,1.32,1.09.19,0,.22-.16.22-.31,0-.32-.51-.92-.68-1.13s-.63-.7-.82-1a6.49,6.49,0,0,0,.63-.64,1.49,1.49,0,0,0,.5-.86,9.56,9.56,0,0,0-.73-2.4,1.51,1.51,0,0,0-.78-.78,3.67,3.67,0,0,0-2.57,0c-.21.16,0,.55-.16.55-.48,0-2.94-3-2.94-3.53,0,0,.16-.07.16-.28A4.86,4.86,0,0,1,46.27,27c0-1,.34-.85.34-1,0-.56-.43-1-.43-1.68,0-.88.43-1.62.43-2.79a5.8,5.8,0,0,0-1.43-3.83c-.28-.31-.77-.64-.86-1.1-.05-.24,0-.33-.2-.45a.91.91,0,0,0-1,.13c-.21.14-.5.56-.75.58,0-.46.72-1,.79-1.23a2.06,2.06,0,0,0-.86.48,1.46,1.46,0,0,0-.44,1.12c0,.42.45.53.45,1s-1.15.58-1.56.77a.69.69,0,0,0-.35.78c0,.32.12.76.44.76.14,0,.1-.26.36-.41s.39-.12.57-.22c.38-.23.12-.27.19-.52s.93-.64.93.31a1.7,1.7,0,0,1-.56,1.06c-.36.28-.75.59-.72,1.13a3.56,3.56,0,0,1,.09.68.71.71,0,0,1-.71.77c-.54,0-1.1-.28-1.1-.77s.68-.4.68-.79-2.24-.34-2.24.14c0,.22.9.26.9.68s-.62.74-1,.74c-1.37,0-.46-1.12-.72-1.9-.19-.58-1.13-1-1.13-1.63s.91-.66.91-.43-.09.16-.09.25c0,.29.38.32.6.42.49.2.34.49.53.49.52,0,.54-1.48.25-1.48a2,2,0,0,1-.37.06c-.48,0-1.56-.55-1.56-.91,0-.11.05-.31,0-.4A3.27,3.27,0,0,0,35,18c-.28.11-1.2.54-1.2.81,0,.08.08.11.16.11.54,0,.48-.57,1.25-.57.3,0,.77.12.77.4,0,.49-.4.38-.74.59a6.13,6.13,0,0,0-.75.52c-.25.21-1.18,1.07-1.46,1.07,0-.51.63-1.12.63-1.79s-.11-.55.12-1a3.4,3.4,0,0,1,.52-.64,2.8,2.8,0,0,1,1.46-.85,2.52,2.52,0,0,1,1.48.56c.12.08.42.34.42.06,0-.93-1.12-1-1.84-1.51-.24-.18-.34-.51-.72-.51s.28.7.34.82a6.6,6.6,0,0,1-.76-.21,6.9,6.9,0,0,0-.86-.1c.06-.21.45-.22.46-.51-.3,0-.43.25-.6.45s-.3.4-.46.62a7.61,7.61,0,0,0-1.4,2.87,15.27,15.27,0,0,0-.1,2.06Z" style="fill: #fff"/>
    <path d="M18.65,41.65c0-.13.1-.16.19-.23.84-.61,3.36-2.38,4.06-2.38.07,0,.17,0,.17.06C23.07,39.7,20.09,41.65,18.65,41.65ZM37.06,48h-.95c-.85,0-1.42-.26-1.43-1.54,0-.8,0-1.33.05-2.08a19.58,19.58,0,0,0-.14-3l-.34-1.92-4.11-.19c-1.74,0-1.46.09-2.19.88a3.26,3.26,0,0,0-.26.3c-.22.27-.69.61-.69,1a6.12,6.12,0,0,0,.86,1.87c.86,1.17,1.75,1.07,2.78,1.28.81.16,2.28.75,2.28,1.77,0,1.43-.19,1.6-1.58,1.6H28.81a15.18,15.18,0,0,1-1.59-.1c-.71-.09-.78-.15-1-.72A9.92,9.92,0,0,0,25.63,46a5.13,5.13,0,0,0-1.78-1.71,10.24,10.24,0,0,1-1.14-.58c-.71-.52-.34-1.43-.59-2.06s-.81-.34-1.29-.1a8.88,8.88,0,0,1-1.6.58c-1.49.37-1.29.49-1.78,1.48-.08.16-.66,1.45-.66,1.53s.47.11.61.19.2.43,0,.43a2.46,2.46,0,0,0-1.16,0c-.39.1-.69.31-1.08.22-.08-.35.14-.52.36-.94a12.94,12.94,0,0,0,.66-1.73c.44-1.44.43-1.68,1.53-2.65l1-.76c.45-.34.9-.68,1.34-1A5.88,5.88,0,0,1,21.55,38c.28-.13.57-.21.86-.32.53-.22,2-1,2-1.54S24.1,36,24,35.93c-.33-.13-.35-2-.26-2.14s.46.25.71.43c1.63,1.19,5.38,1.65,7.53,1a5.19,5.19,0,0,0,.74-.28s.78-.39.43-.39c-1,0-2.14.52-2.78.37,0-.16.22-.22.35-.27.44-.19.87-.3,1.31-.51s1.22-.52,1.46-1a22.7,22.7,0,0,1-2.49.62.17.17,0,0,1-.14-.08c0-.14.2-.13.37-.14a4,4,0,0,0,1.49-.93c.17-.13.35-.32.52-.43l2.69,2c-.53,0-1.51-.38-2-.25-.05.25.3.73.46.9a3.79,3.79,0,0,0,1.73,1.06l1.1.28-1.34,1.27c-.31.24-1.09,1-1.09,1.5a5,5,0,0,0,.1.8c.05.47.07,1.22.1,1.49s0,.52,0,.77c.08.6-.05,2.69.28,2.91.38-.28.46-4,.65-4.86.1.14.08,1,.37,1s.22-.34.22-.59l0-1.06c0-.17,0-.36.11-.4,0,.13.09.35.12.54A11.37,11.37,0,0,1,37,41.34a10.34,10.34,0,0,1-.31,2.34c-.1.77,0,1.39-.46,1.84a1.32,1.32,0,0,0-.41.76c-.21,1.21.63.78,1.21,1,.2.09.54.31.57.57a.67.67,0,0,1-.51.14ZM26.69,41.85a3.2,3.2,0,0,0,1.08,2.1c.37.37,1.38,1.34,1.95,1.34.24,0,.41-.37.57-.28s.1.13.19.24c.35.39.88-.36,1.52.63A1.69,1.69,0,0,1,32.42,47c0,.15-.18.17-.28.17-.33,0-.1-.82-.51-.82s-.14,1.08-.49,1.08-1.14-1-1.45-1.17a6,6,0,0,1,0,.82c-.06.42.08,1.18-1.25-.11-.22-.2-.83-.67-.83-1,0-.46,1.32-.55.08-1.06-.84-.34-.61-.64-1-.76a3.76,3.76,0,0,0-.79-.09c.05-.22.4-.25.46-.46a3.18,3.18,0,0,0-.74-.08c0-.22.37-.23.43-.46-.23-.12-.75,0-1-.11.06-.23.7-.51.76-.74l-.79-.07c.05-.22.7-.48.76-.75a7.06,7.06,0,0,0-1.16-.08L26,40.52l-1.59.28L26,39.44c-.2,0-1,.38-1.45.48.07-.29.71-.73.73-1l-.59.15c0-.21.23-.37.34-.49a4.88,4.88,0,0,1,1.38-1.09,2.15,2.15,0,0,1,.47,1.06c.06.22.24,1.17.3,1.27l.07-2.25a11.49,11.49,0,0,0,2.25.64,9.14,9.14,0,0,0,1.34.1c1.72,0,1.33.49.59.49-.57,0-.73,0-1.27-.06-.36,0-1.43-.21-1.71,0s-.22.38-.34.62a4.84,4.84,0,0,1-.37.61c-.37.54-1,1-1,1.88Zm5.5-4.13a12.52,12.52,0,0,1,2.69-1,3.64,3.64,0,0,1-1.89.88A6.13,6.13,0,0,1,32.19,37.72Zm-1-.54-.51-.08c.89-.21,1.87-.54,2.76-.81a3.54,3.54,0,0,1,1-.22,3.47,3.47,0,0,1-1.41.77A7,7,0,0,1,31.17,37.18Zm-1.31-.57c-.46,0-2.44-.33-2.52-.62,1.08-.25,2,.49,4.63-.28l1-.29a6.82,6.82,0,0,1,1-.31c-.11.48-1.28.93-1.71,1.07A9.16,9.16,0,0,1,29.87,36.61Z" style="fill: #fff"/>
    <path d="M27.6,21.53c0-.23.68,0,.68.52C28.28,22.35,27.6,21.8,27.6,21.53Zm-2-16.87h.27a1.17,1.17,0,0,1,.78.42c.13.18.28.64.56.64.11,0,0,0,.17-.06a1.37,1.37,0,0,1,0,.51c0,.66,2.62,3.77,3.12,4.35.75.86,1.82,2.17,2.53,3.07.18.22.71.82.63,1.15a.36.36,0,0,1-.14,0c-.54,0-3.63-3.76-4.34-4.6l-.83-.93c-.16-.15-.27-.29-.43-.45a12.13,12.13,0,0,0-.9-.87c-.18-.13-.46,0-.65.1a31.74,31.74,0,0,0-3.54,1.75,21.06,21.06,0,0,0-2.18,1.36c-.49.39-1.59,1.18-1.73,1.8s.39.85.39,1.3c0,1.22-6.33,3.8-6.49,4.41.31.07.94-.28.94-.05s-.39.4-.31.56.19,0,.34.12.09.14.13.32a4.32,4.32,0,0,0,.72,1l2,2.39c.28.33.53.66.81,1l.81.94a18.73,18.73,0,0,1,1.24,1.43c.24.35.1.52.36.52a2.18,2.18,0,0,0,.75-.1c1-.25-.22.35-.41.7a27.82,27.82,0,0,0,4.13-2l1-.56a15.65,15.65,0,0,0,1.81-1.23c.16-.15.64-.62.66-.85-.21,0-.3.11-.54.11s0-.32,0-.43a1.49,1.49,0,0,0-.42-.75c-.79-.68-.51-.82,0-1.48.08-.1.54-.62.6-.67a13.59,13.59,0,0,0-.82,1.59c.31,0,.88-.64,1.1-.82s.57-.51,1-.85S29.59,19,30,18.8a3,3,0,0,1,1.34-.56c0,.24-.56.55-.75.67s-.63.34-.94.54-1.54,1-1.54,1.4.74.71.74,1.42-1.08,1.68-1.55,2c-.7.49-1.42.94-2.16,1.39s-4.09,2.41-4.65,2.41c-.19,0-7.9-9.35-7.9-9.7s2.83-1.73,3.27-2,1.12-.61,1.66-.94c1.63-1,1.22-1.4,1.16-2.46-.09-1.51,4.75-3.95,5.84-4.52a11.35,11.35,0,0,0,2.12-1.28c-.15-.21-.39.05-.61,0s-.16-.34-.26-.53-.18-.23-.44-.37-.42-.61-.22-.61.46.4.74.4a.37.37,0,0,0,.37-.31c0-.25-1.13-.27-1.13-.74,0-.2.25-.36.57-.4Z" style="fill: #fff"/>
    <path d="M20.49,21.53c.15-.07.81-.62,1-.77.44-.33.68-.55,1.22-.19a9.92,9.92,0,0,1,1,.82c1.22,1.18.64,1.3-.45,1.76a5.93,5.93,0,0,0-1.13.68,9.49,9.49,0,0,0-1,.82c-.22.24-.73.75-.51,1.19.35.08.95-.28,1.26-.44s.8-.37,1.21-.58c1.25-.63,1.45-.09,1.68-1.87l.16-1.61c0-.74.09-.94-.28-1.46a2.91,2.91,0,0,0-1.5-1.17,5.35,5.35,0,0,0-.84,0c-.75,0,.19-1.29-1.08-2.47a1.91,1.91,0,0,0-2.54.19,6.11,6.11,0,0,0-1.16,2.39,2,2,0,0,0-.1,1.45c.1.21.64,1,.47,1.26s-.47.13-.33.7a1.15,1.15,0,0,0,.47.64c.34.16.5-.19.73-.27s.57.24.71.39a2.65,2.65,0,0,1,.81,1.41c0,.51.34.09.53-.06a2,2,0,0,0,.49-.64c.19-.39.1-.51-.07-.82A17.14,17.14,0,0,0,19.84,21c-.35-.45-1.88-2.18-2-2.41a3.72,3.72,0,0,1,1.4-.93,1.74,1.74,0,0,1,1.6.67A1.84,1.84,0,0,1,21.33,20a6.61,6.61,0,0,1-.84,1.51Z" style="fill: #fff"/>
    <path d="M23.66,13.66v.28c0,1.62,1.66,4.38,3.68,4.38S29.7,18,30.77,16.8a1.8,1.8,0,0,0,.54-1.67c0-.34-.16-1.68-.51-1.76-.37.25.07,1.14-.66,2.11-.26.35-1.1,1.15-1.66,1.15a5.19,5.19,0,0,1-1.94-.35,2.64,2.64,0,0,1-1.22-.82,4.83,4.83,0,0,1-1.08-2,8.74,8.74,0,0,0-.11-.91C23.9,12.66,23.66,13.32,23.66,13.66Z" style="fill: #fff"/>
    <path d="M26,9.22c0,.18.41.45-1.07.89a12.54,12.54,0,0,0-2.62,1c-1.1.75-.49,2.79.42,2.86.14,0,.36,0,.3-.15s-.4-.39-.4-.71,1.13-1,1.47-1.11c.95-.43,3-.87,3.44-1.75C28.09,9.12,26,8.56,26,9.22Z" style="fill: #fff"/>
    <path d="M39.84,14.37c-.38,0-1.16-.61-1.16-.34s.9.78.9,1.51c0,1.25-.37,1.2-.37,2,0,.53.86.07,1.44.06s.57-.31.67-.61c.25-.72,1.06-1.2,1.06-1.53,0-.1-.06-.08-.2-.08-.52,0-.6.7-.93.54s0-.67.4-.91a1.27,1.27,0,0,1,.57-.17c.3,0,.46,0,.66-.11-.07-.32-.37-.4-.69-.4a2.62,2.62,0,0,0-1.95,1.57,8.91,8.91,0,0,1-.28.91,2.62,2.62,0,0,1,.47-2.06,2.66,2.66,0,0,1,1.68-.93c-.16-.21-.95,0-1.22.11S40.19,14.37,39.84,14.37Z" style="fill: #fff"/>
    <path d="M25.13,12.95c0,.4.18.59.52,1l1.95,2a4.28,4.28,0,0,0,.59-1.28c0-.43-.88-1.24-1.15-1.51l-.66-.68a7.22,7.22,0,0,0-.69-.67A6,6,0,0,0,25.13,12.95Z" style="fill: #fff"/>
    <path d="M36.92,14.53v.12c.21,0,.51.13.72.19s.44.14.56.37c-.22.25-.43.24-.85.22l-1.41-.11c.14.19,1.37.24,2,1.17.25.36.28,1.13.84.2a1.58,1.58,0,0,0-1.11-2.4A2.61,2.61,0,0,0,36.92,14.53Z" style="fill: #fff"/>
    <path d="M14.91,18.92a1.44,1.44,0,0,0,.46,1,1.28,1.28,0,0,0,1,.37c0-.31-.71-.35-.71-.85,0-.32.49,0,1.27-.69a2.67,2.67,0,0,0,.45-.51c.16-.24.31-.67.1-.66s-.2.49-1.43.52C15.52,18.11,14.91,18.42,14.91,18.92Z" style="fill: #fff"/>
    <path d="M22.16,16.41c0,.53,2.36,2.76,2.46,2.79a1.8,1.8,0,0,0-.16-.73c-.19-.43-.35-.21-.54-.34s0-.54-.2-.67-.63.26-.63-.08.11-.39.11-.74-.41.24-.62.26c-.12-.25,0-.63-.28-.63A.16.16,0,0,0,22.16,16.41Z" style="fill: #fff"/>
    <path d="M27.75,12.55c0,.27.16.57.42.57h.2c.49,0,1.14-.82,0-1.08-.43-.09-.58.07-.58.51Z" style="fill: #fff"/>
    <path d="M34.94,14.94c0,.55,1.81-.63,1.84-1A4.48,4.48,0,0,0,34.94,14.94Z" style="fill: #fff"/>
    <path d="M20.94,11.38l-.87.75c-.28.27-.66.62-.57,1C19.6,13.09,20.88,11.47,20.94,11.38Z" style="fill: #fff"/>
    <path d="M31.93,32.8c.29-.07.76-.72.8-.85a3,3,0,0,0-.83.7c0,.07,0,.07,0,.15Z" style="fill: #fff"/>
    <path d="M20.94,11.38h0l0,0Z" style="fill: #fff"/>
    <path d="M20.49,21.53h0l0,0Z" style="fill: #fff"/>
  </g>
  <path d="M178.61,10.25c2.11,1.83,2.38,4.66,2.39,6.28,0,2.61,0,5.4-.06,8-.18,4.28-6.83,7.34-8.65,7.43l-.13.45a22.76,22.76,0,0,1,1.49,2.81c.44.95,2.69,6.38,7.71,6.83v2.7c-3.48.48-10,.13-13-1.55a7.27,7.27,0,0,1-2.72-2.63l-3.19-6.39a22.66,22.66,0,0,0-2.73-4.25l-.54-.64a4.26,4.26,0,0,0-.6-.6,6.26,6.26,0,0,0-3.39-1.36l0-2.71c5-.07,4.72.41,11.13-.12a27.16,27.16,0,0,0,9.39-2.69c4.27-2.36.1-3.93-3.26-5.13a38,38,0,0,0-7.15-1.81c-1.07-.19-1.06-.77-1.51-1.65-.9-1.8-3.61-6.69-4.12-8,4.47,0,15.18,1.62,18.89,5Z" style="fill: #fff"/>
  <path d="M69.38,19.23v3.52h5.21v11.6h3.72V22.75h3.9l2-3.52H69.38Zm25,11.71H89a1.34,1.34,0,0,1,0-2.67h5.38Zm-.7-11.71h-7l-2,3.52h9a.64.64,0,0,1,.7.7v1.61H88.55a4.64,4.64,0,1,0,0,9.29H98.1V23.45a4.07,4.07,0,0,0-4.42-4.22Zm11,9.29A4.5,4.5,0,0,1,100,23.87a4.5,4.5,0,0,1,4.65-4.64h8.7l-2,3.52h-6.59a1.12,1.12,0,1,0,0,2.24h4a4.52,4.52,0,0,1,4.65,4.67,4.52,4.52,0,0,1-4.65,4.67h-7.89V30.81h7.82a1.15,1.15,0,0,0,0-2.3h-4Zm13.95,0a4.5,4.5,0,0,1-4.65-4.65,4.5,4.5,0,0,1,4.65-4.64h8.7l-2,3.52h-6.58a1.12,1.12,0,1,0,0,2.24h4a4.52,4.52,0,0,1,4.65,4.67,4.52,4.52,0,0,1-4.65,4.67h-7.89V30.81h7.82a1.15,1.15,0,0,0,0-2.3h-4Z" style="fill: #fff"/>
</svg>
