<svg viewBox="0 0 131 24" fill="none" xmlns="http://www.w3.org/2000/svg" width="131" height="24"><path d="M3.84 4h8.32A3.84 3.84 0 0 1 16 7.84v8.32A3.84 3.84 0 0 1 12.16 20H3.84A3.84 3.84 0 0 1 0 16.16V7.84A3.84 3.84 0 0 1 3.84 4Z" fill="#2D79F6"></path><mask id="beta-logo-light_svg__a" maskUnits="userSpaceOnUse" x="0" y="4" width="16" height="16" style="mask-type: alpha;"><path d="M3.84 4h8.32A3.84 3.84 0 0 1 16 7.84v8.32A3.84 3.84 0 0 1 12.16 20H3.84A3.84 3.84 0 0 1 0 16.16V7.84A3.84 3.84 0 0 1 3.84 4Z" fill="#3A3A3A"></path></mask><g mask="url(#beta-logo-light_svg__a)"><path d="m-1.15 5.212 10.8 10.88 4.108 4.228 2.4.971-17.307-.24V5.212Z" fill="#1BE893"></path><path d="m.05 5.772 17.84 17.84m-16 0 14.4-14.4-14.4 14.4Z" stroke="#2D79F6" stroke-width="1.616"></path><path d="m8.166 11.609-.002-.002c-.523-.525-.831-1.15-.831-1.871 0-1.448 1.156-2.604 2.56-2.604 1.404 0 2.56 1.156 2.56 2.604 0 .704-.324 1.364-.82 1.874l-1.738 1.746-1.73-1.747Z" stroke="#fff" stroke-width="1.616"></path></g><path d="M26.28 16.038h-1.985L21.47 8.041h1.464l2.257 6.59h.227l2.337-6.59h1.44l-2.915 7.997Zm6.695-4.14 3.675 4.14h-1.792l-2.995-3.426h-.34v3.426H30.16V8.041h1.362v3.255h.329l2.835-3.255h1.68l-3.392 3.857Zm9.726 0 3.675 4.14h-1.792l-2.995-3.426h-.34v3.426h-1.361V8.041h1.36v3.255h.33l2.835-3.255h1.68L42.7 11.898Zm6.368-1.872c.756 0 1.35.238 1.781.715.439.469.658 1.13.658 1.985v3.312h-.964l-.272-.93c-.167.28-.413.525-.738.737-.325.204-.71.306-1.157.306a2.35 2.35 0 0 1-1.066-.238 1.774 1.774 0 0 1-.726-.67 1.846 1.846 0 0 1-.26-.975c0-.56.218-1.005.657-1.338.446-.34 1.093-.51 1.94-.51h1.27c-.03-.394-.151-.704-.363-.93-.204-.235-.48-.352-.828-.352a1.296 1.296 0 0 0-1.18.703l-1.202-.204c.144-.5.439-.893.885-1.18.453-.287.975-.431 1.565-.431Zm-.386 5.025c.454 0 .821-.147 1.1-.442.28-.295.42-.685.42-1.169h-1.236c-.885 0-1.327.258-1.327.772 0 .257.094.461.283.612.19.152.443.227.76.227Zm4.24 3.312V10.14h.976l.272.953c.242-.295.552-.544.93-.748a2.625 2.625 0 0 1 1.305-.318c.552 0 1.047.132 1.486.397.438.257.778.62 1.02 1.089.25.461.375.987.375 1.577s-.125 1.119-.375 1.588a2.722 2.722 0 0 1-1.02 1.089 2.882 2.882 0 0 1-1.486.385c-.477 0-.9-.094-1.27-.283a2.913 2.913 0 0 1-.908-.726v3.221h-1.305Zm3.165-3.38c.544 0 .987-.174 1.327-.522.34-.355.51-.813.51-1.372 0-.56-.17-1.014-.51-1.362-.34-.355-.783-.533-1.327-.533-.552 0-1.002.178-1.35.533-.34.348-.51.802-.51 1.362s.17 1.017.51 1.372c.348.348.798.522 1.35.522Zm6.892 1.055h-1.304v-4.707h-2.042v-1.192h5.388v1.192H62.98v4.707Zm2.948 0v-5.899h1.305v1.68h.918c.47 0 .885.09 1.248.271a2.001 2.001 0 0 1 1.157 1.838c0 .408-.102.775-.306 1.1a2.09 2.09 0 0 1-.862.75c-.363.173-.775.26-1.237.26h-2.223Zm6.636 0H71.26v-5.899h1.304v5.899Zm-4.412-1.134c.325 0 .59-.091.793-.273a.898.898 0 0 0 .307-.703.898.898 0 0 0-.306-.703c-.205-.182-.47-.272-.794-.272h-.92v1.95h.92Z" fill="#000"></path><rect x="78" width="53" height="24" rx="4" fill="#2688EB"></rect><path d="M93.583 12.18h-2.717l-.015-1.34h2.373c.4 0 .74-.058 1.018-.175a1.41 1.41 0 0 0 .645-.52c.146-.23.22-.506.22-.828 0-.357-.069-.647-.206-.872a1.174 1.174 0 0 0-.63-.49c-.278-.103-.634-.154-1.069-.154h-1.78V17h-1.838V6.336h3.618c.586 0 1.109.056 1.567.168.464.113.857.288 1.18.528.327.234.573.532.74.893.17.362.256.791.256 1.29 0 .439-.105.842-.315 1.208-.21.361-.52.657-.93.886-.41.23-.92.366-1.531.41l-.586.462Zm-.08 4.82h-3.216l.828-1.457h2.387c.416 0 .762-.069 1.04-.206.279-.141.486-.334.623-.578.142-.25.212-.54.212-.872a2.06 2.06 0 0 0-.183-.9 1.26 1.26 0 0 0-.578-.594c-.264-.142-.608-.212-1.033-.212h-2.065l.014-1.34h2.688l.418.505c.586.02 1.067.149 1.443.388.38.24.664.55.85.93.185.38.278.791.278 1.23 0 .68-.15 1.248-.447 1.707-.293.46-.716.808-1.267 1.047-.552.235-1.216.352-1.993.352Zm9.076.146a4.225 4.225 0 0 1-1.589-.285 3.508 3.508 0 0 1-1.201-.813 3.603 3.603 0 0 1-.755-1.223 4.282 4.282 0 0 1-.263-1.516v-.293c0-.62.09-1.182.27-1.685.181-.503.433-.933.755-1.289a3.233 3.233 0 0 1 1.143-.828 3.55 3.55 0 0 1 1.428-.285c.566 0 1.062.095 1.487.285.425.19.776.46 1.054.806.284.342.494.75.63 1.223.142.474.213.996.213 1.567v.755h-6.123v-1.267h4.38v-.14a2.488 2.488 0 0 0-.191-.893 1.512 1.512 0 0 0-.52-.674c-.234-.17-.547-.256-.937-.256-.293 0-.555.063-.784.19-.225.123-.413.3-.564.535a2.823 2.823 0 0 0-.352.85 4.781 4.781 0 0 0-.117 1.106v.293c0 .346.047.668.139.966.098.293.24.55.425.77.186.22.41.393.674.52.264.122.564.183.901.183.425 0 .803-.086 1.135-.257a2.6 2.6 0 0 0 .864-.725l.931.901a3.617 3.617 0 0 1-.667.718 3.336 3.336 0 0 1-1.003.55c-.391.14-.845.212-1.363.212Zm8.382-8.07v1.288h-4.468V9.075h4.468Zm-3.179-1.942h1.765v7.676c0 .244.034.432.103.564a.547.547 0 0 0 .3.256c.127.044.276.066.447.066.122 0 .239-.007.351-.022.112-.014.203-.029.271-.044l.007 1.348a4.474 4.474 0 0 1-.512.117c-.191.034-.41.052-.659.052-.406 0-.765-.071-1.077-.213a1.578 1.578 0 0 1-.732-.71c-.176-.328-.264-.762-.264-1.304V7.134Zm9.209 8.277v-3.78c0-.283-.052-.527-.154-.732a1.08 1.08 0 0 0-.469-.476c-.205-.113-.464-.169-.776-.169-.288 0-.537.05-.747.147-.21.098-.374.23-.491.395a.956.956 0 0 0-.176.564h-1.758c0-.312.076-.615.227-.908.152-.293.371-.554.66-.784.288-.229.632-.41 1.032-.542.401-.131.85-.197 1.348-.197.596 0 1.123.1 1.582.3a2.4 2.4 0 0 1 1.091.908c.269.4.403.903.403 1.509v3.523c0 .361.025.686.073.974.054.283.13.53.227.74V17h-1.809a3.088 3.088 0 0 1-.197-.725 5.913 5.913 0 0 1-.066-.864Zm.256-3.23.015 1.091h-1.267c-.328 0-.616.032-.865.095a1.772 1.772 0 0 0-.622.264 1.145 1.145 0 0 0-.374.425 1.244 1.244 0 0 0-.124.564c0 .21.048.403.146.578.098.171.239.305.425.403.19.098.42.147.688.147.362 0 .677-.074.945-.22.274-.152.489-.335.645-.55.156-.22.239-.427.249-.622l.571.784a2.68 2.68 0 0 1-.3.644c-.142.23-.327.45-.557.66a2.75 2.75 0 0 1-1.897.703c-.517 0-.979-.103-1.384-.308a2.46 2.46 0 0 1-.952-.842 2.18 2.18 0 0 1-.344-1.209c0-.42.078-.79.234-1.113.161-.327.395-.6.703-.82.313-.22.693-.386 1.143-.499a6.115 6.115 0 0 1 1.538-.175h1.384Z" fill="#fff"></path></svg>
