{"asset":{"generator":"3D Builder","version":"2.0"},"scene":0,"scenes":[{"nodes":[0]}],"nodes":[{"mesh":0,"matrix":[1,0,0,0,0,-1.1920928955078125E-7,-0.99999988079071045,0,0,0.99999988079071045,-1.1920928955078125E-7,0,-0.034834738820791245,3.4087277445138398E-9,0.028594477102160454,1]}],"meshes":[{"primitives":[{"attributes":{"POSITION":0},"mode":4,"indices":3,"material":0},{"attributes":{"POSITION":1,"COLOR_0":2},"mode":4,"indices":4}]}],"materials":[{"name":"Metallic","pbrMetallicRoughness":{"baseColorFactor":[0.21586053073406219,0.21586053073406219,0.21586053073406219,1],"metallicFactor":0,"roughnessFactor":0.88999998569488525},"alphaMode":"OPAQUE"}],"accessors":[{"bufferView":0,"byteOffset":0,"count":510280,"componentType":5126,"type":"VEC3","min":[0.0086223036050796509,0.020504472777247429,4.9999885959550738E-5],"max":[0.057178281247615814,0.041394487023353577,0.030065590515732765]},{"bufferView":0,"byteOffset":6123360,"count":51578,"componentType":5126,"type":"VEC3","min":[0.0051322020590305328,0.01314447820186615,5.2503992362602949E-17],"max":[0.064537279307842255,0.044044483453035355,0.03039998933672905]},{"bufferView":1,"byteOffset":0,"count":51578,"componentType":5121,"type":"VEC4","normalized":true},{"bufferView":2,"byteOffset":0,"count":3034860,"componentType":5125,"type":"SCALAR"},{"bufferView":2,"byteOffset":12139440,"count":436992,"componentType":5125,"type":"SCALAR"}],"bufferViews":[{"buffer":0,"byteOffset":0,"byteLength":6742296,"byteStride":12,"target":34962},{"buffer":0,"byteOffset":6742296,"byteLength":206312,"byteStride":4,"target":34962},{"buffer":0,"byteOffset":6948608,"byteLength":13887408,"target":34963}],"buffers":[{"byteLength":20836016,"uri":"dom_new_down.bin"}]}