{
    "asset" : {
        "generator" : "Khronos glTF Blender I/O v1.8.19",
        "version" : "2.0"
    },
    "scene" : 0,
    "scenes" : [
        {
            "name" : "Scene",
            "nodes" : [
                0
            ]
        }
    ],
    "nodes" : [
        {
            "mesh" : 0,
            "name" : "city-ts",
            "rotation" : [
                0.7071068286895752,
                0,
                0,
                0.7071067094802856
            ]
        }
    ],
    "materials" : [
        {
            "doubleSided" : true,
            "name" : "M_2",
            "pbrMetallicRoughness" : {
                "baseColorTexture" : {
                    "index" : 0
                },
                "metallicFactor" : 0
            }
        },
        {
            "doubleSided" : true,
            "name" : "M_3",
            "pbrMetallicRoughness" : {
                "baseColorTexture" : {
                    "index" : 1
                },
                "metallicFactor" : 0
            }
        },
        {
            "doubleSided" : true,
            "name" : "M_4",
            "pbrMetallicRoughness" : {
                "baseColorTexture" : {
                    "index" : 2
                },
                "metallicFactor" : 0
            }
        },
        {
            "doubleSided" : true,
            "name" : "M_1",
            "pbrMetallicRoughness" : {
                "baseColorTexture" : {
                    "index" : 3
                },
                "metallicFactor" : 0
            }
        }
    ],
    "meshes" : [
        {
            "name" : "city-ts",
            "primitives" : [
                {
                    "attributes" : {
                        "POSITION" : 0,
                        "NORMAL" : 1,
                        "TEXCOORD_0" : 2
                    },
                    "indices" : 3,
                    "material" : 0
                },
                {
                    "attributes" : {
                        "POSITION" : 4,
                        "NORMAL" : 5,
                        "TEXCOORD_0" : 6
                    },
                    "indices" : 7,
                    "material" : 1
                },
                {
                    "attributes" : {
                        "POSITION" : 8,
                        "NORMAL" : 9,
                        "TEXCOORD_0" : 10
                    },
                    "indices" : 11,
                    "material" : 2
                },
                {
                    "attributes" : {
                        "POSITION" : 12,
                        "NORMAL" : 13,
                        "TEXCOORD_0" : 14
                    },
                    "indices" : 15,
                    "material" : 3
                }
            ]
        }
    ],
    "textures" : [
        {
            "sampler" : 0,
            "source" : 0
        },
        {
            "sampler" : 0,
            "source" : 1
        },
        {
            "sampler" : 0,
            "source" : 2
        },
        {
            "sampler" : 0,
            "source" : 3
        }
    ],
    "images" : [
        {
            "bufferView" : 4,
            "mimeType" : "image/jpeg",
            "name" : "M_2_baseColor"
        },
        {
            "bufferView" : 9,
            "mimeType" : "image/jpeg",
            "name" : "M_3_baseColor"
        },
        {
            "bufferView" : 14,
            "mimeType" : "image/jpeg",
            "name" : "M_4_baseColor"
        },
        {
            "bufferView" : 19,
            "mimeType" : "image/jpeg",
            "name" : "M_1_baseColor"
        }
    ],
    "accessors" : [
        {
            "bufferView" : 0,
            "componentType" : 5126,
            "count" : 5658,
            "max" : [
                603.7620239257812,
                463.01300048828125,
                6.280159950256348
            ],
            "min" : [
                -223.41900634765625,
                -626.6259765625,
                -16.15690040588379
            ],
            "type" : "VEC3"
        },
        {
            "bufferView" : 1,
            "componentType" : 5126,
            "count" : 5658,
            "type" : "VEC3"
        },
        {
            "bufferView" : 2,
            "componentType" : 5126,
            "count" : 5658,
            "type" : "VEC2"
        },
        {
            "bufferView" : 3,
            "componentType" : 5123,
            "count" : 8118,
            "type" : "SCALAR"
        },
        {
            "bufferView" : 5,
            "componentType" : 5126,
            "count" : 1414,
            "max" : [
                -223.41900634765625,
                -626.6259765625,
                0.722652018070221
            ],
            "min" : [
                -673.1019897460938,
                -1107.219970703125,
                -26.272600173950195
            ],
            "type" : "VEC3"
        },
        {
            "bufferView" : 6,
            "componentType" : 5126,
            "count" : 1414,
            "type" : "VEC3"
        },
        {
            "bufferView" : 7,
            "componentType" : 5126,
            "count" : 1414,
            "type" : "VEC2"
        },
        {
            "bufferView" : 8,
            "componentType" : 5123,
            "count" : 2910,
            "type" : "SCALAR"
        },
        {
            "bufferView" : 10,
            "componentType" : 5126,
            "count" : 1237,
            "max" : [
                166.7519989013672,
                -626.6259765625,
                0.27150601148605347
            ],
            "min" : [
                -223.41900634765625,
                -1626.1800537109375,
                -20.533000946044922
            ],
            "type" : "VEC3"
        },
        {
            "bufferView" : 11,
            "componentType" : 5126,
            "count" : 1237,
            "type" : "VEC3"
        },
        {
            "bufferView" : 12,
            "componentType" : 5126,
            "count" : 1237,
            "type" : "VEC2"
        },
        {
            "bufferView" : 13,
            "componentType" : 5123,
            "count" : 2385,
            "type" : "SCALAR"
        },
        {
            "bufferView" : 15,
            "componentType" : 5126,
            "count" : 2452,
            "max" : [
                -223.41900634765625,
                374.0050048828125,
                2.4681499004364014
            ],
            "min" : [
                -1050.5999755859375,
                -626.6259765625,
                -21.510900497436523
            ],
            "type" : "VEC3"
        },
        {
            "bufferView" : 16,
            "componentType" : 5126,
            "count" : 2452,
            "type" : "VEC3"
        },
        {
            "bufferView" : 17,
            "componentType" : 5126,
            "count" : 2452,
            "type" : "VEC2"
        },
        {
            "bufferView" : 18,
            "componentType" : 5123,
            "count" : 3609,
            "type" : "SCALAR"
        }
    ],
    "bufferViews" : [
        {
            "buffer" : 0,
            "byteLength" : 67896,
            "byteOffset" : 0
        },
        {
            "buffer" : 0,
            "byteLength" : 67896,
            "byteOffset" : 67896
        },
        {
            "buffer" : 0,
            "byteLength" : 45264,
            "byteOffset" : 135792
        },
        {
            "buffer" : 0,
            "byteLength" : 16236,
            "byteOffset" : 181056
        },
        {
            "buffer" : 0,
            "byteLength" : 328855,
            "byteOffset" : 197292
        },
        {
            "buffer" : 0,
            "byteLength" : 16968,
            "byteOffset" : 526148
        },
        {
            "buffer" : 0,
            "byteLength" : 16968,
            "byteOffset" : 543116
        },
        {
            "buffer" : 0,
            "byteLength" : 11312,
            "byteOffset" : 560084
        },
        {
            "buffer" : 0,
            "byteLength" : 5820,
            "byteOffset" : 571396
        },
        {
            "buffer" : 0,
            "byteLength" : 239526,
            "byteOffset" : 577216
        },
        {
            "buffer" : 0,
            "byteLength" : 14844,
            "byteOffset" : 816744
        },
        {
            "buffer" : 0,
            "byteLength" : 14844,
            "byteOffset" : 831588
        },
        {
            "buffer" : 0,
            "byteLength" : 9896,
            "byteOffset" : 846432
        },
        {
            "buffer" : 0,
            "byteLength" : 4770,
            "byteOffset" : 856328
        },
        {
            "buffer" : 0,
            "byteLength" : 252216,
            "byteOffset" : 861100
        },
        {
            "buffer" : 0,
            "byteLength" : 29424,
            "byteOffset" : 1113316
        },
        {
            "buffer" : 0,
            "byteLength" : 29424,
            "byteOffset" : 1142740
        },
        {
            "buffer" : 0,
            "byteLength" : 19616,
            "byteOffset" : 1172164
        },
        {
            "buffer" : 0,
            "byteLength" : 7218,
            "byteOffset" : 1191780
        },
        {
            "buffer" : 0,
            "byteLength" : 351044,
            "byteOffset" : 1199000
        }
    ],
    "samplers" : [
        {
            "magFilter" : 9729,
            "minFilter" : 9987
        }
    ],
    "buffers" : [
        {
            "byteLength" : 1550044,
            "uri" : "data:application/octet-stream;base64,"
        }
    ]
}
