{"asset":{"version":"2.0","generator":"babylon.js glTF exporter for 3dsmax 2018 v20191202.2"},"scene":0,"scenes":[{"nodes":[0,1,2],"extensions":{}}],"nodes":[{"mesh":0,"translation":[0.0,125.770905,0.0],"rotation":[0.0,0.0,0.0,1.0],"scale":[1.0,1.0,1.0],"name":"Mnevniki_bridges_0"},{"mesh":1,"translation":[0.0,125.856,0.0],"rotation":[0.0,0.0,0.0,1.0],"scale":[1.0,1.0,1.0],"name":"Sphere001"},{"translation":[0.0,0.0,0.0],"rotation":[0.0,0.0,0.0,1.0],"scale":[1.0,1.0,1.0],"name":"Default light"}],"meshes":[{"primitives":[{"attributes":{"POSITION":1,"NORMAL":2},"indices":0,"mode":4,"material":0},{"attributes":{"POSITION":4,"NORMAL":5},"indices":3,"mode":4,"material":1}],"name":"Mnevniki_bridges_0"},{"primitives":[{"attributes":{"POSITION":7,"NORMAL":8,"TEXCOORD_0":9},"indices":6}],"name":"Sphere001"}],"accessors":[{"bufferView":0,"componentType":5123,"count":225,"type":"SCALAR","name":"accessorIndices"},{"bufferView":1,"componentType":5126,"count":225,"max":[4210.46875,7.72409058,33.0],"min":[21.90625,3.83309937,-1967.5],"type":"VEC3","name":"accessorPositions"},{"bufferView":1,"byteOffset":2700,"componentType":5126,"count":225,"type":"VEC3","name":"accessorNormals"},{"bufferView":0,"byteOffset":452,"componentType":5123,"count":510,"type":"SCALAR","name":"accessorIndices"},{"bufferView":1,"byteOffset":5400,"componentType":5126,"count":510,"max":[4210.46875,7.72409058,33.0],"min":[21.90625,-2.16690826,-1967.5],"type":"VEC3","name":"accessorPositions"},{"bufferView":1,"byteOffset":11520,"componentType":5126,"count":510,"type":"VEC3","name":"accessorNormals"},{"bufferView":0,"byteOffset":1472,"componentType":5123,"count":2880,"type":"SCALAR","name":"accessorIndices"},{"bufferView":1,"byteOffset":17640,"componentType":5126,"count":2880,"max":[1.57480311,1.57480311,1.57480311],"min":[-1.57480311,-1.57480311,-1.57480311],"type":"VEC3","name":"accessorPositions"},{"bufferView":1,"byteOffset":52200,"componentType":5126,"count":2880,"type":"VEC3","name":"accessorNormals"},{"bufferView":2,"componentType":5126,"count":2880,"type":"VEC2","name":"accessorUVs"}],"bufferViews":[{"buffer":0,"byteLength":7232,"name":"bufferViewScalar"},{"buffer":0,"byteOffset":7232,"byteLength":86760,"byteStride":12,"name":"bufferViewFloatVec3"},{"buffer":0,"byteOffset":93992,"byteLength":23040,"byteStride":8,"name":"bufferViewFloatVec2"}],"buffers":[{"uri":"Mnevniki_bridges.bin","byteLength":117032}],"materials":[{"pbrMetallicRoughness":{"baseColorFactor":[0.2941175,0.2156865,0.4215685,1.0],"metallicFactor":0.0,"roughnessFactor":0.7022211},"emissiveFactor":[0.0,0.0,0.0],"alphaMode":"OPAQUE","name":"CityEngineMaterial"},{"pbrMetallicRoughness":{"baseColorFactor":[0.5,0.5,0.5,1.0],"metallicFactor":0.0,"roughnessFactor":0.7022211},"emissiveFactor":[0.0,0.0,0.0],"alphaMode":"OPAQUE","name":"CityEngineMaterial_1"}]}