{
    "asset" : {
        "generator" : "Khronos glTF Blender I/O v1.5.17",
        "version" : "2.0"
    },
    "scene" : 0,
    "scenes" : [
        {
            "name" : "Scene",
            "nodes" : [
                0
            ]
        }
    ],
    "nodes" : [
        {
            "mesh" : 0,
            "name" : "\u0421\u0418\u041d\u0418\u0427\u041a\u04102",
            "rotation" : [
                0.7071068286895752,
                0,
                0,
                0.7071067094802856
            ]
        }
    ],
    "materials" : [
        {
            "doubleSided" : true,
            "name" : "Sumele_Shoe",
            "pbrMetallicRoughness" : {
                "baseColorFactor" : [
                    0.06559351831674576,
                    0.06559351831674576,
                    0.06559351831674576,
                    1
                ],
                "metallicFactor" : 0.3136363923549652
            }
        },
        {
            "doubleSided" : true,
            "name" : "Sumele_Dress",
            "pbrMetallicRoughness" : {
                "baseColorFactor" : [
                    0.23845507204532623,
                    0.2438916563987732,
                    0.24570342898368835,
                    1
                ],
                "metallicFactor" : 0.9045454263687134,
                "roughnessFactor" : 0.1568181812763214
            }
        },
        {
            "doubleSided" : true,
            "name" : "_",
            "pbrMetallicRoughness" : {
                "baseColorFactor" : [
                    0.35686299204826355,
                    0.47058799862861633,
                    0.556863009929657,
                    1
                ],
                "metallicFactor" : 0.9045454859733582,
                "roughnessFactor" : 0.49772727489471436
            }
        }
    ],
    "meshes" : [
        {
            "name" : "\u0421\u0418\u041d\u0418\u0427\u041a\u04102",
            "primitives" : [
                {
                    "attributes" : {
                        "POSITION" : 0,
                        "NORMAL" : 1,
                        "TEXCOORD_0" : 2
                    },
                    "indices" : 3,
                    "material" : 0
                },
                {
                    "attributes" : {
                        "POSITION" : 4,
                        "NORMAL" : 5,
                        "TEXCOORD_0" : 6
                    },
                    "indices" : 7,
                    "material" : 1
                },
                {
                    "attributes" : {
                        "POSITION" : 8,
                        "NORMAL" : 9,
                        "TEXCOORD_0" : 10
                    },
                    "indices" : 11,
                    "material" : 2
                }
            ]
        }
    ],
    "accessors" : [
        {
            "bufferView" : 0,
            "componentType" : 5126,
            "count" : 2742,
            "max" : [
                3.8770499229431152,
                11.661100387573242,
                0
            ],
            "min" : [
                -3.915440082550049,
                -10.413000106811523,
                -4.432779788970947
            ],
            "type" : "VEC3"
        },
        {
            "bufferView" : 1,
            "componentType" : 5126,
            "count" : 2742,
            "type" : "VEC3"
        },
        {
            "bufferView" : 2,
            "componentType" : 5126,
            "count" : 2742,
            "type" : "VEC2"
        },
        {
            "bufferView" : 3,
            "componentType" : 5123,
            "count" : 6312,
            "type" : "SCALAR"
        },
        {
            "bufferView" : 4,
            "componentType" : 5126,
            "count" : 934,
            "max" : [
                3.789599895477295,
                11.58430004119873,
                -0.7238050103187561
            ],
            "min" : [
                -3.8279900550842285,
                -10.731100082397461,
                -4.518479824066162
            ],
            "type" : "VEC3"
        },
        {
            "bufferView" : 5,
            "componentType" : 5126,
            "count" : 934,
            "type" : "VEC3"
        },
        {
            "bufferView" : 6,
            "componentType" : 5126,
            "count" : 934,
            "type" : "VEC2"
        },
        {
            "bufferView" : 7,
            "componentType" : 5123,
            "count" : 2832,
            "type" : "SCALAR"
        },
        {
            "bufferView" : 8,
            "componentType" : 5126,
            "count" : 220,
            "max" : [
                3.791260004043579,
                11.661100387573242,
                -0.8574360013008118
            ],
            "min" : [
                -3.8296499252319336,
                -6.734370231628418,
                -4.363609790802002
            ],
            "type" : "VEC3"
        },
        {
            "bufferView" : 9,
            "componentType" : 5126,
            "count" : 220,
            "type" : "VEC3"
        },
        {
            "bufferView" : 10,
            "componentType" : 5126,
            "count" : 220,
            "type" : "VEC2"
        },
        {
            "bufferView" : 11,
            "componentType" : 5123,
            "count" : 672,
            "type" : "SCALAR"
        }
    ],
    "bufferViews" : [
        {
            "buffer" : 0,
            "byteLength" : 32904,
            "byteOffset" : 0
        },
        {
            "buffer" : 0,
            "byteLength" : 32904,
            "byteOffset" : 32904
        },
        {
            "buffer" : 0,
            "byteLength" : 21936,
            "byteOffset" : 65808
        },
        {
            "buffer" : 0,
            "byteLength" : 12624,
            "byteOffset" : 87744
        },
        {
            "buffer" : 0,
            "byteLength" : 11208,
            "byteOffset" : 100368
        },
        {
            "buffer" : 0,
            "byteLength" : 11208,
            "byteOffset" : 111576
        },
        {
            "buffer" : 0,
            "byteLength" : 7472,
            "byteOffset" : 122784
        },
        {
            "buffer" : 0,
            "byteLength" : 5664,
            "byteOffset" : 130256
        },
        {
            "buffer" : 0,
            "byteLength" : 2640,
            "byteOffset" : 135920
        },
        {
            "buffer" : 0,
            "byteLength" : 2640,
            "byteOffset" : 138560
        },
        {
            "buffer" : 0,
            "byteLength" : 1760,
            "byteOffset" : 141200
        },
        {
            "buffer" : 0,
            "byteLength" : 1344,
            "byteOffset" : 142960
        }
    ],
    "buffers" : [
        {
            "byteLength" : 144304,
            "uri" : "data:application/octet-stream;base64,"
        }
    ]
}
