{
    "asset" : {
        "generator" : "Khronos glTF Blender I/O v1.5.17",
        "version" : "2.0"
    },
    "scene" : 0,
    "scenes" : [
        {
            "name" : "Scene",
            "nodes" : [
                0,
                1
            ]
        }
    ],
    "nodes" : [
        {
            "mesh" : 0,
            "name" : "SketchUp",
            "scale" : [
                0.02539999969303608,
                0.02539999969303608,
                0.02539999969303608
            ]
        },
        {
            "mesh" : 1,
            "name" : "Plane",
            "scale" : [
                506.9776611328125,
                1,
                506.9776611328125
            ],
            "translation" : [
                278.6726989746094,
                3.814697265625e-06,
                -212.3459930419922
            ]
        }
    ],
    "materials" : [
        {
            "doubleSided" : true,
            "name" : "AO-cityl",
            "pbrMetallicRoughness" : {
                "baseColorFactor" : [
                    0.623623788356781,
                    0.623623788356781,
                    0.623623788356781,
                    1
                ],
                "metallicFactor" : 0.5090909004211426,
                "roughnessFactor" : 0.5
            }
        },
        {
            "alphaMode" : "BLEND",
            "doubleSided" : true,
            "name" : "PLANE",
            "pbrMetallicRoughness" : {
                "baseColorFactor" : [
                    0,
                    0,
                    0,
                    1
                ],
                "baseColorTexture" : {
                    "index" : 0
                },
                "metallicFactor" : 0,
                "roughnessFactor" : 0.5
            }
        }
    ],
    "meshes" : [
        {
            "name" : "ID517",
            "primitives" : [
                {
                    "attributes" : {
                        "POSITION" : 0,
                        "NORMAL" : 1,
                        "TEXCOORD_0" : 2
                    },
                    "indices" : 3,
                    "material" : 0
                }
            ]
        },
        {
            "name" : "Plane",
            "primitives" : [
                {
                    "attributes" : {
                        "POSITION" : 4,
                        "NORMAL" : 5,
                        "TEXCOORD_0" : 6
                    },
                    "indices" : 7,
                    "material" : 1
                }
            ]
        }
    ],
    "textures" : [
        {
            "sampler" : 0,
            "source" : 0
        }
    ],
    "images" : [
        {
            "bufferView" : 8,
            "mimeType" : "image/png",
            "name" : "ao-plane-2"
        }
    ],
    "accessors" : [
        {
            "bufferView" : 0,
            "componentType" : 5126,
            "count" : 67281,
            "max" : [
                29380.765625,
                14653.5107421875,
                3782.337646484375
            ],
            "min" : [
                -6310.3583984375,
                -19.681011199951172,
                -25372.26953125
            ],
            "type" : "VEC3"
        },
        {
            "bufferView" : 1,
            "componentType" : 5126,
            "count" : 67281,
            "type" : "VEC3"
        },
        {
            "bufferView" : 2,
            "componentType" : 5126,
            "count" : 67281,
            "type" : "VEC2"
        },
        {
            "bufferView" : 3,
            "componentType" : 5125,
            "count" : 104034,
            "type" : "SCALAR"
        },
        {
            "bufferView" : 4,
            "componentType" : 5126,
            "count" : 4,
            "max" : [
                1,
                0,
                1
            ],
            "min" : [
                -1,
                0,
                -1
            ],
            "type" : "VEC3"
        },
        {
            "bufferView" : 5,
            "componentType" : 5126,
            "count" : 4,
            "type" : "VEC3"
        },
        {
            "bufferView" : 6,
            "componentType" : 5126,
            "count" : 4,
            "type" : "VEC2"
        },
        {
            "bufferView" : 7,
            "componentType" : 5123,
            "count" : 6,
            "type" : "SCALAR"
        }
    ],
    "bufferViews" : [
        {
            "buffer" : 0,
            "byteLength" : 807372,
            "byteOffset" : 0
        },
        {
            "buffer" : 0,
            "byteLength" : 807372,
            "byteOffset" : 807372
        },
        {
            "buffer" : 0,
            "byteLength" : 538248,
            "byteOffset" : 1614744
        },
        {
            "buffer" : 0,
            "byteLength" : 416136,
            "byteOffset" : 2152992
        },
        {
            "buffer" : 0,
            "byteLength" : 48,
            "byteOffset" : 2569128
        },
        {
            "buffer" : 0,
            "byteLength" : 48,
            "byteOffset" : 2569176
        },
        {
            "buffer" : 0,
            "byteLength" : 32,
            "byteOffset" : 2569224
        },
        {
            "buffer" : 0,
            "byteLength" : 12,
            "byteOffset" : 2569256
        },
        {
            "buffer" : 0,
            "byteLength" : 286683,
            "byteOffset" : 2569268
        }
    ],
    "samplers" : [
        {
            "magFilter" : 9729,
            "minFilter" : 9987
        }
    ],
    "buffers" : [
        {
            "byteLength" : 2855952,
            "uri" : "data:application/octet-stream;base64,"
        }
    ]
}
