{
    "asset" : {
        "generator" : "Khronos glTF Blender I/O v1.5.17",
        "version" : "2.0"
    },
    "scene" : 0,
    "scenes" : [
        {
            "name" : "Scene",
            "nodes" : [
                2,
                3
            ]
        }
    ],
    "nodes" : [
        {
            "mesh" : 0,
            "name" : "Mesh_62"
        },
        {
            "name" : "Node_58"
        },
        {
            "children" : [
                0,
                1
            ],
            "name" : "Pasted",
            "rotation" : [
                -0.7071068286895752,
                0,
                0,
                0.7071068286895752
            ]
        },
        {
            "mesh" : 1,
            "name" : "Plane",
            "scale" : [
                2.9794061183929443,
                1,
                2.9794061183929443
            ],
            "translation" : [
                -589.5477905273438,
                -1.52587890625e-05,
                -555.4041748046875
            ]
        }
    ],
    "materials" : [
        {
            "name" : "Material_0",
            "pbrMetallicRoughness" : {
                "baseColorTexture" : {
                    "index" : 0
                },
                "metallicFactor" : 0.5,
                "roughnessFactor" : 0.5
            }
        },
        {
            "alphaMode" : "BLEND",
            "doubleSided" : true,
            "name" : "Material",
            "pbrMetallicRoughness" : {
                "baseColorFactor" : [
                    0,
                    0,
                    0,
                    1
                ],
                "baseColorTexture" : {
                    "index" : 1
                },
                "metallicFactor" : 0,
                "roughnessFactor" : 0.4000000059604645
            }
        }
    ],
    "meshes" : [
        {
            "name" : "Mesh_62",
            "primitives" : [
                {
                    "attributes" : {
                        "POSITION" : 0,
                        "NORMAL" : 1,
                        "TEXCOORD_0" : 2
                    },
                    "indices" : 3,
                    "material" : 0
                }
            ]
        },
        {
            "name" : "Plane.001",
            "primitives" : [
                {
                    "attributes" : {
                        "POSITION" : 4,
                        "NORMAL" : 5,
                        "TEXCOORD_0" : 6,
                        "TEXCOORD_1" : 7
                    },
                    "indices" : 8,
                    "material" : 1
                }
            ]
        }
    ],
    "textures" : [
        {
            "sampler" : 0,
            "source" : 0
        },
        {
            "sampler" : 0,
            "source" : 1
        }
    ],
    "images" : [
        {
            "bufferView" : 4,
            "mimeType" : "image/png",
            "name" : "AO"
        },
        {
            "bufferView" : 10,
            "mimeType" : "image/png",
            "name" : "AO-ground"
        }
    ],
    "accessors" : [
        {
            "bufferView" : 0,
            "componentType" : 5126,
            "count" : 4704,
            "max" : [
                0,
                1105.139892578125,
                392.20001220703125
            ],
            "min" : [
                -1242.48388671875,
                -115.38145446777344,
                2.2464519133791327e-09
            ],
            "type" : "VEC3"
        },
        {
            "bufferView" : 1,
            "componentType" : 5126,
            "count" : 4704,
            "type" : "VEC3"
        },
        {
            "bufferView" : 2,
            "componentType" : 5126,
            "count" : 4704,
            "type" : "VEC2"
        },
        {
            "bufferView" : 3,
            "componentType" : 5123,
            "count" : 4704,
            "type" : "SCALAR"
        },
        {
            "bufferView" : 5,
            "componentType" : 5126,
            "count" : 4,
            "max" : [
                250,
                0,
                250
            ],
            "min" : [
                -250,
                0,
                -250
            ],
            "type" : "VEC3"
        },
        {
            "bufferView" : 6,
            "componentType" : 5126,
            "count" : 4,
            "type" : "VEC3"
        },
        {
            "bufferView" : 7,
            "componentType" : 5126,
            "count" : 4,
            "type" : "VEC2"
        },
        {
            "bufferView" : 8,
            "componentType" : 5126,
            "count" : 4,
            "type" : "VEC2"
        },
        {
            "bufferView" : 9,
            "componentType" : 5123,
            "count" : 6,
            "type" : "SCALAR"
        }
    ],
    "bufferViews" : [
        {
            "buffer" : 0,
            "byteLength" : 56448,
            "byteOffset" : 0
        },
        {
            "buffer" : 0,
            "byteLength" : 56448,
            "byteOffset" : 56448
        },
        {
            "buffer" : 0,
            "byteLength" : 37632,
            "byteOffset" : 112896
        },
        {
            "buffer" : 0,
            "byteLength" : 9408,
            "byteOffset" : 150528
        },
        {
            "buffer" : 0,
            "byteLength" : 960956,
            "byteOffset" : 159936
        },
        {
            "buffer" : 0,
            "byteLength" : 48,
            "byteOffset" : 1120892
        },
        {
            "buffer" : 0,
            "byteLength" : 48,
            "byteOffset" : 1120940
        },
        {
            "buffer" : 0,
            "byteLength" : 32,
            "byteOffset" : 1120988
        },
        {
            "buffer" : 0,
            "byteLength" : 32,
            "byteOffset" : 1121020
        },
        {
            "buffer" : 0,
            "byteLength" : 12,
            "byteOffset" : 1121052
        },
        {
            "buffer" : 0,
            "byteLength" : 714795,
            "byteOffset" : 1121064
        }
    ],
    "samplers" : [
        {
            "magFilter" : 9729,
            "minFilter" : 9987
        }
    ],
    "buffers" : [
        {
            "byteLength" : 1835860,
            "uri" : "data:application/octet-stream;base64,"
        }
    ]
}
