{
    "asset" : {
        "generator" : "Khronos glTF Blender I/O v1.8.19",
        "version" : "2.0"
    },
    "scene" : 0,
    "scenes" : [
        {
            "name" : "Scene",
            "nodes" : [
                0,
                1
            ]
        }
    ],
    "nodes" : [
        {
            "mesh" : 0,
            "name" : "Cylinder"
        },
        {
            "mesh" : 1,
            "name" : "Icosphere",
            "scale" : [
                4.967619895935059,
                4.967619895935059,
                4.967619895935059
            ],
            "translation" : [
                3.5053367614746094,
                13.675734519958496,
                -1.1728194952011108
            ]
        }
    ],
    "materials" : [
        {
            "doubleSided" : true,
            "name" : "Material.002",
            "pbrMetallicRoughness" : {
                "baseColorFactor" : [
                    0.36625224351882935,
                    0.27616018056869507,
                    0.28111785650253296,
                    1
                ],
                "metallicFactor" : 0,
                "roughnessFactor" : 0.6000000238418579
            }
        },
        {
            "alphaMode" : "BLEND",
            "doubleSided" : true,
            "name" : "Green",
            "pbrMetallicRoughness" : {
                "baseColorFactor" : [
                    0.3049868941307068,
                    0.4677836298942566,
                    0.15292620658874512,
                    0.6000000238418579
                ],
                "metallicFactor" : 0,
                "roughnessFactor" : 0.6000000238418579
            }
        }
    ],
    "meshes" : [
        {
            "name" : "Cylinder.000",
            "primitives" : [
                {
                    "attributes" : {
                        "POSITION" : 0,
                        "NORMAL" : 1
                    },
                    "indices" : 2,
                    "material" : 0
                }
            ]
        },
        {
            "name" : "Icosphere.001",
            "primitives" : [
                {
                    "attributes" : {
                        "POSITION" : 3,
                        "NORMAL" : 4
                    },
                    "indices" : 5,
                    "material" : 1
                }
            ]
        }
    ],
    "accessors" : [
        {
            "bufferView" : 0,
            "componentType" : 5126,
            "count" : 3026,
            "max" : [
                5.948500156402588,
                15.502195358276367,
                5.598342418670654
            ],
            "min" : [
                -4.129157543182373,
                -1.6434898376464844,
                -3.6810319423675537
            ],
            "type" : "VEC3"
        },
        {
            "bufferView" : 1,
            "componentType" : 5126,
            "count" : 3026,
            "type" : "VEC3"
        },
        {
            "bufferView" : 2,
            "componentType" : 5123,
            "count" : 3348,
            "type" : "SCALAR"
        },
        {
            "bufferView" : 3,
            "componentType" : 5126,
            "count" : 932,
            "max" : [
                1.116955280303955,
                1.30933678150177,
                2.276538133621216
            ],
            "min" : [
                -2.2042722702026367,
                -1.6818276643753052,
                -1.662764310836792
            ],
            "type" : "VEC3"
        },
        {
            "bufferView" : 4,
            "componentType" : 5126,
            "count" : 932,
            "type" : "VEC3"
        },
        {
            "bufferView" : 5,
            "componentType" : 5123,
            "count" : 960,
            "type" : "SCALAR"
        }
    ],
    "bufferViews" : [
        {
            "buffer" : 0,
            "byteLength" : 36312,
            "byteOffset" : 0
        },
        {
            "buffer" : 0,
            "byteLength" : 36312,
            "byteOffset" : 36312
        },
        {
            "buffer" : 0,
            "byteLength" : 6696,
            "byteOffset" : 72624
        },
        {
            "buffer" : 0,
            "byteLength" : 11184,
            "byteOffset" : 79320
        },
        {
            "buffer" : 0,
            "byteLength" : 11184,
            "byteOffset" : 90504
        },
        {
            "buffer" : 0,
            "byteLength" : 1920,
            "byteOffset" : 101688
        }
    ],
    "buffers" : [
        {
            "byteLength" : 103608,
            "uri" : "data:application/octet-stream;base64,"
        }
    ]
}
