<svg xmlns="http://www.w3.org/2000/svg" id="hot-spring" width="20" height="20" viewBox="0 0 20 20"><g><path d="M0,0 H20 V20 H0 Z" fill="none"/><path d="M9.345600000000001 8.608c-0.4032-0.58-0.6240000000000001-0.8976000000000002-0.504-1.9016 0.11200000000000002-0.9248 0.5432-1.292 0.9584-1.6472000000000002 0.32320000000000004-0.2752 0.6376000000000001-0.544 0.7848-1.0592000000000001 0.24080000000000001 0.5776-0.0288 1.176-0.2792 1.7312000000000003-0.24880000000000002 0.5528-0.4784 1.064-0.1688 1.4688 0.7768 1.0168 1.5704000000000002 2.304 0.7768 3.6688000000000005-0.17120000000000002 0.3144-0.4312 0.5448000000000001-0.6888000000000001 0.7744-0.33840000000000003 0.30000000000000004-0.6736 0.5976-0.8032 1.0776000000000001-0.21520000000000003-0.5416000000000001 0.0064-1.092 0.22719999999999999-1.6408000000000003 0.24480000000000002-0.6080000000000001 0.488-1.2128 0.1384-1.8008-0.16240000000000002-0.272-0.31200000000000006-0.48560000000000003-0.44160000000000005-0.672z m2.6968-0.9400000000000001a2.1111999999999997 2.1111999999999997 0 0 1 0.2944-1.4464000000000001c0.2936-0.36000000000000004 0.5608-0.5144000000000001 0.7936000000000001-0.6480000000000001 0.2752-0.1592 0.5016-0.2896 0.664-0.7016 0.2304 0.5472-0.0008 0.9504-0.244 1.3744-0.0952 0.1656-0.192 0.33440000000000003-0.264 0.516-0.15200000000000002 0.488 0.0816 0.7144 0.37360000000000004 0.9976000000000002 0.2872 0.2768 0.6296 0.6080000000000001 0.7200000000000001 1.2928000000000002A1.8976 1.8976 0 0 1 14.080800000000002 10.4c-0.2848 0.3488-0.544 0.524-0.772 0.6768000000000001-0.2848 0.192-0.5184000000000001 0.3496-0.6848000000000001 0.772-0.2336-0.5504 0.024800000000000003-1.0071999999999999 0.2824-1.4624000000000001 0.0984-0.1736 0.1968-0.3472 0.268-0.5256000000000001 0.0576-0.4464000000000001-0.18720000000000003-0.6936-0.4656-0.9744-0.2856-0.288-0.6056-0.6096-0.6672-1.2184z m-6.4144000000000005 0c-0.07840000000000001-0.5056 0.004-1.04 0.2944-1.4464000000000001 0.3008-0.42240000000000005 0.584-0.5736 0.828-0.7048000000000001 0.2584-0.1384 0.476-0.25520000000000004 0.6288-0.6448 0.2312 0.5464000000000001-0.011200000000000002 0.9664-0.26 1.4000000000000001-0.0976 0.1696-0.1968 0.3408-0.26880000000000004 0.5232-0.1216 0.30800000000000005 0.10400000000000001 0.8119999999999999 0.4 0.9944000000000002 0.8016000000000001 0.6400000000000001 0.9824 1.8288000000000002 0.43840000000000007 2.6824000000000003-0.2928 0.35840000000000005-0.5632 0.5184000000000001-0.8 0.6584-0.2816 0.16720000000000002-0.5152 0.30560000000000004-0.6784 0.7184-0.22240000000000004-0.5248 0.0064-0.944 0.24-1.3712 0.10400000000000001-0.1912 0.2096-0.384 0.27599999999999997-0.5896 0.1432-0.4448000000000001-0.10800000000000001-0.7072-0.40800000000000003-1.0208000000000002-0.27999999999999997-0.292-0.6016-0.6288-0.6904-1.1992z" fill="hsl(210, 0%, 50%)" stroke="hsl(210, 0%, 100%)" stroke-linejoin="round" stroke-miterlimit="4px" stroke-width="2"/><path d="M14.4 11.200000000000001c0.5599999999999999 2.0928-2.7792000000000003 2.4000000000000004-4.4 2.4000000000000004S5.04 13.2128 5.6 11.200000000000001c-0.5064000000000001 0.2528-0.8 0.768-0.8 1.2000000000000002 0 1.2152 2.3280000000000003 2.32 5.2 2.32s5.2-1.1048 5.2-2.32c0-0.43200000000000005-0.2936-0.9472-0.8-1.2000000000000002z" fill="hsl(210, 0%, 50%)" stroke="hsl(210, 0%, 100%)" stroke-linejoin="round" stroke-miterlimit="4px" stroke-width="2"/><path d="M9.682 8.76c-0.504-0.725-0.78-1.122-0.63-2.377 0.14-1.156 0.679-1.615 1.198-2.059 0.404-0.344 0.797-0.68 0.981-1.324 0.301 0.722-0.036 1.47-0.349 2.164-0.311 0.691-0.598 1.33-0.211 1.836 0.971 1.271 1.963 2.88 0.971 4.586-0.214 0.393-0.539 0.681-0.861 0.968-0.423 0.375-0.842 0.747-1.004 1.347-0.269-0.677 0.008-1.365 0.284-2.051 0.306-0.76 0.61-1.516 0.173-2.251-0.203-0.34-0.39-0.607-0.552-0.84z m3.371-1.175a2.639 2.639 0 0 1 0.368-1.808c0.367-0.45 0.701-0.643 0.992-0.81 0.344-0.199 0.627-0.362 0.83-0.877 0.288 0.684-0.001 1.188-0.305 1.718-0.119 0.207-0.24 0.418-0.33 0.645-0.19 0.61 0.102 0.893 0.467 1.247 0.359 0.346 0.787 0.76 0.9 1.616A2.372 2.372 0 0 1 15.601 11c-0.356 0.436-0.68 0.655-0.965 0.846-0.356 0.24-0.648 0.437-0.856 0.965-0.292-0.688 0.031-1.259 0.353-1.828 0.123-0.217 0.246-0.434 0.335-0.657 0.072-0.558-0.234-0.867-0.582-1.218-0.357-0.36-0.757-0.762-0.834-1.523z m-8.018 0c-0.098-0.632 0.005-1.3 0.368-1.808 0.376-0.528 0.73-0.717 1.035-0.881 0.323-0.173 0.595-0.319 0.786-0.806 0.289 0.683-0.014 1.208-0.325 1.75-0.122 0.212-0.246 0.426-0.336 0.654-0.152 0.385 0.13 1.015 0.5 1.243 1.002 0.8 1.228 2.286 0.548 3.353-0.366 0.448-0.704 0.648-1 0.823-0.352 0.209-0.644 0.382-0.848 0.898-0.278-0.656 0.008-1.18 0.3-1.714 0.13-0.239 0.262-0.48 0.345-0.737 0.179-0.556-0.135-0.884-0.51-1.276-0.35-0.365-0.752-0.786-0.863-1.499z" fill="hsl(210, 0%, 50%)"/><path d="M16 12c0.7 2.616-3.474 3-5.5 3S4.3 14.516 5 12c-0.633 0.316-1 0.96-1 1.5 0 1.519 2.91 2.9 6.5 2.9s6.5-1.381 6.5-2.9c0-0.54-0.367-1.184-1-1.5z" fill="hsl(210, 0%, 50%)"/></g></svg>