<svg xmlns="http://www.w3.org/2000/svg" id="tw-county-township-5" width="114" height="60" viewBox="0 0 38 20"><g><path d="M0,0 H38 V20 H0 Z" fill="none"/><path d="M3,1 H35 C35,1 37,1 37,3 V17 C37,17 37,19 35,19 H3 C3,19 1,19 1,17 V3 C1,3 1,1 3,1" fill="none" stroke="hsl(230, 24%, 20%)" stroke-linejoin="round" stroke-miterlimit="4px" stroke-width="2"/><path d="M3,1 H35 C35,1 37,1 37,3 V17 C37,17 37,19 35,19 H3 C3,19 1,19 1,17 V3 C1,3 1,1 3,1" fill="hsl(0, 8%, 100%)"/><path d="M0,7 H38 V13 H0 Z" fill="none" id="mapbox-text-placeholder"/></g></svg>