<?xml version="1.0" encoding="UTF-8" standalone="no"?>
<svg
   xmlns:dc="http://purl.org/dc/elements/1.1/"
   xmlns:cc="http://creativecommons.org/ns#"
   xmlns:rdf="http://www.w3.org/1999/02/22-rdf-syntax-ns#"
   xmlns:svg="http://www.w3.org/2000/svg"
   xmlns="http://www.w3.org/2000/svg"
   xmlns:sodipodi="http://sodipodi.sourceforge.net/DTD/sodipodi-0.dtd"
   xmlns:inkscape="http://www.inkscape.org/namespaces/inkscape"
   width="100"
   height="290"
   viewBox="0 0 300 920"
   version="1.1"
   id="svg1970"
   sodipodi:docname="animate53.888.svg"
   inkscape:version="0.92.2 (5c3e80d, 2017-08-06)"
   inkscape:export-filename="C:\Users\User1\Desktop\15 Владимир 3д макс\IoT &amp; IIoT\infografics\Соцсети\images\сайт\Images site\SVG SITE\new svg\бортник\HUAWEI\ANIMATE\animate53.888.png"
   inkscape:export-xdpi="795"
   inkscape:export-ydpi="795">
  <metadata
     id="metadata1976">
    <rdf:RDF>
      <cc:Work
         rdf:about="">
        <dc:format>image/svg+xml</dc:format>
        <dc:type
           rdf:resource="http://purl.org/dc/dcmitype/StillImage" />
        <dc:title></dc:title>
      </cc:Work>
    </rdf:RDF>
  </metadata>
  <defs
     id="defs1974" />
  <sodipodi:namedview
     pagecolor="#ffffff"
     bordercolor="#666666"
     borderopacity="1"
     objecttolerance="10"
     gridtolerance="10"
     guidetolerance="10"
     inkscape:pageopacity="0"
     inkscape:pageshadow="2"
     inkscape:window-width="1366"
     inkscape:window-height="745"
     id="namedview1972"
     showgrid="false"
     inkscape:zoom="0.8137931"
     inkscape:cx="50"
     inkscape:cy="145"
     inkscape:window-x="-8"
     inkscape:window-y="-8"
     inkscape:window-maximized="1"
     inkscape:current-layer="svg1970" />
  <path
     style="fill:#3f69aa;fill-opacity:0.94117647;stroke-width:5.8499999"
     inkscape:connector-curvature="0"
     id="path1964"
     d="m 95.976102,234.38025 -0.35685,-3.1473 2.9952,-0.351 -0.0351,4.2003 z m 1.19925,-3.3813 -1.5561,0.234 a 1.57365,1.57365 0 0 1 1.31625,-1.755 c 0.8424,0 1.56195,0.585 1.67895,1.404 z m 1.4391,0 1.918808,35.4861 -2.995208,0.234 -1.9188,-35.6031 z m 0.4797,35.6031 1.439108,-0.117 c 0.117,0.819 -0.596708,1.51515 -1.316258,1.63215 a 1.66725,1.66725 0 0 1 -1.67895,-1.404 z m 1.439108,0 2.8782,91.62855 h -2.9952 l -2.878208,-91.62855 z m 1.4391,91.62855 h 1.4391 c 0.117,0.819 -0.60255,1.521 -1.4391,1.521 a 1.5678,1.5678 0 0 1 -1.5561,-1.521 z m -1.5561,0 v -2.68515 l 2.7144,-0.85995 0.2808,3.5451 z m -17.1405,19.45125 17.23995,-20.2176 2.17035,2.0592 -17.239952,20.2176 z m 138.5163,121.90815 6.0255,-5.9319 2.17035,2.1762 -6.0255,6.05475 z m -32.7366,-9.3249 36.1881,8.95635 -1.287,2.6676 -35.919,-8.7165 z m 17.48565,-241.3359 -34.05285,50.0643 -2.53305,-1.6965 35.19945,-53.1414 z m -97.7067,-27.29025 17.9595,26.99775 -2.5272,1.8135 -17.9595,-27.11475 z m 16.76025,27.963 1.2051,-0.96525 a 1.6731,1.6731 0 0 1 -0.3627,2.1762 c -0.7254,0.48555 -1.69065,0.3627 -2.17035,-0.3627 z m 1.44495,0.3627 -9.04995,31.59585 -2.8899,-0.8424 9.03825,-31.59585 z m 45.3258,-115.84755 4.58055,-4.4811 2.0475,2.18205 -4.4577,4.47525 z m 72.68625,492.9444 -35.919,-8.95635 0.60255,-3.0303 36.0477,8.9622 z m -35.67915,-10.53 -0.234,1.57365 a 1.73745,1.73745 0 0 1 -1.21095,-1.9422 c 0.23985,-0.8424 1.08225,-1.32795 1.8135,-1.0881 z m -1.3221,0.7254 -47.9817,-108.34785 2.7729,-1.3338 47.9817,108.34785 z m -46.53675,-108.95625 -1.44495,0.6084 c -0.23985,-0.7254 0,-1.6965 0.8424,-2.0592 0.7254,-0.3627 1.69065,0 1.9305,0.7254 z m 0.60255,1.3338 -23.868,12.1095 -1.3221,-2.7846 23.868,-12.1095 z m 46.53675,123.5988 32.90625,16.58475 -1.3221,2.7846 -32.9121,-16.58475 z m 37.3698,-9.0792 14.94675,7.50555 -1.32795,2.90745 -14.94675,-7.6284 z m -111.02715,178.55955 -19.5273,-19.6092 2.1645,-2.18205 19.4103,19.4922 z m 6.9498,27.93375 5.94945,16.2279 -2.7963,1.1115 -6.0723,-16.0992 z m -2.9718,1.2402 -4.46355,-30.0222 3.0186,-0.4797 4.4577,30.0222 z m -2.89575,-30.26205 -1.5678,0.23985 c -0.117,-0.96525 0.48555,-1.6965 1.32795,-1.8135 0.8424,-0.117 1.5678,0.48555 1.69065,1.3338 z m -1.44495,-0.48555 17.9595,-66.222 2.89575,0.8541 -17.9595,66.21615 z m 81.61335,69.3693 -20.9781,15.1281 -1.6848,-2.66175 20.97225,-15.0111 z m 26.1612,15.3738 h -48.3444 v -3.1473 h 48.3444 z m -48.3444,-1.5795 v 1.5795 c -0.8424,0 -1.44495,-0.7254 -1.44495,-1.5795 0,-0.8424 0.60255,-1.5678 1.44495,-1.5678 z m -0.23985,1.5795 -57.2598,-8.9622 0.3627,-3.1473 57.3768,8.9622 z M 94.852902,761.1903 l 12.051008,7.50555 -1.56195,2.6676 -12.056854,-7.50555 z m 15.789158,33.29235 -6.0255,-24.0903 2.8899,-0.7254 6.0255,23.96745 z m -4.58055,-24.453 -1.44495,0.3627 a 1.5561,1.5561 0 0 1 1.08225,-1.93635 1.4508,1.4508 0 0 1 1.8135,1.21095 z m -0.4797,-1.5795 17.9595,-5.92605 0.96525,2.90745 -17.9595,6.0489 z m 86.5566,-144.17325 16.51455,8.95635 -1.4508,2.7846 -16.51455,-9.0792 z m 15.78915,10.29015 0.7254,-1.3338 c 0.71955,0.3627 0.9594,1.3338 0.60255,2.0592 a 1.4859,1.4859 0 0 1 -2.0475,0.7254 z m 0.96525,1.32795 -58.4649,45.0333 -1.8135,-2.41605 58.3479,-45.162 z m -59.04405,43.3719 0.57915,1.6614 c -0.60255,0.6084 -1.5678,0.48555 -2.17035,-0.234 -0.48555,-0.73125 -0.3627,-1.6965 0.35685,-2.18205 z m 0.936,1.2987 -55.452158,82.80675 -2.533046,-1.8135 55.458004,-82.6839 z m -56.657258,81.9585 1.2051,0.84825 a 1.4157,1.4157 0 0 1 -2.047496,0.3627 1.5795,1.5795 0 0 1 -0.48555,-2.18205 z m 1.0881,0.96525 -16.397542,19.61505 -2.287348,-2.0592 16.391694,-19.6092 z m -17.60264,18.52695 1.205098,1.0881 a 1.6497,1.6497 0 0 1 -2.164498,0.117 c -0.6084,-0.60255 -0.73125,-1.5678 -0.12285,-2.1762 z m 0.239848,1.57365 -14.946754,3.02445 -0.60255,-3.1473 15.069606,-3.02445 z m -4.217848,48.42045 10.489046,-9.0792 1.9305,2.4219 -10.489046,8.95635 z m 11.454296,-7.86825 -0.96525,-1.21095 a 1.5485824,1.5485824 0 1 1 1.9305,2.4219 z m 0.117,-1.57365 31.467152,1.57365 -0.12285,3.02445 -31.461302,-1.4508 z m -29.5308,-52.416 31.22145,53.62695 -2.6559,1.57365 -31.0986,-53.62695 z m 29.8935,54.35235 1.32795,-0.7254 c 0.4797,0.7254 0.234,1.6965 -0.48555,2.0592 a 1.5678,1.5678 0 0 1 -2.1645,-0.48555 z m 0.96525,-1.0881 53.527502,46.1214 -2.05335,2.4219 -53.404652,-46.24425 z m 104.276252,-199.2627 17.9595,-8.95635 1.32795,2.7846 -17.9595,8.95635 z m 18.56205,-7.62255 -0.60255,-1.3338 a 1.4859,1.4859 0 0 1 2.0475,0.7254 c 0.3627,0.7254 0,1.6965 -0.71955,2.0592 z m 1.5678,0.117 -1.44495,18.0414 -3.1356,-0.2457 1.5678,-18.03555 z m -116.689958,175.2894 10.489058,-22.6395 2.76705,1.3338 -10.483208,22.6395 z m 11.817008,-21.90825 -1.32795,-0.7254 a 1.55025,1.55025 0 0 1 2.0475,-0.7254 c 0.71955,0.3627 1.08225,1.32795 0.71955,2.05335 z m -1.0881,-1.0881 12.051,-12.1095 2.0475,2.18205 -11.934,12.1095 z m 13.1391,-11.01555 -1.0881,-1.09395 a 1.521,1.521 0 0 1 2.17035,0 1.66725,1.66725 0 0 1 -0.117,2.18205 z m -1.0881,-1.09395 91.377,-85.7025 2.0475,2.2932 -91.377,85.7142 z m 92.34225,-84.6144 -0.96525,-1.09395 a 1.521,1.521 0 0 1 2.17035,0 c 0.48555,0.7254 0.48555,1.6965 -0.117,2.29905 z m -0.71955,-1.3338 31.33845,-21.06 1.69065,2.66175 -31.4613,21.06 z m 32.1867,-19.73205 -0.84825,-1.3338 a 1.5678,1.5678 0 0 1 2.17035,0.48555 1.5795,1.5795 0 0 1 -0.4797,2.18205 z m 1.2051,-0.9711 10.48905,13.5603 -2.2932,1.93635 -10.48905,-13.5603 z m -165.157198,100.35675 17.95949,10.53 -1.561946,2.79045 -17.959494,-10.53 z m 17.23994,11.98665 0.7254,-1.4508 a 1.7433,1.7433 0 0 1 0.60255,2.1762 c -0.48555,0.7254 -1.32795,0.9711 -2.170346,0.6084 z m -1.444946,0.48555 -7.476298,-22.6395 2.89575,-0.96525 7.470444,22.5108 z m 71.001454,57.97935 -28.44855,-18.0297 1.5678,-2.6676 28.44855,18.0414 z m -27.60615,-19.3635 -0.8424,1.3338 a 1.5795,1.5795 0 0 1 -0.4797,-2.18205 c 0.4797,-0.7254 1.3221,-0.96525 2.0475,-0.48555 z m -1.2051,-1.0881 30.01635,-33.0525 2.17035,2.0592 -29.8935,33.0525 z m -6.51105,47.5722 39.546,-4.47525 0.35685,3.1473 -39.54015,4.47525 z m 12.05685,-18.03555 14.94675,-1.4508 0.2457,3.1473 -14.9526,1.4508 z m -32.6664,31.473 -1.5678,18.1584 -3.01275,-0.23985 1.5678,-18.1584 z m -3.01275,18.0414 1.44495,0.117 c 0,0.84825 -0.7254,1.45665 -1.5678,1.45665 a 1.6965,1.6965 0 0 1 -1.44495,-1.6965 z m 1.44495,-0.3627 1.5678,7.62255 -3.01275,0.6084 -1.5678,-7.6284 z m 0,7.86825 1.5678,-0.2457 a 1.6029,1.6029 0 0 1 -1.2051,1.8135 c -0.84825,0.12285 -1.69065,-0.35685 -1.8135,-1.2051 z m 0.117,-1.5795 77.7582,4.60395 -0.117,3.1473 -77.7582,-4.5981 z m 77.5008,5.98455 0.2574,-1.3806 c 0.8424,0 1.5678,0.7254 1.44495,1.57365 a 1.521,1.521 0 0 1 -1.5678,1.5795 z m 0.13455,-1.3806 56.90295,-3.02445 0.117,3.1473 -56.8971,3.02445 z m 56.90295,-1.4508 v -1.5795 c 0.8424,0 1.5678,0.6084 1.5678,1.45665 a 1.6965,1.6965 0 0 1 -1.4508,1.6965 z m -1.4508,-0.48555 1.5678,-4.5981 2.89575,0.96525 -1.5678,4.5981 z m 3.0186,-4.1184 -1.4508,-0.4797 c 0.23985,-0.84825 1.0881,-1.21095 1.9305,-0.9711 0.7254,0.23985 1.2051,1.21095 0.96525,1.93635 z m -1.2051,0.9711 -9.0441,-12.1095 2.4102,-1.8135 9.0441,12.1095 z m -6.52275,-12.02175 -2.52135,-0.0819 c -0.4797,-0.73125 -0.3627,-1.6965 0.3627,-2.18205 a 1.4157,1.4157 0 0 1 2.0475,0.3627 z m -1.5561,0.52065 -17.9595,-3.02445 0.4797,-3.0303 17.9595,3.0303 z m -17.7255,-4.5981 -0.234,1.57365 c -0.84825,-0.12285 -1.32795,-0.9711 -1.21095,-1.8135 0.12285,-0.8541 0.96525,-1.3338 1.69065,-1.2168 z m -0.5967,1.4508 -47.85885,-24.21315 1.3221,-2.7846 47.85885,24.21315 z m -47.2563,-25.66395 -0.60255,1.4508 a 1.4976,1.4976 0 0 1 -0.7254,-2.0592 1.4859,1.4859 0 0 1 2.0475,-0.7254 z m -1.2051,1.0881 -11.934,-15.1281 2.4102,-2.0592 11.934,15.1281 z m -10.7289,-16.0992 -1.2051,0.9711 c -0.48555,-0.73125 -0.3627,-1.6965 0.234,-2.18205 0.6084,-0.60255 1.57365,-0.48555 2.1762,0.117 z m -1.2051,-1.0881 9.03825,-10.53 2.2932,2.05335 -9.0441,10.53 z m 10.1205,-9.56475 -1.08225,-0.9711 c 0.4797,-0.7254 1.44495,-0.7254 2.17035,-0.23985 0.60255,0.60255 0.60255,1.57365 0.117,2.29905 z m -1.44495,0 1.4508,-51.45075 3.01275,0.117 -1.4508,51.33375 z m 3.01275,-51.45075 h -1.56195 c 0,-0.84825 1.638,-3.6738 2.48625,-3.6738 0.8424,0.117 0.6435,2.9484 0.5265,3.79665 z m -2.3517,1.4625 12.84075,-57.7512 2.89575,0.7254 -11.934,55.926 z M 64.842406,758.511 l 10.354506,-7.8507 1.8135,2.54475 -10.489058,7.50555 z m 11.325606,-6.63975 -0.96525,-1.21095 c 0.71955,-0.48555 1.6848,-0.3627 2.1645,0.3627 0.485548,0.7254 0.368548,1.6965 -0.35685,2.18205 z m -1.32795,-0.7254 4.457698,-7.6284 2.6559,1.5795 -4.580548,7.62255 z m 5.791498,-6.786 -1.3338,-0.8424 c 0.48555,-0.7254 1.4508,-0.96525 2.0475,-0.48555 0.7254,0.3627 0.9711,1.3338 0.6084,2.0592 z m -0.9711,-1.32795 6.025498,-4.47525 1.8135,2.5389 -6.025498,4.4811 z m 6.347248,-2.6208 -0.3159,-1.85445 c 0.71955,-0.48555 1.6848,-0.3627 2.1645,0.3627 0.48555,0.60255 0.3627,1.57365 -0.35685,2.1762 z m -0.5616,-1.6146 56.902952,-74.0844 2.4102,1.9305 -56.897102,74.09025 z m 58.108052,-73.11915 -1.2051,-0.96525 c 0.4797,-0.73125 1.44495,-0.84825 2.1645,-0.2457 0.6084,0.48555 0.7254,1.4508 0.2457,2.18205 z m -0.96525,-1.21095 47.85885,-40.7979 1.9305,2.3049 -47.85885,40.9149 z m 48.8241,-39.58695 -0.96525,-1.21095 c 0.7254,-0.60255 1.6848,-0.4797 2.1645,0.12285 0.48555,0.7254 0.48555,1.6965 -0.234,2.18205 z m -1.32795,0.73125 -32.9121,-60.52995 2.6559,-1.5795 32.9121,60.5358 z m -31.58415,-61.2612 -1.32795,0.7254 a 1.7433,1.7433 0 0 1 0.6084,-2.18205 c 0.71955,-0.3627 1.6848,-0.117 2.0475,0.6084 z m -1.32795,0.60255 -12.051,-27.2376 2.7729,-1.21095 12.051,27.11475 z m -10.60605,-27.846 -1.44495,0.6084 c -0.3627,-0.7254 0,-1.6965 0.71955,-2.0592 0.84825,-0.3627 1.69065,0 2.0475,0.84825 z m -1.44495,0.73125 -8.92125,-18.1584 2.65005,-1.45665 9.0441,18.1584 z m -7.5933,-18.8838 -1.32795,0.7254 c -0.3627,-0.84825 -0.117,-1.6965 0.60255,-2.18205 a 1.55025,1.55025 0 0 1 2.0475,0.7254 z m -0.84825,1.2051 -33.02325,-24.1956 1.8135,-2.54475 32.90625,24.21315 z m -69.147006,236.82555 12.103656,23.6106 -2.690998,1.521 -12.103656,-23.6106 z m 10.764006,24.3711 1.33965,-0.7605 c 0.36855,0.7605 0.117,1.7784 -0.6084,2.15865 -0.7371,0.5031 -1.714048,0.12285 -2.082598,-0.63765 z m 0.73125,-1.39815 18.211042,11.0448 -1.4625,2.79045 -18.21689,-11.03895 z m 17.479792,12.44295 0.73125,-1.39815 c 0.7371,0.38025 1.0998,1.39815 0.61425,2.15865 a 1.36305,1.36305 0 0 1 -2.0826,0.6318 z m 0.117,-1.6497 16.754408,1.6497 -0.2457,3.1707 -16.748558,-1.521 z m 16.631558,3.2994 0.117,-1.6497 c 0.85995,0 1.46835,0.8892 1.3455,1.77255 0,0.8892 -0.73125,1.521 -1.58535,1.404 z m -1.46835,-0.63765 4.52205,-12.5658 2.9367,1.14075 -4.5279,12.57165 z m 5.733,-11.54205 -1.21095,-1.02375 a 1.66725,1.66725 0 0 1 2.07675,-1.01205 1.84275,1.84275 0 0 1 0.85995,2.1528 z m -0.96525,-1.5327 6.11325,-7.86825 2.4453,2.02995 -6.11325,7.8741 z m 7.3359,-6.85035 -1.2285,-1.0179 c 0.4914,-0.7605 1.4742,-0.7605 2.20545,-0.25155 0.6084,0.50895 0.73125,1.6497 0.2457,2.2815 z m -1.5912,-0.2574 1.5912,-11.03895 3.0537,0.5031 -1.5912,11.0448 z m -11.77605,20.0421 7.4646,32.6898 -2.8899,0.73125 -7.4763,-32.6898 z m 6.0255,33.0525 1.44495,-0.36855 a 1.5561,1.5561 0 0 1 -1.08225,1.93635 c -0.8424,0.12285 -1.69065,-0.3627 -1.8135,-1.2051 z m 1.32795,-0.73125 22.54005,44.6706 -2.7729,1.3338 -22.42305,-44.54775 z m 21.2121,45.279 1.32795,-0.6084 c 0.3627,0.7254 0,1.6965 -0.71955,2.0592 a 1.4859,1.4859 0 0 1 -2.0475,-0.7254 z m 1.32795,0.7254 -6.0255,11.8638 -2.6559,-1.3338 5.9085,-11.8638 z m -7.22475,10.6119 1.19925,1.2519 a 1.4859,1.4859 0 0 1 -2.0475,0.7254 c -0.7254,-0.3627 -1.0881,-1.3338 -0.6084,-2.0592 z m -1.09395,1.85445 -13.5018,-10.413 1.9305,-2.5389 13.37895,10.413 z m -12.53655,-11.6181 -0.96525,1.21095 c -0.60255,-0.48555 -0.71955,-1.45665 -0.234,-2.18205 0.4797,-0.7254 1.4391,-0.84825 2.1645,-0.3627 z m -0.96525,1.21095 -44.963098,-38.7387 1.9305,-2.29905 44.963098,38.61 z m -43.997848,-39.83265 -0.96525,1.09395 c -0.60255,-0.48555 -0.7254,-1.45665 -0.117,-2.18205 a 1.3806,1.3806 0 0 1 2.0475,-0.117 z m -1.0881,1.09395 -40.382556,-43.09695 2.170348,-2.18205 40.382558,43.09695 z m -39.300308,-44.18505 -1.082248,1.0881 a 1.69065,1.69065 0 0 1 0,-2.29905 1.6497,1.6497 0 0 1 2.170348,0.117 z m -1.561948,0 v -4.4811 h 3.012748 v 4.4811 z m 1.561948,-4.4811 h -1.561948 c 0,-0.84825 0.719548,-1.5795 1.561948,-1.5795 0.84825,0 1.4508,0.73125 1.4508,1.5795 z m -0.9594,-1.21095 19.527304,-14.88825 1.8135,2.5389 -19.539004,14.77125 z m 20.369704,-13.6773 -0.8424,-1.21095 a 1.4157,1.4157 0 0 1 2.0475,0.3627 c 0.60255,0.60255 0.3627,1.57365 -0.234,2.1762 z m -0.8424,-1.3338 13.501796,-8.8335 1.6848,2.5389 -13.501796,8.95635 z M 239.38886,650.9061 l 4.46355,-25.5411 3.01275,0.48555 -4.4577,25.5411 z m 6.0255,-25.2954 -1.56195,-0.2457 c 0.23985,-0.84825 0.96525,-1.4508 1.80765,-1.32795 0.8424,0.117 1.32795,0.96525 1.2051,1.8135 z m -1.56195,0.3627 -26.88075,-112.82895 2.8899,-0.7254 27.0036,112.8231 z m -105.48135,-1.81935 14.94675,-7.50555 1.32795,2.7846 -14.94675,7.50555 z m -17.71965,-99.26865 17.9595,-6.0489 0.8424,3.02445 -17.9595,5.9319 z m 28.92825,133.7661 2.89575,-15.00525 3.01275,0.60255 -3.01275,15.0111 z m 4.46355,-14.64255 -1.5678,-0.3627 a 1.59705,1.59705 0 0 1 1.80765,-1.21095 1.6029,1.6029 0 0 1 1.2051,1.8135 z m -1.5678,0 V 617.0112 h 3.01275 v 26.99775 z m 0,-26.99775 v -53.98965 h 3.01275 v 53.9955 z m 1.5678,-53.98965 h -1.5678 c 0,-0.84825 0.71955,-1.57365 1.5678,-1.57365 0.8424,0 1.44495,0.7254 1.44495,1.57365 z m -1.4508,0.48555 -7.47045,-25.54695 2.8899,-0.8424 7.4763,25.41825 z m 79.326,-54.1125 25.4358,90.1836 -2.89575,0.84825 -25.5528,-90.1836 z m 23.985,90.675 1.4508,-0.4914 a 1.5561,1.5561 0 0 1 -1.0881,1.93635 c -0.8424,0.2457 -1.6848,-0.234 -1.80765,-1.0881 z m 1.4508,-0.2457 4.4577,33.0525 -3.01275,0.4797 -4.4577,-33.1695 z m 3.01275,33.2865 1.44495,-0.234 c 0.117,0.8424 -0.3627,1.69065 -1.2051,1.8135 a 1.6146,1.6146 0 0 1 -1.80765,-1.3338 z m 1.44495,0.48555 -9.03825,31.59585 -2.89575,-0.96525 9.0441,-31.59585 z m -10.48905,31.11615 1.4508,0.4797 c -0.117,0.73125 -0.96525,1.21095 -1.8135,0.9711 a 1.5561,1.5561 0 0 1 -1.08225,-1.93635 z m 0.7254,1.32795 -50.9886,25.66395 -1.3221,-2.7846 50.9886,-25.66395 z m -51.597,24.21315 0.60255,1.4508 c -0.71955,0.3627 -1.56195,0 -1.9305,-0.7254 -0.35685,-0.84825 -0.117,-1.6965 0.6084,-2.0592 z m 1.0881,1.21095 -76.43025,73.59885 -2.0475,-2.18205 76.3074,-73.7217 z M 124.02686,421.0245 v 21.06 h -3.0186 v -21.06 z m -1.4508,21.06 h 1.4508 c 0,0.84825 -0.60255,1.5795 -1.4508,1.5795 a 1.59705,1.59705 0 0 1 -1.5678,-1.5795 z m 1.4508,0.117 -1.4508,30.02805 -3.01275,-0.117 1.44495,-30.1509 z m -3.0186,30.02805 h 1.5678 c 0,0.84825 -0.71955,1.57365 -1.5678,1.4508 -0.8424,0 -1.56195,-0.7254 -1.44495,-1.57365 z m 1.0881,-1.21095 40.38255,36.0711 -1.9305,2.3049 -40.49955,-36.07695 z m -24.113708,10.29015 22.423058,-10.53 1.32795,2.77875 -22.540058,10.53 z M 83.15876,443.664 l 38.9376,-13.56615 0.96525,2.90745 -38.937602,13.5603 z m 39.4173,-12.1095 -0.4797,-1.45665 c 0.7254,-0.234 1.6848,0.12285 1.9305,0.9711 a 1.58535,1.58535 0 0 1 -0.96525,1.93635 z m -0.117,-1.5795 38.9376,-3.02445 0.23985,3.1473 -38.9376,3.0303 z m -32.309552,-23.96745 33.029102,13.5603 -1.2051,2.90745 -32.906252,-13.5603 z m 32.426552,15.0111 0.60255,-1.4508 a 1.7316,1.7316 0 0 1 0.84825,2.0592 c -0.3627,0.7254 -1.2051,1.21095 -2.0475,0.84825 z m -0.4797,-1.4508 31.4613,-10.53 0.96525,2.9016 -31.4613,10.53 z m 2.0475,268.74315 13.5018,-34.49745 2.7729,1.21095 -13.5018,34.5033 z m 14.94675,-33.88905 -1.44495,-0.6084 c 0.23985,-0.7254 1.2051,-1.21095 1.9305,-0.84825 0.8424,0.3627 1.2051,1.21095 0.8424,2.0592 z m -1.56195,0 v -30.0222 h 3.01275 v 30.0222 z m 1.56195,-30.0222 h -1.56195 c 0,-0.84825 0.71955,-1.5795 1.56195,-1.5795 0.7254,0 1.4508,0.73125 1.4508,1.5795 z m -1.56195,0.4797 -10.48905,-37.52775 3.01275,-0.8424 10.48905,37.52775 z m -8.92125,-37.89045 -1.5678,0.3627 c -0.23985,-0.7254 0.23985,-1.6965 1.08225,-1.9305 0.8424,-0.12285 1.69065,0.234 1.9305,1.0881 z m -1.5678,0.2457 -7.4763,-37.41075 3.01275,-0.60255 7.4763,37.4049 z m -6.28875,-36.19395 -1.18755,-1.2168 c -0.117,-0.8424 0.3627,-1.6965 1.2051,-1.8135 0.8424,-0.23985 1.5678,0.3627 1.8135,1.21095 z m -1.18755,-1.5795 V 525.4938 h 3.01275 v 23.96745 z m 1.44495,-23.96745 h -1.44495 c 0,-0.84825 0.60255,-1.57365 1.44495,-1.57365 0.84825,0 1.5678,0.7254 1.5678,1.57365 z m -0.9594,1.0881 -7.59915,-7.50555 2.17035,-2.1762 7.4763,7.50555 z m -6.51105,-8.59365 -1.0881,1.0881 c -0.60255,-0.48555 -0.60255,-1.57365 0,-2.1762 a 1.521,1.521 0 0 1 2.17035,0 z m -1.44495,0.48555 -4.46355,-15.0111 2.89575,-0.84825 4.4577,14.88825 z m -2.925,-14.8473 -1.53855,-0.1638 a 1.58535,1.58535 0 0 1 0.96525,-1.93635 1.5444,1.5444 0 0 1 1.9305,1.0881 z m -1.4157,0.1989 -14.952604,-28.5714 2.655896,-1.4508 14.946758,28.44855 z m -13.624658,-29.2968 -1.327946,0.7254 c -0.4797,-0.7254 -0.117,-1.6965 0.60255,-2.0592 0.725396,-0.4797 1.690646,-0.117 2.047496,0.6084 z m -1.444946,0.60255 -10.489046,-30.0222 2.895748,-1.0881 10.483194,30.0222 z m -9.044096,-30.5019 -1.44495,0.4797 a 1.6731,1.6731 0 0 1 0.96525,-2.05335 c 0.7254,-0.2457 1.567798,0.23985 1.930498,0.96525 z m -1.5678,-0.3627 6.025498,-37.41075 3.018598,0.48555 -6.025498,37.52775 z m 7.476298,-37.16505 -1.44495,-0.2457 c 0.117,-0.84825 0.96525,-1.4508 1.6848,-1.32795 0.848248,0.117 1.450798,0.96525 1.327948,1.8135 z m -1.32795,-0.7254 30.016352,-57.01995 2.6559,1.57365 -29.893504,56.8971 z m 32.672252,-55.4463 -2.6559,-1.5795 c 0.3627,-0.71955 1.32795,-0.96525 2.0475,-0.60255 0.7254,0.36855 0.9711,1.3338 0.6084,2.18205 z m -2.7729,-0.23985 -19.410308,-57.01995 2.380958,-2.01825 19.91925,57.94425 z m 16.6374,-29.6595 -17.7255,-32.4441 2.6559,-1.5795 17.71965,32.44995 z m 22.3002,-11.3841 4.4577,-30.26205 3.0186,0.48555 -4.82625,30.0222 z m 12.89925,-0.60255 -11.21445,1.6965 -0.4797,-3.1473 11.33145,-1.6965 z m -11.4543,0.117 0.23985,1.5795 c -0.8424,0.117 -1.5678,-0.48555 -1.6848,-1.3338 -0.117,-0.84825 0.3627,-1.6965 1.2051,-1.8135 z m 1.44495,-0.60255 32.19255,89.82675 -2.89575,1.0881 -32.1867,-89.82675 z m 30.74175,90.3123 1.4508,-0.48555 c 0.234,0.84825 -0.12285,1.6965 -0.96525,1.9305 -0.7254,0.36855 -1.69065,-0.117 -1.9305,-0.8424 z m 1.4508,-0.48555 11.2086,28.6884 -2.7729,1.21095 -11.33145,-28.81125 z m -60.63525,-119.0007 6.0255,40.67505 -3.0186,0.48555 -6.0255,-40.67505 z m 4.5747,40.9149 1.4508,-0.23985 a 1.5093,1.5093 0 0 1 -1.2051,1.6965 c -0.84825,0.117 -1.69065,-0.3627 -1.8135,-1.21095 z m 1.4508,-0.60255 17.9595,49.6314 -2.89575,1.09395 -17.9595,-49.63725 z m 37.4868,124.3242 -22.6863,-74.60505 3.159,-0.0877 22.42305,73.84455 z m 31.707,-0.35685 -14.94675,3.0186 -0.60255,-3.1473 14.94675,-3.02445 z m -14.65425,1.31625 -0.2925,1.70235 a 1.6029,1.6029 0 1 1 -0.60255,-3.1473 z m -0.77805,1.70235 -19.40445,-1.57365 0.234,-3.02445 19.4103,1.4508 z m -6.99075,25.0614 5.66865,21.33495 -3.0186,1.05885 -5.5458,-21.4695 z m 4.21785,32.0814 -1.5678,-10.0503 3.0186,0.48555 z m 0,-9.8046 -1.5678,-0.2457 a 1.6146,1.6146 0 0 1 1.8135,-1.32795 c 0.71955,0.117 1.3221,0.96525 1.2051,1.8135 z m 1.4508,-0.2457 1.44495,11.98665 -3.01275,0.48555 -1.4508,-12.1095 z m -17.4798,-48.0636 11.817,26.0325 -2.77875,1.3338 -11.817,-26.0325 z m 10.4832,26.7579 1.32795,-0.7254 c 0.3627,0.84825 0,1.6965 -0.7254,2.0592 a 1.4859,1.4859 0 0 1 -2.0475,-0.7254 z m 0.7254,-1.32795 8.92125,5.80905 -1.5678,2.66175 -8.92125,-5.80905 z m 8.073,7.137 0.84825,-1.32795 a 1.5795,1.5795 0 0 1 0.4797,2.1762 c -0.4797,0.73125 -1.3221,0.84825 -2.0475,0.48555 z m 0.12285,-1.57365 23.751,1.45665 -0.23985,3.1473 -23.634,-1.4508 z m 23.634,3.0303 0.117,-1.5795 c 0.8424,0 1.44495,0.73125 1.44495,1.5795 -0.117,0.96525 -0.8424,1.57365 -1.6848,1.57365 z m -0.36855,-1.5795 10.37205,-2.9016 0.71955,3.02445 -10.3662,2.90745 z m -48.9411,-41.7573 6.87375,6.6573 -2.0475,2.29905 -6.87375,-6.78015 z m 5.7915,7.7454 1.08225,-1.0881 a 1.53855,1.53855 0 0 1 0,2.1762 1.3806,1.3806 0 0 1 -2.0475,0.117 z m 1.4391,0.60255 -1.90125,6.3765 -3.8142,-8.55855 2.94255,1.09395 z m 30.00465,-209.7342 4.3992,13.37895 -2.7378,1.2051 -4.3992,-13.2444 z m 3.0888,13.91715 1.3104,-0.53235 c 0.351,0.80145 0,1.872 -0.83655,2.13525 -0.7137,0.40365 -1.6614,0 -1.90125,-0.936 z m 1.4274,0 1.5444,54.8496 -3.0888,0.13455 -1.4274,-54.8496 z m 0,54.8496 h 1.5444 c 0,0.936 -0.7137,1.7433 -1.5444,1.7433 -0.8307,0 -1.4274,-0.67275 -1.5444,-1.60875 z m 1.5444,0 1.4274,141.2775 -2.9718,0.13455 -1.5444,-141.2775 z m -0.3159,140.60475 1.7433,0.6786 c 0,0.936 -0.0761,1.0881 -0.90675,1.0881 -3.0069,-0.2106 -0.7956,-1.4508 -0.83655,-1.7667 z m -23.81535,-245.62395 -7.47045,28.6884 -2.89575,-0.8424 7.4763,-28.5714 z m -89.762408,32.47335 7.528958,-28.86975 2.8899,0.7605 -7.458758,28.24965 z m 8.973908,-28.4895 -1.44495,-0.38025 a 1.3806,1.3806 0 0 1 1.80765,-1.1349 c 0.8424,0.25155 1.3221,1.1349 1.08225,1.8954 z m -1.3221,-0.7605 10.4598,-20.4282 2.65005,1.638 -10.46565,20.30535 z m 11.7819,-19.6677 -1.3221,-0.7605 c 0.3627,-0.75465 1.3221,-1.0062 2.0475,-0.62595 0.71955,0.5031 0.9594,1.38645 0.60255,2.2698 z m -0.5967,-1.38645 23.9265,-10.9746 1.08225,2.9016 -23.8095,10.96875 z m 24.52905,-9.45945 -0.60255,-1.51515 c 0.7254,-0.38025 1.5678,0 1.9305,0.7605 0.35685,0.8775 0,1.88955 -0.84825,2.1411 z m 0.3627,-1.638 26.8164,7.8156 -0.71955,3.15315 -26.93925,-7.82145 z m 26.4537,9.4536 0.3627,-1.638 a 1.63215,1.63215 0 0 1 1.08225,2.01825 1.3806,1.3806 0 0 1 -1.8018,1.1349 z m 1.08225,-1.1349 16.4736,18.7902 -2.1645,2.2698 -16.4736,-18.91305 z m 15.39135,19.9251 1.08225,-1.1349 c 0.60255,0.6318 0.48555,1.638 -0.117,2.2698 -0.60255,0.6318 -1.56195,0.6318 -2.0475,0 z m 1.2051,-1.0062 4.446,6.3063 -2.3985,1.88955 -4.45185,-6.1776 z m 3.24675,7.18965 1.2051,-0.88335 c 0.4797,0.6318 0.35685,1.638 -0.2457,2.2698 -0.71955,0.5031 -1.67895,0.3744 -2.1645,-0.38025 z m -1.3221,0.75465 -11.5947,-28.0449 2.34,-1.5912 12.3435,29.10375 z m -23.166,7.06095 14.94675,9.0792 -1.44495,2.6676 -14.94675,-8.9622 z m -18.3222,-4.5981 17.9595,4.4811 -0.71955,3.02445 -17.9595,-4.4811 z m -21.4578,1.4508 21.4578,-1.4508 -0.23985,3.02445 -20.9781,1.45665 z m -15.795,12.34935 14.94675,-12.1095 1.9305,2.54475 -15.0696,11.98665 z m 54.8496,58.35375 -1.5678,-65.61945 3.0186,-0.117 1.5678,65.7306 z m 0,-65.61945 h -1.5678 c 0,-0.8424 0.7254,-1.57365 1.5678,-1.57365 0.84825,0 1.4508,0.6084 1.4508,1.45665 z m -1.5678,-0.234 4.5864,-35.1117 3.01275,0.3627 -4.58055,35.10585 z m -19.40445,-42.7401 7.47045,43.6995 -3.01275,0.48555 -7.47045,-43.5825 z m 6.0255,43.9452 1.44495,-0.23985 a 1.6029,1.6029 0 0 1 -1.2051,1.8135 1.62045,1.62045 0 0 1 -1.80765,-1.3338 z m 1.44495,0 -1.44495,36.19395 -3.01275,-0.117 1.44495,-36.1998 z m -3.01275,36.07695 1.5678,0.117 c 0,0.84825 -0.7254,1.45665 -1.5678,1.45665 -0.8424,0 -1.5678,-0.73125 -1.44495,-1.5795 z m 1.5678,-0.12285 1.44495,27.11475 -3.01275,0.12285 -1.44495,-26.99775 z m -19.5273,28.81125 -6.0255,-69.1236 3.01275,-0.3627 6.0255,69.24645 z m -4.46355,-69.24645 -1.5678,0.117 c 0,-0.8424 0.60255,-1.69065 1.4508,-1.69065 a 1.33965,1.33965 0 0 1 1.5678,1.3338 z m -1.44495,0.3627 -7.4763,-28.56555 2.89575,-0.84825 7.4763,28.5714 z m -15.0696,-9.68175 4.46355,34.6203 -2.89575,0.3627 -4.4811,-33.8013 z m 2.7495,33.6843 1.71405,0.936 c 0.117,0.84825 -0.3627,1.6965 -1.2051,1.8135 -0.84825,0 -1.69065,-0.60255 -1.69065,-1.4508 z m 1.71405,0.819 6.0255,33.1695 -3.01275,0.4797 -5.9085,-33.04665 z m 4.58055,33.40935 1.44495,-0.23985 c 0.117,0.8424 -0.3627,1.6965 -1.2051,1.8135 -0.8424,0.117 -1.5678,-0.48555 -1.8135,-1.3338 z m 1.44495,-0.117 1.5678,11.9808 -3.01275,0.3627 -1.5678,-11.98665 z m 0,11.44845 1.5678,0.53235 c 0,0.84825 -0.48555,1.5795 -1.32795,1.6965 -0.8424,0.117 -1.5678,-0.48555 -1.6848,-1.3338 z m -0.117,-0.80145 23.868,-3.02445 0.35685,3.02445 -23.868,3.0303 z m 23.65155,-1.4508 0.21645,-1.57365 c 0.8424,-0.117 1.6848,0.48555 1.6848,1.3338 0.117,0.84825 -0.4797,1.6965 -1.32795,1.6965 z m 0.4563,-1.57365 36.04185,1.4508 -0.117,3.1473 -36.8901,-1.5795 z m 35.919,3.02445 0.12285,-1.57365 a 1.6965,1.6965 0 0 1 1.44495,1.6965 c -0.117,0.84825 -0.71955,1.4508 -1.56195,1.4508 z m -1.56195,0 V 231.5664 h 3.12975 V 279.63 Z m 0,-48.05775 v -25.66395 h 3.12975 v 25.66395 z m 1.5678,-25.66395 h -1.5678 c 0,-0.84825 0.71955,-1.57365 1.5678,-1.57365 0.8424,0 1.56195,0.7254 1.56195,1.5795 z m -1.4508,-0.117 1.4508,-13.5603 3.01275,0.3627 -1.4508,13.55445 z m -8.92125,-41.769 2.2464,16.5204 -3.9312,-1.872 -1.32795,-14.2857 z m -52.5564,18.1584 -3.01275,-15.0111 3.01275,-0.60255 3.01275,15.0111 z m 17.96535,-38.376 8.9154,26.99775 -2.7729,1.0881 -9.03825,-27.11475 z m 46.88775,36.1998 -4.58055,-3.0303 1.69065,-2.5389 4.4577,3.02445 z m -3.7323,-4.24125 -0.84825,1.21095 c -0.60255,-0.48555 -0.8424,-1.32795 -0.3627,-2.0592 0.3627,-0.7254 1.32795,-0.96525 2.0475,-0.4797 z m -1.0881,0.9711 -14.94675,-16.4619 2.1645,-2.0592 14.9526,16.4619 z m -13.8645,-17.433 -1.08225,0.9711 a 1.53855,1.53855 0 0 1 0,-2.18205 c 0.60255,-0.60255 1.5678,-0.48555 2.1645,0.117 z m -1.08225,1.0881 -13.5018,-13.5486 2.0475,-2.18205 13.62465,13.43745 z m -12.41955,-14.6484 -1.08225,1.09395 a 1.53855,1.53855 0 0 1 0,-2.18205 1.3806,1.3806 0 0 1 2.0475,0 z m -0.117,1.5795 -16.51455,-1.45665 0.234,-3.1473 16.5204,1.4508 z m -16.39755,-3.03615 -0.117,1.57365 a 1.6965,1.6965 0 0 1 -1.4508,-1.6965 c 0.117,-0.84825 0.84825,-1.57365 1.69065,-1.4508 z m 1.0881,1.0881 -7.59915,7.50555 -2.0475,-2.29905 7.4763,-7.3827 z m -8.55855,6.41745 0.9594,1.0881 a 1.521,1.521 0 0 1 -2.1645,0 1.8369,1.8369 0 0 1 0.117,-2.29905 z m 1.2051,0.84825 -25.564508,37.4049 -2.40435,-1.6965 25.435808,-37.52775 z m -26.763758,36.5625 1.2051,0.8424 a 1.4157,1.4157 0 0 1 -2.0475,0.3627 1.4274,1.4274 0 0 1 -0.3627,-2.0592 z m 1.44495,0.35685 -10.489044,43.4655 -3.01275,-0.8541 10.611894,-43.3368 z m -11.542044,41.38875 1.053,2.0709 c -0.234,0.84825 -1.08225,1.3338 -1.80765,1.09395 a 1.73745,1.73745 0 0 1 -1.2051,-1.9422 z m 1.053,1.83105 -4.457698,31.473 -3.01275,-0.48555 4.457698,-31.356 z m -6.025498,31.23315 1.5678,0.23985 c -0.117,0.84825 -0.96525,1.45665 -1.69065,1.3338 a 1.62045,1.62045 0 0 1 -1.3221,-1.8135 z m 1.5678,0.117 -1.44495,34.38045 -3.1356,-0.117 1.5678,-34.38045 z m -2.7495,32.409 1.30455,1.97145 c -0.12285,0.84825 -0.84825,1.5795 -1.69065,1.5795 a 1.6965,1.6965 0 0 1 -1.44495,-1.6965 z m 1.30455,1.85445 4.457698,79.2909 -3.012748,0.23985 -4.58055,-79.41375 z m 2.889898,79.41375 1.5678,-0.12285 c 0,0.9711 -0.60255,1.6965 -1.44495,1.6965 -0.842398,0 -1.567798,-0.6084 -1.567798,-1.45665 z m 1.44495,-0.48555 7.599148,23.96745 -2.89575,0.9711 -7.593296,-23.9733 z m 63.531002,-247.91715 -1.5678,16.4619 -3.01275,-0.23985 1.5678,-16.58475 z m 53.1648,-46.0044 6.0255,-3.02445 1.32795,2.7846 -6.0255,3.02445 z m 6.62805,-1.6965 -0.60255,-1.32795 a 1.4859,1.4859 0 0 1 2.0475,0.7254 c 0.3627,0.7254 0,1.6965 -0.71955,2.0592 z m 0,-1.4508 h 3.01275 v 3.02445 h -3.01275 z m -36.6444,10.0503 16.3917,8.95635 -1.3221,2.7846 -16.51455,-9.0792 z m 14.46705,-5.93775 6.7509,2.79045 -1.2051,2.9016 -6.7509,-2.7846 z m 6.1425,4.24125 0.6084,-1.4508 a 1.7316,1.7316 0 0 1 0.8424,2.05335 c -0.3627,0.84825 -1.2051,1.21095 -2.0475,0.84825 z m 0,-1.5795 h 8.44155 v 3.15315 h -8.4357 z m 8.44155,1.5795 v -1.5795 c 0.8424,0 1.44495,0.73125 1.44495,1.5795 0,0.84825 -0.60255,1.57365 -1.44495,1.57365 z m -0.96525,-1.21095 1.69065,-1.3338 1.9305,2.4219 -1.6965,1.3338 z m 2.6559,-0.117 -0.96525,-1.2168 c 0.60255,-0.60255 1.5678,-0.4797 2.1645,0.2457 0.48555,0.60255 0.3627,1.57365 -0.234,2.1762 z m -1.5678,0 0.8424,-3.87855 2.1645,1.0881 v 2.7846 z m -13.62465,0.4797 2.89575,4.4811 -2.4102,1.8135 -3.25845,-5.08365 z m 1.69065,5.3235 1.2051,-0.8424 c 0.4797,0.7254 0.35685,1.6965 -0.3627,2.1762 -0.7254,0.48555 -1.69065,0.3627 -2.0475,-0.3627 z m 1.44495,0.36855 -1.44495,7.50555 -3.0186,-0.6084 1.5678,-7.50555 z m -2.89575,7.25985 1.4508,0.2457 c -0.2457,0.84825 -0.96525,1.4508 -1.8135,1.21095 -0.8424,-0.12285 -1.3221,-0.9711 -1.2051,-1.8135 z m 0.3627,-1.57365 19.5273,6.05475 -0.9594,3.02445 -19.4103,-6.0489 z m 19.0476,7.50555 0.4797,-1.4508 a 1.58535,1.58535 0 0 1 0.96525,1.93635 1.5444,1.5444 0 0 1 -1.9305,1.0881 z m -1.08225,-1.0881 3.01275,-3.02445 2.1645,2.29905 -3.01275,2.90745 z m 2.76705,-1.21095 0.2457,-1.8135 c 0.60255,-0.6084 1.80765,-0.12285 2.4102,0.4797 0.60255,0.6084 0.3627,1.21095 -0.23985,1.8135 z m 0,0 -1.56195,-3.02445 2.7729,-1.3338 2.68515,4.6332 -0.6435,-0.2808 z m -0.234,-3.627 -1.32795,0.60255 c -0.3627,-0.7254 0,-1.6965 0.71955,-2.0592 a 1.4859,1.4859 0 0 1 2.0475,0.7254 z m -1.32795,0.60255 -3.0186,-9.20205 2.89575,-0.96525 2.89575,8.9505 z m -1.5678,-9.6876 -1.4508,0.48555 c -0.35685,-0.84825 0.12285,-1.6965 0.96525,-1.93635 0.7254,-0.23985 1.5678,0.117 1.9305,0.9711 z m -1.32795,0.84825 -3.01275,-4.4811 2.53305,-1.8135 3.01275,4.5981 z m 6.99075,-15.85935 -7.47045,-1.4508 0.60255,-3.1473 7.47045,1.57365 z m -6.7158,-2.89575 -0.7605,1.44495 c -0.8424,-0.23985 -1.44495,-1.0881 -1.19925,-1.93635 0.117,-0.84825 0.9594,-1.3338 1.80765,-1.21095 z m -0.1521,1.44495 -7.59915,1.4508 -0.4797,-3.02445 7.4763,-1.5795 z m -7.839,-0.117 0.23985,1.5678 c -0.71955,0.12285 -1.5678,-0.3627 -1.6848,-1.21095 a 1.4625,1.4625 0 0 1 1.2051,-1.8135 z m 0.8424,1.32795 -12.051,7.50555 -1.5678,-2.66175 12.051,-7.50555 z m -12.7764,6.17175 0.7254,1.3338 c -0.7254,0.48555 -1.5678,0.23985 -2.0475,-0.48555 a 1.5795,1.5795 0 0 1 0.4797,-2.1762 z m 1.44495,-0.3627 1.4508,6.05475 -2.89575,0.7254 -1.5678,-5.9319 z m -49.1868,28.9341 11.934,1.57365 -0.351,3.02445 -11.93985,-1.4508 z m 11.7,3.02445 0.234,-1.4508 c 0.84825,0 1.4508,0.84825 1.3338,1.6965 -0.12285,0.84825 -0.84825,1.4508 -1.69065,1.32795 z m 1.08225,-1.0881 23.868,21.06 -1.9305,2.3049 -23.985,-21.06 z m 34.35705,38.7387 -14.94675,-6.05475 1.08225,-2.9016 14.9526,6.0489 z m -14.46705,-7.50555 -0.4797,1.4508 c -0.8424,-0.3627 -1.2051,-1.21095 -0.8424,-2.0592 0.234,-0.7254 1.2051,-1.2051 1.9305,-0.8424 z m -1.44495,-0.48555 3.01275,-9.0792 2.89575,0.9711 -3.01275,9.0792 z m -20.12985,-15.85935 22.42305,15.0111 -1.5678,2.6676 -22.5459,-15.13395 z m 21.5748,16.3449 0.84825,-1.3338 a 1.5795,1.5795 0 0 1 0.4797,2.18205 c -0.4797,0.7254 -1.44495,0.96525 -2.0475,0.48555 z m 1.4508,-0.6084 9.03825,22.5225 -2.89575,1.2051 -8.9154,-22.51665 z m 37.60965,-10.76985 -32.5494,-2.66175 0.23985,-3.15315 32.42655,2.90745 z m -32.42655,-4.24125 -0.12285,1.5795 a 1.50345,1.50345 0 0 1 -1.32795,-1.6965 c 0,-0.84825 0.84825,-1.5795 1.5678,-1.45665 z m -1.32795,-0.60255 12.2967,-28.08 2.7729,1.32795 -12.2967,27.963 z m -4.7034,-52.90155 15.0696,6.41745 -1.2051,2.9016 -14.94675,-6.4116 z m -29.0511,52.53885 h 6.0255 v 3.1473 h -6.0255 z m 6.0255,1.57365 v -1.57365 a 1.521,1.521 0 0 1 1.5678,1.57365 1.59705,1.59705 0 0 1 -1.5678,1.57365 z m -1.44495,-0.23985 1.44495,-15.0111 3.0186,0.3627 -1.4508,15.0111 z m 2.89575,-14.8941 -1.4508,-0.117 c 0.12285,-0.84825 0.84825,-1.45665 1.69065,-1.3338 0.8424,0 1.44495,0.84825 1.32795,1.6965 z m -1.2051,-0.7254 4.4577,-7.50555 2.65005,1.5795 -4.58055,7.4997 z m -14.7069,-15.3738 20.97225,7.50555 -0.96525,3.02445 -20.97225,-7.62255 z m -4.2237,-22.39965 14.9526,8.9622 -1.5678,2.7846 -14.9526,-9.0792 z m 58.1022,65.25675 -11.934,-10.53 1.9305,-2.3049 12.05685,10.53 z m -10.9629,-11.62395 -0.96525,1.0881 c -0.60255,-0.48555 -0.7254,-1.4508 -0.117,-2.1762 a 1.3806,1.3806 0 0 1 2.0475,-0.117 z m -1.2051,0.84825 -13.5018,-18.0414 2.4102,-1.8135 13.5018,18.03555 z m -12.2967,-18.8838 -1.2051,0.8424 c -0.48555,-0.60255 -0.3627,-1.57365 0.35685,-2.1762 a 1.4157,1.4157 0 0 1 2.0475,0.3627 z m -0.60255,1.32795 -9.0441,-4.47525 1.32795,-2.7846 9.03825,4.47525 z m -8.3187,-5.9319 -0.7254,1.45665 c -0.7254,-0.3627 -1.08225,-1.3338 -0.7254,-2.0592 a 1.4859,1.4859 0 0 1 2.0475,-0.7254 z m -1.4508,0.7254 -10.3662,-21.06 2.6559,-1.45665 10.4832,21.06585 z m -9.03825,-21.7854 -1.32795,0.7254 c -0.4797,-0.7254 -0.117,-1.6965 0.60255,-2.0592 0.7254,-0.3627 1.69065,-0.117 2.0475,0.60255 z m -1.5678,-0.12285 1.5678,-13.5603 3.01275,0.3627 -1.5678,13.5603 z m 3.01275,-13.43745 -1.44495,-0.117 c 0,-0.8541 0.8424,-1.45665 1.6848,-1.3338 0.7254,0 1.32795,0.84825 1.32795,1.6965 z m -0.96525,-1.21095 9.0441,-7.50555 1.9305,2.4219 -9.0441,7.50555 z m 10.0035,-6.2946 -0.9594,-1.21095 c 0.60255,-0.48555 1.5678,-0.3627 2.1645,0.23985 0.48555,0.73125 0.36855,1.6965 -0.234,2.18205 z m 0,-1.57365 h 4.46355 v 3.1473 h -4.4577 z m 4.46355,1.57365 V 62.9343 c 0.8424,0 1.5678,0.7254 1.5678,1.57365 a 1.59705,1.59705 0 0 1 -1.5678,1.57365 z m 0.60255,-1.4508 14.94675,6.0489 -1.08225,2.90745 -15.0696,-6.05475 z m 14.3442,7.50555 0.60255,-1.45665 c 0.7254,0.3627 1.21095,1.21095 0.84825,2.0592 -0.3627,0.7254 -1.2051,1.21095 -1.9305,0.84825 z m 1.4508,0.7254 -3.01275,6.05475 -2.7729,-1.45665 3.01275,-6.0489 z m -4.2705,4.7385 1.25775,1.31625 c -0.3627,0.7254 -1.32795,0.96525 -2.0475,0.60255 a 1.4976,1.4976 0 0 1 -0.7254,-2.0592 z m 1.37475,0.34515 1.44495,15.13395 -3.01275,0.23985 -1.44495,-15.0111 z m 0,15.25095 1.44495,-0.117 a 1.50345,1.50345 0 0 1 -1.3221,1.6965 1.6965,1.6965 0 0 1 -1.69065,-1.45665 z m 1.44495,0.3627 -3.01275,15.0111 -2.8899,-0.60255 2.8899,-15.13395 z m -4.4577,14.6484 1.44495,0.3627 c -0.117,0.84825 -0.96525,1.3338 -1.80765,1.21095 -0.71955,-0.23985 -1.32795,-0.96525 -1.08225,-1.8135 z m 0.8424,1.3338 -5.9085,4.4811 -1.80765,-2.54475 6.0255,-4.4811 z m -35.3223,-9.3249 8.92125,30.14505 -2.8899,0.84825 -8.92125,-30.0222 z m 7.4763,30.6306 1.44495,-0.48555 c 0.2457,0.84825 -0.117,1.6965 -0.96525,1.93635 a 1.5444,1.5444 0 0 1 -1.9305,-1.0881 z m 0.4797,1.4508 -10.4832,3.0303 -0.84825,-3.0303 10.48905,-3.02445 z m -25.9155,-32.8068 h 16.51455 v 3.1473 h -16.51455 z m 16.51455,1.5795 v -1.5795 c 0.8424,0 1.44495,0.7254 1.44495,1.5795 0,0.8424 -0.60255,1.5678 -1.44495,1.5678 z m -1.5678,0.35685 -4.4577,-22.51665 3.01275,-0.7254 4.4577,22.6395 z M 112.09286,70.2 l 5.9085,28.56555 -2.89575,0.7254 -6.0255,-28.56555 z m 4.4577,28.92825 1.44495,-0.3627 a 1.5561,1.5561 0 0 1 -1.08225,1.93635 c -0.8424,0.12285 -1.69065,-0.3627 -1.8135,-1.21095 z m 1.44495,-0.60255 10.48905,24.0903 -2.7729,1.21095 -10.48905,-24.0903 z m 9.0441,24.69285 1.44495,-0.60255 c 0.23985,0.7254 0,1.6965 -0.8424,2.0592 a 1.3806,1.3806 0 0 1 -1.9305,-0.84825 z m 1.3221,-0.7254 4.5864,9.0792 -2.7729,1.3338 -4.46355,-8.9622 z m 3.1356,9.6876 1.4508,-0.6084 c 0.35685,0.7254 0,1.6965 -0.7254,2.0592 a 1.4859,1.4859 0 0 1 -2.0475,-0.7254 z m 1.5678,0.23985 -1.5678,11.98665 -3.01275,-0.3627 1.5678,-11.9925 z m -5.06025,-76.62915 17.9595,15.0111 -1.9305,2.4219 -17.9595,-15.0111 z m -12.8232,-4.5981 -3.042,19.88415 -3.05955,-0.48555 3.05955,-19.7613 z m -4.63905,19.63845 1.5912,0.23985 a 1.638,1.638 0 0 1 -1.8369,1.35135 c -0.73125,-0.117 -1.3455,-0.9828 -1.22265,-1.84275 z m 0.4914,-1.4742 18.2052,6.0138 -0.8541,3.0654 -18.21105,-6.13665 z m 17.8425,7.605 0.3627,-1.5912 c 0.8541,0.3627 1.3455,1.2285 1.0998,2.0826 -0.36855,0.7371 -1.22265,1.2285 -1.9539,0.9828 z m -1.5912,0.12285 -1.46835,-19.8783 3.0537,-0.2457 1.4625,19.8783 z m 44.95725,-7.371 13.3848,-22.5225 2.65005,1.5795 -13.5018,22.6395 z m -25.7985,-29.9052 10.48905,24.0903 -2.7729,1.3338 -10.4832,-24.0903 z m 10.48905,24.6987 1.5678,-27.11475 3.01275,0.117 -1.44495,27.1206 z m 3.01275,-26.99775 -1.44495,-0.117 c 0,-0.84825 0.7254,-1.5795 1.5678,-1.45665 0.8424,0 1.44495,0.7254 1.44495,1.5795 z m 0.60255,-1.4508 27.0036,10.53 -1.08225,2.90745 -27.0036,-10.53 z m 26.40105,11.98665 0.60255,-1.45665 c 0.7254,0.2457 1.0881,1.21095 0.84825,1.93635 -0.3627,0.84825 -1.2051,1.21095 -1.9305,0.9711 z m -1.3221,-0.84825 10.48905,-18.0414 2.65005,1.5795 -10.48905,18.03555 z m 24.83325,-2.54475 -11.934,11.98665 -2.17035,-2.18205 12.051,-12.10365 z m -13.02795,10.89855 1.0881,1.0881 a 1.53855,1.53855 0 0 1 -2.1645,-2.1762 z m -0.8424,1.21095 -10.4832,-7.50555 1.69065,-2.54475 10.4832,7.50555 z m -33.6258,-35.71425 -1.4508,16.58475 -3.01275,-0.23985 1.44495,-16.58475 z m -3.0186,16.4619 1.5678,0.117 c -0.117,0.8541 -0.8424,1.4625 -1.6848,1.3338 a 1.3455,1.3455 0 0 1 -1.32795,-1.57365 z m 0,1.5795 h -5.9085 v -3.15315 h 5.9085 z m -22.6629,-13.0806 9.0441,13.5603 -2.53305,1.8135 -9.03825,-13.55445 z m 7.722,14.5314 1.3221,-0.9711 a 1.5795,1.5795 0 0 1 -0.48555,2.18205 1.4157,1.4157 0 0 1 -2.0475,-0.36855 z m -0.48555,-1.5795 9.03825,-3.02445 0.96525,3.0303 -9.03825,3.02445 z m 9.5238,-1.4508 c -1.38645,-3.09465 1.2168,-0.4095 1.44495,-0.48555 -0.1521,3.34035 -1.4274,0.4797 -1.44495,0.48555 z m -7.956,4.1184 -17.9595,16.58475 -2.05335,-2.29905 17.9595,-16.58475 z m -19.0476,15.3738 1.08225,1.21095 c -0.71955,0.60255 -1.6848,0.48555 -2.1645,-0.117 -0.6084,-0.6084 -0.6084,-1.6965 0.117,-2.18205 z m -0.60255,1.4508 -13.5018,-6.0489 1.2051,-2.7846 13.5018,5.9319 z m -12.89925,-7.3827 -0.60255,1.3338 c -0.7254,-0.36855 -1.0881,-1.21095 -0.7254,-2.0592 0.23985,-0.7254 1.2051,-1.0881 1.9305,-0.7254 z m -1.0881,-1.0881 22.5459,-24.0903 2.1645,2.1762 -22.54005,23.96745 z m 23.634,-23.0022 -1.0881,-1.0881 c 0.4797,-0.6084 1.44495,-0.6084 2.0475,-0.117 a 1.6848,1.6848 0 0 1 0.117,2.2932 z m -0.6084,-1.4508 13.3848,-6.05475 1.3221,2.90745 -13.5018,5.9319 z m 13.9815,-4.60395 -0.5967,-1.4508 c 0.8424,-0.3627 1.6848,0 2.0475,0.84825 0.3627,0.7254 0,1.6965 -0.7254,2.0592 z m 0,-1.57365 h 12.05685 v 3.1473 h -12.051 z m 12.05685,1.5795 v -1.5795 c 0.84825,0 1.5678,0.7254 1.5678,1.5795 a 1.59705,1.59705 0 0 1 -1.5678,1.5678 z m 0.3627,-1.5795 25.4358,6.05475 -0.71955,3.02445 -25.4358,-5.9319 z m 25.0731,7.6284 0.3627,-1.5795 a 1.5561,1.5561 0 0 1 1.0881,1.9422 c -0.12285,0.84825 -0.96525,1.3338 -1.8135,1.0881 z m 0.48555,-1.5795 10.3662,3.0303 -0.7254,3.0303 -10.4832,-3.0303 z m 10.0035,4.60395 0.3627,-1.57365 a 1.5561,1.5561 0 0 1 1.08225,1.93635 c -0.234,0.84825 -1.08225,1.3338 -1.80765,1.09395 z m 1.0881,-1.0881 12.051,13.5603 -2.28735,2.05335 -11.934,-13.55445 z m 10.8459,14.52555 1.2051,-0.96525 a 1.66725,1.66725 0 0 1 -0.117,2.1762 c -0.60255,0.6084 -1.5678,0.48555 -2.17035,-0.117 z m 1.5678,0 v 19.61505 h -3.01275 V 43.4421 Z m -1.5678,19.61505 h 1.5678 a 1.59705,1.59705 0 0 1 -1.5678,1.57365 c -0.71955,0 -1.44495,-0.73125 -1.44495,-1.5795 z m 1.5678,-0.3627 3.01275,11.9808 -3.01275,0.7254 -3.01275,-11.9808 z m 1.44495,12.3435 1.5678,-0.3627 a 1.73745,1.73745 0 0 1 -1.2051,1.93635 c -0.71955,0.2457 -1.5678,-0.3627 -1.80765,-1.21095 z m 1.5678,0 v 6.05475 h -3.01275 v -6.05475 z m -1.5678,6.05475 h 1.5678 a 1.59705,1.59705 0 0 1 -1.5678,1.57365 c -0.8424,0 -1.44495,-0.7254 -1.44495,-1.57365 z m 1.32795,-0.84825 6.23025,11.57715 1.9305,3.0771 c 0.4446,0.49725 0.0117,1.60875 0.7254,1.48005 l -1.1583,0.9009 -2.1645,-0.67275 -1.57365,-2.77875 -6.52275,-11.8872 z m 6.23025,11.57715 3.9195,5.75055 c 0.4797,0.7254 -0.936,1.9188 -1.53855,2.40435 -0.76635,0.57915 -2.574,-2.76705 -3.0537,-3.3696 z m -2.9718,11.15595 v 9.828 h -3.0186 l -0.1755,-7.2657 z m -1.5678,9.828 h 1.5678 a 1.59705,1.59705 0 0 1 -1.5678,1.5795 c -0.84825,0 -1.4508,-0.7254 -1.4508,-1.5795 z m 0.8424,1.2168 -4.46355,3.1473 -1.6848,-2.6676 4.4577,-3.02445 z m -5.30595,1.8135 0.8424,1.3338 a 1.5678,1.5678 0 0 1 -2.1645,-0.48555 c -0.3627,-0.7254 -0.2457,-1.6965 0.4797,-2.18205 z m 1.44495,-0.48555 1.4508,4.60395 -2.89575,0.96525 -1.44495,-4.5981 z m 0,5.0895 1.4508,-0.48555 c 0.234,0.8424 -0.117,1.6965 -0.96525,1.9305 -0.7254,0.2457 -1.5678,-0.117 -1.9305,-0.96525 z m 1.32795,0.8424 -3.01275,4.60395 -2.53305,-1.6965 3.01275,-4.60395 z m -3.9663,3.1941 0.95355,1.404 c -0.4797,0.73125 -1.44495,0.84825 -2.17035,0.36855 -0.60255,-0.48555 -0.8424,-1.45665 -0.3627,-2.0592 z m 1.1934,0.1989 1.44495,7.62255 -2.8899,0.6084 -1.5678,-7.6284 z m -0.0936,7.5231 1.53853,0.0995 a 1.4625,1.4625 0 0 1 -1.2051,1.8135 c -0.71953,0.2457 -1.56778,-0.35685 -1.68478,-1.2051 z m 1.53853,0.82485 -1.44495,6.1776 -3.01273,-0.84825 1.5678,-6.05475 z m -3.01273,5.69205 1.56778,0.48555 c -0.23983,0.7254 -1.08223,1.32795 -1.93048,1.0881 -0.71955,-0.23985 -1.2051,-1.0881 -1.08225,-1.93635 z m 0,1.5795 h -2.8899 v -3.15315 h 2.8899 z m -2.8899,-1.5795 v 1.5795 a 1.521,1.521 0 0 1 -1.5678,-1.5795 c 0,-0.84825 0.71955,-1.57365 1.5678,-1.57365 z m 0.117,1.5795 -17.9595,1.5678 -0.3627,-3.1473 18.2052,-1.57365 z m -18.0765,0 0.117,1.5678 a 1.6965,1.6965 0 0 1 -1.69065,-1.4508 c -0.117,-0.84825 0.60255,-1.5795 1.32795,-1.6965 z m 1.19925,0.8424 -3.01275,4.5981 -2.53305,-1.6965 3.0186,-4.5981 z m -4.212,3.74985 1.19925,0.84825 c -0.4797,0.7254 -1.44495,0.9711 -2.0475,0.48555 a 1.5795,1.5795 0 0 1 -0.48555,-2.1762 z m 1.4391,0 v 6.05475 h -3.01275 v -6.05475 z m -1.44495,6.05475 h 1.44495 c 0,0.9711 -0.60255,1.5795 -1.44495,1.5795 a 1.521,1.521 0 0 1 -1.5678,-1.5795 z m 1.44495,0.6084 -6.0255,16.8246 -2.89575,-1.0881 6.0255,-16.83045 z m -7.47045,16.2162 1.44495,0.6084 c -0.3627,0.7254 -1.2051,1.21095 -1.9305,0.84825 -0.8424,-0.2457 -1.2051,-1.0881 -0.96525,-1.93635 z m 1.5678,0 v 12.2265 h -3.1356 v -12.2265 z m -1.5678,12.2265 h 1.5678 a 1.59705,1.59705 0 0 1 -1.5678,1.5795 1.59705,1.59705 0 0 1 -1.5678,-1.5795 z m 1.08225,-1.0881 7.4763,7.6284 -2.17035,2.29905 -7.4763,-7.7454 z m 6.3882,8.7165 1.0881,-1.0881 a 1.69065,1.69065 0 0 1 0,2.29905 1.521,1.521 0 0 1 -2.17035,0 z m 1.4508,-0.3627 6.0255,21.42855 -2.89575,0.84825 -6.0255,-21.42855 z m 4.58055,21.79125 1.44495,-0.3627 a 1.5561,1.5561 0 0 1 -1.08225,1.93635 c -0.7254,0.23985 -1.5678,-0.23985 -1.8135,-1.0881 z m 1.44495,-0.48555 8.92125,26.0325 -2.89575,0.96525 -8.92125,-25.9038 z m 7.4763,26.5122 1.44495,-0.48555 c 0.3627,0.73125 -0.117,1.6965 -0.8424,1.93635 a 1.6614,1.6614 0 0 1 -2.0475,-0.96525 z m -0.77805,2.2815 -15.5025,-32.18085 2.6559,-1.3338 15.1749,31.1688 z m -2.8431,-183.1401 v 10.53 h -3.12975 v -10.53 z m 0,8.72235 v 12.3435 h -3.12975 v -11.9574 z m 24.25991,36.88425 c -2.69683,2.0241 -5.20648,3.978 -7.8975,6.0021 l -2.61493,-1.0062 0.33345,-0.9126 c 0.5031,-0.56745 1.404,-0.7839 2.00653,-1.287 2.5272,-2.08845 5.30012,-3.8961 6.06647,-4.4226 1.14658,-0.7956 -1.33965,0.31005 2.10598,1.6263 z m -6.56955,2.61495 -1.32795,3.38715 c -1.22848,0.7956 -3.08878,1.0296 -4.03646,0.2574 -0.90675,-0.6318 -0.93015,-0.64935 0.29248,-1.44495 z m -1.2285,3.87855 -6.76841,1.56195 -0.47385,-1.5678 6.65143,-2.1528 z m -95.17361,174.7629 1.56195,25.5411 -3.1356,0.23985 -1.44495,-25.66395 z m 0,25.66395 1.56195,-0.12285 a 1.6965,1.6965 0 0 1 -1.44495,1.6965 1.6965,1.6965 0 0 1 -1.69065,-1.45665 z m 1.4391,-0.3627 6.0255,28.56555 -3.0069,0.7254 -5.9085,-28.6884 z m 4.5864,28.92825 1.44495,-0.3627 c 0.117,0.84825 -0.3627,1.6965 -1.2051,1.8135 -0.84825,0.2457 -1.5678,-0.35685 -1.8135,-1.0881 z m 1.3221,-0.60255 27.0036,72.2709 -2.7729,1.0881 -27.0036,-72.2709 z m 25.55865,72.75645 1.44495,-0.48555 c 0.3627,0.7254 -0.117,1.6965 -0.8424,1.93635 a 1.4274,1.4274 0 0 1 -1.9305,-0.84825 z m 1.44495,-0.6084 13.5018,31.59585 -2.7729,1.21095 -13.5018,-31.59 z m 12.051,32.20425 1.4508,-0.6084 c 0.23985,0.84825 0,1.6965 -0.8424,2.0592 a 1.3806,1.3806 0 0 1 -1.9305,-0.84825 z m 1.57365,-0.2457 c 0.0644,2.1411 1.3455,4.0716 2.1762,6.04305 l -5.18895,-5.4405 z m 22.9554,65.61945 3.3228,2.5389 -1.8135,2.5389 -3.60945,-3.2643 z m 1.9188,3.4047 1.404,-0.8658 c 0.7254,0.60255 0.8424,1.57365 0.3627,2.1762 -0.48555,0.73125 -1.44495,0.84825 -2.17035,0.3627 z m 0.5616,-1.1115 h 4.4577 v 3.15315 h -4.4577 z m 4.18275,1.755 0.27495,-1.755 c 3.41055,0.2223 0,3.15315 0,3.15315 z m 0.9945,-1.5093 7.605,4.4811 -1.57365,2.66175 -7.47045,-4.4811 z m 7.605,4.4811 c 0.71955,0.4797 0.9594,1.32795 0.4797,2.1762 -0.3627,0.7254 -1.32795,0.9711 -2.0475,0.48555 0.42705,-0.936 1.0413,-1.7784 1.56195,-2.66175 z m -1.30455,-0.6084 4.914,0.3627 v 3.1473 h -4.4577 z m 4.914,1.93635 v -1.57365 c 0.84825,0 1.56778,0.7254 1.56778,1.5795 a 1.59705,1.59705 0 0 1 -1.56778,1.5678 z m 0.3627,-1.57365 7.47626,1.5795 -0.60255,3.02445 -7.47626,-1.45665 z m 6.49346,3.39885 0.9828,-1.8252 c 0.84242,0.117 1.32212,0.9711 1.20512,1.8135 -0.117,0.84825 -0.96525,1.3338 -1.81352,1.2168 z m -0.34515,-1.4625 3.01277,-3.02445 2.04748,2.29905 -3.01273,3.02445 z m 3.97802,-1.8135 -0.96525,-1.21095 c 0.60255,-0.6084 1.5678,-0.6084 2.04748,0.117 a 1.53855,1.53855 0 0 1 0,2.18205 z m 0.3627,-1.5795 7.47628,1.4625 -0.60255,3.14145 -7.47628,-1.57365 z m 5.78565,3.51585 1.69063,-2.0592 a 1.67895,1.67895 0 0 1 1.2051,1.8135 1.6146,1.6146 0 0 1 -1.8135,1.3338 z m 0.3627,-1.5795 3.01273,-3.0186 2.04752,2.1762 -3.01277,3.02445 z m 3.978,-1.9305 -0.96527,-1.0881 c 0.60257,-0.6084 1.56782,-0.6084 2.04752,0 a 1.53855,1.53855 0 0 1 0,2.1762 z m -1.44497,0.117 -1.5678,-16.4619 3.12977,-0.3627 1.4508,16.58475 z m 0.0877,-16.614 -1.65555,0.1521 c 0,-0.84825 0.60255,-1.6965 1.44495,-1.6965 0.8424,-0.117 1.56782,0.48555 1.69067,1.3338 z m -1.53855,0.27495 -3.01273,-16.58475 3.01273,-0.6084 2.89577,16.58475 z m -1.56778,-16.83045 -1.44495,0.2457 c -0.117,-0.84825 0.3627,-1.6965 1.2051,-1.8135 0.8424,-0.12285 1.56778,0.4797 1.81348,1.2051 z m -1.44495,0.36855 -3.01277,-13.5603 3.01277,-0.7254 2.89573,13.55445 z m -1.56782,-13.923 -1.44495,0.3627 c -0.23985,-0.84825 0.3627,-1.6965 1.2051,-1.93635 a 1.66725,1.66725 0 0 1 1.81352,1.21095 z m -1.2051,0.84825 -9.03823,-13.5603 2.52718,-1.6965 9.04412,13.5603 z m -7.71613,-14.40855 -1.3221,0.84825 c -0.48555,-0.7254 -0.2457,-1.57365 0.4797,-2.0592 a 1.4157,1.4157 0 0 1 2.04748,0.3627 z m -1.08225,1.0881 -7.47628,-7.50555 2.0475,-2.1762 7.59911,7.50555 z m -6.38818,-8.59365 -1.0881,1.0881 a 1.53855,1.53855 0 0 1 0,-2.1762 c 0.60255,-0.6084 1.5678,-0.6084 2.0475,0 z m -1.4508,0.48555 -7.47045,-24.0903 2.8899,-0.9711 7.4763,24.0903 z m -6.0255,-24.57 -1.44495,0.4797 c -0.3627,-0.84825 0.117,-1.6965 0.96525,-1.93635 0.71955,-0.2457 1.5678,0.23985 1.9305,0.96525 z m -1.5678,0.35685 -14.94675,-61.61805 3.01275,-0.7254 14.94675,61.61805 z m -13.5018,-61.9749 -1.44495,0.3627 a 1.5561,1.5561 0 0 1 1.08225,-1.9305 1.7316,1.7316 0 0 1 1.9305,1.2051 z m -1.44495,0.48555 -14.94675,-42.12585 2.8899,-0.9711 14.9526,42.003 z m -13.5018,-42.6114 -1.44495,0.48555 c -0.23985,-0.73125 0.117,-1.6965 0.96525,-1.93635 0.71955,-0.36855 1.56195,0.117 1.9305,0.96525 z m -1.44495,-0.2457 1.44495,-9.0792 3.01275,0.48555 -1.5678,9.0792 z m 2.8899,-8.8335 -1.44495,-0.2457 c 0.117,-0.8424 0.96525,-1.4508 1.6848,-1.21095 0.84825,0.12285 1.4508,0.84825 1.32795,1.6965 z m -1.44495,-0.117 3.01275,-25.54695 3.01275,0.3627 -3.01275,25.5411 z">
    <animate
       repeatCount="indefinite"
       attributeName="fill"
       keyTimes="0; 0.7; 0.9; 1"
       values="white; #3f69aa; #f8f9fa; white"
       dur="4s" />
  </path>
  <path
     style="fill:#3f69aa;fill-opacity:0.94117647;fill-rule:evenodd;stroke:#3f69aa;stroke-width:3.51000023;stroke-linecap:round;stroke-linejoin:round;stroke-opacity:0.94117647;paint-order:fill markers stroke"
     inkscape:connector-curvature="0"
     id="path1966"
     d="m 139.84526,27.963 a 3.2175,3.2175 0 0 1 -3.2175,3.2175 3.2175,3.2175 0 0 1 -3.2175,-3.2175 3.2175,3.2175 0 0 1 3.2175,-3.2175 3.2175,3.2175 0 0 1 3.2175,3.2175 z m 25.1667,-6.435 a 3.2175,3.2175 0 0 1 -3.2175,3.2175 3.2175,3.2175 0 0 1 -3.2175,-3.2175 3.2175,3.2175 0 0 1 3.2175,-3.2175 3.2175,3.2175 0 0 1 3.2175,3.2175 z m -46.91115,29.47815 a 3.2175,3.2175 0 0 1 -3.2175,3.2175 3.2175,3.2175 0 0 1 -3.2175,-3.2175 3.2175,3.2175 0 0 1 3.2175,-3.2175 3.2175,3.2175 0 0 1 3.2175,3.2175 z m 13.1625,6.7626 a 3.2175,3.2175 0 0 1 -3.2175,3.2175 3.2175,3.2175 0 0 1 -3.2175,-3.2175 3.2175,3.2175 0 0 1 3.2175,-3.2175 3.2175,3.2175 0 0 1 3.2175,3.2175 z m 17.0001,-16.45605 a 3.2175,3.2175 0 0 1 -3.2175,3.2175 3.2175,3.2175 0 0 1 -3.2175,-3.2175 3.2175,3.2175 0 0 1 3.2175,-3.2175 3.2175,3.2175 0 0 1 3.2175,3.2175 z m 15.5376,-3.10635 a 3.2175,3.2175 0 0 1 -3.2175,3.2175 3.2175,3.2175 0 0 1 -3.2175,-3.2175 3.2175,3.2175 0 0 1 3.2175,-3.2175 3.2175,3.2175 0 0 1 3.2175,3.2175 z m -3.7323,26.42445 a 3.2175,3.2175 0 0 1 -3.2175,3.2175 3.2175,3.2175 0 0 1 -3.2175,-3.2175 3.2175,3.2175 0 0 1 3.2175,-3.2175 3.2175,3.2175 0 0 1 3.2175,3.2175 z m -27.9513,13.12155 a 3.2175,3.2175 0 0 1 -3.2175,3.2175 3.2175,3.2175 0 0 1 -3.2175,-3.2175 3.2175,3.2175 0 0 1 3.2175,-3.2175 3.2175,3.2175 0 0 1 3.2175,3.2175 z M 114.66686,71.5455 a 3.2175,3.2175 0 0 1 -3.2175,3.2175 3.2175,3.2175 0 0 1 -3.2175,-3.2175 3.2175,3.2175 0 0 1 3.2175,-3.2175 3.2175,3.2175 0 0 1 3.2175,3.2175 z m 33.60825,0.77805 a 3.2175,3.2175 0 0 1 -3.2175,3.2175 3.2175,3.2175 0 0 1 -3.2175,-3.2175 3.2175,3.2175 0 0 1 3.2175,-3.2175 3.2175,3.2175 0 0 1 3.2175,3.2175 z m 41.7573,-24.1722 a 3.2175,3.2175 0 0 1 -3.2175,3.2175 3.2175,3.2175 0 0 1 -3.2175,-3.2175 3.2175,3.2175 0 0 1 3.2175,-3.2175 3.2175,3.2175 0 0 1 3.2175,3.2175 z M 200.24066,31.473 a 3.2175,3.2175 0 0 1 -3.2175,3.2175 3.2175,3.2175 0 0 1 -3.2175,-3.2175 3.2175,3.2175 0 0 1 3.2175,-3.2175 3.2175,3.2175 0 0 1 3.2175,3.2175 z m -24.0669,37.44 a 2.34,2.34 0 0 1 -2.34,2.34 2.34,2.34 0 0 1 -2.34,-2.34 2.34,2.34 0 0 1 2.34,-2.34 2.34,2.34 0 0 1 2.34,2.34 z m -2.12355,9.3015 a 2.34,2.34 0 0 1 -2.34,2.34 2.34,2.34 0 0 1 -2.34,-2.34 2.34,2.34 0 0 1 2.34,-2.34 2.34,2.34 0 0 1 2.34,2.34 z m -28.82295,8.21925 a 2.34,2.34 0 0 1 -2.34,2.34 2.34,2.34 0 0 1 -2.34,-2.34 2.34,2.34 0 0 1 2.34,-2.34 2.34,2.34 0 0 1 2.34,2.34 z m -25.30125,12.8349 a 3.2175,3.2175 0 0 1 -3.2175,3.2175 3.2175,3.2175 0 0 1 -3.2175,-3.2175 3.2175,3.2175 0 0 1 3.2175,-3.2175 3.2175,3.2175 0 0 1 3.2175,3.2175 z m 71.18865,41.8275 a 2.34,2.34 0 0 1 -2.34,2.34 2.34,2.34 0 0 1 -2.34,-2.34 2.34,2.34 0 0 1 2.34,-2.34 2.34,2.34 0 0 1 2.34,2.34 z m -54.7326,-41.4648 a 3.2175,3.2175 0 0 1 -3.2175,3.2175 3.2175,3.2175 0 0 1 -3.2175,-3.2175 3.2175,3.2175 0 0 1 3.2175,-3.2175 3.2175,3.2175 0 0 1 3.2175,3.2175 z m 30.53115,11.3373 a 3.2175,3.2175 0 0 1 -3.2175,3.2175 3.2175,3.2175 0 0 1 -3.2175,-3.2175 3.2175,3.2175 0 0 1 3.2175,-3.2175 3.2175,3.2175 0 0 1 3.2175,3.2175 z m 8.40645,-19.1997 a 3.2175,3.2175 0 0 1 -3.2175,3.2175 3.2175,3.2175 0 0 1 -3.2175,-3.2175 3.2175,3.2175 0 0 1 3.2175,-3.2175 3.2175,3.2175 0 0 1 3.2175,3.2175 z m 14.44365,-7.49385 a 3.2175,3.2175 0 0 1 -3.2175,3.2175 3.2175,3.2175 0 0 1 -3.2175,-3.2175 3.2175,3.2175 0 0 1 3.2175,-3.2175 3.2175,3.2175 0 0 1 3.2175,3.2175 z m -34.39215,21.6333 a 2.34,2.34 0 0 1 -2.34,2.34 2.34,2.34 0 0 1 -2.34,-2.34 2.34,2.34 0 0 1 2.34,-2.34 2.34,2.34 0 0 1 2.34,2.34 z m -14.6016,6.7041 a 3.2175,3.2175 0 0 1 -3.2175,3.2175 3.2175,3.2175 0 0 1 -3.2175,-3.2175 3.2175,3.2175 0 0 1 3.2175,-3.2175 3.2175,3.2175 0 0 1 3.2175,3.2175 z m 59.59395,-37.4751 a 3.2175,3.2175 0 0 1 -3.2175,3.2175 3.2175,3.2175 0 0 1 -3.2175,-3.2175 3.2175,3.2175 0 0 1 3.2175,-3.2175 3.2175,3.2175 0 0 1 3.2175,3.2175 z m 0.5499,-19.74375 a 3.2175,3.2175 0 0 1 -3.2175,3.2175 3.2175,3.2175 0 0 1 -3.2175,-3.2175 3.2175,3.2175 0 0 1 3.2175,-3.2175 3.2175,3.2175 0 0 1 3.2175,3.2175 z M 212.46716,45.0216 a 3.2175,3.2175 0 0 1 -3.2175,3.2175 3.2175,3.2175 0 0 1 -3.2175,-3.2175 3.2175,3.2175 0 0 1 3.2175,-3.2175 3.2175,3.2175 0 0 1 3.2175,3.2175 z m -5.70375,41.6286 a 3.2175,3.2175 0 0 1 -3.2175,3.2175 3.2175,3.2175 0 0 1 -3.2175,-3.2175 3.2175,3.2175 0 0 1 3.2175,-3.2175 3.2175,3.2175 0 0 1 3.2175,3.2175 z m 17.784,11.7234 a 3.2175,3.2175 0 0 1 -3.2175,3.2175 3.2175,3.2175 0 0 1 -3.2175,-3.2175 3.2175,3.2175 0 0 1 3.2175,-3.2175 3.2175,3.2175 0 0 1 3.2175,3.2175 z m -12.519,6.4467 a 3.2175,3.2175 0 0 1 -3.2175,3.2175 3.2175,3.2175 0 0 1 -3.2175,-3.2175 3.2175,3.2175 0 0 1 3.2175,-3.2175 3.2175,3.2175 0 0 1 3.2175,3.2175 z m -19.39275,-4.4226 a 3.2175,3.2175 0 0 1 -3.2175,3.2175 3.2175,3.2175 0 0 1 -3.2175,-3.2175 3.2175,3.2175 0 0 1 3.2175,-3.2175 3.2175,3.2175 0 0 1 3.2175,3.2175 z m -11.5245,29.45475 a 3.2175,3.2175 0 0 1 -3.2175,3.2175 3.2175,3.2175 0 0 1 -3.2175,-3.2175 3.2175,3.2175 0 0 1 3.2175,-3.2175 3.2175,3.2175 0 0 1 3.2175,3.2175 z m -45.8289,1.5912 a 3.2175,3.2175 0 0 1 -3.2175,3.2175 3.2175,3.2175 0 0 1 -3.2175,-3.2175 3.2175,3.2175 0 0 1 3.2175,-3.2175 3.2175,3.2175 0 0 1 3.2175,3.2175 z m -1.8252,14.4378 a 3.2175,3.2175 0 0 1 -3.2175,3.2175 3.2175,3.2175 0 0 1 -3.2175,-3.2175 3.2175,3.2175 0 0 1 3.2175,-3.2175 3.2175,3.2175 0 0 1 3.2175,3.2175 z m 16.4502,0.73125 a 3.2175,3.2175 0 0 1 -3.2175,3.2175 3.2175,3.2175 0 0 1 -3.2175,-3.2175 3.2175,3.2175 0 0 1 3.2175,-3.2175 3.2175,3.2175 0 0 1 3.2175,3.2175 z m 1.83105,-16.63155 a 3.2175,3.2175 0 0 1 -3.2175,3.2175 3.2175,3.2175 0 0 1 -3.2175,-3.2175 3.2175,3.2175 0 0 1 3.2175,-3.2175 3.2175,3.2175 0 0 1 3.2175,3.2175 z m 0.9126,-14.44365 a 3.2175,3.2175 0 0 1 -3.2175,3.2175 3.2175,3.2175 0 0 1 -3.2175,-3.2175 3.2175,3.2175 0 0 1 3.2175,-3.2175 3.2175,3.2175 0 0 1 3.2175,3.2175 z m 22.30605,28.51875 a 3.2175,3.2175 0 0 1 -3.2175,3.2175 3.2175,3.2175 0 0 1 -3.2175,-3.2175 3.2175,3.2175 0 0 1 3.2175,-3.2175 3.2175,3.2175 0 0 1 3.2175,3.2175 z m 32.9706,-5.70375 a 3.2175,3.2175 0 0 1 -3.2175,3.2175 3.2175,3.2175 0 0 1 -3.2175,-3.2175 3.2175,3.2175 0 0 1 3.2175,-3.2175 3.2175,3.2175 0 0 1 3.2175,3.2175 z m 4.3173,-8.00865 a 1.755,1.755 0 0 1 -1.755,1.755 1.755,1.755 0 0 1 -1.755,-1.755 1.755,1.755 0 0 1 1.755,-1.755 1.755,1.755 0 0 1 1.755,1.755 z m 1.7082,-55.6686 a 1.755,1.755 0 0 1 -1.755,1.755 1.755,1.755 0 0 1 -1.755,-1.755 1.755,1.755 0 0 1 1.755,-1.755 1.755,1.755 0 0 1 1.755,1.755 z m 0.48555,8.3187 a 1.755,1.755 0 0 1 -1.755,1.755 1.755,1.755 0 0 1 -1.755,-1.755 1.755,1.755 0 0 1 1.755,-1.755 1.755,1.755 0 0 1 1.755,1.755 z m -98.88255,85.49775 a 3.2175,3.2175 0 0 1 -3.2175,3.2175 3.2175,3.2175 0 0 1 -3.2175,-3.2175 3.2175,3.2175 0 0 1 3.2175,-3.2175 3.2175,3.2175 0 0 1 3.2175,3.2175 z m 27.5886,3.35205 a 3.2175,3.2175 0 0 1 -3.2175,3.2175 3.2175,3.2175 0 0 1 -3.2175,-3.2175 3.2175,3.2175 0 0 1 3.2175,-3.2175 3.2175,3.2175 0 0 1 3.2175,3.2175 z m -24.8625,11.51865 a 3.2175,3.2175 0 0 1 -3.2175,3.2175 3.2175,3.2175 0 0 1 -3.2175,-3.2175 3.2175,3.2175 0 0 1 3.2175,-3.2175 3.2175,3.2175 0 0 1 3.2175,3.2175 z m 7.49385,27.96885 a 3.2175,3.2175 0 0 1 -3.2175,3.2175 3.2175,3.2175 0 0 1 -3.2175,-3.2175 3.2175,3.2175 0 0 1 3.2175,-3.2175 3.2175,3.2175 0 0 1 3.2175,3.2175 z m -24.6753,-21.5748 a 3.2175,3.2175 0 0 1 -3.217496,3.2175 3.2175,3.2175 0 0 1 -3.217508,-3.2175 3.2175,3.2175 0 0 1 3.217508,-3.2175 3.2175,3.2175 0 0 1 3.217496,3.2175 z m 47.1627,20.475 a 3.2175,3.2175 0 0 1 -3.2175,3.2175 3.2175,3.2175 0 0 1 -3.2175,-3.2175 3.2175,3.2175 0 0 1 3.2175,-3.2175 3.2175,3.2175 0 0 1 3.2175,3.2175 z m 20.0772,-29.70045 a 3.2175,3.2175 0 0 1 -3.2175,3.2175 3.2175,3.2175 0 0 1 -3.2175,-3.2175 3.2175,3.2175 0 0 1 3.2175,-3.2175 3.2175,3.2175 0 0 1 3.2175,3.2175 z m 13.92885,-3.0186 a 3.2175,3.2175 0 0 1 -3.2175,3.2175 3.2175,3.2175 0 0 1 -3.2175,-3.2175 3.2175,3.2175 0 0 1 3.2175,-3.2175 3.2175,3.2175 0 0 1 3.2175,3.2175 z m 0.54405,-13.1625 a 3.2175,3.2175 0 0 1 -3.2175,3.2175 3.2175,3.2175 0 0 1 -3.2175,-3.2175 3.2175,3.2175 0 0 1 3.2175,-3.2175 3.2175,3.2175 0 0 1 3.2175,3.2175 z m 5.58675,22.9086 a 3.2175,3.2175 0 0 1 -3.2175,3.2175 3.2175,3.2175 0 0 1 -3.2175,-3.2175 3.2175,3.2175 0 0 1 3.2175,-3.2175 3.2175,3.2175 0 0 1 3.2175,3.2175 z m -20.21175,-23.27715 a 3.2175,3.2175 0 0 1 -3.2175,3.2175 3.2175,3.2175 0 0 1 -3.2175,-3.2175 3.2175,3.2175 0 0 1 3.2175,-3.2175 3.2175,3.2175 0 0 1 3.2175,3.2175 z m -60.14385,40.21875 a 3.2175,3.2175 0 0 1 -3.2175,3.2175 3.2175,3.2175 0 0 1 -3.2175,-3.2175 3.2175,3.2175 0 0 1 3.2175,-3.2175 3.2175,3.2175 0 0 1 3.2175,3.2175 z m 3.65625,18.83115 a 3.2175,3.2175 0 0 1 -3.2175,3.2175 3.2175,3.2175 0 0 1 -3.2175,-3.2175 3.2175,3.2175 0 0 1 3.2175,-3.2175 3.2175,3.2175 0 0 1 3.2175,3.2175 z m -10.6002,8.95635 a 3.2175,3.2175 0 0 1 -3.217496,3.2175 3.2175,3.2175 0 0 1 -3.217508,-3.2175 3.2175,3.2175 0 0 1 3.217508,-3.2175 3.2175,3.2175 0 0 1 3.217496,3.2175 z m -11.518652,-0.5499 a 3.2175,3.2175 0 0 1 -3.2175,3.2175 3.2175,3.2175 0 0 1 -3.217498,-3.2175 3.2175,3.2175 0 0 1 3.217498,-3.2175 3.2175,3.2175 0 0 1 3.2175,3.2175 z m 39.306152,17.36865 a 3.2175,3.2175 0 0 1 -3.2175,3.2175 3.2175,3.2175 0 0 1 -3.2175,-3.2175 3.2175,3.2175 0 0 1 3.2175,-3.2175 3.2175,3.2175 0 0 1 3.2175,3.2175 z m 36.3753,-35.4627 a 3.2175,3.2175 0 0 1 -3.2175,3.2175 3.2175,3.2175 0 0 1 -3.2175,-3.2175 3.2175,3.2175 0 0 1 3.2175,-3.2175 3.2175,3.2175 0 0 1 3.2175,3.2175 z m 14.2623,8.04375 a 3.2175,3.2175 0 0 1 -3.2175,3.2175 3.2175,3.2175 0 0 1 -3.2175,-3.2175 3.2175,3.2175 0 0 1 3.2175,-3.2175 3.2175,3.2175 0 0 1 3.2175,3.2175 z m 7.90335,-20.02455 a 3.2175,3.2175 0 0 1 -3.2175,3.2175 3.2175,3.2175 0 0 1 -3.2175,-3.2175 3.2175,3.2175 0 0 1 3.2175,-3.2175 3.2175,3.2175 0 0 1 3.2175,3.2175 z m 20.53935,47.56635 a 3.2175,3.2175 0 0 1 -3.2175,3.2175 3.2175,3.2175 0 0 1 -3.2175,-3.2175 3.2175,3.2175 0 0 1 3.2175,-3.2175 3.2175,3.2175 0 0 1 3.2175,3.2175 z m -88.39935,32.1516 a 3.2175,3.2175 0 0 1 -3.2175,3.2175 3.2175,3.2175 0 0 1 -3.2175,-3.2175 3.2175,3.2175 0 0 1 3.2175,-3.2175 3.2175,3.2175 0 0 1 3.2175,3.2175 z m 11.934,-1.6965 a 3.2175,3.2175 0 0 1 -3.2175,3.2175 3.2175,3.2175 0 0 1 -3.2175,-3.2175 3.2175,3.2175 0 0 1 3.2175,-3.2175 3.2175,3.2175 0 0 1 3.2175,3.2175 z m 18.4041,-0.5967 a 3.2175,3.2175 0 0 1 -3.2175,3.2175 3.2175,3.2175 0 0 1 -3.2175,-3.2175 3.2175,3.2175 0 0 1 3.2175,-3.2175 3.2175,3.2175 0 0 1 3.2175,3.2175 z m 16.45605,0 a 3.2175,3.2175 0 0 1 -3.2175,3.2175 3.2175,3.2175 0 0 1 -3.2175,-3.2175 3.2175,3.2175 0 0 1 3.2175,-3.2175 3.2175,3.2175 0 0 1 3.2175,3.2175 z m 11.6649,0.8424 a 3.2175,3.2175 0 0 1 -3.2175,3.2175 3.2175,3.2175 0 0 1 -3.2175,-3.2175 3.2175,3.2175 0 0 1 3.2175,-3.2175 3.2175,3.2175 0 0 1 3.2175,3.2175 z m 18.67905,-65.1924 a 3.2175,3.2175 0 0 1 -3.2175,3.2175 3.2175,3.2175 0 0 1 -3.2175,-3.2175 3.2175,3.2175 0 0 1 3.2175,-3.2175 3.2175,3.2175 0 0 1 3.2175,3.2175 z m -21.3876,81.71865 a 3.2175,3.2175 0 0 1 -3.2175,3.2175 3.2175,3.2175 0 0 1 -3.2175,-3.2175 3.2175,3.2175 0 0 1 3.2175,-3.2175 3.2175,3.2175 0 0 1 3.2175,3.2175 z m -13.4199,13.0923 a 3.2175,3.2175 0 0 1 -3.2175,3.2175 3.2175,3.2175 0 0 1 -3.2175,-3.2175 3.2175,3.2175 0 0 1 3.2175,-3.2175 3.2175,3.2175 0 0 1 3.2175,3.2175 z m 11.4075,-1.57365 a 3.2175,3.2175 0 0 1 -3.2175,3.2175 3.2175,3.2175 0 0 1 -3.2175,-3.2175 3.2175,3.2175 0 0 1 3.2175,-3.2175 3.2175,3.2175 0 0 1 3.2175,3.2175 z m -34.36875,9.6876 a 3.2175,3.2175 0 0 1 -3.2175,3.2175 3.2175,3.2175 0 0 1 -3.2175,-3.2175 3.2175,3.2175 0 0 1 3.2175,-3.2175 3.2175,3.2175 0 0 1 3.2175,3.2175 z m -15.9939,-9.6876 a 3.2175,3.2175 0 0 1 -3.2175,3.2175 3.2175,3.2175 0 0 1 -3.2175,-3.2175 3.2175,3.2175 0 0 1 3.2175,-3.2175 3.2175,3.2175 0 0 1 3.2175,3.2175 z M 83.27576,297.16245 a 3.2175,3.2175 0 0 1 -3.2175,3.2175 3.2175,3.2175 0 0 1 -3.217498,-3.2175 3.2175,3.2175 0 0 1 3.217498,-3.2175 3.2175,3.2175 0 0 1 3.2175,3.2175 z m 20.74995,-0.27495 a 3.2175,3.2175 0 0 1 -3.2175,3.2175 3.2175,3.2175 0 0 1 -3.217496,-3.2175 3.2175,3.2175 0 0 1 3.217496,-3.2175 3.2175,3.2175 0 0 1 3.2175,3.2175 z m 0.54405,61.9749 a 3.2175,3.2175 0 0 1 -3.2175,3.2175 3.2175,3.2175 0 0 1 -3.217496,-3.2175 3.2175,3.2175 0 0 1 3.217496,-3.2175 3.2175,3.2175 0 0 1 3.2175,3.2175 z m 17.55,-7.956 a 3.2175,3.2175 0 0 1 -3.2175,3.2175 3.2175,3.2175 0 0 1 -3.2175,-3.2175 3.2175,3.2175 0 0 1 3.2175,-3.2175 3.2175,3.2175 0 0 1 3.2175,3.2175 z m 7.0434,-13.9815 a 3.2175,3.2175 0 0 1 -3.2175,3.2175 3.2175,3.2175 0 0 1 -3.2175,-3.2175 3.2175,3.2175 0 0 1 3.2175,-3.2175 3.2175,3.2175 0 0 1 3.2175,3.2175 z m -40.312352,40.3065 a 3.2175,3.2175 0 0 1 -3.2175,3.2175 3.2175,3.2175 0 0 1 -3.217498,-3.2175 3.2175,3.2175 0 0 1 3.217498,-3.2175 3.2175,3.2175 0 0 1 3.2175,3.2175 z m 7.131148,21.3876 a 3.2175,3.2175 0 0 1 -3.2175,3.2175 3.2175,3.2175 0 0 1 -3.217498,-3.2175 3.2175,3.2175 0 0 1 3.217498,-3.2175 3.2175,3.2175 0 0 1 3.2175,3.2175 z m -2.5623,10.4247 a 3.2175,3.2175 0 0 1 -3.217498,3.2175 3.2175,3.2175 0 0 1 -3.2175,-3.2175 3.2175,3.2175 0 0 1 3.2175,-3.2175 3.2175,3.2175 0 0 1 3.217498,3.2175 z m 32.081404,11.5128 a 3.2175,3.2175 0 0 1 -3.2175,3.2175 3.2175,3.2175 0 0 1 -3.2175,-3.2175 3.2175,3.2175 0 0 1 3.2175,-3.2175 3.2175,3.2175 0 0 1 3.2175,3.2175 z m 30.8061,-9.77535 a 3.2175,3.2175 0 0 1 -3.2175,3.2175 3.2175,3.2175 0 0 1 -3.2175,-3.2175 3.2175,3.2175 0 0 1 3.2175,-3.2175 3.2175,3.2175 0 0 1 3.2175,3.2175 z m -30.7125,20.9313 a 3.2175,3.2175 0 0 1 -3.2175,3.2175 3.2175,3.2175 0 0 1 -3.2175,-3.2175 3.2175,3.2175 0 0 1 3.2175,-3.2175 3.2175,3.2175 0 0 1 3.2175,3.2175 z m -37.750052,12.7062 a 3.2175,3.2175 0 0 1 -3.2175,3.2175 3.2175,3.2175 0 0 1 -3.217498,-3.2175 3.2175,3.2175 0 0 1 3.217498,-3.2175 3.2175,3.2175 0 0 1 3.2175,3.2175 z m 81.350102,-6.21855 a 3.2175,3.2175 0 0 1 -3.2175,3.2175 3.2175,3.2175 0 0 1 -3.2175,-3.2175 3.2175,3.2175 0 0 1 3.2175,-3.2175 3.2175,3.2175 0 0 1 3.2175,3.2175 z m -4.3875,-9.7812 a 3.2175,3.2175 0 0 1 -3.2175,3.2175 3.2175,3.2175 0 0 1 -3.2175,-3.2175 3.2175,3.2175 0 0 1 3.2175,-3.2175 3.2175,3.2175 0 0 1 3.2175,3.2175 z m 14.08095,14.625 a 1.755,1.755 0 0 1 -1.755,1.755 1.755,1.755 0 0 1 -1.755,-1.755 1.755,1.755 0 0 1 1.755,-1.755 1.755,1.755 0 0 1 1.755,1.755 z m 15.0813,1.92465 a 3.2175,3.2175 0 0 1 -3.2175,3.2175 3.2175,3.2175 0 0 1 -3.2175,-3.2175 3.2175,3.2175 0 0 1 3.2175,-3.2175 3.2175,3.2175 0 0 1 3.2175,3.2175 z m -19.0125,0.18135 a 3.2175,3.2175 0 0 1 -3.2175,3.2175 3.2175,3.2175 0 0 1 -3.2175,-3.2175 3.2175,3.2175 0 0 1 3.2175,-3.2175 3.2175,3.2175 0 0 1 3.2175,3.2175 z m 35.28135,-2.0124 a 3.2175,3.2175 0 0 1 -3.2175,3.2175 3.2175,3.2175 0 0 1 -3.2175,-3.2175 3.2175,3.2175 0 0 1 3.2175,-3.2175 3.2175,3.2175 0 0 1 3.2175,3.2175 z m -9.3249,-28.2438 a 3.2175,3.2175 0 0 1 -3.2175,3.2175 3.2175,3.2175 0 0 1 -3.2175,-3.2175 3.2175,3.2175 0 0 1 3.2175,-3.2175 3.2175,3.2175 0 0 1 3.2175,3.2175 z m -12.80565,-57.66345 a 3.2175,3.2175 0 0 1 -3.2175,3.2175 3.2175,3.2175 0 0 1 -3.2175,-3.2175 3.2175,3.2175 0 0 1 3.2175,-3.2175 3.2175,3.2175 0 0 1 3.2175,3.2175 z m 22.3119,-70.21755 a 3.2175,3.2175 0 0 1 -3.2175,3.2175 3.2175,3.2175 0 0 1 -3.2175,-3.2175 3.2175,3.2175 0 0 1 3.2175,-3.2175 3.2175,3.2175 0 0 1 3.2175,3.2175 z m 1.09395,41.68125 a 3.2175,3.2175 0 0 1 -3.2175,3.2175 3.2175,3.2175 0 0 1 -3.2175,-3.2175 3.2175,3.2175 0 0 1 3.2175,-3.2175 3.2175,3.2175 0 0 1 3.2175,3.2175 z M 170.43491,314.496 a 1.755,1.755 0 0 1 -1.755,1.755 1.755,1.755 0 0 1 -1.755,-1.755 1.755,1.755 0 0 1 1.755,-1.755 1.755,1.755 0 0 1 1.755,1.755 z m -11.56545,58.07295 a 3.2175,3.2175 0 0 1 -3.2175,3.2175 3.2175,3.2175 0 0 1 -3.2175,-3.2175 3.2175,3.2175 0 0 1 3.2175,-3.2175 3.2175,3.2175 0 0 1 3.2175,3.2175 z m 16.81875,-24.13125 a 3.2175,3.2175 0 0 1 -3.2175,3.2175 3.2175,3.2175 0 0 1 -3.2175,-3.2175 3.2175,3.2175 0 0 1 3.2175,-3.2175 3.2175,3.2175 0 0 1 3.2175,3.2175 z m 13.1625,-197.8002 a 3.2175,3.2175 0 0 1 -3.2175,3.2175 3.2175,3.2175 0 0 1 -3.2175,-3.2175 3.2175,3.2175 0 0 1 3.2175,-3.2175 3.2175,3.2175 0 0 1 3.2175,3.2175 z m 27.6003,-30.89385 a 3.2175,3.2175 0 0 1 -3.2175,3.2175 3.2175,3.2175 0 0 1 -3.2175,-3.2175 3.2175,3.2175 0 0 1 3.2175,-3.2175 3.2175,3.2175 0 0 1 3.2175,3.2175 z m -38.4228,86.39865 a 1.755,1.755 0 0 1 -1.755,1.755 1.755,1.755 0 0 1 -1.755,-1.755 1.755,1.755 0 0 1 1.755,-1.755 1.755,1.755 0 0 1 1.755,1.755 z m 25.31295,28.44855 a 1.755,1.755 0 0 1 -1.755,1.755 1.755,1.755 0 0 1 -1.755,-1.755 1.755,1.755 0 0 1 1.755,-1.755 1.755,1.755 0 0 1 1.755,1.755 z m -56.77425,16.3449 a 1.755,1.755 0 0 1 -1.755,1.755 1.755,1.755 0 0 1 -1.755,-1.755 1.755,1.755 0 0 1 1.755,-1.755 1.755,1.755 0 0 1 1.755,1.755 z m 18.3339,-6.8796 a 3.2175,3.2175 0 0 1 -3.2175,3.2175 3.2175,3.2175 0 0 1 -3.2175,-3.2175 3.2175,3.2175 0 0 1 3.2175,-3.2175 3.2175,3.2175 0 0 1 3.2175,3.2175 z m 13.5252,3.46905 a 1.755,1.755 0 0 1 -1.755,1.755 1.755,1.755 0 0 1 -1.755,-1.755 1.755,1.755 0 0 1 1.755,-1.755 1.755,1.755 0 0 1 1.755,1.755 z M 153.12476,20.7324 a 1.755,1.755 0 0 1 -1.755,1.755 1.755,1.755 0 0 1 -1.755,-1.755 1.755,1.755 0 0 1 1.755,-1.755 1.755,1.755 0 0 1 1.755,1.755 z m 29.45475,4.58055 a 1.755,1.755 0 0 1 -1.755,1.755 1.755,1.755 0 0 1 -1.755,-1.755 1.755,1.755 0 0 1 1.755,-1.755 1.755,1.755 0 0 1 1.755,1.755 z m -13.69485,103.4163 a 1.755,1.755 0 0 1 -1.755,1.755 1.755,1.755 0 0 1 -1.755,-1.755 1.755,1.755 0 0 1 1.755,-1.755 1.755,1.755 0 0 1 1.755,1.755 z m -8.541,7.49385 a 1.755,1.755 0 0 1 -1.755,1.755 1.755,1.755 0 0 1 -1.755,-1.755 1.755,1.755 0 0 1 1.755,-1.755 1.755,1.755 0 0 1 1.755,1.755 z m 37.23525,-6.201 a 1.755,1.755 0 0 1 -1.755,1.755 1.755,1.755 0 0 1 -1.755,-1.755 1.755,1.755 0 0 1 1.755,-1.755 1.755,1.755 0 0 1 1.755,1.755 z m -50.778,214.75935 a 1.755,1.755 0 0 1 -1.755,1.755 1.755,1.755 0 0 1 -1.755,-1.755 1.755,1.755 0 0 1 1.755,-1.755 1.755,1.755 0 0 1 1.755,1.755 z m -63.64215,-80.5311 a 1.755,1.755 0 0 1 -1.755,1.755 1.755,1.755 0 0 1 -1.755,-1.755 1.755,1.755 0 0 1 1.755,-1.755 1.755,1.755 0 0 1 1.755,1.755 z m 2.550598,69.0651 a 3.2175,3.2175 0 0 1 -3.217498,3.2175 3.2175,3.2175 0 0 1 -3.2175,-3.2175 3.2175,3.2175 0 0 1 3.2175,-3.2175 3.2175,3.2175 0 0 1 3.217498,3.2175 z m 92.734202,1.2051 a 1.755,1.755 0 0 1 -1.755,1.755 1.755,1.755 0 0 1 -1.755,-1.755 1.755,1.755 0 0 1 1.755,-1.755 1.755,1.755 0 0 1 1.755,1.755 z m -64.6308,-81.95265 a 1.755,1.755 0 0 1 -1.755,1.755 1.755,1.755 0 0 1 -1.755,-1.755 1.755,1.755 0 0 1 1.755,-1.755 1.755,1.755 0 0 1 1.755,1.755 z m 35.2404,-18.52695 a 3.2175,3.2175 0 0 1 -3.2175,3.2175 3.2175,3.2175 0 0 1 -3.2175,-3.2175 3.2175,3.2175 0 0 1 3.2175,-3.2175 3.2175,3.2175 0 0 1 3.2175,3.2175 z m 43.09695,36.1062 a 1.755,1.755 0 0 1 -1.755,1.755 1.755,1.755 0 0 1 -1.755,-1.755 1.755,1.755 0 0 1 1.755,-1.755 1.755,1.755 0 0 1 1.755,1.755 z M 144.31466,191.295 a 1.755,1.755 0 0 1 -1.755,1.755 1.755,1.755 0 0 1 -1.755,-1.755 1.755,1.755 0 0 1 1.755,-1.755 1.755,1.755 0 0 1 1.755,1.755 z m 40.85055,-76.5297 a 1.755,1.755 0 0 1 -1.755,1.755 1.755,1.755 0 0 1 -1.755,-1.755 1.755,1.755 0 0 1 1.755,-1.755 1.755,1.755 0 0 1 1.755,1.755 z m -58.4298,-76.7871 a 1.755,1.755 0 0 1 -1.755,1.755 1.755,1.755 0 0 1 -1.755,-1.755 1.755,1.755 0 0 1 1.755,-1.755 1.755,1.755 0 0 1 1.755,1.755 z m 48.58425,4.797 a 1.755,1.755 0 0 1 -1.755,1.755 1.755,1.755 0 0 1 -1.755,-1.755 1.755,1.755 0 0 1 1.755,-1.755 1.755,1.755 0 0 1 1.755,1.755 z m -38.3877,116.26875 a 1.755,1.755 0 0 1 -1.755,1.755 1.755,1.755 0 0 1 -1.755,-1.755 1.755,1.755 0 0 1 1.755,-1.755 1.755,1.755 0 0 1 1.755,1.755 z m -13.75335,-6.1659 a 1.755,1.755 0 0 1 -1.755,1.755 1.755,1.755 0 0 1 -1.755,-1.755 1.755,1.755 0 0 1 1.755,-1.755 1.755,1.755 0 0 1 1.755,1.755 z m 2.41605,-37.34055 a 1.755,1.755 0 0 1 -1.755,1.755 1.755,1.755 0 0 1 -1.755,-1.755 1.755,1.755 0 0 1 1.755,-1.755 1.755,1.755 0 0 1 1.755,1.755 z m 84.825,193.4127 a 1.755,1.755 0 0 1 -1.755,1.755 1.755,1.755 0 0 1 -1.755,-1.755 1.755,1.755 0 0 1 1.755,-1.755 1.755,1.755 0 0 1 1.755,1.755 z M 102.36431,262.09755 a 3.2175,3.2175 0 0 1 -3.217496,3.2175 3.2175,3.2175 0 0 1 -3.217508,-3.2175 3.2175,3.2175 0 0 1 3.217508,-3.2175 3.2175,3.2175 0 0 1 3.217496,3.2175 z m 68.45085,-156.3822 a 1.755,1.755 0 0 1 -1.755,1.755 1.755,1.755 0 0 1 -1.755,-1.755 1.755,1.755 0 0 1 1.755,-1.755 1.755,1.755 0 0 1 1.755,1.755 z m 41.067,266.4909 a 3.2175,3.2175 0 0 1 -3.2175,3.2175 3.2175,3.2175 0 0 1 -3.2175,-3.2175 3.2175,3.2175 0 0 1 3.2175,-3.2175 3.2175,3.2175 0 0 1 3.2175,3.2175 z m 0,18.28125 a 3.2175,3.2175 0 0 1 -3.2175,3.2175 3.2175,3.2175 0 0 1 -3.2175,-3.2175 3.2175,3.2175 0 0 1 3.2175,-3.2175 3.2175,3.2175 0 0 1 3.2175,3.2175 z m -0.73125,35.1 a 1.755,1.755 0 0 1 -1.755,1.755 1.755,1.755 0 0 1 -1.755,-1.755 1.755,1.755 0 0 1 1.755,-1.755 1.755,1.755 0 0 1 1.755,1.755 z m -103.46895,-49.725 a 1.755,1.755 0 0 1 -1.755,1.755 1.755,1.755 0 0 1 -1.755,-1.755 1.755,1.755 0 0 1 1.755,-1.755 1.755,1.755 0 0 1 1.755,1.755 z M 102.92591,327.6 a 1.755,1.755 0 0 1 -1.755,1.755 1.755,1.755 0 0 1 -1.754996,-1.755 1.755,1.755 0 0 1 1.754996,-1.755 1.755,1.755 0 0 1 1.755,1.755 z m 61.425,-66.18105 a 1.755,1.755 0 0 1 -1.755,1.755 1.755,1.755 0 0 1 -1.755,-1.755 1.755,1.755 0 0 1 1.755,-1.755 1.755,1.755 0 0 1 1.755,1.755 z m 2.19375,142.9623 a 1.755,1.755 0 0 1 -1.755,1.755 1.755,1.755 0 0 1 -1.755,-1.755 1.755,1.755 0 0 1 1.755,-1.755 1.755,1.755 0 0 1 1.755,1.755 z m -25.59375,-36.5625 a 3.2175,3.2175 0 0 1 -3.2175,3.2175 3.2175,3.2175 0 0 1 -3.2175,-3.2175 3.2175,3.2175 0 0 1 3.2175,-3.2175 3.2175,3.2175 0 0 1 3.2175,3.2175 z m 6.9498,22.66875 a 1.755,1.755 0 0 1 -1.755,1.755 1.755,1.755 0 0 1 -1.755,-1.755 1.755,1.755 0 0 1 1.755,-1.755 1.755,1.755 0 0 1 1.755,1.755 z m 47.89395,8.04375 a 3.2175,3.2175 0 0 1 -3.2175,3.2175 3.2175,3.2175 0 0 1 -3.2175,-3.2175 3.2175,3.2175 0 0 1 3.2175,-3.2175 3.2175,3.2175 0 0 1 3.2175,3.2175 z m -85.55625,16.0875 a 3.2175,3.2175 0 0 1 -3.2175,3.2175 3.2175,3.2175 0 0 1 -3.2175,-3.2175 3.2175,3.2175 0 0 1 3.2175,-3.2175 3.2175,3.2175 0 0 1 3.2175,3.2175 z m -5.5458,23.82705 a 1.755,1.755 0 0 1 -1.755,1.755 1.755,1.755 0 0 1 -1.755,-1.755 1.755,1.755 0 0 1 1.755,-1.755 1.755,1.755 0 0 1 1.755,1.755 z m 40.6575,-8.26605 a 1.755,1.755 0 0 1 -1.755,1.755 1.755,1.755 0 0 1 -1.755,-1.755 1.755,1.755 0 0 1 1.755,-1.755 1.755,1.755 0 0 1 1.755,1.755 z m -42.57045,52.83135 a 3.2175,3.2175 0 0 1 -3.217496,3.2175 3.2175,3.2175 0 0 1 -3.217508,-3.2175 3.2175,3.2175 0 0 1 3.217508,-3.2175 3.2175,3.2175 0 0 1 3.217496,3.2175 z m 20.93715,-9.828 a 3.2175,3.2175 0 0 1 -3.2175,3.2175 3.2175,3.2175 0 0 1 -3.2175,-3.2175 3.2175,3.2175 0 0 1 3.2175,-3.2175 3.2175,3.2175 0 0 1 3.2175,3.2175 z m 1.51515,-20.90205 a 3.2175,3.2175 0 0 1 -3.2175,3.2175 3.2175,3.2175 0 0 1 -3.2175,-3.2175 3.2175,3.2175 0 0 1 3.2175,-3.2175 3.2175,3.2175 0 0 1 3.2175,3.2175 z m -32.175004,11.7 a 1.755,1.755 0 0 1 -1.755,1.755 1.755,1.755 0 0 1 -1.754998,-1.755 1.755,1.755 0 0 1 1.754998,-1.755 1.755,1.755 0 0 1 1.755,1.755 z m 69.784654,43.5942 a 3.2175,3.2175 0 0 1 -3.2175,3.2175 3.2175,3.2175 0 0 1 -3.2175,-3.2175 3.2175,3.2175 0 0 1 3.2175,-3.2175 3.2175,3.2175 0 0 1 3.2175,3.2175 z m -21.41685,12.92265 a 3.2175,3.2175 0 0 1 -3.2175,3.2175 3.2175,3.2175 0 0 1 -3.2175,-3.2175 3.2175,3.2175 0 0 1 3.2175,-3.2175 3.2175,3.2175 0 0 1 3.2175,3.2175 z m -24.687,-2.457 a 3.2175,3.2175 0 0 1 -3.2175,3.2175 3.2175,3.2175 0 0 1 -3.2175,-3.2175 3.2175,3.2175 0 0 1 3.2175,-3.2175 3.2175,3.2175 0 0 1 3.2175,3.2175 z m 8.1432,8.92125 a 3.2175,3.2175 0 0 1 -3.2175,3.2175 3.2175,3.2175 0 0 1 -3.2175,-3.2175 3.2175,3.2175 0 0 1 3.2175,-3.2175 3.2175,3.2175 0 0 1 3.2175,3.2175 z m -15.1281,-29.99295 a 3.2175,3.2175 0 0 1 -3.2175,3.2175 3.2175,3.2175 0 0 1 -3.2175,-3.2175 3.2175,3.2175 0 0 1 3.2175,-3.2175 3.2175,3.2175 0 0 1 3.2175,3.2175 z m 31.0752,-9.1377 a 1.755,1.755 0 0 1 -1.755,1.755 1.755,1.755 0 0 1 -1.755,-1.755 1.755,1.755 0 0 1 1.755,-1.755 1.755,1.755 0 0 1 1.755,1.755 z m 45.9693,-14.6484 a 3.2175,3.2175 0 0 1 -3.2175,3.2175 3.2175,3.2175 0 0 1 -3.2175,-3.2175 3.2175,3.2175 0 0 1 3.2175,-3.2175 3.2175,3.2175 0 0 1 3.2175,3.2175 z m 46.27935,21.72105 a 3.2175,3.2175 0 0 1 -3.2175,3.2175 3.2175,3.2175 0 0 1 -3.2175,-3.2175 3.2175,3.2175 0 0 1 3.2175,-3.2175 3.2175,3.2175 0 0 1 3.2175,3.2175 z m -39.2535,12.06855 a 3.2175,3.2175 0 0 1 -3.2175,3.2175 3.2175,3.2175 0 0 1 -3.2175,-3.2175 3.2175,3.2175 0 0 1 3.2175,-3.2175 3.2175,3.2175 0 0 1 3.2175,3.2175 z m 27.12645,5.44635 a 3.2175,3.2175 0 0 1 -3.2175,3.2175 3.2175,3.2175 0 0 1 -3.2175,-3.2175 3.2175,3.2175 0 0 1 3.2175,-3.2175 3.2175,3.2175 0 0 1 3.2175,3.2175 z m 13.1625,0.0643 a 3.2175,3.2175 0 0 1 -3.2175,3.2175 3.2175,3.2175 0 0 1 -3.2175,-3.2175 3.2175,3.2175 0 0 1 3.2175,-3.2175 3.2175,3.2175 0 0 1 3.2175,3.2175 z m -42.1434,-21.4578 a 3.2175,3.2175 0 0 1 -3.2175,3.2175 3.2175,3.2175 0 0 1 -3.2175,-3.2175 3.2175,3.2175 0 0 1 3.2175,-3.2175 3.2175,3.2175 0 0 1 3.2175,3.2175 z m 3.53925,-11.9808 a 1.755,1.755 0 0 1 -1.755,1.755 1.755,1.755 0 0 1 -1.755,-1.755 1.755,1.755 0 0 1 1.755,-1.755 1.755,1.755 0 0 1 1.755,1.755 z m 34.4682,-0.9477 a 3.2175,3.2175 0 0 1 -3.2175,3.2175 3.2175,3.2175 0 0 1 -3.2175,-3.2175 3.2175,3.2175 0 0 1 3.2175,-3.2175 3.2175,3.2175 0 0 1 3.2175,3.2175 z m -5.5341,-15.30945 a 1.755,1.755 0 0 1 -1.755,1.755 1.755,1.755 0 0 1 -1.755,-1.755 1.755,1.755 0 0 1 1.755,-1.755 1.755,1.755 0 0 1 1.755,1.755 z m -7.35345,16.94745 a 1.755,1.755 0 0 1 -1.755,1.755 1.755,1.755 0 0 1 -1.755,-1.755 1.755,1.755 0 0 1 1.755,-1.755 1.755,1.755 0 0 1 1.755,1.755 z m 8.1549,19.48635 a 1.755,1.755 0 0 1 -1.755,1.755 1.755,1.755 0 0 1 -1.755,-1.755 1.755,1.755 0 0 1 1.755,-1.755 1.755,1.755 0 0 1 1.755,1.755 z m -18.018,13.21515 a 1.755,1.755 0 0 1 -1.755,1.755 1.755,1.755 0 0 1 -1.755,-1.755 1.755,1.755 0 0 1 1.755,-1.755 1.755,1.755 0 0 1 1.755,1.755 z m -7.06095,-3.276 a 1.755,1.755 0 0 1 -1.755,1.755 1.755,1.755 0 0 1 -1.755,-1.755 1.755,1.755 0 0 1 1.755,-1.755 1.755,1.755 0 0 1 1.755,1.755 z m 9.15525,-13.7358 a 3.2175,3.2175 0 0 1 -3.2175,3.2175 3.2175,3.2175 0 0 1 -3.2175,-3.2175 3.2175,3.2175 0 0 1 3.2175,-3.2175 3.2175,3.2175 0 0 1 3.2175,3.2175 z m -56.38815,47.30895 a 3.2175,3.2175 0 0 1 -3.2175,3.2175 3.2175,3.2175 0 0 1 -3.2175,-3.2175 3.2175,3.2175 0 0 1 3.2175,-3.2175 3.2175,3.2175 0 0 1 3.2175,3.2175 z m 5.4639,18.4275 a 3.2175,3.2175 0 0 1 -3.2175,3.2175 3.2175,3.2175 0 0 1 -3.2175,-3.2175 3.2175,3.2175 0 0 1 3.2175,-3.2175 3.2175,3.2175 0 0 1 3.2175,3.2175 z m 100.63755,39.56355 a 3.2175,3.2175 0 0 1 -3.2175,3.2175 3.2175,3.2175 0 0 1 -3.2175,-3.2175 3.2175,3.2175 0 0 1 3.2175,-3.2175 3.2175,3.2175 0 0 1 3.2175,3.2175 z m -8.5293,-29.78235 a 3.2175,3.2175 0 0 1 -3.2175,3.2175 3.2175,3.2175 0 0 1 -3.2175,-3.2175 3.2175,3.2175 0 0 1 3.2175,-3.2175 3.2175,3.2175 0 0 1 3.2175,3.2175 z m -8.33625,34.67295 a 1.755,1.755 0 0 1 -1.755,1.755 1.755,1.755 0 0 1 -1.755,-1.755 1.755,1.755 0 0 1 1.755,-1.755 1.755,1.755 0 0 1 1.755,1.755 z m 21.06585,26.99775 a 3.2175,3.2175 0 0 1 -3.2175,3.2175 3.2175,3.2175 0 0 1 -3.2175,-3.2175 3.2175,3.2175 0 0 1 3.2175,-3.2175 3.2175,3.2175 0 0 1 3.2175,3.2175 z m -16.3683,-6.7626 a 3.2175,3.2175 0 0 1 -3.2175,3.2175 3.2175,3.2175 0 0 1 -3.2175,-3.2175 3.2175,3.2175 0 0 1 3.2175,-3.2175 3.2175,3.2175 0 0 1 3.2175,3.2175 z m 8.48835,37.58625 a 3.2175,3.2175 0 0 1 -3.2175,3.2175 3.2175,3.2175 0 0 1 -3.2175,-3.2175 3.2175,3.2175 0 0 1 3.2175,-3.2175 3.2175,3.2175 0 0 1 3.2175,3.2175 z m -50.60835,26.6877 a 3.2175,3.2175 0 0 1 -3.2175,3.2175 3.2175,3.2175 0 0 1 -3.2175,-3.2175 3.2175,3.2175 0 0 1 3.2175,-3.2175 3.2175,3.2175 0 0 1 3.2175,3.2175 z m 49.3155,-104.2821 a 1.755,1.755 0 0 1 -1.755,1.755 1.755,1.755 0 0 1 -1.755,-1.755 1.755,1.755 0 0 1 1.755,-1.755 1.755,1.755 0 0 1 1.755,1.755 z m -40.16025,86.2641 a 3.2175,3.2175 0 0 1 -3.2175,3.2175 3.2175,3.2175 0 0 1 -3.2175,-3.2175 3.2175,3.2175 0 0 1 3.2175,-3.2175 3.2175,3.2175 0 0 1 3.2175,3.2175 z m 28.50705,-20.709 a 3.2175,3.2175 0 0 1 -3.2175,3.2175 3.2175,3.2175 0 0 1 -3.2175,-3.2175 3.2175,3.2175 0 0 1 3.2175,-3.2175 3.2175,3.2175 0 0 1 3.2175,3.2175 z m -47.55465,-24.921 a 3.2175,3.2175 0 0 1 -3.2175,3.2175 3.2175,3.2175 0 0 1 -3.2175,-3.2175 3.2175,3.2175 0 0 1 3.2175,-3.2175 3.2175,3.2175 0 0 1 3.2175,3.2175 z m 17.39205,8.32455 a 3.2175,3.2175 0 0 1 -3.2175,3.2175 3.2175,3.2175 0 0 1 -3.2175,-3.2175 3.2175,3.2175 0 0 1 3.2175,-3.2175 3.2175,3.2175 0 0 1 3.2175,3.2175 z m -56.1366,6.72165 a 1.755,1.755 0 0 1 -1.755,1.755 1.755,1.755 0 0 1 -1.755,-1.755 1.755,1.755 0 0 1 1.755,-1.755 1.755,1.755 0 0 1 1.755,1.755 z m 54.8379,-24.8742 a 3.2175,3.2175 0 0 1 -3.2175,3.2175 3.2175,3.2175 0 0 1 -3.2175,-3.2175 3.2175,3.2175 0 0 1 3.2175,-3.2175 3.2175,3.2175 0 0 1 3.2175,3.2175 z m -55.9494,41.0904 a 3.2175,3.2175 0 0 1 -3.2175,3.2175 3.2175,3.2175 0 0 1 -3.2175,-3.2175 3.2175,3.2175 0 0 1 3.2175,-3.2175 3.2175,3.2175 0 0 1 3.2175,3.2175 z m 75.79845,-107.2773 a 3.2175,3.2175 0 0 1 -3.2175,3.2175 3.2175,3.2175 0 0 1 -3.2175,-3.2175 3.2175,3.2175 0 0 1 3.2175,-3.2175 3.2175,3.2175 0 0 1 3.2175,3.2175 z m -50.8716,-8.21925 a 3.2175,3.2175 0 0 1 -3.2175,3.2175 3.2175,3.2175 0 0 1 -3.2175,-3.2175 3.2175,3.2175 0 0 1 3.2175,-3.2175 3.2175,3.2175 0 0 1 3.2175,3.2175 z m 44.66475,-9.14355 a 1.755,1.755 0 0 1 -1.755,1.755 1.755,1.755 0 0 1 -1.755,-1.755 1.755,1.755 0 0 1 1.755,-1.755 1.755,1.755 0 0 1 1.755,1.755 z m 14.51385,49.47345 a 3.2175,3.2175 0 0 1 -3.2175,3.2175 3.2175,3.2175 0 0 1 -3.2175,-3.2175 3.2175,3.2175 0 0 1 3.2175,-3.2175 3.2175,3.2175 0 0 1 3.2175,3.2175 z m -38.9025,2.5857 a 3.2175,3.2175 0 0 1 -3.2175,3.2175 3.2175,3.2175 0 0 1 -3.2175,-3.2175 3.2175,3.2175 0 0 1 3.2175,-3.2175 3.2175,3.2175 0 0 1 3.2175,3.2175 z m -57.46455,39.61035 a 3.2175,3.2175 0 0 1 -3.2175,3.2175 3.2175,3.2175 0 0 1 -3.2175,-3.2175 3.2175,3.2175 0 0 1 3.2175,-3.2175 3.2175,3.2175 0 0 1 3.2175,3.2175 z m 41.067,-18.66735 a 3.2175,3.2175 0 0 1 -3.2175,3.2175 3.2175,3.2175 0 0 1 -3.2175,-3.2175 3.2175,3.2175 0 0 1 3.2175,-3.2175 3.2175,3.2175 0 0 1 3.2175,3.2175 z m 76.46535,10.2492 a 1.755,1.755 0 0 1 -1.755,1.755 1.755,1.755 0 0 1 -1.755,-1.755 1.755,1.755 0 0 1 1.755,-1.755 1.755,1.755 0 0 1 1.755,1.755 z m -17.67285,-76.8748 a 3.2175,3.2175 0 0 1 -3.2175,3.2175 3.2175,3.2175 0 0 1 -3.2175,-3.2175 3.2175,3.2175 0 0 1 3.2175,-3.2175 3.2175,3.2175 0 0 1 3.2175,3.2175 z m -85.82535,80.0982 a 3.2175,3.2175 0 0 1 -3.2175,3.2175 3.2175,3.2175 0 0 1 -3.2175,-3.2175 3.2175,3.2175 0 0 1 3.2175,-3.2175 3.2175,3.2175 0 0 1 3.2175,3.2175 z m 31.71285,-53.76735 a 1.755,1.755 0 0 1 -1.755,1.755 1.755,1.755 0 0 1 -1.755,-1.755 1.755,1.755 0 0 1 1.755,-1.755 1.755,1.755 0 0 1 1.755,1.755 z M 124.86341,551.3625 a 3.2175,3.2175 0 0 1 -3.2175,3.2175 3.2175,3.2175 0 0 1 -3.2175,-3.2175 3.2175,3.2175 0 0 1 3.2175,-3.2175 3.2175,3.2175 0 0 1 3.2175,3.2175 z m 10.7874,55.2123 a 1.755,1.755 0 0 1 -1.755,1.755 1.755,1.755 0 0 1 -1.755,-1.755 1.755,1.755 0 0 1 1.755,-1.755 1.755,1.755 0 0 1 1.755,1.755 z m 37.1124,-22.30605 a 3.2175,3.2175 0 0 1 -3.2175,3.2175 3.2175,3.2175 0 0 1 -3.2175,-3.2175 3.2175,3.2175 0 0 1 3.2175,-3.2175 3.2175,3.2175 0 0 1 3.2175,3.2175 z m -40.5873,3.29355 a 3.2175,3.2175 0 0 1 -3.2175,3.2175 3.2175,3.2175 0 0 1 -3.2175,-3.2175 3.2175,3.2175 0 0 1 3.2175,-3.2175 3.2175,3.2175 0 0 1 3.2175,3.2175 z m 23.37075,5.84415 a 1.755,1.755 0 0 1 -1.755,1.755 1.755,1.755 0 0 1 -1.755,-1.755 1.755,1.755 0 0 1 1.755,-1.755 1.755,1.755 0 0 1 1.755,1.755 z m -12.58335,61.9749 a 3.2175,3.2175 0 0 1 -3.2175,3.2175 3.2175,3.2175 0 0 1 -3.2175,-3.2175 3.2175,3.2175 0 0 1 3.2175,-3.2175 3.2175,3.2175 0 0 1 3.2175,3.2175 z m 1.79595,11.2671 a 1.755,1.755 0 0 1 -1.755,1.755 1.755,1.755 0 0 1 -1.755,-1.755 1.755,1.755 0 0 1 1.755,-1.755 1.755,1.755 0 0 1 1.755,1.755 z m -15.87105,22.18905 a 3.2175,3.2175 0 0 1 -3.2175,3.2175 3.2175,3.2175 0 0 1 -3.2175,-3.2175 3.2175,3.2175 0 0 1 3.2175,-3.2175 3.2175,3.2175 0 0 1 3.2175,3.2175 z m 46.43145,-47.7126 a 3.2175,3.2175 0 0 1 -3.2175,3.2175 3.2175,3.2175 0 0 1 -3.2175,-3.2175 3.2175,3.2175 0 0 1 3.2175,-3.2175 3.2175,3.2175 0 0 1 3.2175,3.2175 z m -87.457502,99.60795 a 3.2175,3.2175 0 0 1 -3.2175,3.2175 3.2175,3.2175 0 0 1 -3.217498,-3.2175 3.2175,3.2175 0 0 1 3.217498,-3.2175 3.2175,3.2175 0 0 1 3.2175,3.2175 z M 70.815264,759.3417 a 3.2175,3.2175 0 0 1 -3.2175,3.2175 3.2175,3.2175 0 0 1 -3.217508,-3.2175 3.2175,3.2175 0 0 1 3.217508,-3.2175 3.2175,3.2175 0 0 1 3.2175,3.2175 z m 8.271896,-7.5231 a 1.755,1.755 0 0 1 -1.754998,1.755 1.755,1.755 0 0 1 -1.755,-1.755 1.755,1.755 0 0 1 1.755,-1.755 1.755,1.755 0 0 1 1.754998,1.755 z m 31.9176,17.7489 a 3.2175,3.2175 0 0 1 -3.2175,3.2175 3.2175,3.2175 0 0 1 -3.2175,-3.2175 3.2175,3.2175 0 0 1 3.2175,-3.2175 3.2175,3.2175 0 0 1 3.2175,3.2175 z m -12.407846,-8.3421 a 3.2175,3.2175 0 0 1 -3.217508,3.2175 3.2175,3.2175 0 0 1 -3.2175,-3.2175 3.2175,3.2175 0 0 1 3.2175,-3.2175 3.2175,3.2175 0 0 1 3.217508,3.2175 z m 59.722646,-25.21935 a 3.2175,3.2175 0 0 1 -3.2175,3.2175 3.2175,3.2175 0 0 1 -3.2175,-3.2175 3.2175,3.2175 0 0 1 3.2175,-3.2175 3.2175,3.2175 0 0 1 3.2175,3.2175 z m 23.03145,-22.4874 a 3.2175,3.2175 0 0 1 -3.2175,3.2175 3.2175,3.2175 0 0 1 -3.2175,-3.2175 3.2175,3.2175 0 0 1 3.2175,-3.2175 3.2175,3.2175 0 0 1 3.2175,3.2175 z m -58.5,41.4999 a 1.755,1.755 0 0 1 -1.755,1.755 1.755,1.755 0 0 1 -1.755,-1.755 1.755,1.755 0 0 1 1.755,-1.755 1.755,1.755 0 0 1 1.755,1.755 z m 46.06875,15.35625 a 3.2175,3.2175 0 0 1 -3.2175,3.2175 3.2175,3.2175 0 0 1 -3.2175,-3.2175 3.2175,3.2175 0 0 1 3.2175,-3.2175 3.2175,3.2175 0 0 1 3.2175,3.2175 z m -39.4875,-5.85 a 3.2175,3.2175 0 0 1 -3.2175,3.2175 3.2175,3.2175 0 0 1 -3.2175,-3.2175 3.2175,3.2175 0 0 1 3.2175,-3.2175 3.2175,3.2175 0 0 1 3.2175,3.2175 z m 10.6119,35.67915 a 3.2175,3.2175 0 0 1 -3.2175,3.2175 3.2175,3.2175 0 0 1 -3.2175,-3.2175 3.2175,3.2175 0 0 1 3.2175,-3.2175 3.2175,3.2175 0 0 1 3.2175,3.2175 z m -25.32465,-5.64525 a 3.2175,3.2175 0 0 1 -3.2175,3.2175 3.2175,3.2175 0 0 1 -3.2175,-3.2175 3.2175,3.2175 0 0 1 3.2175,-3.2175 3.2175,3.2175 0 0 1 3.2175,3.2175 z m 25.5879,-44.54775 a 1.755,1.755 0 0 1 -1.755,1.755 1.755,1.755 0 0 1 -1.755,-1.755 1.755,1.755 0 0 1 1.755,-1.755 1.755,1.755 0 0 1 1.755,1.755 z m -39.90285,41.0202 a 3.2175,3.2175 0 0 1 -3.217496,3.2175 3.2175,3.2175 0 0 1 -3.217508,-3.2175 3.2175,3.2175 0 0 1 3.217508,-3.2175 3.2175,3.2175 0 0 1 3.217496,3.2175 z m 21.4578,-8.09055 a 3.2175,3.2175 0 0 1 -3.2175,3.2175 3.2175,3.2175 0 0 1 -3.2175,-3.2175 3.2175,3.2175 0 0 1 3.2175,-3.2175 3.2175,3.2175 0 0 1 3.2175,3.2175 z m -39.46995,-1.35135 a 3.2175,3.2175 0 0 1 -3.2175,3.2175 3.2175,3.2175 0 0 1 -3.217498,-3.2175 3.2175,3.2175 0 0 1 3.217498,-3.2175 3.2175,3.2175 0 0 1 3.2175,3.2175 z m -15.707246,3.159 a 3.2175,3.2175 0 0 1 -3.217508,3.2175 3.2175,3.2175 0 0 1 -3.2175,-3.2175 3.2175,3.2175 0 0 1 3.2175,-3.2175 3.2175,3.2175 0 0 1 3.217508,3.2175 z M 147.28646,769.6611 a 1.755,1.755 0 0 1 -1.755,1.755 1.755,1.755 0 0 1 -1.755,-1.755 1.755,1.755 0 0 1 1.755,-1.755 1.755,1.755 0 0 1 1.755,1.755 z m -29.4138,55.93185 a 3.2175,3.2175 0 0 1 -3.2175,3.2175 3.2175,3.2175 0 0 1 -3.2175,-3.2175 3.2175,3.2175 0 0 1 3.2175,-3.2175 3.2175,3.2175 0 0 1 3.2175,3.2175 z m 48.22155,-6.53445 a 3.2175,3.2175 0 0 1 -3.2175,3.2175 3.2175,3.2175 0 0 1 -3.2175,-3.2175 3.2175,3.2175 0 0 1 3.2175,-3.2175 3.2175,3.2175 0 0 1 3.2175,3.2175 z m -50.60835,-83.7486 a 3.2175,3.2175 0 0 1 -3.2175,3.2175 3.2175,3.2175 0 0 1 -3.2175,-3.2175 3.2175,3.2175 0 0 1 3.2175,-3.2175 3.2175,3.2175 0 0 1 3.2175,3.2175 z m 46.0863,-16.2279 a 3.2175,3.2175 0 0 1 -3.2175,3.2175 3.2175,3.2175 0 0 1 -3.2175,-3.2175 3.2175,3.2175 0 0 1 3.2175,-3.2175 3.2175,3.2175 0 0 1 3.2175,3.2175 z m -56.16585,-2.6793 a 1.755,1.755 0 0 1 -1.755,1.755 1.755,1.755 0 0 1 -1.755,-1.755 1.755,1.755 0 0 1 1.755,-1.755 1.755,1.755 0 0 1 1.755,1.755 z m 39.98475,-24.9093 a 3.2175,3.2175 0 0 1 -3.2175,3.2175 3.2175,3.2175 0 0 1 -3.2175,-3.2175 3.2175,3.2175 0 0 1 3.2175,-3.2175 3.2175,3.2175 0 0 1 3.2175,3.2175 z m 42.4008,3.2877 a 3.2175,3.2175 0 0 1 -3.2175,3.2175 3.2175,3.2175 0 0 1 -3.2175,-3.2175 3.2175,3.2175 0 0 1 3.2175,-3.2175 3.2175,3.2175 0 0 1 3.2175,3.2175 z m -33.0057,-15.05205 a 3.2175,3.2175 0 0 1 -3.2175,3.2175 3.2175,3.2175 0 0 1 -3.2175,-3.2175 3.2175,3.2175 0 0 1 3.2175,-3.2175 3.2175,3.2175 0 0 1 3.2175,3.2175 z m 38.844,-31.49055 a 3.2175,3.2175 0 0 1 -3.2175,3.2175 3.2175,3.2175 0 0 1 -3.2175,-3.2175 3.2175,3.2175 0 0 1 3.2175,-3.2175 3.2175,3.2175 0 0 1 3.2175,3.2175 z m -23.3298,-123.93225 a 1.755,1.755 0 0 1 -1.755,1.755 1.755,1.755 0 0 1 -1.755,-1.755 1.755,1.755 0 0 1 1.755,-1.755 1.755,1.755 0 0 1 1.755,1.755 z m 60.3252,151.5852 a 1.755,1.755 0 0 1 -1.755,1.755 1.755,1.755 0 0 1 -1.755,-1.755 1.755,1.755 0 0 1 1.755,-1.755 1.755,1.755 0 0 1 1.755,1.755 z m -3.87855,-14.29155 a 1.755,1.755 0 0 1 -1.755,1.755 1.755,1.755 0 0 1 -1.755,-1.755 1.755,1.755 0 0 1 1.755,-1.755 1.755,1.755 0 0 1 1.755,1.755 z m -96.26175,50.44455 a 3.2175,3.2175 0 0 1 -3.2175,3.2175 3.2175,3.2175 0 0 1 -3.2175,-3.2175 3.2175,3.2175 0 0 1 3.2175,-3.2175 3.2175,3.2175 0 0 1 3.2175,3.2175 z m 43.75215,30.303 a 3.2175,3.2175 0 0 1 -3.2175,3.2175 3.2175,3.2175 0 0 1 -3.2175,-3.2175 3.2175,3.2175 0 0 1 3.2175,-3.2175 3.2175,3.2175 0 0 1 3.2175,3.2175 z m 0.4563,-80.496 a 1.755,1.755 0 0 1 -1.755,1.755 1.755,1.755 0 0 1 -1.755,-1.755 1.755,1.755 0 0 1 1.755,-1.755 1.755,1.755 0 0 1 1.755,1.755 z m -29.6478,169.57395 a 3.2175,3.2175 0 0 1 -3.2175,3.2175 3.2175,3.2175 0 0 1 -3.2175,-3.2175 3.2175,3.2175 0 0 1 3.2175,-3.2175 3.2175,3.2175 0 0 1 3.2175,3.2175 z m 15.3387,-0.9126 a 3.2175,3.2175 0 0 1 -3.2175,3.2175 3.2175,3.2175 0 0 1 -3.2175,-3.2175 3.2175,3.2175 0 0 1 3.2175,-3.2175 3.2175,3.2175 0 0 1 3.2175,3.2175 z m 10.68795,14.67765 a 3.2175,3.2175 0 0 1 -3.2175,3.2175 3.2175,3.2175 0 0 1 -3.2175,-3.2175 3.2175,3.2175 0 0 1 3.2175,-3.2175 3.2175,3.2175 0 0 1 3.2175,3.2175 z m -20.36385,1.86615 a 3.2175,3.2175 0 0 1 -3.2175,3.2175 3.2175,3.2175 0 0 1 -3.2175,-3.2175 3.2175,3.2175 0 0 1 3.2175,-3.2175 3.2175,3.2175 0 0 1 3.2175,3.2175 z m 16.2279,-51.54435 a 1.755,1.755 0 0 1 -1.755,1.755 1.755,1.755 0 0 1 -1.755,-1.755 1.755,1.755 0 0 1 1.755,-1.755 1.755,1.755 0 0 1 1.755,1.755 z m 51.8778,72.5634 a 3.2175,3.2175 0 0 1 -3.2175,3.2175 3.2175,3.2175 0 0 1 -3.2175,-3.2175 3.2175,3.2175 0 0 1 3.2175,-3.2175 3.2175,3.2175 0 0 1 3.2175,3.2175 z m 18.3573,3.5451 a 3.2175,3.2175 0 0 1 -3.2175,3.2175 3.2175,3.2175 0 0 1 -3.2175,-3.2175 3.2175,3.2175 0 0 1 3.2175,-3.2175 3.2175,3.2175 0 0 1 3.2175,3.2175 z m -103.58595,-21.0015 a 3.2175,3.2175 0 0 1 -3.2175,3.2175 3.2175,3.2175 0 0 1 -3.2175,-3.2175 3.2175,3.2175 0 0 1 3.2175,-3.2175 3.2175,3.2175 0 0 1 3.2175,3.2175 z m 67.02345,32.6313 a 3.2175,3.2175 0 0 1 -3.2175,3.2175 3.2175,3.2175 0 0 1 -3.2175,-3.2175 3.2175,3.2175 0 0 1 3.2175,-3.2175 3.2175,3.2175 0 0 1 3.2175,3.2175 z M 192.27296,856.791 a 1.755,1.755 0 0 1 -1.755,1.755 1.755,1.755 0 0 1 -1.755,-1.755 1.755,1.755 0 0 1 1.755,-1.755 1.755,1.755 0 0 1 1.755,1.755 z m 52.91325,30.67155 a 3.2175,3.2175 0 0 1 -3.2175,3.2175 3.2175,3.2175 0 0 1 -3.2175,-3.2175 3.2175,3.2175 0 0 1 3.2175,-3.2175 3.2175,3.2175 0 0 1 3.2175,3.2175 z m -104.76765,-17.199 a 3.2175,3.2175 0 0 1 -3.2175,3.2175 3.2175,3.2175 0 0 1 -3.2175,-3.2175 3.2175,3.2175 0 0 1 3.2175,-3.2175 3.2175,3.2175 0 0 1 3.2175,3.2175 z m 22.1247,7.76295 a 3.2175,3.2175 0 0 1 -3.2175,3.2175 3.2175,3.2175 0 0 1 -3.2175,-3.2175 3.2175,3.2175 0 0 1 3.2175,-3.2175 3.2175,3.2175 0 0 1 3.2175,3.2175 z m 26.6877,13.49595 a 3.2175,3.2175 0 0 1 -3.2175,3.2175 3.2175,3.2175 0 0 1 -3.2175,-3.2175 3.2175,3.2175 0 0 1 3.2175,-3.2175 3.2175,3.2175 0 0 1 3.2175,3.2175 z m -64.116,-117.0234 a 1.755,1.755 0 0 1 -1.755,1.755 1.755,1.755 0 0 1 -1.755,-1.755 1.755,1.755 0 0 1 1.755,-1.755 1.755,1.755 0 0 1 1.755,1.755 z m -14.3676,87.36975 a 3.2175,3.2175 0 0 1 -3.2175,3.2175 3.2175,3.2175 0 0 1 -3.2175,-3.2175 3.2175,3.2175 0 0 1 3.2175,-3.2175 3.2175,3.2175 0 0 1 3.2175,3.2175 z m 0.5148,25.5177 a 3.2175,3.2175 0 0 1 -3.2175,3.2175 3.2175,3.2175 0 0 1 -3.2175,-3.2175 3.2175,3.2175 0 0 1 3.2175,-3.2175 3.2175,3.2175 0 0 1 3.2175,3.2175 z M 58.869556,770.98905 a 3.2175,3.2175 0 0 1 -3.217498,3.2175 3.2175,3.2175 0 0 1 -3.2175,-3.2175 3.2175,3.2175 0 0 1 3.2175,-3.2175 3.2175,3.2175 0 0 1 3.217498,3.2175 z M 78.32666,833.0985 a 3.2175,3.2175 0 0 1 -3.217498,3.2175 3.2175,3.2175 0 0 1 -3.2175,-3.2175 3.2175,3.2175 0 0 1 3.2175,-3.2175 3.2175,3.2175 0 0 1 3.217498,3.2175 z M 75.670762,803.79 a 1.755,1.755 0 0 1 -1.755,1.755 1.755,1.755 0 0 1 -1.755,-1.755 1.755,1.755 0 0 1 1.755,-1.755 1.755,1.755 0 0 1 1.755,1.755 z m 58.236748,77.7348 a 3.2175,3.2175 0 0 1 -3.2175,3.2175 3.2175,3.2175 0 0 1 -3.2175,-3.2175 3.2175,3.2175 0 0 1 3.2175,-3.2175 3.2175,3.2175 0 0 1 3.2175,3.2175 z M 89.289558,825.084 a 3.2175,3.2175 0 0 1 -3.2175,3.2175 3.2175,3.2175 0 0 1 -3.217498,-3.2175 3.2175,3.2175 0 0 1 3.217498,-3.2175 3.2175,3.2175 0 0 1 3.2175,3.2175 z M 39.734212,789.3405 a 3.2175,3.2175 0 0 1 -3.217498,3.2175 3.2175,3.2175 0 0 1 -3.2175,-3.2175 3.2175,3.2175 0 0 1 3.2175,-3.2175 3.2175,3.2175 0 0 1 3.217498,3.2175 z m 17.128796,21.0015 a 3.2175,3.2175 0 0 1 -3.2175,3.2175 3.2175,3.2175 0 0 1 -3.217498,-3.2175 3.2175,3.2175 0 0 1 3.217498,-3.2175 3.2175,3.2175 0 0 1 3.2175,3.2175 z m 49.836152,65.8359 a 1.755,1.755 0 0 1 -1.755,1.755 1.755,1.755 0 0 1 -1.755,-1.755 1.755,1.755 0 0 1 1.755,-1.755 1.755,1.755 0 0 1 1.755,1.755 z m 46.10385,-65.32695 a 1.755,1.755 0 0 1 -1.755,1.755 1.755,1.755 0 0 1 -1.755,-1.755 1.755,1.755 0 0 1 1.755,-1.755 1.755,1.755 0 0 1 1.755,1.755 z m -51.7374,22.46985 a 3.2175,3.2175 0 0 1 3.2175,3.2175 3.2175,3.2175 0 0 1 -3.2175,3.2175 3.2175,3.2175 0 0 1 -3.217496,-3.2175 3.2175,3.2175 0 0 1 3.217496,-3.2175 z m 51.39225,-45.0099 a 3.2175,3.2175 0 0 1 -3.2175,3.2175 3.2175,3.2175 0 0 1 -3.2175,-3.2175 3.2175,3.2175 0 0 1 3.2175,-3.2175 3.2175,3.2175 0 0 1 3.2175,3.2175 z m -57.850654,59.78115 a 3.2175,3.2175 0 0 1 -3.2175,3.2175 3.2175,3.2175 0 0 1 -3.217498,-3.2175 3.2175,3.2175 0 0 1 3.217498,-3.2175 3.2175,3.2175 0 0 1 3.2175,3.2175 z m 21.141904,0.4212 a 1.755,1.755 0 0 1 -1.755,1.755 1.755,1.755 0 0 1 -1.755,-1.755 1.755,1.755 0 0 1 1.755,-1.755 1.755,1.755 0 0 1 1.755,1.755 z m 37.7793,41.2308 a 3.2175,3.2175 0 0 1 -3.2175,3.2175 3.2175,3.2175 0 0 1 -3.2175,-3.2175 3.2175,3.2175 0 0 1 3.2175,-3.2175 3.2175,3.2175 0 0 1 3.2175,3.2175 z m -38.727,-80.5194 a 1.755,1.755 0 0 1 -1.755,1.755 1.755,1.755 0 0 1 -1.755,-1.755 1.755,1.755 0 0 1 1.755,-1.755 1.755,1.755 0 0 1 1.755,1.755 z m 53.94285,81.9819 a 3.2175,3.2175 0 0 1 -3.2175,3.2175 3.2175,3.2175 0 0 1 -3.2175,-3.2175 3.2175,3.2175 0 0 1 3.2175,-3.2175 3.2175,3.2175 0 0 1 3.2175,3.2175 z m -44.4015,-2.7846 a 3.2175,3.2175 0 0 1 -3.2175,3.2175 3.2175,3.2175 0 0 1 -3.2175,-3.2175 3.2175,3.2175 0 0 1 3.2175,-3.2175 3.2175,3.2175 0 0 1 3.2175,3.2175 z m 84.2166,-13.0221 a 1.755,1.755 0 0 1 -1.755,1.755 1.755,1.755 0 0 1 -1.755,-1.755 1.755,1.755 0 0 1 1.755,-1.755 1.755,1.755 0 0 1 1.755,1.755 z m -29.56005,5.85585 a 3.2175,3.2175 0 0 1 -3.2175,3.2175 3.2175,3.2175 0 0 1 -3.2175,-3.2175 3.2175,3.2175 0 0 1 3.2175,-3.2175 3.2175,3.2175 0 0 1 3.2175,3.2175 z m 35.16435,8.9739 a 3.2175,3.2175 0 0 1 -3.2175,3.2175 3.2175,3.2175 0 0 1 -3.2175,-3.2175 3.2175,3.2175 0 0 1 3.2175,-3.2175 3.2175,3.2175 0 0 1 3.2175,3.2175 z M 125.41331,839.475 a 1.755,1.755 0 0 1 -1.755,1.755 1.755,1.755 0 0 1 -1.755,-1.755 1.755,1.755 0 0 1 1.755,-1.755 1.755,1.755 0 0 1 1.755,1.755 z m 80.2503,23.9499 a 3.2175,3.2175 0 0 1 -3.2175,3.2175 3.2175,3.2175 0 0 1 -3.2175,-3.2175 3.2175,3.2175 0 0 1 3.2175,-3.2175 3.2175,3.2175 0 0 1 3.2175,3.2175 z m 23.0373,-242.04375 a 1.755,1.755 0 0 1 -1.755,1.755 1.755,1.755 0 0 1 -1.755,-1.755 1.755,1.755 0 0 1 1.755,-1.755 1.755,1.755 0 0 1 1.755,1.755 z m -3.29355,262.51875 a 1.755,1.755 0 0 1 -1.755,1.755 1.755,1.755 0 0 1 -1.755,-1.755 1.755,1.755 0 0 1 1.755,-1.755 1.755,1.755 0 0 1 1.755,1.755 z M 143.51321,735.0876 a 1.755,1.755 0 0 1 -1.755,1.755 1.755,1.755 0 0 1 -1.755,-1.755 1.755,1.755 0 0 1 1.755,-1.755 1.755,1.755 0 0 1 1.755,1.755 z" />
</svg>
