<svg xmlns="http://www.w3.org/2000/svg" width="142.27" height="69.69" viewBox="0 0 142.27 69.69">
  <title>FASIE</title>
  <g>
    <path d="M8.23,11.34a3.08,3.08,0,0,1-.33,1.45,3.48,3.48,0,0,1-.78,1l-1,.67a4,4,0,0,1-1.22.22v1H3v-1a6.35,6.35,0,0,1-1.56-.44,2.42,2.42,0,0,1-1-.78,3.5,3.5,0,0,1-.56-1.11,5.68,5.68,0,0,1-.22-1.45V6.78A3.08,3.08,0,0,1,0,5.34a2.66,2.66,0,0,1,.67-.89,3.67,3.67,0,0,1,1.11-.67A2.39,2.39,0,0,1,3,3.56V2.89H5v.67a4.74,4.74,0,0,1,1.22.22,2.62,2.62,0,0,1,1,.67,3.44,3.44,0,0,1,.78,1,3.06,3.06,0,0,1,.33,1.45v4.45ZM3,5.11a3.33,3.33,0,0,0-1.11.44,1.88,1.88,0,0,0-.33,1.11v4.89a1.41,1.41,0,0,0,.11.67,1.55,1.55,0,0,0,.33.44c.11.11.33.22.44.33a1,1,0,0,0,.56.11ZM6.45,6.67A1.43,1.43,0,0,0,6,5.56a2.1,2.1,0,0,0-1-.44V13c.11,0,.33-.11.44-.11a1.55,1.55,0,0,0,.44-.33,1.54,1.54,0,0,0,.33-.44,1,1,0,0,0,.11-.56V6.67Z" style="fill: #4f4f4f"/>
    <path d="M18.12,12.34a3.53,3.53,0,0,1-.78,2.56,3.18,3.18,0,0,1-2.33.89A2.83,2.83,0,0,1,12.67,15a3.67,3.67,0,0,1-.78-2.33V6.22a4.82,4.82,0,0,1,.22-1.33,3.52,3.52,0,0,1,.56-1.11,1.62,1.62,0,0,1,1-.67,5.63,5.63,0,0,1,1.45-.22,4.92,4.92,0,0,1,1.44.22,1.13,1.13,0,0,1,.89.56A3.48,3.48,0,0,1,18,4.78a5.87,5.87,0,0,1,.11,1.45ZM16.12,6a3.25,3.25,0,0,0-.22-1c-.11-.33-.44-.44-.89-.44a.84.84,0,0,0-.56.11c-.22.22-.33.33-.33.56a.84.84,0,0,0-.11.56v7a2.08,2.08,0,0,0,.22.89,1,1,0,0,0,.89.44.9.9,0,0,0,.89-.44c.22-.22.22-.56.22-1V6Z" style="fill: #4f4f4f"/>
    <polygon points="26.12 15.67 26.12 10.12 23.79 10.12 23.79 15.67 21.9 15.67 21.9 2.89 23.9 2.89 23.9 8.22 26.23 8.22 26.23 2.89 28.23 2.89 28.23 15.67 26.12 15.67" style="fill: #4f4f4f"/>
    <path d="M32.9,15.67v2.45H31.23V14l.78-.11a2.65,2.65,0,0,0,.67-1.22,7.93,7.93,0,0,0,.22-1.89L33.12,3H38.9V14h.78v4.22H38V15.78H32.9Zm1.78-5c0,.78-.11,1.33-.11,1.89a3.75,3.75,0,0,1-.44,1.33H36.9V4.78h-2Z" style="fill: #4f4f4f"/>
    <path d="M51.68,2.78A4.15,4.15,0,0,1,53,3a4.5,4.5,0,0,1,1,.56,2.42,2.42,0,0,1,.56.89,4,4,0,0,1,.22,1.22l-1.89.44A2.77,2.77,0,0,0,52.68,5a.9.9,0,0,0-.89-.44.83.83,0,0,0-.56.11L50.91,5a.67.67,0,0,0-.11.44v7.45c0,.11.11.33.11.44l.33.33a.83.83,0,0,0,.56.11c.78,0,1.11-.56,1.11-1.56a3.07,3.07,0,0,0,1,.11c.33,0,.67.11,1,.11a3.66,3.66,0,0,1-.78,2.33,2.92,2.92,0,0,1-2.22.89,2.82,2.82,0,0,1-2.33-.78,3.13,3.13,0,0,1-.78-2.33V6.22a5.41,5.41,0,0,1,.11-1.33,3.52,3.52,0,0,1,.56-1.11,2.42,2.42,0,0,1,1-.78,2.26,2.26,0,0,1,1.22-.22" style="fill: #4f4f4f"/>
    <path d="M64.13,12.34a3.53,3.53,0,0,1-.78,2.56,3.18,3.18,0,0,1-2.33.89A2.83,2.83,0,0,1,58.69,15a3.68,3.68,0,0,1-.78-2.33V6.22a4.81,4.81,0,0,1,.22-1.33,3.5,3.5,0,0,1,.56-1.11,1.62,1.62,0,0,1,1-.67,5.63,5.63,0,0,1,1.45-.22,4.93,4.93,0,0,1,1.44.22,2,2,0,0,1,1,.67,3.48,3.48,0,0,1,.56,1.11v7.45ZM62.13,6a3.25,3.25,0,0,0-.22-1c-.11-.33-.44-.44-.89-.44a.83.83,0,0,0-.56.11L60.13,5c-.11.11-.11.33-.22.56v7a2.11,2.11,0,0,0,.22.89,1.16,1.16,0,0,0,.89.44.9.9,0,0,0,.89-.44c.22-.22.22-.56.22-1Z" style="fill: #4f4f4f"/>
    <path d="M68.8,15.67v2.45H67.13V14l.78-.11a2.65,2.65,0,0,0,.67-1.22,7.93,7.93,0,0,0,.22-1.89L69,3H74.8V14h.78v4.22H73.91V15.78H68.8Zm1.78-5c0,.78-.11,1.33-.11,1.89A3.75,3.75,0,0,1,70,13.89H72.8V4.78h-2Z" style="fill: #4f4f4f"/>
    <polygon points="78.81 15.67 78.81 2.89 84.47 2.89 84.47 4.78 80.81 4.78 80.81 8.22 84.03 8.22 84.03 10.12 80.81 10.12 80.81 13.78 84.47 13.78 84.47 15.67 78.81 15.67" style="fill: #4f4f4f"/>
    <path d="M92.36,7.67l-2.67,8H87.81V2.89H89.7V11l2.67-8.11h1.89V15.67h-2ZM89.92,0A.84.84,0,0,0,90,.44c.11.11.11.22.22.44l.33.33a.67.67,0,0,0,.44.11c.22,0,.33,0,.44-.11l.33-.33A.58.58,0,0,0,92,.44c0-.11.11-.22.11-.44h1.45a3.48,3.48,0,0,1-.22.89c.11.22-.11.56-.33.78a4.84,4.84,0,0,1-.78.67,3.29,3.29,0,0,1-1.11.22,4,4,0,0,1-1.22-.22,1.49,1.49,0,0,1-.78-.67A2.81,2.81,0,0,1,88.7.89,3.44,3.44,0,0,1,88.47,0Z" style="fill: #4f4f4f"/>
    <path d="M101.15,2.78a4.14,4.14,0,0,1,1.33.22,4.51,4.51,0,0,1,1,.56,2.43,2.43,0,0,1,.56.89,4,4,0,0,1,.22,1.22l-1.89.44A2.77,2.77,0,0,0,102.15,5a.9.9,0,0,0-.89-.44.83.83,0,0,0-.56.11l-.33.33a.67.67,0,0,0-.11.44v7.45c0,.11.11.33.11.44l.33.33a.83.83,0,0,0,.56.11c.78,0,1.11-.56,1.11-1.56a3.07,3.07,0,0,0,1,.11c.33,0,.67.11,1,.11a3.66,3.66,0,0,1-.78,2.33,2.92,2.92,0,0,1-2.22.89A2.83,2.83,0,0,1,99,14.89a3.14,3.14,0,0,1-.78-2.33V6.22a5.41,5.41,0,0,1,.11-1.33,3.5,3.5,0,0,1,.56-1.11,2.42,2.42,0,0,1,1-.78,2.6,2.6,0,0,1,1.22-.22" style="fill: #4f4f4f"/>
    <polygon points="110.7 4.78 110.7 15.67 108.7 15.67 108.7 4.78 106.59 4.78 106.59 2.89 112.71 2.89 112.71 4.78 110.7 4.78" style="fill: #4f4f4f"/>
    <path d="M120.49,9a1.68,1.68,0,0,1,1.11,1,4.59,4.59,0,0,1,.33,1.78,4.08,4.08,0,0,1-.89,2.89,3.24,3.24,0,0,1-2.67.89h-2.67V2.89h2.78a3.11,3.11,0,0,1,2.44.89,3.53,3.53,0,0,1,.78,2.56,3.56,3.56,0,0,1-.33,1.56c0,.44-.44.78-.89,1.11m-.55-2.56a1.79,1.79,0,0,0-.33-1.22,1.66,1.66,0,0,0-1.11-.33h-.67V8.22h.67a1.17,1.17,0,0,0,1.11-.44,3,3,0,0,0,.33-1.33m.11,5.11a2.37,2.37,0,0,0-.33-1.33,1.17,1.17,0,0,0-1.11-.44h-.78v4h.78a1.61,1.61,0,0,0,.78-.22.87.87,0,0,0,.44-.44,1.58,1.58,0,0,0,.22-.67Z" style="fill: #4f4f4f"/>
    <polygon points="130.27 7.67 127.6 15.67 125.71 15.67 125.71 2.89 127.6 2.89 127.6 11 127.71 11 130.38 2.89 132.27 2.89 132.27 15.67 130.27 15.67 130.27 7.67" style="fill: #4f4f4f"/>
    <path d="M135.6,15.67l.67-4a3.33,3.33,0,0,1,.44-1.11,1.75,1.75,0,0,1,.78-.78,2.41,2.41,0,0,1-1.22-1.11,4.21,4.21,0,0,1-.33-1.78A4.48,4.48,0,0,1,136.83,4a3.19,3.19,0,0,1,2.56-1h2.89V15.78h-2V10.23h-.56a1.36,1.36,0,0,0-1,.44c-.33.22-.44.78-.67,1.45l-.56,3.56Zm3.89-10.89a1.44,1.44,0,0,0-1.22.56,2.52,2.52,0,0,0-.33,1.45,1.62,1.62,0,0,0,.44,1.33,1.88,1.88,0,0,0,1.11.33h.78V4.78Z" style="fill: #4f4f4f"/>
    <polygon points="5.67 26.23 2.33 36.12 0 36.12 0 20.34 2.44 20.34 2.44 30.34 2.56 30.34 5.89 20.34 8.34 20.34 8.34 36.12 5.78 36.12 5.67 26.23" style="fill: #4f4f4f"/>
    <polygon points="20.23 36.12 20.23 29.23 17.45 29.23 17.45 36.12 15.01 36.12 15.01 20.34 17.45 20.34 17.45 26.9 20.34 26.9 20.34 20.34 22.79 20.34 22.79 36.12 20.23 36.12" style="fill: #4f4f4f"/>
    <polygon points="34.9 36.12 34.9 29.23 32.01 29.23 32.01 36.12 29.57 36.12 29.57 20.34 32.01 20.34 32.01 26.9 34.9 26.9 34.9 20.34 37.34 20.34 37.34 36.12 34.9 36.12" style="fill: #4f4f4f"/>
    <path d="M51.8,32.12a4.94,4.94,0,0,1-.89,3.11,3.9,3.9,0,0,1-3,1,3.64,3.64,0,0,1-2.89-1,4.48,4.48,0,0,1-.89-2.89V24.45a6.68,6.68,0,0,1,.22-1.67A2.53,2.53,0,0,1,45,21.45a3.47,3.47,0,0,1,1.22-.89A4.24,4.24,0,0,1,48,20.23a4.79,4.79,0,0,1,1.89.33,4.58,4.58,0,0,1,1.22.78,2.53,2.53,0,0,1,.67,1.33A8.57,8.57,0,0,1,52,24.45v7.67Zm-2.44-7.89A2.53,2.53,0,0,0,49,23a1.23,1.23,0,0,0-1.11-.56.93.93,0,0,0-.67.22c-.22.11-.33.33-.45.44a1.59,1.59,0,0,0-.22.67c0,.22-.11.44-.11.67v8a1.88,1.88,0,0,0,.33,1.11,1.17,1.17,0,0,0,1.11.44A1.23,1.23,0,0,0,49,33.46a2.24,2.24,0,0,0,.33-1.22Z" style="fill: #4f4f4f"/>
    <path d="M64.36,27.9a2.17,2.17,0,0,1,1.45,1.33,6.6,6.6,0,0,1,.44,2.22,5,5,0,0,1-1.11,3.67,4.06,4.06,0,0,1-3.22,1.11H58.58V20.34H62c1.45,0,2.45.33,3,1.11a4.67,4.67,0,0,1,1,3.22,4.79,4.79,0,0,1-.33,1.89,2.09,2.09,0,0,1-1.33,1.22Zm-.67-3.22a2,2,0,0,0-.44-1.56,1.89,1.89,0,0,0-1.45-.44H61v4h.78a1.92,1.92,0,0,0,1.45-.56c.33-.22.44-.78.44-1.45m.11,6.45a2.31,2.31,0,0,0-.44-1.67,1.76,1.76,0,0,0-1.45-.56H61v4.89h1a2.66,2.66,0,0,0,1-.22,1.34,1.34,0,0,0,.56-.56,2.11,2.11,0,0,0,.22-.89Z" style="fill: #4f4f4f"/>
    <path d="M78.69,36.12,78,32.79H75.14l-.33,1.67-.33,1.67H71.91c.56-2.67,1.11-5.33,1.56-7.89S74.58,23,75,20.34H77.8L81,36.12ZM76.47,24c-.11,1.11-.33,2.22-.44,3.22s-.33,2.22-.56,3.33h2.22l-1-6.56Z" style="fill: #4f4f4f"/>
    <polygon points="94.81 20.34 94.81 33.9 95.81 33.9 95.81 39.24 93.7 39.24 93.7 36.23 87.03 36.23 87.03 20.34 89.47 20.34 89.47 33.9 92.25 33.9 92.25 20.34 94.81 20.34" style="fill: #4f4f4f"/>
    <polygon points="107.37 26.23 104.04 36.12 101.7 36.12 101.7 20.34 104.15 20.34 104.15 30.34 107.48 20.34 109.93 20.34 109.93 36.12 107.48 36.12 107.37 26.23" style="fill: #4f4f4f"/>
    <path d="M116,36.12l.89-5a3.29,3.29,0,0,1,.56-1.45,2.18,2.18,0,0,1,1-1,3.13,3.13,0,0,1-1.56-1.33,6.57,6.57,0,0,1-.44-2.22,4.89,4.89,0,0,1,1.11-3.56,4.18,4.18,0,0,1,3.11-1.22h3.67V36.12h-2.45V29.34h-.67a1.85,1.85,0,0,0-1.22.44,3,3,0,0,0-.78,1.78L118.49,36H116Zm4.89-13.45a1.73,1.73,0,0,0-1.56.67,2.81,2.81,0,0,0-.45,1.78,1.85,1.85,0,0,0,.56,1.56,2.05,2.05,0,0,0,1.45.44h1V22.67Z" style="fill: #4f4f4f"/>
    <polygon points="135.82 32.68 134.71 29.79 133.71 27.01 133.6 27.01 133.6 36.12 131.16 36.12 131.16 20.34 133.6 20.34 135.38 24.79 136.6 28.23 136.71 28.23 138.05 24.68 139.72 20.23 142.05 20.23 142.05 36.01 139.6 36.01 139.6 26.9 139.49 26.9 138.49 29.68 137.38 32.57 135.82 32.57 135.82 32.68" style="fill: #4f4f4f"/>
    <path d="M142.16,40.9h0c-34.34,33.57-103,27.79-127.93,0H0C18.78,60.8,45.79,68.36,68.47,69.36c2.33.11,4.67.11,6.89.11,14.67-.22,31-3.45,45.24-11A66.51,66.51,0,0,0,142.16,40.9" style="fill: #d92029"/>
    <path d="M142.16,40.9h0c-.56.44-1.11.78-1.56,1.11C103.15,67,51.13,62.13,28.79,40.9H14.23c24.9,27.79,93.59,33.68,127.93,0" style="fill: #0f9fd0"/>
    <path d="M133.94,44.46c-17,6.56-33,9.45-47,9.56-19.56.11-35-5.11-43.24-13.12H28.79c22.23,21,73.69,26,111,1.56a3.38,3.38,0,0,0,.78-.56c.56-.33,1-.67,1.56-1-2.78,1.33-5.56,2.45-8.23,3.56" style="fill: #fff"/>
    <path d="M43.68,40.9c8.11,7.78,23.23,13,42.46,13h.78c14-.11,30-3,47-9.56,2.67-1.11,5.45-2.22,8.22-3.45a68.65,68.65,0,0,1-21.67,17.56c-14.23,7.56-30.57,10.78-45.24,11H73.58c-1.67,0-3.45,0-5.22-.11C45.68,68.36,18.78,60.8-.11,40.9H43.68m98.48,0h0m-98.48-.11H0c-.11,0-.11,0-.22.11v.22a88.31,88.31,0,0,0,32.9,21.34,117.69,117.69,0,0,0,35.68,7.11c1.78.11,3.45.11,5.22.11h1.67A103.09,103.09,0,0,0,98,66.91a94.52,94.52,0,0,0,22.45-8.23A69.44,69.44,0,0,0,142.16,41v-.33h-.22c-2.67,1.22-5.45,2.45-8.23,3.45-15.78,6.11-32,9.45-46.9,9.56H86c-18.34,0-33.68-4.78-42.24-13,0,.11,0,.11-.11.11" style="fill: #cecdca"/>
  </g>
</svg>
