<svg xmlns="http://www.w3.org/2000/svg" width="142.38" height="59.08" viewBox="0 0 142.38 59.08">
  <title>FASIE_en</title>
  <g>
    <path d="M0,24.2V.57H12.89V5.16H5.55v4.3h6.8v4.76H5.56v10Z" style="fill: #4f4f4f"/>
    <path d="M32.47,24.2,37.62.57h6.57L49.3,24.2H43.76l-.69-4.53H38.73L38,24.2Zm6.83-8.79h3.19L40.89,5.09Z" style="fill: #4f4f4f"/>
    <path d="M68.45,16.19h5.06v.69A5.9,5.9,0,0,0,74,19.62a1.64,1.64,0,0,0,1.55.8,1.7,1.7,0,0,0,1.38-.61,2.49,2.49,0,0,0,.5-1.65q0-1.72-2.47-3.3l-.61-.41-.26-.17a18.23,18.23,0,0,1-4.15-3.38A6.68,6.68,0,0,1,69,9a8.51,8.51,0,0,1-.32-2.35,6.51,6.51,0,0,1,1.8-4.87,6.76,6.76,0,0,1,5-1.76,7.25,7.25,0,0,1,5.23,1.73,6.69,6.69,0,0,1,1.82,5v.77h-5V7.23A4.61,4.61,0,0,0,77,4.88a1.55,1.55,0,0,0-1.4-.8,1.57,1.57,0,0,0-1.26.56,2.21,2.21,0,0,0-.47,1.48q0,1.5,2.7,3.19l.75.49.6.38a12.7,12.7,0,0,1,3.71,3.1,6.61,6.61,0,0,1,.78,1.85,8.93,8.93,0,0,1,.27,2.23,7.57,7.57,0,0,1-1.84,5.46,7,7,0,0,1-5.26,1.91,7.25,7.25,0,0,1-5.39-1.83,7.47,7.47,0,0,1-1.8-5.46V17C68.4,16.81,68.42,16.56,68.45,16.19Z" style="fill: #4f4f4f"/>
    <path d="M103.09,24.2V.57h5.52V24.2Z" style="fill: #4f4f4f"/>
    <path d="M129.49,24.2V.57h12.86V5.16H135V9.5h6.8v4.74H135V19.4h7.37v4.8Z" style="fill: #4f4f4f"/>
  </g>
  <path d="M142.38,30.29h0c-34.34,33.57-103,27.79-127.93,0H.22C19,50.18,46,57.74,68.69,58.74c2.33.11,4.67.11,6.89.11,14.67-.22,31-3.45,45.24-11a66.51,66.51,0,0,0,21.56-17.56" style="fill: #d92029"/>
  <path d="M142.38,30.29h0c-.56.44-1.11.78-1.56,1.11C103.37,56.41,51.35,51.52,29,30.29H14.45C39.35,58.08,108,64,142.38,30.29" style="fill: #0f9fd0"/>
  <path d="M134.16,33.85c-17,6.56-33,9.45-47,9.56-19.56.11-35-5.11-43.24-13.12H29c22.23,21,73.69,26,111,1.56a3.38,3.38,0,0,0,.78-.56c.56-.33,1-.67,1.56-1-2.78,1.33-5.56,2.45-8.23,3.56" style="fill: #fff"/>
  <path d="M43.9,30.29c8.11,7.78,23.23,13,42.46,13h.78c14-.11,30-3,47-9.56,2.67-1.11,5.45-2.22,8.22-3.45a68.65,68.65,0,0,1-21.67,17.56c-14.23,7.56-30.57,10.78-45.24,11H73.8c-1.67,0-3.45,0-5.22-.11C45.9,57.74,19,50.18.11,30.29H43.9m98.48,0h0M43.9,30.18H.22c-.11,0-.11,0-.22.11v.22A88.31,88.31,0,0,0,32.9,51.85,117.69,117.69,0,0,0,68.58,59c1.78.11,3.45.11,5.22.11h1.67A103.09,103.09,0,0,0,98.26,56.3a94.52,94.52,0,0,0,22.45-8.23A69.44,69.44,0,0,0,142.38,30.4v-.33h-.22c-2.67,1.22-5.45,2.45-8.23,3.45-15.78,6.11-32,9.45-46.9,9.56h-.78c-18.34,0-33.68-4.78-42.24-13,0,.11,0,.11-.11.11" style="fill: #cecdca"/>
</svg>
