
<svg xmlns="http://www.w3.org/2000/svg" width="72.94mm" height="105.01mm" viewBox="0 0 206.77 297.68">
  <title>панель прозрачная</title>
  
  
  <g>
    <path d="M179.17,102v103.6a21.43,21.43,0,0,1-19.32,21.32l-86.6,8.54a22.82,22.82,0,0,1-8.32-.69l-.74-.22A22.92,22.92,0,0,1,48,212.62V88.82a22.63,22.63,0,0,1,6.3-15.72,23,23,0,0,1,6.62-4.81h0l1.64-.71.11,0a22.51,22.51,0,0,1,11.41-1.22L159.36,79A23.24,23.24,0,0,1,179.17,102Z" style="fill: #d7d7d7;opacity: 0.3000000000000001"/>
    
    
    
    <path d="M64.19,234.56l-14.27-4.15-3-.86A21.38,21.38,0,0,1,33,209.5V94.28a21.17,21.17,0,0,1,12.65-19.4l.34-.15,15-6.46a23,23,0,0,0-6.62,4.81A22.63,22.63,0,0,0,48,88.82V212.62a23,23,0,0,0,16.16,21.94Z" style="fill: #d7d7d7;opacity: 0.4"/>
    
    
    <path d="M47,229.55l3,.86A21.22,21.22,0,0,1,47,229.55Z" style="fill: none;stroke: #e30613;stroke-miterlimit: 10;stroke-width: 0.1748564481485797px"/>
  </g>
  
  
  
  <g>
    <path d="M179.17,102v103.6a21.43,21.43,0,0,1-19.32,21.32l-86.6,8.54a22.82,22.82,0,0,1-8.32-.69l-.74-.22A22.92,22.92,0,0,1,48,212.62V88.82a22.63,22.63,0,0,1,6.3-15.72,23,23,0,0,1,6.62-4.81h0l1.64-.71.11,0a22.51,22.51,0,0,1,11.41-1.22L159.36,79A23.24,23.24,0,0,1,179.17,102Z" style="fill: none;stroke: #d7d7d7;stroke-miterlimit: 10;stroke-width: 0.5249999761581421px"/>
    
    
    
    <path d="M64.19,234.56l-14.27-4.15-3-.86A21.38,21.38,0,0,1,33,209.5V94.28a21.17,21.17,0,0,1,12.65-19.4l.34-.15,15-6.46a23,23,0,0,0-6.62,4.81A22.63,22.63,0,0,0,48,88.82V212.62a23,23,0,0,0,16.16,21.94Z" style="fill: none;stroke: #d7d7d7;stroke-miterlimit: 10;stroke-width: 0.5245693444457391px"/>
  </g>
  <g>
    <g>
      <g>
        <path d="M77,214.82l-10.2.48V204.89H68V214l3.37-.16V206.2h1.16v7.57l3.37-.19v-9.17H77Z" style="fill: none;stroke: #d7d7d7;stroke-miterlimit: 10;stroke-width: 0.1748564481485797px"/>
        <path d="M77,188.47H66.81v-1.3H77Z" style="fill: none;stroke: #d7d7d7;stroke-miterlimit: 10;stroke-width: 0.1748564481485797px"/>
        <path d="M77,185.08H66.81v-1.3H77Z" style="fill: none;stroke: #d7d7d7;stroke-miterlimit: 10;stroke-width: 0.1748564481485797px"/>
        <path d="M68.51,181.9a1.54,1.54,0,0,1-.86-.25A1.79,1.79,0,0,1,67,181a2.05,2.05,0,0,1-.23-1V172.4a2.05,2.05,0,0,1,.23-1,1.79,1.79,0,0,1,.62-.69,1.54,1.54,0,0,1,.86-.25H77v1.28H73.28v8.84H77v1.28Zm3.63-10.13H68.51a.51.51,0,0,0-.39.18.63.63,0,0,0-.16.44V180a.63.63,0,0,0,.16.44.51.51,0,0,0,.39.18h3.63Z" style="fill: none;stroke: #d7d7d7;stroke-miterlimit: 10;stroke-width: 0.1748564481485797px"/>
        <path d="M77,168.56H75.84v-1.3H77Z" style="fill: none;stroke: #d7d7d7;stroke-miterlimit: 10;stroke-width: 0.1748564481485797px"/>
        <path d="M68.51,165.5a1.54,1.54,0,0,1-.86-.25,1.78,1.78,0,0,1-.62-.69,2.05,2.05,0,0,1-.23-1V156a2.05,2.05,0,0,1,.23-1,1.79,1.79,0,0,1,.62-.69,1.54,1.54,0,0,1,.86-.25H77v1.28H73.28v8.84H77v1.28Zm3.63-10.13H68.51a.51.51,0,0,0-.39.18A.64.64,0,0,0,68,156v7.61a.63.63,0,0,0,.16.44.51.51,0,0,0,.39.18h3.63Z" style="fill: none;stroke: #d7d7d7;stroke-miterlimit: 10;stroke-width: 0.1748564481485797px"/>
        <path d="M77,152.12H66.81v-1.3H77Z" style="fill: none;stroke: #d7d7d7;stroke-miterlimit: 10;stroke-width: 0.1748564481485797px"/>
      </g>
      <path d="M77,202.79l-10.2.38v-1.76l5-4.74-5-4.74v-1.76H77v1.28h-8.9l5.54,5.21-5.54,5.21,8.9-.38Z" style="fill: none;stroke: #d7d7d7;stroke-miterlimit: 10;stroke-width: 0.1748564481485797px"/>
    </g>
    <line x1="76.73" y1="150.86" x2="76.73" y2="152.12" style="fill: none;stroke: #d7d7d7;stroke-miterlimit: 10;stroke-width: 0.1748564481485797px"/>
    <line x1="76.72" y1="154.09" x2="76.72" y2="155.37" style="fill: none;stroke: #d7d7d7;stroke-miterlimit: 10;stroke-width: 0.1748564481485797px"/>
    <polyline points="73.28 155.37 73 155.37 73 164.21 73.28 164.21" style="fill: none;stroke: #d7d7d7;stroke-miterlimit: 10;stroke-width: 0.1748564481485797px"/>
    <polyline points="73.28 171.78 73 171.78 73 180.62 73.28 180.62" style="fill: none;stroke: #d7d7d7;stroke-miterlimit: 10;stroke-width: 0.1748564481485797px"/>
    <line x1="76.74" y1="164.22" x2="76.74" y2="165.5" style="fill: none;stroke: #d7d7d7;stroke-miterlimit: 10;stroke-width: 0.1748564481485797px"/>
    <path d="M68.51,155.37h-.28a.51.51,0,0,0-.39.18.64.64,0,0,0-.16.44v7.61a.63.63,0,0,0,.16.44.51.51,0,0,0,.39.18h.28" style="fill: none;stroke: #d7d7d7;stroke-miterlimit: 10;stroke-width: 0.1748564481485797px"/>
    <path d="M68.51,171.78h-.28a.51.51,0,0,0-.39.18.64.64,0,0,0-.16.44V180a.63.63,0,0,0,.16.44.51.51,0,0,0,.39.18h.28" style="fill: none;stroke: #d7d7d7;stroke-miterlimit: 10;stroke-width: 0.1748564481485797px"/>
    <line x1="76.77" y1="167.26" x2="76.77" y2="168.56" style="fill: none;stroke: #d7d7d7;stroke-miterlimit: 10;stroke-width: 0.1748564481485797px"/>
    <line x1="76.77" y1="170.47" x2="76.77" y2="171.77" style="fill: none;stroke: #d7d7d7;stroke-miterlimit: 10;stroke-width: 0.1748564481485797px"/>
    <line x1="76.77" y1="180.62" x2="76.77" y2="181.92" style="fill: none;stroke: #d7d7d7;stroke-miterlimit: 10;stroke-width: 0.1748564481485797px"/>
    <line x1="76.77" y1="183.78" x2="76.77" y2="185.08" style="fill: none;stroke: #d7d7d7;stroke-miterlimit: 10;stroke-width: 0.1748564481485797px"/>
    <line x1="76.77" y1="187.17" x2="76.77" y2="188.47" style="fill: none;stroke: #d7d7d7;stroke-miterlimit: 10;stroke-width: 0.1748564481485797px"/>
    <line x1="76.77" y1="190.17" x2="76.77" y2="191.47" style="fill: none;stroke: #d7d7d7;stroke-miterlimit: 10;stroke-width: 0.1748564481485797px"/>
    <line x1="76.77" y1="201.49" x2="76.77" y2="202.79" style="fill: none;stroke: #d7d7d7;stroke-miterlimit: 10;stroke-width: 0.1748564481485797px"/>
    <path d="M68.11,191.46h-.33l5.54,5.21-5.54,5.21h.33" style="fill: none;stroke: #d7d7d7;stroke-linejoin: round;stroke-width: 0.1748564481485797px"/>
    <polyline points="67.69 204.89 67.69 214.05 67.87 214.02" style="fill: none;stroke: #d7d7d7;stroke-linejoin: round;stroke-width: 0.1748564481485797px"/>
    <polyline points="72.21 206.19 72.21 213.8 72.49 213.77" style="fill: none;stroke: #d7d7d7;stroke-linejoin: round;stroke-width: 0.1748564481485797px"/>
    <line x1="76.73" y1="204.41" x2="76.73" y2="214.84" style="fill: none;stroke: #d7d7d7;stroke-linejoin: round;stroke-width: 0.1748564481485797px"/>
    
    
    
    
    
    
    
    
    
    
    
    
    
    
    
    
    
   
    
    
    
    
    
    
    
    
    
    
    
    
    
    <path d="M79.17,91.85c0,2.23-1.37,3.92-3.08,3.66C74,95.18,73,93.24,73,91s1.43-3.88,3.14-3.58C78.15,87.79,79.17,89.62,79.17,91.85Z" style="fill: none;stroke: #d7d7d7;stroke-miterlimit: 10;stroke-width: 0.1px"/>
    <path d="M78.34,91.74c0,1.63-1,2.88-2.26,2.68-1.53-.24-2.3-1.66-2.3-3.3s1-2.84,2.3-2.62C77.59,88.77,78.34,90.11,78.34,91.74Z" style="fill: none;stroke: transporent;stroke-miterlimit: 10;stroke-width: 0.25px"/>
    
    
    
    
    
    <path d="M68.71,90.62c0,1-.62,1.78-1.4,1.66a1.86,1.86,0,0,1-1.42-2c0-1,.65-1.76,1.42-1.62A1.82,1.82,0,0,1,68.71,90.62Z" style="fill: none;stroke:#d7d7d7;stroke-miterlimit: 10;stroke-width: 0.1px"/>
    <path d="M68.33,90.57c0,.74-.46,1.31-1,1.22a1.36,1.36,0,0,1-1-1.5c0-.74.48-1.29,1-1.19A1.34,1.34,0,0,1,68.33,90.57Z" style="fill: none;stroke: transparent;stroke-miterlimit: 10;stroke-width: 0.1px"/>
    
    
    
    <path d="M69.37,102c0,1.49-.91,2.62-2.05,2.44-1.39-.22-2.09-1.51-2.09-3s1-2.59,2.09-2.39C68.69,99.28,69.37,100.5,69.37,102Z" style="fill: none;stroke: #d7d7d7;stroke-miterlimit: 10;stroke-width: 0.1px"/>
    <path d="M68.82,101.92c0,1.09-.67,1.92-1.51,1.79a2,2,0,0,1-1.53-2.2c0-1.09.7-1.9,1.53-1.75A2,2,0,0,1,68.82,101.92Z" style="fill: none;stroke: transparent;stroke-miterlimit: 10;stroke-width: 0.1px"/>
    
    
    
    <path d="M78.34,103.15c0,1.63-1,2.88-2.26,2.68-1.53-.24-2.3-1.66-2.3-3.3s1-2.84,2.3-2.62C77.59,100.18,78.34,101.51,78.34,103.15Z" style="fill: none;stroke: transparent;stroke-miterlimit: 10;stroke-width: 0.25px"/>
    <path d="M79.17,103.25c0,2.23-1.37,3.92-3.08,3.66-2.08-.32-3.14-2.27-3.14-4.5s1.43-3.88,3.14-3.58C78.15,99.2,79.17,101,79.17,103.25Z" style="fill: none;stroke: #d7d7d7;stroke-miterlimit: 10;stroke-width: 0.1px"/>
  </g>
  
  
  
  
  
  
  
  
  
  
     <path d="M77.66,110.47l-11.87-1.18A5.4,5.4,0,0,1,61,103.93V87.62a4.57,4.57,0,0,1,5.17-4.53l12.09,1.59a5.15,5.15,0,0,1,4.48,5.11v16.15A4.56,4.56,0,0,1,77.66,110.47Z"  style="fill: #d7d7d7;opacity: 0.1"/>
  

    
    
    
    
    <path d="M77.66,110.47l-11.87-1.18A5.4,5.4,0,0,1,61,103.93V87.62a4.57,4.57,0,0,1,5.17-4.53l12.09,1.59a5.15,5.15,0,0,1,4.48,5.11v16.15A4.56,4.56,0,0,1,77.66,110.47Z" style="fill: none;stroke: #d7d7d7;stroke-miterlimit: 10;stroke-width: 0.2px"/>
    

    
    
 <path d="M62.08,84.69a4.55,4.55,0,0,1,3.53-1l12.09,1.59a5.15,5.15,0,0,1,4.48,5.11v16.15a4.53,4.53,0,0,1-1.06,2.93" style="fill: none;stroke: #d7d7d7;stroke-miterlimit: 10;stroke-width: 0.03px;  opacity: 1"/>
  
  
  

     

  
  
  
  
  
</svg>

