<svg xmlns="http://www.w3.org/2000/svg" width="38.98mm" height="24.65mm" viewBox="0 0 192.69 69.86">
  <title>3 удалить</title>
  <g>
    <path d="M7.82,57.57a7.86,7.86,0,0,0,.13.92A5,5,0,0,0,9.5,61a14,14,0,0,1,2.58,3.29c.42.68.18,1.1-.61,1.13-.63,0-1.27,0-1.9,0s-.9-.28-.75-.87a4.07,4.07,0,0,0-.7-3.31A7.9,7.9,0,0,1,6.78,57.6,12.64,12.64,0,0,1,6.84,56c0-.42.1-.84.09-1.25a5.26,5.26,0,0,1,1.22-3.52c.25-.31.53-.61.79-.91a3.7,3.7,0,0,0,.81-3.56,2.37,2.37,0,0,1-.07-.31s0-.08,0-.13c.23-.06.27.13.33.27a3.86,3.86,0,0,1-.3,3.81c-.27.43-.59.82-.9,1.23A4.21,4.21,0,0,0,8,53.75a1.12,1.12,0,0,0,.26-.1l2.6-2.13c.1-.08.19-.17.29-.25A4.12,4.12,0,0,0,12.87,47c-.1-.67-.19-1.34-.34-2a15.43,15.43,0,0,1-.47-3.85c-.13.09-.21.11-.24.17a6.62,6.62,0,0,1-2.29,2.16c-.89.52-1.83,1-2.75,1.44a13.12,13.12,0,0,0-1.55.85,3.68,3.68,0,0,0-1.58,2.84,5.94,5.94,0,0,0,.25,2.26c.07.22.13.43.23.8a5.08,5.08,0,0,1-.42-.36,7.72,7.72,0,0,1-1.94-3.45A5,5,0,0,1,3.19,43a16.58,16.58,0,0,1,1.4-1.19c.47-.39,1-.76,1.42-1.17a5.06,5.06,0,0,0,1.58-3c0-.27.09-.54.14-.81a3.52,3.52,0,0,1,3.81-3.08,7.47,7.47,0,0,1,3,.72.5.5,0,0,1,.27.3c-.23,0-.47-.08-.7-.14a7.16,7.16,0,0,0-2.26-.23,2.81,2.81,0,0,0-2.62,2.11c-.09.33-.16.66-.22,1a6.73,6.73,0,0,1-2.33,4c-.51.44-1.06.84-1.61,1.24a7.11,7.11,0,0,0-1.76,1.73,4.28,4.28,0,0,0-.78,2.76,1.46,1.46,0,0,0,.17.61c.05-.21.11-.43.16-.64a4.87,4.87,0,0,1,1.94-2.74,9.24,9.24,0,0,1,1.71-1A5.33,5.33,0,0,0,9.79,40c.11-.39.26-.76.4-1.14a4.71,4.71,0,0,1,3.7-3.13,9.12,9.12,0,0,1,5.34.67.75.75,0,0,1,.16.1s0,0,0,.11a1.84,1.84,0,0,1-.31.1c-.42.05-.85.06-1.26.15a3.87,3.87,0,0,0-3.38,3.66,15,15,0,0,0,.19,4c.13,1,.28,2,.31,3a5.07,5.07,0,0,1-1.86,4.14,17,17,0,0,1-2,1.43,9.07,9.07,0,0,0-2,1.52c-.32.36-.59.76-.89,1.15a2.94,2.94,0,0,0,2.16,2,4.79,4.79,0,0,0,2.33-.06,10.78,10.78,0,0,1,3.27-.31,6.51,6.51,0,0,1,3,.92,4.3,4.3,0,0,1,2.2,3.25,3.54,3.54,0,0,1-1.48,3.38,3.11,3.11,0,0,1-.51.23,3.59,3.59,0,0,1,.22-.42c.13-.17.28-.32.41-.48a3.07,3.07,0,0,0-.45-4.43A5.67,5.67,0,0,0,14.8,58.5c-.84.09-1.66.31-2.49.46a4.58,4.58,0,0,1-4-1.19L8,57.53Z" style="fill: #3c3c3c"/>
    <path d="M10.36,31a2.18,2.18,0,0,1-.2-2.88,7.27,7.27,0,0,1,1.08-1c.17-.15.35-.28.57-.46-.14-.33-.25-.62-.38-.9s-.34-.63-.47-1a1.27,1.27,0,0,1,.57-1.7,9.92,9.92,0,0,1,.9-.46c.89-.45,1.78-.88,2.66-1.34a1,1,0,0,0,.66-.83L15,20a1.12,1.12,0,0,1-.53-1.2,1.27,1.27,0,0,1,1-1.07v1l.75,0a5.75,5.75,0,0,1,.7,0c.65.11.86.39.83,1,0,.21,0,.42,0,.63a1.3,1.3,0,0,0,.91,1.32c.38.14.78.21,1.14.37.52.23,1,.51,1.51.79.11.06.17.21.34.43a9,9,0,0,0-1.14-.33,15.34,15.34,0,0,0-2.08-.21,17,17,0,0,0-4.34.5,5.11,5.11,0,0,0-1.24.47c-.62.35-.63,1,0,1.55a2.8,2.8,0,0,0,.43-.3,2.08,2.08,0,0,1,2.62-.33,5.41,5.41,0,0,0,2.5.62,3.76,3.76,0,0,0,1.82-.49,1.86,1.86,0,0,1,1.93,0,2.58,2.58,0,0,1,.28.25l-.69,0a1.39,1.39,0,0,0-1.38.84A3,3,0,0,1,18,27.84a1.41,1.41,0,0,0-.25.15,10.74,10.74,0,0,0,3.68.44,1.63,1.63,0,0,0,1.34-1c.08-.19.15-.39.27-.7a1.82,1.82,0,0,1,.2,1,2.47,2.47,0,0,1-1.13,1.9,5.17,5.17,0,0,1-2.74.89c-.29,0-.59,0-.94,0a1.26,1.26,0,0,0,1.15.68,2,2,0,0,0,.44,0,1.7,1.7,0,0,1,1.81.76,2.27,2.27,0,0,0,.16.2l.12.07a36.37,36.37,0,0,1,4.67-2c.1,0,.15,0,.18.07A9.49,9.49,0,0,1,29.66,35a3.85,3.85,0,0,1-.48,2.93,1,1,0,0,1-.71.58c.08-.18.11-.29.17-.39a3.22,3.22,0,0,0,.29-2.4,10.46,10.46,0,0,0-2.45-4.23l-3.85,2,.49.75c.16.25.34.48.5.73a1.71,1.71,0,0,1,.07,1.75,1.54,1.54,0,0,1-.12.22,7.56,7.56,0,0,0-1,4.87c0,.57.14,1.13.19,1.7a1.1,1.1,0,0,0,.9,1c.47.12,1,.2,1.43.28a1,1,0,0,1,.74.35,1.59,1.59,0,0,1-1.18.44,8.25,8.25,0,0,0-2.25.26c-.65.19-1-.18-1-.86a1.61,1.61,0,0,1,.11-.49,1.9,1.9,0,0,0-.16-1.71c-.15-.28-.29-.56-.46-.83a2.55,2.55,0,0,1-.09-2.49,17.54,17.54,0,0,0,.68-1.91,4.45,4.45,0,0,0-.19-3c-.37-.89-.64-1-1.59-1a9,9,0,0,1-1.2,0,3.49,3.49,0,0,1-2.13-1c-.39-.38-.79-.77-1.22-1.11a3.89,3.89,0,0,0-4.23-.57Z" style="fill: #3c3c3c"/>
    <path d="M57.36,53.41a3.6,3.6,0,0,1-.79-.35,17.88,17.88,0,0,1-1.41-1.27,1.1,1.1,0,0,1-.26-1.18c.05-.16.08-.33.12-.49a2.1,2.1,0,0,0-.42-2,2.06,2.06,0,0,1-.54-1.76,1.52,1.52,0,0,0,0-.69q-.57-1.62-1.19-3.21a2.94,2.94,0,0,0-.42-.71.81.81,0,0,0-1.3-.22,7.93,7.93,0,0,1-2.83,1.23,7.42,7.42,0,0,1-5.7-1.11,1.66,1.66,0,0,1-.88-1c.07-.38.36-.54.63-.69.42-.24.86-.45,1.29-.68l.83-.47A1.09,1.09,0,0,0,45,37.49,12.69,12.69,0,0,1,45,33a13.72,13.72,0,0,0-.34-4.47c0-.12,0-.24-.07-.45a1.62,1.62,0,0,1,.36.18,15,15,0,0,1,3.72,5.09c.2.48.31,1,.47,1.51a9,9,0,0,0,.33,1c.35.78.85.9,1.5.36a7.93,7.93,0,0,0,.63-.63c.37-.38.71-.78,1.1-1.15a1,1,0,0,1,1.61,0,4.34,4.34,0,0,1,.67.84,41.69,41.69,0,0,1,4.23,9.55,1.76,1.76,0,0,1,.05,1.38,2.27,2.27,0,0,1-.62-.18C58,45.74,57.52,45.37,57,45a1.38,1.38,0,0,1-.56-1.4c0-.21.05-.42.1-.63A3.11,3.11,0,0,0,56,40.38c-.64-.87-1.3-1.73-2-2.56-.52-.64-1-.68-1.57-.16-.43.37-.82.79-1.22,1.2a.51.51,0,0,0-.06.74l.58,0c.23,0,.46-.06.69-.06.83,0,1.11.17,1.39.93s.58,1.68.81,2.54a58.45,58.45,0,0,0,2,6.14,23.2,23.2,0,0,1,.77,2.61,3.74,3.74,0,0,1,.08,1A3.12,3.12,0,0,1,57.36,53.41Z" style="fill: #3c3c3c"/>
    <path d="M45.7,16.84c-.07-.37-.35-.53-.62-.7A6,6,0,0,0,36.87,18a7.62,7.62,0,0,0-.66,7.67c.33.71.65,1.42.94,2.15a6,6,0,0,1,.46,2.67,4.64,4.64,0,0,1-.14.87,4.65,4.65,0,0,1-5.06,3,3.7,3.7,0,0,1,.37-.33,6.18,6.18,0,0,0,1.6-1.43,3.48,3.48,0,0,0,.54-3.47,4.29,4.29,0,0,0-1.1-1.74,2.7,2.7,0,0,1-.5,2.17,1.51,1.51,0,0,1-.64.38,2.26,2.26,0,0,0,.16-2.68.71.71,0,0,0-.85-.39c-.44.34-.35.88-.51,1.46a4.28,4.28,0,0,1-.27-.5,10.61,10.61,0,0,1-.59-3.42,12.76,12.76,0,0,1,.67-4.62A9.27,9.27,0,0,1,39,13.56a9.63,9.63,0,0,1,5.11.58l1.77.65c.16.84.29,1.69.49,2.53a6.83,6.83,0,0,0,1.1,2.34c-.54-.12-.68-.71-1.13-.91l-1.3-.58C45,17.56,45.66,17.37,45.7,16.84Z" style="fill: #3c3c3c"/>
    <path d="M27.18,58.6a1,1,0,0,1-.88.46c-.67.1-1.34.15-2,.23l-2.59.27h-.21l-2.2-1.94c.16-.21.39-.18.61-.13.54.11,1.07.25,1.61.35A7.7,7.7,0,0,0,23,58a.72.72,0,0,0,.64-1.19,3.57,3.57,0,0,0-.88-.89,14.91,14.91,0,0,0-1.3-.79,5.53,5.53,0,0,1-.54-.34.6.6,0,0,1-.16-1c.26-.36.59-.67.82-1s.57-1.08.83-1.63a.49.49,0,0,0-.07-.42,4.4,4.4,0,0,0-.43.41c-.34.43-.67.88-1,1.31a3.25,3.25,0,0,1-3.12,1.31c-.8-.09-1.6-.13-2.4-.18A2.89,2.89,0,0,0,12.71,55c-.19.27-.37.55-.64.93a2.42,2.42,0,0,1,0-.53A9.27,9.27,0,0,1,12.34,54a3.64,3.64,0,0,1,4-2.52c.59,0,1.18.09,1.77.08A2,2,0,0,0,20,50.19c.21-.53.37-1.08.57-1.62a3,3,0,0,1,1.74-1.82,2.57,2.57,0,0,1,1.85-.05,23.67,23.67,0,0,0,2.9.9,16.4,16.4,0,0,0,3.14.35c2,0,4-.07,6-.11.22,0,.44,0,.7,0-.07.36-.3.36-.49.41-1.31.34-2.63.65-3.93,1a29,29,0,0,0-4.59,1.65,5.74,5.74,0,0,0-2.49,2c-.29.44-.67.82-1,1.24a1.19,1.19,0,0,0,0,1.68,7.35,7.35,0,0,0,2.07,2C26.79,58.07,27.09,58.24,27.18,58.6Z" style="fill: #3c3c3c"/>
    <path d="M94.08.17,95,.5,69.73,69.86l-.92-.33Z" style="fill: #3c3c3c"/>
    <path d="M106.68,55.62h3l.78,1.88a17.88,17.88,0,0,0,.85,1.93c.62-1.33,1.05-2.58,1.6-3.81h2.91a90.37,90.37,0,0,1,.07,9.27,5.62,5.62,0,0,1-1.79,0c0-1.22,0-2.42,0-3.62s0-2.33,0-3.5l-.22,0-1.7,4.08h-1.8c-.64-1.32-1.1-2.74-1.79-4.06a5.46,5.46,0,0,0-.13,1.75c0,.59,0,1.18,0,1.78v3.6a6.42,6.42,0,0,1-1.77.05A91.89,91.89,0,0,1,106.68,55.62Z" style="fill: #3c3c3c"/>
    <path d="M153.93,60.09l.29.24a2.32,2.32,0,0,1,.94,2.28,2.37,2.37,0,0,1-1.64,2.07,3,3,0,0,1-.92.21c-1.61,0-3.22,0-4.83,0a1,1,0,0,1-.23-.05c-.14-.49-.17-8.48,0-9.23a3.31,3.31,0,0,1,.47-.06c1.35,0,2.71,0,4.06,0a4,4,0,0,1,1.18.2,2.37,2.37,0,0,1,.91,4.06C154.07,59.91,154,60,153.93,60.09Zm-4.47.89a11,11,0,0,0,0,2.22c.92,0,1.78,0,2.64,0a1,1,0,0,0,1-1.08A1,1,0,0,0,152.07,61C151.23,61,150.39,61,149.46,61Zm0-1.72h2.12a2.14,2.14,0,0,0,.56-.09.9.9,0,0,0,.69-1,.84.84,0,0,0-.78-.86c-.86,0-1.72,0-2.61,0A6.69,6.69,0,0,0,149.49,59.27Z" style="fill: #3c3c3c"/>
    <path d="M126.81,60.28c-.06.44-.08.88-.17,1.32a4.29,4.29,0,0,1-4.84,3.51c-3-.23-4.23-2.53-4.16-5.08a6.19,6.19,0,0,1,.18-1.25,4.25,4.25,0,0,1,4.77-3.35C125.25,55.63,126.78,57.45,126.81,60.28Zm-2,0a5.37,5.37,0,0,0-.44-1.81,2.21,2.21,0,0,0-2.14-1.31,2.18,2.18,0,0,0-2.15,1.3,4.11,4.11,0,0,0,0,3.5,2.4,2.4,0,0,0,4.31,0A12.18,12.18,0,0,0,124.8,60.32Z" style="fill: #3c3c3c"/>
    <path d="M138.18,64.91c-.15-.55-.17-8.57,0-9.27h1.92v3.48a9.3,9.3,0,0,0,2.12.06l1.74-3.54H146l-2.12,4.5,2.23,4.74a9.66,9.66,0,0,1-2,0l-1.85-3.83h-2.06c-.13,1.26,0,2.51-.09,3.79A7.6,7.6,0,0,1,138.18,64.91Z" style="fill: #3c3c3c"/>
    <path d="M45.6,53.83a1.5,1.5,0,0,1-.89-.54,5.69,5.69,0,0,0-2.56-1.46,3.35,3.35,0,0,1-.86-.39,1.17,1.17,0,0,1-.5-1.54,1.68,1.68,0,0,0,0-1.23A10.38,10.38,0,0,0,39.38,46L20,19.17,11.58,7.54c-.13-.19-.26-.38-.41-.6l.47-.37L45.71,53.72Z" style="fill: #3c3c3c"/>
    <path d="M157,64.86c-.14-.49-.16-8.5,0-9.22h1.92v3c.3,0,.52.05.75.06.59,0,1.19,0,1.78,0a3.05,3.05,0,0,1,2.6,4.48,2.68,2.68,0,0,1-2.35,1.61c-1.52.1-3,0-4.57,0C157,64.91,157,64.88,157,64.86Zm2-1.7a7.47,7.47,0,0,0,2.47-.1,1.06,1.06,0,0,0,.8-1.15,1.1,1.1,0,0,0-.75-1.25,7.43,7.43,0,0,0-2.56-.13c0,.72,0,1.38,0,2C158.9,62.73,158.92,62.91,158.93,63.16Z" style="fill: #3c3c3c"/>
    <path d="M151.5,47v3.29h-1.14c0-.39,0-.74,0-1.09s0-.67,0-1a44.48,44.48,0,0,0-7-.06l-.07,2.14h-1.13V47l.93-.12c1.21-2.57,1.17-5.32,1.18-8a33.82,33.82,0,0,1,5.9-.07c0,.25.06.51.06.78q0,3.27,0,6.54v.8Zm-6-7.16c-.07,1.24-.08,2.41-.23,3.56s-.47,2.3-.71,3.46a21.72,21.72,0,0,0,4.36,0,63.92,63.92,0,0,0-.06-7Z" style="fill: #3c3c3c"/>
    <path d="M136.4,62a3.47,3.47,0,0,1-1.83,2.66,4.4,4.4,0,0,1-6.39-2.81,6.43,6.43,0,0,1,0-3.26,4.22,4.22,0,0,1,4.68-3.14,3.8,3.8,0,0,1,2.36,1,3.11,3.11,0,0,1,1,1.9h-2a2,2,0,0,0-2.43-1,2.05,2.05,0,0,0-1.47,1.28,4.25,4.25,0,0,0,0,3.4,2.21,2.21,0,0,0,2.67,1.28,1.61,1.61,0,0,0,1.08-.82l.24-.45Z" style="fill: #3c3c3c"/>
    <path d="M41.78,56.34c-.05-.27-.09-.53-.16-.79a8,8,0,0,0-.38-1.27.82.82,0,0,0-1.1-.49c-.43.1-.86.23-1.29.35a3.13,3.13,0,0,1-2.39-.31c-.3-.16-.58-.34-.89-.5-.74-.38-1.11-.15-1.14.7,0,.3,0,.59,0,.89,0,.74-.38,1.08-1.11.93-1.28-.27-2.55-.61-3.82-.92l-.85-.24c-.08.37.3.68,0,1a4,4,0,0,1-2.41-1.77c.1-.3.36-.31.61-.33a5.56,5.56,0,0,1,2.6.43,19.2,19.2,0,0,0,2.11.65,1,1,0,0,0,1-.21,4.6,4.6,0,0,1-.11-1.35,3.62,3.62,0,0,1,.69-1.17c.17-.63-.35-1-.64-1.54a3.07,3.07,0,0,1,2.28-.29,3.11,3.11,0,0,1,1.56.82A3.88,3.88,0,0,0,39.57,52c.4,0,.8,0,1.2,0a1.15,1.15,0,0,1,1.17.8,2.34,2.34,0,0,1,.21.86c0,.86-.08,1.73-.14,2.59a.63.63,0,0,1-.1.21Z" style="fill: #3c3c3c"/>
    <path d="M173,9.32l.45.38a2.52,2.52,0,0,1-.63,4.24,3.26,3.26,0,0,1-1.16.28c-1.46,0-2.92,0-4.38,0a1,1,0,0,1-.23-.05c-.14-.51-.17-8.52,0-9.24a4.61,4.61,0,0,1,.52-.06c1.18,0,2.37,0,3.55,0a4.47,4.47,0,0,1,1.48.27,2.27,2.27,0,0,1,.7,3.84Zm-4.76,3.75a1,1,0,0,0,.23.08c.72,0,1.44,0,2.15,0a6.64,6.64,0,0,0,1.19-.1A1.46,1.46,0,0,0,173,11.55,1.44,1.44,0,0,0,171.81,10a3.54,3.54,0,0,0-.75-.1c-.78,0-1.56,0-2.34,0-.16,0-.32,0-.52.05Zm0-7.08c0,.94,0,1.85,0,2.82.3,0,.55,0,.8,0,.91,0,1.82,0,2.72-.11a1.11,1.11,0,0,0,1-1.18,1.25,1.25,0,0,0-.9-1.43,2.09,2.09,0,0,0-.62-.13C170.24,6,169.27,6,168.18,6Z" style="fill: #3c3c3c"/>
    <path d="M152.65,26.22c.12.1.21.19.31.26a2.44,2.44,0,0,1,1,2.58A2.38,2.38,0,0,1,152,31a3.83,3.83,0,0,1-.94.14c-1.35,0-2.71,0-4.06,0a3.83,3.83,0,0,1-.38,0,5.18,5.18,0,0,1-.07-.6q0-4,0-8.06c0-.19,0-.37.05-.6.22,0,.4-.05.58-.05,1.16,0,2.33,0,3.49,0a4.6,4.6,0,0,1,1.43.23,2.28,2.28,0,0,1,.78,3.9C152.83,26,152.76,26.11,152.65,26.22Zm-4.77,3.83h2.92a3.09,3.09,0,0,0,.63-.09,1.49,1.49,0,0,0,1.3-1.56,1.44,1.44,0,0,0-1.28-1.5,3.69,3.69,0,0,0-.75-.09h-2.82Zm0-4.32h3a2.63,2.63,0,0,0,.56-.08,1.19,1.19,0,0,0,1-1.23,1.23,1.23,0,0,0-.93-1.39,3.7,3.7,0,0,0-.93-.13c-.72,0-1.43,0-2.15,0-.16,0-.32,0-.56.05v2.8Z" style="fill: #3c3c3c"/>
    <path d="M112.41,21.82h1.81a6,6,0,0,1,.07.63q0,4,0,8.06c0,.19,0,.37-.05.6H113.1c-.11-1.31,0-2.6,0-3.88s0-2.57,0-3.91c-.35.08-.4.33-.5.51l-3.67,6.6c-.13.24-.28.47-.42.7h-1.72a79,79,0,0,1,0-9.28h1.12c0,2.61,0,5.18,0,7.8.34-.09.39-.34.49-.52l3.67-6.6C112.13,22.28,112.27,22,112.41,21.82Z" style="fill: #3c3c3c"/>
    <path d="M173.48,30.15v3.22h-1.13l-.07-2.22h-7.42a92.75,92.75,0,0,1-.07-9.28,1.86,1.86,0,0,1,1.18,0c0,1.34,0,2.69,0,4s0,2.66,0,4a21.4,21.4,0,0,0,5,0V21.84h1.23v8C172.59,30.2,173.07,29.9,173.48,30.15Z" style="fill: #3c3c3c"/>
    <path d="M180.8,21.83h1.77c.14.51.17,8.47,0,9.26h-1.11c0-2.6,0-5.18-.11-7.78a19,19,0,0,0-1.54,2.53c-.5.88-1,1.77-1.48,2.66l-1.46,2.62h-1.77c-.15-.48-.2-8.34-.05-9.26h1.08c0,.24,0,.49,0,.73,0,2.12,0,4.23,0,6.35a2,2,0,0,0,.11.69,42.57,42.57,0,0,0,2.27-3.85C179.34,24.47,180.06,23.15,180.8,21.83Z" style="fill: #3c3c3c"/>
    <path d="M190.79,21.83h1.79c.14.53.17,8.54,0,9.26h-1.08c0-.27,0-.52,0-.76q0-3.17,0-6.35a2,2,0,0,0-.11-.68c-.87,1.24-1.54,2.57-2.28,3.87s-1.46,2.62-2.2,3.94h-1.77c-.14-.52-.17-8.51,0-9.26h1.08c0,.27,0,.51,0,.76q0,3.17,0,6.35a1.91,1.91,0,0,0,.11.68c.86-1.25,1.54-2.58,2.27-3.88S190.06,23.13,190.79,21.83Z" style="fill: #3c3c3c"/>
    <path d="M122.42,43.28a6.79,6.79,0,0,1-.49,2.49,4.32,4.32,0,0,1-8.17-1.17,6.2,6.2,0,0,1,.27-3.43,4.06,4.06,0,0,1,4.38-2.65,4.13,4.13,0,0,1,3.89,3.7C122.37,42.6,122.39,43,122.42,43.28Zm-1.28.1a4.47,4.47,0,0,0-.55-2.32,3,3,0,0,0-5.11,0,4.67,4.67,0,0,0,0,4.62,2.69,2.69,0,0,0,2.64,1.43,2.75,2.75,0,0,0,2.54-1.5A4.51,4.51,0,0,0,121.14,43.38Z" style="fill: #3c3c3c"/>
    <path d="M141.59,43.36a7.67,7.67,0,0,1-.57,2.42,4.32,4.32,0,0,1-8.12-1,6.19,6.19,0,0,1,.18-3.44,4.3,4.3,0,0,1,8.08,0A17.65,17.65,0,0,1,141.59,43.36Zm-1.36,0a4.49,4.49,0,0,0-.42-2.09,2.77,2.77,0,0,0-2.58-1.64,2.73,2.73,0,0,0-2.75,1.57,4.78,4.78,0,0,0,0,4.29,2.73,2.73,0,0,0,2.73,1.59,2.78,2.78,0,0,0,2.62-1.68A4.51,4.51,0,0,0,140.23,43.37Z" style="fill: #3c3c3c"/>
    <path d="M144.77,26.39a6.64,6.64,0,0,1-.49,2.48,4.32,4.32,0,0,1-8.17-1.17,6.19,6.19,0,0,1,.27-3.43,4.06,4.06,0,0,1,4.38-2.64,4.14,4.14,0,0,1,3.9,3.77C144.72,25.74,144.74,26.1,144.77,26.39Zm-7.5,0a4.69,4.69,0,0,0,.4,2.15,2.78,2.78,0,0,0,2.62,1.68A2.72,2.72,0,0,0,143,28.59a4.79,4.79,0,0,0,0-4.29,2.72,2.72,0,0,0-2.69-1.56,2.78,2.78,0,0,0-2.61,1.59A4.27,4.27,0,0,0,137.27,26.36Z" style="fill: #3c3c3c"/>
    <path d="M184.34,9.6a5.63,5.63,0,0,1-.41,2.23,4.32,4.32,0,0,1-8.2-.94,6.27,6.27,0,0,1,.19-3.38,4.09,4.09,0,0,1,4.53-2.78,4.19,4.19,0,0,1,3.84,4C184.33,9,184.33,9.32,184.34,9.6Zm-1.23-.08a4.9,4.9,0,0,0-.55-2.22A2.77,2.77,0,0,0,180,5.85a2.68,2.68,0,0,0-2.58,1.42,4.73,4.73,0,0,0,0,4.56A2.69,2.69,0,0,0,180,13.29a2.77,2.77,0,0,0,2.59-1.54A5.05,5.05,0,0,0,183.11,9.51Z" style="fill: #3c3c3c"/>
    <path d="M139.8,4.94v9.25h-1.2v-4a26.21,26.21,0,0,0-5.08-.08c0,.2-.05.43-.05.65,0,.91,0,1.82,0,2.73,0,.23,0,.46,0,.73h-1.09a84.58,84.58,0,0,1,0-9.27h1.11c.12,1.28,0,2.55.07,3.79a28.57,28.57,0,0,0,5,.07c0-.2.06-.43.06-.65,0-.83,0-1.65,0-2.48,0-.23,0-.46,0-.73Z" style="fill: #3c3c3c"/>
    <path d="M117.87,27c-.08,1.43,0,2.78-.07,4.14h-1.11c-.14-.52-.16-8.52,0-9.24a1.92,1.92,0,0,1,1.17,0V25.7h5.07c0-.22.05-.44.06-.66,0-.82,0-1.65,0-2.47,0-.23,0-.45,0-.73h1.09a88.43,88.43,0,0,1,0,9.27H123c-.09-1.38,0-2.74-.07-4.14Z" style="fill: #3c3c3c"/>
    <path d="M132.9,25.74V21.85H134c.15.44.21,8.16.06,9.25l-1.09.05a14.62,14.62,0,0,1-.06-2.11c0-.67,0-1.35,0-2a29.34,29.34,0,0,0-5.13,0c0,.65,0,1.32,0,2s0,1.35,0,2a1.86,1.86,0,0,1-1.15.06c-.15-.51-.17-8.52,0-9.24h1.16v3.9C129.5,25.75,131.16,25.75,132.9,25.74Z" style="fill: #3c3c3c"/>
    <path d="M123.77,4.93h6.41V6H125a20.72,20.72,0,0,0,0,2.84l4.19,0V9.92c-.24,0-.46.05-.69.06h-2.73c-.23,0-.45,0-.75.05a28.36,28.36,0,0,0,0,3,7.36,7.36,0,0,0,.75.08h3.87c.25,0,.5,0,.8,0v1a46.85,46.85,0,0,1-6.6.06C123.66,13.72,123.63,5.8,123.77,4.93Z" style="fill: #3c3c3c"/>
    <path d="M114.17,14.21H112.9l-1-2.75h-4l-1,2.74h-1.24c1-3.13,2.13-6.19,3.19-9.28h2.07Zm-4.45-8.07a18.17,18.17,0,0,0-1.29,4.06,11.71,11.71,0,0,0,3.06-.07l-1.34-4Z" style="fill: #3c3c3c"/>
    <path d="M161.09,28.35h-4l-1,2.76h-1.26l3.2-9.26a10.22,10.22,0,0,1,2.08,0l3.21,9.24a2.68,2.68,0,0,1-.38.08h-.87ZM158.83,23c-.46,1.38-1,2.68-1.34,4.1,1.1,0,2.1,0,3.19,0l-1.37-4.05Z" style="fill: #3c3c3c"/>
    <path d="M155.39,38.71h2L160.61,48h-1.28l-1-2.74h-4L153.37,48h-1.12C152.24,47.52,154.87,39.73,155.39,38.71ZM154.72,44c1.12,0,2.14,0,3.25,0L156.59,40h-.5Z" style="fill: #3c3c3c"/>
    <path d="M124.35,38.74a2.53,2.53,0,0,1,.36-.05h3.81a3.35,3.35,0,0,1,.51,0,2.8,2.8,0,0,1,2,4.21,2.49,2.49,0,0,1-1.75,1.25,7.28,7.28,0,0,1-1.32.13c-.8,0-1.6,0-2.49,0l0,3.67h-1.11A82.77,82.77,0,0,1,124.35,38.74Zm1.18,4.4c1.15,0,2.23,0,3.3,0A1.37,1.37,0,0,0,130.11,42a1.62,1.62,0,0,0-1.38-2.14,2.73,2.73,0,0,0-.5-.07h-2.41a1.31,1.31,0,0,0-.3.07Z" style="fill: #3c3c3c"/>
    <path d="M157.13,7.34H156s-.11-.08-.13-.14c-.61-1.81-3.64-1.79-4.68-.12a4.76,4.76,0,0,0-.62,3.24,4.68,4.68,0,0,0,.33,1.22,2.89,2.89,0,0,0,3.69,1.61,2.13,2.13,0,0,0,1.19-1c.1-.18.19-.37.3-.57h1.22a5.75,5.75,0,0,1-.17.64,3.33,3.33,0,0,1-2.59,2.11,4.22,4.22,0,0,1-5.22-3.84,6.63,6.63,0,0,1,.28-3,4.23,4.23,0,0,1,5.89-2.36A2.81,2.81,0,0,1,157.13,7.34Z" style="fill: #3c3c3c"/>
    <path d="M46,51.21c.8-.43,1.2-.26,1.4.53.1.39.15.79.29,1.17A1.3,1.3,0,0,0,49.21,54a1.16,1.16,0,0,1,1.22.73c.58,1.58,1.11,3.18,1.68,4.81l-.74.28L51.75,61l-.73.16a5.18,5.18,0,0,1-.68,3.45,8.05,8.05,0,0,1-2.17,2.29,1.08,1.08,0,0,1-.64.2,3.13,3.13,0,0,1,.23-.27,7.48,7.48,0,0,0,2.47-5.45c0-1.12-.05-2.24-.1-3.35a3.36,3.36,0,0,0-.14-.68,1,1,0,0,0-1.07-.89.76.76,0,0,1-.76-.47C47.45,54.4,46.75,52.82,46,51.21Z" style="fill: #3c3c3c"/>
    <path d="M165.35,64.89c-.15-.58-.15-8.63,0-9.26h1.88v9.26Z" style="fill: #3c3c3c"/>
    <path d="M148.53,6h-2.94c0,.31-.06.55-.06.8,0,2.2,0,4.4,0,6.6,0,.27,0,.54,0,.84H144.3c-.07-1.37,0-2.72,0-4.07s0-2.7,0-4.14h-3l-.06-1a48.09,48.09,0,0,1,7.33,0Z" style="fill: #3c3c3c"/>
    <path d="M30.58,17.1a7.12,7.12,0,0,1-.56.51,4.2,4.2,0,0,1-3.8.61A15.13,15.13,0,0,1,24,17.29c-.51-.25-1-.58-1.48-.86a8.69,8.69,0,0,0-3.33-1.24.91.91,0,0,1,.65-.54,4.22,4.22,0,0,1,2.92-.1,14.14,14.14,0,0,1,1.63.68c.42.2.83.43,1.23.66A8.11,8.11,0,0,0,30,17h.25Z" style="fill: #3c3c3c"/>
    <path d="M107.85,48H106.7c-.15-.54-.17-8.54,0-9.2a41.51,41.51,0,0,1,6.33,0v1c-.87.05-1.72,0-2.55,0l-2.59,0Z" style="fill: #3c3c3c"/>
    <path d="M121.93,6h-5c0,.3-.06.54-.06.78,0,2.2,0,4.4,0,6.59,0,.27,0,.54-.05.83h-1.1c-.14-.52-.16-8.51,0-9.19a43.62,43.62,0,0,1,6.3-.06Z" style="fill: #3c3c3c"/>
    <path d="M162.48,14.21H161.3c0-.25,0-.49,0-.73q0-3.33,0-6.66c0-.25,0-.5,0-.81h-3V4.93h7.26l.05,1h-3c-.11,1.43,0,2.77-.05,4.12S162.48,12.77,162.48,14.21Z" style="fill: #3c3c3c"/>
    <path d="M43.37,63.5c.34,0,.65-.07.95-.14a6.67,6.67,0,0,0,1.1-.28,1.75,1.75,0,0,0,1.09-2.26,13.93,13.93,0,0,0-2.34-4.88,2.38,2.38,0,0,1-.44-.76A.94.94,0,0,1,44.24,54a6.28,6.28,0,0,1,.44.48,3,3,0,0,0,1.17,1,1.06,1.06,0,0,1,.65,1.07A2.89,2.89,0,0,0,46.84,58c.33.68.66,1.37,1,2a2.5,2.5,0,0,1-.25,2.85,3.21,3.21,0,0,1-3.31,1.2A1.58,1.58,0,0,1,43.37,63.5Z" style="fill: #3c3c3c"/>
    <path d="M23.79,6.71a5.72,5.72,0,0,0,2.2.77c-.48.76-.92.88-2.19.57l.29-.5L22.34,6.45l.15-.5.85.06A7.6,7.6,0,0,0,27,5.55c.74-.3,1.48-.62,2.22-.93.18-.07.35-.16.52-.23.8-.29,1.32,0,1.3.88S30.91,7,30.82,7.8a5.26,5.26,0,0,1-.26.91,4.75,4.75,0,0,1-.65.17c-.77.09-1.1-.21-1.09-1,0-.42,0-.84.06-1.27,0-.23,0-.45,0-.66Z" style="fill: #3c3c3c"/>
    <path d="M49.64,23.35a1.54,1.54,0,0,1-2.38,1c-.41-.27-.77-.6-1.17-.87a7.37,7.37,0,0,0-1.25-.73,1.52,1.52,0,0,0-1.59.11c-.25.67.42,1.13.29,1.74,0,0-.1,0-.11,0-.56-.6-1.1-1.23-1.68-1.8A3.35,3.35,0,0,1,41,19.07a2.18,2.18,0,0,1,.23-.36c0,.39,0,.63,0,.87a1.92,1.92,0,0,0,2,2h.57a3.09,3.09,0,0,1,2.05.72l.93.76a2.29,2.29,0,0,0,2.48.42A3.23,3.23,0,0,1,49.64,23.35Z" style="fill: #3c3c3c"/>
    <path d="M2.57,38.64a1.87,1.87,0,0,1,1,2.79l-.23-.68c-.08.16-.14.26-.18.36a1.64,1.64,0,0,1-1,.94c-.19.08-.4.13-.59.22a1.25,1.25,0,0,0-.87,1.44c0,.1,0,.2,0,.36a.88.88,0,0,1-.69-.62,1.56,1.56,0,0,1,.33-1.71,2.81,2.81,0,0,1,.75-.57,2.4,2.4,0,0,0,1.3-2C2.52,39,2.54,38.83,2.57,38.64Z" style="fill: #3c3c3c"/>
    <path d="M21.5,13.83l0-.43a1,1,0,0,1,.27,0l3,.41c.92.13,1.28-.1,1.48-1,.16-.76.27-1.54.41-2.31l.16-.89h.5A24.67,24.67,0,0,0,27,12.26,25.38,25.38,0,0,0,27.23,15l-.42.24A15.36,15.36,0,0,0,21.5,13.83Z" style="fill: #3c3c3c"/>
    <path d="M186.62,19.34h.89a1.36,1.36,0,0,0,2.68,0h.89a1.43,1.43,0,0,1-.35,1.24,2.58,2.58,0,0,1-3.72,0A1.49,1.49,0,0,1,186.62,19.34Z" style="fill: #3c3c3c"/>
    <path d="M25.46,22.15H26c.55,0,1.1,0,1.64-.08a2.25,2.25,0,0,0,1.93-1.54c.2-.55.33-1.13.51-1.75a1.08,1.08,0,0,1,.19.29,3.14,3.14,0,0,1-.81,3.27,2.13,2.13,0,0,1-2,.57c-.51-.12-1-.28-1.52-.44A2.33,2.33,0,0,1,25.46,22.15Z" style="fill: #3c3c3c"/>
    <path d="M30.73,10.12c-.33.05-.64.08-.95.15a1.65,1.65,0,0,0-1.43,1.81A2.46,2.46,0,0,0,30,14.56l.28.13a1.07,1.07,0,0,1-1.54,0A4.53,4.53,0,0,1,28,10.6a1.38,1.38,0,0,1,.18-.26A2.24,2.24,0,0,1,30.73,10.12Z" style="fill: #3c3c3c"/>
    <path d="M18.22,61.94a1.14,1.14,0,0,1-1,1.82,1.79,1.79,0,0,1-1.7-1.43,1,1,0,0,1,.78-1.2c0,.2-.05.38-.07.56a.77.77,0,0,0,1.19.82A5.66,5.66,0,0,0,18.22,61.94Z" style="fill: #3c3c3c"/>
  </g>
</svg>
