<svg xmlns="http://www.w3.org/2000/svg" width="66.67mm" height="24.83mm" viewBox="0 0 188.98 70.39">
  <title>33 удалить-01</title>
  <g>
    <path d="M106.33,23.08V14.14h1.78l2.12,6.33q.29.88.43,1.33.15-.49.48-1.44l2.14-6.22h1.6v8.94h-1.14V15.6l-2.59,7.48h-1.07l-2.59-7.61v7.61Z" style="fill: #3c3c3c"/>
    <path d="M116.47,18.69a4.84,4.84,0,0,1,1.19-3.48,4.06,4.06,0,0,1,3.08-1.26,4.28,4.28,0,0,1,2.23.59,3.84,3.84,0,0,1,1.51,1.68,5.7,5.7,0,0,1,0,4.83,3.76,3.76,0,0,1-1.55,1.63,4.46,4.46,0,0,1-2.17.55,4.2,4.2,0,0,1-2.26-.61,3.92,3.92,0,0,1-1.5-1.68,5,5,0,0,1-.51-2.23Zm1.22,0a3.6,3.6,0,0,0,.84,2.52,3,3,0,0,0,4.28.09l.09-.09a3.79,3.79,0,0,0,.84-2.66,4.53,4.53,0,0,0-.37-1.91,2.79,2.79,0,0,0-1.08-1.26,2.9,2.9,0,0,0-1.6-.45,3,3,0,0,0-2.17.84,3.85,3.85,0,0,0-.9,2.88Z" style="fill: #3c3c3c"/>
    <path d="M126.13,20.2l1.12-.1a2.52,2.52,0,0,0,.37,1.1,2.07,2.07,0,0,0,.9.7,3.44,3.44,0,0,0,1.37.26,3.29,3.29,0,0,0,1.19-.2,1.68,1.68,0,0,0,.77-.55,1.28,1.28,0,0,0,.26-.77,1.15,1.15,0,0,0-.24-.73,1.8,1.8,0,0,0-.84-.53,15.43,15.43,0,0,0-1.6-.44,8.2,8.2,0,0,1-1.73-.56,2.45,2.45,0,0,1-1-.84,2.07,2.07,0,0,1-.31-1.12,2.26,2.26,0,0,1,.39-1.26,2.37,2.37,0,0,1,1.13-.9,4.26,4.26,0,0,1,1.68-.3,4.42,4.42,0,0,1,1.75.32,2.52,2.52,0,0,1,1.17.94,2.7,2.7,0,0,1,.44,1.41l-1.13.08a1.82,1.82,0,0,0-.62-1.28,2.39,2.39,0,0,0-1.55-.44,2.52,2.52,0,0,0-1.57.39,1.18,1.18,0,0,0-.49.95,1,1,0,0,0,.34.79,4.73,4.73,0,0,0,1.78.64,11.68,11.68,0,0,1,2,.57,2.7,2.7,0,0,1,1.15.92,2.21,2.21,0,0,1,.37,1.27,2.44,2.44,0,0,1-.41,1.34,2.71,2.71,0,0,1-1.18,1,4.1,4.1,0,0,1-1.68.34,5.16,5.16,0,0,1-2-.35,2.88,2.88,0,0,1-1.28-1.06,3,3,0,0,1-.49-1.61Z" style="fill: #3c3c3c"/>
    <path d="M141.25,19.94l1.18.3a4,4,0,0,1-1.34,2.22,3.69,3.69,0,0,1-2.36.76,4.28,4.28,0,0,1-2.35-.59A3.72,3.72,0,0,1,135,21a6.11,6.11,0,0,1-.47-2.39,5.27,5.27,0,0,1,.53-2.43,3.66,3.66,0,0,1,1.49-1.65,4.43,4.43,0,0,1,2.17-.55,3.66,3.66,0,0,1,2.26.68,3.54,3.54,0,0,1,1.28,1.92l-1.17.28a2.76,2.76,0,0,0-.9-1.42,2.4,2.4,0,0,0-1.49-.44,2.9,2.9,0,0,0-1.73.5,2.61,2.61,0,0,0-1,1.33,5.31,5.31,0,0,0-.28,1.68,5.53,5.53,0,0,0,.33,2,2.52,2.52,0,0,0,1,1.27,2.9,2.9,0,0,0,1.52.42,2.52,2.52,0,0,0,1.68-.57,2.93,2.93,0,0,0,.93-1.68Z" style="fill: #3c3c3c"/>
    <path d="M143.53,18.69a4.84,4.84,0,0,1,1.19-3.48,4.06,4.06,0,0,1,3.08-1.26,4.28,4.28,0,0,1,2.23.59,3.84,3.84,0,0,1,1.51,1.68,5.7,5.7,0,0,1,0,4.83A3.76,3.76,0,0,1,150,22.72a4.46,4.46,0,0,1-2.17.55,4.2,4.2,0,0,1-2.26-.61,3.92,3.92,0,0,1-1.5-1.68,5,5,0,0,1-.51-2.23Zm1.22,0a3.6,3.6,0,0,0,.84,2.52,3,3,0,0,0,4.28.09l.12-.09a3.79,3.79,0,0,0,.84-2.66,4.53,4.53,0,0,0-.37-1.91,2.79,2.79,0,0,0-1.08-1.26,2.9,2.9,0,0,0-1.6-.45,3,3,0,0,0-2.17.84,3.85,3.85,0,0,0-.9,2.88Z" style="fill: #3c3c3c"/>
    <path d="M155.16,23.08l-2.38-8.94H154L155.36,20q.22.92.38,1.83l.4-1.68,1.68-6h1.4l1.33,4.56a24,24,0,0,1,.7,3.17q.17-.84.45-1.95l1.4-5.74h1.17l-2.43,8.92h-1.14l-1.88-6.81q-.24-.84-.28-1-.14.61-.26,1l-1.9,6.81Z" style="fill: #3c3c3c"/>
    <path d="M105.43,38.69l3.43-8.94h1.28l3.66,8.94h-1.34L111.37,36h-3.74l-1,2.7ZM108,35h3l-.93-2.48q-.43-1.13-.64-1.86a11.39,11.39,0,0,1-.48,1.68Z" style="fill: #3c3c3c"/>
    <path d="M118.93,35.18v-1h3.79v3.36a6.72,6.72,0,0,1-1.8,1,5.37,5.37,0,0,1-1.91.34,5.11,5.11,0,0,1-2.39-.56A3.75,3.75,0,0,1,115,36.69a5.14,5.14,0,0,1-.55-2.38,5.54,5.54,0,0,1,.55-2.43,3.64,3.64,0,0,1,1.57-1.68,4.92,4.92,0,0,1,2.36-.58,4.61,4.61,0,0,1,1.75.32,2.88,2.88,0,0,1,1.23.84,3.88,3.88,0,0,1,.68,1.46l-1.07.29a3.3,3.3,0,0,0-.5-1.07,2,2,0,0,0-.84-.62,3.1,3.1,0,0,0-1.23-.24,3.59,3.59,0,0,0-1.4.25,2.62,2.62,0,0,0-1,.65,3.13,3.13,0,0,0-.56.88,4.68,4.68,0,0,0-.34,1.8,4.39,4.39,0,0,0,.41,2,2.65,2.65,0,0,0,1.16,1.22,3.71,3.71,0,0,0,1.68.39,4,4,0,0,0,1.5-.29,3.92,3.92,0,0,0,1.11-.64V35.16Z" style="fill: #3c3c3c"/>
    <path d="M124.48,38.69V29.75h6.46v1.06h-5.31v2.74h4.95v1h-4.95v3h5.49v1.06Z" style="fill: #3c3c3c"/>
    <path d="M132.79,38.69V29.75H134l4.69,7v-7h1.13v8.94h-1.22l-4.69-7v7Z" style="fill: #3c3c3c"/>
    <path d="M148.2,35.55l1.18.3A4,4,0,0,1,148,38.08a3.69,3.69,0,0,1-2.36.76,4.28,4.28,0,0,1-2.35-.59A3.72,3.72,0,0,1,142,36.58a6.11,6.11,0,0,1-.47-2.39,5.27,5.27,0,0,1,.53-2.43,3.66,3.66,0,0,1,1.52-1.58,4.43,4.43,0,0,1,2.17-.56,3.66,3.66,0,0,1,2.26.68,3.54,3.54,0,0,1,1.28,1.92l-1.17.28a2.76,2.76,0,0,0-.9-1.42,2.4,2.4,0,0,0-1.49-.44,2.9,2.9,0,0,0-1.73.5,2.61,2.61,0,0,0-1,1.33,5.31,5.31,0,0,0-.28,1.68,5.53,5.53,0,0,0,.33,2,2.52,2.52,0,0,0,1.07,1.28,2.9,2.9,0,0,0,1.52.42,2.52,2.52,0,0,0,1.68-.57,2.93,2.93,0,0,0,.93-1.68Z" style="fill: #3c3c3c"/>
    <path d="M153.35,38.69V34.91l-3.44-5.16h1.44l1.76,2.7q.49.76.91,1.51.4-.71,1-1.58l1.68-2.63H158l-3.57,5.16v3.79Z" style="fill: #3c3c3c"/>
    <path d="M162.07,34.33a4.84,4.84,0,0,1,1.19-3.48,4.06,4.06,0,0,1,3.08-1.26,4.28,4.28,0,0,1,2.23.59,3.84,3.84,0,0,1,1.51,1.68,5.7,5.7,0,0,1,0,4.83,3.76,3.76,0,0,1-1.55,1.63,4.46,4.46,0,0,1-2.17.55,4.2,4.2,0,0,1-2.26-.61,3.92,3.92,0,0,1-1.5-1.68A5,5,0,0,1,162.07,34.33Zm1.22,0a3.6,3.6,0,0,0,.84,2.52,3,3,0,0,0,4.28.09l.09-.09a3.79,3.79,0,0,0,.84-2.66,4.53,4.53,0,0,0-.37-1.91A2.79,2.79,0,0,0,167.89,31a2.9,2.9,0,0,0-1.6-.45,3,3,0,0,0-2.17.84,3.85,3.85,0,0,0-.9,2.88Z" style="fill: #3c3c3c"/>
    <path d="M172.2,38.69V29.75h6v1.06h-4.84v2.77h4.2v1.07h-4.2v4.06Z" style="fill: #3c3c3c"/>
    <path d="M106.61,54.3V45.36h1.18V54.3Z" style="fill: #3c3c3c"/>
    <path d="M109.86,54.3V45.36h1.22l4.69,7v-7h1.13V54.3h-1.22L111,47.24v7Z" style="fill: #3c3c3c"/>
    <path d="M118.93,54.3V45.36h1.22l4.7,7v-7H126V54.3h-1.26L120,47.24v7Z" style="fill: #3c3c3c"/>
    <path d="M127.56,49.94a4.84,4.84,0,0,1,1.19-3.48,4.06,4.06,0,0,1,3.08-1.26,4.28,4.28,0,0,1,2.23.59,3.84,3.84,0,0,1,1.51,1.68,5.7,5.7,0,0,1,0,4.83A3.76,3.76,0,0,1,134,53.91a4.46,4.46,0,0,1-2.17.55,4.2,4.2,0,0,1-2.26-.61,3.92,3.92,0,0,1-1.5-1.68,5,5,0,0,1-.51-2.23Zm1.22,0a3.6,3.6,0,0,0,.84,2.52,3,3,0,0,0,4.28.09l.09-.09a3.79,3.79,0,0,0,.84-2.66,4.53,4.53,0,0,0-.37-1.91,2.79,2.79,0,0,0-1.08-1.26,2.9,2.9,0,0,0-1.6-.45,3,3,0,0,0-2.17.84,3.85,3.85,0,0,0-.9,2.88Z" style="fill: #3c3c3c"/>
    <path d="M140.18,54.3l-3.46-8.94H138l2.33,6.49q.28.78.47,1.46.21-.73.48-1.46l2.42-6.49H145l-3.5,8.94Z" style="fill: #3c3c3c"/>
    <path d="M144.06,54.3l3.42-8.94h1.28l3.66,8.94h-1.34L150,51.6H146.3l-1,2.7Zm2.58-3.7h3l-.93-2.52q-.43-1.13-.64-1.86a11.39,11.39,0,0,1-.48,1.68Z" style="fill: #3c3c3c"/>
    <path d="M154.73,54.3V46.4h-2.95v-1h7.09v1h-3v7.88Z" style="fill: #3c3c3c"/>
    <path d="M160.29,54.3V45.36h1.18V54.3Z" style="fill: #3c3c3c"/>
    <path d="M163.19,49.94a4.84,4.84,0,0,1,1.19-3.48,4.06,4.06,0,0,1,3.08-1.26,4.28,4.28,0,0,1,2.23.59,3.84,3.84,0,0,1,1.51,1.68,5.7,5.7,0,0,1,0,4.83A3.76,3.76,0,0,1,169.65,54a4.46,4.46,0,0,1-2.17.55,4.2,4.2,0,0,1-2.26-.61,3.92,3.92,0,0,1-1.5-1.68,5,5,0,0,1-.51-2.23Zm1.22,0a3.6,3.6,0,0,0,.84,2.52,3,3,0,0,0,4.28.09l.09-.09a3.79,3.79,0,0,0,.84-2.66,4.53,4.53,0,0,0-.37-1.91A2.79,2.79,0,0,0,169,46.63a2.9,2.9,0,0,0-1.6-.45,3,3,0,0,0-2.17.84,3.85,3.85,0,0,0-.9,2.88Z" style="fill: #3c3c3c"/>
    <path d="M173.25,54.3V45.36h1.22l4.69,7v-7h1.13V54.3h-1.22l-4.74-7.06v7Z" style="fill: #3c3c3c"/>
    <path d="M181.9,51.44l1.12-.1a2.52,2.52,0,0,0,.37,1.1,2.07,2.07,0,0,0,.9.7,3.44,3.44,0,0,0,1.37.26,3.29,3.29,0,0,0,1.19-.2,1.68,1.68,0,0,0,.77-.55,1.28,1.28,0,0,0,.26-.77,1.15,1.15,0,0,0-.24-.73,1.8,1.8,0,0,0-.84-.53,15.44,15.44,0,0,0-1.6-.44,8.22,8.22,0,0,1-1.73-.56,2.45,2.45,0,0,1-1-.84,2.07,2.07,0,0,1-.31-1.12,2.26,2.26,0,0,1,.39-1.26,2.37,2.37,0,0,1,1.13-.9,4.26,4.26,0,0,1,1.68-.3,4.42,4.42,0,0,1,1.75.32,2.52,2.52,0,0,1,1.17.94,2.7,2.7,0,0,1,.44,1.41L187.6,48a1.82,1.82,0,0,0-.62-1.28,2.39,2.39,0,0,0-1.55-.44,2.52,2.52,0,0,0-1.57.39,1.18,1.18,0,0,0-.49.95,1,1,0,0,0,.34.79,4.73,4.73,0,0,0,1.78.64,11.67,11.67,0,0,1,2,.57,2.7,2.7,0,0,1,1.13.93,2.21,2.21,0,0,1,.37,1.27,2.44,2.44,0,0,1-.37,1.34,2.71,2.71,0,0,1-1.18,1,4.1,4.1,0,0,1-1.68.34,5.16,5.16,0,0,1-2-.35A2.88,2.88,0,0,1,182.43,53,3,3,0,0,1,181.9,51.44Z" style="fill: #3c3c3c"/>
  </g>
  <path d="M7.82,58.1A7.86,7.86,0,0,0,8,59a5,5,0,0,0,1.55,2.5,14,14,0,0,1,2.58,3.29c.42.68.18,1.1-.61,1.13-.63,0-1.27,0-1.9,0s-.9-.28-.75-.87a4.07,4.07,0,0,0-.7-3.31,7.9,7.9,0,0,1-1.32-3.66,12.64,12.64,0,0,1,.06-1.64c0-.42.1-.84.09-1.25a5.26,5.26,0,0,1,1.22-3.52c.25-.31.53-.61.79-.91a3.7,3.7,0,0,0,.81-3.56,2.37,2.37,0,0,1-.07-.31s0-.08,0-.13c.23-.06.27.13.33.27a3.86,3.86,0,0,1-.3,3.81c-.27.43-.59.82-.9,1.23A4.21,4.21,0,0,0,8,54.28a1.12,1.12,0,0,0,.26-.1L10.9,52c.1-.08.19-.17.29-.25a4.12,4.12,0,0,0,1.68-4.3c-.1-.67-.19-1.34-.34-2a15.43,15.43,0,0,1-.47-3.85c-.13.09-.21.11-.24.17A6.62,6.62,0,0,1,9.53,44c-.89.52-1.83,1-2.75,1.44a13.12,13.12,0,0,0-1.55.85,3.68,3.68,0,0,0-1.58,2.84,5.94,5.94,0,0,0,.25,2.26c.07.22.13.43.23.8a5.08,5.08,0,0,1-.42-.36,7.72,7.72,0,0,1-1.94-3.45,5,5,0,0,1,1.41-4.84,16.58,16.58,0,0,1,1.4-1.19c.47-.39,1-.76,1.42-1.17a5.06,5.06,0,0,0,1.58-3c0-.27.09-.54.14-.81a3.52,3.52,0,0,1,3.81-3.08,7.47,7.47,0,0,1,3,.72.5.5,0,0,1,.27.3c-.23,0-.47-.08-.7-.14a7.16,7.16,0,0,0-2.26-.23,2.81,2.81,0,0,0-2.62,2.11c-.09.33-.16.66-.22,1a6.73,6.73,0,0,1-2.33,4c-.51.44-1.06.84-1.61,1.24a7.11,7.11,0,0,0-1.76,1.73,4.28,4.28,0,0,0-.78,2.76,1.46,1.46,0,0,0,.17.61c.05-.21.11-.43.16-.64A4.87,4.87,0,0,1,4.83,45a9.24,9.24,0,0,1,1.71-1,5.33,5.33,0,0,0,3.25-3.58c.11-.39.26-.76.4-1.14a4.71,4.71,0,0,1,3.7-3.13,9.12,9.12,0,0,1,5.34.67.75.75,0,0,1,.16.1s0,0,0,.11a1.84,1.84,0,0,1-.31.1c-.42.05-.85.06-1.26.15A3.87,3.87,0,0,0,14.47,41a15,15,0,0,0,.19,4c.13,1,.28,2,.31,3a5.07,5.07,0,0,1-1.86,4.14,17,17,0,0,1-2,1.43,9.07,9.07,0,0,0-2,1.52c-.32.36-.59.76-.89,1.15a2.94,2.94,0,0,0,2.16,2,4.79,4.79,0,0,0,2.33-.06,10.78,10.78,0,0,1,3.27-.31,6.51,6.51,0,0,1,3,.92,4.3,4.3,0,0,1,2.2,3.25,3.54,3.54,0,0,1-1.48,3.38,3.11,3.11,0,0,1-.51.23,3.59,3.59,0,0,1,.22-.42c.13-.17.28-.32.41-.48a3.07,3.07,0,0,0-.45-4.43A5.67,5.67,0,0,0,14.8,59c-.84.09-1.66.31-2.49.46a4.58,4.58,0,0,1-4-1.19L8,58.06Z" style="fill: #3c3c3c"/>
  <path d="M10.36,31.58a2.18,2.18,0,0,1-.2-2.88,7.27,7.27,0,0,1,1.08-1c.17-.15.35-.28.57-.46-.14-.33-.25-.62-.38-.9s-.34-.63-.47-1a1.27,1.27,0,0,1,.57-1.7,9.92,9.92,0,0,1,.9-.46c.89-.45,1.78-.88,2.66-1.34a1,1,0,0,0,.66-.83L15,20.52a1.12,1.12,0,0,1-.53-1.2,1.27,1.27,0,0,1,1-1.07v1l.75,0a5.75,5.75,0,0,1,.7,0c.65.11.86.39.83,1,0,.21,0,.42,0,.63a1.3,1.3,0,0,0,.91,1.32c.38.14.78.21,1.14.37.52.23,1,.51,1.51.79.11.06.17.21.34.43a9,9,0,0,0-1.14-.33,15.34,15.34,0,0,0-2.08-.21,17,17,0,0,0-4.34.5,5.11,5.11,0,0,0-1.24.47c-.62.35-.63,1,0,1.55a2.8,2.8,0,0,0,.43-.3,2.08,2.08,0,0,1,2.62-.33,5.41,5.41,0,0,0,2.5.62,3.76,3.76,0,0,0,1.82-.49,1.86,1.86,0,0,1,1.93,0,2.58,2.58,0,0,1,.28.25l-.69,0a1.39,1.39,0,0,0-1.38.84A3,3,0,0,1,18,28.37a1.41,1.41,0,0,0-.25.15,10.74,10.74,0,0,0,3.68.44,1.63,1.63,0,0,0,1.34-1c.08-.19.15-.39.27-.7a1.82,1.82,0,0,1,.2,1,2.47,2.47,0,0,1-1.13,1.9,5.17,5.17,0,0,1-2.74.89c-.29,0-.59,0-.94,0a1.26,1.26,0,0,0,1.15.68,2,2,0,0,0,.44,0,1.7,1.7,0,0,1,1.81.76,2.27,2.27,0,0,0,.16.2l.12.07a36.37,36.37,0,0,1,4.67-2c.1,0,.15,0,.18.07a9.49,9.49,0,0,1,2.74,4.77,3.85,3.85,0,0,1-.48,2.93,1,1,0,0,1-.71.58c.08-.18.11-.29.17-.39a3.22,3.22,0,0,0,.29-2.4A10.46,10.46,0,0,0,26.48,32l-3.85,2,.49.75c.16.25.34.48.5.73a1.71,1.71,0,0,1,.07,1.75,1.54,1.54,0,0,1-.12.22,7.56,7.56,0,0,0-1,4.87c0,.57.14,1.13.19,1.7a1.1,1.1,0,0,0,.9,1c.47.12,1,.2,1.43.28a1,1,0,0,1,.74.35,1.59,1.59,0,0,1-1.18.44,8.25,8.25,0,0,0-2.25.26c-.65.19-1-.18-1-.86a1.61,1.61,0,0,1,.11-.49,1.9,1.9,0,0,0-.16-1.71c-.15-.28-.29-.56-.46-.83A2.55,2.55,0,0,1,20.8,40a17.54,17.54,0,0,0,.68-1.91,4.45,4.45,0,0,0-.19-3c-.37-.89-.64-1-1.59-1a9,9,0,0,1-1.2,0,3.49,3.49,0,0,1-2.13-1c-.39-.38-.79-.77-1.22-1.11a3.89,3.89,0,0,0-4.23-.57Z" style="fill: #3c3c3c"/>
  <path d="M57.36,53.94a3.6,3.6,0,0,1-.79-.35,17.88,17.88,0,0,1-1.41-1.27,1.1,1.1,0,0,1-.26-1.18c.05-.16.08-.33.12-.49a2.1,2.1,0,0,0-.42-2,2.06,2.06,0,0,1-.54-1.76,1.52,1.52,0,0,0,0-.69q-.57-1.62-1.19-3.21a2.94,2.94,0,0,0-.42-.71.81.81,0,0,0-1.3-.22,7.93,7.93,0,0,1-2.83,1.23,7.42,7.42,0,0,1-5.7-1.11,1.66,1.66,0,0,1-.88-1c.07-.38.36-.54.63-.69.42-.24.86-.45,1.29-.68l.83-.47A1.09,1.09,0,0,0,45,38,12.69,12.69,0,0,1,45,33.54a13.72,13.72,0,0,0-.34-4.47c0-.12,0-.24-.07-.45a1.62,1.62,0,0,1,.36.18,15,15,0,0,1,3.72,5.09c.2.48.31,1,.47,1.51a9,9,0,0,0,.33,1c.35.78.85.9,1.5.36a7.93,7.93,0,0,0,.63-.63c.37-.38.71-.78,1.1-1.15a1,1,0,0,1,1.61,0,4.34,4.34,0,0,1,.67.84,41.69,41.69,0,0,1,4.23,9.55,1.76,1.76,0,0,1,.05,1.38,2.27,2.27,0,0,1-.62-.18c-.53-.34-1.06-.71-1.56-1.09a1.38,1.38,0,0,1-.56-1.4c0-.21.05-.42.1-.63A3.11,3.11,0,0,0,56,40.91c-.64-.87-1.3-1.73-2-2.56-.52-.64-1-.68-1.57-.16-.43.37-.82.79-1.22,1.2a.51.51,0,0,0-.06.74l.58,0c.23,0,.46-.06.69-.06.83,0,1.11.17,1.39.93s.58,1.68.81,2.54a58.45,58.45,0,0,0,2,6.14,23.2,23.2,0,0,1,.77,2.61,3.74,3.74,0,0,1,.08,1A3.12,3.12,0,0,1,57.36,53.94Z" style="fill: #3c3c3c"/>
  <path d="M45.7,17.37c-.07-.37-.35-.53-.62-.7a6,6,0,0,0-8.21,1.81,7.62,7.62,0,0,0-.66,7.67c.33.71.65,1.42.94,2.15A6,6,0,0,1,37.61,31a4.64,4.64,0,0,1-.14.87,4.65,4.65,0,0,1-5.06,3,3.7,3.7,0,0,1,.37-.33,6.18,6.18,0,0,0,1.6-1.43,3.48,3.48,0,0,0,.54-3.47,4.29,4.29,0,0,0-1.1-1.74,2.7,2.7,0,0,1-.5,2.17,1.51,1.51,0,0,1-.64.38,2.26,2.26,0,0,0,.16-2.68.71.71,0,0,0-.85-.39c-.44.34-.35.88-.51,1.46a4.28,4.28,0,0,1-.27-.5,10.61,10.61,0,0,1-.59-3.42,12.76,12.76,0,0,1,.67-4.62A9.27,9.27,0,0,1,39,14.09a9.63,9.63,0,0,1,5.11.58l1.77.65c.16.84.29,1.69.49,2.53a6.83,6.83,0,0,0,1.1,2.34c-.54-.12-.68-.71-1.13-.91l-1.3-.58C45,18.09,45.66,17.9,45.7,17.37Z" style="fill: #3c3c3c"/>
  <path d="M27.18,59.13a1,1,0,0,1-.88.46c-.67.1-1.34.15-2,.23l-2.59.27h-.21l-2.2-1.94c.16-.21.39-.18.61-.13.54.11,1.07.25,1.61.35a7.7,7.7,0,0,0,1.44.19.72.72,0,0,0,.64-1.19,3.57,3.57,0,0,0-.88-.89,14.91,14.91,0,0,0-1.3-.79,5.53,5.53,0,0,1-.54-.34.6.6,0,0,1-.16-1c.26-.36.59-.67.82-1s.57-1.08.83-1.63a.49.49,0,0,0-.07-.42,4.4,4.4,0,0,0-.43.41c-.34.43-.67.88-1,1.31a3.25,3.25,0,0,1-3.12,1.31c-.8-.09-1.6-.13-2.4-.18a2.89,2.89,0,0,0-2.63,1.37c-.19.27-.37.55-.64.93a2.42,2.42,0,0,1,0-.53,9.27,9.27,0,0,1,.31-1.36,3.64,3.64,0,0,1,4-2.52c.59,0,1.18.09,1.77.08A2,2,0,0,0,20,50.72c.21-.53.37-1.08.57-1.62a3,3,0,0,1,1.74-1.82,2.57,2.57,0,0,1,1.85-.05,23.67,23.67,0,0,0,2.9.9,16.4,16.4,0,0,0,3.14.35c2,0,4-.07,6-.11.22,0,.44,0,.7,0-.07.36-.3.36-.49.41-1.31.34-2.63.65-3.93,1a29,29,0,0,0-4.59,1.65,5.74,5.74,0,0,0-2.49,2c-.29.44-.67.82-1,1.24a1.19,1.19,0,0,0,0,1.68,7.35,7.35,0,0,0,2.07,2C26.79,58.6,27.09,58.77,27.18,59.13Z" style="fill: #3c3c3c"/>
  <path d="M94.08.7,95,1,69.73,70.39l-.92-.33Z" style="fill: #3c3c3c"/>
  <path d="M45.6,54.37a1.5,1.5,0,0,1-.89-.54,5.69,5.69,0,0,0-2.56-1.46,3.35,3.35,0,0,1-.86-.39,1.17,1.17,0,0,1-.5-1.54,1.68,1.68,0,0,0,0-1.23,10.38,10.38,0,0,0-1.38-2.63L20,19.7,11.58,8.07c-.13-.19-.26-.38-.41-.6l.47-.37L45.71,54.26Z" style="fill: #3c3c3c"/>
  <path d="M41.78,56.87c-.05-.27-.09-.53-.16-.79a8,8,0,0,0-.38-1.27.82.82,0,0,0-1.1-.49c-.43.1-.86.23-1.29.35a3.13,3.13,0,0,1-2.39-.31c-.3-.16-.58-.34-.89-.5-.74-.38-1.11-.15-1.14.7,0,.3,0,.59,0,.89,0,.74-.38,1.08-1.11.93-1.28-.27-2.55-.61-3.82-.92l-.85-.24c-.08.37.3.68,0,1a4,4,0,0,1-2.41-1.77c.1-.3.36-.31.61-.33a5.56,5.56,0,0,1,2.6.43,19.2,19.2,0,0,0,2.11.65,1,1,0,0,0,1-.21,4.6,4.6,0,0,1-.11-1.35,3.62,3.62,0,0,1,.69-1.17c.17-.63-.35-1-.64-1.54a3.07,3.07,0,0,1,2.28-.29,3.11,3.11,0,0,1,1.56.82,3.88,3.88,0,0,0,3.21,1.05c.4,0,.8,0,1.2,0a1.15,1.15,0,0,1,1.17.8,2.34,2.34,0,0,1,.21.86c0,.86-.08,1.73-.14,2.59a.63.63,0,0,1-.1.21Z" style="fill: #3c3c3c"/>
  <path d="M46,51.74c.8-.43,1.2-.26,1.4.53.1.39.15.79.29,1.17a1.3,1.3,0,0,0,1.5,1.06,1.16,1.16,0,0,1,1.22.73C51,56.81,51.54,58.41,52.1,60l-.74.28.39,1.23L51,61.7a5.18,5.18,0,0,1-.68,3.45,8.05,8.05,0,0,1-2.17,2.29,1.08,1.08,0,0,1-.64.2,3.13,3.13,0,0,1,.23-.27,7.48,7.48,0,0,0,2.47-5.45c0-1.12-.05-2.24-.1-3.35a3.36,3.36,0,0,0-.14-.68A1,1,0,0,0,48.93,57a.76.76,0,0,1-.76-.47C47.45,54.93,46.75,53.35,46,51.74Z" style="fill: #3c3c3c"/>
  <path d="M30.58,17.64a7.12,7.12,0,0,1-.56.51,4.2,4.2,0,0,1-3.8.61A15.13,15.13,0,0,1,24,17.82c-.51-.25-1-.58-1.48-.86a8.69,8.69,0,0,0-3.33-1.24.91.91,0,0,1,.65-.54,4.22,4.22,0,0,1,2.92-.1,14.14,14.14,0,0,1,1.63.68c.42.2.83.43,1.23.66A8.11,8.11,0,0,0,30,17.55h.25Z" style="fill: #3c3c3c"/>
  <path d="M43.37,64c.34,0,.65-.07.95-.14a6.67,6.67,0,0,0,1.1-.28,1.75,1.75,0,0,0,1.09-2.26,13.93,13.93,0,0,0-2.34-4.88,2.38,2.38,0,0,1-.44-.76.94.94,0,0,1,.52-1.19,6.28,6.28,0,0,1,.44.48,3,3,0,0,0,1.17,1,1.06,1.06,0,0,1,.65,1.07,2.89,2.89,0,0,0,.34,1.46c.33.68.66,1.37,1,2a2.5,2.5,0,0,1-.25,2.85,3.21,3.21,0,0,1-3.31,1.2A1.58,1.58,0,0,1,43.37,64Z" style="fill: #3c3c3c"/>
  <path d="M23.79,7.24A5.72,5.72,0,0,0,26,8c-.48.76-.92.88-2.19.57l.29-.5L22.34,7l.15-.5.85.06A7.6,7.6,0,0,0,27,6.08c.74-.3,1.48-.62,2.22-.93.18-.07.35-.16.52-.23.8-.29,1.32,0,1.3.88s-.1,1.69-.18,2.53a5.26,5.26,0,0,1-.26.91,4.75,4.75,0,0,1-.65.17c-.77.09-1.1-.21-1.09-1,0-.42,0-.84.06-1.27,0-.23,0-.45,0-.66Z" style="fill: #3c3c3c"/>
  <path d="M49.64,23.88a1.54,1.54,0,0,1-2.38,1c-.41-.27-.77-.6-1.17-.87a7.37,7.37,0,0,0-1.25-.73,1.52,1.52,0,0,0-1.59.11c-.25.67.42,1.13.29,1.74,0,0-.1,0-.11,0-.56-.6-1.1-1.23-1.68-1.8A3.35,3.35,0,0,1,41,19.6a2.18,2.18,0,0,1,.23-.36c0,.39,0,.63,0,.87a1.92,1.92,0,0,0,2,2h.57a3.09,3.09,0,0,1,2.05.72l.93.76a2.29,2.29,0,0,0,2.48.42A3.23,3.23,0,0,1,49.64,23.88Z" style="fill: #3c3c3c"/>
  <path d="M2.57,39.17a1.87,1.87,0,0,1,1,2.79l-.23-.68c-.08.16-.14.26-.18.36a1.64,1.64,0,0,1-1,.94c-.19.08-.4.13-.59.22a1.25,1.25,0,0,0-.87,1.44c0,.1,0,.2,0,.36A.88.88,0,0,1,.12,44a1.56,1.56,0,0,1,.33-1.71,2.81,2.81,0,0,1,.75-.57,2.4,2.4,0,0,0,1.3-2C2.52,39.51,2.54,39.36,2.57,39.17Z" style="fill: #3c3c3c"/>
  <path d="M21.5,14.36l0-.43a1,1,0,0,1,.27,0l3,.41c.92.13,1.28-.1,1.48-1,.16-.76.27-1.54.41-2.31l.16-.89h.5A24.67,24.67,0,0,0,27,12.79a25.38,25.38,0,0,0,.26,2.77l-.42.24A15.36,15.36,0,0,0,21.5,14.36Z" style="fill: #3c3c3c"/>
  <path d="M25.46,22.68H26c.55,0,1.1,0,1.64-.08a2.25,2.25,0,0,0,1.93-1.54c.2-.55.33-1.13.51-1.75a1.08,1.08,0,0,1,.19.29,3.14,3.14,0,0,1-.81,3.27,2.13,2.13,0,0,1-2,.57c-.51-.12-1-.28-1.52-.44A2.33,2.33,0,0,1,25.46,22.68Z" style="fill: #3c3c3c"/>
  <path d="M30.73,10.65c-.33.05-.64.08-.95.15a1.65,1.65,0,0,0-1.43,1.81A2.46,2.46,0,0,0,30,15.09l.28.13a1.07,1.07,0,0,1-1.54,0,4.53,4.53,0,0,1-.7-4.12,1.38,1.38,0,0,1,.18-.26A2.24,2.24,0,0,1,30.73,10.65Z" style="fill: #3c3c3c"/>
  <path d="M18.22,62.47a1.14,1.14,0,0,1-1,1.82,1.79,1.79,0,0,1-1.7-1.43,1,1,0,0,1,.78-1.2c0,.2-.05.38-.07.56a.77.77,0,0,0,1.19.82A5.66,5.66,0,0,0,18.22,62.47Z" style="fill: #3c3c3c"/>
</svg>
