<?xml version="1.0" encoding="utf-8"?>
<svg xmlns="http://www.w3.org/2000/svg" viewBox="0 0 512 512">

  <path d="M202.86,78.59v13.5a7.92,7.92,0,0,1-7.32,7.92,104.31,104.31,0,0,0-96.72,96.71A7.92,7.92,0,0,1,90.9,204H77.4a8,8,0,0,1-7.93-8.51A133.68,133.68,0,0,1,194.35,70.66,8,8,0,0,1,202.86,78.59Z M304.12,78.59v13.5a7.92,7.92,0,0,0,7.32,7.92,104.31,104.31,0,0,1,96.72,96.71,7.92,7.92,0,0,0,7.92,7.32h13.5a8,8,0,0,0,7.93-8.51A133.68,133.68,0,0,0,312.64,70.66,8,8,0,0,0,304.12,78.59Z M202.86,433.27v-13.5a7.92,7.92,0,0,0-7.32-7.92,104.31,104.31,0,0,1-96.72-96.71,7.92,7.92,0,0,0-7.92-7.32H77.4a8,8,0,0,0-7.93,8.51A133.68,133.68,0,0,0,194.35,441.2,8,8,0,0,0,202.86,433.27Z M304.12,433.27v-13.5a7.92,7.92,0,0,1,7.32-7.92,104.31,104.31,0,0,0,96.72-96.71,7.92,7.92,0,0,1,7.92-7.32h13.5a8,8,0,0,1,7.93,8.51A133.68,133.68,0,0,1,312.64,441.2,8,8,0,0,1,304.12,433.27Z M324.11,257.41A70,70,0,1,1,184.11,257.41A70,70,0,1,1,324.11,257.41Z" 
        style="fill: #000; stroke: #000; stroke-miterlimit: 10; stroke-width: 28px"/>
</svg>
