<?xml version="1.0" encoding="utf-8"?>
<svg xmlns="http://www.w3.org/2000/svg" viewBox="0 0 512 512">
  <path d="M312.08 455.22a22 22 0 0 1-21.91-20.57c0-.45 0-.87 0-1.29V419.77a22 22 0 0 1 20.26-21.88 90.76 90.76 0 0 0 83.82-83.74 22 22 0 0 1 21.86-20.33h13.52a22 22 0 0 1 21.9 23.18c0 .42 0 .84 0 1.26a147.68 147.68 0 0 1-138 137.91q-.72.05-1.45.05ZM194.89 455.22q-.72 0-1.44 0a147.68 147.68 0 0 1-138-137.95c0-.41 0-.84 0-1.26a22 22 0 0 1 21.85-22.14H91a22 22 0 0 1 21.82 20.26 90.76 90.76 0 0 0 83.74 83.81 22 22 0 0 1 20.34 21.93v13.55c0 .42 0 .85 0 1.27a22 22 0 0 1-21.92 20.59Zm59.11-113.95a84 84 0 0 1 0-168.07 84.09 84.09 0 0 1 84 84v.07a84.1 84.1 0 0 1-84 84ZM416 218a22 22 0 0 1-21.82-20.26 90.75 90.75 0 0 0-83.72-83.74 22 22 0 0 1-20.34-21.92V78.5q0-.63 0-1.26a22 22 0 0 1 23.39-20.56 147.68 147.68 0 0 1 137.97 138.14c0 .42 0 .84 0 1.26a22 22 0 0 1-21.81 22.14H416Zm-325.07 0H77.4a22 22 0 0 1-21.95-22.15c0-.42 0-.84 0-1.26a147.68 147.68 0 0 1 138-137.9 22 22 0 0 1 23.36 20.55c0 .42 0 .84 0 1.26V92.09a22 22 0 0 1-20.18 21.91 90.75 90.75 0 0 0-83.82 83.89 22 22 0 0 1-21.88 20.06Z"/>
</svg>
