<svg xmlns="http://www.w3.org/2000/svg" width="137.08" height="40" viewBox="0 0 137.08 40">
  <title>sk</title>
  <g>
    <path d="M10,0A10,10,0,0,0,0,10V30A10,10,0,0,0,10,40H30A10,10,0,0,0,40,30V0Z" style="fill: #b4ff0a"/>
    <path d="M10.93,16c-.33-1.43,1.1-2.7,2.95-2.7,1.66,0,3.33.37,4,2.69H20v3.54C17.31,17.32,11.56,18.69,10.93,16ZM33,15h-4.8l-4.57,5V10H20v2.42c-.12-.16-.25-.31-.39-.46a7.6,7.6,0,0,0-5.78-2.15,6.54,6.54,0,0,0-5.37,2.36,5.77,5.77,0,0,0-1.22,4.65c.86,3.85,4.43,4.47,7.06,4.81,2.07.27,4.06.65,4,2.49s-2.22,2.39-3.64,2.39c-3.7,0-3.82-2.73-3.82-2.73h-4a6.68,6.68,0,0,0,1.63,4.09c1.38,1.55,3.45,2.33,6.16,2.33A8,8,0,0,0,20,28.33V30h3.7V25.26L25,23.83,28.74,30H33L27.6,21Z" style="fill: #4d5759"/>
    <path d="M48.09,29.9V27.1a4.53,4.53,0,0,0,1.6.3,1.25,1.25,0,0,0,1.1-.4,1.09,1.09,0,0,0,.4-.9v-.4c0-.1-.1-.3-.1-.4a.76.76,0,0,1-.1-.4c0-.1-.1-.2-.2-.4s-.2-.3-.2-.4L46,14.8h3.7l3.4,8,3.4-8h3.6L54.89,26a8.17,8.17,0,0,1-2.2,3.3,4.37,4.37,0,0,1-2.9.9A2.49,2.49,0,0,1,48.09,29.9Z" style="fill: #4d5759"/>
    <path d="M66.29,23.6V19h3V30h-3V25.7a16.33,16.33,0,0,1-3.5.5,3.34,3.34,0,0,1-2.7-1,4.1,4.1,0,0,1-.9-2.8V19h3v2.7a2.5,2.5,0,0,0,.4,1.7,1.58,1.58,0,0,0,1.3.5A9.86,9.86,0,0,0,66.29,23.6Z" style="fill: #4d5759"/>
    <path d="M81,30h-3.1a3.09,3.09,0,0,1-.2-1.1,4.9,4.9,0,0,1-3.6,1.4,4.37,4.37,0,0,1-2.9-.9,3,3,0,0,1-1-2.4,3.73,3.73,0,0,1,.2-1.2,1.8,1.8,0,0,1,.6-.9c.3-.2.5-.4.8-.6a2.32,2.32,0,0,1,1-.4,5.16,5.16,0,0,1,1.1-.2,6.53,6.53,0,0,0,1.1-.2,9.43,9.43,0,0,0,2.1-.4c.4-.2.5-.4.5-.9,0-1-.7-1.5-2-1.5a2.08,2.08,0,0,0-1.5.4,2.26,2.26,0,0,0-.6,1.3h-2.8c.2-2.5,1.9-3.7,5.1-3.7s4.8,1.2,4.8,3.6V27A7.39,7.39,0,0,0,81,30Zm-3.3-5.3a9.3,9.3,0,0,1-2.1.6,3.37,3.37,0,0,0-1.7.5,1.43,1.43,0,0,0-.5,1.1,1.37,1.37,0,0,0,.4,1.1,1.59,1.59,0,0,0,1.2.4,2.71,2.71,0,0,0,1.9-.6,2.14,2.14,0,0,0,.7-1.8V24.7Z" style="fill: #4d5759"/>
    <path d="M92.59,25.8a4.84,4.84,0,0,1-1.7,3.3,5.22,5.22,0,0,1-3.6,1.2,5.42,5.42,0,0,1-4.1-1.6,5.59,5.59,0,0,1-1.5-4.1,6.09,6.09,0,0,1,1.5-4.3,5.28,5.28,0,0,1,4.1-1.6,5.72,5.72,0,0,1,3.6,1.1,4.67,4.67,0,0,1,1.6,3h-3a2,2,0,0,0-2.2-1.9,2.2,2.2,0,0,0-1.9.9,4,4,0,0,0-.7,2.6,3.73,3.73,0,0,0,.7,2.5,2.2,2.2,0,0,0,1.9.9,2.17,2.17,0,0,0,2.3-2.2h3Z" style="fill: #4d5759"/>
    <path d="M102.39,21.3h-3.6V30h-3V21.3h-3.6V19h10.2v2.3Z" style="fill: #4d5759"/>
    <path d="M113.19,30h-3V25.4H106V30h-3V19h3v4h4.2V19h3Z" style="fill: #4d5759"/>
    <path d="M125,30h-2.9V22.6l-3.9,7.4h-3.4V19h2.9v7.4l3.9-7.4H125Z" style="fill: #4d5759"/>
    <path d="M137.68,30H134l-3.2-4.7-1.3,1.4V30h-3V19h3v4.3l4-4.3h3.6l-4.3,4.3Z" style="fill: #4d5759"/>
  </g>
</svg>
