<svg xmlns="http://www.w3.org/2000/svg" width="68" height="50" fill="none"><g fill="#4D5759" clip-path="url(#a)"><path d="M6.96 10.16C6.42 7.8 8.77 5.7 11.81 5.7c2.74 0 5.49.62 6.53 4.44h3.51v5.83C17.48 12.38 8 14.64 6.96 10.15ZM43.4 8.54h-7.91l-7.53 8.24V.32h-6.1V4.3c-.2-.25-.4-.5-.65-.76C19 1.2 15.8 0 11.71 0 6.96 0 4.27 2.12 2.85 3.9 1.09 6.1.3 9.1.86 11.55c1.4 6.35 7.3 7.36 11.62 7.93 3.41.44 6.68 1.06 6.6 4.1-.1 3.17-3.66 3.94-6 3.94-6.08 0-6.29-4.5-6.29-4.5H.25c.09 1.7.6 4.4 2.68 6.74 2.28 2.55 5.7 3.84 10.15 3.84a13.1 13.1 0 0 0 8.77-3.1v2.73h6.1v-7.78l2.17-2.36 6.16 10.14h7.1l-8.96-14.86 8.98-9.84ZM2.1 47.9c.18.06.4.08.63.08.3 0 .54-.09.72-.27.18-.18.3-.42.36-.69L0 38.94h2.54l2.45 5.8 2.15-5.8h2.42L6.1 46.91a7.2 7.2 0 0 1-1.42 2.33c-.51.5-1.07.77-1.68.77-.21 0-.38 0-.52-.03a1.9 1.9 0 0 1-.37-.08l-.28-.09a.94.94 0 0 0-.22-.07v-2.05c.13.1.3.17.5.22m11.81-1.21c-.15.04-.32.06-.5.11-.18.03-.37.07-.57.08-.2.02-.4.02-.57.02-.47 0-.86-.04-1.22-.12a2.53 2.53 0 0 1-.89-.39 1.63 1.63 0 0 1-.54-.72 2.73 2.73 0 0 1-.17-1.07v-2.88h2.07v2.48c0 .22.03.42.09.55.04.16.13.28.25.37.13.09.26.15.44.18a4.12 4.12 0 0 0 1.47-.05c.21-.08.37-.15.5-.22v-3.31h2.07v8h-2.08v-3.16c-.09.03-.2.08-.36.12m8.2-.69c-.13.06-.3.12-.51.15l-.56.1c-.24.05-.45.1-.63.16a1.7 1.7 0 0 0-.45.22.97.97 0 0 0-.27.36c-.06.14-.09.3-.09.52 0 .16.03.31.08.43a.9.9 0 0 0 .24.32c.09.07.2.15.32.18.13.04.27.06.42.06l.3-.03.4-.1c.13-.05.27-.11.4-.2.13-.07.25-.2.36-.33.12-.13.21-.3.27-.51.06-.2.1-.43.1-.7v-.8a2.5 2.5 0 0 1-.37.17h-.01Zm2.5 2.74a1 1 0 0 0 .11.36c.05.1.1.16.15.2.06.05.1.08.18.1v.33h-2.3l-.12-.38a1.48 1.48 0 0 1-.08-.56l-.47.47c-.17.13-.33.26-.53.36-.2.1-.4.2-.66.26a3.93 3.93 0 0 1-1.9-.06c-.3-.11-.55-.28-.77-.47a2.26 2.26 0 0 1-.52-.78 2.9 2.9 0 0 1-.17-1.07 2.47 2.47 0 0 1 .58-1.65c.2-.22.42-.4.7-.53.26-.15.56-.24.91-.29l2.03-.3.24-.04a.49.49 0 0 0 .24-.1.5.5 0 0 0 .17-.19c.05-.09.08-.2.08-.33s-.03-.25-.06-.36a.65.65 0 0 0-.21-.28.99.99 0 0 0-.39-.2 2.47 2.47 0 0 0-.62-.06c-.28 0-.5.03-.66.08a.94.94 0 0 0-.4.24.96.96 0 0 0-.24.34l-.08.44h-2.08a2.65 2.65 0 0 1 .22-.98c.08-.2.22-.4.37-.62a2.9 2.9 0 0 1 1.54-1 6.05 6.05 0 0 1 3.04.03c.42.15.77.35 1.03.58.24.23.4.5.5.78.07.28.11.57.11.85v4.24c0 .24.02.44.05.59M30.62 44a1.1 1.1 0 0 0-.66-.66 2.26 2.26 0 0 0-.58-.07c-.35 0-.62.07-.83.24-.2.16-.37.36-.48.6a3.1 3.1 0 0 0-.22.81c-.03.28-.07.56-.07.81 0 .26.02.54.05.83.03.3.09.56.21.8a1.34 1.34 0 0 0 1.34.84c.24 0 .45-.04.63-.15.16-.09.31-.21.43-.34a1.41 1.41 0 0 0 .35-.91h2.17c0 .14-.02.3-.06.52a4.7 4.7 0 0 1-.24.67c-.1.22-.26.47-.43.7a3.46 3.46 0 0 1-2.85 1.28 4.4 4.4 0 0 1-1.6-.27 3.23 3.23 0 0 1-1.9-2.17 5.93 5.93 0 0 1-.26-1.8c0-.68.1-1.3.28-1.82.17-.51.43-.97.77-1.33.32-.36.72-.63 1.18-.81.45-.2.98-.29 1.53-.29.24 0 .5.03.77.07a3.54 3.54 0 0 1 2.13 1.14 3.33 3.33 0 0 1 .68 1.86h-2.17c-.04-.2-.09-.4-.17-.55m9.8-2.26v1.68H38v6.31h-2.07v-6.31H33.5v-1.68h6.91Zm5.99 2.88v-2.88h2.08v8H46.4V46.3h-3.05v3.43H41.3v-8h2.07v2.89h3.05Zm5.79 2.04 2.92-4.92h2.18v8h-2.08V44.9h-.02l-2.83 4.83H50.1v-8h2.07v4.93h.04ZM64 41.74h2.77l-3.3 3.31 3.44 4.68h-2.7l-2.35-3.38-.84.85v2.53h-2.08v-8h2.08v3.04L64 41.74Z"/></g><defs><clipPath id="a"><path fill="#fff" d="M0 0h68v50H0z"/></clipPath></defs></svg>
