<svg xmlns="http://www.w3.org/2000/svg" width="53.96mm" height="16.86mm" viewBox="0 0 152.96 47.8">
  <title>22удалить-01</title>
  <g>
    <g>
      <path d="M57.41,34.93V18.25h8.43a5.56,5.56,0,0,1,3.19.82A4.29,4.29,0,0,1,70.65,21a5.42,5.42,0,0,1,.44,2,4.53,4.53,0,0,1-.68,2.47,3.5,3.5,0,0,1-1.9,1.49,4.58,4.58,0,0,1,1.24.73,2.47,2.47,0,0,1,.67,1.18,8.74,8.74,0,0,1,.23,2.32c0,.94,0,1.61,0,2a2.33,2.33,0,0,0,.19.89.89.89,0,0,0,.51.43v.44H67.51a12.37,12.37,0,0,1-.37-3.37A8.62,8.62,0,0,0,67,29.65a1.41,1.41,0,0,0-.73-.93,4.12,4.12,0,0,0-1.84-.31h-3.6v6.53Zm3.41-9.34h4.09a3.22,3.22,0,0,0,2-.53,2.12,2.12,0,0,0,.66-1.74,2.08,2.08,0,0,0-2.44-2.18H60.82Z" style="fill: #4d5759"/>
      <path d="M81.19,31.31h3.35a5,5,0,0,1-2.11,3,6.15,6.15,0,0,1-3.33.94,8.08,8.08,0,0,1-2.47-.35,5,5,0,0,1-2-1.15,5.21,5.21,0,0,1-1.29-2.11,9.65,9.65,0,0,1-.46-3.15,9.14,9.14,0,0,1,.2-1.78,6.71,6.71,0,0,1,.8-2A4.85,4.85,0,0,1,75.76,23a6.13,6.13,0,0,1,3.1-.7,7.07,7.07,0,0,1,2,.3,5,5,0,0,1,1.85,1,5.23,5.23,0,0,1,1.39,2.1,9.32,9.32,0,0,1,.53,3.37v.58H76.21A6.71,6.71,0,0,0,76.47,31a2.36,2.36,0,0,0,.82,1.13,2.83,2.83,0,0,0,1.82.51,2.47,2.47,0,0,0,1.31-.36A1.65,1.65,0,0,0,81.19,31.31Zm-4.9-3.78h5a2.81,2.81,0,0,0-.85-2,2.5,2.5,0,0,0-1.65-.61q-2.24,0-2.54,2.59Z" style="fill: #4d5759"/>
      <path d="M97,26.33H93.85a2.12,2.12,0,0,0-.56-1.19,2.3,2.3,0,0,0-1.62-.41q-2,0-2,1.21c0,.41.44.73,1.32,1s1.82.45,2.82.68a6.81,6.81,0,0,1,2.55,1.12A2.72,2.72,0,0,1,97.4,31a3.67,3.67,0,0,1-.89,2.61,4.48,4.48,0,0,1-2.11,1.3,8.92,8.92,0,0,1-2.42.35,8.16,8.16,0,0,1-4.16-1A3.62,3.62,0,0,1,86,31h3.35q0,1.81,2.7,1.81a2.47,2.47,0,0,0,1.59-.41,1.15,1.15,0,0,0,.47-.87q0-.67-1.37-1T90,29.82a6.54,6.54,0,0,1-2.47-1.1,2.72,2.72,0,0,1-1-2.33,4.29,4.29,0,0,1,.47-1.95,3.71,3.71,0,0,1,1.6-1.56,6,6,0,0,1,2.92-.62Q96.73,22.25,97,26.33Z" style="fill: #4d5759"/>
      <path d="M103,18.09v3H99.71v-3Zm-3.25,4.48H103V34.94H99.71Z" style="fill: #4d5759"/>
      <path d="M117.28,18.25V34.93h-3.18V33.38h0a3.79,3.79,0,0,1-3.58,1.88,4.6,4.6,0,0,1-2.92-.92,5.36,5.36,0,0,1-1.74-2.44,9.48,9.48,0,0,1-.56-3.3,8.62,8.62,0,0,1,.41-2.76,5.79,5.79,0,0,1,1.13-2,4.65,4.65,0,0,1,1.65-1.2,5,5,0,0,1,2-.41A4,4,0,0,1,114,24.15h0v-5.9Zm-8.66,10.6a5.31,5.31,0,0,0,.63,2.56,2.15,2.15,0,0,0,2.06,1.17,2.47,2.47,0,0,0,2.17-1,4.31,4.31,0,0,0,.71-2.53q0-4-2.79-4a2.3,2.3,0,0,0-2.11,1.08,5.08,5.08,0,0,0-.7,2.71Z" style="fill: #4d5759"/>
      <path d="M127.62,31.31H131a5,5,0,0,1-2.11,3,6.16,6.16,0,0,1-3.33.94,8.09,8.09,0,0,1-2.47-.35,5,5,0,0,1-2-1.15,5.21,5.21,0,0,1-1.29-2.11,9.65,9.65,0,0,1-.46-3.15,9.14,9.14,0,0,1,.2-1.78,6.71,6.71,0,0,1,.8-2A4.85,4.85,0,0,1,122.18,23a6.13,6.13,0,0,1,3.1-.7,7.07,7.07,0,0,1,2,.3,5,5,0,0,1,1.85,1,5.22,5.22,0,0,1,1.39,2.1,9.32,9.32,0,0,1,.53,3.37v.58h-8.46a6.69,6.69,0,0,0,.26,1.38,2.37,2.37,0,0,0,.82,1.13,2.83,2.83,0,0,0,1.82.51,2.47,2.47,0,0,0,1.31-.36A1.65,1.65,0,0,0,127.62,31.31Zm-4.9-3.78h5a2.81,2.81,0,0,0-.85-2,2.5,2.5,0,0,0-1.65-.61q-2.24,0-2.54,2.59Z" style="fill: #4d5759"/>
      <path d="M144.45,26.38v8.55h-3.25V27.43a5.32,5.32,0,0,0-.12-1.15,1.62,1.62,0,0,0-.59-.9,2.19,2.19,0,0,0-1.41-.39,2.61,2.61,0,0,0-1.31.33,2.29,2.29,0,0,0-.91,1,3.37,3.37,0,0,0-.33,1.56v7.09h-3.25V22.57h3.11v1.81h0a4.08,4.08,0,0,1,3.71-2.13,5,5,0,0,1,2.21.48,3.57,3.57,0,0,1,1.53,1.41A4.3,4.3,0,0,1,144.45,26.38Z" style="fill: #4d5759"/>
      <path d="M150.93,19.24v3.35h2v2.32h-2v6.69a2.06,2.06,0,0,0,.07.62.52.52,0,0,0,.35.28,3.2,3.2,0,0,0,.93.09,4.35,4.35,0,0,0,.68,0V35l-1.54,0H151a5.31,5.31,0,0,1-2.06-.32,1.83,1.83,0,0,1-1-.9,3.55,3.55,0,0,1-.26-1.45V24.9H146V22.57h1.67V19.24Z" style="fill: #4d5759"/>
    </g>
    <g>
      <path d="M11.95,0A12,12,0,0,0,0,12v23.9A12,12,0,0,0,11.95,47.8h23.9A12,12,0,0,0,47.79,35.85V0Z" style="fill: #b4ff0a"/>
      <path d="M13.06,19.09c-.39-1.71,1.32-3.22,3.52-3.22,2,0,4,.44,4.74,3.22h2.55v4.23C20.69,20.7,13.81,22.33,13.06,19.09Zm26.43-1.17H33.75l-5.46,6V11.95H23.87v2.9c-.15-.19-.3-.37-.47-.55a9.08,9.08,0,0,0-6.9-2.57,7.82,7.82,0,0,0-6.41,2.82,6.89,6.89,0,0,0-1.46,5.56c1,4.6,5.3,5.34,8.44,5.74,2.47.32,4.85.77,4.78,3s-2.65,2.85-4.35,2.85c-4.42,0-4.56-3.26-4.56-3.26H8.2a8,8,0,0,0,2,4.88c1.65,1.85,4.12,2.79,7.36,2.79a9.56,9.56,0,0,0,6.36-2.24v2h4.43V30.18l1.57-1.71,4.48,7.35h5.15L33,25Z" style="fill: #4d5759"/>
    </g>
  </g>
</svg>
