<svg xmlns="http://www.w3.org/2000/svg" width="59.81" height="50" viewBox="0 0 59.81 50">
  <title>sk_en</title>
  <g>
    <g>
      <path d="M.78,49.79V39.48H6A3.44,3.44,0,0,1,8,40a2.65,2.65,0,0,1,1,1.17,3.35,3.35,0,0,1,.27,1.25,2.8,2.8,0,0,1-.42,1.53,2.16,2.16,0,0,1-1.17.92,2.83,2.83,0,0,1,.76.45,1.53,1.53,0,0,1,.41.73A5.4,5.4,0,0,1,9,47.47c0,.58,0,1,0,1.24a1.44,1.44,0,0,0,.11.55.55.55,0,0,0,.31.27v.27H7a7.64,7.64,0,0,1-.23-2.08,5.33,5.33,0,0,0-.1-1.18A.87.87,0,0,0,6.25,46a2.55,2.55,0,0,0-1.14-.19H2.89v4ZM2.89,44H5.42a2,2,0,0,0,1.26-.33,1.31,1.31,0,0,0,.4-1.08,1.46,1.46,0,0,0-.33-.94,1.45,1.45,0,0,0-1.18-.4H2.89Z" style="fill: #4d5759"/>
      <path d="M15.48,47.55h2.07a3.08,3.08,0,0,1-1.3,1.86,3.8,3.8,0,0,1-2.06.58,5,5,0,0,1-1.53-.22,3.07,3.07,0,0,1-1.21-.71,3.22,3.22,0,0,1-.79-1.3,6,6,0,0,1-.28-1.95,5.65,5.65,0,0,1,.12-1.1,4.14,4.14,0,0,1,.5-1.25,3,3,0,0,1,1.12-1.07A3.78,3.78,0,0,1,14,42a4.37,4.37,0,0,1,1.25.18,3.08,3.08,0,0,1,1.15.64,3.23,3.23,0,0,1,.86,1.3,5.76,5.76,0,0,1,.33,2.08v.36H12.4a4.14,4.14,0,0,0,.16.85,1.46,1.46,0,0,0,.51.7,1.75,1.75,0,0,0,1.12.32,1.53,1.53,0,0,0,.81-.22A1,1,0,0,0,15.48,47.55Zm-3-2.34h3.11A1.74,1.74,0,0,0,15,44a1.55,1.55,0,0,0-1-.38q-1.38,0-1.57,1.6Z" style="fill: #4d5759"/>
      <path d="M25.26,44.48h-2a1.31,1.31,0,0,0-.35-.74,1.42,1.42,0,0,0-1-.25q-1.24,0-1.24.75c0,.25.27.45.81.59l1.74.42a4.2,4.2,0,0,1,1.57.69,1.68,1.68,0,0,1,.65,1.44A2.27,2.27,0,0,1,24.94,49a2.77,2.77,0,0,1-1.3.8,5.51,5.51,0,0,1-1.49.21,5,5,0,0,1-2.57-.62,2.24,2.24,0,0,1-1.1-2h2.07q0,1.12,1.67,1.12a1.53,1.53,0,0,0,1-.25.71.71,0,0,0,.29-.54q0-.41-.85-.63l-1.73-.42A4,4,0,0,1,19.37,46a1.68,1.68,0,0,1-.64-1.44,2.65,2.65,0,0,1,.29-1.2,2.29,2.29,0,0,1,1-1A3.72,3.72,0,0,1,21.82,42Q25.08,42,25.26,44.48Z" style="fill: #4d5759"/>
      <path d="M28.93,39.38v1.86h-2V39.38Zm-2,2.77h2v7.64h-2Z" style="fill: #4d5759"/>
      <path d="M37.77,39.48V49.79h-2v-1h0A2.34,2.34,0,0,1,33.57,50a2.84,2.84,0,0,1-1.81-.57,3.31,3.31,0,0,1-1.07-1.51,5.86,5.86,0,0,1-.34-2,5.32,5.32,0,0,1,.25-1.7,3.58,3.58,0,0,1,.7-1.25,2.87,2.87,0,0,1,1-.74,3.06,3.06,0,0,1,1.21-.25,2.47,2.47,0,0,1,2.21,1.19h0V39.48ZM32.43,46a3.28,3.28,0,0,0,.39,1.58,1.33,1.33,0,0,0,1.27.72,1.53,1.53,0,0,0,1.34-.63,2.66,2.66,0,0,0,.44-1.56q0-2.45-1.72-2.45a1.42,1.42,0,0,0-1.3.66A3.14,3.14,0,0,0,32.42,46Z" style="fill: #4d5759"/>
      <path d="M44.16,47.55h2.07a3.08,3.08,0,0,1-1.3,1.86,3.8,3.8,0,0,1-2.06.58,5,5,0,0,1-1.53-.22,3.07,3.07,0,0,1-1.21-.71,3.22,3.22,0,0,1-.79-1.3,6,6,0,0,1-.28-1.95,5.65,5.65,0,0,1,.12-1.1,4.15,4.15,0,0,1,.5-1.25,3,3,0,0,1,1.12-1.07A3.78,3.78,0,0,1,42.72,42a4.37,4.37,0,0,1,1.25.18,3.08,3.08,0,0,1,1.15.64,3.23,3.23,0,0,1,.86,1.3,5.76,5.76,0,0,1,.33,2.08v.36H41.08a4.14,4.14,0,0,0,.16.85,1.46,1.46,0,0,0,.51.7,1.75,1.75,0,0,0,1.12.32,1.53,1.53,0,0,0,.81-.22A1,1,0,0,0,44.16,47.55Zm-3-2.34h3.11A1.74,1.74,0,0,0,43.72,44a1.55,1.55,0,0,0-1-.38q-1.38,0-1.57,1.6Z" style="fill: #4d5759"/>
      <path d="M54.55,44.51v5.28h-2V45.15a3.29,3.29,0,0,0-.07-.71,1,1,0,0,0-.36-.56,1.35,1.35,0,0,0-.87-.24,1.61,1.61,0,0,0-.81.2,1.41,1.41,0,0,0-.56.6,2.08,2.08,0,0,0-.21,1v4.38h-2V42.15h1.92v1.12h0A2.52,2.52,0,0,1,51.89,42a3.06,3.06,0,0,1,1.36.3,2.21,2.21,0,0,1,.94.87A2.66,2.66,0,0,1,54.55,44.51Z" style="fill: #4d5759"/>
      <path d="M58.56,40.1v2.07h1.25V43.6H58.56v4.14a1.27,1.27,0,0,0,0,.38.32.32,0,0,0,.22.18,2,2,0,0,0,.58.06,2.69,2.69,0,0,0,.42,0v1.53l-.95,0h-.25a3.28,3.28,0,0,1-1.27-.2,1.13,1.13,0,0,1-.61-.56,2.19,2.19,0,0,1-.16-.9V43.59h-1V42.15h1V40.1Z" style="fill: #4d5759"/>
    </g>
    <path d="M6.64,10.06c-.54-2.34,1.8-4.4,4.81-4.4,2.71,0,5.44.61,6.47,4.39h3.48v5.78C17.06,12.26,7.67,14.5,6.64,10.06Zm36.1-1.6H34.91l-7.46,8.16V.31h-6v4c-.2-.26-.41-.51-.64-.76C18.57,1.18,15.4,0,11.34,0A10.67,10.67,0,0,0,2.58,3.86a9.41,9.41,0,0,0-2,7.6C2,17.74,7.83,18.74,12.12,19.3c3.38.44,6.62,1.05,6.53,4.07s-3.62,3.9-5.94,3.9c-6,0-6.23-4.45-6.23-4.45H0a10.91,10.91,0,0,0,2.66,6.67C4.91,32,8.29,33.29,12.72,33.29a13.05,13.05,0,0,0,8.69-3.06v2.69h6V25.21l2.14-2.34,6.11,10h7L33.85,18.2Z" style="fill: #4d5759"/>
  </g>
</svg>
