<svg xmlns="http://www.w3.org/2000/svg" width="40.79mm" height="16.86mm" viewBox="0 0 163.8 47.8">
  <title>2удалить</title>
  <g>
    <path d="M11.95,0A12,12,0,0,0,0,12v23.9A12,12,0,0,0,11.95,47.8h23.9A12,12,0,0,0,47.79,35.85V0Z" style="fill: #b4ff0a"/>
    <path d="M13.06,19.09c-.39-1.71,1.32-3.22,3.52-3.22,2,0,4,.44,4.74,3.22h2.55v4.23C20.69,20.7,13.81,22.33,13.06,19.09Zm26.43-1.17H33.75l-5.46,6V11.95H23.87v2.9c-.15-.19-.3-.37-.47-.55a9.08,9.08,0,0,0-6.9-2.57,7.82,7.82,0,0,0-6.41,2.82,6.89,6.89,0,0,0-1.46,5.56c1,4.6,5.3,5.34,8.44,5.74,2.47.32,4.85.77,4.78,3s-2.65,2.85-4.35,2.85c-4.42,0-4.56-3.26-4.56-3.26H8.2a8,8,0,0,0,2,4.88c1.65,1.85,4.12,2.79,7.36,2.79a9.56,9.56,0,0,0,6.36-2.24v2h4.43V30.18l1.57-1.71,4.48,7.35h5.15L33,25Z" style="fill: #4d5759"/>
    <path d="M57.47,35.72V32.38a5.41,5.41,0,0,0,1.91.36,1.49,1.49,0,0,0,1.31-.48,1.3,1.3,0,0,0,.48-1.08v-.48c0-.12-.12-.36-.12-.48a.9.9,0,0,1-.12-.48c0-.12-.12-.24-.24-.48s-.24-.36-.24-.48L55,17.68h4.42l4.06,9.56,4.06-9.56h4.3L65.59,31.07A9.76,9.76,0,0,1,63,35a5.23,5.23,0,0,1-3.46,1.08A3,3,0,0,1,57.47,35.72Z" style="fill: #4d5759"/>
    <path d="M79.21,28.2V22.7H82.8V35.84H79.21V30.71a19.51,19.51,0,0,1-4.18.6,4,4,0,0,1-3.23-1.19,4.89,4.89,0,0,1-1.08-3.35V22.7h3.58v3.23a3,3,0,0,0,.48,2,1.89,1.89,0,0,0,1.55.6A11.78,11.78,0,0,0,79.21,28.2Z" style="fill: #4d5759"/>
    <path d="M96.78,35.84h-3.7a3.69,3.69,0,0,1-.24-1.31,5.85,5.85,0,0,1-4.3,1.67,5.23,5.23,0,0,1-3.46-1.08,3.54,3.54,0,0,1-1.19-2.87,4.46,4.46,0,0,1,.24-1.43,2.15,2.15,0,0,1,.72-1.08c.36-.24.6-.48,1-.72A2.77,2.77,0,0,1,87,28.56a6.16,6.16,0,0,1,1.31-.24,7.8,7.8,0,0,0,1.31-.24,11.27,11.27,0,0,0,2.51-.48c.48-.24.6-.48.6-1.08,0-1.19-.84-1.79-2.39-1.79a2.48,2.48,0,0,0-1.79.48,2.7,2.7,0,0,0-.72,1.55H84.47c.24-3,2.27-4.42,6.09-4.42s5.73,1.43,5.73,4.3v5.62A8.83,8.83,0,0,0,96.78,35.84Zm-3.94-6.33a11.11,11.11,0,0,1-2.51.72,4,4,0,0,0-2,.6,1.71,1.71,0,0,0-.6,1.31,1.63,1.63,0,0,0,.48,1.31,1.9,1.9,0,0,0,1.43.48,3.23,3.23,0,0,0,2.27-.72,2.56,2.56,0,0,0,.84-2.15V29.51Z" style="fill: #4d5759"/>
    <path d="M110.64,30.83a5.78,5.78,0,0,1-2,3.94,6.24,6.24,0,0,1-4.3,1.43,6.48,6.48,0,0,1-4.9-1.91,6.68,6.68,0,0,1-1.79-4.9,7.27,7.27,0,0,1,1.79-5.14,6.31,6.31,0,0,1,4.9-1.91,6.84,6.84,0,0,1,4.3,1.31,5.59,5.59,0,0,1,1.91,3.58h-3.58A2.42,2.42,0,0,0,104.3,25,2.62,2.62,0,0,0,102,26a4.81,4.81,0,0,0-.84,3.11,4.45,4.45,0,0,0,.84,3,2.62,2.62,0,0,0,2.27,1.08c1.55,0,2.51-.84,2.75-2.63h3.58Z" style="fill: #4d5759"/>
    <path d="M122.34,25.45H118V35.84h-3.58V25.45h-4.3V22.7h12.19v2.75Z" style="fill: #4d5759"/>
    <path d="M135.25,35.84h-3.58v-5.5h-5v5.5h-3.58V22.7h3.58v4.78h5V22.7h3.58Z" style="fill: #4d5759"/>
    <path d="M149.35,35.84h-3.46V27l-4.66,8.84h-4.06V22.7h3.46v8.84l4.66-8.84h4.06Z" style="fill: #4d5759"/>
    <path d="M164.52,35.84H160.1l-3.82-5.62-1.55,1.67v3.94h-3.58V22.7h3.58v5.14l4.78-5.14h4.3l-5.14,5.14Z" style="fill: #4d5759"/>
  </g>
</svg>
